<svg fill="#000000" xmlns="http://www.w3.org/2000/svg" xmlns:xlink="http://www.w3.org/1999/xlink" version="1.1" x="0px" y="0px" viewBox="0 0 100 100" style="enable-background:new 0 0 100 100;" xml:space="preserve"><path d="M78,36c-0.6,0-1,0.4-1,1c0,1.4-2.5,4-6,4s-6-2.6-6-4c0-0.6-0.4-1-1-1s-1,0.4-1,1c0,1.4-2.5,4-6,4  s-6-2.6-6-4c0-0.6-0.4-1-1-1s-1,0.4-1,1c0,1.4-2.5,4-6,4s-6-2.6-6-4c0-0.6-0.4-1-1-1s-1,0.4-1,1c0,1.4-2.5,4-6,4s-6-2.6-6-4  c0-0.6-0.4-1-1-1s-1,0.4-1,1c0,2.7,3.7,6,8,6c3,0,5.6-1.6,7-3.4c1.4,1.8,4,3.4,7,3.4s5.6-1.6,7-3.4c1.4,1.8,4,3.4,7,3.4  s5.6-1.6,7-3.4c1.4,1.8,4,3.4,7,3.4c4.3,0,8-3.3,8-6C79,36.4,78.6,36,78,36z"/><path d="M78,47c-0.6,0-1,0.4-1,1c0,1.4-2.5,4-6,4s-6-2.6-6-4c0-0.6-0.4-1-1-1s-1,0.4-1,1c0,1.4-2.5,4-6,4  s-6-2.6-6-4c0-0.6-0.4-1-1-1s-1,0.4-1,1c0,1.4-2.5,4-6,4s-6-2.6-6-4c0-0.6-0.4-1-1-1s-1,0.4-1,1c0,1.4-2.5,4-6,4s-6-2.6-6-4  c0-0.6-0.4-1-1-1s-1,0.4-1,1c0,2.7,3.7,6,8,6c3,0,5.6-1.6,7-3.4c1.4,1.8,4,3.4,7,3.4s5.6-1.6,7-3.4c1.4,1.8,4,3.4,7,3.4  s5.6-1.6,7-3.4c1.4,1.8,4,3.4,7,3.4c4.3,0,8-3.3,8-6C79,47.4,78.6,47,78,47z"/><path d="M78,58c-0.6,0-1,0.4-1,1c0,1.4-2.5,4-6,4s-6-2.6-6-4c0-0.6-0.4-1-1-1s-1,0.4-1,1c0,1.4-2.5,4-6,4  s-6-2.6-6-4c0-0.6-0.4-1-1-1s-1,0.4-1,1c0,1.4-2.5,4-6,4s-6-2.6-6-4c0-0.6-0.4-1-1-1s-1,0.4-1,1c0,1.4-2.5,4-6,4s-6-2.6-6-4  c0-0.6-0.4-1-1-1s-1,0.4-1,1c0,2.7,3.7,6,8,6c3,0,5.6-1.6,7-3.4c1.4,1.8,4,3.4,7,3.4s5.6-1.6,7-3.4c1.4,1.8,4,3.4,7,3.4  s5.6-1.6,7-3.4c1.4,1.8,4,3.4,7,3.4c4.3,0,8-3.3,8-6C79,58.4,78.6,58,78,58z"/></svg>