<?xml version="1.0" encoding="utf-8"?>
<!-- Generator: Adobe Illustrator 15.1.0, SVG Export Plug-In . SVG Version: 6.00 Build 0)  -->
<!DOCTYPE svg PUBLIC "-//W3C//DTD SVG 1.1//EN" "http://www.w3.org/Graphics/SVG/1.1/DTD/svg11.dtd">
<svg version="1.1"
	 id="svg2" xmlns:rdf="http://www.w3.org/1999/02/22-rdf-syntax-ns#" xmlns:cc="http://creativecommons.org/ns#" xmlns:dc="http://purl.org/dc/elements/1.1/" xmlns:svg="http://www.w3.org/2000/svg" inkscape:version="0.48.2 r9819" sodipodi:docname="actor.svg" xmlns:inkscape="http://www.inkscape.org/namespaces/inkscape" xmlns:sodipodi="http://sodipodi.sourceforge.net/DTD/sodipodi-0.dtd"
	 xmlns="http://www.w3.org/2000/svg" xmlns:xlink="http://www.w3.org/1999/xlink" x="0px" y="0px" width="72.307px" height="100px"
	 viewBox="0 0 72.307 100" enable-background="new 0 0 72.307 100" xml:space="preserve">
<sodipodi:namedview  inkscape:zoom="2.8" showgrid="false" fit-margin-top="0" inkscape:pageopacity="0.0" id="base" inkscape:cx="93.577651" inkscape:cy="60.528427" fit-margin-left="0" inkscape:document-units="px" inkscape:window-width="960" inkscape:window-height="1026" inkscape:window-x="958" borderopacity="1.0" pagecolor="#ffffff" inkscape:current-layer="layer1" bordercolor="#666666" inkscape:window-y="24" inkscape:window-maximized="0" inkscape:pageshadow="2" fit-margin-right="0" fit-margin-bottom="0">
	</sodipodi:namedview>
<path id="path2990" inkscape:connector-curvature="0" d="M70.016,15.635c0-1.01-1.008-1.828-2.253-1.828
	c-1.121,0-2.05,0.67-2.216,1.543l-2.063,8.797l-12.245-5.06l-22.433,1.488L0.498,48.825l0.001,0.004C0.188,49.143,0,49.542,0,49.974
	c0,1.009,1.008,1.827,2.251,1.827c0.614,0,1.172-0.201,1.578-0.527l0.004,0.002l24.974-19.284l3.281,16.655h-0.001L21.985,97.917
	c0,0-0.539,1.683,1.521,2.04c1.814,0.318,2.451-1.234,2.451-1.234l16.058-36.969h0.005h0.003l16.059,36.969
	c0,0,0.636,1.553,2.453,1.234c2.058-0.357,1.519-2.04,1.519-2.04L51.954,48.66l3.296-18.884l10.968,3.573
	c0,0,1.822,0.819,2.883-1.232c1.017-1.972,0.924-15.352,0.914-16.429C70.011,15.667,70.016,15.651,70.016,15.635L70.016,15.635z"/>
<path id="path2992" inkscape:connector-curvature="0" d="M40.157,0.552c-4.648-0.015-8.433,3.76-8.447,8.408
	c-0.018,4.648,3.722,8.43,8.369,8.447c4.647,0.016,8.434-3.759,8.447-8.408C48.544,4.351,44.806,0.568,40.157,0.552z"/>
<path d="M67.795,0.202c-0.401-0.103-0.808-0.175-1.206-0.195c-2.792-0.136-5.39,1.704-6.112,4.516
	c-0.068,0.27-0.105,0.537-0.127,0.803l-1.589,2.311l0.983,0.608l-1.175,4.569l5.139,1.285l0.623-2.453
	c0.157,0.055,0.303,0.152,0.467,0.195c3.212,0.826,6.494-1.146,7.318-4.36C72.943,4.268,71.008,1.027,67.795,0.202z M64.02,6.78
	c-0.996-0.004-1.795-0.833-1.791-1.83c0.004-0.997,0.795-1.794,1.791-1.791s1.794,0.833,1.79,1.83
	C65.808,5.986,65.016,6.784,64.02,6.78z"/>
</svg>
