<svg xmlns="http://www.w3.org/2000/svg" xmlns:xlink="http://www.w3.org/1999/xlink" version="1.1" id="Your_Icon" x="0px" y="0px" width="100px" height="100px" viewBox="0 0 100 100" enable-background="new 0 0 100 100" xml:space="preserve">
<g>
	<path d="M40.7,37.957c-0.259,0-0.512-0.094-0.709-0.268c-0.231-0.204-0.364-0.497-0.364-0.805v-6.995   c0-0.509,0.358-0.948,0.856-1.051l16.216-3.338c0.315-0.065,0.646,0.016,0.896,0.219c0.25,0.204,0.395,0.51,0.395,0.832v8.267   c0,0.54-0.401,0.996-0.938,1.064l-16.216,2.066C40.79,37.954,40.745,37.957,40.7,37.957z M41.773,30.764v4.901l14.07-1.792v-6.005   L41.773,30.764z"/>
	<path d="M29.571,74.523H8.903c-0.42,0-0.802-0.245-0.976-0.628c-0.175-0.383-0.109-0.832,0.167-1.149l29.956-34.449l-2.635,0.329   v1.597c0,0.593-0.48,1.073-1.073,1.073h-2.676l-1.611,3.222c-0.129,0.259-0.358,0.455-0.634,0.543l-3.085,0.981l-1.861,3.436   c-0.188,0.346-0.55,0.562-0.944,0.562h-1.987l-1.315,3.155c-0.167,0.399-0.558,0.66-0.991,0.66h-3.454l-1.14,2.406   c-0.149,0.316-0.443,0.539-0.786,0.599l-3.072,0.534l-1.206,2.948c-0.124,0.303-0.379,0.532-0.693,0.624L5.619,61.92l-0.939,2.952   c-0.18,0.564-0.783,0.877-1.348,0.697c-0.564-0.18-0.877-0.783-0.697-1.348l1.112-3.498c0.109-0.341,0.38-0.604,0.723-0.705   l3.319-0.967l1.235-3.02c0.14-0.342,0.445-0.588,0.809-0.651l3.109-0.54l1.193-2.518c0.178-0.375,0.555-0.614,0.97-0.614h3.418   l1.315-3.155c0.167-0.4,0.558-0.66,0.99-0.66h2.064l1.762-3.254c0.132-0.244,0.354-0.427,0.618-0.511l3.066-0.976l1.705-3.41   c0.182-0.364,0.554-0.593,0.96-0.593h2.266v-1.471c0-0.541,0.403-0.998,0.94-1.065l6.359-0.795c0.44-0.055,0.871,0.168,1.08,0.56   c0.209,0.393,0.155,0.874-0.138,1.209L11.258,72.377h17.704l22.436-37.524c0.304-0.509,0.963-0.675,1.472-0.371   s0.675,0.963,0.37,1.472L30.492,74.001C30.298,74.324,29.949,74.523,29.571,74.523z"/>
	<path d="M96.344,65.7c-0.275,0-0.55-0.105-0.76-0.316L69.03,38.752h-2.893c-0.593,0-1.073-0.48-1.073-1.073s0.48-1.073,1.073-1.073   h3.338c0.285,0,0.559,0.114,0.76,0.315l26.868,26.947c0.419,0.42,0.418,1.1-0.002,1.519C96.892,65.596,96.618,65.7,96.344,65.7z"/>
	<path d="M69.794,73.251c-0.008,0-0.016,0-0.024,0L30.817,72.4c-0.593-0.014-1.062-0.504-1.049-1.097s0.507-1.062,1.096-1.05   l37.414,0.817L55.901,35.167c-0.132-0.382-0.037-0.806,0.244-1.096c0.282-0.291,0.702-0.398,1.088-0.278l7.831,2.43v-5.287   l-8.544-3.388c-0.552-0.218-0.82-0.842-0.603-1.394c0.219-0.55,0.842-0.82,1.394-0.602l9.221,3.656   c0.41,0.162,0.679,0.558,0.679,0.998v7.472c0,0.341-0.163,0.662-0.438,0.864s-0.629,0.262-0.955,0.161L58.62,36.47l12.188,35.358   c0.114,0.332,0.059,0.698-0.147,0.982C70.458,73.088,70.136,73.251,69.794,73.251z"/>
	<path d="M70.429,73.251c-0.546,0-1.012-0.413-1.067-0.967c-0.059-0.59,0.373-1.116,0.962-1.175l15.721-1.558L60.867,36.963   c-0.347-0.449-0.283-1.091,0.143-1.464c0.428-0.374,1.072-0.35,1.471,0.054l33.674,34.123c0.304,0.308,0.393,0.769,0.226,1.167   c-0.166,0.399-0.558,0.66-0.989,0.66H88.13l-17.595,1.743C70.499,73.25,70.464,73.251,70.429,73.251z M88.604,69.356h4.22   L73.395,49.668L88.604,69.356z"/>
</g>
</svg>
