<svg xmlns="http://www.w3.org/2000/svg" xmlns:xlink="http://www.w3.org/1999/xlink" version="1.1" x="0px" y="0px" viewBox="0 0 100 100" enable-background="new 0 0 100 100" xml:space="preserve"><g><path fill="#000000" d="M80.961,25.059H54.3h-8.557H19.082c-0.546,0-0.987,0.442-0.987,0.988v48.057   c0,0.545,0.441,0.987,0.987,0.987h26.136h9.604h26.139c0.546,0,0.987-0.442,0.987-0.987V26.047   C81.948,25.501,81.507,25.059,80.961,25.059z M79.154,27.034l-1.838,1.838c-0.049-0.007-0.092-0.028-0.142-0.028H23.358   l-1.809-1.81H79.154z M76.188,30.819v38.51h-3.599H60.74H24.205v-38.51H76.188z M20.07,28.348l2.16,2.16v39.297l-2.16,2.16V28.348z    M21.711,73.115l1.812-1.812h38.203h9.875h5.573c0.002,0,0.002-0.001,0.004-0.001l1.813,1.812H21.711z M79.973,71.305l-1.811-1.81   V30.817l1.811-1.81V71.305z"></path><path fill="#000000" d="M46.332,23.864l4.887-4.887l4.889,4.887c0.385,0.386,1.01,0.386,1.396,0c0.385-0.385,0.385-1.01,0-1.396   l-5.586-5.586c-0.387-0.385-1.011-0.386-1.397,0l-5.586,5.586c-0.386,0.386-0.385,1.011,0,1.396   C45.32,24.25,45.945,24.25,46.332,23.864z"></path><path fill="#000000" d="M29.656,48.229c13.602-1.642,27.393-1.64,40.995-0.001c0.525,0.063,1.002-0.305,1.068-0.828   c0.525-4.16,0.793-6.241,1.317-10.402c0.065-0.522-0.337-1.003-0.899-1.071c-14.919-1.314-29.044-1.313-43.963,0   c-0.562,0.068-0.966,0.549-0.9,1.071c0.524,4.162,0.792,6.242,1.317,10.402C28.657,47.924,29.131,48.293,29.656,48.229z    M70.896,37.701c-0.393,3.409-0.586,5.113-0.977,8.521c-13.121-1.508-26.411-1.508-39.531,0c-0.392-3.409-0.584-5.113-0.977-8.521   C43.468,36.521,56.84,36.521,70.896,37.701z"></path><path fill="#000000" d="M58.912,52.262H29.301c-0.549,0-0.993,0.445-0.993,0.994c0,0.548,0.444,0.992,0.993,0.992h29.611   c0.549,0,0.993-0.444,0.993-0.992C59.905,52.707,59.461,52.262,58.912,52.262z"></path><path fill="#000000" d="M58.912,57.228H29.301c-0.549,0-0.993,0.444-0.993,0.993c0,0.548,0.444,0.992,0.993,0.992h29.611   c0.549,0,0.993-0.444,0.993-0.992C59.905,57.672,59.461,57.228,58.912,57.228z"></path><path fill="#000000" d="M58.912,62.192H29.301c-0.549,0-0.993,0.444-0.993,0.993s0.444,0.992,0.993,0.992h29.611   c0.549,0,0.993-0.443,0.993-0.992S59.461,62.192,58.912,62.192z"></path><path fill="#000000" d="M68.162,51.637c-2.472,0-4.483,2.013-4.483,4.485c0,1.046,0.375,1.998,0.979,2.762   c-0.014,0.054-0.033,0.103-0.033,0.159v5.596c0,0.283,0.162,0.541,0.416,0.666c0.251,0.123,0.556,0.092,0.78-0.082l2.459-1.924   l2.194,1.899c0.139,0.119,0.311,0.181,0.485,0.181c0.104,0,0.21-0.021,0.308-0.066c0.264-0.121,0.434-0.385,0.434-0.674v-5.596   c0-0.057-0.021-0.106-0.033-0.16c0.603-0.764,0.978-1.715,0.978-2.761C72.646,53.649,70.635,51.637,68.162,51.637z M70.22,63.018   l-1.431-1.238c-0.268-0.232-0.663-0.242-0.941-0.023l-1.742,1.363v-3.035c0.619,0.322,1.312,0.523,2.057,0.523   c0.746,0,1.438-0.201,2.058-0.523V63.018z M68.162,58.768c-1.457,0-2.646-1.187-2.646-2.646s1.188-2.646,2.646-2.646   c1.459,0,2.645,1.187,2.645,2.646S69.621,58.768,68.162,58.768z"></path></g></svg>