<svg xmlns="http://www.w3.org/2000/svg" xmlns:xlink="http://www.w3.org/1999/xlink" version="1.1" id="Layer_1" x="0px" y="0px" width="100px" height="100px" viewBox="0 0 100 100" enable-background="new 0 0 100 100" xml:space="preserve">
<g>
	<path d="M78.572,51.498c0-4.552,3.69-8.243,8.241-8.243c4.555,0,8.243,3.691,8.243,8.243c0,4.553-3.688,8.243-8.243,8.243   C82.263,59.741,78.572,56.051,78.572,51.498L78.572,51.498z M82.784,51.498c0,2.227,1.805,4.031,4.029,4.031   c2.227,0,4.032-1.805,4.032-4.031c0-2.228-1.806-4.032-4.032-4.032C84.589,47.466,82.784,49.271,82.784,51.498L82.784,51.498z    M8.262,66.203c0-4.551,3.69-8.243,8.242-8.243s8.244,3.692,8.244,8.243c0,4.555-3.692,8.245-8.244,8.245   S8.262,70.758,8.262,66.203L8.262,66.203z M12.472,66.203c0,2.229,1.808,4.031,4.033,4.031c2.227,0,4.035-1.803,4.035-4.031   c0-2.227-1.808-4.031-4.035-4.031C14.279,62.172,12.472,63.977,12.472,66.203L12.472,66.203z M36.871,35.288l-4.85,6.828   c-0.553,0.781-0.367,1.416,0.415,1.416h13.45c0.787,0,1.416-0.634,1.416-1.416v-6.43c0-0.781-0.63-1.415-1.416-1.415l-7.224-0.001   C37.875,34.27,37.586,34.341,36.871,35.288L36.871,35.288z M46.273,47.406h-3.405c-1.258,0-1.258,1.888,0,1.888h3.407   c0.237,0.282,0.601,0.473,1.091,0.473c1.886,0,1.886-2.832-0.005-2.832C46.871,46.934,46.508,47.125,46.273,47.406L46.273,47.406z    M72.042,40.898v-6.763H54.667c-0.78,0-1.416,0.633-1.416,1.414v3.933c0,0.781,0.636,1.415,1.416,1.415L72.042,40.898   L72.042,40.898z M91.518,21.745c2.517,0,4.711,1.979,4.711,4.448v17.384v3.044c-1.748-3.371-5.257-5.683-9.306-5.724h4.321   c0.783,0,1.418-0.634,1.418-1.416v-3.932c0-0.781-0.637-1.414-1.418-1.414H73.871v6.763h12.835   C80.899,40.958,76.217,45.68,76.217,51.5c0,1.714,0.404,3.334,1.128,4.766c-0.478-0.814-1.296-1.592-2.777-1.592H63.623   c-1.956,0-2.757,1.352-3.144,2.359l-1.593,4.19H28.144c-1.179,0-1.621-1.008-1.621-1.008l-1.909-5.017   c-0.495-1.304-1.955-2.359-3.256-2.359H9.195c-1.3,0-2.356,1.056-2.352,2.359l0.007,6.022H1.427c-0.78,0-1.414-0.634-1.414-1.414   v-3.733c0-0.782,0.635-1.415,1.414-1.415l2.493-0.006v-7.301c0-2.085,1.691-3.774,3.775-3.774l19.593-0.011l7.274-10.241   c1.273-1.696,2.494-2.358,4.449-2.358l9.576,0.002l4.887-6.867c1.275-1.696,2.497-2.36,4.45-2.36L91.518,21.745L91.518,21.745z    M82.594,61.224l-3.293,0.002l-1.596-4.192c-0.052-0.135-0.111-0.278-0.18-0.421C78.655,58.655,80.438,60.288,82.594,61.224   L82.594,61.224z M96.938,54.655l1.783,0.004c0.781,0,1.415,0.635,1.415,1.415v3.733c0,0.781-0.634,1.414-1.415,1.414l-7.682,0.002   C93.842,60.003,96.018,57.605,96.938,54.655L96.938,54.655z M65.088,66.307c0,2.227,1.807,4.03,4.031,4.03   c2.228,0,4.031-1.804,4.031-4.03c0-2.228-1.804-4.032-4.031-4.032C66.895,62.274,65.088,64.079,65.088,66.307L65.088,66.307z    M60.877,66.307c0-4.553,3.69-8.242,8.242-8.242c4.554,0,8.244,3.689,8.244,8.242c0,4.552-3.69,8.244-8.244,8.244   C64.567,74.551,60.877,70.858,60.877,66.307L60.877,66.307z"/>
</g>
</svg>
