<svg fill="#000000" xmlns="http://www.w3.org/2000/svg" xmlns:xlink="http://www.w3.org/1999/xlink" version="1.1" x="0px" y="0px" viewBox="0 0 100 100" style="enable-background:new 0 0 100 100;" xml:space="preserve"><path d="M10,50h5v42.5c0,1.381,1.119,2.5,2.5,2.5h65c1.381,0,2.5-1.119,2.5-2.5V50h5c1.011,0,1.923-0.609,2.31-1.543  c0.387-0.934,0.173-2.009-0.542-2.724l-40-40c-0.976-0.977-2.56-0.977-3.535,0l-40,40c-0.715,0.715-0.929,1.79-0.542,2.724  C8.077,49.391,8.989,50,10,50z M67.5,90h-10V65h10V90z M80,90h-7.5V62.5c0-1.381-1.119-2.5-2.5-2.5H55c-1.381,0-2.5,1.119-2.5,2.5  V90H20V50h60V90z M50,11.036L83.964,45H16.036L50,11.036z"/><path d="M30,80h15c1.381,0,2.5-1.119,2.5-2.5v-15c0-1.381-1.119-2.5-2.5-2.5H30c-1.381,0-2.5,1.119-2.5,2.5v15  C27.5,78.881,28.619,80,30,80z M32.5,65h10v10h-10V65z"/></svg>