<svg fill="#000000" xmlns:dc="http://purl.org/dc/elements/1.1/" xmlns:cc="http://creativecommons.org/ns#" xmlns:rdf="http://www.w3.org/1999/02/22-rdf-syntax-ns#" xmlns:svg="http://www.w3.org/2000/svg" xmlns="http://www.w3.org/2000/svg" xmlns:sodipodi="http://sodipodi.sourceforge.net/DTD/sodipodi-0.dtd" xmlns:inkscape="http://www.inkscape.org/namespaces/inkscape" viewBox="0 0 456.405 254.9425" version="1.1" x="0px" y="0px"><g transform="translate(-165.309,-457.9331)"><path style="" d="m 215.473,457.9331 c -9.694,0 -17.557,7.9051 -17.557,17.5575 0,9.6518 7.863,17.557 17.557,17.557 l 1.618,0 0,130.2626 c 0,23.1152 18.796,41.9105 41.91,41.9105 23.115,0 41.911,-18.7953 41.911,-41.9105 l 0,-130.2626 1.537,0 c 9.653,0 17.557,-7.8637 17.557,-17.557 0,-9.6935 -7.904,-17.5575 -17.557,-17.5575 l -86.976,0 z m 134.469,0 c -9.651,0 -17.475,7.9051 -17.475,17.5575 0,9.6518 7.863,17.557 17.557,17.557 l 1.536,0 0,130.2626 c 0,23.1152 18.796,41.9105 41.912,41.9105 23.114,0 41.91,-18.7953 41.91,-41.9105 l 0,-130.2626 1.618,0 c 9.651,0 17.476,-7.8637 17.476,-17.557 0,-9.6935 -7.825,-17.5575 -17.476,-17.5575 l -87.058,0 z m 134.551,0 c -9.652,0 -17.557,7.9051 -17.557,17.5575 0,9.6518 7.864,17.557 17.557,17.557 l 1.619,0 0,130.2626 c 0,23.1152 18.794,41.9105 41.91,41.9105 23.115,0 41.91,-18.7953 41.91,-41.9105 l 0,-130.2626 1.538,0 c 9.651,0 17.557,-7.8637 17.557,-17.557 0,-9.6935 -7.906,-17.5575 -17.557,-17.5575 l -86.977,0 z m -269.02,7.6864 87.058,0 c 5.468,0 9.87,4.4028 9.87,9.8711 0,5.4678 -4.402,9.8705 -9.87,9.8705 l -5.422,0 c -2.112,0 -3.803,1.7318 -3.803,3.8027 l 0,134.1464 c 0,18.9312 -15.415,34.3051 -34.305,34.3051 -18.89,0 -34.305,-15.4156 -34.305,-34.3051 l 0,-134.1464 c 0,-2.111 -1.731,-3.8027 -3.802,-3.8027 l -5.34,0 c -5.468,0 -9.952,-4.4027 -9.952,-9.8705 -0.08,-5.4683 4.361,-9.8711 9.871,-9.8711 z m 134.551,0 86.976,0 c 5.468,0 9.952,4.4028 9.952,9.8711 0,5.4678 -4.484,9.8705 -9.952,9.8705 l -5.34,0 c -2.113,0 -3.803,1.7318 -3.803,3.8027 l 0,134.1464 c 0,18.9312 -15.415,34.3051 -34.305,34.3051 -18.89,0 -34.305,-15.4156 -34.305,-34.3051 l 0,-134.1464 c 0,-2.111 -1.69,-3.8027 -3.803,-3.8027 l -5.42,0 c -5.469,0 -9.872,-4.4027 -9.872,-9.8705 -0.08,-5.4683 4.403,-9.8711 9.872,-9.8711 z m 134.469,0 87.057,0 c 5.468,0 9.872,4.4028 9.872,9.8711 0,5.4678 -4.404,9.8705 -9.872,9.8705 l -5.42,0 c -2.113,0 -3.803,1.7318 -3.803,3.8027 l 0,134.1464 c 0,18.9312 -15.415,34.3051 -34.305,34.3051 -18.89,0 -34.305,-15.4156 -34.305,-34.3051 l 0,-134.1464 c 0,-2.111 -1.69,-3.8027 -3.804,-3.8027 l -5.339,0 c -5.469,0 -9.951,-4.4027 -9.951,-9.8705 -0.08,-5.4683 4.402,-9.8711 9.87,-9.8711 z m -319.184,69.4195 0,177.8366 456.405,0 0,-177.8366 -33.578,0 0,150.6514 -389.33,0 0,-150.6514 -33.497,0 z m 67.397,0 0,81.7985 c 0,14.4989 11.797,26.214 26.295,26.214 14.5,0 26.215,-11.7568 26.215,-26.214 l 0,-81.7985 -52.51,0 z m 134.551,0 0,81.7985 c 0,14.4989 11.715,26.214 26.215,26.214 14.498,0 26.295,-11.7568 26.295,-26.214 l 0,-81.7985 -52.51,0 z m 134.55,0 0,81.7985 c 0,14.4989 11.716,26.214 26.215,26.214 14.499,0 26.214,-11.7568 26.214,-26.214 l 0,-81.7985 -52.429,0 z m -254.456,14.4827 c 1.906,0 3.398,1.4913 3.398,3.398 0,1.9069 -1.492,3.4783 -3.398,3.4783 -1.864,0 -3.48,-1.5751 -3.48,-3.4783 0.04,-1.9067 1.616,-3.398 3.48,-3.398 z m 134.551,0 c 1.864,0 3.398,1.4913 3.398,3.398 0,1.9069 -1.493,3.4783 -3.398,3.4783 -1.906,0 -3.48,-1.5751 -3.48,-3.4783 0,-1.9067 1.574,-3.398 3.48,-3.398 z m 134.469,0 c 1.864,0 3.479,1.4913 3.479,3.398 0,1.9069 -1.573,3.4783 -3.479,3.4783 -1.906,0 -3.398,-1.5751 -3.398,-3.4783 0,-1.9067 1.492,-3.398 3.398,-3.398 z m -250.169,24.1912 c 3.356,0 6.069,2.7126 6.069,6.0683 0,3.3544 -2.713,6.068 -6.069,6.068 -3.355,0 -6.068,-2.7126 -6.068,-6.068 0,-3.3542 2.713,-6.0683 6.068,-6.0683 z m 134.551,0 c 3.355,0 6.068,2.7126 6.068,6.0683 0,3.3544 -2.713,6.068 -6.068,6.068 -3.356,0 -6.068,-2.7126 -6.068,-6.068 0,-3.3542 2.713,-6.0683 6.068,-6.0683 z m 134.47,0 c 3.355,0 6.149,2.7126 6.149,6.0683 0,3.3544 -2.794,6.068 -6.149,6.068 -3.356,0 -6.068,-2.7126 -6.068,-6.068 0,-3.3542 2.712,-6.0683 6.068,-6.0683 z m -284.636,21.1983 c 5.137,0 9.305,4.0885 9.305,9.2235 0,5.1368 -4.168,9.3045 -9.305,9.3045 -5.137,0 -9.305,-4.1677 -9.305,-9.3045 0,-5.1368 4.168,-9.2235 9.305,-9.2235 z m 134.47,0 c 5.137,0 9.304,4.0885 9.304,9.2235 0,5.1368 -4.167,9.3045 -9.304,9.3045 -5.136,0 -9.224,-4.1677 -9.224,-9.3045 0,-5.1368 4.088,-9.2235 9.224,-9.2235 z m 134.551,0 c 5.137,0 9.223,4.0885 9.223,9.2235 0,5.1368 -4.129,9.3045 -9.223,9.3045 -5.137,0 -9.305,-4.1677 -9.305,-9.3045 0,-5.1368 4.168,-9.2235 9.305,-9.2235 z" fill="#000000"/></g></svg>