<svg fill="#000000" xmlns="http://www.w3.org/2000/svg" xmlns:xlink="http://www.w3.org/1999/xlink" version="1.1" x="0px" y="0px" viewBox="0 0 100 100" style="enable-background:new 0 0 100 100;" xml:space="preserve"><path d="M53.75,21.25C53.75,17.512,50,15,50,15s-3.75,2.512-3.75,6.25c0,2.071,1.679,3.75,3.75,3.75   C52.071,25,53.75,23.321,53.75,21.25z"/><path d="M90,30h-5v5h-5v-5C80,16.215,68.785,5,55,5c-4.136,0-7.5,3.364-7.5,7.5H50h2.5c0-1.378,1.122-2.5,2.5-2.5   c11.028,0,20,8.972,20,20v5h-5v-5h-5v5H5v7.5v0C5,54.926,15.074,65,27.5,65h15v15c0,6.893,5.607,12.5,12.5,12.5   c2.812,0,5.41-0.933,7.5-2.506V90v5h15V80c0-6.893-5.607-12.5-12.5-12.5c-2.812,0-5.41,0.933-7.5,2.506V65h15   C84.926,65,95,54.926,95,42.5V35h-5V30z M65,72.5c4.136,0,7.5,3.364,7.5,7.5v10h-5V80c0-1.381-1.119-2.5-2.5-2.5   s-2.5,1.119-2.5,2.5c0,4.136-3.364,7.5-7.5,7.5s-7.5-3.364-7.5-7.5V65h5v15c0,1.381,1.119,2.5,2.5,2.5s2.5-1.119,2.5-2.5   C57.5,75.864,60.864,72.5,65,72.5z"/></svg>