<svg fill="#000000" xmlns:dc="http://purl.org/dc/elements/1.1/" xmlns:cc="http://creativecommons.org/ns#" xmlns:rdf="http://www.w3.org/1999/02/22-rdf-syntax-ns#" xmlns:svg="http://www.w3.org/2000/svg" xmlns="http://www.w3.org/2000/svg" xmlns:sodipodi="http://sodipodi.sourceforge.net/DTD/sodipodi-0.dtd" xmlns:inkscape="http://www.inkscape.org/namespaces/inkscape" version="1.1" x="0px" y="0px" viewBox="0 0 100 100"><g transform="translate(0,-952.36218)"><path style="text-indent:0;text-transform:none;direction:ltr;block-progression:tb;baseline-shift:baseline;color:#000000;enable-background:accumulate;" d="m 41.478051,962.8622 c -3.84406,0 -7.0032,3.14487 -7.0032,6.97157 0,3.8267 3.15914,6.97158 7.0032,6.97158 3.84406,0 7.0032,-3.14488 7.0032,-6.97158 0,-3.8267 -3.15914,-6.97157 -7.0032,-6.97157 z m 37.51715,0.46684 c -1.3542,6.36033 -2.80512,12.70026 -4.22068,19.04734 -1.95116,1.00092 -3.95045,1.91022 -5.87769,2.9567 -2.23349,6.04948 -4.67739,12.22677 -6.5655,17.42892 1.99633,4.3178 4.00113,8.6318 6.00275,12.9472 l -1.28184,3.1746 c -4.43757,1.0353 -8.8847,2.0302 -13.31859,3.0812 -0.33348,1.9918 -0.66697,3.9837 -1.00046,5.9756 -6.73854,1.7455 -13.53822,3.261 -20.25926,5.0731 0,2.5612 0,5.3016 0,7.5317 20.13912,0 39.5066,0 57.02607,0 0,-26.0225 0,-51.75486 0,-74.22854 -3.88281,-1.09678 -6.87206,-1.94675 -10.5048,-2.98782 z m -37.51715,3.51691 c 1.68131,0 3.00137,1.31411 3.00137,2.98782 0,1.67372 -1.32006,2.98782 -3.00137,2.98782 -1.68131,0 -3.00137,-1.3141 -3.00137,-2.98782 0,-1.67371 1.32006,-2.98782 3.00137,-2.98782 z m 40.48726,1.49391 3.53286,0.99594 0,67.2259 -49.02241,0 0,-0.4357 c 6.58634,-1.6392 13.17269,-3.2783 19.75904,-4.9175 0.33348,-1.9919 0.66697,-3.9837 1.00045,-5.9756 4.23689,-0.9945 8.49398,-1.9046 12.72457,-2.9256 1.00103,-2.4615 1.74608,-4.5191 2.71999,-6.7226 -2.03684,-4.3141 -4.02663,-8.6505 -6.03401,-12.9783 l 5.43999,-14.41 c 2.05097,-1.03111 4.11924,-2.02828 6.15907,-3.08119 1.19717,-5.60063 2.47379,-11.18522 3.72045,-16.77535 z m -60.21503,4.48173 -11.00503,18.92285 c -0.54237,0.93044 -0.14736,2.27648 0.81287,2.76995 2.31033,0.89212 4.5416,2.73496 6.90941,3.20568 l 0,21.47493 c -1.65682,5.229 -5.92833,10.0643 -7.0032,15.3748 0.0142,2.6235 0.98879,5.6465 3.09517,6.7537 2.83649,1.0448 6.32472,0.5599 8.3163,-1.3694 3.01123,-5.608 5.65932,-11.6722 8.41009,-17.4912 0.12282,-0.2621 0.18733,-0.5511 0.18759,-0.8403 l 0,-9.866 7.12826,3.2368 0.8754,7.843 c 0.82132,3.3231 4.09906,5.7043 7.0032,5.7578 3.47723,-0.3965 5.98363,-3.019 5.97153,-6.2558 l -2.00092,-13.9431 c -0.0774,-0.5999 -0.44577,-1.1558 -0.96924,-1.4628 l -10.22342,-5.9445 3.47033,-5.75778 2.1885,2.73884 c 0.26821,0.33383 0.64719,0.57794 1.06299,0.6847 l 12.00549,2.98784 c 2.56897,0.3723 4.26267,-1.0471 5.28366,-3.05008 1.13682,-2.72855 0.18875,-5.48904 -2.25103,-6.78484 l -10.47354,-2.8322 -9.59813,-10.51961 c -2.72945,-2.38858 -6.89781,-1.76221 -9.50435,-0.12444 0.22757,-0.81267 -0.13163,-1.75295 -0.84413,-2.20974 l -6.00275,-3.98376 c -1.26593,-0.59515 -1.93853,-0.19082 -2.84505,0.68466 z m 2.37609,3.82814 3.33752,1.87754 -9,15 -3.18532,-1.65834 z m 13.94387,4.54397 9.94205,10.89309 c 0.25268,0.2681 0.58138,0.46443 0.93793,0.56022 l 10.411,2.8322 c 0.69661,0.62736 0.48025,0.84578 0.34391,1.33829 -0.36618,0.72903 -0.61636,0.93321 -0.65655,0.96482 -3.89545,-1.00029 -8.03488,-2.01612 -11.44273,-2.86328 l -3.56413,-4.41948 c -0.80182,-1.00264 -2.62172,-0.88186 -3.28275,0.21786 l -6.00274,9.95938 c -0.53713,0.9031 -0.19323,2.2129 0.71908,2.7388 l 11.16135,6.4736 1.84459,12.7293 c -0.30339,1.2609 -1.15563,1.7342 -2.00091,1.9919 -1.50187,-0.2328 -2.35785,-1.0305 -3.00133,-2.2098 l -1.00045,-8.9634 c -0.0729,-0.6964 -0.54372,-1.3377 -1.18805,-1.6184 l -11.00503,-4.9797 c -1.21726,-0.5386 -2.82441,0.5102 -2.81378,1.8362 l 0,12.4804 -7.59727,16.0284 c -1.11458,0.7397 -2.21022,0.7979 -3.50161,0.5603 -0.84057,-0.7724 -0.82278,-1.7218 -0.8754,-2.8011 l 6.78436,-14.4722 c 0.12281,-0.2621 0.18732,-0.5511 0.18758,-0.8403 l 0,-21.35046 9.78572,-15.28145 c 1.63401,-1.76759 3.72866,-2.70694 5.81516,-1.80519 z" fill="#000000" fill-opacity="1" stroke="none" marker="none" visibility="visible" display="inline" overflow="visible"/></g></svg>