<svg fill="#000000" xmlns="http://www.w3.org/2000/svg" viewBox="0 0 80.000023 89.999994" x="0px" y="0px"><path d="m321.69 498.38h-5.922v9.606c3.829-.789 7.917-.839 12 .066v-9.672h-5.922c-.052 0-.104 0-.156 0m6.078 9.676v10.328h8l-14 12-14-12h8v-10.395c-9.541 1.965-17.456 8.52-19.577 16.369-3.051 11.293 10.936 6.56 25.563 10.447 14.627 3.887 24.356 14.921 27.407 3.629 3.051-11.292-5.627-26.22-20.255-30.11-.38-.101-.759-.189-1.139-.274m-22-6.156c-13.07 6.07-22.16 19.364-22.16 34.764.001 3.446.521 6.864 1.44 10.182l-4.887 12.36c-.661 1.674-.524 3.468.672 4.924.579.703 1.502 1.26 2.551 1.26h7.131l2.469 9.258c1.364 5.119 6.648 8.19 11.754 6.815l7.639-2.059 2.393 8.977h39.527l-6.428-24.13c7.516-7.199 11.885-17.12 11.899-27.588 0-15.339-9.01-28.589-22-34.692v4.457c10.718 5.769 18 17.13 18 30.24-.013 9.78-4.176 19.08-11.442 25.578l-.916.818 5.682 21.327h-31.25l-2.633-9.881-11.514 3.104c-3.02.815-6.03-.929-6.848-3.984l-3.26-12.229h-9.678c-.031-.178-.113-.507-.031-.715l5.361-13.565-.197-.662c-.947-3.175-1.432-6.474-1.438-9.789 0-13.168 7.356-24.572 18.16-30.31v-4.449zm-4.99631 36.8794a4.500145 4.500065 0 0 0 -4.50009 4.5001 4.500145 4.500065 0 0 0 4.50009 4.5001 4.500145 4.500065 0 0 0 4.5002 -4.5001 4.500145 4.500065 0 0 0 -4.5002 -4.5001" shape-rendering="auto" mix-blend-mode="normal" color-interpolation-filters="linearRGB" isolation="auto" white-space="normal" solid-opacity="1" image-rendering="auto" solid-color="#000000" color="#000" color-rendering="auto" color-interpolation="sRGB" transform="translate(-279.77-498.38)"/></svg>