<svg xmlns="http://www.w3.org/2000/svg" xmlns:xlink="http://www.w3.org/1999/xlink" version="1.1" x="0px" y="0px" viewBox="0 0 100 100" enable-background="new 0 0 100 100" xml:space="preserve"><path d="M77.092,51.49c-0.678-1.51-2.447-2.182-3.953-1.504l-4.68,2.1c-0.049-0.072-0.098-0.146-0.146-0.219  c9.523-12.627-4.143-23.582-4.143-23.582c-1.234,4.812-5.521,6.211-5.521,6.211c-0.727-9.1-8.312-12.072-8.312-12.072  c0.35,2.756,0.592,7.701-5.688,12.248c-8.715,6.312-6.811,17.588,1.367,22.229c-0.012,0.113-0.029,0.221-0.037,0.338  c-0.098,1.447,0.092,3.055,0.539,4.697l-22.104,9.92c-1.508,0.676-2.182,2.447-1.506,3.953c0.678,1.51,2.447,2.182,3.953,1.504  l22.109-9.922c2.008,3.068,4.639,5.055,6.932,5.055c0.527,0,1.027-0.104,1.486-0.311l11.469-5.146  c0.002-0.002,0.002-0.002,0.004-0.004c2.523-1.137,3.266-5.02,2.051-9.443l4.674-2.098C77.094,54.768,77.768,52.996,77.092,51.49z   M55.904,70.695c-2.158,0-5.07-2.861-6.773-6.654c-1.041-2.316-1.539-4.689-1.406-6.684c0.117-1.709,0.672-2.871,1.562-3.271  l8.422-3.777c-0.77,2.361-0.424,5.875,1.145,9.369c1.551,3.451,3.92,6.088,6.215,7.094l0,0l-8.395,3.768  C56.439,70.643,56.182,70.695,55.904,70.695z M69.279,58.275c0.861,3.445,0.393,6.428-1.139,7.115  c-0.232,0.104-0.492,0.156-0.77,0.156c-2.158,0-5.068-2.859-6.771-6.654c-2.113-4.707-1.66-9.139,0.156-9.953  c1.551-0.699,4.113,0.988,6.078,3.875l-2.016,0.904c-0.783,0.354-0.871,1.859-0.193,3.367c0.678,1.506,1.859,2.441,2.645,2.092  L69.279,58.275z M53.225,37.211c-0.953,2.428-0.318,6.311,2.309,6.311c3.771,0,4.299-3.334,4.299-3.334s3.955,2.477,2.453,6.92  c-0.256-0.045-0.51-0.076-0.758-0.076c-0.527,0-1.027,0.104-1.488,0.311c0,0.002-0.002,0.004-0.002,0.004l-9.115,4.09  C43.193,44.232,53.225,37.211,53.225,37.211z"></path></svg>