<svg fill="#000000" xmlns="http://www.w3.org/2000/svg" xmlns:xlink="http://www.w3.org/1999/xlink" version="1.1" x="0px" y="0px" viewBox="0 0 32 32" enable-background="new 0 0 32 32" xml:space="preserve"><path d="M29.3939209,13.7402344L25,11.8571167V6c0-1.1045532-0.8954468-2-2-2H9C7.8954468,4,7,4.8954468,7,6v2.5  C7,8.776123,7.223877,9,7.5,9S8,8.776123,8,8.5V6c0-0.5513916,0.4486084-1,1-1h14c0.5513916,0,1,0.4486084,1,1v11.4285278L16,22  c-0.2391357,0.1380615-0.321106,0.4438477-0.1829834,0.6829834c0.1380615,0.2391357,0.4438477,0.321106,0.6829834,0.1830444  L29,15.7231445V26c0,0.5513916-0.4486084,1-1,1H16.5c-0.276123,0-0.5,0.2238159-0.5,0.5c0,0.276123,0.223877,0.5,0.5,0.5H28  c1.1045532,0,2-0.8954468,2-2V14.6593628C30,14.2593384,29.7615967,13.8978271,29.3939209,13.7402344z M25,16.8571167v-3.9120483  l3.9120483,1.6765747L25,16.8571167z"/><path d="M11,21c-0.3512573,0-0.6815796,0.0314941-1,0.0775146V12.5c0-1.4486084-1.682251-2.5-4-2.5s-4,1.0513916-4,2.5v12  C2,25.9486084,3.682251,27,6,27c0.3520508,0,0.6835327-0.0307617,1-0.0792236V27.5c0,1.4486084,1.682251,2.5,4,2.5  s4-1.0513916,4-2.5v-4C15,22.0513916,13.317749,21,11,21z M6,11c1.6568604,0,3,0.6715698,3,1.5S7.6568604,14,6,14  s-3-0.6715698-3-1.5S4.3431396,11,6,11z M3.0661621,14.2435913C3.7800293,14.71521,4.8017578,15,6,15  s2.2199707-0.28479,2.9338379-0.7564087C8.965332,14.3275757,9,14.4111938,9,14.5C9,15.3284302,7.6568604,16,6,16  s-3-0.6715698-3-1.5C3,14.4111938,3.034668,14.3275757,3.0661621,14.2435913z M3.0661621,16.2435913  C3.7800293,16.71521,4.8017578,17,6,17s2.2199707-0.28479,2.9338379-0.7564087C8.965332,16.3275757,9,16.4111938,9,16.5  C9,17.3284302,7.6568604,18,6,18s-3-0.6715698-3-1.5C3,16.4111938,3.034668,16.3275757,3.0661621,16.2435913z M3.0661621,18.2435913  C3.7800293,18.71521,4.8017578,19,6,19s2.2199707-0.28479,2.9338379-0.7564087C8.965332,18.3275757,9,18.4111938,9,18.5  C9,19.3284302,7.6568604,20,6,20s-3-0.6715698-3-1.5C3,18.4111938,3.034668,18.3275757,3.0661621,18.2435913z M3.0661621,20.2435913  C3.7800293,20.71521,4.8017578,21,6,21s2.2199707-0.28479,2.9338379-0.7564087C8.965332,20.3275757,9,20.4111938,9,20.5  C9,21.3284302,7.6568604,22,6,22s-3-0.6715698-3-1.5C3,20.4111938,3.034668,20.3275757,3.0661621,20.2435913z M3.0661621,22.2435913  C3.7800293,22.71521,4.8017578,23,6,23c0.3944092,0,0.7606201-0.0409546,1.1120605-0.0991821  C7.0446777,23.09198,7,23.2902222,7,23.5v0.4084473C6.6871338,23.965332,6.3529053,24,6,24c-1.6568604,0-3-0.6715698-3-1.5  C3,22.4111938,3.034668,22.3275757,3.0661621,22.2435913z M6,26c-1.6568604,0-3-0.6715698-3-1.5  c0-0.0888062,0.034668-0.1724243,0.0661621-0.2564087C3.7800293,24.71521,4.8017578,25,6,25  c0.3527832,0,0.684021-0.0315552,1-0.0808716v0.9893188C6.6871338,25.965332,6.3529053,26,6,26z M11,29  c-1.6568604,0-3-0.6715698-3-1.5c0-0.0888062,0.034668-0.1724243,0.0661621-0.2564087C8.7800293,27.71521,9.8017578,28,11,28  s2.2199707-0.28479,2.9338379-0.7564087C13.965332,27.3275757,14,27.4111938,14,27.5C14,28.3284302,12.6568604,29,11,29z M11,27  c-1.6568604,0-3-0.6715698-3-1.5c0-0.0888062,0.034668-0.1724243,0.0661621-0.2564087C8.7800293,25.71521,9.8017578,26,11,26  s2.2199707-0.28479,2.9338379-0.7564087C13.965332,25.3275757,14,25.4111938,14,25.5C14,26.3284302,12.6568604,27,11,27z M11,25  c-1.6568604,0-3-0.6715698-3-1.5S9.3431396,22,11,22s3,0.6715698,3,1.5S12.6568604,25,11,25z"/><path d="M13,18c-0.0878906,0-0.1767578-0.0229492-0.2568359-0.0712891c-0.2373047-0.1420898-0.3144531-0.4492188-0.171875-0.6860352  l6-10c0.1435547-0.2373047,0.4521484-0.3125,0.6855469-0.1713867c0.2373047,0.1420898,0.3144531,0.4492188,0.171875,0.6860352l-6,10  C13.3349609,17.9135742,13.1689453,18,13,18z"/><path d="M13,8c0.5327148,0,1,0.7009296,1,1.5S13.5327148,11,13,11s-1-0.7009296-1-1.5S12.4672852,8,13,8 M13,7  c-1.1045837,0-2,1.1192904-2,2.5s0.8954163,2.5,2,2.5s2-1.1192904,2-2.5S14.1045837,7,13,7L13,7z"/><path d="M19,14c0.5327148,0,1,0.7009296,1,1.5S19.5327148,17,19,17s-1-0.7009296-1-1.5S18.4672852,14,19,14 M19,13  c-1.1045837,0-2,1.1192904-2,2.5s0.8954163,2.5,2,2.5s2-1.1192894,2-2.5S20.1045837,13,19,13L19,13z"/></svg>