<svg xmlns="http://www.w3.org/2000/svg" xmlns:xlink="http://www.w3.org/1999/xlink" version="1.1" x="0px" y="0px" viewBox="0 0 512 512" enable-background="new 0 0 512 512" xml:space="preserve"><g><path d="M243.9,135.5h24.2c7.8,0,14.1-6.3,14.1-14.1c0-7.8-6.3-14.1-14.1-14.1h-24.2c-7.8,0-14.1,6.3-14.1,14.1   C229.8,129.2,236.1,135.5,243.9,135.5z"></path><path d="M270.1,250.4V234c0-6.1,5-11,11.1-11c6.1,0,11,5,11,11v41.5c0,7.8,6.3,14.1,14.1,14.1c7.8,0,14.1-6.3,14.1-14.1V250h5   c7.8,0,14.1-6.3,14.1-14.1c0-7.8-6.3-14.1-14.1-14.1h-7c-5.2-15.7-19.9-27-37.3-27c-21.7,0-39.3,17.6-39.3,39.3v16.4   c0,6.1-5,11-11,11c-6.1,0-11.1-5-11.1-11v-41.5c0-7.8-6.3-14.1-14.1-14.1c-7.8,0-14.1,6.3-14.1,14.1v12.9h-5   c-7.8,0-14.1,6.3-14.1,14.1c0,7.8,6.3,14.1,14.1,14.1h5v0.4c0,21.7,17.6,39.3,39.3,39.3C252.5,289.6,270.1,272,270.1,250.4z"></path><path d="M504.6,187.5c-0.1-0.1-0.1-0.2-0.2-0.2l-103.8-79V87c0-23.3-19-42.3-42.3-42.3h-41.4L264.5,4.9c-5.1-3.8-12-3.8-17.1,0   l-52.3,39.7h-41.4c-23.3,0-42.3,19-42.3,42.3v21.4l-103.9,79c0,0,0,0,0,0.1C4.2,190,2,194,2,198.5v297.4c0,7.8,6.3,14.1,14.1,14.1   h479.8c7.8,0,14.1-6.3,14.1-14.1V198.5C510,194,507.9,190.1,504.6,187.5z M400.6,143.8l72.5,55.2l-72.5,59.4V143.8z M256,33.8   l14.2,10.8h-28.4L256,33.8z M139.6,87c0-7.8,6.3-14.1,14.1-14.1h204.5c7.8,0,14.1,6.3,14.1,14.1v194.5L256,376.8l-116.4-95.3V87z    M111.4,143.8v114.6l-72.5-59.4L111.4,143.8z M30.2,228.3l128.3,105.1L30.2,461.8V228.3z M50.2,481.8l130.3-130.3l66.6,54.5   c5.5,4.2,12.7,4.1,17.9,0l66.6-54.5l130.3,130.3H50.2z M481.8,461.8L353.4,333.5l128.3-105.1V461.8z"></path></g></svg>