<svg xmlns="http://www.w3.org/2000/svg" xmlns:xlink="http://www.w3.org/1999/xlink" version="1.1" x="0px" y="0px" viewBox="0 0 512 512" enable-background="new 0 0 512 512" xml:space="preserve"><g><path d="M328.7,255.3l-10.4,7.2c-6.4,4.4-8,13.2-3.6,19.6l31.1,44.9c4.4,6.4,13.2,8,19.6,3.6l138.5-95.7c6.4-4.4,8-13.2,3.6-19.6   l-31.1-44.9c-4.4-6.4-13.2-8-19.6-3.6l-10.4,7.2c-12.4-39.6-32.4-68.6-65.1-94.1l10.4-7.2c6.4-4.4,8-13.2,3.6-19.6L364.3,8.1   c-4.4-6.4-13.2-8-19.6-3.6l-138.5,95.7c-6.4,4.4-8,13.2-3.6,19.6l31.1,44.9c4.4,6.4,13.2,8,19.6,3.6l10.4-7.2   c1.7,5.3,3.5,10.5,5.5,15.4L19.9,348.9c-18.8,13-23.5,38.8-10.5,57.6c13,18.8,38.8,23.5,57.6,10.5l249.3-172.3   C320.2,248.4,324.3,251.9,328.7,255.3z M461.3,198l15,21.7L361,299.4l-15-21.7L461.3,198z M422,190.9l-68.8,47.6   c-34.8-25.2-53.8-52.7-65.1-94.1l68.8-47.6C391.7,121.9,410.7,149.4,422,190.9z M248.8,137.2l-15-21.7l115.3-79.7l15,21.7   L248.8,137.2z M50.9,393.9c-6,4.1-14.2,2.6-18.4-3.3c-4.1-6-2.6-14.2,3.3-18.4l245.6-169.8c4.5,7.6,9.4,14.8,15,21.7L50.9,393.9z"></path><path d="M495.9,425.3h-24v-29.5c0-7.8-6.3-14.1-14.1-14.1H322.9c-7.8,0-14.1,6.3-14.1,14.1v29.5h-24c-7.8,0-14.1,6.3-14.1,14.1   v56.4c0,7.8,6.3,14.1,14.1,14.1h211.1c7.8,0,14.1-6.3,14.1-14.1v-56.4C510,431.7,503.7,425.3,495.9,425.3z M481.8,481.8H298.9   v-28.2h24c7.8,0,14.1-6.3,14.1-14.1V410h106.7v29.5c0,7.8,6.3,14.1,14.1,14.1h24V481.8z"></path></g></svg>