<svg xmlns="http://www.w3.org/2000/svg" xmlns:xlink="http://www.w3.org/1999/xlink" version="1.1" x="0px" y="0px" viewBox="0 0 100 100" enable-background="new 0 0 100 100" xml:space="preserve"><g><path d="M38.9,20.8c0.2,0.1,0.3,0.1,0.5,0.1c0.3,0,0.7-0.2,0.8-0.5c0.3-0.5,0.1-1.1-0.3-1.3c-0.4-0.2-1.3-1-1.8-1.5   c-0.4-0.4-1-0.3-1.4,0.1c-0.4,0.4-0.3,1,0.1,1.4C37,19.2,38.3,20.4,38.9,20.8z"></path><path d="M58.9,24.8c0.2,0,0.4-0.1,0.5-0.2c0.2-0.1,1.6-1.1,2.2-1.6c0.4-0.4,0.4-1,0-1.4c-0.4-0.4-1-0.4-1.4,0   c-0.3,0.3-1.3,1-1.9,1.4c-0.4,0.3-0.6,0.9-0.3,1.4C58.3,24.7,58.6,24.8,58.9,24.8z"></path><path d="M50.1,17.3c0.2,0,0.4-0.1,0.5-0.2c0.2-0.1,1.6-1.1,2.2-1.7c0.4-0.4,0.4-1,0-1.4c-0.4-0.4-1-0.4-1.4,0   c-0.3,0.3-1.3,1-1.9,1.4c-0.4,0.3-0.6,0.9-0.3,1.4C49.4,17.1,49.7,17.3,50.1,17.3z"></path><path d="M44.3,24.7c0.2,0,1.7,0.2,2.5,0.2c0.1,0,0.1,0,0.2,0c0.5,0,1-0.5,0.9-1c0-0.5-0.5-1-1-0.9c-0.4,0-1.7-0.1-2.3-0.2   c-0.5-0.1-1,0.3-1.1,0.8C43.4,24.1,43.8,24.6,44.3,24.7z"></path><path d="M33.3,34.8c0.2,0,0.4-0.1,0.5-0.2c0.2-0.1,1.6-1.1,2.2-1.6c0.4-0.4,0.4-1,0-1.4c-0.4-0.4-1-0.4-1.4,0   c-0.3,0.3-1.3,1-1.9,1.4c-0.4,0.3-0.6,0.9-0.3,1.4C32.7,34.7,33,34.8,33.3,34.8z"></path><path d="M41.7,37.4c0.2,0.1,1.9,0.6,2.6,0.7c0,0,0.1,0,0.1,0c0.5,0,0.9-0.4,1-0.9c0.1-0.5-0.3-1-0.9-1.1c-0.4,0-1.6-0.4-2.3-0.6   c-0.5-0.2-1.1,0.1-1.2,0.6C40.9,36.7,41.2,37.2,41.7,37.4z"></path><path d="M26.7,30.8c0.4,0.2,1.4,0.9,2,1.3c0.2,0.1,0.4,0.2,0.6,0.2c0.3,0,0.6-0.1,0.8-0.4c0.3-0.4,0.2-1-0.2-1.4   c-0.2-0.1-1.6-1.1-2.3-1.5c-0.5-0.2-1.1,0-1.3,0.5C26,30,26.2,30.6,26.7,30.8z"></path><path d="M70,31.6c0.2,0.1,1.7,0.8,2.5,1c0.1,0,0.2,0,0.2,0c0.4,0,0.8-0.3,0.9-0.7c0.1-0.5-0.2-1.1-0.7-1.2   c-0.4-0.1-1.5-0.6-2.1-0.9c-0.5-0.2-1.1,0-1.3,0.5C69.3,30.8,69.5,31.4,70,31.6z"></path><path d="M59.9,37c0.2,0,0.4-0.1,0.5-0.2c0.2-0.1,1.6-1.1,2.2-1.7c0.4-0.4,0.4-1,0-1.4c-0.4-0.4-1-0.4-1.4,0c-0.3,0.3-1.3,1-1.9,1.4   c-0.4,0.3-0.6,0.9-0.3,1.4C59.3,36.9,59.6,37,59.9,37z"></path><path d="M19.7,41.8c0.2,0,0.4-0.1,0.5-0.2c0.2-0.1,1.6-1.1,2.2-1.7c0.4-0.4,0.4-1,0-1.4c-0.4-0.4-1-0.4-1.4,0   c-0.3,0.3-1.3,1-1.9,1.4c-0.4,0.3-0.6,0.9-0.3,1.4C19.1,41.6,19.4,41.8,19.7,41.8z"></path><path d="M26.8,48.2c0.4,0.1,1.6,0.5,2.2,0.7c0.1,0,0.2,0.1,0.3,0.1c0.4,0,0.8-0.2,0.9-0.6c0.2-0.5-0.1-1.1-0.6-1.3   c-0.2-0.1-1.8-0.7-2.6-0.8c-0.5-0.1-1,0.3-1.1,0.8C25.9,47.6,26.3,48.1,26.8,48.2z"></path><path d="M40.2,47.2c0.1,0.1,0.2,0.1,0.4,0.1c0.4,0,0.7-0.2,0.9-0.6c0.2-0.5,0-1.1-0.5-1.3c-0.4-0.2-1.4-0.8-2-1.2   c-0.4-0.3-1.1-0.2-1.4,0.3c-0.3,0.4-0.2,1.1,0.3,1.4C38,45.9,39.4,46.9,40.2,47.2z"></path><path d="M49,49.8c0.2,0,0.4-0.1,0.5-0.2c0.2-0.1,1.6-1.1,2.2-1.6c0.4-0.4,0.4-1,0-1.4c-0.4-0.4-1-0.4-1.4,0c-0.3,0.3-1.3,1-1.9,1.4   c-0.4,0.3-0.6,0.9-0.3,1.4C48.4,49.7,48.7,49.8,49,49.8z"></path><path d="M58.3,49.1c0.2,0.1,1.7,0.9,2.4,1.2c0.1,0,0.2,0,0.3,0c0.4,0,0.8-0.3,0.9-0.7c0.2-0.5-0.1-1.1-0.6-1.2   c-0.4-0.1-1.5-0.7-2.1-1c-0.5-0.3-1.1-0.1-1.3,0.4C57.7,48.3,57.8,48.9,58.3,49.1z"></path><path d="M75.7,45.3c0.2,0,0.4-0.1,0.5-0.2c0.2-0.1,1.6-1.1,2.2-1.6c0.4-0.4,0.4-1,0-1.4c-0.4-0.4-1-0.4-1.4,0   c-0.3,0.3-1.3,1-1.9,1.4c-0.4,0.3-0.6,0.9-0.3,1.4C75.1,45.2,75.4,45.3,75.7,45.3z"></path><path d="M89.3,52.9c0-0.1-1.2-2.6-2.7-4c-0.5-1.3-1.3-3.1-2.3-4.1c0.5-1.2,0.8-2.6,0.8-4.2c0-4.5-4.4-7.4-6.1-8.4   c0.1-0.8,0.2-1.6,0.1-2.4c-0.1-5.1-4.8-7.5-7.9-8.2c0.1-0.5,0.1-1,0.1-1.5c-0.3-3-3.3-5.4-8.9-7.3c0,0-0.1,0-0.1,0   c-0.1,0-8.9-1.8-10.5-7C51.6,5.3,51.3,5,50.9,5c-0.4,0-0.8,0.2-1,0.5c-0.1,0.3-3.3,6.5-12.1,7.1c-5.8,0.4-8.9,3.9-9.4,7.3   c-0.1,1-0.1,1.9,0.1,2.8c-3.4,0.3-8.2,1.9-8.7,7c-0.1,0.8,0,1.6,0.2,2.4c-3,1-7.2,3.6-7.2,8.7c0,2.1,0.7,4,2,5.7   c-1.1,0.8-1.8,2.4-2.1,3.2c-0.9,0.6-2.8,2.1-2.2,3.8C14.7,66,21.1,86.7,20.9,88.8c-0.1,0.4,0.2,0.9,0.6,1   c0.5,0.2,11.3,4.6,26.1,5.1c0.1,0,0.2,0.1,0.3,0.1c0,0,0.1,0,0.1,0c0.1,0,0.3,0,0.4-0.1c0.7,0,1.3,0,2,0c0,0,0,0,0,0   c6.2,0,12.1-0.8,17.8-2.2c0,0,0.1,0,0.1,0c0.1,0,0.1,0,0.2-0.1c2.4-0.6,4.7-1.4,7-2.3c0.1,0,0.2,0,0.2-0.1c1.6-0.6,3.2-1.3,4.7-2   c0.3-0.1,0.5-0.4,0.5-0.7c2.2-12,6.5-31.8,8.2-33.7C89.4,53.6,89.4,53.2,89.3,52.9z M30.4,20.2c0.4-2.6,2.9-5.3,7.6-5.6   c7.1-0.5,11-4.3,12.7-6.6c2.9,4.8,10.3,6.4,11.1,6.6c4.7,1.6,7.3,3.6,7.5,5.7c0.2,1.6-1,3.2-2.3,4.5c-1.8,1.3-3.7,2.3-5.7,3.1   c-3.7,1.3-7.3,1.9-10.9,1.9c-6.5,0-11.7-2-15.8-3.7l-0.7-0.3C31.4,24.8,30,22.6,30.4,20.2z M21.9,29.9c0.5-4.7,5.9-5.2,7.6-5.2   c0.6,0.9,1.3,1.6,2.3,2.2c1.3,1.2,7.2,6,19.5,6.2C66,33.4,71.7,25.3,72.5,24c2,0.8,4.6,2.4,4.6,5.8c0.1,5.4-1.6,9-24.6,10.3   c-19.9,1.1-26.9-3.7-28.9-5.9C22.3,32.8,21.7,31.3,21.9,29.9z M20.9,33.9c0.3,0.6,0.8,1.1,1.3,1.7c2.1,2.2,5.3,3.8,9.6,5   c4.5,1.6,11.2,3.1,20.9,3.1c23.5,0,27.3-6.2,27.9-7.9c1.3,1.2,2.5,2.9,2.5,4.8c0,6.2-4,11.9-33.1,12.2c-17.1,0.2-28.1-2-32.7-6.6   c-1.6-1.6-2.4-3.3-2.4-5.4C14.9,36.2,19.1,34.4,20.9,33.9z M22.8,88.2c-0.7-5.4-8.6-30.2-10.3-35.4c-0.1-0.2,0.4-0.8,1.1-1.3   l4.3,4.6c2,7.9,6.6,27.1,7.4,32.9C24.1,88.7,23.3,88.4,22.8,88.2z M27.3,89.7c-0.1-1.2-0.5-3.3-1-5.8l-3.7-27.4l3-0.1   c0.6,4.7,3.7,26.8,4.8,34.1C29.2,90.2,28.2,89.9,27.3,89.7z M32.4,91c-0.9-5.8-3.8-26.5-4.7-33.4l5.2,3.8   c0.9,7.5,3.1,25.3,3.2,30.4C34.7,91.5,33.5,91.2,32.4,91z M37.9,92c0-0.4,0-0.9-0.1-1.4l1.6-30.3l6.5-1.7   C46.4,69.5,47,88.1,47,92.9C43.8,92.8,40.7,92.5,37.9,92z M47.3,56.4C47.2,56.4,47.2,56.4,47.3,56.4L47.3,56.4   c-0.2-0.1-0.3-0.1-0.4-0.1c0,0,0,0,0,0c0,0,0,0-0.1,0c-0.1,0-0.1,0-0.2,0l-12.7,3.3l-7-5.1c-0.1-0.1-0.2-0.1-0.3-0.2c0,0,0,0-0.1,0   c-0.1,0-0.2,0-0.2,0l-7.2,0.3L14.8,50c0.4-1.1,1.1-2.1,1.5-2.1c5,4.5,15.7,6.8,31.8,6.8c0.6,0,1.2,0,1.8,0   c14.6-0.1,28.3-1.4,33.2-8.1c0.5,0.7,1,1.7,1.5,2.8l-3.3,4.9L71.9,54c-0.1,0-0.1,0-0.2,0c-0.1,0-0.1,0-0.2,0.1   c-0.1,0-0.1,0-0.2,0.1l-0.1,0c0,0,0,0,0,0l-10.6,6.6L47.3,56.4z M58,92.6c-2.5,0.3-5,0.4-7.6,0.4c0,0,0,0,0,0c-0.5,0-0.9,0-1.3,0   c0-5.6-0.8-28.3-1.1-34.3l11.9,3.8C59.5,66.8,58.1,86.6,58,92.6z M60,89.8l-0.1,2.4C60,91.5,60,90.7,60,89.8z M67.1,91   c-2.3,0.6-4.7,1-7.1,1.3l5.4-32.1l5.3-3.3C69.7,63.7,66.8,84.9,67.1,91z M74.3,88.8c-1.7,0.7-3.5,1.2-5.3,1.7   c-0.1-5.8,2.3-24.3,3.8-34.6l7.9,0.2C79.5,61.5,74.8,83.2,74.3,88.8z M79.1,86.8c-0.9,0.4-1.8,0.8-2.7,1.2c0.1-0.5,0.2-1.2,0.3-1.9   l9.1-34.7l-0.2,0.2l0.3-0.5c0.6,0.7,1.1,1.6,1.4,2.2C84.6,57.8,80.2,80.8,79.1,86.8z"></path></g></svg>