<svg xmlns="http://www.w3.org/2000/svg" xmlns:xlink="http://www.w3.org/1999/xlink" version="1.1" id="Your_Icon" x="0px" y="0px" width="100px" height="100px" viewBox="0 0 100 100" enable-background="new 0 0 100 100" xml:space="preserve">
<g transform="translate(0.000000,770.000000) scale(0.100000,-0.100000)">
	<path fill="#000000" d="M2.559,7520.526c-0.322-0.859-1.182-20.049-1.826-42.559c-1.396-47.49-0.645-357.91,1.074-452.676   c2.246-118.877,4.287-182.979,5.889-184.58c0.322-0.322,14.687,3.535,31.943,8.574c34.414,10.078,94.766,27.012,154.687,43.408   l38.584,10.508l1.396,4.824c2.676,9.004,5.576,24.443,7.178,38.057c1.826,15.215,11.689,279.443,15.547,413.652   c1.182,42.021,2.461,67.422,4.824,101.191c0.957,12.002,1.494,21.973,1.387,22.08c-0.215,0.107-10.391,0.967-22.832,2.031   c-42.549,3.33-69.99,7.725-147.383,23.154c-57.139,11.475-71.924,13.936-82.861,13.936   C5.02,7522.128,3.086,7521.698,2.559,7520.526z M36.426,7493.622c6.65-0.859,38.809-6.865,71.289-13.408   c63.027-12.432,90.254-17.256,109.229-19.18c6.426-0.645,13.828-1.504,16.396-1.719l4.609-0.645l-0.645-21.006   c-1.611-46.953-2.783-98.623-2.783-122.412c0-13.828-0.322-27.764-0.645-30.771l-0.752-5.674H128.291H23.457l-0.537,4.609   c-1.182,9.004-2.783,86.934-2.783,130.986c0,40.088,1.279,77.607,2.783,80.068C23.564,7495.546,22.275,7495.653,36.426,7493.622z    M228.516,7251.259l4.18-0.645l-0.752-30.654c-1.279-57.568-2.998-105.693-3.75-108.916c-0.645-2.783-1.396-3.32-7.178-4.502   c-41.055-8.574-188.555-27.969-191.445-25.186c-4.072,3.965-5.361,165.4-1.396,169.365c1.504,1.504,40.518,2.031,116.836,1.602   C188.643,7252.108,226.27,7251.688,228.516,7251.259z M225.625,7045.985c-1.074-49.307-3.857-90.898-7.832-113.73   c-2.461-14.473-2.246-14.15-12.432-17.266c-21.006-6.318-70.312-17.793-132.275-30.762c-42.979-8.896-42.236-8.789-44.053-5.039   c-2.363,4.609-4.502,22.51-5.684,46.953c-1.182,25.186-1.504,107.51-0.43,120.273l0.752,7.93l97.646,12.969   c53.711,7.07,99.268,12.969,101.299,13.076l3.652,0.107L225.625,7045.985z"/>
	<path fill="#000000" d="M980.576,7513.876c-1.504-0.215-9.219-1.396-17.148-2.568c-7.93-1.289-31.836-5.576-53.066-9.648   c-78.135-15.117-117.695-20.908-163.789-24.121c-8.252-0.537-10.391-0.967-9.961-2.139c1.064-2.793,8.037-36.445,10.176-49.209   c3.965-23.477,5.469-40.518,6.543-76.641c3.643-120.801,12.754-369.385,13.936-382.676c1.709-19.619,6.963-47.061,9.434-49.521   c2.676-2.676,181.367-68.496,192.939-71.064c2.9-0.645,3.33-0.322,3.867,2.354c2.891,14.15,14.57,239.678,20.469,393.721   c5.254,138.916,7.295,239.678,5.254,264.014l-0.752,8.252l-7.607-0.107C986.689,7514.413,982.08,7514.198,980.576,7513.876z    M980.683,7471.747c1.289-15.645,0.645-137.842-0.752-174.932l-0.752-16.943H877.676H776.162l-0.752,5.684   c-0.322,2.998-0.645,9.434-0.645,14.15c0,18.652-10.713,139.561-13.398,151.357c-0.537,2.139,0,2.354,7.822,2.998   c23.906,1.934,52.744,6.65,123.486,19.941c60.781,11.465,84.15,15.215,85.967,13.828   C979.072,7487.509,980.039,7480.214,980.683,7471.747z M973.818,7252.753c2.578-2.568,1.182-45.879-2.891-95.078   c-2.139-24.756-5.791-56.914-7.285-64.316l-0.859-3.75l-6.855-0.322c-11.797-0.537-95.303,10.83-145.791,19.727   c-27.012,4.824-28.828,5.254-29.473,8.252c-0.537,2.471-2.148,53.916-3.32,104.941l-0.752,30.762l10.078,0.43   C807.031,7254.149,972.969,7253.612,973.818,7252.753z M871.348,7075.458l86.504-12.646l0.859-32.695   c0.859-34.189-0.859-110.723-2.783-127.559c-1.504-12.217-3.223-20.146-4.941-21.543c-1.064-0.859-4.6-0.322-13.496,2.246   c-18.438,5.254-84.365,26.807-110.195,35.918c-12.656,4.502-25.088,9.004-27.549,9.854c-2.471,0.859-4.932,2.148-5.576,2.9   c-3.213,3.857-7.607,44.482-9.756,88.535c-1.289,26.904-1.396,67.539-0.215,67.539   C784.629,7088.104,823.857,7082.431,871.348,7075.458z"/>
	<path fill="#000000" d="M352.432,7482.47c-30.342-0.43-57.676-1.074-60.781-1.504c-6.318-0.957-5.898-0.215-7.715-15.107   c-6.221-49.531-16.514-269.912-23.691-504.346c-0.537-19.189-1.074-39.873-1.074-45.986v-11.143l5.146,0.752   c34.941,4.502,97.549,6.211,325.01,8.682c144.814,1.494,162.93,1.924,162.93,3.75c0,0.537-0.43,2.139-1.074,3.643   c-0.527,1.504-1.709,8.145-2.568,14.795c-4.287,31.836-6.113,80.713-9.756,255.977c-4.609,222.207-8.574,280.303-19.297,284.482   c-7.715,2.9-57.021,4.717-166.143,6.006C460.049,7483.544,437.646,7483.544,352.432,7482.47z M517.08,7317.284   c7.93-1.387,25.723-9.756,36.553-17.256c15.537-10.615,27.764-25.293,32.588-39.014c5.674-16.191,5.029-57.461-1.182-78.574   c-3.643-12.012-5.576-16.514-8.682-20.049c-1.074-1.182-3.857-6.426-6.221-11.787c-5.039-11.689-9.111-18.652-17.578-30.449   l-6.65-9.111v-8.037c0-12.646,0-12.646,13.076-18.867c11.152-5.352,20.049-8.467,54.033-19.082   c21.221-6.641,31.299-11.895,40.088-20.576c16.396-16.396,25.186-47.168,25.186-87.9v-9.004H499.717H321.025l0.645,23.369   c0.635,23.799,1.602,31.191,6.211,45.02c3.115,9.219,11.582,21.66,18.975,27.656c8.252,6.758,16.826,10.83,48.447,23.154   c15.01,5.791,31.836,12.754,37.412,15.439c5.469,2.568,10.938,4.717,11.904,4.717c2.676,0,4.287,5.254,4.287,13.936   c0,8.896-1.826,14.15-7.939,23.477c-5.674,8.682-14.893,25.723-17.256,32.256c-1.074,2.686-4.395,10.186-7.5,16.621   c-3.213,6.533-7.08,15.645-8.574,20.361c-2.9,8.477-2.9,8.789-2.363,32.158c0.537,25.518,2.041,34.414,7.725,45.664   c12.432,24.873,32.578,40.947,56.807,45.449C479.023,7318.573,508.398,7318.896,517.08,7317.284z"/>
</g>
</svg>
