<svg fill="#000000" xmlns="http://www.w3.org/2000/svg" xmlns:xlink="http://www.w3.org/1999/xlink" version="1.1" x="0px" y="0px" viewBox="0 0 100 100" enable-background="new 0 0 100 100" xml:space="preserve"><g><path fill="#000000" d="M55.869,80.344c-0.621,0-1.125,0.504-1.125,1.125c0,1.102-0.898,2-2.004,2c-1.09,0-1.971-0.877-1.992-1.963   c0-0.014,0.004-0.025,0.004-0.037c0-0.621-0.504-1.125-1.125-1.125c-0.002,0-0.004,0-0.006,0s-0.004,0-0.006,0   c-0.621,0-1.125,0.504-1.125,1.125c0,0.012,0.004,0.023,0.004,0.037c-0.021,1.086-0.903,1.963-1.994,1.963   c-1.088,0-1.969-0.877-1.992-1.959c0-0.016,0.004-0.027,0.004-0.041c0-0.621-0.504-1.125-1.125-1.125c-0.002,0-0.004,0-0.006,0   c-0.003,0-0.004,0-0.007,0c-0.621,0-1.125,0.504-1.125,1.125c0,0.014,0.004,0.025,0.005,0.041   c-0.023,1.082-0.904,1.959-1.994,1.959c-1.089,0-1.97-0.877-1.993-1.959c0.001-0.016,0.004-0.027,0.004-0.041   c0-0.621-0.504-1.125-1.125-1.125c-0.002,0-0.003,0-0.007,0c-0.001,0-0.003,0-0.006,0c-0.621,0-1.125,0.504-1.125,1.125   c0,0.014,0.005,0.025,0.005,0.041c-0.023,1.082-0.904,1.959-1.994,1.959c-1.089,0-1.97-0.877-1.993-1.959   c0-0.016,0.004-0.027,0.004-0.041c0-0.621-0.504-1.125-1.125-1.125c-0.002,0-0.004,0-0.006,0s-0.004,0-0.006,0   c-0.621,0-1.125,0.504-1.125,1.125c0,0.014,0.004,0.025,0.004,0.041c-0.023,1.082-0.904,1.959-1.994,1.959   c-1.088,0-1.97-0.877-1.993-1.959c0.001-0.016,0.005-0.027,0.005-0.041c0-0.621-0.504-1.125-1.125-1.125c-0.002,0-0.004,0-0.007,0   c-0.001,0-0.004,0-0.006,0c-0.621,0-1.125,0.504-1.125,1.125c0,0.014,0.005,0.025,0.005,0.041   c-0.023,1.082-0.905,1.959-1.995,1.959c-1.088,0-1.97-0.877-1.993-1.959c0-0.016,0.005-0.027,0.005-0.041   c0-0.621-0.504-1.125-1.125-1.125c-0.002,0-0.005,0-0.006,0c-0.003,0-0.005,0-0.007,0c-0.621,0-1.125,0.504-1.125,1.125   c0,0.014,0.004,0.025,0.005,0.041c-0.023,1.082-0.905,1.959-1.995,1.959c-1.088,0-1.969-0.877-1.992-1.959   c0-0.016,0.004-0.027,0.004-0.041c0-0.621-0.504-1.125-1.125-1.125c-0.002,0-0.004,0-0.006,0s-0.004,0-0.006,0   c-0.621,0-1.125,0.504-1.125,1.125c0,0.014,0.004,0.025,0.004,0.041c-0.023,1.082-0.904,1.959-1.994,1.959   c-1.104,0-2.001-0.898-2.001-2c0-0.621-0.504-1.125-1.125-1.125s-1.125,0.504-1.125,1.125c0,2.344,1.907,4.25,4.251,4.25   c1.236,0,2.343-0.541,3.121-1.387c0.777,0.846,1.883,1.387,3.119,1.387c1.238,0,2.344-0.541,3.121-1.387   c0.778,0.846,1.883,1.387,3.12,1.387s2.343-0.541,3.121-1.387c0.778,0.846,1.883,1.387,3.12,1.387c1.238,0,2.343-0.541,3.121-1.387   c0.777,0.846,1.883,1.387,3.12,1.387s2.343-0.541,3.12-1.387c0.778,0.846,1.884,1.387,3.121,1.387s2.343-0.541,3.12-1.387   c0.778,0.846,1.884,1.387,3.12,1.387c1.237,0,2.344-0.541,3.121-1.387c0.777,0.846,1.883,1.387,3.12,1.387   c2.346,0,4.254-1.906,4.254-4.25C56.994,80.848,56.49,80.344,55.869,80.344z"/><path fill="#000000" d="M36.345,71.678h-3.218c-0.621,0-1.125-0.504-1.125-1.125s0.504-1.125,1.125-1.125h3.218   c0.621,0,1.125,0.504,1.125,1.125S36.966,71.678,36.345,71.678z"/><path fill="#000000" d="M70.785,71.678h-7.299c-0.621,0-1.125-0.504-1.125-1.125s0.504-1.125,1.125-1.125h7.299   c0.621,0,1.125,0.504,1.125,1.125S71.406,71.678,70.785,71.678z"/><path fill="#000000" d="M94.072,80.344c-0.621,0-1.125,0.504-1.125,1.125c0,1.102-0.898,2-2.004,2c-1.09,0-1.971-0.877-1.992-1.963   c0-0.014,0.004-0.025,0.004-0.037c0-0.621-0.504-1.125-1.125-1.125c-0.002,0-0.004,0-0.006,0s-0.004,0-0.006,0   c-0.621,0-1.125,0.504-1.125,1.125c0,0.012,0.004,0.023,0.004,0.037c-0.021,1.086-0.904,1.963-1.994,1.963   s-1.971-0.877-1.992-1.963c0-0.014,0.004-0.025,0.004-0.037c0-0.621-0.504-1.125-1.125-1.125c-0.002,0-0.004,0-0.006,0   s-0.004,0-0.006,0c-0.621,0-1.125,0.504-1.125,1.125c0,0.012,0.004,0.023,0.004,0.037c-0.021,1.086-0.904,1.963-1.994,1.963   c-1.104,0-2.002-0.898-2.002-2c0-0.621-0.504-1.125-1.125-1.125s-1.125,0.504-1.125,1.125c0,2.344,1.908,4.25,4.252,4.25   c1.236,0,2.344-0.541,3.121-1.387c0.777,0.846,1.883,1.387,3.119,1.387c1.238,0,2.344-0.541,3.121-1.387   c0.777,0.846,1.883,1.387,3.119,1.387c2.346,0,4.254-1.906,4.254-4.25C95.197,80.848,94.693,80.344,94.072,80.344z"/><path fill="#000000" d="M75.648,47.209v5.32h-0.953v-2.192c0-0.621-0.504-1.125-1.125-1.125s-1.125,0.504-1.125,1.125v3.317   c0,0.621,0.504,1.125,1.125,1.125h2.078v1.992c0,0.035,0.018,0.066,0.02,0.102c0,0.008-0.004,0.014-0.004,0.021   c0,3.465-2.82,6.283-6.285,6.283c-0.129,0-0.25,0.033-0.365,0.074c-0.367-2.641-2.615-4.686-5.355-4.686   c-1.916,0-3.594,1.004-4.561,2.506c-0.967-1.502-2.645-2.506-4.561-2.506c-1.311,0-2.498,0.484-3.438,1.262V55.77h15.186   c0.035,0,0.064-0.018,0.1-0.02c0.033,0.002,0.061,0.02,0.096,0.02c3.73,0,5.43-8.585,5.43-16.562s-1.699-16.562-5.43-16.562   c-0.137,0-0.264,0.033-0.387,0.078c-0.121-0.045-0.248-0.078-0.387-0.078H51.1v-1.235l0.002,0.001v-7.131L42.5,16.44v2.347   l6.35,1.938v1.921H31.354c-0.621,0-1.125,0.504-1.125,1.125s0.504,1.125,1.125,1.125c0.951,0,3.181,4.869,3.181,14.312   S32.305,53.52,31.354,53.52c-0.621,0-1.125,0.504-1.125,1.125s0.504,1.125,1.125,1.125c0.004,0,0.007-0.002,0.011-0.002   c0.002,0,0.005,0.002,0.008,0.002H48.85v4.057c-0.938-0.775-2.126-1.26-3.435-1.26c-1.916,0-3.595,1.004-4.562,2.506   c-0.967-1.502-2.645-2.506-4.561-2.506c-2.737,0-4.984,2.043-5.354,4.68c-0.107-0.035-0.217-0.068-0.335-0.068   c-3.466,0-6.285-2.818-6.285-6.283c0-0.113-0.032-0.215-0.063-0.316c0.016-0.076,0.046-0.148,0.046-0.23v-3.818H12.034v5.438h5.218   v4.613c0,8.764,7.104,15.891,15.853,15.941c0.008,0,0.015,0.006,0.023,0.006h33.699c0.008,0,0.016-0.006,0.023-0.006   c8.748-0.053,15.85-7.18,15.85-15.941v-4.613h5.219v-5.029L75.648,47.209z M65.707,24.896c0.139,0,0.266-0.033,0.387-0.078   c0.123,0.045,0.25,0.078,0.387,0.078c0.951,0,3.18,4.869,3.18,14.312S67.432,53.52,66.48,53.52c-0.035,0-0.062,0.016-0.096,0.018   c-0.035-0.002-0.064-0.018-0.1-0.018h-5.664c1.707-3.076,2.508-8.836,2.508-14.312s-0.801-11.236-2.508-14.312H65.707z    M57.699,24.896c0.951,0,3.18,4.869,3.18,14.312S58.65,53.52,57.699,53.52h-5.873c1.713-3.072,2.52-8.829,2.52-14.312   c0-5.476-0.801-11.236-2.508-14.312H57.699z M46.681,17.71l2.17-0.545v1.017c0,0.004-0.001,0.005-0.001,0.008v0.182L46.681,17.71z    M48.917,24.896c0.951,0,3.178,4.869,3.178,14.312S49.869,53.52,48.917,53.52h-5.861c1.709-3.076,2.51-8.836,2.51-14.312   s-0.801-11.236-2.51-14.312H48.917z M34.274,24.896h5.862c0.951,0,3.18,4.869,3.18,14.312s-2.229,14.312-3.18,14.312h-5.862   c1.709-3.076,2.511-8.836,2.511-14.312S35.983,27.971,34.274,24.896z M63.658,60.816c1.754,0,3.18,1.428,3.18,3.18   c0,1.754-1.426,3.182-3.18,3.182s-3.18-1.428-3.18-3.182C60.479,62.244,61.904,60.816,63.658,60.816z M54.537,60.816   c1.754,0,3.18,1.428,3.18,3.18c0,1.754-1.426,3.182-3.18,3.182s-3.18-1.428-3.18-3.182C51.357,62.244,52.783,60.816,54.537,60.816z    M45.416,60.816c1.753,0,3.18,1.428,3.18,3.18c0,1.754-1.427,3.182-3.18,3.182c-1.754,0-3.181-1.428-3.181-3.182   C42.235,62.244,43.662,60.816,45.416,60.816z M36.293,60.816c1.753,0,3.181,1.428,3.181,3.18c0,1.754-1.428,3.182-3.181,3.182   s-3.181-1.428-3.181-3.182C33.113,62.244,34.541,60.816,36.293,60.816z M85.668,55.717h-5.219v6.863c0,0.953-0.1,1.885-0.287,2.783   h-8.328c-0.621,0-1.125,0.504-1.125,1.125s0.504,1.125,1.125,1.125h7.643c-2.01,5.066-6.949,8.664-12.723,8.664H33.197   c-4.059,0-7.7-1.787-10.21-4.6h4.209c0.621,0,1.125-0.504,1.125-1.125s-0.504-1.125-1.125-1.125h-5.842   c-1.171-2.018-1.853-4.352-1.853-6.848v-6.863h-5.218v-0.938h7.768v1.568c0,0.113,0.033,0.213,0.063,0.316   c-0.016,0.076-0.046,0.148-0.046,0.23c0,4.705,3.829,8.533,8.535,8.533c0.159,0,0.31-0.035,0.446-0.094   c0.6,2.346,2.713,4.094,5.243,4.094c1.916,0,3.594-1.004,4.561-2.506c0.967,1.502,2.646,2.506,4.562,2.506s3.593-1.004,4.56-2.506   c0.968,1.502,2.646,2.506,4.562,2.506s3.594-1.004,4.561-2.506c0.967,1.502,2.645,2.506,4.561,2.506   c2.535,0,4.656-1.756,5.248-4.111c0.146,0.068,0.303,0.111,0.473,0.111c4.707,0,8.535-3.828,8.535-8.533   c0-0.035-0.018-0.066-0.02-0.102c0-0.008,0.004-0.014,0.004-0.021v-1.992h0.816c0.621,0,1.125-0.504,1.125-1.125   s-0.504-1.125-1.125-1.125h-0.816v-1.787l7.77,3.627V55.717z"/></g></svg>