<svg fill="#000000" xmlns="http://www.w3.org/2000/svg" xmlns:xlink="http://www.w3.org/1999/xlink" version="1.1" x="0px" y="0px" viewBox="0 0 100 100" enable-background="new 0 0 100 100" xml:space="preserve"><path d="M74,51.8c-1.2-5.9-2.8-31.3-3-34.7c-0.2-2.8-2.4-5.6-5.9-5.6c-1.6,0-3,0.6-4.1,1.6c0-1.1,0-1.8,0-2c-0.1-2.5-1.9-6-6-6  c-3.7,0-5.8,3-5.9,5.9c0,0.2,0,0.7-0.1,1.2C48,10.8,46.3,10,44.5,10c-3,0-5.6,2.4-5.9,5.4c-0.1,0.7-0.2,2.1-0.3,4.1  c-0.5,7-1.6,21.3-2.6,29.9c-0.1,0-0.3,0.1-0.4,0.1c-1.5-1.6-3.8-2.2-6.3-1.5c-1.7,0.5-3.2,1.5-4,3c-0.8,1.4-1,3.1-0.5,4.8  c0.1,0.4,0.3,0.9,0.4,1.3c-0.1,0.3-0.2,0.5-0.2,0.9v12c0,6.7,2.7,13,7.6,17.8s11.4,7.4,18.3,7.4c17.3,0,24.9-12.9,24.9-25.7  C75.6,63.1,75.5,59.3,74,51.8z M40.5,19.7c0.2-2,0.3-3.4,0.3-4.1c0.1-1.6,1.5-3.3,3.6-3.3c1.8,0,3.7,1.5,3.7,3.7  c0,4-0.9,33.4-0.9,33.7c0,0.6,0.5,1.1,1.1,1.2c0.6,0,1.1-0.5,1.2-1.1c0,0,1.7-35.5,1.9-38.6c0.1-3,2.4-3.7,3.7-3.7  c2.8,0,3.7,2.5,3.7,3.7c0,2.1,0.1,39,0.1,39.4c0,0.6,0.5,1.1,1.1,1.1l0,0c0.6,0,1.1-0.5,1.1-1.1c0-0.3,0.3-30.4,0.3-33  c0-2,1.6-3.7,3.7-3.7c2.5,0,3.6,2.2,3.7,3.5c0.2,3.6,1.8,28.9,3.1,35c0.8,4.1,1.2,7.1,1.4,10c-1.2-1.3-3.3-2.7-6.5-2.7  c-13.3,0-20.4-4.9-24.5-7.8c-1.7-1.2-3-2.1-4.2-2.3C38.9,40.6,40,26.6,40.5,19.7z M27.2,52.1c0.5-0.9,1.5-1.6,2.6-1.9  c0.9-0.2,2.3-0.4,3.4,0.3c-1.6,1.1-2.5,3-2.5,4.8c0,1.4,1.1,6.5,5.7,11.5c-0.4,0.5-1.1,0.8-2,1.1c-1.3,0.3-2.4,0.2-4.8-4.4  c-1.1-2.3-1.5-3.6-2.2-6.1c-0.2-0.6-0.4-1.4-0.6-2.2C26.5,54.1,26.6,53,27.2,52.1z M68.1,85.2c-4,4.9-10,7.4-17.4,7.4  c-6.3,0-12.2-2.4-16.7-6.7s-7-10.1-7-16.2v-6.7c0.2,0.4,0.4,0.8,0.6,1.2c1.5,3,3.2,5.8,6.1,5.8c0.4,0,0.8-0.1,1.3-0.2  c1.3-0.4,2.4-0.9,3.1-1.7c2.7,2.4,6,4.4,9.8,5.8c5.2,2,11.4,3,18.4,3c0.6,0,1.1-0.5,1.1-1.1c0-0.6-0.5-1.1-1.1-1.1  c-12.1,0-21.7-3.1-27.5-9.1c-4.6-4.7-5.6-9.5-5.6-10.5c0-1.9,1.4-3.7,4.4-3.7c0.7,0,2.1,0.9,3.6,2c4.4,3.1,11.9,8.2,25.8,8.2  c4.8,0,6.6,4,6.6,6.5v0.1c0,0.3,0,0.5,0,0.8C73.3,75.3,71.5,81.1,68.1,85.2z"/></svg>