<svg fill="#000000" xmlns="http://www.w3.org/2000/svg" xmlns:xlink="http://www.w3.org/1999/xlink" version="1.1" x="0px" y="0px" viewBox="-255 347 100 100" style="enable-background:new -255 347 100 100;" xml:space="preserve"><g><g><path d="M-205,439.8c-2.7,0-5.6-0.7-8.6-2.3c-0.1,0-0.2,0-0.3,0c-5,0-13.1-2.3-13.8-11.2l-0.1-1.6c-0.8-10.1-1.9-24-1.8-31.3    c0-1.2,1-2.2,2.2-2.2c0,0,0,0,0,0c1.2,0,2.2,1.1,2.2,2.3c-0.1,7.1,1,21.4,1.8,30.9l0.1,1.6c0.6,7.4,9,7,10,7    c0.4,0,0.9,0.1,1.3,0.3c6.1,3.5,10.9,1.7,12.2,0c0.4-0.5,0.9-0.8,1.5-0.9c10.2-1.6,9.3-9,9.3-9.3c0-0.2,0-0.4,0-0.6l3.5-30.2    c0.1-1.2,1.3-2.1,2.5-2c1.2,0.1,2.1,1.3,2,2.5l-3.5,30c0.4,4.2-1.6,12-12.2,13.9C-198.5,438.6-201.5,439.8-205,439.8z"/></g><g><path d="M-193.5,386.9c-0.2,0-0.5,0-0.8-0.1c-1.2-0.4-1.8-1.7-1.4-2.9c1-2.7,4.2-10.2,7.8-15.9c3.5-5.7,3.9-7.9,3.6-8.8    c0-0.1-0.1-0.3-0.6-0.4c-2.3-0.8-3.6,2.8-3.7,2.9l-9.2,23.8c-0.5,1.2-1.8,1.7-2.9,1.3c-1.2-0.5-1.7-1.8-1.3-2.9l9.2-23.7    c1-2.7,4.2-7.4,9.4-5.6c2.1,0.7,3,2.1,3.3,3.2c1.2,3.5-1.2,8.1-4,12.6c-3.3,5.4-6.5,12.6-7.4,15.1    C-191.8,386.4-192.6,386.9-193.5,386.9z"/></g><g><path d="M-202,394.8c-1.3,0-2.8-0.1-4.5-0.5c-4.6-1-12.8-3.2-13.2-3.3c-1.2-0.3-1.9-1.6-1.6-2.8c0.3-1.2,1.6-1.9,2.8-1.6    c0.1,0,8.4,2.3,12.9,3.3c3.9,0.8,6.7,0.1,6.7,0l0,0c0,0,3-0.9,9.1-3.8c1.3-0.6,1.6-1.1,1.6-1.1c-0.1-0.2-0.9-1-1.7-1.4    c-1.1-0.6-1.5-2-0.9-3.1c0.6-1.1,2-1.5,3-0.9c0.7,0.4,4.1,2.4,4,5.6c-0.1,2-1.4,3.7-4.1,4.9c-6.4,3.1-9.6,4-9.7,4.1    C-197.7,394.3-199.4,394.8-202,394.8z"/></g><g><path d="M-202.4,427.8c0,0-0.1,0-0.1,0c-1.2-0.1-2.2-1.1-2.1-2.4l1.1-19.3c0.1-1.2,1.2-2.2,2.4-2.1c1.2,0.1,2.2,1.1,2.1,2.4    l-1.1,19.3C-200.2,426.9-201.2,427.8-202.4,427.8z"/></g><g><path d="M-201.7,401.5c-1.6,0-3.3-0.2-5.3-0.8c-6.5-2-22.6-5.8-22.8-5.8c-1-0.3-4.9-1.8-4.9-5.1c0-2.9,2.9-5.3,9.5-7.6l15.5-6.4    c0.1-0.1,6-2.8,13.2,0c1.2,0.4,1.7,1.7,1.3,2.9s-1.7,1.7-2.9,1.3c-5.3-2-9.6-0.1-9.8,0l-15.7,6.5c-4.7,1.6-6.1,2.8-6.5,3.3    c0.3,0.3,1,0.6,1.5,0.8c0.5,0.1,16.2,3.8,22.9,5.9c5.5,1.7,8.9-0.6,9-0.7c0.1-0.1,0.3-0.2,0.4-0.2l14-6c2.2-1.1,2.4-1.9,2.4-1.9    c0-1.1-4.8-3.9-10.4-5.4c-1.2-0.3-1.9-1.6-1.6-2.8s1.6-1.9,2.8-1.6c3.1,0.9,13.2,4.1,13.7,9.3c0.2,2.5-1.5,4.6-5,6.4l-13.9,6    C-195.1,400.1-197.8,401.5-201.7,401.5z"/></g></g></svg>