<svg fill="#000000" xmlns="http://www.w3.org/2000/svg" xmlns:xlink="http://www.w3.org/1999/xlink" version="1.1" x="0px" y="0px" viewBox="0 0 100 100" enable-background="new 0 0 100 100" xml:space="preserve"><g><path d="M75.759,51.821V35.575H52.637v16.246h-3.329c-0.633-3.719-3.566-6.655-7.283-7.293l0.058-40.077l-21.251-0.03   c-4.198,0-7.51,3.198-8.642,8.346C9.58,24.64,10.691,36.39,12.123,46.318c0.719,4.983,4.275,8.468,8.649,8.474l18.24,0.026v32.083   c0,4.784,3.893,8.678,8.678,8.678h33.016c4.785,0,8.678-3.894,8.678-8.678v-35.08H75.759z M55.637,38.575h17.122v13.241H55.637   V38.575z M46.245,51.821h-4.23l0.007-4.23C44.082,48.135,45.704,49.759,46.245,51.821z M15.091,45.891   c-1.393-9.662-2.479-21.076,0.028-32.479c0.309-1.405,1.634-5.99,5.721-5.99l18.238,0.026l-0.064,44.372l-18.238-0.027   C17.437,51.788,15.515,48.824,15.091,45.891z M86.384,86.901c0,3.131-2.547,5.678-5.678,5.678H47.69   c-3.131,0-5.678-2.547-5.678-5.678v-32.08h44.372V86.901z"/><circle cx="64.197" cy="40.79" r="1.403"/><circle cx="64.197" cy="49.603" r="1.403"/><circle cx="68.604" cy="45.197" r="1.403"/><circle cx="59.791" cy="45.197" r="1.403"/><path d="M61.246,34.543c0.572-0.128,1.018-0.578,1.14-1.151c0.597-2.799,1.629-4.01,1.946-4.021   c0.326,0.141,1.216,1.408,1.733,4.257c0.105,0.583,0.545,1.049,1.12,1.189c0.118,0.028,0.237,0.043,0.355,0.043   c0.458,0,0.898-0.21,1.187-0.583c3.044-3.938,2.772-10.549,0.751-14.665c-1.229-2.505-2.996-3.884-4.974-3.884   c-2.283,0-4.355,1.534-5.683,4.211c-1.871,3.77-2.19,9.975,0.902,14.048C60.079,34.453,60.668,34.67,61.246,34.543z M61.509,21.271   c0.38-0.765,1.432-2.544,2.996-2.544c0.75,0,1.603,0.824,2.281,2.206c1.081,2.202,1.521,5.408,0.989,8.139   c-0.869-1.743-2.025-2.69-3.365-2.69c-1.474,0-2.747,0.967-3.699,2.739C60.058,26.45,60.458,23.39,61.509,21.271z"/></g></svg>