<svg xmlns:dc="http://purl.org/dc/elements/1.1/" xmlns:cc="http://creativecommons.org/ns#" xmlns:rdf="http://www.w3.org/1999/02/22-rdf-syntax-ns#" xmlns:svg="http://www.w3.org/2000/svg" xmlns="http://www.w3.org/2000/svg" xmlns:sodipodi="http://sodipodi.sourceforge.net/DTD/sodipodi-0.dtd" xmlns:inkscape="http://www.inkscape.org/namespaces/inkscape" version="1.1" x="0px" y="0px" viewBox="0 0 100 100"><g transform="translate(0,-952.36218)"><path style="font-size:medium;font-style:normal;font-variant:normal;font-weight:normal;font-stretch:normal;text-indent:0;text-align:start;text-decoration:none;line-height:normal;letter-spacing:normal;word-spacing:normal;text-transform:none;direction:ltr;block-progression:tb;writing-mode:lr-tb;text-anchor:start;baseline-shift:baseline;opacity:1;color:#000000;fill:#000000;fill-opacity:1;stroke:none;stroke-width:2;marker:none;visibility:visible;display:inline;overflow:visible;enable-background:accumulate;font-family:Sans;-inkscape-font-specification:Sans" d="M 7.8125 17 A 1.0001 1.0001 0 0 0 7 18 L 7 76 A 1.0001 1.0001 0 0 0 8 77 L 39 77 C 43.869323 77 47.264927 78.7798 49.09375 82.4375 A 1.0001 1.0001 0 0 0 50.90625 82.4375 C 52.735073 78.7798 56.130677 77 61 77 L 92 77 A 1.0001 1.0001 0 0 0 93 76 L 93 18 A 1.0001 1.0001 0 0 0 92 17 L 61 17 C 56.356235 17 51.923823 19.85488 50 23.78125 C 48.076177 19.85488 43.643765 17 39 17 L 8 17 A 1.0001 1.0001 0 0 0 7.90625 17 A 1.0001 1.0001 0 0 0 7.8125 17 z M 9 19 L 39 19 C 44.063147 19 49 23.447 49 28 L 49 79 C 46.624887 76.388355 43.154781 75 39 75 L 9 75 L 9 19 z M 61 19 L 91 19 L 91 75 L 61 75 C 56.845219 75 53.375113 76.388355 51 79 L 51 28 C 51 23.447 55.936853 19 61 19 z M 15.8125 28 A 1.0043849 1.0043849 0 0 0 16 30 L 38 30 A 1.0001 1.0001 0 1 0 38 28 L 16 28 A 1.0001 1.0001 0 0 0 15.8125 28 z M 61.8125 28 A 1.0043849 1.0043849 0 0 0 62 30 L 84 30 A 1.0001 1.0001 0 1 0 84 28 L 62 28 A 1.0001 1.0001 0 0 0 61.8125 28 z M 15.8125 37 A 1.0043849 1.0043849 0 0 0 16 39 L 40 39 A 1.0001 1.0001 0 1 0 40 37 L 16 37 A 1.0001 1.0001 0 0 0 15.8125 37 z M 59.8125 37 A 1.0043849 1.0043849 0 0 0 60 39 L 84 39 A 1.0001 1.0001 0 1 0 84 37 L 60 37 A 1.0001 1.0001 0 0 0 59.8125 37 z M 15.8125 46 A 1.0043849 1.0043849 0 0 0 16 48 L 40 48 A 1.0001 1.0001 0 1 0 40 46 L 16 46 A 1.0001 1.0001 0 0 0 15.8125 46 z M 59.8125 46 A 1.0043849 1.0043849 0 0 0 60 48 L 84 48 A 1.0001 1.0001 0 1 0 84 46 L 60 46 A 1.0001 1.0001 0 0 0 59.8125 46 z M 15.8125 55 A 1.0043849 1.0043849 0 0 0 16 57 L 40 57 A 1.0001 1.0001 0 1 0 40 55 L 16 55 A 1.0001 1.0001 0 0 0 15.8125 55 z M 59.8125 55 A 1.0043849 1.0043849 0 0 0 60 57 L 84 57 A 1.0001 1.0001 0 1 0 84 55 L 60 55 A 1.0001 1.0001 0 0 0 59.8125 55 z M 15.8125 64 A 1.0043849 1.0043849 0 0 0 16 66 L 40 66 A 1.0001 1.0001 0 1 0 40 64 L 16 64 A 1.0001 1.0001 0 0 0 15.8125 64 z M 59.8125 64 A 1.0043849 1.0043849 0 0 0 60 66 L 84 66 A 1.0001 1.0001 0 1 0 84 64 L 60 64 A 1.0001 1.0001 0 0 0 59.8125 64 z " transform="translate(0,952.36218)"></path></g></svg>