<svg xmlns="http://www.w3.org/2000/svg" xmlns:xlink="http://www.w3.org/1999/xlink" version="1.1" x="0px" y="0px" viewBox="0 0 100 100" enable-background="new 0 0 100 100" xml:space="preserve"><path d="M42.5,94.5c0.5,0.5,1.1,0.7,1.8,0.7c0.2,0,0.4,0,0.6-0.1c0.9-0.2,1.5-0.9,1.8-1.8l3.2-11.8l41.9,13.3C92,95,92.2,95,92.5,95  c0,0,0,0,0,0c1.4,0,2.5-1.1,2.5-2.5c0-0.3-0.1-0.6-0.1-0.8L83.8,41.1c-0.2-0.9-0.8-1.6-1.7-1.8s-1.8-0.1-2.4,0.5L69.6,49L44.9,6.3  C44.4,5.5,43.6,5,42.7,5S41,5.5,40.6,6.3l-26,45.1c0,0.1,0,0.1-0.1,0.2l-7.6,2c-0.9,0.2-1.5,0.9-1.8,1.8c-0.2,0.9,0,1.8,0.6,2.4  L42.5,94.5z M79.8,46.4l9.3,42.4L47.8,75.7L79.8,46.4z M55.1,62.2l1.9-7.2h5.9L55.1,62.2z M60.2,42.8l4.2,7.2h-6.1l1.9-6.9  C60.2,43,60.2,42.9,60.2,42.8z M42.7,12.5l16,27.7c-0.5-0.2-1.1-0.3-1.6-0.1l-35.9,9.6L42.7,12.5z M54.2,46l-6,22.5l-7,6.4  c-0.7,0.6-0.9,1.5-0.8,2.4c0.2,0.9,0.8,1.6,1.7,1.8l3,0.9L43,87.9L12.3,57.3L54.2,46z"></path></svg>