<svg fill="#000000" xmlns="http://www.w3.org/2000/svg" xmlns:xlink="http://www.w3.org/1999/xlink" version="1.1" x="0px" y="0px" viewBox="0 0 168.554 237.184" style="enable-background:new 0 0 168.554 237.184;" xml:space="preserve"><g><path d="M113.227,224.82c0,6.83,5.537,12.363,12.365,12.363c6.826,0,12.364-5.533,12.364-12.363v-49.983   c-6.589,0.956-15.098,1.827-24.729,1.95V224.82z"/><path d="M83.864,224.82c0,6.83,5.537,12.363,12.365,12.363c6.826,0,12.363-5.533,12.363-12.363v-48.034   c-9.631-0.123-18.14-0.994-24.729-1.95V224.82z"/><circle cx="110.91" cy="22.5" r="22.5"/><path d="M167.563,139.882c-0.216-3.128-0.466-6.119-0.734-9.015l-15.77,1.611c0.412,3.49,0.756,7.069,1.017,10.721   c1.135,3.081,4.098,5.231,7.498,5.231c0.184,0,0.37-0.006,0.557-0.019C164.537,148.107,167.865,144.29,167.563,139.882z"/><path d="M10.581,39.138c-4.181-1.426-8.727,0.811-10.152,4.992c-1.423,4.183,0.811,8.729,4.994,10.152   c2.391,0.815,4.762,1.575,7.115,2.3l4.165-15.461C14.674,40.491,12.635,39.836,10.581,39.138z"/><path d="M72.869,169.802c0,0,13.907,4.51,36.874,4.66v-20.993h2.334v20.993c22.967-0.15,36.873-4.66,36.873-4.66   c1.836-26.756-1.511-52.453-5.108-70.841h0.994c2.192,8.689,4.386,19.198,5.885,30.787l17.833-1.821   c-3.461-33.798-10.408-52.424-18.262-63.514c-3.987-5.597-8.331-9.171-12.32-11.204c-1.557-0.801-3.034-1.351-4.38-1.73   c-1.018-0.494-2.157-0.779-3.364-0.779H91.593c-0.339,0-0.671,0.029-0.999,0.072c-8.642,0.009-37.639-0.88-70.738-10.776   l-5.205,19.317c29.574,8.753,55.587,10.863,69.213,11.333v3.748c-0.576,1.967-1.407,4.938-2.364,8.746   C77.214,100.198,70.416,134.057,72.869,169.802z M106.884,68.744c1.295,0.486,2.658,0.74,4.02,0.74c0.002,0,0.006,0,0.006,0h0.002   c1.365,0.001,2.729-0.253,4.027-0.739l5.471,40.321l-9.5,12l-9.5-12L106.884,68.744z M125.304,150.966l-1.197-4.164l16.927-4.146   l0.666,2.833L125.304,150.966z M107.111,56.566h3.799h3.801l1.9,7.5l-0.292,0.461c-1.565,1.303-3.48,1.956-5.408,1.957   c-1.928-0.002-3.846-0.656-5.412-1.962l-0.289-0.456L107.111,56.566z M78.988,142.656l16.927,4.146l-1.197,4.164l-16.397-5.477   L78.988,142.656z"/></g></svg>