<svg xmlns="http://www.w3.org/2000/svg" xmlns:xlink="http://www.w3.org/1999/xlink" version="1.1" x="0px" y="0px" viewBox="0 0 100 100" enable-background="new 0 0 100 100" xml:space="preserve"><path d="M93.198,42.663c0.684,0,1.24-0.557,1.24-1.241c0-0.684-0.557-1.24-1.24-1.24c-0.685,0-1.241,0.557-1.241,1.24  C91.957,42.106,92.514,42.663,93.198,42.663z M93.198,41.133c0.16,0,0.29,0.13,0.29,0.289c0,0.16-0.13,0.29-0.29,0.29  s-0.29-0.13-0.29-0.29C92.908,41.263,93.038,41.133,93.198,41.133z"></path><circle cx="76.079" cy="44.549" r="0.568"></circle><path d="M95.906,52.263c-0.761,0-1.461,0.356-1.711,0.5c-0.469,0.063-0.986,0.096-1.582,0.096c-2.236,0-5.113-0.444-7.113-0.889  v-0.009l-0.38-0.075l0.009,0.014c-0.994-0.207-1.87-0.409-2.519-0.562c0.049-0.034,0.091-0.065,0.132-0.094l0.789-0.479l0.72,0.514  c0.03,0.02,0.056,0.036,0.089,0.06c1.019,0.705,0.973-0.214,0.959-0.36l-0.193-1.174l0.076-0.045l1.184,0.851  c0.592,0.342,0.571-0.242,0.556-0.396l-0.163-0.987l0.752,0.541c0.025,0.016,0.048,0.028,0.075,0.047  c0.624,0.418,0.655,0.004,0.63-0.235l-0.23-1.395l0.889,0.64c0.021,0.014,0.043,0.028,0.065,0.045  c0.677,0.48,0.708-0.023,0.682-0.303l-0.222-1.343l0.017-0.01l1.087,0.805c0.755,0.445,0.516-0.518,0.516-0.518h0.005l-0.182-1.123  l0.268-0.171l1.155,0.844c0.539,0.285,0.453-0.317,0.453-0.317l0,0l-0.135-0.842l0.726,0.512c0.503,0.297,0.576-0.162,0.58-0.408  l-0.22-1.334l0.062-0.039l0.877,0.63c0.682,0.335,0.658-0.48,0.628-0.786l-0.113-0.681l1.568-0.942l-0.107-0.354  c-0.042-0.142-1.067-3.454-3.649-3.454c-0.741,0-1.527,0.284-2.335,0.845c-0.854,0.288-9.848,3.312-12.725,3.84  c-0.236-0.779-0.963-1.351-1.816-1.351c-0.634,0-1.21,0.311-1.559,0.818c-0.399-0.093-0.875-0.173-1.386-0.173  c-1.631,0-3.191,0.819-4.885,2.572c-1.095-1.019-2.388-1.86-3.862-2.513c-0.956-1.86-2.046-2.804-3.24-2.804  c-0.781,0-1.434,0.404-1.916,0.85c-0.911-1.008-1.816-1.518-2.697-1.518c-1.187,0-1.961,0.917-2.31,1.45  c-0.677-0.914-1.427-1.377-2.23-1.377c-1.035,0-1.879,0.771-2.438,1.488c-0.148,0.012-0.297,0.023-0.446,0.037  c-0.716-0.754-1.454-1.136-2.195-1.136c-0.942,0-1.832,0.615-2.579,1.782c-3.806,0.711-7.35,1.849-10.026,3.221  c-0.271-0.071-0.785-0.181-1.382-0.181c-1.515,0-2.654,0.709-3.208,1.996c-0.339,0.786-0.59,0.786-0.673,0.786  c-0.175,0-0.413-0.104-0.665-0.215c-0.353-0.155-0.753-0.331-1.209-0.331c-0.66,0-1.234,0.364-1.757,1.113  c-0.442,0.633-0.697,0.633-0.781,0.633c-0.186,0-0.413-0.112-0.677-0.242c-0.371-0.182-0.832-0.408-1.398-0.408  c-0.665,0-1.329,0.31-2.032,0.949c-0.485,0.441-0.793,0.492-0.983,0.492c-0.227,0-0.448-0.083-0.703-0.18  c-0.291-0.11-0.621-0.235-1.001-0.235c-0.63,0-1.216,0.336-1.846,1.059c-0.202,0.231-0.718,0.507-2.036,0.507  c-1.583,0.001-3.671-0.391-5.514-0.735c-1.512-0.283-2.817-0.527-3.654-0.527c-0.268,0-0.978,0.042-1.208,0.566  C3.345,50.598,3.711,51.5,4.054,51.5h0.031c0.232,0,5.961,5,30.097,5h5.188c-0.111,1-0.017,2.422,0.615,3.368  c0.682,1.021,1.851,1.632,3.475,1.632h5.952h0.497h0.587h0.91h0.004c0.298,0,0.092-0.328,0.092-0.627v-0.007  c0-0.299,0.206-0.366-0.092-0.366h-0.004h-0.91h-0.766c-0.015,0-0.031,0-0.05,0h0.271h0.729h0.185c0.298,0,0.636-0.597,0.636-0.896  v-0.007c0-0.299-0.338-0.098-0.636-0.098H50.68H49.95H49.25c-0.031,0-0.063,0-0.098,0h0.074h0.91h0.004  c0.298,0,0.36-0.866,0.36-1.164v-0.008c0-0.298-0.063-0.828-0.36-0.828h-0.004h-0.91h-0.933c-0.191,0-0.404-0.184-0.644-0.316  c-0.409-0.227-0.856-0.304-1.338-0.357c0.094-0.115,0.195-0.326,0.298-0.326h14.9c-0.149,1-0.095,2.844,0.593,3.811  c0.518,0.727,1.307,1.189,2.346,1.189h7.346c0.031,0-0.294-0.092-0.294-0.099V61.5h1.469h0.91h0.003  c0.299,0,0.618-0.328,0.618-0.627v-0.007c0-0.299-0.319-0.366-0.618-0.366h-0.003h-0.91h-0.666c-0.008,0-0.018,0-0.029,0h0.151  h0.729h0.186c0.298,0,0.161-0.597,0.161-0.896v-0.007c0-0.299,0.137-0.098-0.161-0.098h-0.186h-0.729h-0.563  c-0.035,0-0.073,0-0.114,0h0.861h0.004c0.299,0,0.887-0.866,0.887-1.164v-0.008c0-0.298-0.588-0.828-0.887-0.828h-0.004H71.7h-1.2  v0.303c-1-0.554-2.22-0.924-4.323-0.676c0.079-0.18,0.224-0.627,0.313-0.627h29.727l0.083,0.008  c0.132-0.051,1.299-0.507,1.656-1.521c0.129-0.366,0.196-0.934-0.214-1.643S96.696,52.263,95.906,52.263z M97.06,54.623  c-0.163,0.467-0.74,0.877-1.029,0.877H66.807c0.545-2,0.87-4.077-0.657-5.257c-0.143-0.125-0.913-0.743-2.22-0.743  c-0.003,0-0.007,0-0.01,0c-1.704,0-3.42,1.221-5.42,3.064v-0.004c0,0-0.159,0.309,0.198,0.644c0.355,0.334,0.802-0.017,0.802-0.017  s0,0.006,0,0.01c4-4.1,6.095-2.206,6.185-2.123l-0.044,0.031c1.602,1.222,0.213,4.813-0.497,6.212  c-0.133,0.026-0.289,0.055-0.427,0.086c-0.114,0.033-0.404,0.153-0.305,0.526c0.102,0.377,0.44,0.389,0.566,0.38  c3.286-0.721,4.866-0.069,5.616,0.638c0.102,0.096,0.185,0.191,0.262,0.287c0.001,0.002,0.002,0.09,0.002,0.092  c0.51,0.834,0.116,1.174-0.146,1.174h-6.265c-0.723,0-1.236-0.281-1.57-0.75c-0.918-1.289-0.334-4.158,0.087-5.56  c0.013-0.109,0.016-0.441-0.341-0.571c-0.338-0.123-0.491,0.032-0.544,0.14c-0.116,0.386-0.297,0.741-0.437,1.741H47.177  c0.724-1,1.208-3.25-0.037-5.359c-0.043-0.068-1.074-1.627-3.131-1.846c-1.778-0.188-3.717,0.714-5.77,2.65l0.002,0.006  c0,0-0.002,0.005-0.004,0.007c-0.051,0.048-0.101,0.098-0.152,0.146c-0.108,0.135-0.193,0.348,0.043,0.577  C38.524,52.067,39,51.535,39,51.535s0.003,0.005,0.006,0.009c1.787-1.656,3.427-2.423,4.888-2.276  c1.6,0.163,2.411,1.389,2.436,1.426c1.82,3.083-0.817,5.871-1.193,6.227l-1.313,0.58c-0.002,0-0.003,0-0.005,0h0.004  c0,0-0.408,0.042-0.211,0.495s0.634,0.18,0.634,0.18s0.001-0.023,0.002-0.02c1.181-0.414,2.167-0.435,2.937-0.011  c0.552,0.305,0.933,0.896,1.192,1.379c0.353,0.673-0.15,0.977-0.286,0.977h-4.632c-1.286,0-2.189-0.43-2.683-1.168  c-1.042-1.557-0.187-4.354,0.13-5.237c0.016-0.132-0.025-0.339-0.32-0.453c-0.499-0.192-0.634,0.307-0.634,0.307l-0.005-0.075  C39.812,54.271,39.631,55.5,39.5,55.5h-5.318c-23.109,0-29.14-4.563-29.447-4.813c-0.093-0.102-0.156-0.15-0.199-0.212  c0.058-0.005,0.133,0.007,0.23,0.007c0.749,0,2.075,0.257,3.479,0.52c1.883,0.353,4.018,0.756,5.689,0.756  c1.364,0,2.265-0.271,2.753-0.832c0.572-0.656,0.918-0.731,1.129-0.731c0.207,0,0.419,0.081,0.665,0.174  c0.299,0.113,0.639,0.243,1.04,0.243c0.545,0,1.076-0.242,1.623-0.74c0.52-0.473,0.975-0.702,1.392-0.702  c0.345,0,0.652,0.151,0.979,0.312c0.339,0.167,0.69,0.34,1.097,0.34c0.569,0,1.065-0.331,1.56-1.04  c0.443-0.634,0.77-0.707,0.978-0.707c0.256,0,0.534,0.122,0.827,0.251c0.331,0.146,0.673,0.296,1.048,0.296  c0.96,0,1.401-1.024,1.546-1.36c0.406-0.944,1.192-1.422,2.335-1.422c0.703,0,1.276,0.188,1.281,0.188l0.192,0.065l0.18-0.094  c2.661-1.394,6.26-2.549,10.134-3.254l0.212-0.038l0.111-0.186c0.337-0.562,1.029-1.505,1.878-1.505  c0.513,0,1.067,0.334,1.646,0.992l0.16,0.182l0.24-0.021c0.293-0.026,0.586-0.052,0.88-0.072l0.22-0.016l0.13-0.179  c0.348-0.477,1.044-1.276,1.805-1.276c0.527,0,1.062,0.392,1.588,1.163l0.137,0.201l0.244,0.006  c0.159,0.004,0.317,0.011,0.506,0.018l0.293,0.011l0.142-0.257c0.156-0.285,0.736-1.214,1.631-1.214  c0.681,0,1.479,0.543,2.305,1.571l0.358,0.445l0.373-0.433c0.295-0.342,0.891-0.916,1.577-0.916c0.824,0,1.678,0.841,2.467,2.432  l0.083,0.158l0.16,0.068c1.582,0.678,2.951,1.593,4.071,2.72l0.353,0.354l0.336-0.369c2.143-2.349,3.604-2.62,4.518-2.62  c0.563,0,1.075,0.117,1.504,0.232l0.406,0.109l0.158-0.391c0.145-0.362,0.489-0.596,0.876-0.596c0.519,0,0.942,0.421,0.945,0.938  l0.004,0.517l0.549-0.049c0.039-0.003,0.078-0.006,0.118-0.012c2.639-0.352,12.86-3.809,13.295-3.956l0.065-0.022l0.057-0.04  c0.664-0.471,1.284-0.71,1.843-0.71c1.063,0,1.796,0.883,2.235,1.652l-0.005-0.003c0,0,0.332,0.669-0.131,1.094l-0.954,0.573  l0.074,0.451l-0.376-0.271l-1.151,0.692l0.104,0.628l-0.523-0.377l-0.75,0.452l0.074,0.449l-0.374-0.27l-1.358,0.816l0.083,0.502  l-0.418-0.301l-1.106,0.665l0.101,0.61l-0.509-0.365L86.925,47.6l0.107,0.651L86.49,47.86l-0.838,0.504l0.105,0.638l-0.53-0.382  l-1.165,0.703l0.122,0.74l-0.612-0.438l-1.207,0.733l-0.01-0.012c-0.042,0.032-0.091,0.067-0.142,0.104L81.08,51.14l0.009,0.015  c-0.945,0.521-2.121,0.999-2.932,0.825l-0.004,0.01c0,0-0.363,0.022-0.37,0.423c-0.008,0.391,0.281,0.536,0.555,0.557  c0.062,0.003,0.122,0.007,0.185,0.007c0.984,0,2.077-0.461,2.933-0.928c0.164,0.035,0.429,0.098,0.707,0.163  c2.034,0.479,6.797,1.599,10.433,1.599c0.68,0,1.296-0.04,1.831-0.118l0.102-0.016l0.087-0.056c0.007-0.004,0.647-0.406,1.292-0.406  c0.45,0,0.771,0.165,1.013,0.58C97.104,54.115,97.15,54.363,97.06,54.623z"></path></svg>