<svg xmlns="http://www.w3.org/2000/svg" version="1.1" width="100" height="100" viewBox="0 0 32 32">
	<path id="hail3-night" d="M19.49,8.265c0.383-0.064,0.771-0.096,1.164-0.096   c2.427,0,4.642,1.234,5.924,3.25c0.441-0.26,0.863-0.562,1.23-0.956c0.572-0.616,0.974-1.332,1.207-2.086   c-1.72,0.642-3.724,0.329-5.154-1.007c-1.678-1.564-2.016-4.005-1.008-5.946c-1.106,0.203-2.16,0.744-2.986,1.63   c-1.112,1.192-1.562,2.749-1.409,4.252C18.823,7.597,19.173,7.911,19.49,8.265z M10.188,24.594c-1.605,0-2.906,1.301-2.906,2.906   s1.301,2.906,2.906,2.906s2.906-1.301,2.906-2.906S11.793,24.594,10.188,24.594z M16,19.719c-1.605,0-2.906,1.301-2.906,2.906   s1.301,2.906,2.906,2.906c1.605,0,2.906-1.301,2.906-2.906S17.605,19.719,16,19.719z M21.812,23.219   c-1.605,0-2.906,1.301-2.906,2.906s1.301,2.906,2.906,2.906c1.604,0,2.903-1.301,2.903-2.906S23.418,23.219,21.812,23.219z    M26.002,12.404c-1.035-1.985-3.07-3.236-5.348-3.236c-0.526,0-1.045,0.067-1.547,0.2C17.717,7.559,15.59,6.5,13.277,6.5   c-3.513,0-6.525,2.523-7.219,5.891c-2.151,0.313-3.809,2.17-3.809,4.406c0,2.455,1.998,4.453,4.453,4.453h5.654   c0.322-0.852,0.932-1.552,1.712-2H6.702c-1.353,0-2.453-1.102-2.453-2.453c0-1.351,1.098-2.45,2.44-2.45h0.004l1.154,0.075   l0.077-0.976c0.219-2.773,2.57-4.945,5.352-4.945c1.882,0,3.595,0.964,4.583,2.578l0.447,0.731l0.791-0.33   c0.492-0.207,1.019-0.311,1.557-0.311c1.664,0,3.137,1,3.752,2.549l0.248,0.623l0.67,0.008c1.338,0.016,2.426,1.114,2.426,2.449   c0,1.353-1.102,2.453-2.455,2.453h-7.363c0.78,0.448,1.393,1.147,1.713,2h5.65c2.456,0,4.455-1.998,4.455-4.453   C29.75,14.595,28.12,12.746,26.002,12.404z"/>
</svg>
