<svg fill="#000000" xmlns="http://www.w3.org/2000/svg" xmlns:xlink="http://www.w3.org/1999/xlink" version="1.1" x="0px" y="0px" viewBox="0 0 141.73 141.73" enable-background="new 0 0 141.73 141.73" xml:space="preserve"><path fill="none" stroke="#000000" stroke-width="2" stroke-miterlimit="10" d="M42.242,82.66V58.37c0,0-0.688-2.979,3.438-5.5  c4.125-2.521,25.436-15.125,25.436-15.125s1.003-0.831,3.667,0.917c2.999,1.967,22.915,13.52,22.915,13.52s2.521,0.917,2.75,6.416  c0.229,5.5-0.229,25.208-0.229,25.208s-0.688,1.604-2.75,2.75c-2.062,1.145-24.748,14.436-24.748,14.436s-2.75,2.062-5.271,0.459  C64.928,99.848,44.534,88.16,44.534,88.16S42.471,86.098,42.242,82.66z"/><ellipse cx="72.261" cy="47.084" rx="2.521" ry="1.433"/><ellipse cx="81.083" cy="52.24" rx="2.521" ry="1.432"/><ellipse cx="66.876" cy="50.178" rx="2.521" ry="1.432"/><ellipse cx="75.813" cy="55.333" rx="2.521" ry="1.433"/><ellipse cx="61.605" cy="53.271" rx="2.521" ry="1.432"/><ellipse cx="70.313" cy="58.312" rx="2.521" ry="1.433"/><path d="M90.422,69.527c0,0,1.59-2.277,2.577-1.203c0.988,1.074-0.257,3.007-0.257,3.007s-1.246,1.805-2.492,1.247  S90.422,69.527,90.422,69.527z"/><path d="M85.051,77.691c0,0,1.59-2.277,2.578-1.203s-0.258,3.007-0.258,3.007s-1.246,1.805-2.492,1.246S85.051,77.691,85.051,77.691  z"/><path d="M79.723,85.811c0,0,1.59-2.277,2.578-1.203s-0.258,3.008-0.258,3.008s-1.246,1.805-2.492,1.246S79.723,85.811,79.723,85.811  z"/><path d="M53.986,77.09c0,0,1.332-0.258,2.32,1.546c0.988,1.805,0.473,2.535,0.215,2.879s-1.547,0.301-2.492-0.902  C53.084,79.409,52.826,77.391,53.986,77.09z"/><line fill="none" stroke="#000000" stroke-miterlimit="10" x1="43.159" y1="55.735" x2="69.454" y2="71.546"/><line fill="none" stroke="#000000" stroke-miterlimit="10" x1="69.454" y1="71.546" x2="69.454" y2="101.451"/><line fill="none" stroke="#000000" stroke-miterlimit="10" x1="69.454" y1="71.546" x2="99.015" y2="54.016"/></svg>