<svg fill="#000000" xmlns="http://www.w3.org/2000/svg" xmlns:xlink="http://www.w3.org/1999/xlink" viewBox="0 0 24 60" version="1.1" x="0px" y="0px"><title>039-Bolt</title><desc>Created with Sketch.</desc><g stroke="none" stroke-width="1" fill="none" fill-rule="evenodd"><g fill="#000000"><polygon points="6.1682 53.4282 17.4242 50.6142 17.0002 49.7642 17.0002 48.2372 17.8322 46.5742 6.5752 49.3882 7.0002 50.2372 7.0002 51.7642"/><polygon points="6.1682 35.4282 17.4242 32.6142 17.0002 31.7642 17.0002 30.2372 17.8322 28.5742 6.5752 31.3882 7.0002 32.2372 7.0002 33.7642"/><polygon points="6.1682 47.4282 17.4242 44.6142 17.0002 43.7642 17.0002 42.2372 17.8322 40.5742 6.5752 43.3882 7.0002 44.2372 7.0002 45.7642"/><polygon points="6.1682 41.4282 17.4242 38.6142 17.0002 37.7642 17.0002 36.2372 17.8322 34.5742 6.5752 37.3882 7.0002 38.2372 7.0002 39.7642"/><polygon points="6.1682 29.4282 17.4242 26.6142 17.0002 25.7642 17.0002 24.2372 17.8322 22.5742 6.5752 25.3882 7.0002 26.2372 7.0002 27.7642"/><path d="M11,0.001 L3,0.001 C2.87,0.001 2.74,0.028 2.618,0.078 C2.495,0.129 2.385,0.202 2.292,0.295 L0.294,2.293 C0.201,2.386 0.128,2.496 0.077,2.619 C0.027,2.741 0,2.871 0,3.001 L0,9.001 L11,9.001 L11,0.001 Z"/><path d="M23.923,2.6191 C23.872,2.4961 23.799,2.3861 23.706,2.2931 L21.708,0.2951 C21.616,0.2021 21.505,0.1291 21.382,0.0781 C21.26,0.0271 21.13,0.0011 21,0.0011 L13,0.0011 L13,9.0011 L24,9.0011 L24,3.0011 C24,2.8711 23.974,2.7411 23.923,2.6191"/><polygon points="6 23.4702 18 20.4702 18 11.0012 6 11.0012"/><path d="M6,57.001 C6,57.131 6.027,57.261 6.077,57.383 C6.128,57.506 6.201,57.616 6.294,57.709 L8.292,59.707 C8.385,59.8 8.495,59.873 8.618,59.924 C8.74,59.974 8.87,60.001 9,60.001 L15,60.001 C15.13,60.001 15.26,59.974 15.382,59.924 C15.505,59.873 15.615,59.8 15.708,59.707 L17.706,57.709 C17.799,57.616 17.872,57.506 17.923,57.383 C17.974,57.261 18,57.131 18,57.001 L18,52.532 L6,55.532 L6,57.001 Z"/></g></g></svg>