<svg fill="#000000" xmlns="http://www.w3.org/2000/svg" data-name="Layer 1" viewBox="0 0 95 95" x="0px" y="0px"><title>hay</title><path d="M53.28,55.64a.92.92,0,0,1-.55-.18,14,14,0,0,1-2.19-2,4.93,4.93,0,0,0,.13.5.92.92,0,0,1-1.42,1,6.11,6.11,0,0,1-1.65-2.11l-.31-.54a4.91,4.91,0,0,0-.14,1,.92.92,0,0,1-1.72.42l-1.84-3.27a.92.92,0,0,1,1.61-.9l.69,1.23a6.75,6.75,0,0,1,.34-.66.92.92,0,0,1,1.26-.33l.07,0a4.76,4.76,0,0,1,1.25,1.41,1.24,1.24,0,0,1,.15-.23,1.21,1.21,0,0,1,1-.43,1.91,1.91,0,0,1,1.34.81A12.11,12.11,0,0,0,52.64,53L53,50.74a1.39,1.39,0,0,1,.44-.86,1.33,1.33,0,0,1,1.63,0A9,9,0,0,1,57,51.31a.92.92,0,1,1-1.28,1.33l0,0a7.21,7.21,0,0,0-1-.82l-.53,3.08A.92.92,0,0,1,53.28,55.64Z"/><path d="M87.39,69.26c-.95-.84-4.83-4.92-7.41-7.82l.54.12a16.78,16.78,0,0,0,3,.55,1.11,1.11,0,0,0,1.1-.61,1,1,0,0,0-.18-1.13,55.34,55.34,0,0,0-5.69-4.23c-1-.69-2-1.39-2.74-1.94l1.55-.62a.92.92,0,0,0,.34-1.48c-.52-.56-1.49-1.56-2.43-2.52L74.2,48.31l1.06-.21a.92.92,0,0,0,.6-1.4,16.5,16.5,0,0,0-1.94-2.27c.73.05,1.3.12,1.31.13h.12a.92.92,0,0,0,.57-1.65c-2-1.83-4.1-3.82-5.46-5.17a7.75,7.75,0,0,0-.32-.73l1,.15a8.51,8.51,0,0,0,1.17.14,1,1,0,0,0,1-.7,1,1,0,0,0-.56-1.23,56.41,56.41,0,0,1-7.11-6.27,60.9,60.9,0,0,0-5.93-5.36,3.12,3.12,0,0,0,2-1,.92.92,0,0,0-.28-1.27l-.1-.05A28.55,28.55,0,0,1,57.64,19c-2.78-2-5.92-4.27-9.14-4.27h0c-2.13,0-6.41.64-11.22,4.82L25.18,30a.92.92,0,0,0,.69,1.61l3.17-.3-.07.28c-1.52,1.9-3.72,4.34-5.81,6.58L15.91,19.56a1.66,1.66,0,1,0-3.11,1.15l0,.05,7.83,20.08-2.4,2.5L17,44.65a.92.92,0,0,0-.06,1.17,3.36,3.36,0,0,0,2.84,1H20c-.08.13-.19.28-.34.47s-.67,1-1.27,1.86c-1.67,2.52-4.78,7.2-6.52,8.51a1,1,0,0,0-.37,1.1c.25.74,1,.74,2,.74h.79c-1.88,3-3.92,5.93-6.08,8.71a.92.92,0,0,0,1,1.45l7.63-2.28-.05.56a.92.92,0,0,0,1.25.95l4.73-1.82.58,1.49a.92.92,0,0,0,1.19.52l.16-.08L26,68.15l1.73,2a.92.92,0,0,0,.68.32.91.91,0,0,0,.69-.29l2.56-2.7a51.26,51.26,0,0,1,3.82,4,.92.92,0,0,0,1.3.1h0a12.08,12.08,0,0,0,1.5-1.7c.77-1,1.5-1.93,2.28-1.93h.11a7,7,0,0,1,1.23.95,6.4,6.4,0,0,0,1.36,1l5.51,2.51A.92.92,0,0,0,50,71.76a40,40,0,0,0,.64-4c3.27,1.06,7.73,4.45,7.78,4.49A.92.92,0,0,0,59.85,72l1.83-3.7a25.06,25.06,0,0,1,4.8,2l.2.16a.92.92,0,0,0,1.26-1.34l4.82,2.25A.92.92,0,0,0,74,70.89v0a12.48,12.48,0,0,0,.58-1.61,2.72,2.72,0,0,1,.69.09l4,1.48a.91.91,0,0,0,.34.06.92.92,0,0,0,.54-1.65L78.71,67.9c.62.28,1.26.59,1.87.89,2.26,1.09,4.4,2.13,5.83,2.13a2.55,2.55,0,0,0,.59-.07.92.92,0,0,0,.39-1.58Zm-6-2.13C79.12,66,77,65,75.55,65a2.55,2.55,0,0,0-.59.07.92.92,0,0,0-.4,1.58l1,.85a6.35,6.35,0,0,0-1.21-.09h-.52a.92.92,0,0,0-.86.82,5.57,5.57,0,0,1-.27,1L66,66.15a.92.92,0,0,0-1.3,1q0,.13.05.27c-1.51-.59-3-1.06-3.28-1.15a.92.92,0,0,0-1.1.47l-1.69,3.43c-1.77-1.26-5.76-3.92-8.63-4.42a.92.92,0,0,0-1.07.75v.06c-.14,1.24-.28,2.46-.51,3.71l-4.45-2a7.14,7.14,0,0,1-.91-.73,4.81,4.81,0,0,0-2.21-1.39l-.34,0c-1.69,0-2.78,1.41-3.74,2.65-.21.27-.41.53-.62.78a53.09,53.09,0,0,0-4-4,.92.92,0,0,0-1.28.05l-2.49,2.61-1.58-1.83a.92.92,0,0,0-1.19-.18l-1.06.67-.51-1.3A.92.92,0,0,0,22.92,65l-4.19,1.62,0-.44a.92.92,0,0,0-1.18-1l-6.25,1.87c1.83-2.5,3.56-5.08,5.17-7.72a1,1,0,0,0,0-1c-.32-.57-1-.66-2.06-.67a76.38,76.38,0,0,0,5.43-7.49c.55-.83,1-1.48,1.19-1.76.66-.87,1.22-1.78.83-2.6S20.62,45,19.81,45l-.55,0,.31-.32,1.82-1.89L24.21,50l-2,.78a1.65,1.65,0,0,0-.82,2.4,1.58,1.58,0,0,0,.11.36l.21.54c.16.4.35.86.56,1.35s.44,1,.67,1.53c.47,1,.93,2.08,1.27,2.86l.11.27a14,14,0,0,0-1.57,2,.92.92,0,0,0,1.5,1.07l.06-.09a12.14,12.14,0,0,1,1.2-1.6l.07,0A.64.64,0,0,0,26,61l.38-.37a1.84,1.84,0,0,1,.22,1.28.92.92,0,0,0,1.46.93,7.76,7.76,0,0,0,1.78-2.14,10.73,10.73,0,0,1,.8-1.14l.44,1.89a.92.92,0,0,0,1.48.5,8,8,0,0,0,1.82-2.42l.31-.53a3.38,3.38,0,0,1,1.84-1.76.92.92,0,0,0-.42-1.8h0a4,4,0,0,0-1.92,1.17L33.94,56c-.28-.81-.65-1.88-1-3-.18-.54-.36-1.08-.54-1.58s-.35-1-.5-1.37l-.21-.54a1.65,1.65,0,0,0-.15-.33,1.65,1.65,0,0,0-1.93-1.31l-.3.09-2,.78L23.9,40.09c1.57-1.67,3.23-3.48,4.67-5.15A.92.92,0,0,0,30,35.4c.84-.56,1.71-1.09,2.6-1.58a7.16,7.16,0,0,0-.87,3.05.92.92,0,0,0,1.52.7,16,16,0,0,1,1.86-1.36.92.92,0,0,0,.92.85h0a.92.92,0,0,0,.92-.92h0v-1.5a.92.92,0,0,0-1.33-.82q-.68.34-1.32.73l0,0a9.39,9.39,0,0,0,.85-2.41.92.92,0,0,0-1.3-1,36.31,36.31,0,0,0-3.22,1.7c0-.14.05-.27.08-.41.5-.64.93-1.22,1.24-1.71a.92.92,0,0,0-.86-1.41l-2.51.24,9.91-8.61c3.18-2.76,6.83-4.36,10-4.37,2.62,0,5.51,2.08,8.06,3.92.79.57,1.56,1.12,2.3,1.61a2.94,2.94,0,0,0-1.91,1,.92.92,0,0,0,.28,1.27l.06,0c2,1.11,4.5,3.53,7.11,6.08,1.65,1.62,3.34,3.27,5,4.67h-.17a2.05,2.05,0,0,0-1.68.61,1.31,1.31,0,0,0-.23,1.15,3.57,3.57,0,0,0,1.09,1.43l-4.94-2.12a.92.92,0,0,0-1.12,1.37A8,8,0,0,1,63.13,39a7.17,7.17,0,0,1-.65-.64.92.92,0,0,0-1.13-.2,1.76,1.76,0,0,0-.84,1.69L59,38.09a.92.92,0,0,0-1.4,1.2l2,2.36a1.73,1.73,0,0,0,.73.55,1.35,1.35,0,0,0,.45.08,1.34,1.34,0,0,0,.82-.28,2,2,0,0,0,.7-1.29,9.11,9.11,0,0,0,1.9,1.12.92.92,0,0,0,1.28-1,9.82,9.82,0,0,0-.48-2l4.58,2a.92.92,0,0,0,1.07-.25l2.07,2h-.25a8.75,8.75,0,0,0-1.26.08A.92.92,0,0,0,71,44.32a13.64,13.64,0,0,1,2.47,2.27l-1.23.24a.92.92,0,0,0-.5,1.53c.52.56,1.49,1.56,2.43,2.52l1.47,1.51-1.81.72a.92.92,0,0,0-.27,1.55c.52.46,2.2,1.64,4.15,3,.86.6,1.9,1.34,2.84,2a13.66,13.66,0,0,0-2.5-.45,1.1,1.1,0,0,0-1.09.6A1,1,0,0,0,77.1,61c1.45,1.71,4.46,5,6.68,7.3-.77-.34-1.61-.75-2.4-1.13Zm-52.93-9,.33.8c-.18.25-.34.51-.5.75l-.17.27A3.6,3.6,0,0,0,27,58.61a.92.92,0,0,0-1.12,0l-.49.41c-.27-.77-.59-1.73-.91-2.7-.18-.54-.36-1.08-.54-1.58-.12-.35-.24-.67-.35-1l2.53-1,.4,1c.21.49.44,1,.67,1.53.47,1,.93,2.08,1.27,2.86Zm-.64-6,2.53-1,.4,1c.21.49.44,1,.67,1.53.47,1,.94,2.08,1.28,2.86l.4,1,.15.37v0l-.14.23-.33.57-.33.57-.33-1.4A.92.92,0,0,0,31,57.1l-.12,0a3.76,3.76,0,0,0-1.11.68l-.06-.16c-.28-.81-.65-1.88-1-3-.18-.54-.36-1.08-.54-1.58-.12-.34-.24-.67-.35-1Z"/></svg>