<svg fill="#000000" xmlns="http://www.w3.org/2000/svg" xmlns:xlink="http://www.w3.org/1999/xlink" version="1.1" x="0px" y="0px" viewBox="0 0 100 100" enable-background="new 0 0 100 100" xml:space="preserve"><g display="none"><g display="inline" opacity="0.4"><polyline fill="#000000" stroke="#000000" stroke-linecap="round" stroke-linejoin="round" stroke-miterlimit="10" points="    41.341,64.263 27.322,64.263 6.828,64.263 17.075,46.514 27.322,28.764 37.569,46.514 44.579,58.654   "/><polyline fill="#000000" stroke="#000000" stroke-linecap="round" stroke-linejoin="round" stroke-miterlimit="10" points="    30.103,64.402 30.103,71.446 24.542,71.446 24.542,64.402   "/><line fill="#000000" stroke="#000000" stroke-linecap="round" stroke-linejoin="round" stroke-miterlimit="10" x1="19.819" y1="52.924" x2="34.826" y2="52.924"/><line fill="#000000" stroke="#000000" stroke-linecap="round" stroke-linejoin="round" stroke-miterlimit="10" x1="19.819" y1="57.542" x2="34.826" y2="57.542"/><line fill="#000000" stroke="#000000" stroke-linecap="round" stroke-linejoin="round" stroke-miterlimit="10" x1="19.819" y1="48.307" x2="34.826" y2="48.307"/><polyline fill="#000000" stroke="#000000" stroke-linecap="round" stroke-linejoin="round" stroke-miterlimit="10" points="    56.241,58.654 63.25,46.514 73.497,28.764 83.744,46.514 93.991,64.263 73.497,64.263 59.479,64.263   "/><polyline fill="#000000" stroke="#000000" stroke-linecap="round" stroke-linejoin="round" stroke-miterlimit="10" points="    76.277,64.402 76.277,71.446 70.716,71.446 70.716,64.402   "/><line fill="#000000" stroke="#000000" stroke-linecap="round" stroke-linejoin="round" stroke-miterlimit="10" x1="65.994" y1="52.924" x2="81.001" y2="52.924"/><line fill="#000000" stroke="#000000" stroke-linecap="round" stroke-linejoin="round" stroke-miterlimit="10" x1="65.994" y1="57.542" x2="81.001" y2="57.542"/><line fill="#000000" stroke="#000000" stroke-linecap="round" stroke-linejoin="round" stroke-miterlimit="10" x1="65.994" y1="48.307" x2="81.001" y2="48.307"/><polygon fill="#000000" stroke="#000000" stroke-linecap="round" stroke-linejoin="round" stroke-miterlimit="10" points="    50.41,48.554 60.657,66.303 70.904,84.052 50.41,84.052 29.915,84.052 40.163,66.303   "/><polyline fill="#000000" stroke="#000000" stroke-linecap="round" stroke-linejoin="round" stroke-miterlimit="10" points="    53.19,84.191 53.19,91.236 47.629,91.236 47.629,84.191   "/><line fill="#000000" stroke="#000000" stroke-linecap="round" stroke-linejoin="round" stroke-miterlimit="10" x1="42.906" y1="72.713" x2="57.913" y2="72.713"/><line fill="#000000" stroke="#000000" stroke-linecap="round" stroke-linejoin="round" stroke-miterlimit="10" x1="42.906" y1="77.331" x2="57.913" y2="77.331"/><line fill="#000000" stroke="#000000" stroke-linecap="round" stroke-linejoin="round" stroke-miterlimit="10" x1="42.906" y1="68.096" x2="57.913" y2="68.096"/></g><path display="inline" opacity="0.4" fill="#000000" stroke="#000000" stroke-linecap="round" stroke-linejoin="round" stroke-miterlimit="10" d="   M50.158,11.485c2.064,1.197,3.455,3.43,3.455,5.988c0,3.822-3.1,6.92-6.92,6.92c-0.953,0-1.859-0.193-2.686-0.541   c1.377,1.617,3.428,2.644,5.717,2.644c4.15,0,7.514-3.363,7.514-7.512C57.238,14.98,54.105,11.708,50.158,11.485z"/></g><g><g><g><g><path d="M69.377,84.539c-1.348,0-2.925-0.023-4.058-0.04c-0.628-0.009-1.117-0.016-1.353-0.016      c-3.431,0.05-6.664,0.047-9.959,0.017c-8.265-0.073-16.534-0.147-24.799-0.255c-0.367-0.005-0.701-0.209-0.872-0.534      s-0.15-0.716,0.053-1.021c0.769-1.153,1.937-3.303,2.32-4.084c0.641-1.301,1.479-2.449,2.29-3.56      c0.718-0.984,1.396-1.913,1.938-2.929c0.481-0.9,0.9-1.865,1.306-2.798c0.635-1.46,1.291-2.97,2.229-4.372      c1.386-2.066,2.593-4.313,3.76-6.486c0.595-1.107,1.189-2.214,1.811-3.306c0.642-1.131,1.425-2.239,2.182-3.312      c1.303-1.845,2.65-3.753,3.262-5.764c0.119-0.392,0.465-0.671,0.873-0.706c0.412-0.041,0.795,0.184,0.979,0.549l0.374,0.748      c1.279,2.565,3.278,6.314,5.543,9.612l0.237,0.345c1.426,2.07,3.041,4.416,4.087,6.776c0.852,1.92,1.842,3.421,2.988,5.16      c0.257,0.391,0.52,0.789,0.787,1.201c1.088,1.678,2.062,3.495,3.003,5.252c0.872,1.627,1.773,3.31,2.752,4.851      c0.813,1.276,1.147,1.869,1.801,3.117c0.142,0.271,0.152,0.591,0.028,0.87c-0.124,0.279-0.369,0.486-0.664,0.562      C72.046,84.476,71.614,84.539,69.377,84.539z M63.967,82.483c0.24,0,0.74,0.007,1.381,0.017      c1.126,0.017,2.691,0.039,4.029,0.039c0.401,0,0.736-0.002,1.018-0.005c-0.27-0.473-0.551-0.933-0.972-1.592      c-1.019-1.605-1.938-3.321-2.827-4.98c-0.922-1.721-1.875-3.5-2.919-5.109c-0.265-0.408-0.523-0.802-0.778-1.188      c-1.146-1.737-2.228-3.378-3.146-5.45c-0.971-2.19-2.53-4.455-3.905-6.453l-0.239-0.346c-1.991-2.901-3.776-6.125-5.068-8.637      c-0.748,1.482-1.726,2.867-2.68,4.219c-0.763,1.08-1.483,2.1-2.077,3.146c-0.612,1.079-1.199,2.172-1.787,3.265      c-1.189,2.215-2.421,4.506-3.859,6.653c-0.839,1.251-1.431,2.613-2.057,4.055c-0.422,0.97-0.857,1.972-1.377,2.944      c-0.608,1.14-1.36,2.17-2.087,3.166c-0.796,1.09-1.547,2.12-2.11,3.265c-0.272,0.554-0.887,1.703-1.511,2.778      c7.676,0.096,15.356,0.165,23.031,0.232c3.279,0.03,6.56,0.034,9.836-0.017C63.867,82.484,63.962,82.483,63.967,82.483z"/></g><g><path d="M47.641,91.818c-0.036,0-0.072-0.002-0.109-0.006c-0.549-0.06-0.945-0.554-0.886-1.103      c0.2-1.834,0.191-3.988,0.184-6.071l-0.003-1.018c-0.001-0.552,0.446-1,0.999-1.001h0.001c0.552,0,0.999,0.447,1,0.999      l0.003,1.012c0.009,2.138,0.017,4.349-0.195,6.296C48.578,91.439,48.145,91.818,47.641,91.818z"/></g><g><path d="M51.093,91.945c-1.225,0-2.632-0.028-3.565-0.133c-0.549-0.062-0.943-0.557-0.882-1.105s0.553-0.945,1.106-0.882      c1.402,0.159,4.275,0.13,5.749,0.088c0.535-0.019,1.013,0.419,1.028,0.971s-0.42,1.012-0.972,1.028      C53.348,91.917,52.311,91.945,51.093,91.945z"/></g><g><path d="M53.529,91.912c-0.008,0-0.016,0-0.023,0c-0.552-0.013-0.989-0.471-0.977-1.023c0.033-1.388,0.094-5.678,0.094-7.294      c0-0.552,0.447-1,1-1s1,0.448,1,1c0,1.628-0.062,5.945-0.094,7.341C54.517,91.479,54.071,91.912,53.529,91.912z"/></g><g><path d="M47.312,77.473c-0.551,0-1.088-0.014-1.592-0.052c-0.485-0.037-1.353-0.02-2.051-0.005      c-0.34,0.007-0.651,0.013-0.889,0.013c-0.553,0-1-0.448-1-1s0.447-1,1-1c0.227,0,0.524-0.006,0.849-0.013      c0.778-0.016,1.663-0.034,2.242,0.011c1.005,0.076,2.223,0.042,3.399,0.008c0.645-0.019,1.275-0.036,1.859-0.036      c0.005,0,0.011,0,0.017,0c1.354,0,2.453,0.008,3.54,0.015c1.167,0.008,2.318,0.014,3.768,0.015c0.001,0,0.001,0,0.001,0      c0.552,0,1,0.447,1,1s-0.447,1-0.999,1c-1.451,0.004-2.611-0.007-3.783-0.015c-1.083-0.007-2.178-0.015-3.527-0.015      c-0.006,0-0.011,0-0.016,0c-0.566,0-1.178,0.018-1.803,0.035C48.658,77.453,47.976,77.473,47.312,77.473z"/></g><g><path d="M58.578,72.653L58.578,72.653c-1.795,0-3.58-0.025-5.367-0.05c-1.234-0.017-2.471-0.034-3.711-0.043      c-0.56-0.006-1.08,0.011-1.601,0.026c-0.676,0.02-1.344,0.038-2.063,0.019c-0.345-0.008-0.759,0.002-1.191,0.013      c-0.883,0.022-1.797,0.045-2.43-0.076c-0.542-0.104-0.896-0.628-0.793-1.171c0.105-0.542,0.624-0.896,1.172-0.793      c0.419,0.082,1.259,0.059,2,0.041c0.47-0.012,0.923-0.023,1.297-0.013c0.677,0.018,1.312,0,1.951-0.019      c0.543-0.016,1.09-0.033,1.673-0.027c1.244,0.009,2.484,0.026,3.725,0.043c1.777,0.024,3.554,0.049,5.339,0.049      c0.553,0,1,0.448,1,1S59.13,72.653,58.578,72.653z"/></g><g><path d="M49.729,67.978c-1.093-0.001-2.188-0.102-3.248-0.203c-1.308-0.124-2.544-0.24-3.738-0.172      c-0.55,0.042-1.024-0.389-1.057-0.939c-0.032-0.551,0.389-1.024,0.939-1.057c1.35-0.082,2.72,0.051,4.045,0.177      c1.062,0.101,2.096,0.179,3.06,0.194c1.467,0,2.927-0.023,4.387-0.046c1.454-0.023,2.908-0.046,4.367-0.047l0,0      c0.552,0,1,0.447,1,1s-0.447,1-1,1c-1.448,0-2.892,0.023-4.335,0.046C52.679,67.955,51.207,67.978,49.729,67.978z"/></g></g><g><g><path d="M35.523,64.522c-1.43,0-2.93-0.007-4.516-0.021c-8.265-0.073-16.534-0.147-24.799-0.255      c-0.367-0.005-0.701-0.209-0.872-0.534s-0.15-0.716,0.053-1.021c0.769-1.154,1.937-3.303,2.32-4.084      c0.641-1.301,1.479-2.449,2.29-3.56c0.718-0.984,1.396-1.913,1.938-2.929c0.481-0.9,0.9-1.865,1.306-2.798      c0.635-1.46,1.291-2.97,2.229-4.372c1.386-2.066,2.593-4.313,3.76-6.486c0.595-1.107,1.189-2.214,1.811-3.307      c0.642-1.131,1.425-2.239,2.182-3.312c1.303-1.845,2.65-3.753,3.262-5.764c0.119-0.392,0.465-0.671,0.873-0.706      c0.415-0.041,0.795,0.184,0.979,0.549l0.374,0.748c1.279,2.565,3.278,6.314,5.543,9.612l0.237,0.345      c1.426,2.07,3.041,4.416,4.087,6.776c0.852,1.92,1.842,3.421,2.988,5.16c0.257,0.391,0.52,0.789,0.787,1.201      c1.087,1.675,2.059,3.489,2.999,5.243l0.26,0.484c0.262,0.487,0.079,1.093-0.408,1.354c-0.486,0.262-1.093,0.078-1.354-0.408      l-0.261-0.486c-0.921-1.718-1.873-3.494-2.915-5.1c-0.265-0.408-0.523-0.802-0.778-1.188c-1.146-1.737-2.228-3.378-3.146-5.45      c-0.971-2.19-2.53-4.455-3.905-6.453l-0.239-0.346c-1.991-2.901-3.776-6.125-5.068-8.637c-0.748,1.482-1.726,2.867-2.68,4.219      c-0.763,1.08-1.483,2.1-2.077,3.146c-0.612,1.079-1.199,2.172-1.787,3.265c-1.189,2.215-2.421,4.506-3.859,6.653      c-0.839,1.251-1.431,2.613-2.057,4.055c-0.422,0.97-0.857,1.972-1.377,2.944c-0.608,1.14-1.36,2.17-2.087,3.166      c-0.796,1.09-1.547,2.12-2.11,3.265c-0.272,0.554-0.887,1.703-1.511,2.778c7.676,0.096,15.356,0.165,23.031,0.232      c3.559,0.032,6.678,0.028,9.538-0.012c0.004,0,0.009,0,0.014,0c0.546,0,0.992,0.438,1,0.986      c0.008,0.552-0.434,1.006-0.986,1.014C38.992,64.511,37.313,64.522,35.523,64.522z"/></g><g><path d="M24.641,71.818c-0.036,0-0.072-0.002-0.109-0.006c-0.549-0.06-0.945-0.554-0.886-1.103      c0.2-1.834,0.191-3.988,0.184-6.071l-0.003-1.018c-0.001-0.552,0.446-1,0.999-1.001h0.001c0.552,0,0.999,0.447,1,0.999      l0.003,1.012c0.009,2.138,0.017,4.349-0.195,6.296C25.578,71.439,25.145,71.818,24.641,71.818z"/></g><g><path d="M28.093,71.945c-1.225,0-2.632-0.028-3.565-0.133c-0.549-0.062-0.943-0.557-0.882-1.105s0.55-0.947,1.106-0.882      c1.402,0.159,4.274,0.131,5.749,0.088c0.539-0.024,1.013,0.419,1.028,0.971s-0.42,1.012-0.972,1.028      C30.348,71.917,29.311,71.945,28.093,71.945z"/></g><g><path d="M30.529,71.912c-0.008,0-0.016,0-0.023,0c-0.552-0.013-0.989-0.471-0.977-1.023c0.033-1.388,0.094-5.678,0.094-7.294      c0-0.552,0.447-1,1-1s1,0.448,1,1c0,1.628-0.062,5.945-0.094,7.341C31.517,71.479,31.071,71.912,30.529,71.912z"/></g><g><path d="M24.312,57.473c-0.551,0-1.088-0.014-1.592-0.052c-0.484-0.037-1.353-0.02-2.051-0.005      c-0.34,0.007-0.651,0.013-0.889,0.013c-0.553,0-1-0.448-1-1s0.447-1,1-1c0.227,0,0.524-0.006,0.849-0.013      c0.778-0.016,1.663-0.034,2.242,0.011c1.005,0.076,2.224,0.042,3.399,0.008c0.645-0.019,1.275-0.036,1.859-0.036      c0.005,0,0.011,0,0.017,0c1.354,0,2.453,0.008,3.54,0.015c1.167,0.008,2.324,0.02,3.768,0.015c0.001,0,0.001,0,0.001,0      c0.552,0,1,0.447,1,1s-0.447,1-0.999,1c-1.451-0.001-2.611-0.007-3.783-0.015c-1.083-0.007-2.178-0.015-3.527-0.015      c-0.006,0-0.011,0-0.016,0c-0.566,0-1.178,0.018-1.803,0.035C25.658,57.453,24.976,57.473,24.312,57.473z"/></g><g><path d="M35.578,52.653L35.578,52.653c-1.795,0-3.58-0.025-5.367-0.05c-1.234-0.017-2.471-0.034-3.711-0.043      c-0.56-0.004-1.08,0.011-1.601,0.026c-0.675,0.02-1.344,0.038-2.063,0.019c-0.344-0.009-0.759,0.002-1.191,0.013      c-0.883,0.022-1.797,0.046-2.43-0.076c-0.542-0.104-0.896-0.628-0.793-1.171c0.105-0.542,0.626-0.896,1.172-0.793      c0.419,0.081,1.259,0.06,2,0.041c0.471-0.011,0.923-0.022,1.297-0.013c0.678,0.018,1.312,0,1.951-0.019      c0.543-0.016,1.09-0.03,1.673-0.027c1.244,0.009,2.484,0.026,3.725,0.043c1.777,0.024,3.554,0.049,5.339,0.049      c0.553,0,1,0.448,1,1S36.13,52.653,35.578,52.653z"/></g><g><path d="M26.729,47.978c-1.072,0-2.188-0.102-3.248-0.203c-1.308-0.125-2.544-0.241-3.738-0.172      c-0.545,0.043-1.024-0.389-1.057-0.939c-0.032-0.551,0.389-1.024,0.939-1.057c1.349-0.083,2.72,0.051,4.045,0.177      c1.046,0.1,2.033,0.194,3.014,0.194c0.016,0,0.031,0,0.046,0c1.467,0,2.927-0.023,4.387-0.046      c1.454-0.023,2.908-0.046,4.367-0.047l0,0c0.552,0,1,0.447,1,1s-0.447,1-1,1c-1.448,0-2.892,0.023-4.335,0.046      C29.679,47.955,28.207,47.978,26.729,47.978z"/></g></g><g><g><path d="M92.438,64.539c-1.017,0-2.357-0.014-4.119-0.04c-0.716-0.01-1.253-0.018-1.427-0.016      c-2.95,0.045-6.092,0.051-9.884,0.017l-0.778-0.007c-5.262-0.047-10.525-0.094-15.789-0.15      c-0.552-0.006-0.995-0.458-0.989-1.011s0.467-0.981,1.011-0.989c5.263,0.056,10.524,0.104,15.785,0.15l0.778,0.007      c3.775,0.035,6.901,0.029,9.836-0.017c0.187-0.005,0.742,0.005,1.486,0.016c1.11,0.016,3.492,0.051,5.047,0.034      c-0.27-0.473-0.551-0.933-0.972-1.592c-1.019-1.605-1.938-3.321-2.827-4.98c-0.922-1.721-1.875-3.5-2.919-5.109      c-0.265-0.408-0.523-0.802-0.778-1.188c-1.146-1.737-2.228-3.378-3.146-5.45c-0.971-2.19-2.53-4.455-3.905-6.453l-0.239-0.346      c-1.991-2.901-3.776-6.125-5.068-8.637c-0.748,1.482-1.726,2.867-2.68,4.219c-0.763,1.08-1.483,2.1-2.077,3.146      c-0.612,1.079-1.199,2.172-1.787,3.265c-1.189,2.215-2.421,4.506-3.859,6.653c-0.839,1.251-1.431,2.613-2.057,4.055      c-0.422,0.97-0.857,1.972-1.377,2.944c-0.605,1.136-1.355,2.163-2.08,3.156c-0.207,0.285-0.415,0.569-0.619,0.855      c-0.318,0.45-0.945,0.555-1.395,0.235c-0.449-0.32-0.555-0.945-0.234-1.395c0.208-0.293,0.421-0.584,0.633-0.875      c0.716-0.98,1.391-1.906,1.931-2.919c0.482-0.901,0.901-1.866,1.307-2.799c0.635-1.46,1.291-2.97,2.229-4.372      c1.386-2.066,2.593-4.313,3.76-6.486c0.595-1.107,1.189-2.214,1.811-3.307c0.642-1.131,1.425-2.239,2.182-3.312      c1.303-1.845,2.65-3.753,3.262-5.764c0.119-0.392,0.465-0.671,0.873-0.706c0.416-0.041,0.795,0.184,0.979,0.549l0.374,0.748      c1.279,2.565,3.278,6.314,5.543,9.612l0.237,0.345c1.426,2.07,3.041,4.416,4.087,6.776c0.852,1.92,1.842,3.421,2.988,5.16      c0.257,0.391,0.52,0.789,0.787,1.201c1.089,1.678,2.062,3.495,3.003,5.252c0.872,1.627,1.773,3.31,2.752,4.851      c0.813,1.276,1.147,1.869,1.801,3.117c0.142,0.271,0.152,0.591,0.028,0.87c-0.124,0.279-0.369,0.486-0.664,0.562      C94.953,64.5,94.163,64.539,92.438,64.539z"/></g><g><path d="M70.641,71.818c-0.036,0-0.072-0.002-0.109-0.006c-0.549-0.06-0.945-0.554-0.886-1.103      c0.2-1.834,0.191-3.988,0.184-6.071l-0.003-1.018c-0.001-0.552,0.446-1,0.999-1.001h0.001c0.552,0,0.999,0.447,1,0.999      l0.003,1.012c0.009,2.138,0.017,4.349-0.195,6.296C71.578,71.439,71.145,71.818,70.641,71.818z"/></g><g><path d="M74.093,71.945c-1.225,0-2.632-0.028-3.565-0.133c-0.549-0.062-0.943-0.557-0.882-1.105s0.548-0.947,1.106-0.882      c1.403,0.159,4.274,0.131,5.749,0.088c0.531-0.024,1.013,0.419,1.028,0.971s-0.42,1.012-0.972,1.028      C76.348,71.917,75.311,71.945,74.093,71.945z"/></g><g><path d="M76.529,71.912c-0.008,0-0.016,0-0.023,0c-0.552-0.013-0.989-0.471-0.977-1.023c0.033-1.388,0.094-5.678,0.094-7.294      c0-0.552,0.447-1,1-1s1,0.448,1,1c0,1.628-0.062,5.945-0.094,7.341C77.517,71.479,77.071,71.912,76.529,71.912z"/></g><g><path d="M70.312,57.473c-0.551,0-1.088-0.014-1.592-0.052c-0.485-0.037-1.353-0.02-2.051-0.005      c-0.34,0.007-0.651,0.013-0.889,0.013c-0.553,0-1-0.448-1-1s0.447-1,1-1c0.227,0,0.524-0.006,0.849-0.013      c0.778-0.016,1.663-0.034,2.242,0.011c1.005,0.076,2.224,0.042,3.399,0.008c0.645-0.019,1.275-0.036,1.859-0.036      c0.005,0,0.011,0,0.017,0c1.354,0,2.453,0.008,3.54,0.015c1.167,0.008,2.322,0.02,3.768,0.015c0.001,0,0.001,0,0.001,0      c0.552,0,1,0.447,1,1s-0.447,1-0.999,1c-1.451-0.001-2.611-0.007-3.783-0.015c-1.083-0.007-2.178-0.015-3.527-0.015      c-0.006,0-0.011,0-0.016,0c-0.566,0-1.178,0.018-1.803,0.035C71.658,57.453,70.976,57.473,70.312,57.473z"/></g><g><path d="M81.578,52.653L81.578,52.653c-1.795,0-3.58-0.025-5.367-0.05c-1.234-0.017-2.471-0.034-3.711-0.043      c-0.56-0.004-1.079,0.011-1.601,0.026c-0.675,0.02-1.344,0.038-2.063,0.019c-0.345-0.009-0.76,0.002-1.191,0.013      c-0.883,0.022-1.797,0.046-2.43-0.076c-0.542-0.104-0.896-0.628-0.793-1.171c0.105-0.542,0.627-0.896,1.172-0.793      c0.418,0.081,1.258,0.06,2,0.041c0.47-0.011,0.924-0.022,1.297-0.013c0.678,0.018,1.312,0,1.951-0.019      c0.544-0.016,1.09-0.03,1.673-0.027c1.244,0.009,2.484,0.026,3.725,0.043c1.777,0.024,3.554,0.049,5.339,0.049      c0.553,0,1,0.448,1,1S82.13,52.653,81.578,52.653z"/></g><g><path d="M72.729,47.978c-1.112,0-2.188-0.102-3.248-0.203c-1.308-0.125-2.544-0.241-3.738-0.172      c-0.54,0.043-1.024-0.389-1.057-0.939c-0.032-0.551,0.389-1.024,0.939-1.057c1.35-0.083,2.721,0.051,4.045,0.177      c1.046,0.1,2.033,0.194,3.014,0.194c0.016,0,0.031,0,0.046,0c1.467,0,2.927-0.023,4.387-0.046      c1.454-0.023,2.908-0.046,4.367-0.047l0,0c0.552,0,1,0.447,1,1s-0.447,1-1,1c-1.448,0-2.892,0.023-4.335,0.046      C75.679,47.955,74.207,47.978,72.729,47.978z"/></g></g></g><g><path d="M50.438,27.234c-2.158,0-4.54-0.865-7.079-2.57c-0.384-0.258-0.541-0.745-0.38-1.179c0.162-0.433,0.609-0.695,1.058-0.644    c0.892,0.108,1.607,0.158,2.253,0.158c1.846,0,3.132-0.417,4.171-1.351c2.262-2.033,2.816-4.293,1.647-6.718    c-0.697-1.446-1.391-2.321-2.32-2.924c-0.398-0.259-0.56-0.762-0.386-1.204c0.174-0.442,0.631-0.698,1.102-0.62    c1.23,0.213,6.061,2.22,7.585,6.197c0.971,2.532,0.374,5.2-1.775,7.928C54.806,26.222,52.774,27.234,50.438,27.234z     M48.148,24.854c2.726,0.857,4.989,0.252,6.595-1.784c1.682-2.136,2.18-4.146,1.479-5.975c-0.438-1.143-1.298-2.12-2.247-2.897    c1.47,3.183,0.7,6.352-2.176,8.938C50.785,24.046,49.601,24.608,48.148,24.854z"/></g></g></svg>