<svg fill="#000000" xmlns="http://www.w3.org/2000/svg" xmlns:xlink="http://www.w3.org/1999/xlink" version="1.1" x="0px" y="0px" viewBox="0 0 100 100" style="enable-background:new 0 0 100 100;" xml:space="preserve"><path d="M41.7,96.3c-7.3-2-14.9-12.8-14.9-12.8c1.4-19.8-2.3-21.2,11.4-30.4c1.8-1.2,13.6-10.5,15.7-11.8c0.6-0.3,1.1-0.6,1.7-0.8  c4-1.5,7.3,0.6,4.2,3.4c-3.3,2.9-11.1,8.4-12.8,10.3c7.1-1.5,12.6-3,17.2-4.7c6.3-2.3,10.9-4.8,15.2-7.5c3.5-2.1,6.4-4.9,8.4-8.7  c0.4-0.8,1.1-1.4,1.8-1.6c1.8-0.7,3.8,0.7,2.6,3c-0.3,0.6-1,2.1-1.1,2.3C85.3,50.5,74.9,55.5,58.8,64c-0.4,0.2-4.4,2.1-7,3.2  c0,0-3.5,0.4-6.6,12C42.1,90.8,41.7,96.3,41.7,96.3z"/><path d="M50.2,52.9c0,0,14-3.7,21.3-7.5c7.3-3.8,11.8-8.5,14.7-14.2c0.9-1.6-3-3.9-5.9,0.5c-2.9,4.4-13.8,11-17,12.3  C60.1,45.2,53.8,49.9,50.2,52.9z"/><path d="M50.5,69.7c-0.3,0-3.2,15.5-0.8,25.3c-5.7-2.5-6.3-2.8-6.3-2.8S47.8,70.3,50.5,69.7z"/><path d="M29.5,58.3c0,0,0.8-7.5,5.3-11.5S45.5,27,48,29s0,6.2-2.7,11c-2.7,4.8-2.8,8.3-2.8,8.3L29.5,58.3z"/><path d="M62.3,43.2c0,0,7.8-4.2,14-9.6c0.7-0.6,0.5-1.8-0.3-2.2c-1.3-0.6-3.7-0.3-7.8,4c-4.5,3.8-6.3,4.3-6.3,4.3  S63.5,41.7,62.3,43.2z"/></svg>