<svg fill="#000000" xmlns="http://www.w3.org/2000/svg" xmlns:xlink="http://www.w3.org/1999/xlink" version="1.1" x="0px" y="0px" viewBox="0 0 1000 1000" style="enable-background:new 0 0 1000 1000;" xml:space="preserve"><g><g><path d="M783,714c-14.1,0-28.1,0-42.2,0c-34.8,0-69.7,0-104.5,0c-45.4,0-90.8,0-136.2,0s-90.8,0-136.2,0    c-34.9,0-69.9,0-104.8,0c-13.9,0-28,0.8-41.9,0c-1.4-0.1-1.9-0.1-3.4-0.9c-0.3-0.2-0.7-0.5-1-0.7c0.7,0.5,0.7,0.5,0.2-0.1    c-0.1-0.2-0.3-0.3-0.4-0.5c1.4,1.5,2,3.4,1.7,5.6c3.1,15.6,0.8,5.6,0.9,4.3c0.1-0.7,0-1.4,0-2.1c0-3.3,0-6.6,0-9.9    c0-13,0-25.9,0-38.9c0-41.9,0-83.9,0-125.8c0-44.6,0-89.2,0-133.8c0-25,0-50,0-75c0-0.6,0.1-1.3,0-1.9c-0.4-3-1.8,11.3-1.9,9    c0,1.9-1.4,0.7,0,0c-1.5,0.7,0.2-0.2,0.5-0.3c1.7-1,1.9-0.8,3.4-0.9c1-0.1,2,0,3,0c7.3,0,14.6,0,21.9,0c30.8,0,61.7,0,92.5,0    c43.7,0,87.4,0,131,0c46.5,0,93.1,0,139.6,0c38.3,0,76.6,0,114.9,0c20.1,0,40.1,0,60.2,0c1.3,0,2.7-0.1,4,0.1    c0.3,0.1,2.2,0.9,3.1,1.5c-1.8-1.2,1,1.8-0.2,0.1c-2.1-3.2-3,3.1-2.2-9.7c0,0.1,0,0.2,0,0.3c0,0.7,0,1.5,0,2.2    c0,8.9,0,17.8,0,26.8c0,38.1,0,76.1,0,114.2c0,45.9,0,91.7,0,137.6c0,31.8,0,63.7,0,95.5c0,3.1,0,6.1,0,9.2c0,0.6,0,1.3,0,1.9    c0,0.1,0,0.2,0,0.2c0.6-3.1,1.2-6.1,1.9-9.2c0.3-0.3,0.5-0.7,0.8-1c0,0-1.5,1.5-0.2,0.6C785.5,713.7,784.6,713.9,783,714    c-8.2,0.4-10.1,13.8-10,20c0.1,5.3,1.7,20.5,10,20c20.3-1.1,22-24.3,22-40.4c0-12.1,0-24.2,0-36.2c0-41.8,0-83.6,0-125.3    c0-45.7,0-91.4,0-137.1c0-26.1,0-52.2,0-78.3c0-15-5.3-34.3-23.3-34.5c-6.1-0.1-12.3,0-18.4,0c-29.9,0-59.7,0-89.6,0    c-44.1,0-88.2,0-132.3,0c-47.3,0-94.6,0-141.8,0c-39.3,0-78.6,0-117.9,0c-20.6,0-41.1,0-61.7,0c-28.3,0-24.8,35.7-24.8,55.9    c0,37.3,0,74.6,0,111.8c0,46.9,0,93.8,0,140.7c0,33,0,65.9,0,98.9c0,12.3-1,25.9,6.9,36.3c6.4,8.4,14.3,8.2,23.3,8.2    c24.7,0,49.4,0,74.1,0c41.7,0,83.3,0,125,0c47.5,0,95,0,142.6,0c42.3,0,84.7,0,127,0c26.1,0,52.1,0,78.2,0c3.6,0,7.2,0,10.8,0    c8.2,0,10.1-14.2,10-20C792.9,728.3,791.4,714,783,714z"/></g><path d="M614.4,510.4v35.3c0,6.6-5.4,12-12,12h-72.8v72.8c0,6.6-5.4,12-12,12h-35.3c-6.6,0-12-5.4-12-12v-72.8   h-72.8c-6.6,0-12-5.4-12-12v-35.3c0-6.6,5.4-12,12-12h72.8v-72.8c0-6.6,5.4-12,12-12h35.3c6.6,0,12,5.4,12,12v72.8h72.8   C609,498.4,614.4,503.8,614.4,510.4z"/><polygon points="640,211.1 640,287.1 600,287.1 600,241.9 400,241.9 400,287.1 360,287.1 360,211.1  "/><path d="M360.3,788.9h-93c-6.6,0-12-5.4-12-12l0,0c0-6.6,5.4-12,12-12h93c6.6,0,12,5.4,12,12l0,0   C372.3,783.5,366.9,788.9,360.3,788.9z"/><path d="M730.3,788.9h-93c-6.6,0-12-5.4-12-12l0,0c0-6.6,5.4-12,12-12h93c6.6,0,12,5.4,12,12l0,0   C742.3,783.5,736.9,788.9,730.3,788.9z"/></g></svg>