<svg xmlns="http://www.w3.org/2000/svg" xmlns:xlink="http://www.w3.org/1999/xlink" version="1.1" x="0px" y="0px" width="100px" height="100px" viewBox="0 0 100 100" enable-background="new 0 0 100 100" xml:space="preserve">
<g id="Captions">
	<rect x="-192" width="185" height="99"/>
	<rect y="-36" width="100" height="30"/>
	<text transform="matrix(1 0 0 1 66 -19.5)" fill="#000000" font-family="'Helvetica'" font-size="2.4">http://thenounproject.com</text>
	<text transform="matrix(1 0 0 1 7.166 -24.5)"><tspan x="0" y="0" fill="#000000" font-family="'Helvetica-Bold'" font-size="6.1578">The Noun Project</tspan><tspan x="1.12" y="4.8" fill="#000000" font-family="'Helvetica-Bold'" font-size="4">Icon Template</tspan></text>
	<text transform="matrix(1 0 0 1 -178.5 10.5)" fill="#000000" font-family="'Helvetica-Bold'" font-size="6.1578">Reminders</text>
	<line fill="#000000" stroke="#FFFFFF" stroke-miterlimit="10" x1="8" y1="-14.5" x2="18" y2="-14.5"/>
	<line fill="#000000" stroke="#FFFFFF" stroke-miterlimit="10" x1="-179" y1="16.5" x2="-162" y2="16.5"/>
	<g>
		<g>
			<g>
				<rect x="-170.802" y="31.318" fill="#000000" width="8.721" height="8.642"/>
				<path fill="#000000" d="M-164.455,42.312h4.747v-4.703h-4.747V42.312z M-159.266,42.749h-5.63V37.17h5.63V42.749      L-159.266,42.749z M-166.221,44.062h8.279v-8.203h-8.279V44.062L-166.221,44.062z M-157.5,44.5h-9.163v-9.079h9.163V44.5      L-157.5,44.5z"/>
				<polygon fill="#000000" points="-166.149,44.133 -166.292,43.991 -158.013,35.787 -157.871,35.929     "/>
			</g>
		</g>
	</g>
	<rect x="-179" y="58" fill="none" width="35" height="32.5"/>
	<text transform="matrix(1 0 0 1 -179 60.1299)"><tspan x="0" y="0" fill="#000000" font-family="'Helvetica-Bold'" font-size="3">Strokes</tspan><tspan x="0" y="5" fill="#000000" font-family="'Helvetica'" font-size="2.4">Try to keep strokes at 4px</tspan><tspan x="0" y="10" fill="#000000" font-family="'Helvetica'" font-size="2.4">Minimum stroke weight is 2px</tspan><tspan x="0" y="14.5" fill="#000000" font-family="'Helvetica'" font-size="2.4">For thicker strokes use even </tspan><tspan x="0" y="17.5" fill="#000000" font-family="'Helvetica'" font-size="2.4">numbers: 6px, 8px etc.</tspan><tspan x="0" y="22" fill="#000000" font-family="'Helvetica-Bold'" font-size="2.4">Remember to expand strokes </tspan><tspan x="0" y="25" fill="#000000" font-family="'Helvetica-Bold'" font-size="2.4">before saving as an SVG </tspan></text>
	<rect x="-136.5" y="58" fill="none" width="35" height="32.5"/>
	<text transform="matrix(1 0 0 1 -136.5 60.1299)"><tspan x="0" y="0" fill="#000000" font-family="'Helvetica-Bold'" font-size="3">Size</tspan><tspan x="0" y="5" fill="#000000" font-family="'Helvetica'" font-size="2.4">Cannot be wider or taller than </tspan><tspan x="0" y="8.5" fill="#000000" font-family="'Helvetica'" font-size="2.4">100px (artboard size)</tspan><tspan x="0" y="13.5" fill="#000000" font-family="'Helvetica'" font-size="2.4">Scale your icon to fill as much of </tspan><tspan x="0" y="16.5" fill="#000000" font-family="'Helvetica'" font-size="2.4">the artboard as possible</tspan></text>
	<rect x="-94" y="58" fill="none" width="35" height="32.5"/>
	<text transform="matrix(1 0 0 1 -94 60.1299)"><tspan x="0" y="0" fill="#000000" font-family="'Helvetica-Bold'" font-size="3">Ungroup</tspan><tspan x="0" y="5" fill="#000000" font-family="'Helvetica'" font-size="2.4">If your design has more than one </tspan><tspan x="0" y="8" fill="#000000" font-family="'Helvetica'" font-size="2.4">shape, make sure to ungroup</tspan></text>
	<rect x="-50" y="58" fill="none" width="35" height="32.5"/>
	<text transform="matrix(1 0 0 1 -50 60.1299)"><tspan x="0" y="0" fill="#000000" font-family="'Helvetica-Bold'" font-size="3">Save as</tspan><tspan x="0" y="5" fill="#000000" font-family="'Helvetica'" font-size="2.4">Save as .SVG and make sure &#8220;Use </tspan><tspan x="0" y="8" fill="#000000" font-family="'Helvetica'" font-size="2.4">Artboards&#8221; is checked</tspan></text>
	<text transform="matrix(1.0074 0 0 1 -125.542 30.5933)" fill="#000000" font-family="'Helvetica'" font-size="2.5731">100px</text>
	<text transform="matrix(1.0074 0 0 1 -41 39)" fill="#000000" font-family="'Helvetica-Bold'" font-size="5.1462">.SVG</text>
	<rect x="-126.514" y="34.815" fill="#000000" width="10.261" height="10.185"/>
	<rect x="-126.477" y="31.766" fill="#000000" width="0.522" height="2.337"/>
	<rect x="-116.813" y="31.766" fill="#000000" width="0.523" height="2.337"/>
	<rect x="-127" y="32.337" fill="#000000" width="11.233" height="0.572"/>
	<g>
		<rect x="-83.805" y="33.844" fill="#000000" width="10.305" height="10.156"/>
		<rect x="-76.809" y="28.707" fill="#000000" width="3.308" height="3.261"/>
	</g>
	<rect x="-178.5" y="22.5" fill="#000000" stroke="#FFFFFF" stroke-miterlimit="10" width="30" height="30"/>
	<rect x="-136.5" y="22.5" fill="#000000" stroke="#FFFFFF" stroke-miterlimit="10" width="30" height="30"/>
	<rect x="-93.5" y="22.5" fill="#000000" stroke="#FFFFFF" stroke-miterlimit="10" width="30" height="30"/>
	<rect x="-49.5" y="22.5" fill="#000000" stroke="#FFFFFF" stroke-miterlimit="10" width="30" height="30"/>
</g>
<g id="Your_Icon">
	<path d="M81.204,87.448c-0.073-0.255-3.031-2.12-3.305-2.275c-0.272-0.155-0.572-0.19-1.093-0.264   c-0.518-0.073-0.709-0.383-1.382-0.646c-0.673-0.263-1.584-0.991-2.029-1.228c-0.446-0.237-0.828-0.521-1.429-0.773   c-0.602-0.255-0.701-0.593-1.039-0.803c-0.335-0.208-1.272-0.771-1.51-0.927c-0.219-0.144-0.337-0.428-0.327-0.602   c0.009-0.173-0.063-1.074-0.137-1.146s-0.271-0.09-0.271-0.09s-0.794-2.356-0.484-2.795c0.18-0.251-0.028-1.793-0.156-1.92   c-0.126-0.128-0.59-0.41-0.808-0.673c-0.219-0.265-0.863-3.04-0.983-3.495c-0.117-0.454-0.301-1.765-0.392-2.075   c-0.09-0.31-0.374-0.527-0.481-0.946c-0.108-0.419-0.12-0.937-0.354-1.265c-0.237-0.328-3.707-1.273-3.707-1.273   s0.123-0.729,0.194-1.33c0.014-0.131,0.128-0.091,0.101-0.281c-0.024-0.155-0.156-0.199-0.301-0.311   c0.091-0.107,0.145-0.327,0.126-0.4c-0.064-0.263-0.481-0.799-1.12-0.855c-0.636-0.054-5.069-0.563-5.649-0.809   c-0.583-0.246-1.721-0.528-1.958-0.428c-0.235,0.101-2.083,8.718-2.083,8.718l-3.176,2.621l-2.521,2.075   c0,0-0.323,0.249-2.157,1.573c-0.311,0.226-0.669,0.568-1.119,0.9c-1.105,0.82-2.533,1.795-3.476,2.322   c-1.415,0.791-2.534,1.923-3.568,2.502c-1.036,0.582-1.743,0.914-1.866,1c-0.555,0.401-0.653,0.544-1.983,1.549   c-0.504,0.381-1.068,0.85-1.785,1.347c-0.343,0.238-0.715,0.535-1.147,0.72c-0.287,0.121-0.665,0.144-0.91,0.309   c-0.423,0.282-0.813,0.635-1.183,0.902c-0.455,0.326-0.853,0.521-1.218,0.772c-0.879,0.601-1.472,1.063-1.484,1.091   c-0.063,0.137-0.182,1.184,1.192,2.522c1.374,1.337,1.247,1.129,1.693,1.618c0.446,0.492,2.365,2.768,2.73,2.785   c0.363,0.019,1.201-0.938,1.865-1.474c0.666-0.537,1.111-0.976,2.549-1.964c0.585-0.404,1.297-0.777,1.916-1.202   c0.832-0.569,1.562-1.168,2.198-1.603c0.743-0.506,1.331-0.807,1.375-0.838c0.891-0.646,2.077-0.888,3.704-1.748   c1.003-0.529,1.788-1.122,1.947-1.264c0.419-0.372,1.802-1.147,2.421-1.648c0.619-0.5,1.347-1.291,1.42-1.255   c0.073,0.036-0.191,2.038-0.191,2.038s-1.365,0.811-2.266,1.283c-0.9,0.473-1.502,0.746-2.148,1.192   c-0.646,0.447-2.512,1.202-2.785,1.365s-0.473,0.502-0.627,0.619c-0.156,0.119-1.065,0.629-1.065,0.629s-0.292,0.299-0.446,0.572   c-0.154,0.273-0.2,0.846-0.2,0.846s-0.51,0.175-0.628,0.382c-0.118,0.21-0.137,0.802-0.137,0.802s-0.325,0.301-0.354,0.747   c-0.037,0.563,0.164,1.082,0.127,1.211c-0.036,0.127-0.228,0.127-0.3,0.308c-0.073,0.183-0.037,1.174-0.018,1.274   c0.018,0.099,2.557,1.219,2.557,1.219s1.108,0.458,2.23,0.803c0.145,0.043,0.291-0.011,0.434,0.034   c0.925,0.279,1.759,0.516,1.86,0.493c0.237-0.055,2.621-1.783,2.621-1.783l0.182,0.509c0,0-0.483,0.728-0.438,0.828   c0.065,0.142,1.72,0.336,3.104,0.364c1.383,0.027,3.339-0.037,4.212,0.009c0.876,0.046,1.821,0.146,2.095,0.036   c0.273-0.108,0.518-0.399,0.573-0.572c0.054-0.173-0.081-0.265-0.081-0.265s0.179-0.253,0.219-0.474   c0.052-0.308-0.201-0.601-0.201-0.756c0-0.154,0.229-0.397,0.19-0.691c-0.037-0.29-0.437-0.684-0.464-0.827   c-0.026-0.146-0.063-1.848-0.026-2.074c0.035-0.229,0.183-0.438,0.209-0.711s0.026-1.874,0.108-2.037   c0.042-0.086,0.531-0.417,1.011-0.747c0.462-0.319,0.916-0.642,1.028-0.564c0.092,0.062,0.201,0.738,0.445,1.547   c0.164,0.538,0.438,1.089,0.601,1.647c0.202,0.692,0.273,1.367,0.265,1.691c-0.027,0.983-0.256,1.213-0.256,1.503   s0.037,0.811,0.165,0.909c0.127,0.1,0.199,0.047,0.263,0.136c0.063,0.092,0.12,0.83,0.318,0.975   c0.201,0.145,1.091,0.118,2.705,0.065c1.61-0.057,2.247-0.202,3.095-0.311c0.302-0.04,0.729-0.228,1.209-0.355   c0.331-0.09,0.696-0.112,1.01-0.191c0.492-0.122,0.885-0.281,1.019-0.327c0.347-0.117,0.363-0.291,0.464-0.31   s0.227,0.062,0.401,0.009c0.363-0.108,2.073-0.68,2.247-0.901c0.138-0.171-0.018-0.549-0.126-1.063   c-0.07-0.322-0.113-0.681-0.175-1.065c-0.074-0.486-0.217-0.979-0.281-1.327c-0.062-0.337-0.051-0.537-0.036-0.547   c0.063-0.037,0.397,0.286,1.038,0.618c0.506,0.266,1.136,0.563,1.784,0.91c0.418,0.223,0.813,0.479,1.219,0.691   c0.404,0.216,0.853,0.366,1.184,0.538c0.627,0.325,0.883,0.581,1.028,0.581c0.144,0,0.579-0.524,1.146-0.992   c0.478-0.393,0.948-0.729,1.019-0.846c0.154-0.254,0.311-1.355,0.454-2.092C80.774,88.986,81.276,87.704,81.204,87.448z"/>
	<path d="M63.657,33.084c1.433-1.576,2.577-2.244,2.865-4.631c0.276-2.307-1.433-4.584-1.433-4.584s0.071,1.287-0.572,3.438   c-0.574,1.91-2.007,1.957-2.96,4.296c-1.023,2.503,1.097,5.873,1.097,5.873S62.417,34.448,63.657,33.084z"/>
	<path d="M45.736,13.015c0.673,2.083-0.064,4.165-0.064,4.165s2.05-0.642,2.627-2.884c0.776-3.02-0.521-5.19-1.474-7.433   c-1.281-3.01-0.192-4.997-0.192-4.997s-4.87,0.769-3.779,5.959C43.409,10.478,45.032,10.836,45.736,13.015z"/>
	<path d="M31.923,80.148c0.12-0.074,9.136-5.986,9.389-6.176c0,0-1.528,0.32-3.12-0.381c-1.592-0.7-2.927-3.438-2.927-3.438   s2.228,1.527,3.373,1.782s2.418-0.064,2.418-0.064s-2.1-1.273-2.355-4.391c-0.256-3.142,1.528-5.349,1.528-5.349   s-0.175,2.21,0.572,4.074c0.445,1.107,1.816,2.348,2.101,2.229c0.426-0.177,0.131-3.119,0.574-5.476   c0.381-2.037,2.101-3.947,2.482-3.947s-0.445,2.676-0.064,4.202c0.382,1.527,0.638,2.773,1.019,2.802   c0.892,0.064,1.357-2.28,1.719-5.537c0.511-4.584,2.031-5.152,2.42-9.805c0.318-3.819-1.273-6.813-0.892-7.066   c0.382-0.253,2.993,3.882,3.948,7.002c0.953,3.12,1.465,7.135,1.846,7.129c0.382-0.004,2.258-1.194,3.056-3.759   c1.211-3.883,0.511-7.511,0.701-7.703c0.19-0.19,1.954,1.79,2.354,6.368c0.319,3.628-0.379,7.192-0.379,7.192   c1.591,0.572,1.717,2.546,1.508,3.259c1.421,0.498,2.832-1.036,2.708-0.603c-0.334,1.195,1.288,1.576,2.673,1.291   c1.386-0.288,2.277-3.311,2.437-3.343c0.158-0.032-0.007,3.447-0.334,4.964c-0.701,3.249-2.819,4.299-2.819,4.299   c0.008,0.016,0.271,1.886,0.527,2.482c0.315,0.216,0.73,0.504,1.05,1.338c0.328,0.858,0.478,2.244,0.319,2.801   c0.063,0.485,0.588,0.875,0.634,1.353c0.051,0.478,0.146,1.336,0.337,1.814c0.19,0.477,2.436,1.766,3.433,2.107   c0.004,0.001,0.008,0.006,0.012,0.007c1.807-1.75,3.731-4.748,4.193-8.465c0.574-4.615,0.031-5.41,0.096-9.167   c0.041-2.357,0.861-5.856,0.861-5.856s-2.771,2.609-3.438,7.862c-0.496,3.894-2.896,6.907-4.289,7.604   c3.556-5.822,3.536-12.62,2.856-16.422c-0.726-4.054-1.854-4.884-4.072-9.357c-3.091-6.24-1.925-12.589-1.925-12.589   s-1.611,2.504-2.17,4.479c-0.397,1.394-0.619,3.175-0.151,5.462c0.646,3.151,2.074,4.451,2.198,8.097   c0.123,3.646-3.153,7.291-3.153,7.291s0.983-4.249,0.777-7.905c-0.24-4.277-1.054-8.384-4.575-12.316   c-2.176-2.432-3.739-3.085-4.286-5.736c-0.929-4.512,3.44-8.192,3.359-8.355c-0.082-0.165-2.611,1.154-4.043,2.526   c-1.773,1.699-2.635,3.848-2.579,6.84c0.068,3.864,1.803,8.931,1.803,8.931s-1.986-2.659-2.909-5.872   c-0.703-2.446-0.484-5.375-0.083-6.745c0.93-3.168,4.218-7.71,4.563-12.371c0.632-8.564-3.252-11.838-3.252-11.838   s1.974,4.897-0.519,10.008c-1.273,2.618-4.387,4.817-7.305,7.688c-2.713,2.67-3.667,4.962-3.728,8.806   c-0.032,2.091,0.492,4.151,1.64,6.582c1.146,2.43,3.167,6.008,2.566,10.186c-0.354,2.471-2.676,5.271-2.676,5.271   s0.956-3.921,0.956-5.708c0-1.789-0.707-5.278-3.182-8.793c-2.819-4.005-2.853-8.192-2.853-8.192s-2.407,3.591,0.363,9.702   c1.141,2.521,1.814,5.062,1.241,8.88c-0.549,3.657-2.483,5.253-4.106,8.309c-1.38,2.599-1.414,4.366-1.367,4.994   c-0.08-0.849-0.18-3.746,1.653-7.095c1.033-1.887,1.85-3.509,1.91-5.538c0.095-3.248-1.183-5.571-1.183-5.571   s-0.369,5.735-1.598,8.194c-1.229,2.456-4.178,5.651-5.08,8.273c-0.9,2.622-1.884,5.898-1.229,9.831   C30.025,76.95,30.985,78.9,31.923,80.148z"/>
</g>
</svg>
