<?xml version="1.0" encoding="utf-8"?>
<!-- Generator: Adobe Illustrator 16.0.0, SVG Export Plug-In . SVG Version: 6.00 Build 0)  -->
<!DOCTYPE svg PUBLIC "-//W3C//DTD SVG 1.1//EN" "http://www.w3.org/Graphics/SVG/1.1/DTD/svg11.dtd">
<svg version="1.1" id="Layer_1" xmlns="http://www.w3.org/2000/svg" xmlns:xlink="http://www.w3.org/1999/xlink" x="0px" y="0px"
	 width="99.997px" height="100px" viewBox="-17.998 -18 99.997 100" enable-background="new -17.998 -18 99.997 100"
	 xml:space="preserve">
<path fill="#231F20" d="M-3.957,50.021v0.062h45.27c6.817,0,12.348-5.527,12.348-12.349c0-6.82-5.53-12.348-12.348-12.348
	c-0.705,0-1.393,0.072-2.062,0.188c-2.275-7.301-8.858-12.69-16.777-13.21v0.016c-0.415-0.03-0.831-0.067-1.255-0.067
	c-0.574,0-1.14,0.037-1.7,0.087c-0.148,0.011-0.293,0.03-0.438,0.044c-0.52,0.06-1.035,0.134-1.537,0.233
	c-0.042,0.009-0.083,0.014-0.126,0.021c-0.521,0.106-1.035,0.244-1.537,0.393c-0.167,0.051-0.333,0.101-0.493,0.153
	c-0.405,0.133-0.803,0.278-1.194,0.435c-0.16,0.063-0.317,0.126-0.473,0.193c-0.395,0.17-0.785,0.36-1.165,0.558
	c-0.2,0.105-0.398,0.212-0.594,0.322c-0.267,0.154-0.535,0.315-0.795,0.481c-0.3,0.19-0.598,0.392-0.887,0.597
	c-0.235,0.17-0.47,0.341-0.698,0.516c-0.221,0.175-0.437,0.356-0.65,0.539c-0.159,0.138-0.318,0.284-0.474,0.428
	c-0.38,0.35-0.746,0.715-1.097,1.095c-0.119,0.129-0.239,0.253-0.354,0.385c-0.207,0.237-0.405,0.479-0.598,0.725
	c-0.111,0.141-0.217,0.284-0.324,0.429c-0.315,0.424-0.613,0.862-0.895,1.314L3.646,21.02c-1.946-0.909-4.102-1.444-6.392-1.444
	c-8.424,0-15.251,6.83-15.251,15.255C-17.998,42.845-11.812,49.402-3.957,50.021z"/>
<path fill="#231F20" d="M41.711,21.685c7.719,0.189,14.092,5.858,15.397,13.255c0.919,0.1,1.845,0.164,2.778,0.164
	c3.11,0,6.268-0.55,9.342-1.712c5.446-2.056,9.799-5.745,12.771-10.285c-2.281,0.779-4.614,1.149-6.907,1.149
	c-8.821,0-17.119-5.474-20.255-14.235c-3.857-10.802,1.528-22.706,12.016-27.05c-2.302-0.637-4.7-0.97-7.133-0.97
	c-3.085,0-6.218,0.541-9.27,1.694c-11.839,4.473-18.611,16.586-16.888,28.63C37.053,14.612,39.913,17.834,41.711,21.685z"/>
<polygon fill="#231F20" points="20.968,53.783 8.147,53.783 1.562,64.301 15.833,64.301 9.008,82.001 34.047,56.754 19.197,56.711 
	"/>
</svg>
