<svg xmlns="http://www.w3.org/2000/svg" xmlns:xlink="http://www.w3.org/1999/xlink" version="1.1" x="0px" y="0px" viewBox="0 0 512 512" enable-background="new 0 0 512 512" xml:space="preserve"><g><path d="M256,0C114.844,0,0,114.844,0,256s114.844,256,256,256s256-114.844,256-256S397.156,0,256,0z M424.125,424.141   c-21.797,21.828-47.234,38.984-75.594,50.953c-29.266,12.422-60.406,18.688-92.531,18.688s-63.25-6.266-92.547-18.688   c-28.312-11.969-53.75-29.094-75.594-50.969c-21.859-21.844-39-47.266-50.953-75.594C24.5,319.25,18.234,288.125,18.234,256   c0-32.109,6.266-63.25,18.672-92.562C48.859,135.156,66,109.719,87.875,87.875c21.844-21.859,47.281-39.016,75.578-50.969   c58.594-24.766,126.5-24.766,185.094,0c28.312,11.969,53.75,29.109,75.578,50.969c21.875,21.844,39.016,47.281,50.969,75.562   C487.5,192.75,493.766,223.891,493.766,256c0,32.125-6.266,63.25-18.672,92.547C463.141,376.859,446,402.281,424.125,424.141z"></path><path d="M183.047,198.703c7.906,0,14.359-6.438,14.359-14.344s-6.453-14.344-14.359-14.344s-14.344,6.438-14.344,14.344   S175.141,198.703,183.047,198.703z"></path><path d="M328.953,170.016c-7.906,0-14.359,6.438-14.359,14.344s6.453,14.344,14.359,14.344s14.344-6.438,14.344-14.344   S336.859,170.016,328.953,170.016z"></path><path d="M329.688,338.531c-2.578,0.672-4.641,2.344-5.844,4.734l-0.719,1.281c-4.797,8.391-12.453,14.266-21.734,16.672   c-11.969,3.188-25.312-0.531-34.078-9.391l-0.922-1.25c-11.688-20.984-37-31.953-60.375-25.797   c-14.453,3.75-26.75,13.469-33.781,26.625c-1.328,2.641-1.594,4.969-1.031,7.188c1.25,4.734,6.312,7.828,11.109,6.5   c2.547-0.656,4.672-2.391,5.844-4.719l1.016-1.797c4.781-8.125,12.328-13.812,21.438-16.172c2.906-0.75,5.906-1.156,8.891-1.156   c9.375,0,18.547,3.844,25.188,10.547l0.922,1.234c9.453,17,27.406,27.562,46.844,27.562c4.531,0,9.109-0.578,13.547-1.734   c14.438-3.766,26.734-13.484,33.766-26.641c1.328-2.641,1.594-4.969,1.031-7.188C339.562,340.297,334.5,337.219,329.688,338.531z"></path></g></svg>