<svg xmlns:x="http://ns.adobe.com/Extensibility/1.0/" xmlns:i="http://ns.adobe.com/AdobeIllustrator/10.0/" xmlns:graph="http://ns.adobe.com/Graphs/1.0/" xmlns="http://www.w3.org/2000/svg" xmlns:xlink="http://www.w3.org/1999/xlink" version="1.1" x="0px" y="0px" viewBox="0 0 309.333 216" enable-background="new 0 0 309.333 216" xml:space="preserve"><switch><foreignObject requiredExtensions="http://ns.adobe.com/AdobeIllustrator/10.0/" x="0" y="0" width="1" height="1"></foreignObject><g i:extraneous="self"><g><path d="M297.371,184.205c-0.628,0-1.267-0.103-1.898-0.304l-22.526-7.172c-0.859-0.273-2.266-0.45-3.583-0.45     c-0.727,0-1.392,0.053-1.874,0.15l-26.299,5.291c-1.305,0.262-2.729,0.317-3.694,0.317c-1.717,0-3.36-0.167-4.627-0.47     l-62.924-15.053c-1.994-0.478-5.192-1.354-7.13-1.955l-49.537-15.354c-3.189-0.988-5.545-4.251-5.481-7.589l1.376-72.567     c0.007-0.356-0.31-0.694-0.665-0.71l-92.313-4.207c-3.554-0.162-6.46-3.188-6.477-6.747l-0.059-12.46     c-0.008-1.737,0.657-3.366,1.873-4.587c1.215-1.221,2.839-1.893,4.573-1.893l0.248,0.004l136.392,5.157     c1.83,0.069,5.038,0.099,7.021,0.057l127.268-2.724c1.771,0,3.45,0.732,4.606,2.009c1.157,1.278,1.721,3.025,1.546,4.792     l-1.027,10.345c-0.164,1.659,0,4.542,0.352,6.171l7.967,36.886c0.462,2.14,0.856,5.52,0.896,7.695l1.371,69.636     c0.032,1.622-0.523,3.101-1.564,4.162C300.188,183.648,298.836,184.205,297.371,184.205z M269.363,170.279     c1.972,0,3.941,0.268,5.404,0.733l21.958,6.991l-1.353-69.048c-0.034-1.789-0.384-4.785-0.764-6.543l-7.967-36.886     c-0.481-2.231-0.683-5.758-0.457-8.03l1.027-10.345c0.009-0.091-0.005-0.154-0.022-0.172c-0.013-0.014-0.06-0.037-0.159-0.037     l-127.14,2.723c-2.074,0.044-5.431,0.013-7.374-0.06L16.126,44.448c-0.001,0-0.001,0-0.002,0c-0.15,0-0.257,0.042-0.34,0.125     c-0.083,0.084-0.125,0.194-0.125,0.326l0.059,12.46c0.002,0.384,0.366,0.764,0.75,0.781l92.313,4.207     c3.593,0.164,6.46,3.222,6.391,6.818l-1.376,72.567c-0.012,0.642,0.646,1.554,1.259,1.744l49.537,15.354     c1.803,0.559,4.894,1.406,6.75,1.85l62.925,15.053c1.429,0.342,4.31,0.394,5.741,0.105l26.299-5.291     C267.19,170.369,268.22,170.279,269.363,170.279z"></path></g></g></switch></svg>