<svg fill="#000000" xmlns="http://www.w3.org/2000/svg" xmlns:xlink="http://www.w3.org/1999/xlink" version="1.1" x="0px" y="0px" viewBox="0 0 100 100" enable-background="new 0 0 100 100" xml:space="preserve"><g><path d="M91.811,30.298H50.703v23.45c-0.32,0.088-0.639,0.176-0.955,0.265c-0.809,0.228-1.609,0.449-2.441,0.659V6.4H8.977v45.592   c-0.579-0.016-1.173-0.025-1.802-0.025v2.5c6.98,0,10.374,0.949,13.967,1.954c3.597,1.006,7.316,2.046,14.639,2.046   c7.324,0,11.044-1.04,14.641-2.046c3.594-1.005,6.988-1.954,13.969-1.954s10.375,0.949,13.969,1.954   c3.598,1.006,7.317,2.046,14.642,2.046v-2.5c-0.41,0-0.806-0.004-1.19-0.01V30.298L91.811,30.298z M11.477,8.9h33.331v46.329   c-0.666,0.125-1.375,0.237-2.132,0.338V42.534H29.059v13.055c-0.657-0.083-1.273-0.177-1.859-0.28V42.534H13.583v9.76   c-0.662-0.074-1.362-0.137-2.107-0.188L11.477,8.9L11.477,8.9z M16.083,52.646v-7.612H24.7v9.748   c-0.994-0.241-1.934-0.503-2.885-0.771C20.067,53.523,18.288,53.027,16.083,52.646z M31.559,55.829V45.034h8.616v10.784   c-1.3,0.094-2.744,0.147-4.395,0.147C34.202,55.967,32.814,55.916,31.559,55.829z M53.203,32.798h36.107v23.067   c-0.73-0.043-1.414-0.1-2.061-0.165v-8.924H55.292v5.904c-0.737,0.131-1.433,0.274-2.089,0.426V32.798z M64.391,51.967   c-2.604,0-4.748,0.133-6.599,0.348v-3.038H84.75v6.091c-2.172-0.363-3.92-0.853-5.718-1.354   C75.436,53.007,71.714,51.967,64.391,51.967z"/><path d="M35.522,67.584c7.324,0,11.044-1.04,14.642-2.046c3.593-1.005,6.988-1.954,13.968-1.954s10.375,0.949,13.968,1.954   c3.599,1.006,7.317,2.046,14.643,2.046v-2.5c-6.98,0-10.375-0.949-13.969-1.954c-3.598-1.006-7.316-2.046-14.642-2.046   s-11.044,1.04-14.641,2.046c-3.594,1.005-6.988,1.954-13.969,1.954c-6.98,0-10.374-0.949-13.966-1.954   c-3.597-1.006-7.316-2.046-14.639-2.046v2.5c6.98,0,10.374,0.949,13.966,1.954C24.479,66.544,28.199,67.584,35.522,67.584z"/><path d="M64.391,69.75c-7.324,0-11.045,1.04-14.642,2.046c-3.593,1.005-6.987,1.954-13.968,1.954   c-6.98,0-10.374-0.949-13.966-1.954c-3.597-1.006-7.317-2.046-14.64-2.046v2.5c6.98,0,10.374,0.949,13.967,1.954   c3.597,1.006,7.316,2.046,14.639,2.046c7.324,0,11.044-1.04,14.641-2.046c3.594-1.005,6.988-1.954,13.969-1.954   s10.375,0.949,13.969,1.954C81.956,75.21,85.677,76.25,93,76.25v-2.5c-6.98,0-10.375-0.949-13.968-1.954   C75.436,70.79,71.714,69.75,64.391,69.75z"/><path d="M64.132,78.867c-7.323,0-11.044,1.04-14.641,2.046c-3.594,1.005-6.988,1.954-13.969,1.954   c-6.98,0-10.374-0.949-13.966-1.954c-3.597-1.006-7.316-2.046-14.639-2.046v2.5c6.98,0,10.374,0.949,13.966,1.954   c3.597,1.006,7.316,2.046,14.639,2.046c7.324,0,11.044-1.04,14.642-2.046c3.593-1.005,6.988-1.954,13.968-1.954   s10.375,0.949,13.968,1.954c3.599,1.006,7.317,2.046,14.643,2.046v-2.5c-6.98,0-10.375-0.949-13.969-1.954   C75.176,79.907,71.456,78.867,64.132,78.867z"/><path d="M64.132,86.917c-7.323,0-11.044,1.04-14.641,2.046c-3.594,1.005-6.988,1.954-13.969,1.954   c-6.98,0-10.374-0.949-13.966-1.954c-3.597-1.006-7.316-2.046-14.639-2.046v2.5c6.98,0,10.374,0.949,13.966,1.954   c3.597,1.006,7.316,2.046,14.639,2.046c7.324,0,11.044-1.04,14.642-2.046c3.593-1.005,6.988-1.954,13.968-1.954   s10.375,0.949,13.968,1.954c3.599,1.006,7.317,2.046,14.643,2.046v-2.5c-6.98,0-10.375-0.949-13.969-1.954   C75.176,87.957,71.456,86.917,64.132,86.917z"/><path d="M27.2,11.151H13.583v13.932H27.2V11.151z M24.7,22.583h-8.616v-8.932H24.7V22.583z"/><path d="M42.675,11.151H29.059v13.932h13.616V11.151z M40.175,22.583h-8.616v-8.932h8.616V22.583z"/><path d="M27.2,26.812H13.583v13.932H27.2V26.812z M24.7,38.244h-8.616v-8.932H24.7V38.244z"/><path d="M42.675,26.812H29.059v13.932h13.616V26.812z M40.175,38.244h-8.616v-8.932h8.616V38.244z"/><path d="M87.25,34.916H55.292v10.118H87.25V34.916z M84.75,42.534H57.792v-5.118H84.75V42.534z"/><path d="M62.025,10.689c-4.723,0.438-8.266,3.323-8.266,6.936c0,2.84,2.194,5.228,5.426,6.335v1.79h-3.729v2.5H71v-2.5h-3.125   v-1.97c2.482-0.988,4.259-2.766,4.764-4.905h13.928l3.123-3.549l-1.877-1.651l-2.377,2.701H72.639   c-0.711-3.012-3.949-5.299-8.111-5.686V8.25H74.75v-2.5H51.711v2.5h10.314V10.689z M65.375,25.75h-3.689v-1.227   c0.519,0.062,1.047,0.102,1.592,0.102c0.725,0,1.425-0.061,2.099-0.169L65.375,25.75L65.375,25.75z M70.293,17.625   c0,2.439-3.213,4.5-7.018,4.5c-3.803,0-7.016-2.061-7.016-4.5s3.213-4.5,7.016-4.5C67.08,13.125,70.293,15.186,70.293,17.625z"/><path d="M87.729,12.322c1.653,0,3,1.346,3,3c0,1.654-1.347,3-3,3v2.5c3.031,0,5.5-2.467,5.5-5.5c0-3.033-2.469-5.5-5.5-5.5   c-3.033,0-5.5,2.467-5.5,5.5h2.5C84.729,13.667,86.073,12.322,87.729,12.322z"/></g></svg>