<svg xmlns="http://www.w3.org/2000/svg" xmlns:xlink="http://www.w3.org/1999/xlink" version="1.1" x="0px" y="0px" viewBox="0 0 100 100" enable-background="new 0 0 100 100" xml:space="preserve"><g><path fill="none" stroke="#000000" stroke-width="2" stroke-linecap="round" stroke-linejoin="round" stroke-miterlimit="10" d="   M84.417,20c0.333,1.25-0.083,3-1.583,3.333s-6.834,1-8.001,1S70.52,23.464,70,22.125c-1.083-2.792,0.417-6.458,4.417-7.792   s7.307-1.988,10.917-0.708c5.291,1.875,7.891,9.006,8.541,14.875c0.834,7.53-1.208,15-4.125,21.083   c-3.888,8.108-7.833,9.917-7.833,9.917"></path><path fill="none" stroke="#000000" stroke-width="2" stroke-linecap="round" stroke-linejoin="round" stroke-miterlimit="10" d="   M81.509,56.917c0,0,0.575,1.416,0.408,4.583S78.833,70.834,79,72.834S80.251,78.75,79.917,80s-3.75,1.834-5.917,1.667   s-5.834-0.084-6.417-0.917s-1.332-1.917-0.666-3s1.667-2.334,1.75-3.5s-0.938-10.332-2.011-12.416"></path><path fill="none" stroke="#000000" stroke-width="2" stroke-linecap="round" stroke-linejoin="round" stroke-miterlimit="10" d="   M47.417,74.75c1.917,0.417,12.299,0.8,20.965-4.116"></path><path fill="none" stroke="#000000" stroke-width="2" stroke-linecap="round" stroke-linejoin="round" stroke-miterlimit="10" d="   M46.917,64.916c0.625,1.667,2.237,5.886-0.208,12c0,0-1.46,2.839-1.21,3.505s0.918,1.746,0.668,2.87   c-0.219,0.982-4.292,1.25-5.958,1.292s-5.333,0.292-5.667-0.208s-0.725-0.798-0.715-1.942c0.006-0.737,0.616-1.431,0.616-2.139   s-1.18-4.837-1.249-8.253s-0.152-5.542,0.473-7.125"></path><path fill="none" stroke="#000000" stroke-width="2" stroke-linecap="round" stroke-linejoin="round" stroke-miterlimit="10" d="   M81.947,23.489c3.053,1.844,3.369,6.591,3.387,8.594C85.351,34,84.167,40.5,72.834,42s-13.976,2.987-16.681,3.624   C52.297,46.531,40.667,51.834,35.75,55s-12.943,2.407-17.5,1.084C15.667,55.334,8,51,6.75,38.667   C5,51.438,6.56,57.197,12.313,63.438c4.917,5.333,15.061,9.341,20.916,9.368"></path><circle cx="80.625" cy="17.625" r="0.75"></circle><path stroke="#000000" stroke-width="2" stroke-linejoin="round" stroke-miterlimit="10" d="M66.656,79.084   c-1.239,0.125-2.728-0.632-2.823-1.208c-0.153-0.925,0.741-1.619,1.209-2.584c0.544-1.123,0.685-2.502,0.62-3.303l2.214-0.385   l0.333,1.354"></path><path stroke="#000000" stroke-width="2" stroke-miterlimit="10" d="M33.995,81.695c-5.005,0.194-4.912-1.402-4.912-1.819   s1.208-1.167,1.208-1.583s-0.25-5.487-0.25-5.487l2.489,0.476"></path></g></svg>