<svg xmlns:v="http://schemas.microsoft.com/visio/2003/SVGExtensions/" xmlns:dc="http://purl.org/dc/elements/1.1/" xmlns:cc="http://creativecommons.org/ns#" xmlns:rdf="http://www.w3.org/1999/02/22-rdf-syntax-ns#" xmlns:svg="http://www.w3.org/2000/svg" xmlns="http://www.w3.org/2000/svg" xmlns:sodipodi="http://sodipodi.sourceforge.net/DTD/sodipodi-0.dtd" xmlns:inkscape="http://www.inkscape.org/namespaces/inkscape" width="100" height="100" viewBox="0 0 80 80" xml:space="preserve" color-interpolation-filters="sRGB" class="st3" id="svg2" version="1.1" inkscape:version="0.48.2 r9819" sodipodi:docname="sunrise.svg" style="font-size:12px;fill:none;stroke-linecap:square;stroke-miterlimit:3;overflow:visible"><metadata id="metadata59"><rdf:RDF><cc:Work rdf:about=""><dc:format>image/svg+xml</dc:format><dc:type rdf:resource="http://purl.org/dc/dcmitype/StillImage"/><dc:title/></cc:Work></rdf:RDF></metadata><defs id="defs57"/><sodipodi:namedview pagecolor="#ffffff" bordercolor="#666666" borderopacity="1" objecttolerance="10" gridtolerance="10" guidetolerance="10" inkscape:pageopacity="0" inkscape:pageshadow="2" inkscape:window-width="1322" inkscape:window-height="781" id="namedview55" showgrid="true" inkscape:zoom="5.91" inkscape:cx="91.418269" inkscape:cy="47.447634" inkscape:window-x="28" inkscape:window-y="13" inkscape:window-maximized="0" inkscape:current-layer="svg2"><inkscape:grid type="xygrid" id="grid3036" empspacing="5" visible="true" enabled="true" snapvisiblegridlinesonly="true"/></sodipodi:namedview>
	<v:documentProperties v:langID="1033" v:viewMarkup="false">
		<v:userDefs>
			<v:ud v:nameU="msvNoAutoConnect" v:val="VT0(1):26"/>
		</v:userDefs>
	</v:documentProperties>

	<style type="text/css" id="style4">
	
		.st1 {stroke:#000000;stroke-linecap:round;stroke-linejoin:round;stroke-width:3}
		.st2 {fill:none;stroke:#000000;stroke-linecap:round;stroke-linejoin:round;stroke-width:3}
		.st3 {fill:none;fill-rule:evenodd;font-size:12px;overflow:visible;stroke-linecap:square;stroke-miterlimit:3}
	
	</style>

	<g v:mID="0" v:index="1" v:groupContext="foregroundPage" id="g6" transform="matrix(0.35799087,0,0,0.35799087,-37.453678,9.8072082)">
		<title id="title8">Page-1</title>
		<v:pageProperties v:drawingScale="1" v:pageScale="1" v:drawingUnits="19" v:shadowOffsetX="9" v:shadowOffsetY="-9"/>
		<g id="shape1-1" v:mID="1" v:groupContext="shape" transform="translate(108,-654.75)">
			<title id="title11">Sheet.1</title>
			<path d="m 0,792 216,0" class="st1" id="path13" inkscape:connector-curvature="0" style="stroke:#000000;stroke-width:3;stroke-linecap:round;stroke-linejoin:round"/>
		</g>
		<g id="shape11-4" v:mID="11" v:groupContext="shape" transform="matrix(0.38268343,0.92387953,-0.92387953,0.38268343,908.95,-253.721)">
			<title id="title16">Sheet.11</title>
			<path d="m -3.5596706,793.24702 c 8.3048295,0.0494 12.3844082,0.39909 27.0000026,0" class="st1" id="path18" inkscape:connector-curvature="0" style="stroke:#000000;stroke-width:3;stroke-linecap:round;stroke-linejoin:round" sodipodi:nodetypes="cc"/>
		</g>
		<g id="shape12-7" v:mID="12" v:groupContext="shape" transform="matrix(0,-1,1,0,-576,68.625)">
			<title id="title21">Sheet.12</title>
			<path d="m 32.625,792 -88,0 12,12 0,-24 -12,12" class="st1" id="path23" inkscape:connector-curvature="0" style="stroke:#000000;stroke-width:3;stroke-linecap:round;stroke-linejoin:round" sodipodi:nodetypes="cc"/>
		</g>
		<g id="shape13-10" v:mID="13" v:groupContext="shape" transform="matrix(0.70710678,-0.70710678,0.70710678,0.70710678,-287.779,-470.029)">
			<title id="title26">Sheet.13</title>
			<path d="M 0.96313088,792 27.963136,792" class="st1" id="path28" inkscape:connector-curvature="0" style="stroke:#000000;stroke-width:3;stroke-linecap:round;stroke-linejoin:round"/>
		</g>
		<g id="shape14-13" v:mID="14" v:groupContext="shape" transform="matrix(0.70710678,0.70710678,-0.70710678,0.70710678,701.779,-490.279)">
			<title id="title31">Sheet.14</title>
			<path d="m -1.0233266,791.9398 26.9999946,0" class="st1" id="path33" inkscape:connector-curvature="0" style="stroke:#000000;stroke-width:3;stroke-linecap:round;stroke-linejoin:round"/>
		</g>
		<g id="shape15-16" v:mID="15" v:groupContext="shape" transform="matrix(0.92387953,0.38268343,-0.38268343,0.92387953,424.585,-630.463)">
			<title id="title36">Sheet.15</title>
			<path d="m -2.1458927,791.04602 27.0000017,0" class="st1" id="path38" inkscape:connector-curvature="0" style="stroke:#000000;stroke-width:3;stroke-linecap:round;stroke-linejoin:round"/>
		</g>
		<g id="shape17-19" v:mID="17" v:groupContext="shape" transform="matrix(0.38268343,-0.92387953,0.92387953,0.38268343,-484.213,-228.835)">
			<title id="title41">Sheet.17</title>
			<path d="m 2.3031905,792.88882 26.9999975,0" class="st1" id="path43" inkscape:connector-curvature="0" style="stroke:#000000;stroke-width:3;stroke-linecap:round;stroke-linejoin:round"/>
		</g>
		<g id="shape18-22" v:mID="18" v:groupContext="shape" transform="matrix(0.92387953,-0.38268343,0.38268343,0.92387953,-15.0853,-616.059)">
			<title id="title46">Sheet.18</title>
			<path d="m 1.4782073,792.61229 26.9999997,0" class="st1" id="path48" inkscape:connector-curvature="0" style="stroke:#000000;stroke-width:3;stroke-linecap:round;stroke-linejoin:round"/>
		</g>
		<g id="shape4-25" v:mID="4" v:groupContext="shape" transform="translate(144.317,-654.75)">
			<title id="title51">Sheet.4</title>
			<path d="M 143.37,792 A 72,72 -180 0 0 0,792 l 143.37,0 z" class="st2" id="path53" inkscape:connector-curvature="0" style="fill:none;stroke:#000000;stroke-width:3;stroke-linecap:round;stroke-linejoin:round"/>
		</g>
	</g>
<g transform="matrix(0.35799087,0,0,0.35799087,-123.11554,9.7627712)" id="g3051" v:groupContext="foregroundPage" v:index="1" v:mID="0">
		<title id="title3053">Page-1</title>
		<v:pageProperties v:shadowOffsetY="-9" v:shadowOffsetX="9" v:drawingUnits="19" v:pageScale="1" v:drawingScale="1"/>
		<g transform="translate(108,-654.75)" v:groupContext="shape" v:mID="1" id="g3055">
			<title id="title3057">Sheet.1</title>
			
		</g>
		<g transform="matrix(0.38268343,0.92387953,-0.92387953,0.38268343,908.95,-253.721)" v:groupContext="shape" v:mID="11" id="g3061">
			<title id="title3063">Sheet.11</title>
			
		</g>
		<g transform="matrix(0,-1,1,0,-576,68.625)" v:groupContext="shape" v:mID="12" id="g3067">
			<title id="title3069">Sheet.12</title>
			
		</g>
		<g transform="matrix(0.70710678,-0.70710678,0.70710678,0.70710678,-287.779,-470.029)" v:groupContext="shape" v:mID="13" id="g3073">
			<title id="title3075">Sheet.13</title>
			
		</g>
		<g transform="matrix(0.70710678,0.70710678,-0.70710678,0.70710678,701.779,-490.279)" v:groupContext="shape" v:mID="14" id="g3079">
			<title id="title3081">Sheet.14</title>
			
		</g>
		<g transform="matrix(0.92387953,0.38268343,-0.38268343,0.92387953,424.585,-630.463)" v:groupContext="shape" v:mID="15" id="g3085">
			<title id="title3087">Sheet.15</title>
			
		</g>
		<g transform="matrix(0.38268343,-0.92387953,0.92387953,0.38268343,-484.213,-228.835)" v:groupContext="shape" v:mID="17" id="g3091">
			<title id="title3093">Sheet.17</title>
			
		</g>
		<g transform="matrix(0.92387953,-0.38268343,0.38268343,0.92387953,-15.0853,-616.059)" v:groupContext="shape" v:mID="18" id="g3097">
			<title id="title3099">Sheet.18</title>
			
		</g>
		<g transform="translate(144.317,-654.75)" v:groupContext="shape" v:mID="4" id="g3103">
			<title id="title3105">Sheet.4</title>
			<path id="path3107" style="fill:none;stroke:#000000;stroke-width:3;stroke-linecap:round;stroke-linejoin:round" d="M 143.37,792 A 72,72 -180 0 0 0,792 l 143.37,0 z m 1.91298,-21.59642 24.94474,-10.33245 M 104.88514,727.21254 115.21759,702.2678 M -24.434751,754.29703 0.50999832,764.62948 M -3.2476031,723.7334 15.844276,742.82528 m 112.769334,1.24325 19.09188,-19.09188 M 71.683,778.75 l 0,-88 -12,12 24,0 -12,-12 m -41.276911,10.55278 c 3.132481,7.69157 4.370597,11.59443 10.332454,24.94475 M -36.317,792 l 216,0" inkscape:connector-curvature="0"/>
		</g>
	</g></svg>
