<svg fill="#000000" xmlns:dc="http://purl.org/dc/elements/1.1/" xmlns:cc="http://creativecommons.org/ns#" xmlns:rdf="http://www.w3.org/1999/02/22-rdf-syntax-ns#" xmlns:svg="http://www.w3.org/2000/svg" xmlns="http://www.w3.org/2000/svg" xmlns:sodipodi="http://sodipodi.sourceforge.net/DTD/sodipodi-0.dtd" xmlns:inkscape="http://www.inkscape.org/namespaces/inkscape" version="1.1" x="0px" y="0px" viewBox="0 0 803.86798 803.93134" enable-background="new 0 0 2000 2000" xml:space="preserve"><path style="" d="m 406.24901,0 c -17.285,0 -31.258,13.9718 -31.258,31.2568 l 0,69.7664 c 0,17.285 13.973,31.2568 31.258,31.2568 17.285,0 31.256,-14.0029 31.256,-31.2568 l 0,-69.7664 C 437.50501,13.9718 423.53401,0 406.24901,0 Z m -185.25,47.4654 c -5.52,-0.1215 -11.138,1.2273 -16.264,4.2038 -14.941,8.6276 -20.069,27.7538 -11.473,42.6954 l 34.917,60.3891 c 5.783,10.0339 16.282,15.6296 27.098,15.6296 5.313,0 10.692,-1.3434 15.567,-4.1884 14.941,-8.6264 20.065,-27.7566 11.468,-42.6982 l -34.911,-60.3891 c -5.683,-9.8258 -15.861,-15.4107 -26.402,-15.6422 z m 369.374,4.3002 c -10.553,0.232 -20.731,5.8318 -26.37,15.6577 l -34.916,60.4804 c -8.689,14.9416 -3.562,34.0717 11.41,42.6979 4.938,2.8439 10.313,4.1887 15.625,4.1887 10.816,0 21.32,-5.5958 27.103,-15.6298 l 34.914,-60.4803 c 8.628,-14.9417 3.5,-34.0718 -11.47,-42.6981 -5.137,-2.9872 -10.768,-4.3382 -16.296,-4.2165 z M 82.413,181.5122 c -10.554,0.2321 -20.759,5.8318 -26.4,15.6576 -8.688,14.9092 -3.563,34.0381 11.408,42.6956 l 60.453,34.9149 c 4.875,2.8437 10.251,4.1887 15.565,4.1887 10.815,0 21.317,-5.5959 27.099,-15.6298 8.69101,-14.9092 3.564,-34.0368 -11.407,-42.6955 l -60.453,-34.915 c -5.115,-2.9871 -10.736,-4.338 -16.265,-4.2165 z m 641.95101,7.6411 c -5.038,0.1258 -10.12,1.4771 -14.8,4.1733 l -60.449,34.8185 c -14.941,8.5951 -20.067,27.7232 -11.472,42.6649 5.782,10.0326 16.283,15.6603 27.098,15.6603 5.315,0 10.693,-1.3448 15.57,-4.1886 l 60.449,-34.821 c 14.943,-8.5951 20.068,-27.7247 11.472,-42.6651 -5.91,-10.2723 -16.783,-15.9193 -27.868,-15.6423 z m -322.432,2.6704 c -115.806,0 -210.014,94.2733 -210.014,210.1114 0,115.83813 94.208,210.07583 210.014,210.07583 115.871,0 210.079,-94.2377 210.079,-210.07583 0,-115.8381 -94.208,-210.1114 -210.079,-210.1114 z m 0,62.5469 c 81.364,0 147.539,66.2022 147.565,147.5951 0,81.36143 -66.171,147.56453 -147.565,147.56453 -81.33,0 -147.498,-66.2031 -147.498,-147.56453 0,-81.3929 66.168,-147.5951 147.498,-147.5951 z M 31.26,366.3323 C 13.974,366.3323 0,380.3041 0,397.5891 0,414.8743 13.974,428.846 31.26,428.846 l 69.764,0 c 17.253,0 31.258,-13.9717 31.258,-31.2569 0,-17.285 -13.973,-31.2568 -31.258,-31.2568 l -69.764,0 z m 671.58501,8.6893 c -17.285,0 -31.256,13.9719 -31.256,31.2569 0,17.285 13.971,31.257 31.256,31.257 l 69.766,0 c 17.285,0 31.257,-13.972 31.257,-31.257 0,-17.285 -13.972,-31.2569 -31.257,-31.2569 l -69.766,0 z M 139.824,517.39763 c -5.519,-0.1288 -11.138,1.2121 -16.262,4.1884 l -60.453,34.8516 c -14.941,8.6262 -20.066,27.7239 -11.409,42.6954 5.784,10.0027 16.284,15.6298 27.098,15.6298 5.314,0 10.692,-1.3436 15.568,-4.1887 l 60.451,-34.8513 c 14.94,-8.6277 20.066,-27.7266 11.409,-42.6981 -5.682,-9.7841 -15.862,-15.3816 -26.402,-15.6271 z m 519.84601,7.5189 c -10.553,0.2318 -20.731,5.8166 -26.373,15.6425 -8.688,14.9404 -3.561,34.0692 11.41,42.6955 l 60.515,34.8844 c 4.875,2.8439 10.252,4.1887 15.566,4.1887 10.815,0 21.285,-5.5959 27.098,-15.6298 8.69,-14.9404 3.564,-34.0705 -11.408,-42.698 l -60.514,-34.8819 c -5.135,-2.9765 -10.766,-4.3226 -16.294,-4.2014 z m -412.682,104.2423 c -10.556,0.2315 -20.693,5.8164 -26.376,15.6422 l -34.789,60.3867 c -8.688,14.9416 -3.564,34.0703 11.408,42.6979 4.939,2.8438 10.315,4.1886 15.631,4.1886 10.813,0 21.284,-5.6246 27.097,-15.6273 l 34.792,-60.389 c 8.689,-14.9416 3.562,-34.0716 -11.409,-42.6979 -5.179,-2.9765 -10.823,-4.3227 -16.354,-4.2012 z m 302.314,4.2926 c -5.528,-0.1159 -11.161,1.2459 -16.307,4.2545 -14.941,8.6262 -20.066,27.7239 -11.408,42.6954 l 34.912,60.3891 c 5.782,10.0026 16.288,15.5967 27.102,15.5967 5.314,0 10.687,-1.3128 15.626,-4.219 14.878,-8.6276 20.005,-27.7264 11.348,-42.6979 l -34.916,-60.3891 c -5.639,-9.8047 -15.804,-15.4085 -26.357,-15.6297 z m -151.712,38.1997 c -17.285,0 -31.257,13.9719 -31.257,31.2568 l 0,69.7639 c 0,17.285 13.972,31.2595 31.257,31.2595 17.287,0 31.256,-13.9745 31.256,-31.2595 l 0,-69.7639 c 0,-17.2849 -13.969,-31.2568 -31.256,-31.2568 z" fill="#000000"/></svg>