<svg xmlns="http://www.w3.org/2000/svg" xmlns:xlink="http://www.w3.org/1999/xlink" version="1.1" x="0px" y="0px" viewBox="0 0 100 100" enable-background="new 0 0 100 100" xml:space="preserve"><g><path d="M36.73,83.549c0,1.054,0.367,10.295,13.097,10.295c11.004,0,13.414-7.062,13.414-9.783c0-2.257-1.468-4.145-2.763-5.811   c-1.098-1.412-2.135-2.746-2.135-4.057c0-1.298,0.917-2.983,1.726-4.471c1.101-2.023,2.051-3.77,1.069-4.855   c-0.349-0.385-0.727-0.457-0.97-0.448c-0.848,0.027-1.57,0.937-2.408,1.989c-0.69,0.868-1.55,1.949-2.184,1.949   c-1.371,0-2.533-1.256-2.865-1.653l-0.871-48.11l1.167-1.458l-0.004-1.992l-1.071-8.416l-4.275-0.641l-1.191,8.283v2.187   l1.112,1.522l-0.554,43.979c-0.253,0.375-0.882,1.11-1.534,1.11c-1.708,0-3.131-5.725-3.596-9.79l-0.081-0.71l-0.64,0.319   c-0.131,0.065-3.209,1.635-3.127,4.264c0.035,1.132,0.692,3.435,1.453,6.102c0.826,2.896,1.763,6.18,1.763,7.697   c0,2.312-1.168,4.373-2.298,6.366C37.866,79.354,36.73,81.358,36.73,83.549z M48.022,62.206l0.55-43.706l2.273,0.352l0.869,48.039   v3.587h-3.692L48.022,62.206L48.022,62.206z M47.466,16.229l-0.005-1.789l1.042-7.216l2.533,0.38l0.972,7.602v1.579l-0.879,1.099   l-2.767-0.428L47.466,16.229z M42.263,71.05c0-1.657-0.916-4.867-1.802-7.972c-0.711-2.494-1.383-4.85-1.414-5.858   c-0.043-1.365,1.175-2.423,1.95-2.957c0.375,2.77,1.62,9.905,4.493,9.905c0.606,0,1.124-0.294,1.532-0.635v7.945h5.692v-3.356   c0.676,0.59,1.676,1.236,2.862,1.236c1.116,0,2.057-1.183,2.967-2.326c0.536-0.675,1.272-1.6,1.657-1.612   c0.016-0.003,0.084-0.004,0.195,0.119c0.507,0.56-0.403,2.231-1.205,3.707c-0.908,1.669-1.848,3.396-1.848,4.948   c0,1.654,1.14,3.119,2.346,4.67c1.254,1.614,2.552,3.283,2.552,5.197c0,2.443-2.23,8.783-12.414,8.783   c-11.757,0-12.097-8.344-12.097-9.295c0-1.927,1.022-3.731,2.104-5.64C41.028,75.803,42.263,73.625,42.263,71.05z"></path><path d="M45.557,11.384h0.153c0.553,0,1.002-0.45,1.002-1.002V9.168c0-0.552-0.449-1.002-1.002-1.002h-0.153   c-0.553,0-1.002,0.45-1.002,1.002v1.213C44.555,10.934,45.004,11.384,45.557,11.384z M45.557,9.167l0.155,0.002l-0.003,1.215   l-0.154-0.002L45.557,9.167z"></path><path d="M44.979,16.236h0.152c0.553,0,1.002-0.45,1.002-1.002v-1.502c0-0.552-0.449-1.002-1.002-1.002h-0.152   c-0.553,0-1.002,0.45-1.002,1.002v1.502C43.977,15.786,44.426,16.236,44.979,16.236z M44.979,13.729l0.154,0.002v1.502   c0,0-0.001,0.002-0.002,0.002l-0.154-0.002L44.979,13.729z"></path><path d="M53.939,13.228h0.152c0.553,0,1.002-0.45,1.002-1.002v-1.213c0-0.552-0.449-1.002-1.002-1.002h-0.152   c-0.553,0-1.002,0.45-1.002,1.002v1.213C52.938,12.778,53.387,13.228,53.939,13.228z M53.939,11.01l0.154,0.002v1.213   c0,0-0.001,0.002-0.002,0.002l-0.154-0.002L53.939,11.01z"></path><path d="M54.325,14.573c-0.553,0-1.002,0.45-1.002,1.002v1.502c0,0.552,0.449,1.002,1.002,1.002h0.152   c0.553,0,1.002-0.45,1.002-1.002v-1.502c0-0.552-0.449-1.002-1.002-1.002H54.325z M54.479,17.077c0,0-0.001,0.002-0.002,0.002   l-0.154-0.002l0.002-1.504l0.154,0.002V17.077z"></path><path d="M47.066,83.137H52.3c0.876,0,1.588-0.712,1.588-1.588v-1.042c0-0.875-0.712-1.588-1.588-1.588h-5.233   c-0.876,0-1.588,0.712-1.588,1.588v1.042C45.479,82.425,46.19,83.137,47.066,83.137z M46.479,80.507   c0-0.324,0.264-0.588,0.588-0.588H52.3c0.324,0,0.588,0.264,0.588,0.588v1.042c0,0.324-0.264,0.588-0.588,0.588h-5.233   c-0.324,0-0.588-0.264-0.588-0.588V80.507z"></path><path d="M51.524,87.638h-3.683c-0.876,0-1.588,0.712-1.588,1.588v0.369c0,0.875,0.712,1.588,1.588,1.588h3.683   c0.876,0,1.588-0.712,1.588-1.588v-0.369C53.112,88.35,52.4,87.638,51.524,87.638z M52.112,89.594c0,0.324-0.264,0.588-0.588,0.588   h-3.683c-0.324,0-0.588-0.264-0.588-0.588v-0.369c0-0.324,0.264-0.588,0.588-0.588h3.683c0.324,0,0.588,0.264,0.588,0.588V89.594z"></path><path d="M58.897,84.989c0.673,0,1.221-0.547,1.221-1.22s-0.548-1.22-1.221-1.22s-1.22,0.547-1.22,1.22S58.225,84.989,58.897,84.989   z M58.897,83.549c0.122,0,0.221,0.099,0.221,0.22c0,0.242-0.44,0.244-0.44,0C58.678,83.647,58.776,83.549,58.897,83.549z"></path><path d="M58.673,88.395c0.673,0,1.221-0.547,1.221-1.22c0-0.673-0.548-1.221-1.221-1.221s-1.22,0.547-1.22,1.221   C57.453,87.847,58,88.395,58.673,88.395z M58.673,86.954c0.122,0,0.221,0.099,0.221,0.221c0,0.242-0.44,0.244-0.44,0   C58.453,87.053,58.552,86.954,58.673,86.954z"></path></g></svg>