<svg xmlns="http://www.w3.org/2000/svg" xmlns:xlink="http://www.w3.org/1999/xlink" version="1.0" x="0px" y="0px" viewBox="0 0 100 100" enable-background="new 0 0 100 100" xml:space="preserve"><path fill="none" stroke="#000000" stroke-width="2" stroke-linecap="round" stroke-linejoin="round" stroke-miterlimit="10" d="  M20.001,58.125c0-2.762,2.24-5.001,4.999-5.001h50.001c2.76,0,4.998,2.239,4.998,5.001H20.001z"></path><path fill="none" stroke="#000000" stroke-width="2" stroke-linecap="round" stroke-linejoin="round" stroke-miterlimit="10" d="  M82.497,20.625c4.144,0,7.503,3.357,7.503,7.5v22.499c0,4.143-3.359,7.5-7.503,7.5H17.5c-4.141,0-7.5-3.357-7.5-7.5V28.126  c0-4.144,3.359-7.5,7.5-7.5H82.497z"></path><path fill="none" stroke="#000000" stroke-width="2" stroke-linecap="round" stroke-linejoin="round" stroke-miterlimit="10" d="  M25,29.374h50.001H25z"></path><path fill="none" stroke="#000000" stroke-width="2" stroke-linecap="round" stroke-linejoin="round" stroke-miterlimit="10" d="  M25,36.874h50.001H25z"></path><path fill="none" stroke="#000000" stroke-width="2" stroke-linecap="round" stroke-linejoin="round" stroke-miterlimit="10" d="  M25,44.375h50.001H25z"></path><path fill="none" stroke="#000000" stroke-width="2" stroke-linecap="round" stroke-linejoin="round" stroke-miterlimit="10" d="  M26.553,64.374C25.596,65.333,25,66.659,25,68.123c0,1.466,0.593,2.79,1.554,3.75c0.962,0.959,1.554,2.284,1.554,3.75  c0,1.464-0.592,2.792-1.554,3.752c0.962-0.96,1.554-2.288,1.554-3.752c0-1.466-0.592-2.791-1.554-3.75  C25.592,70.913,25,69.589,25,68.123C25,66.659,25.596,65.333,26.553,64.374z"></path><path fill="none" stroke="#000000" stroke-width="2" stroke-linecap="round" stroke-linejoin="round" stroke-miterlimit="10" d="  M36.555,64.374c-0.962,0.959-1.554,2.285-1.554,3.749c0,1.466,0.592,2.79,1.554,3.75c0.961,0.959,1.554,2.284,1.554,3.75  c0,1.464-0.597,2.792-1.554,3.752c0.957-0.96,1.554-2.288,1.554-3.752c0-1.466-0.593-2.791-1.554-3.75  c-0.962-0.96-1.554-2.284-1.554-3.75C35.001,66.659,35.593,65.333,36.555,64.374z"></path><path fill="none" stroke="#000000" stroke-width="2" stroke-linecap="round" stroke-linejoin="round" stroke-miterlimit="10" d="  M46.551,64.374c-0.957,0.959-1.554,2.285-1.554,3.749c0,1.466,0.597,2.79,1.554,3.75c0.962,0.959,1.558,2.284,1.558,3.75  c0,1.464-0.596,2.792-1.558,3.752c0.962-0.96,1.558-2.288,1.558-3.752c0-1.466-0.596-2.791-1.558-3.75  c-0.957-0.96-1.554-2.284-1.554-3.75C44.998,66.659,45.594,65.333,46.551,64.374z"></path><path fill="none" stroke="#000000" stroke-width="2" stroke-linecap="round" stroke-linejoin="round" stroke-miterlimit="10" d="  M56.553,64.374C55.596,65.333,55,66.659,55,68.123c0,1.466,0.592,2.79,1.553,3.75c0.961,0.959,1.555,2.284,1.555,3.75  c0,1.464-0.594,2.792-1.555,3.752c0.961-0.96,1.555-2.288,1.555-3.752c0-1.466-0.594-2.791-1.555-3.75  C55.592,70.913,55,69.589,55,68.123C55,66.659,55.596,65.333,56.553,64.374z"></path><path fill="none" stroke="#000000" stroke-width="2" stroke-linecap="round" stroke-linejoin="round" stroke-miterlimit="10" d="  M69.585,65.624v12.5V65.624z"></path><path fill="none" stroke="#000000" stroke-width="2" stroke-linecap="round" stroke-linejoin="round" stroke-miterlimit="10" d="  M64.173,74.998l10.828-6.25L64.173,74.998z"></path><path fill="none" stroke="#000000" stroke-width="2" stroke-linecap="round" stroke-linejoin="round" stroke-miterlimit="10" d="  M75.001,74.998l-10.828-6.25L75.001,74.998z"></path></svg>