<svg xmlns="http://www.w3.org/2000/svg" xmlns:xlink="http://www.w3.org/1999/xlink" version="1.1" x="0px" y="0px" width="100px" height="100px" viewBox="0 0 100 100" enable-background="new 0 0 100 100" xml:space="preserve">
<g id="Captions">
</g>
<g id="Your_Icon">
	<path d="M91.897,47.963c4.395-10.339,7.497-28.39,7.755-32.008c0,0-29.882-2.305-41.692,8.034   c-7.076,6.193-9.728,17.589-10.719,25.725c-0.788-7.273-2.483-16.141-6.105-17.681c-6.303-2.679-17.333-4.567-19.539-4.725   c0,0-0.933,11.988,2.08,20.358c-1.892-2.418-3.879-4.255-5.524-4.201c-4.73,0.158-12.193,2.101-13.622,2.645   c0,0,2.438,6.89,6.168,10.89H3v11h6.551l1.459,7.34c2.274,2.996,4.957,4.313,7.52,5.762c14.722,8.322,41.268,7.24,59.231,0.452   c2.822-1.067,8.389-3.628,8.389-6.199L87.973,68H95V57H69.767C79.845,56,89.846,52.791,91.897,47.963z M66.606,25.637   c16.236-9.55,30.916-4.544,30.916-4.544c-7.944,43.048-37.938,35.44-45.756,32.666c5.256-6.274,17.498-19.034,31.86-21.478   c0,0-12.243,0.881-21.712,7.496c-5.856,4.092-9.399,9.803-11.252,13.568c-0.499-0.199-0.769-0.322-0.769-0.322   S50.369,35.188,66.606,25.637z M24.703,28.61c26.243,4.842,21.606,23.127,19.914,27.894C40.793,53.3,33.014,45.836,31.524,37.081   c0,0,0.536,7.379,4.568,13.151C38.583,53.796,42.057,56,44.352,57h-3.367c-3.669-1-9.681-3.118-13.511-9.628   C21.651,37.474,24.703,28.61,24.703,28.61z M33.298,57h-3.688c-0.427-1-1.001-1.867-1.678-3.04C29.482,55.253,31.342,56,33.298,57z    M14.082,57.023C7.55,52.517,6.855,46.062,6.855,46.062c10.161-2.623,15.32,0.417,17.943,4.146   c0.276,0.521,0.575,0.938,0.897,1.401C26.773,53.667,27.213,56,27.389,57h-1.971c-3.637-1-8.942-3.485-11.82-7.658   c0,0,2.511,4.479,6.719,6.922C20.852,56.574,21.395,57,21.937,57h-7.755C14.148,57,14.115,57.046,14.082,57.023z"/>
</g>
</svg>
