<svg xmlns="http://www.w3.org/2000/svg" xmlns:xlink="http://www.w3.org/1999/xlink" version="1.1" x="0px" y="0px" width="100px" height="100px" viewBox="0 0 100 100" enable-background="new 0 0 100 100" xml:space="preserve">
<g id="Captions">
</g>
<g id="Your_Icon">
	<g>
		<g>
			<path d="M48.516,47.61c-0.55,0-1.07-0.329-1.289-0.872L35.651,17.917c-0.286-0.711,0.059-1.52,0.771-1.805     c0.71-0.284,1.519,0.06,1.805,0.77l11.577,28.823c0.285,0.712-0.061,1.52-0.771,1.806C48.862,47.577,48.688,47.61,48.516,47.61z"/>
		</g>
		<g>
			<g>
				<path d="M37.006,19.176c-0.188,0-0.374-0.038-0.548-0.113l-15.177-6.519c-0.703-0.301-1.029-1.117-0.728-1.821      c0.302-0.704,1.117-1.029,1.82-0.729l13.913,5.939l5.94-13.914c0.302-0.705,1.116-1.032,1.821-0.732      c0.705,0.301,1.03,1.117,0.73,1.82l-6.36,14.903c-0.019,0.103-0.049,0.204-0.091,0.303c-0.152,0.359-0.44,0.621-0.779,0.751      c-0.01,0.004-0.019,0.007-0.028,0.011C37.355,19.143,37.182,19.176,37.006,19.176z"/>
			</g>
		</g>
		<g>
			<g>
				<path d="M41.465,30.17c-0.187,0-0.373-0.038-0.548-0.114l-11.899-5.109c-0.704-0.303-1.031-1.117-0.729-1.822      c0.303-0.704,1.118-1.029,1.821-0.729l10.634,4.54L45.284,16.3c0.301-0.704,1.115-1.032,1.82-0.73      c0.705,0.3,1.031,1.116,0.731,1.82L42.86,29.045c-0.019,0.089-0.045,0.179-0.083,0.268c-0.152,0.358-0.441,0.621-0.779,0.75      c-0.006,0.002-0.013,0.006-0.018,0.008C41.814,30.136,41.64,30.17,41.465,30.17z"/>
			</g>
		</g>
		<g>
			<g>
				<path d="M46.084,41.582c-0.187,0-0.373-0.037-0.548-0.112l-9.655-4.146c-0.703-0.302-1.029-1.117-0.728-1.821      c0.303-0.704,1.116-1.03,1.82-0.73l8.388,3.582l3.58-8.389c0.301-0.704,1.118-1.031,1.821-0.73      c0.704,0.3,1.031,1.115,0.732,1.82l-4.029,9.436c-0.018,0.08-0.044,0.159-0.076,0.236c-0.152,0.355-0.435,0.616-0.767,0.748      c-0.008,0.002-0.016,0.005-0.024,0.009C46.435,41.549,46.259,41.582,46.084,41.582z"/>
			</g>
		</g>
		<g>
			<path d="M62.874,83.987c-0.551,0-1.07-0.328-1.288-0.87L50.009,54.294c-0.285-0.71,0.059-1.518,0.771-1.804     c0.711-0.285,1.52,0.059,1.805,0.77l11.577,28.822c0.284,0.712-0.059,1.519-0.771,1.805     C63.221,83.956,63.046,83.987,62.874,83.987z"/>
		</g>
		<g>
			<g>
				<path d="M56.308,98.824c-0.182,0-0.367-0.035-0.545-0.113c-0.705-0.299-1.031-1.115-0.731-1.818l6.361-14.905      c0.019-0.104,0.048-0.203,0.091-0.303c0.151-0.354,0.433-0.614,0.766-0.744c0.015-0.008,0.028-0.013,0.041-0.019      c0.343-0.135,0.724-0.131,1.063,0.013l15.178,6.52c0.703,0.302,1.028,1.118,0.727,1.821c-0.3,0.705-1.117,1.031-1.819,0.73      l-13.915-5.941l-5.939,13.915C57.359,98.508,56.847,98.824,56.308,98.824z"/>
			</g>
		</g>
		<g>
			<g>
				<path d="M53.251,84.542c-0.182,0-0.366-0.035-0.543-0.111c-0.705-0.302-1.032-1.116-0.731-1.821l4.975-11.655      c0.018-0.091,0.045-0.18,0.085-0.267c0.148-0.355,0.43-0.612,0.762-0.745c0.011-0.005,0.022-0.009,0.034-0.014      c0.342-0.137,0.725-0.133,1.062,0.014l11.9,5.11c0.702,0.302,1.029,1.118,0.729,1.821c-0.303,0.705-1.117,1.031-1.822,0.729      l-10.633-4.54l-4.541,10.635C54.303,84.227,53.791,84.542,53.251,84.542z"/>
			</g>
		</g>
		<g>
			<g>
				<path d="M49.594,70.878c-0.183,0-0.367-0.035-0.545-0.112c-0.705-0.3-1.031-1.116-0.732-1.819l4.029-9.436      c0.018-0.08,0.043-0.16,0.076-0.238c0.152-0.354,0.435-0.614,0.767-0.745c0.007-0.004,0.016-0.006,0.023-0.011      c0.341-0.137,0.725-0.133,1.063,0.014l9.655,4.146c0.702,0.303,1.029,1.117,0.729,1.819c-0.302,0.706-1.115,1.032-1.82,0.73      l-8.389-3.58l-3.581,8.389C50.646,70.562,50.131,70.878,49.594,70.878z"/>
			</g>
		</g>
		<g>
			<path d="M35.537,83.715c-0.18,0-0.365-0.038-0.543-0.114c-0.705-0.301-1.032-1.114-0.732-1.82l12.194-28.565     c0.302-0.705,1.117-1.032,1.821-0.731c0.705,0.3,1.032,1.116,0.732,1.819L36.815,82.869     C36.589,83.397,36.076,83.715,35.537,83.715z"/>
		</g>
		<g>
			<g>
				<path d="M41.888,98.731c-0.549,0-1.069-0.328-1.288-0.87l-5.637-14.04l-14.04,5.641c-0.712,0.284-1.52-0.061-1.806-0.77      c-0.284-0.713,0.06-1.52,0.771-1.806l15.034-6.04c0.087-0.058,0.18-0.111,0.281-0.151c0.364-0.146,0.756-0.126,1.087,0.024      c0.008,0.002,0.015,0.005,0.022,0.009c0.337,0.145,0.604,0.418,0.741,0.761l6.122,15.341c0.285,0.71-0.062,1.518-0.772,1.801      C42.235,98.7,42.061,98.731,41.888,98.731z"/>
			</g>
		</g>
		<g>
			<g>
				<path d="M45.188,84.493c-0.55,0-1.07-0.331-1.288-0.871l-4.309-10.729l-10.731,4.31c-0.71,0.283-1.519-0.06-1.805-0.772      c-0.285-0.709,0.061-1.517,0.771-1.803l11.76-4.725c0.076-0.049,0.161-0.093,0.247-0.129c0.365-0.146,0.758-0.126,1.091,0.024      c0.004,0,0.007,0.003,0.009,0.003c0.34,0.146,0.605,0.419,0.744,0.763l4.801,12.026c0.283,0.712-0.062,1.518-0.774,1.804      C45.533,84.459,45.359,84.493,45.188,84.493z"/>
			</g>
		</g>
		<g>
			<g>
				<path d="M49.085,70.887c-0.549,0-1.069-0.327-1.288-0.869l-3.399-8.465l-8.463,3.401c-0.711,0.286-1.518-0.061-1.803-0.772      c-0.286-0.71,0.058-1.519,0.77-1.803l9.522-3.825c0.066-0.044,0.142-0.081,0.221-0.112c0.354-0.143,0.733-0.129,1.059,0.01      c0.011,0.005,0.021,0.009,0.032,0.015c0.34,0.144,0.607,0.417,0.742,0.76l3.896,9.758c0.285,0.713-0.062,1.52-0.772,1.804      C49.432,70.856,49.258,70.887,49.085,70.887z"/>
			</g>
		</g>
		<g>
			<path d="M51.378,47.877c-0.182,0-0.366-0.037-0.544-0.112c-0.706-0.301-1.031-1.116-0.731-1.821l12.194-28.566     c0.301-0.705,1.116-1.031,1.82-0.731c0.705,0.301,1.033,1.116,0.731,1.82L52.655,47.035     C52.429,47.561,51.917,47.877,51.378,47.877z"/>
		</g>
		<g>
			<g>
				<path d="M63.124,19.612c-0.194,0-0.383-0.04-0.559-0.116c-0.012-0.005-0.024-0.01-0.036-0.015      c-0.339-0.145-0.606-0.419-0.743-0.761L55.664,3.379c-0.284-0.711,0.062-1.519,0.773-1.803c0.712-0.283,1.517,0.061,1.803,0.771      l5.639,14.04l14.04-5.64c0.711-0.285,1.52,0.061,1.805,0.771c0.286,0.711-0.059,1.518-0.771,1.804l-15.035,6.04      c-0.085,0.06-0.178,0.11-0.277,0.15C63.47,19.581,63.295,19.612,63.124,19.612z"/>
			</g>
		</g>
		<g>
			<g>
				<path d="M58.762,30.576c-0.191,0-0.379-0.04-0.551-0.114c-0.011-0.004-0.021-0.009-0.033-0.013      c-0.339-0.145-0.604-0.419-0.742-0.761l-4.8-12.029c-0.284-0.71,0.062-1.518,0.773-1.802c0.709-0.283,1.519,0.06,1.802,0.771      l4.311,10.731l10.729-4.31c0.713-0.288,1.52,0.06,1.806,0.77c0.285,0.711-0.06,1.519-0.771,1.805l-11.76,4.724      c-0.075,0.05-0.16,0.094-0.248,0.129C59.109,30.544,58.935,30.576,58.762,30.576z"/>
			</g>
		</g>
		<g>
			<g>
				<path d="M53.951,41.908c-0.189,0-0.373-0.038-0.542-0.111c-0.011-0.004-0.022-0.008-0.034-0.013      c-0.339-0.145-0.605-0.418-0.741-0.761l-3.896-9.758c-0.283-0.711,0.062-1.519,0.773-1.803c0.71-0.283,1.519,0.061,1.804,0.771      l3.398,8.463l8.463-3.4c0.713-0.286,1.519,0.06,1.805,0.77c0.286,0.711-0.06,1.52-0.771,1.805l-9.521,3.825      c-0.069,0.043-0.142,0.082-0.222,0.113C54.298,41.876,54.123,41.908,53.951,41.908z"/>
			</g>
		</g>
		<g>
			<path d="M46.562,49.943c-0.182,0-0.366-0.035-0.545-0.11L17.452,37.639c-0.705-0.301-1.031-1.116-0.731-1.821     c0.301-0.705,1.116-1.032,1.821-0.73l28.566,12.194c0.704,0.301,1.032,1.116,0.73,1.82     C47.614,49.629,47.103,49.943,46.562,49.943z"/>
		</g>
		<g>
			<g>
				<path d="M2.979,44.1c-0.551,0-1.071-0.331-1.288-0.873c-0.284-0.71,0.061-1.518,0.771-1.802l14.039-5.64l-5.64-14.039      c-0.285-0.711,0.058-1.519,0.77-1.805c0.713-0.287,1.52,0.06,1.806,0.77l6.038,15.035c0.061,0.085,0.111,0.178,0.152,0.278      c0.146,0.366,0.127,0.756-0.023,1.089c-0.004,0.007-0.007,0.014-0.009,0.021c-0.145,0.339-0.419,0.606-0.762,0.742L3.492,44      C3.324,44.068,3.149,44.1,2.979,44.1z"/>
			</g>
		</g>
		<g>
			<g>
				<path d="M17.218,47.399c-0.55,0-1.072-0.331-1.288-0.872c-0.284-0.712,0.061-1.52,0.771-1.804l10.729-4.31l-4.31-10.73      c-0.286-0.711,0.061-1.519,0.77-1.805c0.712-0.284,1.52,0.06,1.806,0.771l4.725,11.76c0.049,0.077,0.094,0.16,0.129,0.248      c0.148,0.367,0.126,0.76-0.024,1.093c-0.002,0.002-0.003,0.003-0.003,0.006c-0.146,0.338-0.42,0.605-0.762,0.742L17.733,47.3      C17.563,47.366,17.389,47.399,17.218,47.399z"/>
			</g>
		</g>
		<g>
			<g>
				<path d="M30.823,51.297c-0.551,0-1.071-0.33-1.288-0.872c-0.285-0.711,0.06-1.519,0.771-1.803l8.462-3.401l-3.399-8.462      c-0.285-0.711,0.06-1.519,0.77-1.804c0.713-0.287,1.52,0.06,1.806,0.771l3.825,9.521c0.043,0.069,0.081,0.143,0.112,0.222      c0.14,0.353,0.128,0.73-0.009,1.055c-0.005,0.012-0.009,0.025-0.016,0.036c-0.145,0.339-0.419,0.607-0.761,0.743l-9.76,3.896      C31.169,51.266,30.995,51.297,30.823,51.297z"/>
			</g>
		</g>
		<g>
			<path d="M82.438,65.515c-0.182,0-0.367-0.036-0.545-0.112L53.328,53.209c-0.705-0.302-1.033-1.116-0.731-1.821     c0.301-0.705,1.117-1.031,1.82-0.731l28.567,12.194c0.705,0.302,1.031,1.116,0.73,1.821C83.491,65.2,82.978,65.515,82.438,65.515     z"/>
		</g>
		<g>
			<g>
				<path d="M88.287,80.648c-0.549,0-1.07-0.33-1.288-0.871l-6.038-15.036c-0.061-0.085-0.111-0.178-0.151-0.277      c-0.145-0.362-0.128-0.748,0.018-1.078c0.004-0.01,0.01-0.022,0.013-0.034c0.147-0.336,0.42-0.604,0.762-0.742l15.341-6.12      c0.712-0.285,1.519,0.062,1.803,0.771c0.285,0.713-0.061,1.518-0.771,1.804l-14.04,5.639l5.64,14.041      c0.286,0.709-0.061,1.517-0.771,1.803C88.635,80.615,88.459,80.648,88.287,80.648z"/>
			</g>
		</g>
		<g>
			<g>
				<path d="M76.028,72.71c-0.551,0-1.069-0.328-1.288-0.871l-4.725-11.758c-0.05-0.078-0.093-0.16-0.129-0.249      c-0.143-0.355-0.128-0.736,0.013-1.063c0.005-0.013,0.009-0.023,0.015-0.036c0.145-0.34,0.419-0.606,0.762-0.742l12.028-4.801      c0.712-0.282,1.518,0.062,1.803,0.773c0.284,0.71-0.062,1.518-0.771,1.804l-10.731,4.31l4.311,10.729      c0.285,0.713-0.059,1.52-0.77,1.806C76.376,72.677,76.201,72.71,76.028,72.71z"/>
			</g>
		</g>
		<g>
			<g>
				<path d="M63.779,65.635c-0.55,0-1.07-0.328-1.287-0.872l-3.826-9.521c-0.044-0.068-0.08-0.143-0.112-0.22      c-0.143-0.356-0.128-0.738,0.014-1.063c0.003-0.009,0.007-0.019,0.011-0.029c0.145-0.339,0.419-0.605,0.762-0.743l9.758-3.895      c0.712-0.284,1.519,0.062,1.803,0.771c0.284,0.712-0.061,1.519-0.771,1.805l-8.462,3.397l3.399,8.464      c0.287,0.712-0.059,1.52-0.77,1.806C64.127,65.604,63.951,65.635,63.779,65.635z"/>
			</g>
		</g>
		<g>
			<path d="M17.379,64.267c-0.551,0-1.069-0.331-1.287-0.872c-0.285-0.712,0.06-1.52,0.771-1.806l28.822-11.576     c0.709-0.284,1.519,0.06,1.805,0.771c0.285,0.711-0.061,1.518-0.77,1.804L17.896,64.164     C17.727,64.232,17.552,64.267,17.379,64.267z"/>
		</g>
		<g>
			<g>
				<path d="M11.249,79.373c-0.183,0-0.368-0.034-0.546-0.11C10,78.961,9.672,78.145,9.974,77.441l0.001-0.002l5.939-13.912      L1.998,57.588c-0.705-0.3-1.032-1.116-0.73-1.82c0.299-0.705,1.116-1.031,1.819-0.731l14.902,6.36      c0.103,0.019,0.205,0.048,0.304,0.092c0.359,0.153,0.622,0.441,0.752,0.781c0.005,0.008,0.008,0.017,0.01,0.024      c0.138,0.343,0.133,0.726-0.012,1.062l-6.519,15.176C12.299,79.059,11.787,79.373,11.249,79.373z"/>
			</g>
		</g>
		<g>
			<g>
				<path d="M23.649,71.639c-0.182,0-0.367-0.035-0.545-0.112c-0.703-0.302-1.03-1.116-0.73-1.819l4.541-10.636L16.28,54.532      c-0.707-0.301-1.032-1.117-0.732-1.821c0.301-0.705,1.117-1.03,1.821-0.731l11.656,4.976c0.089,0.018,0.179,0.047,0.266,0.084      c0.361,0.153,0.623,0.444,0.752,0.783c0.003,0.004,0.004,0.009,0.006,0.013c0.136,0.343,0.132,0.724-0.012,1.062l-5.111,11.9      C24.701,71.324,24.188,71.639,23.649,71.639z"/>
			</g>
		</g>
		<g>
			<g>
				<path d="M36.027,64.776c-0.183,0-0.367-0.037-0.545-0.113c-0.706-0.302-1.032-1.118-0.731-1.821l3.58-8.389l-8.388-3.58      c-0.704-0.3-1.032-1.116-0.73-1.82c0.3-0.704,1.116-1.03,1.819-0.733l9.438,4.029c0.078,0.02,0.158,0.044,0.237,0.077      c0.35,0.149,0.608,0.428,0.741,0.757c0.004,0.011,0.009,0.021,0.015,0.033c0.136,0.341,0.131,0.725-0.015,1.062l-4.146,9.658      C37.077,64.462,36.564,64.776,36.027,64.776z"/>
			</g>
		</g>
		<g>
			<path d="M53.757,49.906c-0.549,0-1.071-0.328-1.287-0.87c-0.286-0.712,0.058-1.519,0.77-1.805l28.822-11.576     c0.712-0.284,1.519,0.06,1.805,0.771s-0.06,1.519-0.771,1.805L54.273,49.806C54.104,49.875,53.928,49.906,53.757,49.906z"/>
		</g>
		<g>
			<g>
				<path d="M97.414,44.895c-0.182,0-0.366-0.035-0.544-0.111l-14.902-6.361c-0.102-0.019-0.204-0.049-0.304-0.091      c-0.36-0.154-0.623-0.442-0.752-0.782c-0.003-0.008-0.007-0.017-0.01-0.025c-0.138-0.342-0.132-0.725,0.013-1.063l6.519-15.177      c0.302-0.703,1.118-1.028,1.82-0.728c0.704,0.301,1.031,1.116,0.73,1.82l-5.939,13.915l13.914,5.939      c0.705,0.302,1.033,1.117,0.731,1.821C98.466,44.581,97.953,44.895,97.414,44.895z"/>
			</g>
		</g>
		<g>
			<g>
				<path d="M83.133,47.952c-0.183,0-0.366-0.035-0.543-0.112l-11.657-4.974c-0.09-0.02-0.179-0.046-0.266-0.084      c-0.353-0.151-0.61-0.429-0.743-0.759c-0.005-0.012-0.01-0.024-0.017-0.038c-0.137-0.343-0.131-0.725,0.015-1.063l5.11-11.9      c0.303-0.705,1.119-1.029,1.82-0.729c0.705,0.302,1.032,1.117,0.731,1.82l-4.54,10.635l10.635,4.541      c0.705,0.299,1.032,1.115,0.731,1.821C84.185,47.635,83.672,47.952,83.133,47.952z"/>
			</g>
		</g>
		<g>
			<g>
				<path d="M69.469,51.609c-0.182,0-0.366-0.035-0.544-0.11l-9.438-4.029c-0.078-0.019-0.157-0.044-0.235-0.077      c-0.352-0.15-0.609-0.429-0.742-0.759c-0.004-0.01-0.01-0.02-0.013-0.031c-0.136-0.341-0.132-0.723,0.013-1.062l4.147-9.654      c0.302-0.705,1.116-1.03,1.82-0.729c0.704,0.301,1.03,1.116,0.729,1.82l-3.579,8.388l8.388,3.58      c0.705,0.301,1.033,1.116,0.731,1.822C70.521,51.294,70.009,51.609,69.469,51.609z"/>
			</g>
		</g>
	</g>
</g>
</svg>
