<svg fill="#000000" xmlns="http://www.w3.org/2000/svg" viewBox="0 0 48 48" x="0px" y="0px"><title>Icon Set Ezgi</title><rect y="44" width="48" height="4"/><path d="M7,40H41V38h0V16h0V14H7v2H7V38H7v2Zm10-2V32h6v6H17Zm22-8H33V24h6v6Zm-8,0H25V24h6v6Zm-8,0H17V24h6v6Zm2,8V32h6v6H25Zm8,0V32h6v6H33Zm6-22v6H33V16h6Zm-8,0v6H25V16h6Zm-8,0v6H17V16h6ZM9,16h6v6H9v2h6v6H9v2h6v6H9V16Z"/><rect x="11" y="18" width="2" height="2"/><rect x="19" y="18" width="2" height="2"/><rect x="27" y="18" width="2" height="2"/><rect x="35" y="18" width="2" height="2"/><rect x="11" y="26" width="2" height="2"/><rect x="19" y="26" width="2" height="2"/><rect x="27" y="26" width="2" height="2"/><rect x="35" y="26" width="2" height="2"/><rect x="11" y="34" width="2" height="2"/><rect x="19" y="34" width="2" height="2"/><rect x="27" y="34" width="2" height="2"/><rect x="35" y="34" width="2" height="2"/></svg>