<?xml version="1.0" encoding="utf-8"?><!DOCTYPE svg PUBLIC "-//W3C//DTD SVG 1.1//EN" "http://www.w3.org/Graphics/SVG/1.1/DTD/svg11.dtd"><svg version="1.1" xmlns="http://www.w3.org/2000/svg" xmlns:xlink="http://www.w3.org/1999/xlink" x="0px" y="0px" viewBox="0 6.343 100 87.313" enable-background="new 0 6.343 100 87.313" xml:space="preserve"><path d="M97.187,50.804l-9.639-3.476c0.394-1.245,0.541-2.442,0.541-3.532c0-20.652-16.8-37.453-37.45-37.453
	c-20.652,0-37.454,16.8-37.454,37.453c0,0.967,0.125,2.019,0.424,3.113L2.813,50.802C1.125,51.41,0,53.012,0,54.807
	c0,1.796,1.125,3.396,2.813,4.007l5.886,2.123c-0.023,0.328-0.038,0.649-0.038,0.965c0,3.037,1.065,6.838,5.026,10.342
	c-0.363,1.199-0.502,2.352-0.502,3.404c0,4.317,2.283,10.304,13.16,14.31c6.479,2.386,15.107,3.699,24.292,3.699
	c9.186,0,17.812-1.313,24.292-3.699c10.877-4.006,13.16-9.992,13.16-14.31c0-1.053-0.14-2.205-0.503-3.404
	c3.96-3.504,5.025-7.303,5.025-10.342c0-0.452-0.031-0.926-0.085-1.405l4.66-1.681c1.688-0.608,2.812-2.211,2.812-4.006
	S98.875,51.413,97.187,50.804z M17.443,43.796c0-18.333,14.862-33.194,33.195-33.194c18.332,0,33.194,14.862,33.194,33.194
	c0,0.723-0.115,1.414-0.314,2.079c-0.232,0.784-0.598,1.531-1.083,2.237c-0.348,0.506-0.756,0.993-1.22,1.459
	c-0.594,0.594-1.277,1.154-2.045,1.682c0,0,0,0,0,0.001c-0.379,0.262-0.78,0.516-1.199,0.763
	c-11.756,6.887-38.274,7.338-51.973,1.356c-1.454-0.634-2.763-1.341-3.895-2.119v-0.001c-0.911-0.627-1.711-1.301-2.376-2.021
	c-0.332-0.361-0.624-0.735-0.888-1.119c-0.571-0.83-0.985-1.713-1.205-2.653C17.508,44.921,17.443,44.368,17.443,43.796z
	 M83.83,75.647c0,9.167-16.596,13.751-33.193,13.751s-33.195-4.584-33.195-13.751c0-0.233,0.019-0.463,0.04-0.691
	c1.622,0.943,3.523,1.837,5.753,2.657c7.299,2.688,17.031,4.169,27.402,4.169c10.37,0,20.102-1.48,27.401-4.169
	c2.23-0.82,4.131-1.714,5.753-2.657C83.813,75.185,83.83,75.414,83.83,75.647z M91.35,56.394l-4.053,1.462l-11.084,3.997
	l-6.439,2.323l-19.771,7.13l-19.211-6.929l-6.332-2.284l-10.69-3.857l0,0l-4.025-1.45l-5.484-1.979l9.733-3.509l1.484-0.535
	c0.67,0.933,1.523,1.862,2.591,2.766c1.954,1.657,4.623,3.229,8.279,4.576c1.663,0.611,3.473,1.152,5.394,1.619
	c5.558,1.354,12.072,2.081,18.899,2.081c6.825,0,13.341-0.729,18.899-2.081c1.919-0.467,3.729-1.006,5.392-1.619
	c3.657-1.347,6.324-2.919,8.279-4.576c0.927-0.785,1.705-1.589,2.327-2.399l2.615,0.944l7.591,2.736L91.35,56.394z"></path></svg>