<svg fill="#000000" xmlns="http://www.w3.org/2000/svg" xmlns:xlink="http://www.w3.org/1999/xlink" version="1.1" x="0px" y="0px" viewBox="0 0 512 512" enable-background="new 0 0 512 512" xml:space="preserve"><g><path d="M384,0H128c-23.562,0-42.672,19.109-42.672,42.672v426.656C85.328,492.891,104.438,512,128,512h256   c23.562,0,42.672-19.109,42.672-42.672V42.672C426.672,19.109,407.562,0,384,0z M128,21.328h256   c11.766,0,21.328,9.578,21.328,21.344v362.656h-11.438v-18.719c0-14.406-9.141-27.172-22.766-31.719l-0.891-0.266   c-15.109-4.094-26.188-8-32.844-10.578c-23.625-9.078-29.781-15.641-31.344-18.734c-0.062-0.109-0.109-0.234-0.156-0.344   l-0.094-12.516c15.875-18.641,28.016-43.656,28.016-69.141c0,0,14.812-55.281-27.953-94c-7.828-7.094-26.484-15.141-49.594-15.141   c-16.281,0-34.766,3.984-53.25,15.141c-22.625,13.656-39.094,73.969-39.094,73.969s4.969,2.797,13.734,5.531   c-0.656,4.656-1.016,9.484-1.016,14.5c0,25.484,12.141,50.5,28.031,69.156l-0.094,12.5c-0.047,0.109-0.094,0.234-0.156,0.344   c-1.562,3.094-7.719,9.656-31.344,18.75c-6.656,2.562-17.75,6.469-32.703,10.531l-1.031,0.297   c-13.625,4.547-22.781,17.312-22.781,31.719v18.719h-9.891V42.672C106.672,30.906,116.234,21.328,128,21.328z M292.109,191.141   c-9.031,0-19.375,3.141-35.672,10.812c-14.859,6.984-30.047,10.531-45.141,10.531c-8,0-15-1-20.719-2.297   c1.219-3.344,2.594-6.938,4.109-10.609c8.859-21.391,16.328-30.172,19.344-32c13.281-8.016,27.5-12.078,42.234-12.078   c18.438,0,31.953,6.609,35.281,9.625c9.844,8.922,16.641,19.766,20.281,32.375C306.203,193.328,299.453,191.141,292.109,191.141z    M198.594,233.125c3.953,0.438,8.203,0.688,12.703,0.688c15.547,0,34.062-3.078,54.219-12.562   c13.156-6.188,21.172-8.766,26.594-8.766c8.75,0,10.781,6.703,16.844,15.797c0.719,1.078,1.641,2.109,2.688,3.109   c0.547,3.828,0.844,7.812,0.844,11.922c0,18.062-8.375,38.25-22.984,55.375c-14.562,17.078-28.75,23.438-34.266,23.438   c-5.531,0-19.719-6.359-34.281-23.438c-14.594-17.125-22.969-37.312-22.969-55.375   C197.984,239.812,198.188,236.422,198.594,233.125z M223.469,334.953c0.281-0.594,0.516-1.094,0.672-1.469l0.906-2.031   c10.531,7.578,21.203,12,30.188,12c8.969,0,19.641-4.422,30.188-12l0.922,2.062c0.156,0.375,0.375,0.859,0.656,1.422   c5.453,10.812,18.641,19.766,42.688,29.016c7.047,2.719,18.75,6.859,34.688,11.188l0.219,0.062   c4.781,1.703,7.969,6.266,7.969,11.406v18.719H137.891v-18.719c0-5.125,3.172-9.656,7.922-11.391l0.344-0.094   c15.781-4.297,27.516-8.422,34.594-11.156C204.797,354.719,217.969,345.766,223.469,334.953z M384,490.672H256H128   c-11.766,0-21.328-9.578-21.328-21.344v-42.656h9.891H256h137.891h11.438v42.656C405.328,481.094,395.766,490.672,384,490.672z"/><path d="M288,458.672c0-17.672-14.328-32-32-32s-32,14.328-32,32s14.328,32,32,32S288,476.344,288,458.672z M256,469.328   c-5.875,0-10.672-4.781-10.672-10.656c0-5.891,4.797-10.672,10.672-10.672s10.672,4.781,10.672,10.672   C266.672,464.547,261.875,469.328,256,469.328z"/><path d="M312.625,113.234c11.469,10.5,22.859,17.188,23.328,17.469l5.375,3.141l5.375-3.141   c0.484-0.281,11.875-6.969,23.328-17.469C386.594,98.047,395,82.75,395,67.75C395,48.031,378.953,32,359.25,32   c-6.406,0-12.531,1.672-17.922,4.797c-5.375-3.125-11.5-4.797-17.906-4.797c-19.719,0-35.75,16.031-35.75,35.75   C287.672,82.75,296.062,98.047,312.625,113.234z M323.422,53.328c3.906,0,7.562,1.547,10.297,4.328l7.609,7.781l7.625-7.781   c2.734-2.781,6.391-4.328,10.297-4.328c7.938,0,14.406,6.469,14.406,14.422c0,15.594-20.281,32.781-32.328,41.078   C329.281,100.562,309,83.422,309,67.75C309,59.797,315.469,53.328,323.422,53.328z"/></g></svg>