<svg fill="#000000" xmlns="http://www.w3.org/2000/svg" xmlns:xlink="http://www.w3.org/1999/xlink" version="1.1" x="0px" y="0px" viewBox="0 0 100 100" enable-background="new 0 0 100 100" xml:space="preserve"><path d="M49.943,5.567C49.943,5.567,49.943,5.567,49.943,5.567c0,0-0.001,0-0.001,0C39.064,5.569,29.726,8.971,21.396,15.965  C12.311,23.593,6.739,34.303,5.709,46.121C4.678,57.939,8.312,69.452,15.94,78.538c8.709,10.372,20.47,15.854,34.014,15.854  c0,0,0.01,0,0.012,0h0.001c13.549-0.004,25.313-5.494,34.017-15.875c6.99-8.332,10.386-17.672,10.384-28.55  C94.359,25.485,74.436,5.568,49.943,5.567z M87.041,49.968c0.002,7.84-2.11,14.721-6.44,20.932L53.616,48.27l-0.009-35.199  C72.343,14.911,87.035,30.756,87.041,49.968z M13.007,46.758c0.861-9.869,5.513-18.812,13.1-25.181  c6.003-5.041,12.633-7.847,20.174-8.522l0.01,35.218L19.331,70.907C14.486,63.846,12.254,55.4,13.007,46.758z M46.293,57.836  l0.008,29.074c-8.661-0.753-16.128-4.232-22.275-10.379L46.293,57.836z M53.627,86.908l-0.008-29.074l0.065,0.055l22.211,18.628  C69.754,82.665,62.287,86.149,53.627,86.908z"/></svg>