<svg xmlns:x="http://ns.adobe.com/Extensibility/1.0/" xmlns:i="http://ns.adobe.com/AdobeIllustrator/10.0/" xmlns:graph="http://ns.adobe.com/Graphs/1.0/" xmlns="http://www.w3.org/2000/svg" xmlns:xlink="http://www.w3.org/1999/xlink" version="1.1" id="Layer_1" x="0px" y="0px" width="100px" height="100px" viewBox="0 0 100 100" enable-background="new 0 0 100 100" xml:space="preserve">
<metadata>
	<sfw xmlns="http://ns.adobe.com/SaveForWeb/1.0/">
		<slices/>
		<sliceSourceBounds height="91.25" width="91.25" x="5.25" y="-95.75" bottomLeftOrigin="true"/>
	</sfw>
</metadata>
<switch>
	<foreignObject requiredExtensions="http://ns.adobe.com/AdobeIllustrator/10.0/" x="0" y="0" width="1" height="1">
		</foreignObject>
	<g i:extraneous="self">
		<path d="M96.5,50.12c0,25.2-20.43,45.63-45.62,45.63c-25.2,0-45.63-20.43-45.63-45.63C5.25,24.93,25.68,4.5,50.88,4.5    C76.07,4.5,96.5,24.93,96.5,50.12z M90.296,47.669h-4.88l2.94-8.86l-9.561,2.36v-4.61l-15.84,12.15l5.21-24.64l-10.75,2.12    l-5.75-11.49v-0.08l-5.75,11.5l-10.75-2.12l5.21,24.66l-15.84-12.16v4.62l-9.56-2.37l2.94,8.87h-4.88l15.11,17.89l-4.98,4.99    h23.87v13.5h10v-13.48h23.13l-4.98-4.979L90.296,47.669z"/>
		<path fill="#000000" d="M22.625,38L22.625,38z"/>
		<path fill="#000000" d="M22.625,38L22.625,38z"/>
	</g>
</switch>
</svg>
