<svg fill="#000000" xmlns="http://www.w3.org/2000/svg" xmlns:xlink="http://www.w3.org/1999/xlink" version="1.1" x="0px" y="0px" viewBox="0 0 100 100" enable-background="new 0 0 100 100" xml:space="preserve"><g><g><path d="M81.521,87.94c-0.942,0-1.849-0.216-2.694-0.643L15.774,55.549c-2.037-1.026-3.301-3.08-3.301-5.359    c0-2.28,1.265-4.333,3.301-5.359l63.053-31.75c0.847-0.426,1.753-0.642,2.695-0.642c2.281,0,4.337,1.265,5.363,3.302    c1.487,2.954,0.294,6.569-2.66,8.058L31.814,50.189L84.226,76.58c2.954,1.489,4.147,5.104,2.66,8.059    C85.859,86.675,83.804,87.94,81.521,87.94z M81.522,14.438c-0.627,0-1.23,0.144-1.795,0.428l-63.054,31.75    c-1.357,0.684-2.201,2.053-2.201,3.573c0,1.52,0.843,2.889,2.201,3.572l63.054,31.75c0.563,0.284,1.167,0.429,1.794,0.429    c1.522,0,2.894-0.844,3.577-2.202c0.992-1.969,0.196-4.379-1.773-5.372L27.367,50.189l55.958-28.177    c1.97-0.993,2.766-3.402,1.773-5.372C84.415,15.282,83.044,14.438,81.522,14.438z"/></g></g></svg>