<svg xmlns="http://www.w3.org/2000/svg" xmlns:xlink="http://www.w3.org/1999/xlink" version="1.1" id="Layer_1" x="0px" y="0px" width="100px" height="100px" viewBox="0 0 100 100" enable-background="new 0 0 100 100" xml:space="preserve">
<g>
	<path fill="#000000" d="M52.453,24.226l-9.421-4.686l8.016-16.114l9.42,4.686L52.453,24.226L52.453,24.226z M45.714,18.64   l5.839,2.904l6.233-12.532l-5.838-2.904L45.714,18.64L45.714,18.64z"/>
</g>
<g>
	<path fill="#000000" d="M46.906,36.738c-0.71,0-1.421-0.174-2.055-0.503l-6.66-3.459c-1.058-0.549-1.839-1.479-2.198-2.615   c-0.36-1.137-0.255-2.346,0.295-3.404l3.203-6.167c0.771-1.484,2.29-2.407,3.964-2.407c0.71,0,1.42,0.174,2.054,0.503l6.661,3.459   c1.058,0.55,1.839,1.479,2.198,2.616c0.359,1.137,0.255,2.346-0.296,3.404l-3.202,6.167C50.099,35.815,48.58,36.738,46.906,36.738   L46.906,36.738z M43.455,20.182c-0.925,0-1.764,0.509-2.189,1.329l-3.203,6.168c-0.304,0.584-0.362,1.251-0.164,1.878   c0.199,0.627,0.629,1.14,1.213,1.444l6.66,3.459c1.186,0.614,2.714,0.12,3.323-1.051l3.202-6.168   c0.304-0.584,0.362-1.251,0.163-1.878c-0.198-0.627-0.629-1.14-1.213-1.444l-6.661-3.458   C44.232,20.275,43.852,20.182,43.455,20.182L43.455,20.182z"/>
</g>
<g>
	<path fill="#000000" d="M63.82,92.577l-13.469-9.012l0.577-0.835c10.079-14.603,0.068-31.633-0.035-31.803l1.715-1.029   c0.106,0.178,10.39,17.672,0.526,33.124l9.904,6.627c1.246-2.74,4.524-10.718,5.287-20.273   c1.253-15.681-4.513-27.977-17.137-36.545l1.123-1.655c31.622,21.463,12.221,60.02,12.021,60.408L63.82,92.577L63.82,92.577z"/>
</g>
<g>
	<path fill="#000000" d="M46.876,82.213H20.893c-2.269,0-4.114-2.003-4.114-4.464v-0.896c0-2.461,1.845-4.464,4.114-4.464h25.983   c2.269,0,4.114,2.003,4.114,4.464v0.896C50.99,80.21,49.145,82.213,46.876,82.213L46.876,82.213z M20.893,74.389   c-1.166,0-2.114,1.105-2.114,2.464v0.896c0,1.358,0.948,2.464,2.114,2.464h25.983c1.166,0,2.114-1.105,2.114-2.464v-0.896   c0-1.358-0.948-2.464-2.114-2.464H20.893L20.893,74.389z"/>
</g>
<g>
	<polygon fill="#000000" points="41.245,66.49 35.145,62.073 35.145,50.413 37.145,50.413 37.145,61.052 41.13,63.938 44.374,61.11    44.289,50.42 46.289,50.405 46.381,62.015 41.245,66.49  "/>
</g>
<g>
	<path fill="#000000" d="M60.62,57.172c-2.605,0-4.725-2.165-4.725-4.825c0-2.661,2.119-4.826,4.725-4.826   c2.604,0,4.724,2.165,4.724,4.826C65.344,55.007,63.225,57.172,60.62,57.172L60.62,57.172z M60.62,49.521   c-1.502,0-2.725,1.268-2.725,2.826c0,1.558,1.223,2.825,2.725,2.825s2.724-1.268,2.724-2.825   C63.344,50.789,62.122,49.521,60.62,49.521L60.62,49.521z"/>
</g>
<g>
	<path fill="#000000" d="M74.415,97.34H18.822l-0.126-0.854c-0.017-0.115-1.571-11.552,9.657-15.77l0.17-0.063h18.809   c0.325,0,0.65-0.099,0.967-0.293l0.55-0.337L74.415,97.34L74.415,97.34z M20.611,95.34h47.284L48.747,82.37   c-0.457,0.188-0.931,0.283-1.416,0.283H28.889C21.008,85.71,20.529,92.871,20.611,95.34L20.611,95.34z"/>
</g>
<g>
	<path fill="#000000" d="M53.724,49.536c-2.361,0-4.283-1.931-4.283-4.304s1.922-4.304,4.283-4.304s4.282,1.931,4.282,4.304   S56.085,49.536,53.724,49.536L53.724,49.536z M53.724,42.929c-1.259,0-2.283,1.033-2.283,2.304s1.024,2.304,2.283,2.304   s2.282-1.033,2.282-2.304S54.982,42.929,53.724,42.929L53.724,42.929z"/>
</g>
<g>
	<path fill="#000000" d="M52.751,51.413H32.885V28.585l0.96-0.038c0,0,1.416-0.056,2.322-0.056c0.357,0,0.68,0,0.95,0.066   l0.683,0.04l0.208,0.658c0.199,0.629,0.63,1.143,1.214,1.446l6.66,3.459c1.183,0.614,2.713,0.121,3.322-1.051l1.658-3.193   l1.887,0.461l0.001,12.712l-0.393,0.3c-0.58,0.444-0.913,1.11-0.913,1.827s0.333,1.383,0.913,1.827l0.393,0.3V51.413L52.751,51.413   z M34.885,49.413h15.866v-1.117c-0.835-0.809-1.306-1.905-1.306-3.078s0.47-2.27,1.306-3.078v-7.717   c-0.82,1.254-2.214,2.017-3.736,2.017c-0.71,0-1.421-0.174-2.055-0.503l-6.66-3.458c-0.846-0.439-1.515-1.122-1.933-1.959   l-0.441-0.025c-0.333,0.003-0.708,0.011-1.042,0.021V49.413L34.885,49.413z"/>
</g>
</svg>
