<svg fill="#000000" xmlns="http://www.w3.org/2000/svg" xmlns:xlink="http://www.w3.org/1999/xlink" version="1.1" x="0px" y="0px" viewBox="0 0 64 64" style="enable-background:new 0 0 64 64;" xml:space="preserve"><path d="M61,30h-3.313C56.136,20.009,48.762,11.732,39,8.999V5c0-0.552-0.447-1-1-1h-5V2h-2v2h-5c-0.553,0-1,0.448-1,1v3.999  C15.238,11.732,7.864,20.009,6.313,30H3c-0.553,0-1,0.448-1,1v6c0,0.552,0.447,1,1,1h58c0.553,0,1-0.448,1-1v-6  C62,30.448,61.553,30,61,30z M60,36H4v-4h3.186c0.506,0,0.933-0.378,0.993-0.881C9.304,21.722,15.994,13.813,25,11.064V19h2V9.751V6  h4v9h2V6h4v3.751V19h2v-7.936c9.006,2.749,15.696,10.657,16.821,20.054C55.882,31.622,56.309,32,56.814,32H60V36z"/><path d="M61,44h-5v-2c0-0.552-0.447-1-1-1H9c-0.553,0-1,0.448-1,1v2H3c-0.553,0-1,0.448-1,1v6c0,0.552,0.447,1,1,1h5v1  c0,0.197,0.059,0.391,0.168,0.555l4,6C12.354,59.833,12.666,60,13,60h12c0.304,0,0.591-0.138,0.781-0.375l4-5  c0.061-0.077,0.11-0.162,0.147-0.253L31.677,50h0.646l1.748,4.372c0.037,0.091,0.087,0.176,0.147,0.253l4,5  C38.409,59.862,38.696,60,39,60h12c0.334,0,0.646-0.167,0.832-0.445l4-6C55.941,53.391,56,53.197,56,53v-1h5c0.553,0,1-0.448,1-1v-6  C62,44.448,61.553,44,61,44z M4,50v-4h4v4H4z M54,52.697L50.465,58H39.48l-3.607-4.509l-1.944-4.863C33.776,48.249,33.409,48,33,48  h-2c-0.409,0-0.776,0.249-0.929,0.628l-1.944,4.863L24.52,58H13.535L10,52.697V51v-6v-2h44v2v6V52.697z M60,50h-4v-4h4V50z"/></svg>