<svg xmlns="http://www.w3.org/2000/svg" xmlns:xlink="http://www.w3.org/1999/xlink" version="1.1" x="0px" y="0px" viewBox="0 0 239.794 161.659" style="enable-background:new 0 0 239.794 161.659;" xml:space="preserve"><g><path d="M93.77,122.054c-0.316-0.34-0.613-0.696-0.879-1.077c-0.244,0.35-0.514,0.682-0.803,1   C92.647,122.004,93.207,122.03,93.77,122.054z"></path><path d="M70.232,120.45c1.344,0,2.685,0.103,3.984,0.303c0.734,0.05,1.493,0.105,2.26,0.162c-0.227-0.331-0.444-0.672-0.633-1.034   l-0.16-0.312c-1.661-3.234-5.715-11.33-9.834-21.019v17.77v4.509C67.313,120.587,68.786,120.45,70.232,120.45z"></path><path d="M109.978,119.827c-0.434,0.832-0.969,1.582-1.584,2.242c4.197-0.212,8.029-0.63,11.547-1.263v-4.486V98.555   c-4.119,9.688-8.171,17.78-9.831,21.014L109.978,119.827z"></path><ellipse transform="matrix(0.104 -0.9946 0.9946 0.104 -117.4192 146.3106)" cx="22.496" cy="138.325" rx="22.495" ry="22.494"></ellipse><path d="M71.607,158.683c13.153,2.677,23.267,3.59,34.387,2.568c-21.199-2.71-35.882-12.077-40.358-15.271l-0.136-0.096   l-0.036-0.024l-0.052-0.038c-2.133-1.606-3.515-3.948-3.886-6.593c-0.373-2.645,0.307-5.276,1.913-7.409   c1.905-2.532,4.82-3.986,7.995-3.986c2.175,0,4.245,0.69,5.987,1.997c0.148,0.105,0.299,0.211,0.507,0.353   c0.635,0.433,1.325,0.874,2.049,1.313c1.735,1.053,4.572,2.645,8.257,4.257c6.507,2.853,16.841,6.252,29.128,6.248   c8.897-0.008,17.744-1.777,26.292-5.262c1.207-0.493,2.478-0.744,3.775-0.744c4.083,0,7.718,2.442,9.26,6.224   c0.018,0.043,0.029,0.088,0.046,0.132c4.458-0.352,9.563-0.589,15.265-0.589c14.211,0,32.051,1.462,52.44,6.239   c0.959,0.225,1.918,0.332,2.862,0.332c5.674,0,10.811-3.889,12.16-9.651c1.574-6.722-2.597-13.446-9.319-15.022   c-22.445-5.258-42.22-6.896-58.144-6.896c-21.693,0.003-36.238,3.031-40.815,4.131c-1.61,0.084-3.48,0.324-5.659,0.729   c-6.309,1.663-13.148,2.372-19.983,2.556c-1.363,0.681-2.875,1.069-4.46,1.069c-1.568,0-3.131-0.383-4.535-1.099   c-2.294-0.066-4.559-0.168-6.776-0.295c-0.144,0.084-0.282,0.176-0.432,0.254c-1.429,0.746-3.027,1.14-4.628,1.14   c-2.317,0-4.501-0.792-6.24-2.181c-1.541-0.117-3.044-0.23-4.47-0.328c-10.231-1.611-21.585,3.594-22.636,12.328   C50.315,143.804,56.452,155.507,71.607,158.683z"></path><path d="M144.407,138.592c-9.711,3.958-18.787,5.402-27.045,5.409c-12.155,0.004-22.581-3.193-29.931-6.414   c-3.671-1.607-6.564-3.209-8.491-4.379c-0.964-0.585-1.685-1.061-2.144-1.374c-0.229-0.156-0.393-0.273-0.487-0.34   c-0.046-0.032-0.076-0.054-0.088-0.064l-0.001,0.001c-3.528-2.645-8.534-1.933-11.187,1.591c-2.658,3.529-1.951,8.545,1.579,11.201   c0.729,0.481,20.772,15.682,50.748,15.776c0.016,0,0.034,0,0.05,0c10.133,0.001,21.357-1.822,33.041-6.594   c4.09-1.668,6.053-6.338,4.385-10.428C153.167,138.885,148.498,136.922,144.407,138.592z"></path><path d="M60.075,77.259c6.013,19.75,17.44,41.465,17.54,41.697c1.428,2.732,4.212,4.293,7.096,4.294   c1.249,0,2.517-0.294,3.701-0.912c1.511-0.79,2.66-1.997,3.388-3.405c-0.09-0.229-0.181-0.458-0.255-0.695   c-0.694-2.22-0.599-4.559,0.253-6.688c-0.001-0.003-0.002-0.006-0.004-0.009c-0.002-0.002-0.283-0.538-0.814-1.591   c-1.859-3.676-6.59-13.292-10.779-23.799c-2.094-5.249-4.051-10.721-5.444-15.69c-1.406-4.946-2.191-9.459-2.169-12.29   c0-0.058,0.002-0.109,0.002-0.166l1.998-0.02c0,0.059,0,0.118,0,0.18c-0.02,2.68,0.761,7.065,2.092,11.75   c1.259,4.494,3.069,9.705,5.379,15.496c4.192,10.52,8.882,20.033,10.704,23.636c0.049,0.098,0.087,0.172,0.132,0.261   c0.045-0.088,0.082-0.162,0.131-0.259c1.825-3.604,6.514-13.118,10.707-23.638c2.304-5.775,4.114-10.986,5.377-15.49   c1.332-4.691,2.114-9.076,2.094-11.733l1.968-1.024c0.021,0.302,0.034,0.637,0.032,1.007c0.022,2.831-0.763,7.344-2.168,12.29   c-1.393,4.97-3.35,10.441-5.444,15.69c-4.188,10.507-8.92,20.123-10.779,23.799c-0.531,1.053-0.813,1.589-0.814,1.591   c-2.046,3.915-0.533,8.751,3.382,10.797c1.184,0.618,2.452,0.912,3.701,0.912c2.883-0.001,5.668-1.563,7.096-4.294   c0.1-0.232,11.527-21.947,17.54-41.697c1.991-6.646,3.458-13.031,3.488-19.088c-0.013-2.846-0.325-5.694-1.468-8.589   c-0.026-0.066-0.046-0.131-0.073-0.197c-1.158-2.931-3.605-5.979-6.985-7.566c-2.216-1.071-4.618-1.503-6.924-1.501   c-0.061,0-0.119,0.008-0.18,0.009c-0.443-0.079-0.897-0.127-1.363-0.127h-2.402C105.41,44.407,99.452,47,92.897,47   c-6.555,0-12.513-2.593-16.914-6.801h-2.404c-0.466,0-0.919,0.048-1.362,0.127c-0.06-0.001-0.118-0.009-0.178-0.009   c-2.306-0.002-4.707,0.43-6.924,1.501c-3.38,1.587-5.827,4.636-6.985,7.566c-1.207,2.96-1.526,5.87-1.541,8.777   c0,0.003,0,0.006,0,0.009C56.617,64.228,58.085,70.612,60.075,77.259z"></path><circle cx="92.897" cy="22.5" r="22.5"></circle></g></svg>