<svg fill="#000000" xmlns="http://www.w3.org/2000/svg" viewBox="0 0 100 100" x="0px" y="0px"><path d="m14.819252 6.7281367l-5.4794304 5.4775393c.0029.07987.00267.161121.00945.240044l5.7100174-5.7005724c-.07906-.00668-.160054-.013817-.240037-.017011z"/><path d="m38.521216 6.7281367l-5.477533 5.4775393c.0029.07987.0027.161121.0095.240044l5.710022-5.7005724c-.07844-.00663-.160664-.01377-.240038-.017011h-.0019z"/><path d="m14.3127 6.7356947c-.09135.00503-.185883-.0001771-.27596.00945l-4.6780185 4.6874783c-.00968.08721-.00462.17808-.00945.266506l4.9634285-4.9634304z"/><path d="m38.014674 6.7356947c-.09136.00503-.184006-.0001771-.274073.00945l-4.678018 4.6874733c-.0097.08721-.0046.17808-.0095.266506l4.961546-4.9634302z"/><path d="m15.512915 6.7980682l-6.101268 6.1012758c.012097.07101.020913.143561.035913.213583l6.278944-6.2789461c-.06997-.015087-.142634-.023632-.213589-.035913z"/><path d="m39.216777 6.7980682l-6.101269 6.1012758c.0121.07101.02091.143561.03591.213583l6.278945-6.2789461c-.06997-.015087-.142635-.023632-.213589-.035913z"/><path d="m13.431905 6.8509918c-.119119.027087-.231889.063283-.347776.098285l-3.5212732 3.5231662c-.03329.11065-.062709.222866-.088838.33644z"/><path d="m37.135766 6.8509918c-.119109.027087-.231889.063283-.347776.098285l-3.521273 3.5231662c-.03329.11065-.06271.222866-.08884.33644l3.957887-3.9578914z"/><path d="m16.117751 6.9417171l-6.56435 6.5719129c.019645.06615.040306.12965.062371.194682l6.706113-6.6966605c-.06861-.023593-.134274-.049118-.204134-.069934z"/><path d="m39.821612 6.9417171l-6.56435 6.5719129c.01965.06615.04031.12965.06237.194682l6.706113-6.6966605c-.06861-.023593-.134283-.049118-.204134-.069934z"/><path d="m16.677228 7.1458495l-6.9178055 6.9178025c.025645.06043.051609.120313.079383.179561l7.0085315-7.0179792c-.05642-.026535-.112654-.054805-.170109-.079384z"/><path d="m40.381089 7.1458495l-6.919692 6.9178025c.02565.06043.0535.120313.08127.179561l7.006644-7.0179792c-.05642-.026535-.110767-.054805-.168222-.079384z"/><path d="m12.258147 7.2781564c-.219028.1075194-.429114.2258165-.604835.3383304l-1.42325 1.4327027c-.124074.1840935-.228357.3787795-.3288758.5783745z"/><path d="m35.960121 7.2781564c-.219028.1075194-.427227.2258165-.602948.3383304l-1.42325 1.4327027c-.124083.1840935-.228347.3787795-.328876.5783745z"/><path d="m17.185667 7.3934535l-7.1861975 7.1861985c.030485.05451.064084.107364.096396.16066l7.248567-7.2485732c-.05332-.032448-.104264-.067686-.158767-.098285z"/><path d="m40.887641 7.3934535l-7.186197 7.1861985c.03048.05451.06597.107364.09828.16066l7.248568-7.2485732c-.05332-.032448-.106141-.067686-.160654-.098285z"/><path d="m17.646852 7.6958711l-7.344965 7.3468579c.0331.04694.06176.09597.0964.141758l7.390332-7.3903306c-.04577-.034684-.09479-.065073-.141763-.098285z"/><path d="m41.350713 7.6958711l-7.346852 7.3468579c.0331.04694.06365.09597.09828.141758l7.390332-7.3903306c-.04577-.034684-.09479-.065073-.141763-.098285z"/><path d="m18.07402 8.0266405l-7.443257 7.4432535c.03968.04563.08356.08808.124751.132308l7.452702-7.4602653c-.043355-.0404127-.089535-.0763361-.134196-.1152962z"/><path d="m41.777881 8.0266405l-7.445144 7.4432535c.03968.04563.08356.08808.124751.132308l7.452702-7.4602653c-.04326-.040413-.08765-.076336-.132309-.1152962z"/><path d="m18.455821 8.3989916l-7.443257 7.4527044c.04152.03895.08192.07769.124751.115297l7.443257-7.4432534c-.0389-.044438-.08445-.081646-.124751-.124748z"/><path d="m42.159682 8.3989916l-7.443257 7.4527044c.04152.03895.08192.07769.124751.115297l7.443257-7.4432534c-.0389-.044438-.08443-.081646-.124751-.124748z"/><path d="m18.803597 8.7996955l-7.390323 7.3903305c.0509.03901.09882.07814.151209.115297l7.344965-7.3544187c-.03532-.049703-.0689-.1028026-.105851-.1512088z"/><path d="m42.507467 8.7996955l-7.392228 7.3903305c.0509.03901.09882.07814.151209.115297l7.346861-7.3544187c-.03532-.049703-.0689-.1028026-.105842-.1512088z"/><path d="m19.115469 9.262773l-7.248568 7.246682c.05187.03164.105715.05895.158767.08884l7.186197-7.184308c-.02971-.0527-.06495-.09964-.0964-.151209z"/><path d="m42.817443 9.262773l-7.248578 7.246682c.05187.03164.107622.05895.160664.08884l7.186197-7.184308c-.02971-.0527-.06684-.09964-.09828-.151209z"/><path d="m19.372519 9.750421l-7.016089 7.017979c.05982.02835.116661.0627.177677.08884l6.92725-6.929143c-.02613-.0611-.06047-.117779-.08884-.177671z"/><path d="m43.07639 9.750421l-7.017986 7.017979c.05981.02835.116651.0627.177677.08884l6.929137-6.929143c-.02613-.0611-.06047-.117779-.08883-.177671z"/><path d="m19.595553 10.292883l-6.696658 6.696659c.06194.02129.122264.04335.185234.06237l6.573805-6.579474c-.01839-.06088-.04186-.119627-.06238-.17956z"/><path d="m43.297527 10.292883l-6.696658 6.696659c.06194.02129.12416.04335.187121.06237l6.571908-6.579474c-.01839-.06088-.04186-.119627-.06237-.17956z"/><path d="m19.763775 10.880706l-6.278945 6.278947c.07094.01535.141609.03101.21358.04347l6.110732-6.108836c-.01239-.0717-.03008-.142902-.04537-.213584z"/><path d="m43.467636 10.880706l-6.278945 6.278947c.07093.01535.1416.03101.21358.04347l6.108836-6.108836c-.01239-.0717-.02818-.142902-.04347-.213584z"/><path d="m19.862058 11.538465l-5.719467 5.719473c.07897.0069.160102.01368.240047.01701l5.496433-5.505891c-.0029-.07696-.01043-.154516-.01701-.230593z"/><path d="m43.564032 11.538465l-5.71758 5.719473c.07897.0069.160112.01368.240047.01701l5.496433-5.505891c-.0029-.07696-.01232-.154516-.0189-.230593z"/><path d="m19.869626 12.294509l-4.970991 4.97099c.08245-.0045.168076.000717.249492-.0075h.0095l4.704476-4.704484c.000291-.0029-.00028-.0066 0-.0095.0077-.08143.0037-.167022.0075-.249494z"/><path d="m43.573487 12.294509l-4.970991 4.97099c.08245-.0045.168077.000717.249492-.0075h.0075l4.704486-4.704484c.000309-.0029-.00032-.0066 0-.0095.0087-.08143.0056-.167022.0095-.249494z"/><path d="m19.75433 13.156399l-3.991913 3.993803c.116661-.02606.232276-.05519.345888-.08884l3.557187-3.547736c.03465-.116275.06213-.237762.08884-.357232z"/><path d="m43.458191 13.156399l-3.993809 3.993803c.11666-.02606.234163-.05519.347785-.08884l3.557186-3.547736c.03465-.116275.06213-.237762.08884-.357232z"/><path d="m19.327161 14.358509l-2.364528 2.364528c.193973-.09707.379991-.200093.559477-.319428l1.459163-1.449715c.0039-.0054.0056-.01154.0095-.01701.123744-.184577.23634-.378355.336443-.578374z"/><path d="m43.031022 14.358509l-2.364528 2.364528c.193973-.09707.380001-.200093.559477-.319428l1.459163-1.449715c.0039-.0054.0037-.01154.0075-.01701.123745-.184577.238238-.378355.338331-.578374z"/><path d="m10.59485 18.528092l-5.5852713 5.585276v.258945l5.8423313-5.844221z"/><path d="m11.360349 18.528092l-6.3507703 6.34132v.266505l6.5983753-6.607825z"/><path d="m12.123951 18.528092l-7.1143723 7.116265v.247604l7.3638643-7.363869z"/><path d="m12.87055 18.528092l-7.8609713 7.862858v.257055l8.1199083-8.119913z"/><path d="m13.636039 18.528092l-8.6264603 8.628353v.247604l8.8759523-8.875957z"/><path d="m14.392083 18.528092l-9.3825043 9.382507v.241934l9.6319963-9.624441z"/><path d="m15.157582 18.528092l-10.1480033 10.138551v.258945l10.3880403-10.397496z"/><path d="m15.904171 18.528092l-10.8945923 10.904045v.240045l11.1516523-11.14409z"/><path d="m16.660215 18.528092l-11.6506363 11.66009v.249495l11.9076963-11.909585z"/><path d="m17.416259 18.528092l-12.4066803 12.416134v.249495l12.6731853-12.665629z"/><path d="m18.172303 18.528092l-13.1627243 13.162728v.240044l13.4197843-13.402772z"/><path d="m34.298711 18.528092l-5.585271 5.585276v.258945l5.842331-5.844221z"/><path d="m35.062323 18.528092l-6.348883 6.34132v.266505l6.598375-6.607825z"/><path d="m35.827812 18.528092l-7.114372 7.116265v.247604l7.363864-7.363869z"/><path d="m36.574411 18.528092l-7.860971 7.862858v.257055l8.119908-8.119913z"/><path d="m37.3399 18.528092l-8.62646 8.628353v.247604l8.875952-8.875957z"/><path d="m38.095944 18.528092l-9.382504 9.382507v.241934l9.630109-9.624441z"/><path d="m38.859546 18.528092l-10.146106 10.138551v.258945l10.386153-10.397496z"/><path d="m39.608032 18.528092l-10.894592 10.904045v.240045l11.151652-11.14409z"/><path d="m40.364076 18.528092l-11.650636 11.66009v.249495l11.907696-11.909585z"/><path d="m41.12012 18.528092l-12.40668 12.416134v.249495l12.673185-12.665629z"/><path d="m41.874277 18.528092l-13.160837 13.162728v.240044l13.419784-13.402772z"/><path d="m10.088308 18.537576c-.089525-.0026-.1927154.0052-.2665149.0189l-4.7857565 4.774418c-.00968.09115-.012658.184059-.017013.275956l5.0692844-5.069275z"/><path d="m18.928347 18.537576l-13.7770143 13.767531h.2589469l13.7486604-13.748661c-.07626-.0089-.153764-.0138-.230593-.0189z"/><path d="m33.790272 18.537576c-.08952-.0026-.192705.0052-.266505.0189l-4.783869 4.774418c-.0097.09115-.01455.184059-.0189.275956l5.069274-5.069275z"/><path d="m42.630322 18.537576l-13.775128 13.767531h.25706l13.750547-13.748661c-.07626-.0089-.155651-.0138-.232479-.0189z"/><path d="m19.586108 18.63583l-13.6787313 13.669277h.2495018l13.6333635-13.625804c-.06803-.01738-.135405-.02903-.204134-.04347z"/><path d="m43.289969 18.63583l-13.678731 13.669277h.249502l13.633364-13.625804c-.06803-.01738-.135406-.02903-.204135-.04347z"/><path d="m9.2075127 18.662288c-.1236864.02918-.2437244.05969-.3647882.09829l-3.6025536 3.60066c-.038709.121183-.066987.241023-.096396.364791l4.063738-4.063737z"/><path d="m32.911374 18.662288c-.123687.02918-.243725.05969-.364788.09829l-3.602554 3.60066c-.03881.121183-.06887.241023-.09828.364791l4.065625-4.063737z"/><path d="m20.190943 18.79649l-13.5086223 13.508617h.2570598l13.4386845-13.438683c-.06165-.02413-.124577-.04823-.187122-.06994z"/><path d="m43.894805 18.79649l-13.51051 13.508617h.258947l13.436797-13.438683c-.06165-.02413-.12269-.04823-.185234-.06994z"/><path d="m20.723953 19.017633l-13.3044881 13.287474h.2665049l13.1986372-13.206199c-.05342-.0277-.106354-.0554-.160654-.08127z"/><path d="m44.427814 19.017633l-13.304488 13.287474h.266505l13.198647-13.206199c-.05342-.0277-.106364-.0554-.160664-.08127z"/><path d="m7.9808294 19.125369c-.2152149.114155-.4245556.239927-.6237351.381802l-1.3419795 1.343869c-.147183.205044-.2827435.416694-.4007009.638857z"/><path d="m31.682803 19.125369c-.215224.114155-.422668.239927-.621848.381802l-1.343866 1.343869c-.147183.205044-.280866.416694-.398814.638857z"/><path d="m21.204038 19.284138l-13.0096292 13.020969h.2476051l12.9321321-12.922683c-.05439-.03565-.114618-.06458-.170108-.09829z"/><path d="m44.907899 19.284138l-13.011516 13.020969h.249492l12.930245-12.922683c-.05439-.03565-.112722-.06458-.168221-.09829z"/><path d="m21.667119 19.596007l-12.7261112 12.7091h.2665049l12.5938023-12.601364c-.04423-.03532-.08895-.07376-.134196-.107736z"/><path d="m45.37098 19.596007l-12.727998 12.7091h.268392l12.591915-12.601364c-.04423-.03532-.08707-.07376-.132309-.107736z"/><path d="m22.075378 19.943787l-12.3783262 12.36132h.266505l12.2460262-12.246023c-.04239-.0409-.09062-.07572-.134205-.115297z"/><path d="m45.779239 19.943787l-12.380213 12.36132h.268392l12.246027-12.246023c-.04239-.0409-.09061-.07572-.134206-.115297z"/><path d="m22.459076 20.316138l-11.998422 11.988969h.258947l11.854771-11.854771c-.03852-.04461-.07546-.09076-.115296-.134198z"/><path d="m46.16105 20.316138l-11.996535 11.988969h.25706l11.856658-11.854771c-.03852-.04461-.07734-.09076-.117183-.134198z"/><path d="m22.804964 20.726293l-11.595824 11.578814h.274063l11.429499-11.437056c-.03455-.04852-.07166-.09431-.107738-.141758z"/><path d="m46.508825 20.726293l-11.597711 11.578814h.27595l11.427612-11.437056c-.03455-.04852-.06977-.09431-.105851-.141758z"/><path d="m23.107382 21.179919l-11.125185 11.125188h.249492l10.973976-10.973979c-.02981-.05199-.06675-.100161-.09828-.151209z"/><path d="m46.811243 21.179919l-11.125185 11.125188h.247605l10.975863-10.973979c-.02981-.05199-.06675-.100161-.09828-.151209z"/><path d="m23.383341 21.667567l-10.6451 10.63754h.266505l10.457979-10.46743c-.02516-.0567-.05229-.114265-.07938-.17011z"/><path d="m47.087202 21.667567l-10.6451 10.63754h.266505l10.457979-10.46743c-.02516-.0567-.05229-.114265-.07938-.17011z"/><path d="m23.606366 22.193018l-10.112081 10.112089h.266505l9.907956-9.924968c-.01984-.06273-.04022-.12517-.06238-.187121z"/><path d="m47.30834 22.193018l-10.110194 10.112089h.266505l9.906069-9.924968c-.01984-.06273-.04012-.12517-.06238-.187121z"/><path d="m23.784042 22.780843l-9.526155 9.524264h.241934l9.320134-9.312572c-.01268-.07074-.02004-.141638-.03591-.211692z"/><path d="m47.486016 22.780843l-9.524268 9.524264h.240047l9.320134-9.312572c-.01268-.07074-.02004-.141638-.03591-.211692z"/><path d="m23.882326 23.4386l-8.875953 8.866507h.25705l8.626461-8.635913c-.0029-.07716-.0017-.153924-.0075-.230594z"/><path d="m47.5843 23.4386l-8.875963 8.866507h.258947l8.626461-8.635913c-.0029-.07716-.0037-.153924-.0095-.230594z"/><path d="m23.899338 24.175744l-8.119918 8.129363h.240047l7.879871-7.870418z"/><path d="m47.6032 24.175744l-8.119909 8.129363h.240037l7.879872-7.870418z"/><path d="m23.899338 24.924227l-7.373319 7.38088h.249492l7.123827-7.123825z"/><path d="m47.6032 24.924227l-7.37332 7.38088h.249493l7.123827-7.123825z"/><path d="m23.899338 25.687832l-6.60783 6.617275h.249502l6.358328-6.35833z"/><path d="m47.6032 25.687832l-6.607821 6.617275h.247596l6.360225-6.35833z"/><path d="m23.899338 26.443876l-5.842331 5.861231h.230592l5.611739-5.594726z"/><path d="m47.6032 26.443876l-5.844219 5.861231h.23248l5.611739-5.594726z"/><path d="m23.899338 27.20937l-5.095741 5.095737h.249501l4.84624-4.846242z"/><path d="m47.6032 27.20937l-5.095733 5.095737h.247596l4.848137-4.846242z"/><path d="m23.899338 27.955964l-4.339697 4.349143h.257059l4.082638-4.082638z"/><path d="m47.6032 27.955964l-4.341585 4.349143h.258947l4.082638-4.082638z"/><path d="m23.899338 28.721458l-3.583653 3.583649h.247605l3.336048-3.326594z"/><path d="m47.6032 28.721458l-3.585541 3.583649h.249492l3.336049-3.326594z"/><path d="m23.899338 29.477502l-2.827609 2.827605h.25706l2.570549-2.57055z"/><path d="m47.6032 29.477502l-2.829497 2.827605h.258947l2.57055-2.57055z"/><path d="m23.899338 30.241107l-2.063998 2.064h.240038l1.82396-1.823956z"/><path d="m47.6032 30.241107l-2.063998 2.064h.240037l1.823961-1.823956z"/><path d="m23.899338 30.9877l-1.315521 1.317407h.266514l1.049007-1.049011z"/><path d="m47.6032 30.9877l-1.317409 1.317407h.266505l1.050904-1.049011z"/><path d="m23.899338 31.753195l-.551909.551912h.249492l.302417-.302418z"/><path d="m47.6032 31.753195l-.55191.551912h.249492l.302418-.302418z"/><path d="m14.809673 67.69553l-5.47943 5.477539c.0029.07987.00267.161121.00945.240044l5.710017-5.700572c-.07906-.0067-.160054-.01382-.240037-.01701z"/><path d="m38.511637 67.69553l-5.477533 5.477539c.0029.07987.0027.161121.0095.240044l5.710022-5.700572c-.07845-.0067-.160663-.01377-.240037-.01701h-.0019z"/><path d="m14.303121 67.703078c-.09135.005-.185883-.000177-.27596.0095l-4.6780181 4.687473c-.00968.08721-.00462.17808-.00945.266506l4.9634331-4.96343z"/><path d="m38.005095 67.703078c-.09135.005-.184005-.000177-.274073.0095l-4.678018 4.687473c-.0097.08721-.0046.17808-.0095.266506l4.961546-4.96343z"/><path d="m15.503337 67.765449l-6.1012686 6.101276c.012097.07101.020913.143561.035913.213582l6.2789446-6.278945c-.06997-.01509-.142635-.02363-.213589-.03591z"/><path d="m39.207198 67.765449l-6.101268 6.101276c.0121.07101.02091.143561.03591.213582l6.278945-6.278945c-.06997-.01509-.142635-.02363-.213589-.03591z"/><path d="m13.422326 67.818374c-.119119.02709-.231889.06328-.347775.09829l-3.5212738 3.523166c-.03329.11065-.062709.222866-.088838.336439l3.9578868-3.957891z"/><path d="m37.126187 67.818374c-.119109.02709-.231889.06328-.347775.09829l-3.521274 3.523166c-.03329.11065-.06271.222866-.08884.336439l3.957887-3.957891z"/><path d="m16.108172 67.9091l-6.5643496 6.571913c.019645.06615.040306.12965.062371.194681l6.7061126-6.69666c-.06861-.02359-.134273-.04912-.204134-.06994z"/><path d="m39.812033 67.9091l-6.564349 6.571913c.01965.06615.04031.12965.06237.194681l6.706113-6.69666c-.06861-.02359-.134283-.04912-.204134-.06994z"/><path d="m16.667649 68.113243l-6.9178052 6.917802c.025645.06043.051609.120313.079383.179561l7.0085312-7.017979c-.05642-.02653-.112654-.0548-.170109-.07938z"/><path d="m40.371511 68.113243l-6.919693 6.917802c.02565.06043.0535.120313.08127.179561l7.006644-7.017979c-.05642-.02653-.110767-.0548-.168221-.07938z"/><path d="m12.248568 68.24555c-.219028.107519-.429113.225816-.604835.33833l-1.42325 1.432703c-.124073.184093-.2283567.378779-.3288755.578374z"/><path d="m35.950542 68.24555c-.219027.107519-.427226.225816-.602948.33833l-1.42325 1.432703c-.124083.184093-.228347.378779-.328875.578374z"/><path d="m17.176088 68.360847l-7.1861972 7.186198c.030484.05451.064083.107364.096396.16066l7.248568-7.248573c-.05332-.03245-.104264-.06768-.158767-.09829z"/><path d="m40.878063 68.360847l-7.186198 7.186198c.03048.05451.06597.107364.09828.16066l7.248568-7.248573c-.05332-.03245-.106141-.06768-.160653-.09829z"/><path d="m17.637273 68.663264l-7.344965 7.346859c.0331.04693.06176.09597.0964.141758l7.390333-7.390331c-.04577-.03468-.09479-.06507-.141764-.09829z"/><path d="m41.341134 68.663264l-7.346851 7.346859c.0331.04693.06365.09597.09828.141758l7.390332-7.390331c-.04577-.03468-.09479-.06507-.141764-.09829z"/><path d="m18.064441 68.994034l-7.443257 7.443253c.03968.04563.08356.08808.124751.132308l7.452702-7.460265c-.04335-.04041-.08953-.07634-.134196-.115296z"/><path d="m41.768303 68.994034l-7.445145 7.443253c.03968.04563.08356.08808.124751.132308l7.452702-7.460265c-.04326-.04041-.08765-.07634-.132308-.115296z"/><path d="m18.446242 69.366385l-7.443257 7.452704c.04152.03895.08192.07769.124751.115297l7.443257-7.443253c-.0389-.04444-.08444-.08165-.124751-.124748z"/><path d="m42.150104 69.366385l-7.443258 7.452704c.04152.03895.08192.07769.124751.115297l7.443258-7.443253c-.0389-.04444-.08443-.08165-.124751-.124748z"/><path d="m18.794018 69.767089l-7.390322 7.390331c.0509.03901.09882.07814.151208.115296l7.344965-7.354419c-.03532-.0497-.0689-.102802-.105851-.151208z"/><path d="m42.497889 69.767089l-7.392229 7.390331c.0509.03901.09882.07814.151209.115296l7.346861-7.354419c-.03532-.0497-.0689-.102802-.105841-.151208z"/><path d="m19.10589 70.230166l-7.248568 7.246682c.05187.03164.105716.05895.158767.08884l7.186197-7.184308c-.02971-.0527-.06495-.09964-.0964-.151209z"/><path d="m42.807864 70.230166l-7.248578 7.246682c.05187.03164.107622.05895.160664.08884l7.186198-7.184308c-.02971-.0527-.06684-.09964-.09828-.151209z"/><path d="m19.36294 70.717814l-7.016088 7.017979c.05982.02835.11666.0627.177676.08884l6.927251-6.929143c-.02613-.0611-.06047-.117779-.08884-.177671z"/><path d="m43.066811 70.717814l-7.017985 7.017979c.05981.02835.116651.0627.177676.08884l6.929138-6.929143c-.02613-.0611-.06047-.117779-.08883-.177671z"/><path d="m19.585975 71.260276l-6.696659 6.696659c.06194.02129.122264.04335.185235.06237l6.573804-6.579473c-.01839-.06088-.04186-.119628-.06238-.179561z"/><path d="m43.287949 71.260276l-6.696659 6.696659c.06193.02129.124161.04335.187122.06237l6.571907-6.579473c-.01839-.06088-.04185-.119628-.06237-.179561z"/><path d="m19.754196 71.848099l-6.278944 6.278947c.07093.01535.141608.03101.213579.04347l6.110733-6.108836c-.01239-.0717-.03008-.142902-.04537-.213584z"/><path d="m43.458057 71.848099l-6.278944 6.278947c.07093.01535.141599.03101.213579.04347l6.108836-6.108836c-.01239-.0717-.02818-.142902-.04347-.213584z"/><path d="m19.85248 72.505858l-5.719468 5.719473c.07897.0069.160103.01368.240047.01701l5.496433-5.505891c-.0029-.07696-.01043-.154516-.01701-.230593z"/><path d="m43.554454 72.505858l-5.717581 5.719473c.07897.0069.160112.01368.240047.01701l5.496434-5.505891c-.0029-.07696-.01232-.154516-.0189-.230593z"/><path d="m19.860047 73.261902l-4.970991 4.97099c.08245-.0045.168077.000717.249492-.0075h.0095l4.704477-4.704484c.00029-.0029-.000281-.0066 0-.0095.0077-.08142.0037-.167022.0075-.249494z"/><path d="m43.563908 73.261902l-4.97099 4.97099c.08245-.0045.168076.000717.249492-.0075h.0075l4.704486-4.704484c.00031-.0029-.000319-.0066 0-.0095.0087-.08142.0056-.167022.0095-.249494z"/><path d="m19.744751 74.123792l-3.991913 3.993803c.116661-.02606.232277-.05519.345889-.08884l3.557186-3.547736c.03465-.116275.06213-.237761.08884-.357231z"/><path d="m43.448612 74.123792l-3.993809 3.993803c.116661-.02606.234163-.05519.347785-.08884l3.557186-3.547736c.03464-.116275.06213-.237761.08884-.357231z"/><path d="m19.317583 75.325902l-2.364529 2.364528c.193973-.09707.379992-.200093.559478-.319428l1.459162-1.449715c.0039-.0054.0056-.01154.0095-.01701.123745-.184578.236341-.378355.336443-.578375z"/><path d="m43.021444 75.325902l-2.364529 2.364528c.193973-.09707.380001-.200093.559478-.319428l1.459162-1.449715c.0039-.0054.0037-.01154.0075-.01701.123744-.184578.238237-.378355.33833-.578375z"/><path d="m10.585271 79.495485l-5.585271 5.585276v.258945l5.842331-5.844221z"/><path d="m11.35077 79.495485l-6.35077 6.34132v.266505l6.598375-6.607825z"/><path d="m12.114372 79.495485l-7.114372 7.116265v.247604l7.363864-7.363869z"/><path d="m12.860971 79.495485l-7.860971 7.862859v.257054l8.119908-8.119913z"/><path d="m13.62646 79.495485l-8.62646 8.628353v.247605l8.875952-8.875958z"/><path d="m14.382504 79.495485l-9.382504 9.382508v.241934l9.631997-9.624442z"/><path d="m15.148003 79.495485l-10.148003 10.138552v.258945l10.388041-10.397497z"/><path d="m15.894593 79.495485l-10.894593 10.904046v.240044l11.151652-11.14409z"/><path d="m16.650637 79.495485l-11.650637 11.66009v.249495l11.907696-11.909585z"/><path d="m17.406681 79.495485l-12.406681 12.416134v.249495l12.673186-12.665629z"/><path d="m18.162725 79.495485l-13.162725 13.162728v.240044l13.419785-13.402772z"/><path d="m34.289132 79.495485l-5.585271 5.585276v.258945l5.842331-5.844221z"/><path d="m35.052744 79.495485l-6.348883 6.34132v.266505l6.598375-6.607825z"/><path d="m35.818233 79.495485l-7.114372 7.116265v.247604l7.363865-7.363869z"/><path d="m36.564832 79.495485l-7.860971 7.862859v.257054l8.119909-8.119913z"/><path d="m37.330322 79.495485l-8.626461 8.628353v.247605l8.875953-8.875958z"/><path d="m38.086366 79.495485l-9.382505 9.382508v.241934l9.63011-9.624442z"/><path d="m38.849968 79.495485l-10.146107 10.138552v.258945l10.386154-10.397497z"/><path d="m39.598454 79.495485l-10.894593 10.904046v.240044l11.151653-11.14409z"/><path d="m40.354498 79.495485l-11.650637 11.66009v.249495l11.907697-11.909585z"/><path d="m41.110542 79.495485l-12.406681 12.416134v.249495l12.673186-12.665629z"/><path d="m41.864699 79.495485l-13.160838 13.162728v.240044l13.419785-13.402772z"/><path d="m10.078729 79.504969c-.089525-.0026-.192715.0052-.2665146.0189l-4.7857565 4.774418c-.00968.09115-.012658.184059-.017013.275956l5.0692841-5.069275z"/><path d="m18.918769 79.504969l-13.777015 13.767531h.2589469l13.7486601-13.748661c-.07626-.0089-.153764-.0138-.230592-.0189z"/><path d="m33.780693 79.504969c-.08952-.0026-.192705.0052-.266505.0189l-4.783869 4.774418c-.0097.09115-.01454.184059-.0189.275956l5.069274-5.069275z"/><path d="m42.620743 79.504969l-13.775128 13.767531h.25706l13.750547-13.748661c-.07626-.0089-.155651-.0138-.232479-.0189z"/><path d="m19.57653 79.603223l-13.6787319 13.669277h.2495018l13.6333641-13.625804c-.06803-.01738-.135406-.02903-.204134-.04347z"/><path d="m43.280391 79.603223l-13.678732 13.669277h.249502l13.633364-13.625804c-.06803-.01738-.135406-.02903-.204134-.04347z"/><path d="m9.1979341 79.629681c-.1236864.02918-.2437245.05969-.3647883.09829l-3.6025536 3.60066c-.038709.121183-.066987.241023-.096396.364791l4.0637381-4.063737z"/><path d="m32.901795 79.629681c-.123686.02918-.243724.05969-.364788.09829l-3.602554 3.60066c-.03881.121183-.06887.241023-.09828.364791l4.065625-4.063737z"/><path d="m20.181365 79.763883l-13.508623 13.508617h.2570599l13.4386841-13.438682c-.06164-.02413-.124576-.04823-.187121-.06994z"/><path d="m43.885226 79.763883l-13.51051 13.508617h.258947l13.436797-13.438682c-.06165-.02413-.122689-.04823-.185234-.06994z"/><path d="m20.714375 79.985026l-13.3044888 13.287474h.2665049l13.1986379-13.206199c-.05342-.0277-.106355-.0554-.160654-.08127z"/><path d="m44.418236 79.985026l-13.304489 13.287474h.266505l13.198647-13.206199c-.05342-.0277-.106364-.0554-.160663-.08127z"/><path d="m7.9712507 80.092762c-.2152149.114155-.4245556.239928-.6237351.381803l-1.3419794 1.343868c-.147183.205044-.2827436.416695-.400701.638857z"/><path d="m31.673225 80.092762c-.215225.114155-.422669.239928-.621848.381803l-1.343867 1.343868c-.147183.205044-.280866.416695-.398814.638857z"/><path d="m21.194459 80.251531l-13.0096288 13.020969h.247605l12.9321328-12.922683c-.05439-.03565-.114619-.06458-.170109-.09829z"/><path d="m44.89832 80.251531l-13.011516 13.020969h.249492l12.930246-12.922683c-.05439-.03565-.112722-.06458-.168222-.09829z"/><path d="m21.65754 80.5634l-12.7261109 12.7091h.266505l12.5938019-12.601364c-.04423-.03532-.08895-.07376-.134196-.107736z"/><path d="m45.361401 80.5634l-12.727998 12.7091h.268392l12.591915-12.601364c-.04423-.03532-.08707-.07376-.132309-.107736z"/><path d="m22.065799 80.91118l-12.3783258 12.36132h.2665049l12.2460269-12.246023c-.04239-.0409-.09062-.07572-.134206-.115297z"/><path d="m45.76966 80.91118l-12.380213 12.36132h.268392l12.246027-12.246023c-.04239-.0409-.09061-.07572-.134206-.115297z"/><path d="m22.449497 81.283531l-11.998422 11.988969h.258947l11.854771-11.854771c-.03852-.04461-.07545-.09076-.115296-.134198z"/><path d="m46.151471 81.283531l-11.996535 11.988969h.25706l11.856658-11.854771c-.03852-.04461-.07734-.09076-.117183-.134198z"/><path d="m22.795385 81.693686l-11.595824 11.578814h.274063l11.429499-11.437056c-.03455-.04852-.07166-.09431-.107738-.141758z"/><path d="m46.499246 81.693686l-11.597711 11.578814h.27595l11.427612-11.437056c-.03455-.04852-.06977-.09431-.105851-.141758z"/><path d="m23.097803 82.147312l-11.125185 11.125188h.249492l10.973976-10.973979c-.02981-.05199-.06674-.100161-.09828-.151209z"/><path d="m46.801664 82.147312l-11.125185 11.125188h.247605l10.975863-10.973979c-.02981-.05199-.06674-.100161-.09828-.151209z"/><path d="m23.373763 82.634961l-10.645101 10.637539h.266505l10.457979-10.46743c-.02516-.0567-.05229-.114265-.07938-.170109z"/><path d="m47.077624 82.634961l-10.645101 10.637539h.266505l10.457979-10.46743c-.02516-.0567-.05229-.114265-.07938-.170109z"/><path d="m23.596787 83.160411l-10.112081 10.112089h.266505l9.907956-9.924968c-.01984-.06273-.04022-.12517-.06238-.187121z"/><path d="m47.298761 83.160411l-10.110194 10.112089h.266505l9.90607-9.924968c-.01984-.06273-.04012-.12517-.06238-.187121z"/><path d="m23.774464 83.748236l-9.526156 9.524264h.241934l9.320134-9.312572c-.01268-.07074-.02004-.141638-.03591-.211692z"/><path d="m47.476438 83.748236l-9.524268 9.524264h.240047l9.320133-9.312572c-.01268-.07074-.02004-.141638-.03591-.211692z"/><path d="m23.872747 84.405994l-8.875953 8.866506h.257051l8.62646-8.635913c-.0029-.07716-.0017-.153923-.0075-.230593z"/><path d="m47.574721 84.405994l-8.875962 8.866506h.258947l8.62646-8.635913c-.0029-.07716-.0037-.153923-.0095-.230593z"/><path d="m23.88976 85.143137l-8.119918 8.129363h.240047l7.879871-7.870418z"/><path d="m47.593621 85.143137l-8.119909 8.129363h.240038l7.879871-7.870418z"/><path d="m23.88976 85.89162l-7.373319 7.38088h.249492l7.123827-7.123825z"/><path d="m47.593621 85.89162l-7.373319 7.38088h.249492l7.123827-7.123825z"/><path d="m23.88976 86.655225l-6.60783 6.617275h.249502l6.358328-6.35833z"/><path d="m47.593621 86.655225l-6.60782 6.617275h.247595l6.360225-6.35833z"/><path d="m23.88976 87.411269l-5.842331 5.861231h.230592l5.611739-5.594726z"/><path d="m47.593621 87.411269l-5.844218 5.861231h.232479l5.611739-5.594726z"/><path d="m23.88976 88.176763l-5.095742 5.095737h.249502l4.84624-4.846242z"/><path d="m47.593621 88.176763l-5.095732 5.095737h.247595l4.848137-4.846242z"/><path d="m23.88976 88.923357l-4.339698 4.349143h.25706l4.082638-4.082638z"/><path d="m47.593621 88.923357l-4.341585 4.349143h.258947l4.082638-4.082638z"/><path d="m23.88976 89.688851l-3.583654 3.583649h.247605l3.336049-3.326594z"/><path d="m47.593621 89.688851l-3.585541 3.583649h.249492l3.336049-3.326594z"/><path d="m23.88976 90.444895l-2.82761 2.827605h.25706l2.57055-2.57055z"/><path d="m47.593621 90.444895l-2.829497 2.827605h.258947l2.57055-2.57055z"/><path d="m23.88976 91.2085l-2.063998 2.064h.240037l1.823961-1.823956z"/><path d="m47.593621 91.2085l-2.063998 2.064h.240037l1.823961-1.823956z"/><path d="m23.88976 91.955093l-1.315522 1.317407h.266515l1.049007-1.049011z"/><path d="m47.593621 91.955093l-1.317409 1.317407h.266505l1.050904-1.049011z"/><path d="m23.88976 92.720588l-.55191.551912h.249492l.302418-.302418z"/><path d="m47.593621 92.720588l-.55191.551912h.249492l.302418-.302418z"/><path d="m85.919812 67.69487l-5.478349 5.478349c.003.07987.0023.161201.0089.240123l5.709579-5.700685c-.07903-.0067-.160138-.01459-.240123-.01779z"/><path d="m85.412886 67.703763c-.09137.005-.185623-.000724-.275695.0089l-4.677942 4.686834c-.0093.08721-.0039.178377-.0089.266803z"/><path d="m86.613499 67.766017l-6.100889 6.10089c.01212.07101.02065.14342.03557.213442l6.278758-6.278758c-.06996-.01509-.142489-.02329-.213443-.03557z"/><path d="m84.532438 67.819378c-.119114.02709-.230957.06283-.346844.09783l-3.521796 3.521796c-.0333.110651-.06282.224377-.08894.33795z"/><path d="m87.218252 67.908312l-6.563347 6.57224c.01963.06615.04012.130624.06225.195656l6.705643-6.696749c-.06861-.02359-.134694-.05033-.204549-.07115z"/><path d="m87.778538 68.11286l-6.919085 6.919085c.02566.06043.05223.118621.08004.177868l7.008019-7.016911c-.05639-.02653-.111521-.05546-.168975-.08004z"/><path d="m83.358506 68.246262c-.219024.107519-.429034.225436-.604754.33795l-1.422948 1.431841c-.124077.184094-.228531.378478-.329057.578073z"/><path d="m88.285463 68.361876l-7.185887 7.185888c.0305.05451.06547.106785.09783.160081l7.248142-7.248141c-.05329-.03245-.105571-.06723-.160082-.09783z"/><path d="m88.747921 68.664253l-7.345969 7.345969c.03312.04694.06323.0965.09783.142294l7.390436-7.390435c-.04579-.03468-.09536-.06462-.142295-.09783z"/><path d="m89.174806 68.99331l-7.443797 7.443796c.03969.04563.0833.08918.124507.133402l7.452691-7.461584c-.04331-.04041-.08876-.07665-.133401-.115614z"/><path d="m89.557223 69.366834l-7.443797 7.45269c.04154.03895.08171.07801.124508.115614l7.443797-7.443796c-.03887-.04444-.08419-.08141-.124508-.124508z"/><path d="m89.904067 69.767037l-7.390437 7.390437c.05094.03901.0988.07845.151189.115614l7.345969-7.354862c-.03532-.0497-.06975-.102782-.106721-.151189z"/><path d="m90.215336 70.229495l-7.248141 7.248142c.05189.03164.107035.05905.160082.08894l7.185887-7.185887c-.02969-.0527-.0664-.09962-.09783-.151189z"/><path d="m90.473246 70.718634l-7.016913 7.016912c.05981.02835.116849.0628.177869.08894l6.927978-6.927977c-.02614-.0611-.06059-.117977-.08893-.177869z"/><path d="m90.695581 71.261133l-6.696748 6.696749c.06194.02129.123792.04323.186761.06225l6.572242-6.581135c-.01839-.06088-.04176-.117935-.06225-.177868z"/><path d="m90.864556 71.848099l-6.278758 6.278758c.07094.01535.141466.032.213443.04447l6.109782-6.109783c-.01241-.0717-.0292-.14276-.04447-.213442z"/><path d="m90.962384 72.506212l-5.718472 5.718473c.07898.0069.160184.01446.240122.01779l5.496136-5.505035c-.0033-.07696-.0112-.155152-.01779-.231229z"/><path d="m90.971277 73.262154l-4.971426 4.971424c.08246-.0045.167599-.000625.249016-.0089h.0089l4.704623-4.704621c.000312-.0029-.000313-.006 0-.0089.0083-.08142.0044-.166545.0089-.249017z"/><path d="m90.855661 74.124816l-3.993147 3.993148c.116661-.02606.233224-.05529.346843-.08893l3.557371-3.548478c.03464-.116274.06225-.236266.08893-.355736z"/><path d="m90.428777 75.325428l-2.365651 2.365652c.193975-.09707.380802-.200829.560286-.320164l1.458522-1.449629c.0037-.0054.0052-.01232.0089-.01779.123746-.184577.237853-.378052.337951-.578071z"/><path d="m81.695435 79.496444l-5.585071 5.585071v.25791l5.842981-5.842981z"/><path d="m82.46027 79.496444l-6.349906 6.341013v.266803l6.598921-6.607816z"/><path d="m83.225104 79.496444l-7.11474 7.11474v.249016l7.363756-7.363756z"/><path d="m83.972152 79.496444l-7.861788 7.861788v.25791l8.119698-8.119698z"/><path d="m84.736986 79.496444l-8.626622 8.626622v.249016l8.875638-8.875638z"/><path d="m85.492928 79.496444l-9.382564 9.382564v.240122l9.63158-9.622686z"/><path d="m86.257762 79.496444l-10.147398 10.138505v.25791l10.38752-10.396415z"/><path d="m87.00481 79.496444l-10.894446 10.903339v.240123l11.152355-11.143462z"/><path d="m87.760751 79.496444l-11.650387 11.659281v.249016l11.908297-11.908297z"/><path d="m88.516692 79.496444l-12.406328 12.415221v.249016l12.673131-12.664237z"/><path d="m89.272633 79.496444l-13.162269 13.162269v.240123l13.420179-13.402392z"/><path d="m80.921708 79.523125l-4.784663 4.775769c-.0097.09115-.0135.183799-.01779.275696l5.069253-5.069252c-.08952-.0026-.193005.0041-.266802.01779z"/><path d="m90.028575 79.505337l-13.775916 13.767023h.25791l13.749235-13.749235c-.07625-.0089-.154401-.01269-.231229-.01779z"/><path d="m90.686688 79.603165l-13.678088 13.669195h.249016l13.63362-13.624727c-.068-.01738-.135819-.03003-.204548-.04447z"/><path d="m80.308061 79.629846c-.123685.02918-.243564.05924-.36463.09783l-3.601838 3.601838c-.03876.121183-.0684.240862-.09783.36463z"/><path d="m91.291441 79.763247l-13.509113 13.509113h.25791l13.437964-13.437966c-.06169-.02412-.12422-.04944-.186761-.07115z"/><path d="m91.825046 79.985583l-13.304563 13.286777h.266802l13.197843-13.206737c-.05346-.0277-.10578-.05417-.160082-.08004z"/><path d="m79.080768 80.092304c-.215221.114154-.42336.240542-.62254.382417l-1.342907 1.342907c-.147181.205044-.282248.418164-.400204.640327z"/><path d="m92.305291 80.252386l-13.011081 13.019974h.249016l12.93104-12.922147c-.05434-.03565-.113483-.06412-.168975-.09783z"/><path d="m92.767749 80.563655l-12.726491 12.708705h.266803l12.593089-12.601984c-.04425-.03532-.08816-.07274-.133401-.106721z"/><path d="m93.176847 80.910499l-12.379648 12.361861h.266803l12.246246-12.246247c-.04242-.0409-.08977-.07604-.133401-.115614z"/><path d="m93.559264 81.284023l-11.99723 11.988337h.257909l11.854936-11.854936c-.03848-.04461-.07579-.08997-.115615-.133401z"/><path d="m93.906108 81.693121l-11.597026 11.579239h.275695l11.428052-11.436945c-.03451-.04852-.07069-.09484-.106721-.142294z"/><path d="m94.208485 82.146685l-11.125676 11.125675h.249016l10.974488-10.974487c-.02985-.05199-.0663-.10014-.09783-.151188z"/><path d="m94.484182 82.635824l-10.645431 10.636536h.266802l10.458669-10.467562c-.02512-.0567-.05294-.11313-.08004-.168974z"/><path d="m94.706516 83.160535l-10.111825 10.111825h.266803l9.907277-9.925062c-.01984-.06273-.04002-.124812-.06225-.186763z"/><path d="m94.884384 83.747501l-9.524858 9.524859h.240123l9.32031-9.311416c-.01271-.07074-.01978-.143388-.03557-.213443z"/><path d="m94.982212 84.405615l-8.875638 8.866745h.25791l8.626621-8.635516c-.0025-.07716-.0025-.154559-.0089-.231229z"/><path d="m95 85.14377l-8.119698 8.12859h.240122l7.879576-7.870682z"/><path d="m95 85.890817l-7.37265 7.381543h.249016l7.123634-7.123634z"/><path d="m95 86.655652l-6.607815 6.616708h.249015l6.3588-6.358799z"/><path d="m95 87.411592l-5.842981 5.860768h.231229l5.611752-5.593965z"/><path d="m95 88.176427l-5.095933 5.095933h.249015l4.846918-4.846917z"/><path d="m95 88.923475l-4.339993 4.348885h.25791l4.082083-4.082083z"/><path d="m95 89.688309l-3.584051 3.584051h.249016l3.335035-3.326141z"/><path d="m95 90.444251l-2.828111 2.828109h.25791l2.570201-2.5702z"/><path d="m95 91.209086l-2.063276 2.063274h.240123l1.823153-1.823153z"/><path d="m95 91.956133l-1.316228 1.316227h.266803l1.049425-1.049424z"/><path d="m95 92.720968l-.551394.551392h.249017l.302377-.302377z"/><path d="m62.216139 67.69487l-5.478349 5.478349c.003.07987.0022.161201.0089.240123l5.709575-5.700685c-.07904-.0067-.160138-.01459-.240121-.01779z"/><path d="m61.709214 67.703763c-.09137.005-.185625-.000724-.275698.0089l-4.677941 4.686834c-.0093.08721-.0039.178377-.0089.266803z"/><path d="m62.909826 67.766017l-6.100891 6.10089c.01214.07101.02066.14342.03557.213442l6.278756-6.278758c-.06996-.01509-.142486-.02329-.213441-.03557z"/><path d="m60.828765 67.819378c-.119115.02709-.230956.06283-.346845.09783l-3.521796 3.521796c-.0333.110651-.06282.224377-.08893.33795z"/><path d="m63.514577 67.908312l-6.563346 6.57224c.01964.06615.04012.130624.06226.195656l6.705642-6.696749c-.06861-.02359-.134692-.05033-.20455-.07115z"/><path d="m64.074864 68.11286l-6.919083 6.919085c.02566.06043.05223.118621.08004.177868l7.008019-7.016911c-.05639-.02653-.111521-.05546-.168976-.08004z"/><path d="m59.654832 68.246262c-.219023.107519-.429034.225436-.604754.33795l-1.422947 1.431841c-.124076.184094-.228532.378478-.329057.578073z"/><path d="m64.58179 68.361876l-7.185888 7.185888c.0305.05451.06548.106785.09783.160081l7.24814-7.248141c-.05329-.03245-.10557-.06723-.160081-.09783z"/><path d="m65.044248 68.664253l-7.345969 7.345969c.03312.04694.06323.0965.09783.142294l7.390436-7.390435c-.04579-.03468-.09536-.06462-.142296-.09783z"/><path d="m65.471133 68.99331l-7.443796 7.443796c.03969.04563.08329.08918.124508.133402l7.45269-7.461584c-.04331-.04041-.08876-.07665-.133402-.115614z"/><path d="m65.853551 69.366834l-7.443797 7.45269c.04154.03895.08172.07801.124508.115614l7.443795-7.443796c-.03887-.04444-.08419-.08141-.124506-.124508z"/><path d="m66.200393 69.767037l-7.390436 7.390437c.05095.03901.0988.07845.151188.115614l7.345969-7.354862c-.03532-.0497-.06974-.102782-.106721-.151189z"/><path d="m66.511663 70.229495l-7.248141 7.248142c.05189.03164.107036.05905.160081.08894l7.185888-7.185887c-.02969-.0527-.06641-.09962-.09783-.151189z"/><path d="m66.769572 70.718634l-7.016911 7.016912c.05981.02835.116849.0628.177868.08894l6.927978-6.927977c-.02615-.0611-.06059-.117977-.08894-.177869z"/><path d="m66.991909 71.261133l-6.69675 6.696749c.06195.02129.123792.04323.186761.06225l6.572241-6.581135c-.01839-.06088-.04176-.117935-.06225-.177868z"/><path d="m67.160882 71.848099l-6.278757 6.278758c.07094.01535.141467.032.213441.04447l6.109784-6.109783c-.01242-.0717-.0292-.14276-.04447-.213442z"/><path d="m67.25871 72.506212l-5.71847 5.718473c.07897.0069.160183.01446.240122.01779l5.496136-5.505032c-.0033-.07696-.0112-.155152-.01779-.231229z"/><path d="m67.267602 73.262154l-4.971422 4.971424c.08246-.0045.167597-.000625.249014-.0089h.0089l4.704623-4.704621c.000285-.0029-.000283-.006 0-.0089.0082-.08142.0044-.166545.0089-.249017z"/><path d="m67.15199 74.124816l-3.99315 3.993148c.116662-.02606.233225-.05529.346845-.08893l3.557372-3.548478c.03464-.116274.06224-.236266.08893-.355736z"/><path d="m66.725104 75.325428l-2.36565 2.365652c.193974-.09707.3808-.200829.560285-.320164l1.458523-1.449629c.0037-.0054.0052-.01232.0089-.01779.123744-.184577.237851-.378052.337949-.578071z"/><path d="m57.991761 79.496444l-5.585069 5.585071v.25791l5.842978-5.842981z"/><path d="m58.756596 79.496444l-6.349904 6.341013v.266803l6.598921-6.607816z"/><path d="m59.521432 79.496444l-7.11474 7.11474v.249016l7.363756-7.363756z"/><path d="m60.268479 79.496444l-7.861787 7.861788v.25791l8.119696-8.119698z"/><path d="m61.033314 79.496444l-8.626622 8.626622v.249016l8.875639-8.875638z"/><path d="m61.789253 79.496444l-9.382561 9.382564v.240122l9.631578-9.622686z"/><path d="m62.554089 79.496444l-10.147397 10.138505v.25791l10.387519-10.396415z"/><path d="m63.301136 79.496444l-10.894444 10.903339v.240123l11.152354-11.143462z"/><path d="m64.057079 79.496444l-11.650387 11.659281v.249016l11.908296-11.908297z"/><path d="m64.813019 79.496444l-12.406327 12.415221v.249016l12.673128-12.664237z"/><path d="m65.568959 79.496444l-13.162267 13.162269v.240123l13.420179-13.402392z"/><path d="m57.218033 79.523125l-4.784662 4.775769c-.0097.09115-.0135.183799-.01779.275696l5.069254-5.069252c-.08951-.0026-.193005.0041-.266805.01779z"/><path d="m66.324901 79.505337l-13.775916 13.767023h.257912l13.749233-13.749235c-.07625-.0089-.154399-.01269-.231229-.01779z"/><path d="m66.983016 79.603165l-13.678089 13.669195h.249017l13.633621-13.624727c-.068-.01738-.135819-.03003-.204549-.04447z"/><path d="m56.604387 79.629846c-.123685.02918-.243563.05924-.36463.09783l-3.601836 3.601838c-.03876.121183-.0684.240862-.09783.36463z"/><path d="m67.587767 79.763247l-13.509112 13.509113h.257909l13.437965-13.437966c-.06169-.02412-.124219-.04944-.186762-.07115z"/><path d="m68.121373 79.985583l-13.304563 13.286777h.266801l13.197843-13.206737c-.05346-.0277-.105779-.05417-.160081-.08004z"/><path d="m55.377097 80.092304c-.215224.114154-.423362.240542-.622542.382417l-1.342907 1.342907c-.147182.205044-.282248.418164-.400205.640327z"/><path d="m68.601619 80.252386l-13.011081 13.019974h.249017l12.931038-12.922147c-.05434-.03565-.113482-.06412-.168974-.09783z"/><path d="m69.064077 80.563655l-12.726492 12.708705h.266802l12.593092-12.601984c-.04425-.03532-.08816-.07274-.133402-.106721z"/><path d="m69.473175 80.910499l-12.37965 12.361861h.266804l12.246247-12.246247c-.04242-.0409-.08978-.07604-.133401-.115614z"/><path d="m69.85559 81.284023l-11.99723 11.988337h.25791l11.854936-11.854936c-.03848-.04461-.07579-.08997-.115616-.133401z"/><path d="m70.202435 81.693121l-11.597028 11.579239h.275698l11.42805-11.436945c-.03451-.04852-.07069-.09484-.10672-.142294z"/><path d="m70.504812 82.146685l-11.125677 11.125675h.249017l10.974489-10.974487c-.02985-.05199-.0663-.10014-.09783-.151188z"/><path d="m70.780506 82.635824l-10.645428 10.636536h.266801l10.45867-10.467562c-.02512-.0567-.05293-.11313-.08004-.168974z"/><path d="m71.002842 83.160535l-10.111824 10.111825h.266805l9.907276-9.925062c-.01984-.06273-.04003-.124812-.06226-.186763z"/><path d="m71.180711 83.747501l-9.524858 9.524859h.240121l9.32031-9.311416c-.01271-.07074-.01978-.143388-.03557-.213443z"/><path d="m71.27854 84.405615l-8.875639 8.866745h.257908l8.626623-8.635516c-.0025-.07716-.0025-.154559-.0089-.231229z"/><path d="m71.296328 85.14377l-8.1197 8.12859h.240125l7.879575-7.870682z"/><path d="m71.296328 85.890817l-7.372653 7.381543h.249017l7.123636-7.123634z"/><path d="m71.296328 86.655652l-6.607818 6.616708h.249017l6.358801-6.358799z"/><path d="m71.296328 87.411592l-5.842982 5.860768h.231229l5.611753-5.593965z"/><path d="m71.296328 88.176427l-5.095935 5.095933h.249017l4.846918-4.846917z"/><path d="m71.296328 88.923475l-4.339992 4.348885h.257909l4.082083-4.082083z"/><path d="m71.296328 89.688309l-3.584052 3.584051h.249016l3.335036-3.326141z"/><path d="m71.296328 90.444251l-2.828112 2.828109h.257909l2.570203-2.5702z"/><path d="m71.296328 91.209086l-2.063277 2.063274h.240124l1.823153-1.823153z"/><path d="m71.296328 91.956133l-1.316229 1.316227h.266804l1.049425-1.049424z"/><path d="m71.296328 92.720968l-.551394.551392h.249017l.302377-.302377z"/><path d="m62.000099 37.211314c-2.754014 0-5.258757 2.50664-5.257303 5.2605.0015 2.751745 2.505407 5.25469 5.257303 5.25469 2.751897 0 5.25585-2.502945 5.257885-5.25469.002-2.754565-2.503874-5.2605-5.257885-5.2605z"/><path d="m14.809573 37.211314l-5.4783487 5.478349c.003.07987.00232.1612.0089.240123l5.7095787-5.700685c-.07903-.0067-.160138-.01459-.240122-.01779z"/><path d="m14.302648 37.220207c-.09137.005-.185624-.000725-.275696.0089l-4.6779417 4.686835c-.00929.08721-.00387.178377-.0089.266803z"/><path d="m15.50326 37.282461l-6.1008887 6.10089c.012126.07101.020651.14342.035574.213442l6.2787577-6.278758c-.06996-.01509-.142488-.02329-.213443-.03557z"/><path d="m13.422199 37.335822c-.119114.02709-.230957.06282-.346843.09783l-3.5217962 3.521796c-.0333.110651-.062816.224377-.088935.33795z"/><path d="m16.108013 37.424756l-6.5633467 6.57224c.019635.06614.040122.130624.062254.195656l6.7056437-6.696749c-.06861-.02359-.134695-.05033-.20455-.07115z"/><path d="m16.6683 37.629304l-6.9190852 6.919085c.025655.06043.052229.11862.080041.177868l7.0080192-7.016911c-.05639-.02654-.111521-.05546-.168974-.08004z"/><path d="m12.248267 37.762706c-.219024.107519-.429033.225436-.604754.33795l-1.422948 1.431841c-.124076.184094-.2285307.378478-.3290562.578073z"/><path d="m17.175224 37.87832l-7.1858867 7.185888c.030503.05451.065467.106785.097827.160081l7.248141-7.248141c-.05329-.03245-.10557-.06723-.160081-.09783z"/><path d="m17.637682 38.180697l-7.345969 7.345969c.03312.04693.06323.0965.09783.142294l7.390435-7.390435c-.04579-.03468-.09536-.06462-.142295-.09783z"/><path d="m18.064567 38.509754l-7.443796 7.443796c.03969.04563.0833.08918.124507.133402l7.452691-7.461584c-.04331-.04041-.08876-.07665-.133402-.115614z"/><path d="m18.446985 38.883278l-7.443798 7.45269c.04154.03895.08172.07801.124508.115614l7.443798-7.443796c-.03887-.04444-.08419-.08141-.124508-.124508z"/><path d="m18.793828 39.283481l-7.390436 7.390437c.05094.03901.0988.07845.151188.115614l7.345969-7.354862c-.03532-.0497-.06975-.102783-.106721-.151189z"/><path d="m19.105098 39.745939l-7.248142 7.248142c.05189.03165.107036.05905.160082.08894l7.185887-7.185887c-.02969-.0527-.0664-.09962-.09783-.151189z"/><path d="m19.363007 40.235078l-7.016912 7.016912c.05981.02835.116849.0628.177869.08893l6.927977-6.927977c-.02614-.0611-.06059-.117977-.08893-.177869z"/><path d="m19.585343 40.777577l-6.696749 6.696749c.06194.02129.123793.04323.186762.06225l6.572241-6.581135c-.01839-.06088-.04176-.117935-.06225-.177868z"/><path d="m19.754317 41.364543l-6.278758 6.278758c.07095.01535.141467.032.213443.04447l6.109783-6.109783c-.01241-.0717-.0292-.14276-.04447-.213442z"/><path d="m19.852146 42.022656l-5.718473 5.718473c.07898.0069.160185.01446.240123.01779l5.496136-5.505032c-.0033-.07696-.0112-.155152-.01779-.231229z"/><path d="m19.861038 42.778598l-4.971425 4.971424c.08246-.0045.167598-.000625.249016-.0089h.0089l4.704622-4.704622c.000313-.0029-.000312-.006 0-.0089.0083-.08143.0044-.166545.0089-.249018z"/><path d="m19.745423 43.64126l-3.993148 3.993148c.116662-.02606.233225-.05529.346844-.08894l3.557371-3.548478c.03465-.116274.06225-.236266.08893-.355736z"/><path d="m19.318539 44.841872l-2.365651 2.365652c.193975-.09707.380801-.200829.560285-.320164l1.458522-1.449629c.0037-.0054.0052-.01232.0089-.01779.123747-.184577.237854-.378052.337951-.578071z"/><path d="m10.585197 49.012888l-5.5850712 5.585071v.257909l5.8429802-5.84298z"/><path d="m11.350032 49.012888l-6.3499062 6.341012v.266803l6.5989212-6.607815z"/><path d="m12.114866 49.012888l-7.1147402 7.11474v.249016l7.3637562-7.363756z"/><path d="m12.861914 49.012888l-7.8617882 7.861788v.257909l8.1196972-8.119697z"/><path d="m13.626748 49.012888l-8.6266222 8.626622v.249016l8.8756382-8.875638z"/><path d="m14.382689 49.012888l-9.3825632 9.382563v.240123l9.6315792-9.622686z"/><path d="m15.147523 49.012888l-10.1473972 10.138505v.257909l10.3875202-10.396414z"/><path d="m15.894571 49.012888l-10.8944452 10.903339v.240122l11.1523552-11.143461z"/><path d="m16.650513 49.012888l-11.6503872 11.65928v.249016l11.9082962-11.908296z"/><path d="m17.406453 49.012888l-12.4063272 12.415221v.249016l12.6731302-12.664237z"/><path d="m18.162395 49.012888l-13.1622692 13.162269v.240122l13.4201782-13.402391z"/><path d="m9.8114693 49.039569l-4.784663 4.775769c-.00968.09115-.0135.183798-.017787.275695l5.0692527-5.069251c-.089516-.0026-.1930041.0041-.2668018.01779z"/><path d="m18.918336 49.021781l-13.7759152 13.767022h.2579095l13.7492347-13.749234c-.07625-.0089-.1544-.01269-.231229-.01779z"/><path d="m19.576449 49.119609l-13.6780877 13.669194h.249016l13.6336207-13.624726c-.068-.01738-.135819-.03003-.204549-.04447z"/><path d="m9.1978228 49.14629c-.1236855.02918-.2435638.05923-.3646305.09783l-3.6018375 3.601837c-.038758.121183-.0684.240862-.097828.364631z"/><path d="m20.181202 49.279691l-13.5091122 13.509112h.2579095l13.4379647-13.437965c-.06169-.02413-.12422-.04944-.186762-.07115z"/><path d="m20.714807 49.502027l-13.3045627 13.286776h.266802l13.1978427-13.206736c-.05346-.0277-.105779-.05417-.160082-.08004z"/><path d="m7.9705298 49.608748c-.2152207.114154-.4233605.240542-.62254.382417l-1.3429075 1.342907c-.1471811.205044-.282248.418164-.4002035.640327z"/><path d="m21.195052 49.76883l-13.0110802 13.019973h.249016l12.9310402-12.922146c-.05434-.03565-.113483-.06412-.168976-.09783z"/><path d="m21.65751 50.080099l-12.7264902 12.708704h.266803l12.5930892-12.601983c-.04425-.03532-.08816-.07274-.133402-.106721z"/><path d="m22.066608 50.426943l-12.3796477 12.36186h.266803l12.2462467-12.246246c-.04242-.0409-.08977-.07603-.133402-.115614z"/><path d="m22.449026 50.800467l-11.997231 11.988336h.25791l11.854935-11.854935c-.03848-.04461-.07579-.08997-.115614-.133401z"/><path d="m22.795869 51.209564l-11.597026 11.579239h.275696l11.428051-11.436944c-.03451-.04852-.07069-.09484-.106721-.142295z"/><path d="m23.098246 51.663129l-11.125675 11.125674h.249016l10.974488-10.974486c-.02984-.05199-.0663-.10014-.09783-.151188z"/><path d="m23.373944 52.152267l-10.645432 10.636536h.266802l10.45867-10.467561c-.02512-.0567-.05294-.11313-.08004-.168975z"/><path d="m23.596277 52.676979l-10.111824 10.111824h.266803l9.907277-9.925062c-.01984-.06273-.04002-.124811-.06226-.186762z"/><path d="m23.774145 53.263945l-9.524857 9.524858h.240122l9.320311-9.311415c-.01271-.07074-.01978-.143389-.03557-.213443z"/><path d="m23.871974 53.922059l-8.875638 8.866744h.257909l8.626621-8.635515c-.0025-.07716-.0025-.154559-.0089-.231229z"/><path d="m23.889762 54.660213l-8.119699 8.12859h.240123l7.879576-7.870681z"/><path d="m23.889762 55.40726l-7.372651 7.381543h.249016l7.123635-7.123633z"/><path d="m23.889762 56.172095l-6.607816 6.616708h.249015l6.358801-6.358798z"/><path d="m23.889762 56.928036l-5.842982 5.860767h.231229l5.611753-5.593964z"/><path d="m23.889762 57.692871l-5.095934 5.095932h.249015l4.846919-4.846916z"/><path d="m23.889762 58.439919l-4.339993 4.348884h.257909l4.082084-4.082082z"/><path d="m23.889762 59.204753l-3.584052 3.58405h.249016l3.335036-3.326141z"/><path d="m23.889762 59.960694l-2.828111 2.828109h.257909l2.570202-2.570199z"/><path d="m23.889762 60.725529l-2.063276 2.063274h.240122l1.823154-1.823152z"/><path d="m23.889762 61.472576l-1.316228 1.316227h.266803l1.049425-1.049424z"/><path d="m23.889762 62.237411l-.551394.551392h.249017l.302377-.302377z"/><path d="m38.513246 37.211314l-5.478349 5.478349c.003.07987.0022.1612.0089.240123l5.709575-5.700685c-.07903-.0067-.160138-.01459-.240122-.01779z"/><path d="m38.00632 37.220207c-.09137.005-.185624-.000725-.275697.0089l-4.677941 4.686835c-.0093.08721-.0039.178377-.0089.266803z"/><path d="m39.206933 37.282461l-6.100891 6.10089c.01214.07101.02066.14342.03557.213442l6.278756-6.278758c-.06996-.01509-.142487-.02329-.213441-.03557z"/><path d="m37.125872 37.335822c-.119115.02709-.230956.06282-.346846.09783l-3.521796 3.521793c-.0333.110651-.06282.224377-.08894.33795z"/><path d="m39.811684 37.424756l-6.563346 6.57224c.01963.06614.04012.130624.06225.195656l6.705642-6.696749c-.06861-.02359-.134691-.05033-.204549-.07115z"/><path d="m40.37197 37.629304l-6.919083 6.919085c.02567.06043.05223.11862.08004.177868l7.008019-7.016911c-.05639-.02654-.111521-.05546-.168977-.08004z"/><path d="m35.951939 37.762706c-.219023.107519-.429035.225436-.604754.33795l-1.422947 1.431841c-.124077.184094-.228532.378478-.329058.578073z"/><path d="m40.878897 37.87832l-7.185888 7.185888c.0305.05451.06548.106785.09783.160081l7.248141-7.248141c-.05329-.03245-.105571-.06723-.160081-.09783z"/><path d="m41.341355 38.180697l-7.345969 7.345969c.03312.04693.06323.0965.09783.142294l7.390437-7.390435c-.04579-.03468-.09536-.06462-.142296-.09783z"/><path d="m41.76824 38.509754l-7.443797 7.443796c.03969.04563.08329.08918.124508.133402l7.45269-7.461584c-.04331-.04041-.08876-.07665-.133401-.115614z"/><path d="m42.150657 38.883278l-7.443796 7.45269c.04154.03895.08172.07801.124508.115614l7.443794-7.443796c-.03887-.04444-.08419-.08141-.124506-.124508z"/><path d="m42.4975 39.283481l-7.390437 7.390437c.05095.03901.0988.07845.151189.115614l7.345969-7.354862c-.03532-.0497-.06974-.102783-.106721-.151189z"/><path d="m42.808769 39.745939l-7.24814 7.248142c.05189.03165.107035.05905.160081.08894l7.185888-7.185887c-.02969-.0527-.06641-.09962-.09783-.151189z"/><path d="m43.066679 40.235078l-7.016912 7.016912c.05981.02835.11685.0628.177868.08893l6.927979-6.927977c-.02615-.0611-.06059-.117977-.08893-.177869z"/><path d="m43.289015 40.777577l-6.696749 6.696749c.06194.02129.123792.04323.18676.06225l6.572242-6.581135c-.01839-.06088-.04176-.117935-.06226-.177868z"/><path d="m43.457989 41.364543l-6.278757 6.278758c.07094.01535.141466.032.213441.04447l6.109783-6.109783c-.01242-.0717-.0292-.14276-.04447-.213442z"/><path d="m43.555816 42.022656l-5.718469 5.718473c.07897.0069.160182.01446.240121.01779l5.496136-5.505032c-.0033-.07696-.0112-.155152-.01779-.231229z"/><path d="m43.564709 42.778598l-4.971423 4.971424c.08246-.0045.167598-.000625.249014-.0089h.0089l4.704624-4.704622c.000284-.0029-.000284-.006 0-.0089.0082-.08143.0044-.166545.0089-.249018z"/><path d="m43.449096 43.64126l-3.993149 3.993148c.116661-.02606.233224-.05529.346844-.08894l3.557372-3.548478c.03464-.116274.06224-.236266.08893-.355736z"/><path d="m43.02221 44.841872l-2.36565 2.365652c.193974-.09707.380801-.200829.560286-.320164l1.458523-1.449629c.0037-.0054.0052-.01232.0089-.01779.123743-.184577.23785-.378052.337949-.578071z"/><path d="m34.288867 49.012888l-5.585069 5.585071v.257909l5.842979-5.84298z"/><path d="m35.053702 49.012888l-6.349904 6.341012v.266803l6.598921-6.607815z"/><path d="m35.818538 49.012888l-7.11474 7.11474v.249016l7.363756-7.363756z"/><path d="m36.565585 49.012888l-7.861787 7.861788v.257909l8.119697-8.119697z"/><path d="m37.33042 49.012888l-8.626622 8.626622v.249016l8.875639-8.875638z"/><path d="m38.08636 49.012888l-9.382562 9.382563v.240123l9.631579-9.622686z"/><path d="m38.851196 49.012888l-10.147398 10.138505v.257909l10.387519-10.396414z"/><path d="m39.598243 49.012888l-10.894445 10.903339v.240122l11.152354-11.143461z"/><path d="m40.354185 49.012888l-11.650387 11.65928v.249016l11.908297-11.908296z"/><path d="m41.110126 49.012888l-12.406328 12.415221v.249016l12.673129-12.664237z"/><path d="m41.866065 49.012888l-13.162267 13.162269v.240122l13.42018-13.402391z"/><path d="m33.51514 49.039569l-4.784662 4.775769c-.0097.09115-.0135.183798-.01779.275695l5.069254-5.069251c-.08952-.0026-.193006.0041-.266805.01779z"/><path d="m42.622008 49.021781l-13.775917 13.767022h.257913l13.749233-13.749234c-.07625-.0089-.1544-.01269-.231229-.01779z"/><path d="m43.280123 49.119609l-13.678089 13.669194h.249017l13.63362-13.624726c-.068-.01738-.135819-.03003-.204548-.04447z"/><path d="m32.901493 49.14629c-.123684.02918-.243563.05923-.364629.09783l-3.601837 3.601837c-.03876.121183-.0684.240862-.09783.364631z"/><path d="m43.884874 49.279691l-13.509113 13.509112h.25791l13.437964-13.437965c-.06169-.02413-.124218-.04944-.186761-.07115z"/><path d="m44.41848 49.502027l-13.304563 13.286776h.266801l13.197843-13.206736c-.05346-.0277-.10578-.05417-.160081-.08004z"/><path d="m31.674203 49.608748c-.215223.114154-.423361.240542-.622542.382417l-1.342906 1.342907c-.147182.205044-.282248.418164-.400206.640327z"/><path d="m44.898726 49.76883l-13.011082 13.019973h.249017l12.931038-12.922146c-.05434-.03565-.113481-.06412-.168973-.09783z"/><path d="m45.361184 50.080099l-12.726493 12.708704h.266802l12.593092-12.601983c-.04425-.03532-.08816-.07274-.133401-.106721z"/><path d="m45.770282 50.426943l-12.37965 12.36186h.266804l12.246246-12.246246c-.04242-.0409-.08978-.07603-.1334-.115614z"/><path d="m46.152696 50.800467l-11.997229 11.988336h.257909l11.854937-11.854935c-.03848-.04461-.07579-.08997-.115617-.133401z"/><path d="m46.499542 51.209564l-11.597028 11.579239h.275697l11.428051-11.436944c-.03451-.04852-.07069-.09484-.10672-.142295z"/><path d="m46.801919 51.663129l-11.125678 11.125674h.249017l10.974489-10.974486c-.02985-.05199-.0663-.10014-.09783-.151188z"/><path d="m47.077612 52.152267l-10.645427 10.636536h.266801l10.45867-10.467561c-.02512-.0567-.05294-.11313-.08004-.168975z"/><path d="m47.299949 52.676979l-10.111825 10.111824h.266805l9.907276-9.925062c-.01984-.06273-.04002-.124811-.06225-.186762z"/><path d="m47.477818 53.263945l-9.524859 9.524858h.240122l9.32031-9.311415c-.01271-.07074-.01978-.143389-.03557-.213443z"/><path d="m47.575646 53.922059l-8.875639 8.866744h.257909l8.626623-8.635515c-.0025-.07716-.0025-.154559-.0089-.231229z"/><path d="m47.593434 54.660213l-8.119699 8.12859h.240124l7.879575-7.870681z"/><path d="m47.593434 55.40726l-7.372652 7.381543h.249017l7.123635-7.123633z"/><path d="m47.593434 56.172095l-6.607817 6.616708h.249017l6.3588-6.358798z"/><path d="m47.593434 56.928036l-5.842981 5.860767h.231229l5.611752-5.593964z"/><path d="m47.593434 57.692871l-5.095934 5.095932h.249017l4.846917-4.846916z"/><path d="m47.593434 58.439919l-4.339992 4.348884h.25791l4.082082-4.082082z"/><path d="m47.593434 59.204753l-3.584051 3.58405h.249016l3.335035-3.326141z"/><path d="m47.593434 59.960694l-2.828112 2.828109h.25791l2.570202-2.570199z"/><path d="m47.593434 60.725529l-2.063277 2.063274h.240125l1.823152-1.823152z"/><path d="m47.593434 61.472576l-1.316229 1.316227h.266804l1.049425-1.049424z"/><path d="m47.593434 62.237411l-.551394.551392h.249017l.302377-.302377z"/><path d="m85.919816 37.211314l-5.478355 5.478349c.0029.07987.0019.1612.0087.240123l5.709577-5.700685c-.07906-.0067-.160131-.01459-.240114-.01779z"/><path d="m85.412887 37.220207c-.09135.005-.185621-.000725-.275698.0089l-4.677941 4.686835c-.0097.08721-.0039.178377-.0087.266803z"/><path d="m86.6135 37.282461l-6.100891 6.10089c.0121.07101.02061.14342.03561.213442l6.278761-6.278758c-.06997-.01509-.142489-.02329-.213444-.03557z"/><path d="m84.532441 37.335822c-.119119.02709-.23096.06282-.346847.09783l-3.521796 3.521796c-.03329.110651-.06281.224377-.08894.33795z"/><path d="m87.218248 37.424756l-6.563343 6.57224c.01964.06614.04016.130624.06222.195656l6.705639-6.696749c-.06861-.02359-.134689-.05033-.20455-.07115z"/><path d="m87.778538 37.629304l-6.919083 6.919085c.02564.06043.05226.11862.08003.177868l7.008018-7.016911c-.05642-.02654-.111522-.05546-.168977-.08004z"/><path d="m83.358509 37.762706c-.219028.107519-.429037.225436-.604758.33795l-1.42295 1.431841c-.124074.184094-.228531.378478-.32905.578073z"/><path d="m88.285467 37.87832l-7.185887 7.185888c.03048.05451.06551.106785.09782.160081l7.248143-7.248141c-.05332-.03245-.105571-.06723-.160074-.09783z"/><path d="m88.74792 38.180697l-7.345971 7.345969c.0331.04693.06329.0965.09783.142294l7.390439-7.390435c-.04577-.03468-.09532-.06462-.142296-.09783z"/><path d="m89.174808 38.509754l-7.4438 7.443796c.03968.04563.08332.08918.124509.133402l7.452693-7.461584c-.04336-.04041-.08874-.07665-.133402-.115614z"/><path d="m89.557228 38.883278l-7.443799 7.45269c.04152.03895.08168.07801.124509.115614l7.443789-7.443796c-.0389-.04444-.08419-.08141-.124499-.124508z"/><path d="m89.904065 39.283481l-7.390439 7.390437c.0509.03901.09881.07845.15119.115614l7.345971-7.354862c-.03532-.0497-.06977-.102783-.106722-.151189z"/><path d="m90.215337 39.745939l-7.248142 7.248142c.05187.03165.107031.05905.160083.08894l7.185888-7.185887c-.02971-.0527-.06639-.09962-.09783-.151189z"/><path d="m90.473248 40.235078l-7.016911 7.016912c.05981.02835.116844.0628.17786.08893l6.927986-6.927977c-.02613-.0611-.06058-.117977-.08894-.177869z"/><path d="m90.695586 40.777577l-6.696755 6.696749c.06194.02129.123793.04323.186763.06225l6.572237-6.581135c-.01839-.06088-.04171-.117935-.06223-.177868z"/><path d="m90.864553 41.364543l-6.278751 6.278758c.07093.01535.141463.032.213434.04447l6.109784-6.109783c-.01239-.0717-.02922-.14276-.04452-.213442z"/><path d="m90.962381 42.022656l-5.71847 5.718473c.07897.0069.160189.01446.240124.01779l5.496133-5.505032c-.0029-.07696-.01123-.155152-.01781-.231229z"/><path d="m90.971275 42.778598l-4.971427 4.971424c.08245-.0045.167603-.000625.249018-.0089h.0087l4.704621-4.704622c.000291-.0029-.00028-.006 0-.0089.0087-.08143.0048-.166545.0087-.249018z"/><path d="m90.855659 43.64126l-3.993141 3.993148c.11666-.02606.233214-.05529.346836-.08894l3.55738-3.548478c.03464-.116274.06222-.236266.08893-.355736z"/><path d="m90.428781 44.841872l-2.365651 2.365652c.193973-.09707.380795-.200829.560281-.320164l1.458524-1.449629c.0039-.0054.0048-.01232.0087-.01779.123745-.184577.23785-.378052.337953-.578071z"/><path d="m81.695434 49.012888l-5.585068 5.585071v.257909l5.84298-5.84298z"/><path d="m82.460265 49.012888l-6.349899 6.341012v.266803l6.598917-6.607815z"/><path d="m83.225106 49.012888l-7.11474 7.11474v.249016l7.363758-7.363756z"/><path d="m83.97215 49.012888l-7.861784 7.861788v.257909l8.119696-8.119697z"/><path d="m84.736991 49.012888l-8.626625 8.626622v.249016l8.875633-8.875638z"/><path d="m85.492929 49.012888l-9.382563 9.382563v.240123l9.631581-9.622686z"/><path d="m86.25776 49.012888l-10.147394 10.138505v.257909l10.387518-10.396414z"/><path d="m87.004813 49.012888l-10.894447 10.903339v.240122l11.152349-11.143461z"/><path d="m87.760751 49.012888l-11.650385 11.65928v.249016l11.908297-11.908296z"/><path d="m88.516689 49.012888l-12.406323 12.415221v.249016l12.673128-12.664237z"/><path d="m89.272636 49.012888l-13.16227 13.162269v.240122l13.420181-13.402391z"/><path d="m80.92171 49.039569l-4.784663 4.775769c-.0097.09115-.01355.183798-.01781.275695l5.069255-5.069251c-.08952-.0026-.193005.0041-.266805.01779z"/><path d="m90.028574 49.021781l-13.775912 13.767022h.257912l13.749231-13.749234c-.07626-.0089-.154403-.01269-.231231-.01779z"/><path d="m90.686692 49.119609l-13.678092 13.669194h.249018l13.633615-13.624726c-.06803-.01738-.135812-.03003-.204541-.04447z"/><path d="m80.308058 49.14629c-.123686.02918-.24356.05923-.364633.09783l-3.601828 3.601837c-.03881.121183-.06842.240862-.09783.364631z"/><path d="m91.291441 49.279691l-13.509117 13.509112h.257912l13.437968-13.437965c-.06165-.02413-.124219-.04944-.186763-.07115z"/><path d="m91.82505 49.502027l-13.304565 13.286776h.266795l13.197844-13.206736c-.05342-.0277-.105774-.05417-.160074-.08004z"/><path d="m79.080765 49.608748c-.215215.114154-.423355.240542-.622535.382417l-1.342908 1.342907c-.147183.205044-.28225.418164-.400208.640327z"/><path d="m92.30529 49.76883l-13.011081 13.019973h.249018l12.931039-12.922146c-.05439-.03565-.113486-.06412-.168976-.09783z"/><path d="m92.767751 50.080099l-12.726498 12.708704h.266805l12.593096-12.601983c-.04423-.03532-.08816-.07274-.133403-.106721z"/><path d="m93.176852 50.426943l-12.379651 12.36186h.266805l12.246239-12.246246c-.04239-.0409-.08981-.07603-.133393-.115614z"/><path d="m93.559263 50.800467l-11.997231 11.988336h.257911l11.854936-11.854935c-.03852-.04461-.07577-.08997-.115616-.133401z"/><path d="m93.906109 51.209564l-11.597033 11.579239h.275698l11.428057-11.436944c-.03455-.04852-.07074-.09484-.106722-.142295z"/><path d="m94.208488 51.663129l-11.125678 11.125674h.249018l10.974489-10.974486c-.0299-.05199-.06629-.10014-.09783-.151188z"/><path d="m94.484177 52.152267l-10.645429 10.636536h.266805l10.458666-10.467561c-.02516-.0567-.05294-.11313-.08003-.168975z"/><path d="m94.706515 52.676979l-10.11182 10.111824h.266795l9.907279-9.925062c-.01984-.06273-.03997-.124811-.06222-.186762z"/><path d="m94.884385 53.263945l-9.524859 9.524858h.240125l9.320308-9.311415c-.01268-.07074-.01974-.143389-.03561-.213443z"/><path d="m94.982213 53.922059l-8.875643 8.866744h.257912l8.626625-8.635515c-.0029-.07716-.0029-.154559-.0087-.231229z"/><path d="m95 54.660213l-8.119695 8.12859h.240124l7.879571-7.870681z"/><path d="m95 55.40726l-7.372651 7.381543h.249018l7.123633-7.123633z"/><path d="m95 56.172095l-6.60782 6.616708h.249018l6.358802-6.358798z"/><path d="m95 56.928036l-5.842979 5.860767h.23123l5.611749-5.593964z"/><path d="m95 57.692871l-5.095935 5.095932h.249018l4.846917-4.846916z"/><path d="m95 58.439919l-4.339988 4.348884h.257902l4.082086-4.082082z"/><path d="m95 59.204753l-3.58405 3.58405h.249017l3.335033-3.326141z"/><path d="m95 59.960694l-2.828113 2.828109h.257912l2.570201-2.570199z"/><path d="m95 60.725529l-2.063272 2.063274h.240124l1.823148-1.823152z"/><path d="m95 61.472576l-1.316228 1.316227h.266805l1.049423-1.049424z"/><path d="m95 62.237411l-.551397.551392h.249018l.302379-.302377z"/><path d="m57.456886 48.468629c-2.629715 0-5.018361 2.39808-5.018361 5.027795v9.292379h18.826762v-9.292379c0-2.630391-2.388644-5.027795-5.018358-5.027795z"/><path d="m85.919812 6.727617l-5.478349 5.478349c.003.07987.0023.161201.0089.240123l5.709579-5.700685c-.07903-.00668-.160138-.014593-.240123-.017787z"/><path d="m85.412886 6.7365105c-.09137.00503-.185623-.0007248-.275695.0089l-4.677942 4.6868345c-.0093.08721-.0039.178377-.0089.266803z"/><path d="m86.613499 6.798764l-6.100889 6.10089c.01212.07101.02065.14342.03557.213442l6.278762-6.278758c-.069958-.015087-.142489-.0232934-.213443-.035574z"/><path d="m84.532438 6.852125c-.119114.027087-.230957.062825-.346844.097828l-3.521796 3.521795c-.0333.110652-.06282.224378-.08894.33795z"/><path d="m87.218252 6.941059l-6.563347 6.57224c.01963.06614.04012.130625.06225.195656l6.705647-6.696749c-.068612-.0235934-.134694-.0503319-.204549-.071148z"/><path d="m87.778538 7.1456075l-6.919085 6.9190845c.02566.06043.05223.118621.08004.177868l7.008019-7.016911c-.05639-.026535-.111521-.055461-.168975-.080042z"/><path d="m83.358506 7.279009c-.219024.1075194-.429034.2254361-.604754.33795l-1.422948 1.4318415c-.124077.1840935-.228531.3784775-.329057.5780725z"/><path d="m88.285463 7.3946235l-7.185887 7.1858875c.0305.05451.06547.106785.09783.160081l7.248142-7.248141c-.05329-.032448-.105571-.067229-.160082-.097827z"/><path d="m88.747921 7.6970005l-7.345969 7.3459685c.03312.04694.06323.0965.09783.142294l7.390436-7.390435c-.04579-.034684-.09536-.064616-.142295-.097827z"/><path d="m89.174806 8.026057l-7.443797 7.443796c.03969.04563.0833.08918.124507.133402l7.452691-7.4615835c-.04331-.040413-.08876-.076654-.133401-.1156145z"/><path d="m89.557223 8.399581l-7.443797 7.45269c.04154.03895.08171.07801.124508.115614l7.443797-7.443796c-.03887-.044439-.08419-.081406-.124508-.124508z"/><path d="m89.904067 8.7997845l-7.390437 7.3904365c.05094.03901.0988.07845.151189.115614l7.345969-7.354862c-.03532-.049703-.06975-.1027823-.106721-.1511885z"/><path d="m90.215336 9.262243l-7.248141 7.248141c.05189.03164.107035.05905.160082.08893l7.185887-7.185887c-.02969-.0527-.0664-.09962-.09783-.151189z"/><path d="m90.473246 9.751381l-7.016913 7.016912c.05981.02835.116849.0628.177869.08894l6.927978-6.927977c-.02614-.0611-.06059-.117977-.08893-.177869z"/><path d="m90.695581 10.29388l-6.696748 6.696749c.06194.02129.123792.04323.186761.06225l6.572242-6.581135c-.01839-.06088-.04176-.117935-.06225-.177868z"/><path d="m90.864556 10.880846l-6.278758 6.278758c.07094.01535.141466.032.213443.04447l6.109782-6.109783c-.01241-.0717-.0292-.14276-.04447-.213442z"/><path d="m90.962384 11.538959l-5.718472 5.718473c.07898.0069.160184.01446.240122.01779l5.496136-5.505031c-.0033-.07696-.0112-.155153-.01779-.231229z"/><path d="m90.971277 12.294901l-4.971426 4.971424c.08246-.0045.167599-.000625.249016-.0089h.0089l4.704623-4.704621c.000312-.0029-.000313-.006 0-.0089.0083-.08143.0044-.166546.0089-.249018z"/><path d="m90.855661 13.157563l-3.993147 3.993148c.116661-.02606.233224-.05529.346843-.08893l3.557371-3.548477c.03464-.116275.06225-.236267.08893-.355737z"/><path d="m90.428777 14.358175l-2.365651 2.365652c.193975-.09707.380802-.200829.560286-.320164l1.458522-1.449629c.0037-.0054.0052-.01232.0089-.01779.123746-.184577.237853-.378052.337951-.578071z"/><path d="m81.695435 18.529191l-5.585071 5.585071v.25791l5.842981-5.842981z"/><path d="m82.46027 18.529191l-6.349906 6.341013v.266803l6.598921-6.607816z"/><path d="m83.225104 18.529191l-7.11474 7.11474v.249016l7.363756-7.363756z"/><path d="m83.972152 18.529191l-7.861788 7.861788v.25791l8.119698-8.119698z"/><path d="m84.736986 18.529191l-8.626622 8.626622v.249016l8.875638-8.875638z"/><path d="m85.492928 18.529191l-9.382564 9.382564v.240122l9.63158-9.622686z"/><path d="m86.257762 18.529191l-10.147398 10.138505v.25791l10.38752-10.396415z"/><path d="m87.00481 18.529191l-10.894446 10.903339v.240123l11.152355-11.143462z"/><path d="m87.760751 18.529191l-11.650387 11.659281v.249016l11.908297-11.908297z"/><path d="m88.516692 18.529191l-12.406328 12.415221v.249016l12.673131-12.664237z"/><path d="m89.272633 18.529191l-13.162269 13.162269v.240123l13.420179-13.402392z"/><path d="m80.921708 18.555872l-4.784663 4.775769c-.0097.09115-.0135.183799-.01779.275696l5.069253-5.069252c-.08952-.0026-.193005.0041-.266802.01779z"/><path d="m90.028575 18.538084l-13.775916 13.767023h.25791l13.749235-13.749235c-.07625-.0089-.154401-.01269-.231229-.01779z"/><path d="m90.686688 18.635912l-13.678088 13.669195h.249016l13.63362-13.624727c-.068-.01738-.135819-.03003-.204548-.04447z"/><path d="m80.308061 18.662593c-.123685.02918-.243564.05924-.36463.09783l-3.601838 3.601838c-.03876.121183-.0684.240862-.09783.36463z"/><path d="m91.291441 18.795994l-13.509113 13.509113h.25791l13.437964-13.437966c-.06169-.02412-.12422-.04944-.186761-.07115z"/><path d="m91.825046 19.01833l-13.304563 13.286777h.266802l13.197843-13.206737c-.05346-.0277-.10578-.05417-.160082-.08004z"/><path d="m79.080768 19.125051c-.215221.114154-.42336.240542-.62254.382417l-1.342907 1.342907c-.147181.205044-.282248.418165-.400204.640327z"/><path d="m92.305291 19.285133l-13.011081 13.019974h.249016l12.93104-12.922147c-.05434-.03565-.113483-.06412-.168975-.09783z"/><path d="m92.767749 19.596402l-12.726491 12.708705h.266803l12.593089-12.601984c-.04425-.03532-.08816-.07274-.133401-.106721z"/><path d="m93.176847 19.943246l-12.379648 12.361861h.266803l12.246246-12.246247c-.04242-.0409-.08977-.07603-.133401-.115614z"/><path d="m93.559264 20.31677l-11.99723 11.988337h.257909l11.854936-11.854936c-.03848-.04461-.07579-.08997-.115615-.133401z"/><path d="m93.906108 20.725868l-11.597026 11.579239h.275695l11.428052-11.436945c-.03451-.04852-.07069-.09484-.106721-.142294z"/><path d="m94.208485 21.179432l-11.125676 11.125675h.249016l10.974488-10.974487c-.02985-.05199-.0663-.10014-.09783-.151188z"/><path d="m94.484182 21.668571l-10.645431 10.636536h.266802l10.458669-10.467562c-.02512-.0567-.05294-.11313-.08004-.168974z"/><path d="m94.706516 22.193282l-10.111825 10.111825h.266803l9.907277-9.925062c-.01984-.06273-.04002-.124812-.06225-.186763z"/><path d="m94.884384 22.780248l-9.524858 9.524859h.240123l9.32031-9.311416c-.01271-.07074-.01978-.143388-.03557-.213443z"/><path d="m94.982212 23.438362l-8.875638 8.866745h.25791l8.626621-8.635516c-.0025-.07716-.0025-.154559-.0089-.231229z"/><path d="m95 24.176517l-8.119698 8.12859h.240122l7.879576-7.870682z"/><path d="m95 24.923564l-7.37265 7.381543h.249016l7.123634-7.123634z"/><path d="m95 25.688399l-6.607815 6.616708h.249015l6.3588-6.358799z"/><path d="m95 26.444339l-5.842981 5.860768h.231229l5.611752-5.593965z"/><path d="m95 27.209174l-5.095933 5.095933h.249015l4.846918-4.846917z"/><path d="m95 27.956222l-4.339993 4.348885h.25791l4.082083-4.082083z"/><path d="m95 28.721056l-3.584051 3.584051h.249016l3.335035-3.326141z"/><path d="m95 29.476998l-2.828111 2.828109h.25791l2.570201-2.5702z"/><path d="m95 30.241833l-2.063276 2.063274h.240123l1.823153-1.823153z"/><path d="m95 30.98888l-1.316228 1.316227h.266803l1.049425-1.049424z"/><path d="m95 31.753715l-.551394.551392h.249017l.302377-.302377z"/><path d="m62.216139 6.727617l-5.478349 5.478349c.003.07987.0022.161201.0089.240123l5.709578-5.700685c-.07904-.00668-.160138-.014593-.240121-.017787z"/><path d="m61.709214 6.7365105c-.09137.00503-.185625-.0007248-.275698.0089l-4.677941 4.6868345c-.0093.08721-.0039.178377-.0089.266803z"/><path d="m62.909826 6.798764l-6.100891 6.10089c.01214.07101.02066.14342.03557.213442l6.27876-6.278758c-.069957-.015087-.142486-.0232934-.213441-.035574z"/><path d="m60.828765 6.852125c-.119115.027087-.230956.062825-.346845.097828l-3.521796 3.521795c-.0333.110652-.06282.224378-.08893.33795z"/><path d="m63.514577 6.941059l-6.563346 6.57224c.01964.06614.04012.130625.06226.195656l6.705642-6.696749c-.06861-.023593-.134692-.050332-.20455-.071148z"/><path d="m64.074864 7.1456075l-6.919083 6.9190845c.02566.06043.05223.118621.08004.177868l7.00802-7.016911c-.05639-.0265353-.111521-.055461-.168976-.0800415z"/><path d="m59.654832 7.279009c-.219023.1075194-.429034.2254361-.604754.33795l-1.422947 1.4318415c-.124076.1840935-.228532.3784775-.329057.5780725z"/><path d="m64.58179 7.3946235l-7.185888 7.1858875c.0305.05451.06548.106785.09783.160081l7.24814-7.248141c-.05329-.032448-.10557-.067229-.160081-.097827z"/><path d="m65.044248 7.6970005l-7.345969 7.3459685c.03312.04694.06323.0965.09783.142294l7.390436-7.390435c-.04579-.034684-.09536-.064616-.142296-.097827z"/><path d="m65.471133 8.026057l-7.443796 7.443796c.03969.04563.08329.08918.124508.133402l7.45269-7.4615835c-.04331-.040413-.08876-.076654-.133402-.1156145z"/><path d="m65.853551 8.399581l-7.443797 7.45269c.04154.03895.08172.07801.124508.115614l7.443795-7.443796c-.03887-.044439-.08419-.081406-.124506-.124508z"/><path d="m66.200393 8.7997845l-7.390436 7.3904365c.05095.03901.0988.07845.151188.115614l7.345969-7.354862c-.03532-.049703-.06974-.1027823-.106721-.1511885z"/><path d="m66.511663 9.262243l-7.248141 7.248141c.05189.03164.107036.05905.160081.08893l7.185888-7.185887c-.02969-.0527-.06641-.09962-.09783-.151189z"/><path d="m66.769572 9.751381l-7.016911 7.016912c.05981.02835.116849.0628.177868.08894l6.927978-6.927977c-.02615-.0611-.06059-.117977-.08894-.177869z"/><path d="m66.991909 10.29388l-6.69675 6.696749c.06195.02129.123792.04323.186761.06225l6.572241-6.581135c-.01839-.06088-.04176-.117935-.06225-.177868z"/><path d="m67.160882 10.880846l-6.278757 6.278758c.07094.01535.141467.032.213441.04447l6.109784-6.109783c-.01242-.0717-.0292-.14276-.04447-.213442z"/><path d="m67.25871 11.538959l-5.71847 5.718473c.07897.0069.160183.01446.240122.01779l5.496136-5.505031c-.0033-.07696-.0112-.155153-.01779-.231229z"/><path d="m67.267602 12.294901l-4.971422 4.971424c.08246-.0045.167597-.000625.249014-.0089h.0089l4.704623-4.704621c.000285-.0029-.000283-.006 0-.0089.0082-.08143.0044-.166546.0089-.249018z"/><path d="m67.15199 13.157563l-3.99315 3.993148c.116662-.02606.233225-.05529.346845-.08893l3.557372-3.548477c.03464-.116275.06224-.236267.08893-.355737z"/><path d="m66.725104 14.358175l-2.36565 2.365652c.193974-.09707.3808-.200829.560285-.320164l1.458523-1.449629c.0037-.0054.0052-.01232.0089-.01779.123744-.184577.237851-.378052.337949-.578071z"/><path d="m57.991761 18.529191l-5.585069 5.585071v.25791l5.842978-5.842981z"/><path d="m58.756596 18.529191l-6.349904 6.341013v.266803l6.598921-6.607816z"/><path d="m59.521432 18.529191l-7.11474 7.11474v.249016l7.363756-7.363756z"/><path d="m60.268479 18.529191l-7.861787 7.861788v.25791l8.119696-8.119698z"/><path d="m61.033314 18.529191l-8.626622 8.626622v.249016l8.875639-8.875638z"/><path d="m61.789253 18.529191l-9.382561 9.382564v.240122l9.631578-9.622686z"/><path d="m62.554089 18.529191l-10.147397 10.138505v.25791l10.387519-10.396415z"/><path d="m63.301136 18.529191l-10.894444 10.903339v.240123l11.152354-11.143462z"/><path d="m64.057079 18.529191l-11.650387 11.659281v.249016l11.908296-11.908297z"/><path d="m64.813019 18.529191l-12.406327 12.415221v.249016l12.673128-12.664237z"/><path d="m65.568959 18.529191l-13.162267 13.162269v.240123l13.420179-13.402392z"/><path d="m57.218033 18.555872l-4.784662 4.775769c-.0097.09115-.0135.183799-.01779.275696l5.069254-5.069252c-.08951-.0026-.193005.0041-.266805.01779z"/><path d="m66.324901 18.538084l-13.775916 13.767023h.257912l13.749233-13.749235c-.07625-.0089-.154399-.01269-.231229-.01779z"/><path d="m66.983016 18.635912l-13.678089 13.669195h.249017l13.633621-13.624727c-.068-.01738-.135819-.03003-.204549-.04447z"/><path d="m56.604387 18.662593c-.123685.02918-.243563.05924-.36463.09783l-3.601836 3.601838c-.03876.121183-.0684.240862-.09783.36463z"/><path d="m67.587767 18.795994l-13.509112 13.509113h.257909l13.437965-13.437966c-.06169-.02412-.124219-.04944-.186762-.07115z"/><path d="m68.121373 19.01833l-13.304563 13.286777h.266801l13.197843-13.206737c-.05346-.0277-.105779-.05417-.160081-.08004z"/><path d="m55.377097 19.125051c-.215224.114154-.423362.240542-.622542.382417l-1.342907 1.342907c-.147182.205044-.282248.418165-.400205.640327z"/><path d="m68.601619 19.285133l-13.011081 13.019974h.249017l12.931038-12.922147c-.05434-.03565-.113482-.06412-.168974-.09783z"/><path d="m69.064077 19.596402l-12.726492 12.708705h.266802l12.593092-12.601984c-.04425-.03532-.08816-.07274-.133402-.106721z"/><path d="m69.473175 19.943246l-12.37965 12.361861h.266804l12.246247-12.246247c-.04242-.0409-.08978-.07603-.133401-.115614z"/><path d="m69.85559 20.31677l-11.99723 11.988337h.25791l11.854936-11.854936c-.03848-.04461-.07579-.08997-.115616-.133401z"/><path d="m70.202435 20.725868l-11.597028 11.579239h.275698l11.42805-11.436945c-.03451-.04852-.07069-.09484-.10672-.142294z"/><path d="m70.504812 21.179432l-11.125677 11.125675h.249017l10.974489-10.974487c-.02985-.05199-.0663-.10014-.09783-.151188z"/><path d="m70.780506 21.668571l-10.645428 10.636536h.266801l10.45867-10.467562c-.02512-.0567-.05293-.11313-.08004-.168974z"/><path d="m71.002842 22.193282l-10.111824 10.111825h.266805l9.907276-9.925062c-.01984-.06273-.04003-.124812-.06226-.186763z"/><path d="m71.180711 22.780248l-9.524858 9.524859h.240121l9.32031-9.311416c-.01271-.07074-.01978-.143388-.03557-.213443z"/><path d="m71.27854 23.438362l-8.875639 8.866745h.257908l8.626623-8.635516c-.0025-.07716-.0025-.154559-.0089-.231229z"/><path d="m71.296328 24.176517l-8.1197 8.12859h.240125l7.879575-7.870682z"/><path d="m71.296328 24.923564l-7.372653 7.381543h.249017l7.123636-7.123634z"/><path d="m71.296328 25.688399l-6.607818 6.616708h.249017l6.358801-6.358799z"/><path d="m71.296328 26.444339l-5.842982 5.860768h.231229l5.611753-5.593965z"/><path d="m71.296328 27.209174l-5.095935 5.095933h.249017l4.846918-4.846917z"/><path d="m71.296328 27.956222l-4.339992 4.348885h.257909l4.082083-4.082083z"/><path d="m71.296328 28.721056l-3.584052 3.584051h.249016l3.335036-3.326141z"/><path d="m71.296328 29.476998l-2.828112 2.828109h.257909l2.570203-2.5702z"/><path d="m71.296328 30.241833l-2.063277 2.063274h.240124l1.823153-1.823153z"/><path d="m71.296328 30.98888l-1.316229 1.316227h.266804l1.049425-1.049424z"/><path d="m71.296328 31.753715l-.551394.551392h.249017l.302377-.302377z"/></svg>