<svg fill="#000000" xmlns="http://www.w3.org/2000/svg" xmlns:xlink="http://www.w3.org/1999/xlink" version="1.1" x="0px" y="0px" viewBox="0 0 90 90" style="enable-background:new 0 0 90 90;" xml:space="preserve"><g><path d="M89.1,24.3v-4.9H84l-4.9,4.9H50.8v-2.6H34.1c-4,0-7.6,1.9-10,4.8c-2.2-1.8-5-2.8-7.9-2.8v6.4c1.9,0,3.6,0.8,4.8,2.3   c0.1,0.2,0.3,0.3,0.4,0.5c-0.1,0.5-0.1,1-0.1,1.4c0,0.2,0,0.5,0,0.8l-2.6,2.6h-0.6l-0.2,0C7.8,39,0,47.7,0,58.1v12.5h22V53.2   c0-1.3,0.6-2.6,1.7-3.4h5.1c1.6,3.4,5,5.8,9.1,5.8c5,0,9.1-3.7,9.8-8.5h3.2v-6.3h24.5v-5.8H90V24.3H89.1z M85.2,22.3h1v2h-3   L85.2,22.3z M37.8,52.8c-2.6,0-4.9-1.4-6.1-3.5l0.5-2.3c0.6,0.1,1.3,0.1,1.9,0.1h1c0.2,0.9,0.6,1.8,1,2.7c0.3,0.6,0.7,1.2,1,1.8   l2.3-1.6c-0.3-0.4-0.6-0.9-0.8-1.4c-0.2-0.5-0.4-0.9-0.6-1.4h6.6C44.1,50.4,41.2,52.8,37.8,52.8z M48,44.3H34.1   c-0.9,0-1.7-0.1-2.6-0.3l-1.4-0.4L29.3,47h-6.5l-0.3,0.2c-2.1,1.3-3.3,3.6-3.3,6v14.5H2.9v-9.6c0-8.9,6.6-16.4,15.5-17.5H20   l4.4-4.4l-0.1-0.7c0-0.4-0.1-0.8-0.1-1.1c0-5.5,4.4-9.9,9.9-9.9H48v7.7v2.9v5.8V44.3z M72.5,38H50.8v-2.9h21.6V38z M87.1,32.2H75.3   H50.8v-5.1h25.4h10.9V32.2z"/><path d="M26.6,34.4c0,4.2,3.4,7.6,7.6,7.6h11.9V26.9H34.2C30,26.9,26.6,30.3,26.6,34.4z M37.5,29.7h5.7V33h-5.7V29.7z M37.5,35.9   h5.7v3.3h-5.7V35.9z M34.7,39.2h-0.5c-2.6,0-4.7-2.1-4.7-4.7c0-2.6,2.1-4.7,4.7-4.7h0.5V39.2z"/></g></svg>