<svg fill="#000000" xmlns="http://www.w3.org/2000/svg" xmlns:xlink="http://www.w3.org/1999/xlink" version="1.1" x="0px" y="0px" viewBox="0 0 100 100" enable-background="new 0 0 100 100" xml:space="preserve"><text transform="matrix(1 0 0 1 127.1875 16.9702)"><tspan x="0" y="0" fill="#000000" font-family="'ArialMT'" font-size="21">Created By CBi China Bridge </tspan><tspan x="0" y="25.2" fill="#000000" font-family="'ArialMT'" font-size="21">from the Noun Project</tspan></text><text transform="matrix(1 0 0 1 25.9321 195.7744)" fill="#000000" font-family="'ArialMT'" font-size="12">Process</text><g><circle fill="#000000" stroke="#000000" stroke-width="2" stroke-miterlimit="10" cx="30.842" cy="124.481" r="5.131"/></g><g><circle fill="#000000" stroke="#000000" stroke-width="2" stroke-miterlimit="10" cx="55.638" cy="148.171" r="5.13"/></g><g><circle fill="#000000" stroke="#000000" stroke-width="2" stroke-miterlimit="10" cx="43.852" cy="172.214" r="5.13"/></g><g><path fill="#000000" stroke="#000000" stroke-width="2" stroke-linecap="round" stroke-linejoin="round" stroke-miterlimit="10" d="   M36.874,124.521l33.39,0.273c4.678,0.039,8.479,3.896,8.447,8.574l-0.043,6.451c-0.031,4.678-2.924,8.486-6.428,8.463   c-3.503-0.023-6.369-0.043-6.369-0.043"/></g><g><path fill="#000000" stroke="#000000" stroke-width="2" stroke-linecap="round" stroke-linejoin="round" stroke-miterlimit="10" d="   M49.261,148.129l-24.204-0.164c-4.677-0.031-8.529,3.77-8.561,8.447l-0.045,6.645c-0.031,4.676,3.548,8.523,7.953,8.549   c4.406,0.023,8.01,0.045,8.01,0.045"/></g><polyline fill="#000000" stroke="#000000" stroke-width="2" stroke-linecap="round" stroke-linejoin="round" stroke-miterlimit="10" points="  68.325,151.973 64.633,148.23 68.375,144.539 "/><polyline fill="#000000" stroke="#000000" stroke-width="2" stroke-linecap="round" stroke-linejoin="round" stroke-miterlimit="10" points="  30.58,167.92 34.273,171.662 30.531,175.354 "/><g><path fill="#000000" d="M58.06,43.693c-3.041,0-5.576,2.241-6.048,5.155c-0.103-0.037-0.21-0.066-0.325-0.068l-24.204-0.162   c-2.576-0.032-4.921,0.958-6.731,2.746c-1.812,1.787-2.819,4.164-2.836,6.693l-0.045,6.645c-0.018,2.588,0.994,5.106,2.774,6.909   c1.674,1.693,3.865,2.634,6.173,2.646l7.453,0.043l-2.022,1.994c-0.394,0.389-0.397,1.021-0.01,1.414   c0.195,0.199,0.454,0.299,0.712,0.299c0.254,0,0.508-0.096,0.702-0.289l3.742-3.691c0.188-0.186,0.296-0.439,0.298-0.705   c0.002-0.265-0.102-0.52-0.288-0.709l-3.693-3.742c-0.388-0.395-1.022-0.398-1.414-0.01c-0.394,0.388-0.397,1.021-0.01,1.414   l1.998,2.025l-7.456-0.043c-1.773-0.01-3.464-0.738-4.762-2.051c-1.41-1.428-2.211-3.43-2.197-5.49l0.045-6.645   c0.014-1.994,0.809-3.871,2.24-5.284c1.433-1.412,3.359-2.166,5.313-2.169l24.204,0.162c0.002,0,0.005,0,0.007,0   c0.113,0,0.218-0.029,0.319-0.064c0.432,2.941,2.954,5.217,6.017,5.238h0.043c3.356,0,6.105-2.731,6.129-6.09   C64.21,46.485,61.479,43.717,58.06,43.693z M58.059,53.954v1l-0.029-1c-1.104-0.008-2.138-0.443-2.913-1.229   c-0.774-0.785-1.197-1.825-1.189-2.93c0.015-2.262,1.868-4.102,4.158-4.102c2.277,0.016,4.117,1.881,4.103,4.157   C62.172,52.114,60.319,53.954,58.059,53.954z"/><path fill="#000000" d="M46.271,67.735c-3.358,0-6.107,2.732-6.13,6.091c-0.022,3.38,2.709,6.147,6.088,6.171h0.041   c3.358,0,6.108-2.732,6.132-6.09C52.425,70.528,49.692,67.759,46.271,67.735z M46.27,77.997v1l-0.027-1   c-2.276-0.016-4.116-1.881-4.102-4.158c0.015-2.262,1.867-4.104,4.157-4.104c2.278,0.016,4.119,1.881,4.104,4.158   C50.386,76.157,48.532,77.997,46.27,77.997z"/><path fill="#000000" d="M72.69,25.448l-33.382-0.274c-0.463-2.908-2.974-5.15-6.049-5.171c-3.356,0-6.106,2.731-6.13,6.09   c-0.022,3.381,2.709,6.148,6.089,6.171h0.043c3.016,0,5.535-2.207,6.034-5.09l33.379,0.274c4.139,0.033,7.482,3.428,7.455,7.566   l-0.043,6.452c-0.014,2.048-0.62,3.964-1.708,5.396c-1.016,1.338-2.324,2.072-3.688,2.072c-0.009,0-0.018,0-0.025,0l-5.194-0.033   l2.024-1.997c0.394-0.388,0.397-1.021,0.01-1.414c-0.388-0.394-1.022-0.397-1.414-0.01l-3.742,3.69   c-0.188,0.187-0.296,0.44-0.298,0.705c-0.002,0.266,0.102,0.521,0.288,0.709l3.692,3.742c0.195,0.199,0.454,0.299,0.712,0.299   c0.254,0,0.508-0.096,0.702-0.289c0.394-0.388,0.397-1.021,0.01-1.414l-1.996-2.021l5.192,0.033c0.014,0,0.026,0,0.04,0   c2.002,0,3.876-1.016,5.279-2.863c1.348-1.773,2.099-4.114,2.115-6.591l0.043-6.452C82.165,29.788,77.931,25.49,72.69,25.448z    M33.262,30.264v1l-0.029-1c-2.277-0.016-4.117-1.88-4.103-4.157c0.016-2.263,1.868-4.104,4.157-4.104   c2.277,0.016,4.118,1.882,4.104,4.159C37.376,28.424,35.523,30.264,33.262,30.264z"/></g></svg>