<svg fill="#000000" xmlns="http://www.w3.org/2000/svg" viewBox="0 0 100 100" x="0px" y="0px"><title>foozballplayers</title><g data-name="Layer 2"><circle cx="76.67" cy="22.54" r="0.49"/><circle cx="81.59" cy="22.54" r="0.49"/><ellipse cx="79.13" cy="27.69" rx="0.92" ry="0.63"/><path d="M80.61,24.94h-3c0,.32.66.59,1.48.59S80.61,25.27,80.61,24.94Z"/><path d="M83.32,15.87A8,8,0,0,1,79.22,17a.37.37,0,1,0,0,.75,8.74,8.74,0,0,0,4.49-1.24.37.37,0,0,0-.38-.64Z"/><circle cx="47.68" cy="22.54" r="0.49"/><circle cx="52.59" cy="22.54" r="0.49"/><ellipse cx="50.14" cy="27.69" rx="0.92" ry="0.63"/><path d="M51.62,24.94h-3c0,.32.66.59,1.48.59S51.62,25.27,51.62,24.94Z"/><path d="M54.33,15.87A8,8,0,0,1,50.23,17a.38.38,0,1,0,0,.75,8.74,8.74,0,0,0,4.49-1.24.37.37,0,0,0-.38-.64Z"/><circle cx="18.68" cy="22.54" r="0.49"/><circle cx="23.6" cy="22.54" r="0.49"/><ellipse cx="21.14" cy="27.69" rx="0.92" ry="0.63"/><path d="M22.62,24.94h-3c0,.32.66.59,1.48.59S22.62,25.27,22.62,24.94Z"/><path d="M25.34,15.87A8,8,0,0,1,21.23,17a.38.38,0,1,0,0,.75,8.74,8.74,0,0,0,4.49-1.24.37.37,0,0,0-.38-.64Z"/><path d="M94,40.57H89.33V35.72H94a.5.5,0,0,0,0-1H89.25v-2.8a1.38,1.38,0,0,0-1.38-1.38H84.81l-.57-1A8.86,8.86,0,0,0,87.52,19.4a8.4,8.4,0,0,0-8.39-8.19h0a8.36,8.36,0,0,0-6.58,3.19,2,2,0,0,0-.41,1.23c-1.34,1.11-1.38,2.45-1.39,3.75v0A8.84,8.84,0,0,0,74,29.54l-.57,1H70.39A1.38,1.38,0,0,0,69,31.92v2.8H60.25v-2.8a1.38,1.38,0,0,0-1.38-1.38H55.81l-.57-1A8.86,8.86,0,0,0,58.52,19.4a8.4,8.4,0,0,0-8.39-8.19h0a8.36,8.36,0,0,0-6.58,3.19,2,2,0,0,0-.42,1.23c-1.34,1.11-1.38,2.45-1.39,3.75v0A8.84,8.84,0,0,0,45,29.54l-.57,1H41.4A1.38,1.38,0,0,0,40,31.92v2.8H31.26v-2.8a1.38,1.38,0,0,0-1.38-1.38H26.82l-.57-1A8.86,8.86,0,0,0,29.53,19.4a8.4,8.4,0,0,0-8.39-8.19h0a8.36,8.36,0,0,0-6.58,3.19,2,2,0,0,0-.41,1.23c-1.34,1.11-1.38,2.45-1.39,3.75v0A8.84,8.84,0,0,0,16,29.54l-.57,1H12.4A1.38,1.38,0,0,0,11,31.92v2.8H6a.5.5,0,1,0,0,1h5v4.84H6a.5.5,0,1,0,0,1h5v5.22s0,0,0,0a.47.47,0,0,0,0,.06.49.49,0,0,0,.07.18v0l3.82,4.84L12.5,63.29a.5.5,0,0,0,0,.22h0a.49.49,0,0,0,.09.19l0,0,0,0,2.65,2.36v1.94a1.19,1.19,0,0,0-.65,1V71.4a1.19,1.19,0,0,0,.65,1v1.76a3.53,3.53,0,0,0-2.73,3.43v9.63A1.53,1.53,0,0,0,14.1,88.8H28.18a1.53,1.53,0,0,0,1.53-1.53V77.64A3.53,3.53,0,0,0,27,74.21V72.45a1.19,1.19,0,0,0,.65-1V69.12a1.19,1.19,0,0,0-.65-1V66.13l2.65-2.36,0,0,0,0a.49.49,0,0,0,.09-.19h0a.5.5,0,0,0,0-.22L27.34,51.94l3.82-4.84v0a.49.49,0,0,0,.07-.18.47.47,0,0,0,0-.06s0,0,0,0V41.57H40v5.22s0,0,0,0a.47.47,0,0,0,0,.06.49.49,0,0,0,.07.18v0l3.82,4.84L41.49,63.29a.5.5,0,0,0,0,.22h0a.49.49,0,0,0,.09.19l0,0,0,0,2.65,2.36v1.94a1.19,1.19,0,0,0-.65,1V71.4a1.19,1.19,0,0,0,.65,1v1.76a3.53,3.53,0,0,0-2.73,3.43v9.63a1.53,1.53,0,0,0,1.53,1.53H57.18a1.53,1.53,0,0,0,1.53-1.53V77.64A3.53,3.53,0,0,0,56,74.21V72.45a1.19,1.19,0,0,0,.65-1V69.12a1.19,1.19,0,0,0-.65-1V66.13l2.65-2.36,0,0,0,0a.49.49,0,0,0,.09-.19h0a.5.5,0,0,0,0-.22L56.33,51.94l3.82-4.84v0a.48.48,0,0,0,.07-.18.47.47,0,0,0,0-.06s0,0,0,0V41.57H69v5.22s0,0,0,0a.47.47,0,0,0,0,.06.48.48,0,0,0,.07.18v0l3.82,4.84L70.48,63.29a.5.5,0,0,0,0,.22h0a.49.49,0,0,0,.09.19l0,0,0,0,2.65,2.36v1.94a1.19,1.19,0,0,0-.65,1V71.4a1.19,1.19,0,0,0,.65,1v1.76a3.53,3.53,0,0,0-2.73,3.43v9.63a1.53,1.53,0,0,0,1.53,1.53H86.17a1.53,1.53,0,0,0,1.53-1.53V77.64A3.53,3.53,0,0,0,85,74.21V72.45a1.19,1.19,0,0,0,.65-1V69.12a1.19,1.19,0,0,0-.65-1V66.13l2.65-2.36,0,0,0,0a.49.49,0,0,0,.09-.19h0a.5.5,0,0,0,0-.22L85.32,51.94l3.82-4.84v0a.48.48,0,0,0,.07-.18.47.47,0,0,0,0-.06s0,0,0,0V41.57H94a.5.5,0,0,0,0-1ZM14.49,16.67a2,2,0,0,0,.14.21l0,0c.1.1.21.19.31.29a2.74,2.74,0,0,0-1.05.47A2.44,2.44,0,0,1,14.49,16.67Zm-1.22,5.62a7.87,7.87,0,0,1,.46-2.64c0-.13.09-.25.17-.45a1.84,1.84,0,0,1,2.52-.84h0l.17.11a8.85,8.85,0,0,0,9.13,0l.15-.09a.5.5,0,0,0-.48-.87l-.2.12a7.86,7.86,0,0,1-8,0l-.2-.13c-.18-.11-.35-.23-.53-.37L16.24,17a7.72,7.72,0,0,1-.83-.77l0,0a.92.92,0,0,1-.21-.39v0a1,1,0,0,1,.18-.8,7.39,7.39,0,0,1,13.18,4.48.5.5,0,0,0,0,.16,7.87,7.87,0,1,1-15.29,2.64ZM25.9,30.95a7.84,7.84,0,0,1-9.51,0l.49-.87a8.81,8.81,0,0,0,8.52,0ZM12,31.92a.38.38,0,0,1,.38-.38h3.13l.28.21.26.2.37.24.28.17.39.21.29.15.41.17.3.12.43.14.31.09.45.1.3.07.51.07.25,0q.39,0,.78,0t.78,0l.24,0,.52-.07.29-.06.46-.1.29-.09.44-.14.29-.12.42-.18.29-.15.4-.21.28-.17.37-.24.26-.2.28-.21h3.13a.38.38,0,0,1,.38.38V46.29H12ZM28.71,79.24v8a.53.53,0,0,1-.53.53H14.1a.53.53,0,0,1-.53-.53v-8a2.53,2.53,0,0,1,2.53-2.53H26.18A2.53,2.53,0,0,1,28.71,79.24Zm-.24-2.66a3.49,3.49,0,0,0-2.29-.86H16.1a3.49,3.49,0,0,0-2.29.86,2.52,2.52,0,0,1,2.29-1.47H26.18A2.52,2.52,0,0,1,28.47,76.58ZM26,72.6v1.51H16.3V72.6ZM16.3,67.92V66.41H26v1.51Zm10-2.51H16L14.3,63.9H28Zm.27-14.1H15.73l-3.17-4H29.73ZM43.48,16.67a2,2,0,0,0,.14.21l0,0c.1.1.21.19.31.29a2.74,2.74,0,0,0-1.05.47A2.44,2.44,0,0,1,43.48,16.67Zm-1.22,5.62a7.87,7.87,0,0,1,.46-2.64c0-.13.09-.25.17-.45a1.84,1.84,0,0,1,2.52-.84h0l.17.11a8.85,8.85,0,0,0,9.13,0l.15-.09a.5.5,0,1,0-.48-.87l-.2.12a7.86,7.86,0,0,1-8,0l-.2-.13c-.18-.11-.35-.23-.53-.37L45.23,17a7.72,7.72,0,0,1-.83-.77l0,0a.92.92,0,0,1-.21-.39v0a1,1,0,0,1,.18-.8,7.39,7.39,0,0,1,13.18,4.48.5.5,0,0,0,0,.16,7.87,7.87,0,1,1-15.29,2.64Zm12.62,8.65a7.84,7.84,0,0,1-9.51,0l.49-.87a8.81,8.81,0,0,0,8.52,0Zm-23.5,9.62V35.72H40v4.84ZM41,34.72v-2.8a.38.38,0,0,1,.38-.38h3.13l.28.21.26.2.37.24.28.17.39.21.29.15.41.17.3.12.43.14.31.09.45.1.3.07.51.07.25,0q.39,0,.78,0t.78,0l.24,0,.52-.07.29-.06.46-.1.29-.09.44-.14.29-.12.42-.18.29-.15.4-.21.28-.17.37-.24.26-.2.28-.21h3.13a.38.38,0,0,1,.38.38V46.29H41V41.57h0V34.72ZM57.7,79.24v8a.53.53,0,0,1-.53.53H43.09a.53.53,0,0,1-.53-.53v-8a2.53,2.53,0,0,1,2.53-2.53H55.18A2.53,2.53,0,0,1,57.7,79.24Zm-.24-2.66a3.49,3.49,0,0,0-2.29-.86H45.09a3.49,3.49,0,0,0-2.29.86,2.52,2.52,0,0,1,2.29-1.47H55.18A2.52,2.52,0,0,1,57.46,76.58ZM55,72.6v1.51H45.3V72.6ZM45.3,67.92V66.41H55v1.51Zm10-2.51H45l-1.7-1.51H57Zm.27-14.1H44.72l-3.17-4H58.72ZM68.9,40.57H60.26V35.72H68.9Zm3.58-23.9a2,2,0,0,0,.14.21l0,0c.1.1.21.19.31.29a2.74,2.74,0,0,0-1.05.47A2.44,2.44,0,0,1,72.48,16.67Zm-1.22,5.62a7.87,7.87,0,0,1,.46-2.64c0-.13.09-.25.17-.45a1.84,1.84,0,0,1,2.52-.84h0l.17.11a8.85,8.85,0,0,0,9.13,0l.15-.09a.5.5,0,0,0-.48-.87l-.2.12a7.86,7.86,0,0,1-8,0l-.2-.13c-.18-.11-.35-.23-.53-.37L74.23,17a7.72,7.72,0,0,1-.83-.77l0,0a.92.92,0,0,1-.21-.39v0a1,1,0,0,1,.18-.8,7.39,7.39,0,0,1,13.18,4.48.5.5,0,0,0,0,.16,7.87,7.87,0,1,1-15.29,2.64Zm12.62,8.65a7.84,7.84,0,0,1-9.51,0l.49-.87a8.81,8.81,0,0,0,8.52,0ZM70,31.92a.38.38,0,0,1,.38-.38h3.13l.28.21.26.2.37.24.28.17.39.21.29.15.41.17.3.12.43.14.31.09.45.1.3.07.51.07.25,0q.39,0,.78,0t.78,0l.24,0,.52-.07.29-.06.46-.1.29-.09.44-.14.29-.12.42-.18.29-.15.4-.21.28-.17L84.2,32l.26-.2.28-.21h3.13a.38.38,0,0,1,.38.38V46.29H70ZM86.7,79.24v8a.53.53,0,0,1-.53.53H72.09a.53.53,0,0,1-.53-.53v-8a2.53,2.53,0,0,1,2.53-2.53H84.17A2.53,2.53,0,0,1,86.7,79.24Zm-.24-2.66a3.49,3.49,0,0,0-2.29-.86H74.09a3.49,3.49,0,0,0-2.29.86,2.52,2.52,0,0,1,2.29-1.47H84.17A2.52,2.52,0,0,1,86.46,76.58ZM84,72.6v1.51H74.29V72.6Zm-9.67-4.68V66.41H84v1.51Zm10-2.51H74l-1.7-1.51H86Zm.27-14.1H73.72l-3.17-4H87.72Z"/></g></svg>