<svg fill="#000000" xmlns:dc="http://purl.org/dc/elements/1.1/" xmlns:cc="http://creativecommons.org/ns#" xmlns:rdf="http://www.w3.org/1999/02/22-rdf-syntax-ns#" xmlns:svg="http://www.w3.org/2000/svg" xmlns="http://www.w3.org/2000/svg" xmlns:sodipodi="http://sodipodi.sourceforge.net/DTD/sodipodi-0.dtd" xmlns:inkscape="http://www.inkscape.org/namespaces/inkscape" version="1.1" x="0px" y="0px" viewBox="0 0 100 100"><g transform="translate(0,-952.36218)"><path d="m 46.3125,1037.2956 44,9.9988 c 1.7597,0.414 3.6977,-1.1297 3.6875,-2.9372 l 0,-83.99002 c 0.01,-1.8075 -1.9278,-3.35118 -3.6875,-2.93715 l -44,9.99882 C 45.00298,967.7372 43.99234,969.02084 44,970.366 l 0,13.99834 c -0.0224,1.58475 1.4149,3.04237 3,3.04237 1.5851,0 3.0224,-1.45762 3,-3.04237 l 0,-11.59238 38,-8.62398 0,76.42842 -38,-8.624 0,-11.5923 c 0.022,-1.5848 -1.4149,-3.0424 -3,-3.0424 -1.5851,0 -3.02241,1.4576 -3,3.0424 l 0,13.9983 c 0.0136,1.4113 1.10905,2.6574 2.3125,2.9372 z" style="text-indent:0;text-transform:none;direction:ltr;block-progression:tb;baseline-shift:baseline;color:#000000;enable-background:accumulate;" fill="#000000" fill-opacity="1" stroke="none" marker="none" visibility="visible" display="inline" overflow="visible"/><path d="m 82,1002.3674 c -0.028,0.715 -0.3223,1.5414 -0.8125,2.0626 l -16,17.0008 c -1.0842,0.9743 -3.1632,1.3765 -4.375,0.25 -1.1936,-1.1095 -1.1581,-3.2613 0.031,-4.3752 l 11.25,-11.9381 -63.0935399,0 c -1.6568,0 -3,-1.3432 -3,-3.0001 0,-1.6569 1.3432,-3.00005 3,-3.00005 l 63.0935399,0 -11.25,-11.9381 c -1.0237,-1.0255 -1.2129,-3.253 -0.031,-4.3752 1.1816,-1.1221 3.3353,-0.7636 4.375,0.2501 l 16,17.00065 c 0.5475,0.5818 0.8143,1.2644 0.8125,2.0626 z" style="text-indent:0;text-transform:none;direction:ltr;block-progression:tb;baseline-shift:baseline;color:#000000;enable-background:accumulate;" fill="#000000" fill-opacity="1" stroke="none" marker="none" visibility="visible" display="inline" overflow="visible"/></g></svg>