<svg xmlns="http://www.w3.org/2000/svg" xmlns:xlink="http://www.w3.org/1999/xlink" version="1.1" x="0px" y="0px" width="100px" height="100px" viewBox="0 0 100 100" enable-background="new 0 0 100 100" xml:space="preserve">
<g id="Captions">
</g>
<g id="Your_Icon">
	<path d="M98.34,43.135c2.258-1.584,1.596-3.09-1.686-4.039c0.879-1.794-0.855-3.025-4.6-3.295c-0.549-1.813-3.1-2.646-6.812-2.224   c-1.959-1.584-5.078-1.909-8.354-0.817c-3.275-1.091-6.396-0.767-8.355,0.817c-1.426-0.163-2.68-0.138-3.717,0.056   c-3.674-0.285-7.561-0.069-10.881,1.253c-0.086-0.743,0.186-2.128,0.49-2.728c1.074-2.108,3.904-2.577,4.871-2.507   c0.301,0.951,1.662,1.389,3.66,1.166c1.049,0.837,2.717,1.003,4.473,0.429c1.76,0.575,3.428,0.408,4.48-0.429   c1.996,0.224,3.363-0.215,3.658-1.166c2.002-0.145,2.936-0.791,2.465-1.737c1.758-0.499,2.111-1.293,0.9-2.125   c1.211-0.836,0.857-1.626-0.9-2.123c0.471-0.947-0.463-1.597-2.465-1.734c-0.295-0.954-1.662-1.396-3.658-1.173   c-1.053-0.831-2.721-1.002-4.48-0.428c-1.756-0.574-3.424-0.403-4.473,0.428c-1.998-0.222-3.359,0.22-3.66,1.173   c-2.004,0.137-2.934,0.787-2.467,1.734c-1.756,0.497-2.111,1.287-0.9,2.123c-1.211,0.833-0.855,1.626,0.9,2.125   c-0.172,0.351-0.154,0.659,0.039,0.917c-0.033-0.103-2.371,1.717-3.266,2.343c-1.959-2.368-5.397-5.536-8.449-7.907   c0.878-0.056,1.657-0.336,2.246-0.834c2.069,0.247,3.492-0.242,3.797-1.296c2.082-0.154,3.053-0.874,2.559-1.917   c1.826-0.554,2.197-1.432,0.939-2.349c1.258-0.926,0.887-1.801-0.939-2.352c0.494-1.042-0.477-1.767-2.559-1.922   c-0.305-1.051-1.729-1.54-3.797-1.292c-1.09-0.923-2.825-1.11-4.649-0.475c-1.822-0.635-3.559-0.448-4.649,0.475   c-2.069-0.247-3.491,0.241-3.795,1.292c-2.086,0.156-3.052,0.88-2.562,1.922c-1.824,0.551-2.196,1.425-0.939,2.352   c-1.257,0.917-0.885,1.795,0.939,2.349c-0.489,1.043,0.477,1.763,2.562,1.917c0.305,1.054,1.727,1.543,3.795,1.296   c1.09,0.92,2.827,1.109,4.649,0.474c0.067,0.023,0.134,0.043,0.201,0.064c4.493,3.47,10.355,9.024,10.053,10.947   c-0.768,4.881-8.78,11.017-8.78,13.357c0-0.647-1.641-5.989-1.508-6.131c0.28-0.294,0.474-0.658,0.57-1.085   c2.382-0.225,3.486-1.282,2.926-2.831c2.085-0.809,2.51-2.105,1.073-3.461c1.437-1.354,1.012-2.651-1.073-3.464   c0.56-1.539-0.543-2.598-2.926-2.829c-0.348-1.552-1.974-2.276-4.337-1.909c-1.246-1.363-3.229-1.637-5.313-0.7   c-2.081-0.937-4.063-0.663-5.31,0.7c-2.363-0.367-3.991,0.357-4.338,1.909c-2.379,0.231-3.486,1.29-2.926,2.829   c-2.086,0.813-2.508,2.11-1.072,3.464c-1.437,1.356-1.014,2.652,1.072,3.461c-0.56,1.548,0.547,2.605,2.926,2.831   c0.348,1.552,1.975,2.274,4.338,1.908c1.247,1.365,3.229,1.637,5.31,0.699c0.32,0.145,0.638,0.256,0.951,0.344   c0.018,0.667,0.135,1.339,0.356,2.017c-2.084-0.222-4.083-0.529-6.01-0.764c-0.623-1.147-2.452-1.659-5.014-1.358   c-1.48-1.227-3.844-1.472-6.325-0.628C17.186,42.136,17,42,17,42c-0.744-0.667-3.103-2.594-3.165-2.669   c0.112-0.059,0.218-0.125,0.311-0.208c0.952,0.121,1.605-0.116,1.747-0.629c0.958-0.075,1.405-0.422,1.177-0.934   c0.842-0.27,1.012-0.695,0.433-1.146c0.579-0.446,0.409-0.871-0.433-1.143c0.228-0.509-0.219-0.864-1.177-0.933   c-0.142-0.514-0.795-0.753-1.747-0.633c-0.503-0.447-1.304-0.54-2.143-0.23c-0.839-0.309-1.641-0.217-2.14,0.23   c-0.951-0.12-1.608,0.119-1.748,0.633c-0.959,0.069-1.405,0.424-1.178,0.933c-0.841,0.272-1.012,0.697-0.433,1.143   c-0.579,0.451-0.408,0.876,0.433,1.146c-0.227,0.511,0.218,0.859,1.178,0.934c0.14,0.513,0.797,0.75,1.748,0.629   c0.5,0.447,1.301,0.543,2.14,0.233c0.649,0.24,2.831,1.625,3.408,2.452c-1.639-0.14-3.108,0.236-4.145,1.095   c-2.815-0.331-4.753,0.318-5.168,1.718c-2.833,0.208-4.151,1.161-3.483,2.554c-2.486,0.732-2.988,1.896-1.277,3.122   c-1.711,1.223-1.208,2.387,1.277,3.12c-0.668,1.389,0.65,2.347,3.483,2.553c0.415,1.4,2.353,2.045,5.168,1.716   c1.481,1.232,3.847,1.474,6.328,0.63c2.481,0.844,4.845,0.603,6.325-0.63c2.817,0.329,4.753-0.315,5.167-1.716   c2.836-0.206,4.153-1.164,3.485-2.553c2.486-0.732,2.986-1.896,1.275-3.12c1.711-1.226,1.21-2.389-1.275-3.122   c0.056-0.118,0.093-0.231,0.122-0.343c2.633,0.974,4.666,2.612,5.436,5.072c6.504,0,6.065,22.215,4.207,28.643   c8.832-0.294,5.74-10.912,12.074-15.31c0.367,0.393,1.012,0.794,1.926,1.188c-1.014,1.05,0.146,2.039,3.07,2.657   c-0.041,1.096,1.682,1.811,4.604,1.891c-0.932,0.464-0.865,0.479,0.186,0.047c-0.336,1.26,0.473,2.045,2.188,2.112   c0.613,1.71,2.27,2.652,4.422,2.491c1.586,1.713,3.668,2.326,5.572,1.611c2.514,1.487,4.648,1.611,5.705,0.368   c2.865,1.037,4.658,0.698,4.785-0.879c2.939,0.513,4.211-0.22,3.367-1.954c2.686-0.062,3.256-1.13,1.465-2.869   c1.988-0.104,1.926-0.744-0.15-1.735c1.98,0.08,2.041-0.198,0.15-0.765c2.047-0.925,1.723-2.146-0.807-3.266   c1.129-1.254,0.055-2.395-2.846-3.045c0.176-1.438-1.482-2.369-4.418-2.492c0.562-0.865,0.053-1.056-1.395-0.531   c0.318-1.246-0.377-1.755-1.879-1.368c-0.717-1.705-2.445-2.42-4.604-1.894c-1.682-1.573-3.803-1.908-5.672-0.863   c-2.592-1.229-4.723-1.074-5.705,0.39c-2.9-0.735-4.658-0.16-4.688,1.514c-2.656-0.189-3.893,0.531-3.398,1.938   c-2.865,0.582-5.841,2.524-9.001,6.656c-0.083-9.902,6.902-14.023,13.462-16.068c0.305,0.039,0.627,0.071,0.967,0.095   c0.553,1.811,3.104,2.653,6.816,2.227c1.959,1.583,5.08,1.906,8.355,0.815c3.275,1.091,6.395,0.768,8.354-0.815   c3.713,0.427,6.264-0.416,6.812-2.227c3.744-0.26,5.479-1.498,4.6-3.293C99.936,46.228,100.598,44.718,98.34,43.135z    M35.322,43.163c1.435,0.203,2.725-0.208,3.627-1.198c0.564,0.087,1.086,0.113,1.559,0.08c0.269-0.019,1.68,8.619,1.692,10.002   C42.182,49.987,36.641,47.545,35.322,43.163z M62.518,34.611c-0.387,0.33-0.66,0.728-0.801,1.19   c-3.195,0.231-4.926,1.164-4.814,2.548c-2.312,1.294-4.422,2.195-5.297,2.631C52.188,34.977,57.367,34.376,62.518,34.611z    M49.316,51.791c-3.05,3.21-6.521,3.674-4.224-2.344c1.545-4.052,5.135-6.527,8.953-8.321c-0.029,1.172,0.605,1.456,1.393,2.009   c-2.26,1.583-1.6,3.093,1.682,4.037c-0.039,0.08-0.072,0.159-0.102,0.237C54.482,47.977,51.896,49.072,49.316,51.791z"/>
</g>
</svg>
