<svg xmlns="http://www.w3.org/2000/svg" xmlns:xlink="http://www.w3.org/1999/xlink" version="1.1" id="Layer_1" x="0px" y="0px" width="100px" height="100px" viewBox="0 0 100 100" enable-background="new 0 0 100 100" xml:space="preserve">
<g>
	<path fill="none" d="M68.808,94.463"/>
</g>
<path fill="#000000" d="M88.882,89.941c0,0-0.143-0.231-0.313-0.524c0.021,0.047,0.031,0.074,0.031,0.074  c0.115,0.274-0.014,0.592-0.288,0.707c-0.274,0.116-0.613,0.333-0.729,0.059l-0.171-0.398c0,0-0.177-0.425-0.455-1.08  c-0.271-0.65-0.516-1.485-1.082-2.69c-0.612-1.186-1.31-2.649-2.226-4.269c-0.869-1.646-1.947-3.447-3.12-5.415  c-0.57-0.994-1.252-1.977-1.905-3.024c-0.67-1.038-1.325-2.135-2.089-3.204c-1.485-2.166-3.043-4.458-4.797-6.727  c-1.679-2.326-3.569-4.606-5.474-6.938c-0.932-1.184-1.941-2.316-2.959-3.45c-1.013-1.138-2.029-2.281-3.045-3.423  c-2.087-2.235-4.255-4.396-6.345-6.565c-2.198-2.06-4.362-4.085-6.456-6.046c-2.181-1.866-4.288-3.669-6.286-5.379  c-0.984-0.875-1.99-1.665-2.976-2.414c-0.979-0.758-1.925-1.49-2.833-2.193c-1.821-1.399-3.432-2.764-4.987-3.798  c-1.522-1.082-2.849-2.025-3.942-2.803c-2.182-1.563-3.429-2.457-3.429-2.457s1.287,0.833,3.54,2.292  c1.125,0.734,2.491,1.625,4.057,2.648c1.591,0.99,3.249,2.299,5.113,3.652c0.923,0.688,1.885,1.406,2.88,2.149  c1.003,0.734,2.027,1.508,3.029,2.369c2.033,1.685,4.186,3.452,6.371,5.329c2.116,1.957,4.302,3.978,6.524,6.031  c2.113,2.165,4.306,4.323,6.418,6.556c1.028,1.142,2.058,2.284,3.082,3.421c1.03,1.134,2.055,2.266,2.997,3.45  c1.932,2.331,3.848,4.615,5.553,6.943c1.778,2.271,3.36,4.566,4.871,6.737c1.403,2.042,2.658,4.024,3.806,5.884  c1.451-0.983,2.561-2.431,2.689-5.453c0.261-3.836-0.213-7.105-2.936-12.937l-2.662,0.77l1.249-3.635  c-1.947-4.028-3.467-8.297-6.422-12.535l-3.348,3.755l1.865-5.44c-3.922-5.536-8.568-9.979-13.597-14.728l-2.043,3.785l0.008-5.681  C48.891,16.782,41.351,13.1,34.376,11.154l-1.426,4.881l-0.7-5.427C17.783,7.223,6.305,11.05,6.84,11.252  c0.278,0.405,5.357,10.488,14.036,21.353l7.549-2.769l-6.149,4.488c2.7,3.258,5.719,6.537,9.017,9.615l7.368-2.009l-5.798,3.538  c1.421,1.303,1.888,1.571,3.411,2.776c2.199,1.705,4.357,3.524,6.477,5.384l6.794-1.119l-4.12,3.506  c3.988,3.626,7.797,7.326,11.359,10.686l6.787-0.006l-4.469,2.245c5.025,4.691,8.523,7.56,12.281,9.336  c3.239,1.438,4.931-0.275,7.15-1.385c0.103-0.052,0.206-0.102,0.31-0.152c0.079,0.145,0.169,0.289,0.245,0.434  c1.087,1.994,2.082,3.821,2.876,5.482c0.844,1.64,1.468,3.113,2.023,4.308c0.504,1.209,0.917,2.163,1.147,2.795  c0.243,0.655,0.609,1.603,0.609,1.603l0.022,0.061c0.005,0.014,0.012,0.028,0.017,0.043c0.341,0.827,1.052,0.624,1.879,0.284  C88.491,91.407,89.223,90.77,88.882,89.941z"/>
</svg>
