<?xml version="1.0" encoding="utf-8"?>
<!-- Generator: Adobe Illustrator 15.1.0, SVG Export Plug-In . SVG Version: 6.00 Build 0)  -->
<!DOCTYPE svg PUBLIC "-//W3C//DTD SVG 1.1//EN" "http://www.w3.org/Graphics/SVG/1.1/DTD/svg11.dtd">
<svg version="1.1"
	 id="svg3066" xmlns:sodipodi="http://sodipodi.sourceforge.net/DTD/sodipodi-0.dtd" xmlns:dc="http://purl.org/dc/elements/1.1/" xmlns:rdf="http://www.w3.org/1999/02/22-rdf-syntax-ns#" xmlns:svg="http://www.w3.org/2000/svg" xmlns:inkscape="http://www.inkscape.org/namespaces/inkscape" sodipodi:docname="Military Press.svg" inkscape:version="0.47 r22583" xmlns:cc="http://creativecommons.org/ns#"
	 xmlns="http://www.w3.org/2000/svg" xmlns:xlink="http://www.w3.org/1999/xlink" x="0px" y="0px" width="100px" height="100px"
	 viewBox="0 0 100 100" enable-background="new 0 0 100 100" xml:space="preserve">
<defs>
	
	
		<inkscape:perspective  id="perspective3074" inkscape:vp_x="0 : 526.18109 : 1" inkscape:vp_y="0 : 1000 : 0" inkscape:vp_z="744.09448 : 526.18109 : 1" inkscape:persp3d-origin="372.04724 : 350.78739 : 1" sodipodi:type="inkscape:persp3d">
		</inkscape:perspective>
	
		<inkscape:perspective  id="perspective3084" inkscape:vp_x="0 : 0.5 : 1" inkscape:vp_y="0 : 1000 : 0" inkscape:vp_z="1 : 0.5 : 1" inkscape:persp3d-origin="0.5 : 0.33333333 : 1" sodipodi:type="inkscape:persp3d">
		</inkscape:perspective>
	
		<inkscape:perspective  id="perspective3119" inkscape:vp_x="0 : 0.5 : 1" inkscape:vp_y="0 : 1000 : 0" inkscape:vp_z="1 : 0.5 : 1" inkscape:persp3d-origin="0.5 : 0.33333333 : 1" sodipodi:type="inkscape:persp3d">
		</inkscape:perspective>
	
		<inkscape:perspective  id="perspective3174" inkscape:vp_x="0 : 0.5 : 1" inkscape:vp_y="0 : 1000 : 0" inkscape:vp_z="1 : 0.5 : 1" inkscape:persp3d-origin="0.5 : 0.33333333 : 1" sodipodi:type="inkscape:persp3d">
		</inkscape:perspective>
	
		<inkscape:perspective  id="perspective3222" inkscape:vp_x="0 : 0.5 : 1" inkscape:vp_y="0 : 1000 : 0" inkscape:vp_z="1 : 0.5 : 1" inkscape:persp3d-origin="0.5 : 0.33333333 : 1" sodipodi:type="inkscape:persp3d">
		</inkscape:perspective>
</defs>
<sodipodi:namedview  id="base" inkscape:zoom="2.8284271" inkscape:cx="44.82756" showgrid="false" inkscape:showpageshadow="true" showborder="true" borderopacity="1.0" inkscape:cy="60.149278" pagecolor="#ffffff" bordercolor="#666666" inkscape:pageshadow="2" inkscape:pageopacity="0.0" inkscape:document-units="px" inkscape:current-layer="layer1" inkscape:window-width="970" inkscape:window-height="844" inkscape:window-x="20" inkscape:window-y="20" inkscape:window-maximized="0">
	</sodipodi:namedview>
<g id="layer1" transform="translate(0,-952.36218)" inkscape:groupmode="layer" inkscape:label="Layer 1">
	<g id="g3037" transform="matrix(0.43833571,0,0,0.43833571,-40.135954,936.49778)">
		<polyline id="polyline3039" points="289.75,63 289.75,73.668 126.749,73.668 126.749,63 289.75,63 		"/>
		<path id="path3041" d="M142.75,95.333c0,3.313-2.687,6.001-6,6.001h-4c-3.314,0-6.001-2.688-6.001-6.001v-52
			c0-3.313,2.687-6,6.001-6h4c3.313,0,6,2.687,6,6V95.333z"/>
		<path id="path3043" d="M120.75,87.501c0,3.222-2.612,5.833-5.833,5.833l0,0c-3.223,0-5.833-2.611-5.833-5.833V51.167
			c0-3.223,2.61-5.834,5.833-5.834l0,0c3.222,0,5.833,2.611,5.833,5.834V87.501z"/>
		<path id="path3045" d="M273.917,43.333c0-3.313,2.687-6,5.997-6h4.001c3.315,0,6,2.687,6,6v52c0,3.313-2.685,6.001-6,6.001h-4.001
			c-3.311,0-5.997-2.688-5.997-6.001V43.333z"/>
		<path id="path3047" d="M295.917,51.167c0-3.223,2.611-5.834,5.833-5.834l0,0c3.222,0,5.833,2.611,5.833,5.834v36.333
			c0,3.222-2.611,5.833-5.833,5.833l0,0c-3.222,0-5.833-2.611-5.833-5.833V51.167z"/>
	</g>
	
		<circle id="circle3049" sodipodi:ry="12.334" sodipodi:cx="208.33299" sodipodi:rx="12.334" sodipodi:cy="99.5" cx="51.184" cy="980.112" r="5.406">
	</circle>
	<path id="path3051" d="M39.933,993.189l5.187,15.926l-5.041,39.743c0,0,1.607,3.068,4.383,3.068s4.383-2.923,4.383-2.923
		l1.461-29.368h1.753l2.191,29.514c0,0,1.315,2.776,4.384,2.776s4.237-3.068,4.237-3.068l-5.041-38.428l4.164-16.948l6.648-24.692
		c0,0,1.614-4.007-1.314-5.041c-3.727-1.315-4.822,2.191-4.822,2.191l-4.676,19.725c0,0-3.58,3.142-6.648,3.142
		c-3.068,0-6.209-2.265-6.209-2.265l-7.671-20.383c0,0-1.827-4.968-4.822-1.973s-0.877,4.822-0.877,4.822L39.933,993.189
		L39.933,993.189z"/>
</g>
</svg>
