<svg xmlns="http://www.w3.org/2000/svg" xmlns:xlink="http://www.w3.org/1999/xlink" version="1.1" x="0px" y="0px" viewBox="0 0 100 100" enable-background="new 0 0 100 100" xml:space="preserve"><g><path fill="#000000" d="M36.314,50c0,7.47,6.078,13.548,13.548,13.548S63.41,57.471,63.41,50c0-7.471-6.078-13.549-13.548-13.549   S36.314,42.529,36.314,50z M60.311,50c0,5.761-4.687,10.448-10.448,10.448S39.414,55.762,39.414,50   c0-5.762,4.687-10.449,10.448-10.449S60.311,44.239,60.311,50z M82.823,75.246C88.2,68.243,91.406,59.491,91.406,50   c0-22.908-18.636-41.544-41.543-41.544S8.319,27.093,8.319,50c0,22.907,18.636,41.543,41.543,41.543   c13.197,0,24.968-6.193,32.583-15.817C82.604,75.597,82.735,75.435,82.823,75.246z M49.862,11.556   c21.198,0,38.444,17.246,38.444,38.444c0,8.727-2.928,16.78-7.846,23.239c-2.104-0.261-2.485-1.282-3.06-2.836   c-0.336-0.909-0.716-1.938-1.5-2.83c-1.205-1.371-2.778-2.085-4.45-2.027c-1.795,0.069-3.542,1.066-4.793,2.734   c-0.978,1.304-1.524,2.761-2.053,4.17c-0.513,1.368-0.997,2.66-1.831,3.681c-1.091,1.336-2.879,1.845-4.349,1.241   c-1.022-0.423-1.836-1.669-2.582-2.909c-1.059-1.763-2.502-2.9-4.172-3.289c-1.483-0.348-3.056-0.05-4.422,0.83   c-1.666,1.072-2.803,3.133-3.464,4.674c-0.974,2.271-1.969,3.737-3.918,4.021c-3.149,0.454-4.299-2.843-5.563-7.557   c-0.468-1.743-0.909-3.388-1.566-4.56c-1.458-2.6-4.338-3.767-7.162-2.903c-2.379,0.727-3.296,2.329-4.104,3.743   c-0.36,0.63-0.7,1.225-1.165,1.755c-0.463,0.528-1.034,0.901-1.71,1.15C14.085,66.028,11.418,58.322,11.418,50   C11.418,28.802,28.665,11.556,49.862,11.556z M49.862,88.444c-11.869,0-22.496-5.408-29.553-13.888   c0.778-0.394,1.469-0.915,2.051-1.579c0.646-0.737,1.09-1.514,1.482-2.2c0.715-1.25,1.188-2.077,2.531-2.487   c1.569-0.479,3.168,0.175,3.983,1.627c0.489,0.874,0.888,2.359,1.31,3.932c1.102,4.106,2.583,9.632,7.533,9.631   c0.337,0,0.691-0.025,1.062-0.079c3.397-0.497,4.957-3.134,6.035-5.647c0.711-1.658,1.598-2.917,2.433-3.454   c0.752-0.484,1.556-0.646,2.325-0.467c0.933,0.217,1.78,0.921,2.45,2.036c0.981,1.631,2.088,3.286,3.88,4.026   c2.572,1.061,5.66,0.223,7.506-2.038c1.118-1.369,1.705-2.935,2.272-4.449c0.482-1.286,0.937-2.5,1.68-3.49   c0.755-1.007,1.745-1.606,2.714-1.644c0.834-0.023,1.632,0.348,2.294,1.101c0.449,0.511,0.711,1.221,0.989,1.973   c0.547,1.479,1.246,3.37,3.692,4.228C71.486,83.466,61.246,88.444,49.862,88.444z M48.662,28.07   c0.541-0.663,1.517-0.762,2.181-0.22l2.778,2.27c0.663,0.542,0.761,1.518,0.22,2.181c-0.306,0.375-0.752,0.569-1.201,0.569   c-0.345,0-0.692-0.114-0.979-0.35l-2.778-2.27C48.219,29.709,48.121,28.732,48.662,28.07z M69.935,34.889   c0.797,0.312,1.189,1.212,0.877,2.009l-1.309,3.339c-0.239,0.611-0.824,0.984-1.443,0.984c-0.188,0-0.379-0.034-0.565-0.107   c-0.797-0.312-1.189-1.212-0.877-2.009l1.309-3.339C68.238,34.97,69.137,34.574,69.935,34.889z M18.042,46.659   c-0.475,0-0.943-0.217-1.248-0.628c-0.509-0.688-0.364-1.659,0.324-2.168l2.884-2.134c0.689-0.51,1.659-0.363,2.168,0.324   c0.509,0.688,0.364,1.659-0.324,2.168l-2.884,2.134C18.685,46.56,18.361,46.659,18.042,46.659z M35.504,20.511l2.078-2.924   c0.495-0.698,1.463-0.861,2.162-0.366c0.698,0.496,0.861,1.464,0.366,2.162l-2.078,2.924c-0.302,0.425-0.78,0.652-1.265,0.652   c-0.311,0-0.624-0.093-0.896-0.287C35.172,22.176,35.009,21.208,35.504,20.511z M68.407,57.383l3.142-1.73   c0.748-0.414,1.692-0.141,2.105,0.61c0.413,0.75,0.14,1.692-0.61,2.105l-3.142,1.73c-0.237,0.13-0.493,0.192-0.746,0.192   c-0.547,0-1.077-0.29-1.359-0.803C67.384,58.739,67.657,57.796,68.407,57.383z M80.351,45.751c-0.31-0.798,0.086-1.696,0.884-2.006   c0.798-0.312,1.695,0.085,2.006,0.884l1.299,3.346c0.31,0.798-0.086,1.696-0.884,2.006c-0.185,0.072-0.374,0.105-0.561,0.105   c-0.621,0-1.207-0.375-1.445-0.989L80.351,45.751z M31.138,34.714c-0.277-0.81,0.156-1.691,0.966-1.968   c0.81-0.277,1.69,0.156,1.968,0.966l1.159,3.394c0.277,0.81-0.156,1.691-0.966,1.968c-0.166,0.057-0.335,0.083-0.501,0.083   c-0.645,0-1.247-0.405-1.467-1.049L31.138,34.714z M22.894,58.811c0.133-0.845,0.92-1.424,1.773-1.288l3.544,0.562   c0.845,0.134,1.422,0.928,1.288,1.773c-0.121,0.763-0.78,1.308-1.529,1.308c-0.081,0-0.162-0.006-0.245-0.02l-3.544-0.562   C23.336,60.45,22.759,59.656,22.894,58.811z M62.231,22.81c-0.288-0.806,0.132-1.693,0.938-1.981l3.379-1.207   c0.809-0.288,1.694,0.132,1.981,0.938c0.288,0.806-0.132,1.693-0.938,1.981l-3.379,1.207c-0.172,0.062-0.349,0.091-0.521,0.091   C63.054,23.839,62.458,23.444,62.231,22.81z"></path></g></svg>