<svg fill="#000000" xmlns="http://www.w3.org/2000/svg" xmlns:xlink="http://www.w3.org/1999/xlink" version="1.1" x="0px" y="0px" viewBox="0 0 100 100" enable-background="new 0 0 100 100" xml:space="preserve"><path fill="none" stroke="#000000" stroke-width="2" stroke-linecap="round" stroke-linejoin="round" stroke-miterlimit="10" d="  M75.156,41.821l-12.972,3.488c-3.499-6.042-11.595-10.276-21.028-10.276c-12.634,0-22.875,7.592-22.875,16.956  s10.241,16.956,22.875,16.956c9.47,0,17.595-4.266,21.071-10.346l12.929,4.346c1.104,0,2-0.895,2-2V43.821  C77.156,42.716,76.261,41.821,75.156,41.821z"/><path fill="none" stroke="#000000" stroke-width="2" stroke-linecap="round" stroke-linejoin="round" stroke-miterlimit="10" d="  M33.082,36.122c0,0-0.051-8.427,12.074-7.552s15.625,8.25,15.625,8.25l-0.301,6.097"/><path fill="none" stroke="#000000" stroke-width="2" stroke-linecap="round" stroke-linejoin="round" stroke-miterlimit="10" d="  M51.686,36.939c0,0-1.946-4.782,2.449-6.075"/><path fill="none" stroke="#000000" stroke-width="2" stroke-linecap="round" stroke-linejoin="round" stroke-miterlimit="10" d="  M43.163,35.1c0,0-2.378-2.233,1.245-6.568"/><path fill="none" stroke="#000000" stroke-width="2" stroke-linecap="round" stroke-linejoin="round" stroke-miterlimit="10" d="  M33.082,68.035c0,0-0.051,8.427,12.074,7.552s15.625-8.25,15.625-8.25l-0.301-6.097"/><path fill="none" stroke="#000000" stroke-width="2" stroke-linecap="round" stroke-linejoin="round" stroke-miterlimit="10" d="  M51.686,67.218c0,0-1.946,4.782,2.449,6.075"/><path fill="none" stroke="#000000" stroke-width="2" stroke-linecap="round" stroke-linejoin="round" stroke-miterlimit="10" d="  M43.163,69.057c0,0-2.378,2.233,1.245,6.568"/><line fill="none" stroke="#000000" stroke-width="2" stroke-linecap="round" stroke-linejoin="round" stroke-miterlimit="10" x1="62.656" y1="49.446" x2="77.156" y2="48.946"/><line fill="none" stroke="#000000" stroke-width="2" stroke-linecap="round" stroke-linejoin="round" stroke-miterlimit="10" x1="62.656" y1="54.321" x2="77.156" y2="56.321"/><path fill="none" stroke="#000000" stroke-width="2" stroke-linecap="round" stroke-linejoin="round" stroke-miterlimit="10" d="  M35.156,45.488c0,0,7.25,5.833,1.167,12.583"/><circle cx="28.323" cy="51.238" r="1.917"/><g><path fill="none" stroke="#000000" stroke-linecap="round" stroke-miterlimit="10" d="M38.25,37.979   c1.413,0.678,0.261,1.848,1.634,3.131c0.658,0.615,2.569,0.37,3.23,1.342c0.538,0.791-0.353,2.448,0.066,3.5   c0.358,0.9,2.173,1.466,2.369,2.572c0.17,0.958-1.312,2.134-1.312,3.256c0,1.136,1.479,2.329,1.306,3.305   c-0.199,1.12-2.02,1.705-2.382,2.625c-0.421,1.067,0.474,2.734-0.065,3.547c-0.66,0.995-2.586,0.797-3.242,1.438   c-1.366,1.335-0.17,2.465-1.577,3.206"/></g><g><path fill="none" stroke="#000000" stroke-linecap="round" stroke-miterlimit="10" d="M44.133,37.979   c1.413,0.678,0.261,1.848,1.634,3.131c0.658,0.615,2.569,0.37,3.23,1.342c0.538,0.791-0.353,2.448,0.066,3.5   c0.358,0.9,2.173,1.466,2.369,2.572c0.17,0.958-1.312,2.134-1.312,3.256c0,1.136,1.479,2.329,1.306,3.305   c-0.199,1.12-2.02,1.705-2.382,2.625c-0.421,1.067,0.474,2.734-0.065,3.547c-0.66,0.995-2.586,0.797-3.242,1.438   c-1.366,1.335-0.17,2.465-1.577,3.206"/></g><g><path fill="none" stroke="#000000" stroke-linecap="round" stroke-miterlimit="10" d="M52.223,61.72   c0.44-0.53,1.879-0.422,2.293-1.104c0.364-0.601-0.386-1.818-0.082-2.543c0.274-0.652,1.678-0.963,1.875-1.72   c0.178-0.686-0.886-1.645-0.792-2.42c0.086-0.705,1.358-1.373,1.358-2.154c0-0.773-1.271-1.433-1.355-2.128   c-0.093-0.768,0.974-1.718,0.797-2.393c-0.196-0.75-1.598-1.048-1.872-1.689c-0.305-0.715,0.439-1.93,0.073-2.517   c-0.416-0.667-1.846-0.527-2.289-1.04"/></g></svg>