<svg xmlns="http://www.w3.org/2000/svg" xmlns:xlink="http://www.w3.org/1999/xlink" version="1.1" id="Your_Icon" x="0px" y="0px" width="100px" height="100px" viewBox="0 0 100 100" enable-background="new 0 0 100 100" xml:space="preserve">
<path d="M42,89v3c0,0,0,5,6,5s6-5,6-5v-3H42z"/>
<path d="M54,8c0,0,0-5-6-5s-6,5-6,5H54z"/>
<rect x="43" y="71" width="10" height="17"/>
<rect x="43" y="9" width="10" height="57"/>
<rect x="42" y="67" width="12" height="3"/>
<path d="M54,21.5v11.423c0,0,14-1.923,20.308,5.077c0,0,5.077-2.539,5.077-16.5c0-13.961-5.077-16.5-5.077-16.5  C68,12,54,10.077,54,10.077V21.5z"/>
<g>
	<path d="M42,27c0,0.55-0.27,0.64-0.6,0.2l-1.8-2.4c-0.33-0.44-0.918-0.481-1.307-0.093l-1.586,1.586   c-0.389,0.389-1.109,0.506-1.602,0.26l-10.211-5.105c-0.492-0.246-0.492-0.648,0-0.895l10.211-5.105   c0.492-0.246,1.213-0.129,1.602,0.26l1.586,1.586c0.389,0.389,0.977,0.347,1.307-0.093l1.8-2.4c0.33-0.44,0.6-0.35,0.6,0.2V27z"/>
</g>
</svg>
