<svg fill="#000000" xmlns="http://www.w3.org/2000/svg" xmlns:xlink="http://www.w3.org/1999/xlink" version="1.1" x="0px" y="0px" viewBox="0 0 100 100" enable-background="new 0 0 100 100" xml:space="preserve"><path d="M32.5,52h-25c-1.104,0-2-0.896-2-2s0.896-2,2-2h25c1.104,0,2,0.896,2,2S33.604,52,32.5,52z"/><path d="M92.5,52h-25c-1.104,0-2-0.896-2-2s0.896-2,2-2h25c1.104,0,2,0.896,2,2S93.604,52,92.5,52z"/><path d="M10.851,78.25c-0.691,0-1.364-0.358-1.734-1c-0.552-0.957-0.225-2.18,0.732-2.732l21.651-12.5  c0.957-0.551,2.18-0.225,2.732,0.732c0.552,0.957,0.225,2.18-0.732,2.732l-21.651,12.5C11.534,78.164,11.19,78.25,10.851,78.25z"/><path d="M67.502,38.25c-0.691,0-1.363-0.359-1.734-1c-0.552-0.957-0.225-2.18,0.732-2.732l21.65-12.5  c0.956-0.554,2.179-0.225,2.732,0.732c0.552,0.957,0.225,2.18-0.732,2.732l-21.65,12.5C68.186,38.164,67.841,38.25,67.502,38.25z"/><path d="M32.498,38.25c-0.339,0-0.683-0.086-0.998-0.269l-21.651-12.5c-0.957-0.552-1.284-1.775-0.732-2.732  c0.552-0.957,1.775-1.285,2.732-0.732l21.651,12.5c0.957,0.552,1.284,1.775,0.732,2.732C33.862,37.892,33.189,38.25,32.498,38.25z"/><path d="M89.148,78.25c-0.339,0-0.683-0.086-0.998-0.268l-21.65-12.5c-0.957-0.553-1.284-1.775-0.732-2.732  c0.553-0.956,1.772-1.285,2.732-0.732l21.65,12.5c0.957,0.553,1.284,1.775,0.732,2.732C90.512,77.892,89.84,78.25,89.148,78.25z"/></svg>