<svg xmlns="http://www.w3.org/2000/svg" xmlns:xlink="http://www.w3.org/1999/xlink" version="1.1" id="Layer_1" x="0px" y="0px" width="100px" height="100px" viewBox="0 0 100 100" enable-background="new 0 0 100 100" xml:space="preserve">
<path fill="#000000" d="M53.812,47.144c-0.502,0.014-0.922,0.158-1.334,0.427l-0.235,0.163c0.073,0.208,0.019,0.461-0.248,0.584  c-0.75,0.347-1.553,0.448-2.395,0.455c-0.953-0.007-1.756-0.108-2.506-0.455c-0.229-0.105-0.302-0.307-0.272-0.492  c-0.439-0.291-0.865-0.571-1.509-0.689c-0.702-0.13-0.511-1.182,0.193-1.055c1.688,0.31,2.146,1.547,4.069,1.547  c1.786,0,2.261-1.505,4.21-1.555C54.5,46.056,54.527,47.126,53.812,47.144L53.812,47.144z M61.762,38.823  c0.578,0.357,0.041,1.226-0.537,0.867c-0.42-0.26-1.144-0.484-2.059-0.607c-0.044,0.807-0.709,1.446-1.525,1.446  c-0.82,0-1.488-0.644-1.525-1.453c-0.943,0.122-1.691,0.351-2.119,0.614c-0.58,0.358-1.114-0.51-0.536-0.867  c0.874-0.541,2.447-0.86,4.158-0.86C59.329,37.962,60.886,38.283,61.762,38.823L61.762,38.823z M53.275,37.885  c-1.125,0.677-2.004-0.88-0.879-1.557c1.939-1.167,4.227-1.818,6.655-1.725c1.616,0.064,3.104,0.448,4.388,1.085  c1.084,0.536,0.098,2.211-0.985,1.675c-1.063-0.526-2.302-0.85-3.661-0.903C56.757,36.381,54.869,36.925,53.275,37.885  L53.275,37.885z M37.185,38.823c0.874-0.54,2.432-0.86,4.145-0.86c1.71,0,3.282,0.319,4.158,0.86  c0.578,0.357,0.041,1.226-0.537,0.867c-0.428-0.264-1.176-0.492-2.118-0.614c-0.039,0.81-0.708,1.453-1.529,1.453  c-0.814,0-1.481-0.64-1.524-1.446c-0.915,0.123-1.638,0.348-2.06,0.607C37.141,40.048,36.604,39.18,37.185,38.823L37.185,38.823z   M45.671,37.885c-1.594-0.96-3.482-1.504-5.518-1.425c-1.359,0.054-2.601,0.377-3.663,0.903c-1.083,0.536-2.069-1.139-0.986-1.675  c1.284-0.637,2.773-1.021,4.389-1.085c2.431-0.094,4.715,0.558,6.654,1.725C47.671,37.005,46.793,38.562,45.671,37.885  L45.671,37.885z M69.374,38.462c0.659,0.163,0.416,1.153-0.244,0.99c-0.458-0.113-1.301,0.422-1.959,1.632  c0.165,0.202,0.213,0.552,0.101,0.944c-0.176,0.611-0.674,1.116-1.11,1.083c-0.956-0.074-0.345-1.499-0.287-1.635  C66.581,39.682,67.962,38.114,69.374,38.462L69.374,38.462z M29.569,38.462c1.415-0.349,2.796,1.22,3.504,3.015  c0.06,0.136,0.669,1.561-0.29,1.635c-0.436,0.033-0.933-0.472-1.108-1.083c-0.112-0.393-0.065-0.742,0.099-0.944  c-0.657-1.21-1.501-1.745-1.957-1.632C29.155,39.616,28.911,38.625,29.569,38.462L29.569,38.462z M58.932,62.717  c-0.145,0.213-0.307,0.422-0.479,0.624c-1.479,1.722-3.978,2.961-8.38,3.156c0.026,0.146,0.05,0.294,0.075,0.438  c3.102,0,6.162,0.002,8.303,0.004l-0.214,4.127l-7.445-1.438c1.145,3.735,3.035,5.972,5.02,5.972c2.115,0,4.164-2.51,5.312-6.836  C60.458,66.936,59.422,64.08,58.932,62.717L58.932,62.717z M48.872,66.498c-3.692-0.157-6.936-1.025-8.854-3.803  c-0.487,1.355-1.53,4.229-2.197,6.068c1.148,4.325,3.198,6.834,5.312,6.834c1.984,0,3.876-2.234,5.019-5.971l-7.445,1.438  l-0.211-4.125c2.054-0.004,5.133-0.006,8.301-0.006C48.821,66.792,48.847,66.645,48.872,66.498L48.872,66.498z M33.916,79.468  c-0.095-0.491-0.572-0.812-1.063-0.717c-0.493,0.095-0.815,0.571-0.719,1.063c0.071,0.369,0.357,0.642,0.701,0.716l-0.387,3.153  l-3.137,0.61c-0.103-0.329-0.391-0.585-0.756-0.63c-0.497-0.062-0.95,0.293-1.012,0.791c-0.062,0.496,0.292,0.949,0.791,1.011  c0.373,0.046,0.724-0.144,0.897-0.452l2.888,1.346l-0.391,3.17c-0.351-0.01-0.688,0.186-0.846,0.525  c-0.211,0.452-0.014,0.992,0.439,1.204c0.454,0.212,0.994,0.017,1.205-0.44c0.158-0.336,0.089-0.723-0.142-0.984L34.56,87.5  l2.894,1.35c-0.116,0.33-0.037,0.713,0.237,0.967c0.365,0.344,0.94,0.322,1.282-0.043c0.341-0.367,0.321-0.94-0.044-1.284  c-0.273-0.255-0.662-0.308-0.984-0.168l-1.546-2.791l2.172-2.33c0.276,0.212,0.664,0.254,0.99,0.071  c0.438-0.241,0.598-0.795,0.354-1.232s-0.797-0.598-1.234-0.354c-0.325,0.18-0.497,0.529-0.466,0.879l-3.125,0.606l-1.544-2.789  C33.829,80.184,33.986,79.83,33.916,79.468L33.916,79.468z M53.67,89.002l5.74-14.297c-1.021,1.197-2.233,1.913-3.602,1.913  c-2.012,0-3.688-1.55-4.906-3.957C51.581,76.588,52.566,82.361,53.67,89.002L53.67,89.002z M49.472,99.454l4.121-10.261  l-1.911-2.577l-1.496,3.317l-0.739-16.176l-0.754,13.335l-1.439-3.343l-2.096,2.73c0.995-5.418,1.843-9.83,2.484-13.092  c-1.174,1.985-2.705,3.229-4.508,3.229c-1.359,0-2.566-0.706-3.582-1.895L49.472,99.454L49.472,99.454z M46.048,61.562  c-2.04-0.302-4.376-0.977-6.484-2.532c0.343,1.31,0.779,2.571,1.704,3.646c1.288,1.498,3.603,2.717,8.204,2.821  c4.322-0.099,8.107-1.036,9.579-5.337c0.131-0.378,0.237-0.758,0.336-1.133c-2.109,1.559-4.449,2.232-6.488,2.533  c-0.575,0.83-1.644,1.385-3.426,1.455C47.688,62.945,46.621,62.393,46.048,61.562L46.048,61.562z M27.364,37.758  c-16.777-1.457-26.3-7.383-24.946-12.954c1.123-4.617,6.293-7.686,19.964-3.921c18.446,5.079,35.736,5.079,54.183,0  c13.672-3.765,18.842-0.696,19.963,3.921c1.353,5.571-8.168,11.497-24.945,12.954c0.17,0.833,0.119,1.797-0.084,2.712  c-0.28,1.271-0.854,2.402-1.494,3.523c-0.945,1.65-1.822,2.769-2.816,3.277c-0.617,0.313-1.248,0.375-1.904,0.23  c-0.2,1.445-0.483,2.746-0.842,3.914l-1.02-0.154c0.412-1.312,0.729-2.811,0.928-4.517c0.058-0.482,0.59-0.562,0.861-0.32  l0.041,0.013c0.564,0.184,1.023,0.154,1.477-0.075c0.699-0.357,1.449-1.231,2.396-2.882c0.586-1.025,1.119-2.063,1.379-3.229  c0.435-1.963-0.015-3.296-0.873-3.609l-0.054-0.019c-0.903-0.289-2.081,0.204-3.127,1.501c-0.025,0.031-0.051,0.059-0.076,0.081  c-0.257,0.527-0.411,0.812-0.411,0.812c-0.323,0.604-1.073,0.342-0.95-0.333c0.133-0.716,1.781-10.703-4.248-8.498  c-6.945,2.537-10.062,1.242-11.291-0.737c-1.229,1.979-4.344,3.274-11.285,0.737c-6.032-2.205-4.384,7.782-4.253,8.498  c0.124,0.675-0.628,0.938-0.951,0.333c0,0-0.154-0.285-0.408-0.812c-0.025-0.022-0.054-0.05-0.077-0.081  c-1.047-1.297-2.223-1.79-3.129-1.501l-0.051,0.019c-0.86,0.313-1.308,1.646-0.874,3.609c0.259,1.166,0.791,2.204,1.379,3.229  c0.947,1.65,1.696,2.524,2.395,2.882c0.452,0.229,0.916,0.259,1.476,0.075l0.044-0.013c0.271-0.241,0.803-0.162,0.859,0.32  c1.184,10.21,6.666,12.92,10.986,13.708c-0.095-0.624,0.855-0.823,1.004-0.178c0.188,0.828,0.783,1.627,2.886,1.725  c2.105-0.098,2.699-0.896,2.889-1.725c0.146-0.646,1.097-0.446,1.004,0.178c2.586-0.471,5.586-1.631,7.833-4.676l1.129,0.173  c-0.483,0.716-1.009,1.342-1.56,1.893l-0.052,0.046c-0.306,1.23-0.569,2.412-1.06,3.52v0.314c0.33,0.93,2.226,5.817,2.471,6.938  l6.402,4.379l10.779,3.413c8.688,2.964,15.094,4.706,15.381,11.671l0.343,11.334H49.472H3.921L4.265,88.12  c0.286-6.965,6.691-8.707,15.381-11.671l10.778-3.413l6.392-4.371c0.238-1.101,2.141-6.013,2.47-6.944v-0.326  c-0.13-0.285-0.249-0.586-0.357-0.901c-0.304-0.886-0.499-1.781-0.704-2.606l-0.045-0.043c-2.113-2.111-3.831-5.354-4.516-10.341  c-0.657,0.145-1.288,0.083-1.903-0.23c-0.996-0.509-1.872-1.627-2.819-3.277c-0.641-1.121-1.211-2.253-1.493-3.523  C27.244,39.555,27.192,38.591,27.364,37.758L27.364,37.758z M66.316,35.862c0.36-0.836,0.77-1.844,1.186-2.989  c1.323-5.443-8.536-5.673-18.03-5.671c-9.494-0.002-19.354,0.228-18.028,5.671c0.415,1.146,0.825,2.153,1.184,2.989  c-0.118-3.469,0.69-8.541,5.908-6.636c8.01,2.928,9.982,0.438,10.447-1.174c0.178-0.608,0.805-0.608,0.98,0  c0.468,1.612,2.438,4.102,10.447,1.174C65.626,27.321,66.438,32.393,66.316,35.862L66.316,35.862z M82.352,56.721  c0,0.646,0.463,1.168,1.034,1.168c0.572,0,1.036-0.522,1.036-1.168s-0.464-1.17-1.036-1.17  C82.814,55.551,82.352,56.074,82.352,56.721L82.352,56.721z M56.264,50.775l27.139,4.136c1.101,0.168,1.572,1.022,1.529,1.854  c-0.053,0.963-0.798,1.897-2.072,1.703l-30.366-4.627c-0.996-0.15-1.478-0.863-1.527-1.615c-1.552,0.226-3.278,0.363-5.095,0.396  c0.53,0.438,1.339,0.848,3.667,0.848c0.42,0,0.832,0.024,1.239,0.022c0.272,0.413,0.703,0.729,1.33,0.884  c-0.352,0.083-0.726,0.129-1.123,0.139c-0.495,0.012-0.976-0.024-1.446-0.024c-1.835,0-3.269-0.093-4.601-1.335  c-0.387-0.363-0.652-0.479-1.219-0.521c-0.178-0.012-0.304-0.091-0.381-0.198c-0.286-0.287-0.138-0.901,0.393-0.875  c0.434,0.021,0.862,0.049,1.298,0.049c4.713,0,8.699-0.721,10.701-1.705c0.045-0.036,0.097-0.062,0.148-0.076  c0.195-0.104,0.371-0.21,0.521-0.318c0.554-0.396,1.146,0.437,0.593,0.83C56.779,50.494,56.538,50.639,56.264,50.775L56.264,50.775z   M30.915,20.863c7.938-31.883,8.844-17.066,18.557-16.62c9.719-0.447,10.621-15.274,18.564,16.654  c-5.013-1.245-11.519-1.996-18.627-1.996C42.362,18.901,35.912,19.639,30.915,20.863L30.915,20.863z"/>
</svg>
