<svg fill="#000000" xmlns="http://www.w3.org/2000/svg" xmlns:xlink="http://www.w3.org/1999/xlink" version="1.1" x="0px" y="0px" viewBox="0 0 100 100" enable-background="new 0 0 100 100" xml:space="preserve"><g><polygon points="3.283,71.453 18.612,56.123 21.969,59.496 6.649,74.824  "/></g><path d="M52.353,43.147c0,9.609-7.788,17.396-17.397,17.396c-9.608,0-17.401-7.787-17.401-17.396  c0-9.603,7.793-17.396,17.401-17.396C44.564,25.75,52.353,33.544,52.353,43.147L52.353,43.147z M50.4,43.147  c0-8.527-6.911-15.45-15.445-15.45c-8.533,0-15.444,6.923-15.444,15.45c0,8.533,6.911,15.445,15.444,15.445  C43.489,58.592,50.4,51.68,50.4,43.147L50.4,43.147z"/><g><path d="M35.099,29.447c0.564,2.984,2.764,5.402,5.67,6.264l-1.502,3.647l-10.359-2.945l-2.754,6.143   c-0.691,1.535,0,3.34,1.535,4.03c0.191,0.088,0.4,0.154,0.604,0.204l12.526,2.697c1.366,0.297,2.765-0.378,3.378-1.635l1.903-3.866   l2.149,2.495c1.843-7.343-2.62-14.79-9.965-16.623C37.237,29.589,36.173,29.452,35.099,29.447z"/></g><g><path d="M35.942,24.029c1.438-2.645,4.234-4.277,7.256-4.229c4.48,0.065,8.062,3.751,8.002,8.243l13.447-4.656   c0.91-0.312,1.932-0.17,2.736,0.378l10.35,7.146c0.34,0.253,0.648,0.564,0.872,0.943c0.872,1.437,0.4,3.318-1.047,4.185   l-3.171,1.908c-1.152,0.702-2.627,0.56-3.625-0.345l-5.797-5.26l-5.682,2.479l10.262,10.371l10.211,5.167l9.828-8.342   c1.053-0.895,2.584-0.96,3.713-0.176l3.034,2.105c0.191,0.132,0.366,0.285,0.521,0.449c1.13,1.251,1.042,3.176-0.203,4.312   L83.048,61.109c-0.904,0.822-2.217,1.037-3.329,0.516L65.58,55.119l-1.371,7.541l14.847,6.643c1.398,0.623,2.133,2.199,1.673,3.68   l-1.327,4.332c-0.027,0.088-0.055,0.188-0.1,0.275c-0.646,1.551-2.434,2.291-3.992,1.645L55.407,70.99   c-1.191-0.486-1.936-1.666-1.881-2.955l0.651-14.676l-1.858-2.154c4.442-9.593,0.275-20.973-9.312-25.416   C40.78,24.763,38.378,24.167,35.942,24.029z"/></g></svg>