<svg xmlns:dc="http://purl.org/dc/elements/1.1/" xmlns:cc="http://creativecommons.org/ns#" xmlns:rdf="http://www.w3.org/1999/02/22-rdf-syntax-ns#" xmlns:svg="http://www.w3.org/2000/svg" xmlns="http://www.w3.org/2000/svg" xmlns:sodipodi="http://sodipodi.sourceforge.net/DTD/sodipodi-0.dtd" xmlns:inkscape="http://www.inkscape.org/namespaces/inkscape" viewBox="0 0 32 32.000001" version="1.1" x="0px" y="0px"><g transform="translate(0,-1020.3622)"><g transform="translate(-2.7640848e-5,-3.9608678)"><g transform="translate(-193.99997,107.96089)"><g transform="translate(244.50034,-99.51437)"><g transform="matrix(0.91141401,0,0,0.91115977,-166.65538,-67.310652)"><g transform="translate(130,170)"><path style="color:#000000;font-style:normal;font-variant:normal;font-weight:normal;font-stretch:normal;font-size:medium;line-height:normal;font-family:sans-serif;text-indent:0;text-align:start;text-decoration:none;text-decoration-line:none;text-decoration-style:solid;text-decoration-color:#000000;letter-spacing:normal;word-spacing:normal;text-transform:none;direction:ltr;block-progression:tb;writing-mode:lr-tb;baseline-shift:baseline;text-anchor:start;white-space:normal;clip-rule:nonzero;display:inline;overflow:visible;visibility:visible;opacity:1;isolation:auto;mix-blend-mode:normal;color-interpolation:sRGB;color-interpolation-filters:linearRGB;solid-color:#000000;solid-opacity:1;fill:#000000;fill-opacity:1;fill-rule:nonzero;stroke:none;stroke-width:1.09734929;stroke-linecap:round;stroke-linejoin:round;stroke-miterlimit:4;stroke-dasharray:none;stroke-dashoffset:0;stroke-opacity:1;color-rendering:auto;image-rendering:auto;shape-rendering:auto;text-rendering:auto;enable-background:accumulate" d="M 5.5 6 C 4.6773833 6 4.0000017 6.6776783 4 7.5 C 4.0000017 8.3224128 4.6773833 9 5.5 9 C 5.9953334 9 6.434967 8.7520586 6.7089844 8.3769531 L 6.6445312 8.5253906 L 8.4785156 9.3183594 L 8.8769531 8.4023438 L 7.0410156 7.6054688 L 6.9726562 7.7636719 C 6.9882362 7.6777293 6.9999998 7.5901165 7 7.5 C 6.9999982 6.6776783 6.3226167 6 5.5 6 z M 5.5 7 C 5.7819511 7 5.9999994 7.2179049 6 7.5 C 5.9999994 7.7821862 5.7819511 8 5.5 8 C 5.2180489 8 5.0000006 7.7821862 5 7.5 C 5.0000006 7.2179049 5.2180489 7 5.5 7 z M 17 7.5 C 14.805641 7.5 13 9.2366154 13 11.384766 C 13 12.007999 13.258721 12.636137 13.605469 13.285156 C 13.952216 13.934084 14.40256 14.595365 14.849609 15.193359 C 14.927709 15.297829 14.987012 15.35871 15.064453 15.458984 C 14.709438 15.654419 14.422011 15.906861 14.230469 16.216797 C 13.969246 16.639484 13.92614 17.192965 14.160156 17.658203 C 14.628125 18.588771 15.800096 19.014032 17.052734 19 C 18.218362 18.987282 19.291655 18.588689 19.771484 17.765625 L 19.669922 18.035156 L 20.617188 18.388672 L 20.820312 18.900391 L 21.75 18.527344 L 21.464844 17.814453 L 21.382812 17.609375 L 21.173828 17.53125 L 20.023438 17.099609 L 19.980469 17.210938 C 20.032429 16.836037 19.934747 16.450095 19.722656 16.142578 C 19.53181 15.865802 19.259022 15.642228 18.933594 15.462891 C 19.012011 15.361423 19.071316 15.299134 19.150391 15.193359 C 19.597441 14.595365 20.047784 13.934084 20.394531 13.285156 C 20.741278 12.636137 21 12.007999 21 11.384766 C 21 9.2366154 19.19435 7.5 17 7.5 z M 17 8.5 C 18.67163 8.5 20 9.7954296 20 11.384766 C 20 11.696018 19.821221 12.233185 19.511719 12.8125 C 19.202215 13.391724 18.777559 14.021268 18.349609 14.59375 C 17.676567 15.494067 17.257694 15.934468 17 16.21875 C 16.742551 15.934741 16.323718 15.494431 15.650391 14.59375 C 15.22244 14.021268 14.797784 13.391724 14.488281 12.8125 C 14.178779 12.233185 14 11.696018 14 11.384766 C 14 9.7953385 15.328359 8.5 17 8.5 z M 9.7773438 9.2636719 L 8.9433594 9.8164062 L 10.052734 11.480469 L 10.886719 10.927734 L 9.7773438 9.2636719 z M 17 9.7558594 C 16.177383 9.7558594 15.500002 10.433447 15.5 11.255859 C 15.500002 12.078272 16.177383 12.755859 17 12.755859 C 17.822617 12.755859 18.499998 12.078272 18.5 11.255859 C 18.499998 10.433447 17.822617 9.7558594 17 9.7558594 z M 17 10.755859 C 17.281951 10.755859 17.5 10.973673 17.5 11.255859 C 17.5 11.538046 17.281951 11.755859 17 11.755859 C 16.71805 11.755859 16.500001 11.538046 16.5 11.255859 C 16.500001 10.973673 16.71805 10.755859 17 10.755859 z M 11.439453 11.757812 L 10.607422 12.3125 L 11.716797 13.976562 L 12.550781 13.421875 L 11.439453 11.757812 z M 13.103516 14.253906 L 12.271484 14.808594 L 12.583984 15.277344 L 12.673828 15.412109 L 12.824219 15.46875 L 14.169922 15.972656 L 14.521484 15.035156 L 13.326172 14.589844 L 13.103516 14.253906 z M 15.714844 16.265625 C 16.220754 16.872019 16.632813 17.339844 16.632812 17.339844 A 0.50011976 0.49998025 0 0 0 17.365234 17.339844 C 17.365234 17.339844 17.776486 16.873714 18.28125 16.269531 C 18.574225 16.404517 18.797087 16.563984 18.898438 16.710938 C 19.022044 16.890163 19.036363 17.006749 18.960938 17.179688 C 18.810089 17.525746 18.02754 17.988975 17.041016 18 C 16.054509 18.010934 15.23171 17.564883 15.052734 17.208984 C 14.963224 17.031035 14.973673 16.915633 15.082031 16.740234 C 15.177058 16.586493 15.399312 16.410299 15.714844 16.265625 z M 22.121094 19.457031 L 21.193359 19.826172 L 21.935547 21.685547 L 22.863281 21.3125 L 22.121094 19.457031 z M 23.234375 22.242188 L 22.306641 22.611328 L 22.537109 23.185547 L 22.613281 23.380859 L 22.806641 23.460938 L 24.083984 23.992188 L 24.46875 23.070312 L 23.384766 22.619141 L 23.234375 22.242188 z M 27.5 23 C 26.936778 23 26.447328 23.320812 26.191406 23.785156 L 25.392578 23.453125 L 25.007812 24.376953 L 26.03125 24.802734 C 26.172649 25.482456 26.780861 26 27.5 26 C 28.322617 26 28.999998 25.322322 29 24.5 C 28.999998 23.677587 28.322617 23 27.5 23 z M 27.5 24 C 27.78195 24 27.999999 24.217814 28 24.5 C 27.999999 24.782095 27.78195 25 27.5 25 C 27.218049 25 27.000001 24.782095 27 24.5 C 27.000001 24.217814 27.218049 24 27.5 24 z " transform="matrix(1.0971962,0,0,1.0975024,-2.5551326,1018.8005)"></path></g></g></g></g></g></g></svg>