<svg xmlns="http://www.w3.org/2000/svg" xmlns:xlink="http://www.w3.org/1999/xlink" version="1.1" x="0px" y="0px" viewBox="0 0 100 100" enable-background="new 0 0 100 100" xml:space="preserve"><g><path d="M84.981,41.475C84.981,20.504,69.32,6,50,6C30.683,6,15.019,20.504,15.019,41.475c0,11.262,4.527,25.454,11.701,36.193   C32.215,91,41.624,94.5,49.981,94.5c8.319,0,17.678-3.474,23.183-16.655C80.408,67.086,84.981,52.799,84.981,41.475z M49.981,93.5   c-12.299,0-26.96-7.975-26.96-45.964c0-9.288,0.982-14.021,3.516-16.417c0.1,0.375,0.226,0.762,0.413,1.179   c3.529,7.801,9.752,10.839,14.652,11.996c-0.356,1.221-1.106,2.368-2.306,3.256c-0.29,0.213-0.595,0.409-0.912,0.581   c-1.254,0.679-2.614,0.899-3.918,0.861c-0.028,0-0.05,0-0.078,0c-0.278-0.013-0.547-0.04-0.83,0.117   c-0.477,0.256-0.706,0.747-0.52,1.096c0.086,0.154,0.239,0.251,0.422,0.292c0.043,0.015,0.088,0.031,0.136,0.038   c1.766,0.222,3.71-0.181,5.475-1.137c0.425-0.232,0.837-0.494,1.226-0.782c1.479-1.097,2.546-2.514,3.036-3.976   c3.161,0.517,5.436,0.286,5.436,0.286c-3.831-2.125-5.817-5-6.749-7.913c4.303,4.326,9.853,6.326,14.5,7.236   c0.42,1.6,1.532,3.173,3.145,4.368c0.389,0.288,0.8,0.549,1.227,0.782c1.763,0.956,3.708,1.359,5.472,1.137   c0.05-0.007,0.095-0.023,0.138-0.038c0.183-0.041,0.337-0.137,0.423-0.292c0.186-0.35-0.045-0.84-0.521-1.096   c-0.282-0.157-0.552-0.13-0.832-0.117c-0.025,0-0.05,0-0.078,0c-1.304,0.038-2.662-0.183-3.916-0.861   c-0.317-0.172-0.625-0.368-0.914-0.581c-1.107-0.82-1.833-1.86-2.217-2.975c4.195,0.602,7.265,0.351,7.265,0.351   c-8.687-3.855-9.783-10.167-9.195-14.741c0.348,0.779,0.839,1.638,1.499,2.583c6.368,9.111,14.006,12.648,18.919,14.027   c0.001,0.247,0.005,0.486,0.005,0.74C76.941,85.525,62.28,93.5,49.981,93.5z"></path><path d="M49.979,76.505c-5.448,0-9.866-4.266-9.866-1.015c0,3.252,4.421,5.887,9.866,5.887c5.449,0,9.868-2.637,9.868-5.887   C59.847,72.239,55.433,76.505,49.979,76.505z"></path><path d="M55.862,58.861c0.42,0.072,0.75-0.179,1.022-0.484c0.018-0.022,0.036-0.041,0.056-0.062   c1.197-1.444,2.775-2.381,4.585-2.41c0.371-0.005,0.735,0.024,1.092,0.088c1.418,0.249,2.604,1.094,3.566,2.175   c0.023,0.022,0.041,0.045,0.059,0.063c0.203,0.238,0.389,0.478,0.709,0.534c0.539,0.095,1.05-0.262,1.145-0.8   c0.043-0.238-0.004-0.47-0.117-0.661c-0.025-0.052-0.048-0.104-0.083-0.15c-1.189-1.657-2.941-2.763-4.939-3.113   c-0.479-0.086-0.972-0.125-1.463-0.115c-2.514,0.039-4.856,1.304-6.274,3.395c-0.007,0.008-0.009,0.018-0.017,0.027   c0,0.002-0.002,0.007-0.004,0.009c-0.064,0.098-0.11,0.206-0.133,0.323c0,0.005,0,0.014,0,0.019c0,0.005-0.005,0.012-0.005,0.018   C54.966,58.254,55.324,58.766,55.862,58.861z"></path><path d="M33,58.766c0.321-0.057,0.509-0.296,0.71-0.534c0.021-0.02,0.041-0.038,0.059-0.063c0.967-1.085,2.15-1.926,3.571-2.177   c0.359-0.062,0.726-0.091,1.089-0.086c1.812,0.029,3.39,0.965,4.588,2.41c0.017,0.021,0.037,0.04,0.055,0.062   c0.27,0.306,0.604,0.557,1.024,0.484c0.539-0.095,0.896-0.606,0.801-1.145c0-0.006-0.005-0.013-0.005-0.018   c0-0.004,0-0.014,0-0.019c-0.021-0.117-0.068-0.224-0.136-0.32c-0.002-0.002-0.004-0.007-0.004-0.009   c-0.007-0.009-0.012-0.019-0.017-0.027c-1.419-2.093-3.763-3.358-6.274-3.397c-0.494-0.009-0.988,0.029-1.468,0.115   c-1.993,0.351-3.748,1.456-4.937,3.113c-0.035,0.045-0.057,0.098-0.083,0.15c-0.11,0.19-0.16,0.42-0.12,0.661   C31.951,58.503,32.462,58.861,33,58.766z"></path><path d="M36.047,63.456c-0.174-0.172-0.451-0.172-0.623,0l-3.148,3.151c-0.172,0.172-0.172,0.449,0,0.621   c0.085,0.086,0.2,0.129,0.31,0.129c0.111,0,0.224-0.043,0.31-0.129l3.151-3.15C36.216,63.906,36.216,63.628,36.047,63.456z"></path><path d="M38.677,63.456c-0.174-0.172-0.451-0.172-0.623,0l-3.148,3.151c-0.172,0.172-0.172,0.449,0,0.621   c0.086,0.086,0.2,0.129,0.31,0.129s0.222-0.043,0.31-0.129l3.151-3.15C38.849,63.906,38.849,63.628,38.677,63.456z"></path><path d="M41.599,63.456c-0.174-0.172-0.448-0.172-0.62,0l-3.151,3.151c-0.172,0.172-0.172,0.449,0,0.621   c0.086,0.086,0.2,0.129,0.31,0.129s0.227-0.043,0.312-0.129l3.148-3.15C41.771,63.906,41.771,63.628,41.599,63.456z"></path><path d="M43.901,63.456l-3.151,3.151c-0.169,0.172-0.169,0.449,0,0.621c0.086,0.086,0.2,0.129,0.312,0.129   c0.11,0,0.224-0.043,0.31-0.129l3.148-3.15c0.172-0.172,0.172-0.45,0-0.622S44.073,63.284,43.901,63.456z"></path><path d="M59.209,63.456c-0.172-0.172-0.448-0.172-0.62,0l-3.148,3.151c-0.172,0.172-0.172,0.449,0,0.621   c0.086,0.086,0.2,0.129,0.308,0.129c0.114,0,0.227-0.043,0.312-0.129l3.148-3.15C59.381,63.906,59.381,63.628,59.209,63.456z"></path><path d="M58.381,67.357c0.11,0,0.224-0.043,0.31-0.129l3.149-3.15c0.172-0.172,0.172-0.45,0-0.622c-0.174-0.172-0.45-0.172-0.619,0   l-3.153,3.151c-0.169,0.172-0.169,0.449,0,0.621C58.155,67.314,58.269,67.357,58.381,67.357z"></path><path d="M64.763,63.456c-0.174-0.172-0.447-0.172-0.619,0l-3.15,3.151c-0.172,0.172-0.172,0.449,0,0.621   c0.086,0.086,0.2,0.129,0.31,0.129c0.113,0,0.226-0.043,0.312-0.129l3.147-3.15C64.935,63.906,64.935,63.628,64.763,63.456z"></path><path d="M67.065,63.456l-3.15,3.151c-0.169,0.172-0.169,0.449,0,0.621c0.086,0.086,0.201,0.129,0.31,0.129   c0.113,0,0.226-0.043,0.312-0.129l3.147-3.15c0.172-0.172,0.172-0.45,0-0.622S67.237,63.284,67.065,63.456z"></path></g></svg>