<svg fill="#000000" xmlns="http://www.w3.org/2000/svg" xmlns:xlink="http://www.w3.org/1999/xlink" version="1.1" x="0px" y="0px" viewBox="0 0 100 100" style="enable-background:new 0 0 100 100;" xml:space="preserve"><g><path d="M82.7,11.8c-5.9,0-10.6,1.8-13.8,5.3c-5.5,6-4.7,14.5-3.9,22c0.6,6.2,0.6,9.7,0,10.3c0,0-2,1.2-9.9-0.7   c-15.1-3.7-26.9-2.1-35,4.9C8.4,63.7,9.8,80.7,9.9,81.4c0.4,3.9,3.6,6.8,7.5,6.8c0.2,0,0.5,0,0.7,0c4.1-0.4,7.2-4.1,6.8-8.2   c0-0.1-0.7-10,5-15c5.3-4.5,14.7-3.4,21.6-1.7c6.8,1.7,16.6,3.3,23.3-2.5c6.8-5.9,5.9-15,5.2-23.1c-0.2-2.6-0.9-9.4,0.1-10.5   c0.1-0.1,1-0.4,2.7-0.4c4.1,0,7.5-3.4,7.5-7.5S86.8,11.8,82.7,11.8z M70.4,18.5c0.2-0.2,0.3-0.3,0.5-0.5c0.6,0,1.3,0.2,2.1,0.6   c1.6,0.8,3.9,2.6,5.7,7.2c-0.1,0-0.1,0.1-0.2,0.1c-1.3,1.5-1.2,5.6-0.7,10.6c-5.1-4.2-9.3-2.9-11.2-1.9   C66.2,28.8,66.5,22.8,70.4,18.5z M17.9,86.1c-3.1,0.3-5.7-1.9-6-5c0-0.3-0.2-2.9,0.1-6.5C14,74,18.7,72.8,22.9,76   c-0.2,2.4-0.1,4.1-0.1,4.1C23.1,83.2,20.9,85.9,17.9,86.1z M23,75.4c-4.2-3-8.8-2-10.9-1.3c0.5-3.9,1.7-9,4.6-13.5   c2.4-0.9,7.7-2,11.7,3C24.7,66.9,23.4,71.8,23,75.4z M28.8,63.3c-3.9-4.8-9-4.2-11.7-3.3c1.2-1.7,2.6-3.3,4.3-4.8   c2.6-2.2,5.6-3.9,9-4.9c0.8,0.3,1.8,0.9,2.8,1.7c2.4,2,3.7,4.7,3.8,8.1C34,60.4,31.1,61.4,28.8,63.3z M37.5,60c-0.2-6-4-8.8-6.4-10   c2.9-0.8,6-1.2,9.5-1.2c2.4,0,5,0.2,7.7,0.6c1.1,1.4,3,4.1,2.8,6.9c-0.1,1.6-0.9,3.1-2.4,4.3C45.1,60,41.2,59.6,37.5,60z    M49.3,60.8c1.4-1.3,2.2-2.7,2.3-4.4c0.2-2.7-1.4-5.3-2.6-6.9c1.8,0.3,3.6,0.7,5.6,1.1c2.7,0.7,4.8,1,6.4,1.1   c1,1.3,2.7,3.9,2.6,6.7c-0.1,1.6-0.8,3-2,4.3c-3.4-0.1-6.8-0.8-9.6-1.5C51.1,61.1,50.2,60.9,49.3,60.8z M73.4,59.3   c-3.1,2.7-7.1,3.5-11.2,3.5c1.1-1.3,1.7-2.7,1.8-4.3c0.2-2.8-1.3-5.3-2.4-6.7c3.1,0.1,4.3-0.5,4.6-0.8c0.8-0.7,1.1-2.3,1.2-4.8   c0.6,0,1.4,0,2.5,0.4c1.8,0.7,4.4,2.6,7.1,7.8C76.2,56.2,75.1,57.9,73.4,59.3z M77.2,53.8c-4-7.5-7.9-8.2-9.8-8.1   c0-1.8-0.2-4-0.4-6.7c-0.1-1.2-0.2-2.5-0.3-3.8c1.7-1,6-2.5,11.2,2c0,0.2,0,0.5,0.1,0.7C78.4,43.2,79,49,77.2,53.8z M82.7,24.8   c-1,0-2.6,0.1-3.6,0.6c-2.5-6.1-5.8-7.6-7.7-7.9c2.8-2.5,6.6-3.7,11.3-3.7c3,0,5.5,2.5,5.5,5.5C88.2,22.4,85.7,24.8,82.7,24.8z"/></g></svg>