<svg fill="#000000" xmlns="http://www.w3.org/2000/svg" xmlns:xlink="http://www.w3.org/1999/xlink" viewBox="0 0 300 300" version="1.1" x="0px" y="0px"><title>sugar</title><desc>Created with Sketch.</desc><g stroke="none" stroke-width="1" fill="none" fill-rule="evenodd"><g stroke-width="4.28571429" stroke="#000000"><polygon points="108.25856 168.868396 152.045455 152.045455 195.832349 168.868396 195.832349 230.552515 152.045455 247.375456 108.25856 230.552515"/><polygon points="108.25856 172.560213 152.043559 188.29157 195.828559 172.560213 195.828559 230.241855 152.043559 245.973212 108.25856 230.241855"/><path d="M152.045455,187.07497 L152.045455,244.111981"/><polygon points="50 72.8229415 93.7868949 56 137.57379 72.8229415 137.57379 134.50706 93.7868949 151.330002 50 134.50706"/><polygon points="50 77 93.7849998 92.7313571 137.57 77 137.57 134.681643 93.7849998 150.413 50 134.681643"/><path d="M93.4805195,91 L93.4805195,148.037011"/><polygon points="165 72.8229415 208.786895 56 252.57379 72.8229415 252.57379 134.50706 208.786895 151.330002 165 134.50706"/><polygon points="165 77 208.785 92.7313571 252.57 77 252.57 134.681643 208.785 150.413 165 134.681643"/><path d="M208.480519,91 L208.480519,148.037011"/></g></g></svg>