<svg xmlns="http://www.w3.org/2000/svg" xmlns:xlink="http://www.w3.org/1999/xlink" version="1.1" id="Your_Icon" x="0px" y="0px" width="100px" height="100px" viewBox="0 0 100 100" enable-background="new 0 0 100 100" xml:space="preserve">
<circle cx="16.187" cy="61.46" r="2.363"/>
<circle cx="81.816" cy="61.46" r="2.363"/>
<path d="M98.823,59.518h-0.826c1.253-18.228-0.966-28.931-1.554-31.359c-0.019-0.096-0.043-0.188-0.067-0.279  c-0.041-0.159-0.065-0.245-0.067-0.254L96.3,27.626c-1.356-3.789-8.389-3.43-13.065-3.422c-11.397,0.021-45.596,0.196-49.201,0.532  c-10.147,0.945-13.989,7.636-18.617,13.83c-0.564-0.033-1.103-0.042-1.274,0.317c-5.474,2.608-8.599,6.849-8.979,7.401  c-0.215,0.14-2.305,1.549-2.625,3.874c-0.005,0.036-0.087,0.839,0.4,1.439c-0.246,0.608-0.682,1.934-0.686,3.725v4.919h-1.31  C0.424,60.241,0,60.645,0,61.137c0,0.491,0.424,0.895,0.942,0.895h5.091c0.518,0,0.941-0.402,0.941-0.895  c0-0.033-0.006-0.063-0.009-0.096c0.774-4.743,4.02-8.992,9.301-8.27c-0.02,0-0.041-0.002-0.062-0.002  c-4.777,0-8.65,3.875-8.65,8.651c0,4.777,3.873,8.649,8.65,8.649c4.778,0,8.651-3.872,8.651-8.649c0-0.17-0.007-0.337-0.016-0.504  c0.812,0.097,0.563,1.013,1.747,1.054c15.16,0,30.318,0,45.479,0c0.791,0.09,0.518-0.886,1.233-0.869  c-0.003,0.106-0.007,0.213-0.007,0.319c0,4.777,3.872,8.649,8.648,8.649c3.675,0,6.812-2.291,8.064-5.522h2.352  c0.297,0,0.543-0.233,0.563-0.526h4.679c0.291,0,0.528-0.231,0.528-0.518c0-0.283-0.237-0.516-0.528-0.516h-1.91v-1.012h3.136  c0.487,0,0.886-0.397,0.886-0.886v-0.688C99.709,59.915,99.311,59.518,98.823,59.518z M97.977,42.756H20.132l-0.13-0.311h77.96  C97.967,42.547,97.973,42.652,97.977,42.756z M41.299,28.727c18.149-0.117,37.294-0.352,55.067,0.261  c0.442,2.038,1.237,6.474,1.583,13.197H41.214C41.253,37.759,41.299,32.728,41.299,28.727z M39.884,29.524  c0.061,2.626,0,5.848,0,8.51c-4.385,0-8.77,0-13.155,0l-0.059-0.018c-0.074-1.194-0.288-4.526-0.553-7.188  C29.837,29.196,35.458,29.506,39.884,29.524z M25.256,31.386c0.001-0.003,0.001-0.005,0.002-0.009  c0.237,0.614,0.664,2.268,0.87,6.473l-4.515-1.388l-0.179,0.583l1.628,0.5c0.012,0.127,0.011,0.291-0.025,0.49  c-0.059,0-0.118,0-0.174-0.001c-0.975,0-1.95,0-2.926,0C20.61,35.762,23.372,33.23,25.256,31.386z M2.813,50.106  c0.188-1.178,0.87-2.115,1.476-2.739C4.989,47.691,3.918,50.504,2.813,50.106z M2.514,57.1c0.105,0.004,0.277,0,0.396-0.004  c0.016,0.148,0.031,0.316,0.043,0.493H2.514V57.1z M2.514,57.85H2.97c0.007,0.129,0.014,0.258,0.019,0.393H2.514V57.85z M2.514,58.5  h0.484c0.005,0.133,0.009,0.264,0.011,0.391H2.514V58.5z M2.514,59.152h0.502c0.003,0.137,0.005,0.268,0.007,0.391H2.514V59.152z   M2.514,60.241v-0.438h0.512c0.002,0.18,0.002,0.33,0.002,0.438H2.514z M16.204,66.514c-2.807,0-5.091-2.285-5.091-5.092  c0-2.808,2.284-5.092,5.091-5.092c2.808,0,5.091,2.284,5.091,5.092C21.295,64.229,19.012,66.514,16.204,66.514z M25.605,57.355  c-0.053,0.006-0.109,0.019-0.17,0.035l-0.192,0.035c-1.375-3.285-3.881-5.445-7.316-6.673c-1.591-0.312-2.654-0.206-4.415,0.058  c-4.917,1.125-7.279,4.804-8.693,9.431H3.29c0-0.614-0.015-2.655-0.167-3.509c-0.084-0.476-0.235-0.789-0.448-0.935  c-0.061-0.041-0.114-0.06-0.161-0.069v-0.406c0.004-1.918,0.531-3.316,0.738-3.793c1.381-1.023,2.537-2.177,2.062-5.032  c0,0,0.001-0.002,0.002-0.002l0.03-0.004l0.015-0.044c0.026-0.043,3.157-4.621,8.959-7.36l-0.02-0.042  c1.647-0.244,5.152,3.08,5.272,3.16c0.024,0.015,0.043,0.028,0.061,0.041l6.303,15.048L25.605,57.355z M81.939,66.514  c-2.807,0-5.092-2.285-5.092-5.092c0-2.808,2.285-5.092,5.092-5.092c2.808,0,5.092,2.284,5.092,5.092  C87.031,64.229,84.747,66.514,81.939,66.514z M94.855,62.989h-0.002H92.92c-0.021-0.294-0.268-0.527-0.562-0.527h-1.83  c0.02-0.161,0.033-0.321,0.045-0.483h4.283V62.989z M40.947,43.354c-0.173,5.588-0.164,11.878-0.098,17.02c-4.39,0-8.945,0-13.338,0  l-7.27-17.358h77.747c0.006,0.112,0.01,0.225,0.015,0.338C78.984,43.354,59.966,43.354,40.947,43.354z"/>
</svg>
