<svg fill="#000000" xmlns="http://www.w3.org/2000/svg" xmlns:xlink="http://www.w3.org/1999/xlink" version="1.1" x="0px" y="0px" viewBox="0 0 164 164" enable-background="new 0 0 164 164" xml:space="preserve"><g><path fill-rule="evenodd" clip-rule="evenodd" d="M105.827,25.335H57.853v7.92h47.974V25.335L105.827,25.335z M105.827,56.823   H57.853v7.92h47.974V56.823L105.827,56.823z M105.827,41.079H57.853v7.92h47.974V41.079z"/><path fill-rule="evenodd" clip-rule="evenodd" d="M67.33,164h29.021c2.268,0,4.123-1.855,4.123-4.123v-3.753   c0-2.267-1.855-4.122-4.123-4.122H67.33c-2.267,0-4.122,1.855-4.122,4.122v3.753C63.208,162.145,65.063,164,67.33,164L67.33,164z    M110.672,89.758H53.009c-8.749,0-15.887-7.139-15.887-15.888V16.208c0-8.75,7.138-15.888,15.887-15.888h57.663   c8.749,0,15.888,7.138,15.888,15.888V73.87C126.56,82.619,119.421,89.758,110.672,89.758L110.672,89.758z M53.009,78.124h57.663   c2.327,0,4.253-1.926,4.253-4.253V16.208c0-2.328-1.926-4.253-4.253-4.253H53.009c-2.328,0-4.253,1.925-4.253,4.253V73.87   C48.756,76.198,50.681,78.124,53.009,78.124L53.009,78.124z M88.376,148.44H75.305V94.173h13.071V148.44z"/></g></svg>