<svg fill="#000000" xmlns="http://www.w3.org/2000/svg" xmlns:xlink="http://www.w3.org/1999/xlink" version="1.1" x="0px" y="0px" viewBox="0 0 100 100" style="enable-background:new 0 0 100 100;" xml:space="preserve"><style type="text/css">
	.st0{fill:none;}
	.st1{fill:#000000;}
	.st2{fill:none;stroke:#000000;stroke-width:4;stroke-miterlimit:10;}
</style><path d="M54,44.7l-16.1-2.8l-7.6-14.5l-7.6,14.5L6.4,44.7l11.4,11.7l-2.3,16.2l14.7-7.2l14.7,7.2l-2.3-16.2L54,44.7z M30.2,58.6  L22,62.7l1.3-9.1L16.9,47l9.1-1.6l4.3-8.1l4.3,8.1l9.1,1.6l-6.4,6.6l1.3,9.1L30.2,58.6z"/><g><path d="M34,28.2l2.1,4.1C53,32.9,68.6,39,80.5,49.5C67.7,49.6,55.7,53.7,46.3,61l0.7,4.6c8.9-7.7,21-12.2,34.1-12.2   c3.2,0,6.4,0.3,9.7,0.8C77.1,37.9,56.4,28.5,34,28.2z"/></g></svg>