<svg xmlns="http://www.w3.org/2000/svg" xmlns:xlink="http://www.w3.org/1999/xlink" version="1.1" x="0px" y="0px" viewBox="0 0 100.0 100"><path d="M640,600 l260,0 l0,300 l-260,0 l-150,-150 Z M751,675 c-42,0,-76,34,-76,75 c0,41,34,75,76,75 c40,0,74,-34,74,-75 c0,-41,-34,-75,-74,-75 Z M1100,0 l-850,0 c-125,0,-250,50,-250,200 l0,850 c0,150,0,150,150,150 l750,0 l0,-1000 l-800,0 c0,-75,50,-100,100,-100 l800,0 l0,1000 l100,-100 Z M1100,0 " fill="#000000" stroke="none" stroke-dasharray="none" stroke-linecap="inherit" stroke-linejoin="inherit" stroke-width="1" transform="matrix(0.0833333333333,0.0,0.0,-0.0833333333333,0.0,100.0)"></path></svg>