<svg fill="#000000" xmlns="http://www.w3.org/2000/svg" viewBox="0 0 32 32" x="0px" y="0px"><defs><style>
      .cls-1 {
        fill-rule: evenodd;
      }
    </style></defs><g data-name="Artboard 2"><path data-name="Rounded Rectangle 1 copy 2" class="cls-1" d="M92,28v2a2.1,2.1,0,0,1-2,2H62a2.148,2.148,0,0,1-2-2c0-1.057.016-.7,0-2a1.973,1.973,0,0,1,2-2h3V18a11,11,0,0,1,22,0v8h3A2.251,2.251,0,0,1,92,28Zm-7-2V18a9,9,0,0,0-18,0v8H85ZM63,28H89a1,1,0,0,1,0,2H63A1,1,0,0,1,63,28ZM76,0.014a1,1,0,0,1,1,1v3a1,1,0,1,1-2,0v-3A1,1,0,0,1,76,.014ZM88.76,3.744a1,1,0,0,1,0,1.414L86.639,7.28a1,1,0,0,1-1.414-1.414l2.121-2.121A1,1,0,0,1,88.76,3.744Zm-25.521,0a1,1,0,0,0,0,1.414L65.361,7.28a1,1,0,1,0,1.414-1.414L64.654,3.744A1,1,0,0,0,63.24,3.744Z" transform="translate(-60)"/></g></svg>