<svg xmlns="http://www.w3.org/2000/svg" xmlns:xlink="http://www.w3.org/1999/xlink" version="1.1" x="0px" y="0px" viewBox="0 0 100 100" enable-background="new 0 0 100 100" xml:space="preserve"><path fill="#000000" d="M26.952,22.765l-1.005-2.92l2.92-1.005l1.005,2.92L26.952,22.765z M22.24,21.357l-2.619-1.637l-1.637,2.619  l2.619,1.637L22.24,21.357z M33.494,15.719l-1.402-2.752l-2.752,1.402l1.403,2.752L33.494,15.719z M28.323,29.307l2.366-1.985  l-1.605-1.914c1.419-2.12,3.836-3.516,6.58-3.516c0.86,0,1.687,0.137,2.462,0.391L37.9,24.417l3.072,0.322l0.077-0.73  c1.553,1.445,2.524,3.506,2.524,5.794c0,4.37-3.542,7.912-7.911,7.912c-4.369-0.001-7.911-3.542-7.911-7.912  c0-0.369,0.026-0.732,0.075-1.088L28.323,29.307z M37.978,31.979l2.902,1.057l1.056-2.903l-2.902-1.057L37.978,31.979z   M85.708,15.442c0-4.369-3.542-7.911-7.912-7.911c-4.296,0-7.794,3.427-7.907,7.698l12.619,6.569  C84.449,20.358,85.708,18.046,85.708,15.442z M46.384,21.836c0.212,0.16,0.492,0.102,0.623-0.129l6.896-12.123  c0.094-0.162,0.037-0.435-0.111-0.547L43.222,1.073c-0.15-0.112-0.428-0.091-0.558,0.042l-9.746,9.977  c-0.185,0.189-0.164,0.473,0.048,0.633L46.384,21.836z M38.886,17.775l-1.677-1.264l-1.522,0.134l0.269,3.077l3.077-0.269  L38.886,17.775z M5.751,32.392l2.619,1.636l1.638-2.62l-2.62-1.636L5.751,32.392z M24.06,34.251l1.107-2.883l-2.883-1.107  l-1.108,2.883L24.06,34.251z M53.002,36.829l-1.354-2.776l-2.775,1.355l1.354,2.775L53.002,36.829z M56.564,53.721  c1.524,1.928,0.645,4.053-0.926,5.016c-0.138,0.105-0.301,0.201-0.494,0.281c-0.088,0.039-14.48,4.205-14.48,4.205  c-1.885,0.514-2.854,0.319-3.4-1.088c-0.354-1.287,0.402-2.182,1.982-2.986l9.891-4.698l-3.49-4.414l-0.238,4.499l-6.836,3.246  c-1.081,0.552-2.165,1.375-2.644,2.521c-0.479-1.146-1.563-1.971-2.645-2.521l-7.357-3.494l-0.193-3.646l-3.012,3.81l9.89,4.698  c1.581,0.806,2.337,1.699,1.983,2.986c-0.547,1.407-1.516,1.602-3.4,1.088c0,0-14.393-4.166-14.481-4.205  c-0.194-0.08-0.357-0.176-0.494-0.281c-1.57-0.963-2.451-3.088-0.927-5.016l9.854-12.458c0.741-0.905,1.592-1.458,2.497-1.722  c0.389-0.137,0.806-0.206,1.232-0.206c0,0,7.294,0.004,11.348,0.011l0.507,2.875l3.041-0.536l-0.407-2.307  c1.219,0.118,2.377,0.702,3.346,1.885L56.564,53.721z M29.345,45.364l-0.902-2.954l-2.954,0.903l0.903,2.954L29.345,45.364z   M37.461,47.839l-2.752-1.403l-1.402,2.752l2.752,1.402L37.461,47.839z M45.094,31.804l2.884,1.106l1.107-2.883l-2.884-1.107  L45.094,31.804z M90.171,53.568c0,0-3.442-26.167-3.476-26.317c-0.024-0.892-0.432-1.718-1.368-2.267l-17.413-9.448L50.745,3.348  c-1.445-1.063-2.499-1.2-3.417-0.771l7.229,5.446c0.657,0.497,0.86,1.472,0.451,2.189l-1.015,1.784  c4.541,4.297,9.838,9.304,9.886,9.336c0.958,0.633,3.131,1.941,5.614,3.411l-10.209,2.235l-10.827-5.251l-0.346,0.609  c-0.51,0.897-1.666,1.136-2.489,0.515l-2.604-1.961l-0.103,0.129c-0.778,1.306-0.349,2.199,1.191,3.387  c0,0,11.562,8.71,12.021,8.968c0.311,0.179,0.596,0.262,0.865,0.267c0.381,0.074,0.771,0.082,1.152,0.01l9.299-1.751l3.633,21.675  l-1.486,41.43c-0.126,2.831,1.5,3.888,2.948,3.888c1.76,0,3.345-0.636,3.471-3.439l1.634-31.749c0.15-1.25,1.211-2.22,2.5-2.22  s2.352,0.97,2.504,2.22l1.617,31.749c0.125,2.803,1.711,3.439,3.471,3.439c1.449,0,3.074-1.057,2.947-3.888L90.171,53.568z   M42.599,66.906c-1.447,0.064-3.074,1.582-3.197,4.416L38.25,94.634c-0.11,3.167,1.731,3.616,3.387,3.492  c0.954-0.071,2.179-0.612,2.627-3.524l2.354-23.422C46.739,68.372,45.481,66.781,42.599,66.906z M49.576,69.135h-1.451  c0.154,0.665,0.214,1.393,0.182,2.165l-0.463,4.603h1.732V97.85h3.386V61.244l-3.386,0.982V69.135z M28.75,66.908  c-2.882-0.127-4.14,1.464-4.019,4.271l2.354,23.424c0.447,2.912,1.672,3.451,2.626,3.523c1.657,0.124,3.498-0.324,3.387-3.492  l-1.152-23.312C31.824,68.488,30.196,66.973,28.75,66.908z M42.525,65.217c0.866-0.037,1.634,0.055,2.304,0.256l0.101-1.9  l-3.854,1.115c-2.036,0.558-4.113,0.477-5.147-1.812c-1.034,2.288-3.111,2.37-5.147,1.812l-4.37-1.265l0.108,2.05  c0.67-0.201,1.438-0.293,2.305-0.256c2.036,0.09,3.727,1.641,4.447,3.918c0.206,0.651,0.333,1.362,0.365,2.115l0.108,2.18  l0.122,2.475h3.614l0.123-2.475l0.108-2.18c0.033-0.753,0.159-1.464,0.366-2.115C38.799,66.859,40.49,65.307,42.525,65.217z   M23.224,69.135h-1.45V62.08l-3.186-0.926l-0.2-0.057V97.85h3.386V75.904h1.732l-0.463-4.604C23.01,70.527,23.07,69.8,23.224,69.135  z"></path></svg>