<svg fill="#000000" xmlns="http://www.w3.org/2000/svg" xmlns:xlink="http://www.w3.org/1999/xlink" version="1.1" x="0px" y="0px" viewBox="0 0 100 100" style="enable-background:new 0 0 100 100;" xml:space="preserve"><style type="text/css">
	.st0{fill:none;stroke:#000000;stroke-width:2;stroke-linecap:round;stroke-linejoin:round;stroke-miterlimit:10;}
	.st1{fill:none;stroke:#000000;stroke-width:2;stroke-miterlimit:10;}
	.st2{fill:none;stroke:#000000;stroke-width:2;stroke-linecap:round;stroke-miterlimit:10;}
	.st3{opacity:0.1;fill:none;stroke:#000000;stroke-width:2;stroke-miterlimit:10;}
</style><path d="M38.4,46.6c0.5,0,0.9-0.3,1-0.8c0.1-0.5-0.3-1.1-0.8-1.2l-2.2-0.4c-0.5-0.1-1.1,0.3-1.2,0.8s0.3,1.1,0.8,1.2l2.2,0.4  C38.3,46.6,38.4,46.6,38.4,46.6z"/><path d="M56,60.4L53.8,60c-0.5-0.1-1.1,0.3-1.2,0.8s0.3,1.1,0.8,1.2l2.2,0.4c0.1,0,0.1,0,0.2,0c0.5,0,0.9-0.3,1-0.8  C56.9,61,56.6,60.5,56,60.4z"/><path d="M21.1,59.2l2.2,0.4c0.1,0,0.1,0,0.2,0c0.5,0,0.9-0.3,1-0.8c0.1-0.5-0.3-1.1-0.8-1.2l-2.2-0.4c-0.5-0.1-1.1,0.3-1.2,0.8  S20.5,59.1,21.1,59.2z"/><path d="M28.8,73.7c0.1-0.5-0.3-1.1-0.8-1.2l-2.2-0.4c-0.5-0.1-1.1,0.3-1.2,0.8c-0.1,0.5,0.3,1.1,0.8,1.2l2.2,0.4c0.1,0,0.1,0,0.2,0  C28.3,74.5,28.7,74.2,28.8,73.7z"/><path d="M29.2,71.4c0.3,0,0.6-0.1,0.8-0.4l1.4-1.8c0.3-0.4,0.3-1.1-0.2-1.4c-0.4-0.3-1.1-0.3-1.4,0.2l-1.4,1.8  c-0.3,0.4-0.3,1.1,0.2,1.4C28.8,71.3,29,71.4,29.2,71.4z"/><path d="M38.1,78.1l-2.2-0.4c-0.5-0.1-1.1,0.3-1.2,0.8s0.3,1.1,0.8,1.2l2.2,0.4c0.1,0,0.1,0,0.2,0c0.5,0,0.9-0.3,1-0.8  C39,78.7,38.7,78.2,38.1,78.1z"/><path d="M46.6,69.6l-2.2-0.4c-0.5-0.1-1.1,0.3-1.2,0.8s0.3,1.1,0.8,1.2l2.2,0.4c0.1,0,0.1,0,0.2,0c0.5,0,0.9-0.3,1-0.8  C47.5,70.2,47.2,69.7,46.6,69.6z"/><path d="M53.3,63.7c-0.4-0.4-1-0.3-1.4,0.1c-0.4,0.4-0.3,1,0.1,1.4l1.7,1.5c0.2,0.2,0.4,0.3,0.7,0.3c0.3,0,0.5-0.1,0.7-0.3  c0.4-0.4,0.3-1-0.1-1.4L53.3,63.7z"/><path d="M50.4,53.2c0.2,0.1,0.4,0.2,0.6,0.2c0.3,0,0.6-0.1,0.8-0.4l1.4-1.8c0.3-0.4,0.3-1.1-0.2-1.4c-0.4-0.3-1.1-0.3-1.4,0.2  l-1.4,1.8C49.9,52.2,50,52.9,50.4,53.2z"/><path d="M48.7,73.1c-0.6,0-1,0.5-0.9,1.1l0.2,2.3c0,0.5,0.5,0.9,1,0.9c0,0,0.1,0,0.1,0c0.6,0,1-0.5,0.9-1.1L49.7,74  C49.7,73.5,49.2,73.1,48.7,73.1z"/><path d="M37.7,76.4C37.8,76.4,37.8,76.4,37.7,76.4c0.6,0,1-0.5,1-1.1L38.6,73c0-0.6-0.5-1-1.1-0.9c-0.6,0-1,0.5-0.9,1.1l0.2,2.3  C36.8,76,37.2,76.4,37.7,76.4z"/><path d="M47.1,52.1c-0.6,0-1,0.5-0.9,1.1l0.2,2.3c0,0.5,0.5,0.9,1,0.9c0,0,0.1,0,0.1,0c0.6,0,1-0.5,0.9-1.1L48.1,53  C48.1,52.5,47.6,52.1,47.1,52.1z"/><path d="M38.5,52.7C38.5,52.7,38.5,52.7,38.5,52.7c0.6,0,1-0.5,1-1.1l-0.2-2.3c0-0.6-0.5-1-1.1-0.9c-0.6,0-1,0.5-0.9,1.1l0.2,2.3  C37.5,52.3,38,52.7,38.5,52.7z"/><path d="M21.5,60.5c-0.6,0-1,0.5-0.9,1.1l0.2,2.3c0,0.5,0.5,0.9,1,0.9c0,0,0.1,0,0.1,0c0.6,0,1-0.5,0.9-1.1l-0.2-2.3  C22.5,60.8,22,60.4,21.5,60.5z"/><path d="M25.7,63.3c0.1,0,0.3,0,0.4-0.1l2-1c0.5-0.2,0.7-0.8,0.5-1.3c-0.2-0.5-0.8-0.7-1.3-0.5l-2,1c-0.5,0.2-0.7,0.8-0.5,1.3  C25,63.1,25.3,63.3,25.7,63.3z"/><path d="M48.4,60.5l-2,1c-0.5,0.2-0.7,0.8-0.5,1.3c0.2,0.4,0.5,0.6,0.9,0.6c0.1,0,0.3,0,0.4-0.1l2-1c0.5-0.2,0.7-0.8,0.5-1.3  C49.5,60.4,48.9,60.2,48.4,60.5z"/><path d="M46.2,48.6c-0.1,0.5,0.3,1.1,0.8,1.2l2.2,0.4c0.1,0,0.1,0,0.2,0c0.5,0,0.9-0.3,1-0.8c0.1-0.5-0.3-1.1-0.8-1.2l-2.2-0.4  C46.8,47.7,46.3,48.1,46.2,48.6z"/><path d="M89.9,16.6c0-1.8-0.6-3.5-1.9-4.7c-1.3-1.3-2.9-1.9-4.7-1.9c-1.8,0-3.4,0.8-4.6,2.1L53.8,38.8c-11.5-7.9-26.9-6-36.2,4.5  c-9.2,10.4-9.3,26.1-0.1,36.5c5.1,5.8,12.2,9.1,19.9,9.4c0.3,0,0.6,0,0.9,0c7.3,0,14.4-2.9,19.5-8.1c9.5-9.5,10.8-24.1,3.3-35  l26.8-24.8C89.1,20,89.9,18.4,89.9,16.6z M86.5,19.8L59.1,45.2c-0.4,0.3-0.4,0.9-0.1,1.3c7.4,10.1,6.3,24.3-2.6,33.2  c-5,5-11.8,7.7-18.9,7.5c-7.1-0.2-13.7-3.3-18.4-8.7c-8.5-9.7-8.5-24.2,0.1-33.8C24.2,39,31.2,36,38.3,36c5.3,0,10.5,1.6,15.1,5  c0.4,0.3,1,0.2,1.3-0.1l25.4-27.4c0.8-0.9,2-1.4,3.2-1.5c1.2,0,2.4,0.4,3.3,1.3c0.9,0.9,1.3,2,1.3,3.3  C87.9,17.8,87.4,18.9,86.5,19.8C86.5,19.8,86.5,19.8,86.5,19.8z"/><path d="M58.5,54.3c0-0.2,0.1-0.4,0-0.5c-0.1-1.4-0.9-4.2-4.1-7.5c-3.2-3.3-6-4.1-7.4-4.3c0,0-0.1,0-0.1,0c-0.1-0.1-0.2-0.3-0.4-0.4  c-1.1-0.9-3.6-2.3-8.2-2.3c-4.6,0-7.1,1.4-8.2,2.3c-0.7,0.5-0.9,1.4-0.6,2.2c0,0,0,0,0,0l6.6,15.9l-15.4-8.1  c-0.7-0.4-1.7-0.2-2.2,0.4c-0.9,1-2.5,3.4-2.9,8c-0.3,4.6,0.9,7.2,1.7,8.4c0,0,0,0,0.1,0.1c0,0.2-0.1,0.4-0.1,0.5  c0.1,1.4,0.7,4.2,3.7,7.6c3.1,3.5,5.8,4.4,7.2,4.7c0,0,0.1,0,0.1,0c0.1,0.2,0.2,0.3,0.3,0.4c1,0.9,3.5,2.5,8.1,2.7c0.4,0,0.7,0,1,0  c4,0,6.3-1.2,7.3-1.9c0,0,0-0.1,0.1-0.1c0.1,0,0.3,0.1,0.4,0.1c0,0,0.1,0,0.1,0c1.4-0.1,4.2-0.8,7.5-3.9c3.4-3.1,4.3-5.9,4.5-7.3  c0,0,0-0.1,0-0.1c0.2-0.1,0.3-0.2,0.4-0.4c0.9-1.1,2.4-3.5,2.5-8.1C60.8,58,59.4,55.4,58.5,54.3C58.5,54.3,58.5,54.3,58.5,54.3z   M37.8,61.4c0.1,0,0.3,0.1,0.4,0.1c0,0,0,0,0,0c0,0,0.1,0,0.1,0c0,0,0.1,0.1,0.1,0.2c0,0,0.1,0,0.1,0.1c0,0.1,0,0.1,0,0.2  c0,0,0,0.1,0,0.1c0,0-0.1,0.1-0.2,0.1c0,0,0,0.1-0.1,0.1c-0.1,0-0.1,0-0.2,0c0,0-0.1,0-0.1,0c0-0.1-0.1-0.1-0.1-0.2  c0,0-0.1,0-0.1-0.1c0-0.1,0-0.1,0-0.2C37.8,61.6,37.8,61.5,37.8,61.4z M56.5,53.7C56.5,53.7,56.4,53.7,56.5,53.7  C56.4,53.7,56.4,53.7,56.5,53.7L40.1,60L47,44c1,0.2,3.3,0.9,6,3.7C55.7,50.4,56.3,52.6,56.5,53.7z M38.4,41.3  c3.8,0,5.9,1.1,6.8,1.7c0,0,0,0.1-0.1,0.1c0,0,0,0,0,0l-6.9,16.2l-6.7-16.2C32.3,42.5,34.4,41.3,38.4,41.3z M17.7,60  c0.3-4,1.6-6,2.3-6.7l15.6,8.2L18.9,67C18.3,66,17.4,63.9,17.7,60z M22.6,75.2c-2.5-2.9-3.1-5.1-3.2-6.2c0,0,0.1,0,0.1,0v0l16.6-5.5  l-7.7,15.7C27.3,78.9,25.1,78.1,22.6,75.2z M36.9,82.3c-3.8-0.2-5.8-1.4-6.7-2c0,0,0-0.1,0.1-0.1c0,0,0,0,0,0l7.7-15.8l5.8,16.5  C42.9,81.5,40.7,82.5,36.9,82.3z M51.9,77c-2.8,2.6-5.1,3.2-6.1,3.3c0,0,0-0.1,0-0.1l-5.9-16.5l15.9,7.4  C55.5,72.2,54.7,74.4,51.9,77z M56.8,69.3C56.7,69.3,56.7,69.2,56.8,69.3l-16-7.3l16.4-6.2c0.6,0.9,1.6,3,1.5,6.8  C58.6,66.4,57.4,68.4,56.8,69.3z"/></svg>