<svg fill="#000000" xmlns="http://www.w3.org/2000/svg" xmlns:xlink="http://www.w3.org/1999/xlink" version="1.1" x="0px" y="0px" viewBox="0 0 100 100" enable-background="new 0 0 100 100" xml:space="preserve"><path d="M50,61.383c-5.08,0-9.213,4.133-9.213,9.213c0,5.079,4.133,9.212,9.213,9.212s9.213-4.133,9.213-9.212  C59.213,65.516,55.08,61.383,50,61.383z M50,74.808c-2.323,0-4.213-1.89-4.213-4.212c0-2.323,1.89-4.213,4.213-4.213  s4.213,1.89,4.213,4.213C54.213,72.918,52.323,74.808,50,74.808z M50,40.68c-5.08,0-9.213,4.133-9.213,9.213  c0,5.079,4.133,9.212,9.213,9.212s9.213-4.133,9.213-9.212C59.213,44.813,55.08,40.68,50,40.68z M50,54.104  c-2.323,0-4.213-1.89-4.213-4.212c0-2.323,1.89-4.213,4.213-4.213s4.213,1.89,4.213,4.213C54.213,52.215,52.323,54.104,50,54.104z   M50,20.192c-5.08,0-9.213,4.133-9.213,9.212c0,5.08,4.133,9.213,9.213,9.213s9.213-4.133,9.213-9.213  C59.213,24.325,55.08,20.192,50,20.192z M50,33.617c-2.323,0-4.213-1.89-4.213-4.213c0-2.322,1.89-4.212,4.213-4.212  s4.213,1.89,4.213,4.212C54.213,31.728,52.323,33.617,50,33.617z M50,5C25.187,5,5,25.187,5,50s20.187,45,45,45s45-20.187,45-45  S74.813,5,50,5z M50,90c-22.056,0-40-17.944-40-40s17.944-40,40-40s40,17.944,40,40S72.056,90,50,90z"/></svg>