<svg xmlns="http://www.w3.org/2000/svg" xmlns:xlink="http://www.w3.org/1999/xlink" version="1.1" x="0px" y="0px" viewBox="0 0 100 100" enable-background="new 0 0 100 100" xml:space="preserve"><g><g><path d="M92.005,23.202C92.005,13.146,83.856,5,73.803,5c-5.936,0-11.189,2.852-14.512,7.246c-2.96-0.813-6.073-1.256-9.291-1.256    s-6.331,0.443-9.291,1.256C37.387,7.852,32.132,5,26.197,5C16.144,5,7.995,13.146,7.995,23.202c0,6.221,3.124,11.706,7.885,14.989    c-0.572,2.51-0.884,5.12-0.884,7.803c0,7.88,2.606,15.152,7.001,21.002C21.997,82.462,34.534,95,50,95    s28.004-12.538,28.004-28.004c4.395-5.851,7-13.122,7-21.001c0-2.684-0.313-5.292-0.884-7.803    C88.881,34.909,92.005,29.423,92.005,23.202z M13.684,23.202c0-6.913,5.6-12.514,12.514-12.514c3.453,0,6.578,1.397,8.841,3.657    c-7.761,3.676-13.956,10.119-17.305,18.058C15.25,30.116,13.684,26.847,13.684,23.202z M70.956,58.806    c0.993,2.539,1.544,5.3,1.544,8.19c0,12.427-10.073,22.5-22.5,22.5c-12.426,0-22.5-10.073-22.5-22.5    c0-2.891,0.551-5.651,1.544-8.19c-4.869-2.869-8.146-8.152-8.146-14.212c0-9.114,7.387-16.5,16.5-16.5    c5.056,0,9.575,2.279,12.601,5.86c3.026-3.581,7.545-5.86,12.602-5.86c9.113,0,16.5,7.386,16.5,16.5    C79.102,50.654,75.825,55.938,70.956,58.806z M82.267,32.403c-3.349-7.939-9.544-14.382-17.305-18.058    c2.264-2.259,5.388-3.657,8.841-3.657c6.914,0,12.514,5.603,12.514,12.514C86.316,26.847,84.751,30.116,82.267,32.403z M57.001,53    c1.656,0,3.001-1.342,3.001-2.999S58.657,47,57.001,47s-2.999,1.344-2.999,3.001S55.345,53,57.001,53z M43,47    c-1.657,0-3,1.343-3,3c0,1.657,1.344,3,3,3s3-1.343,3-3C45.999,48.343,44.656,47,43,47z M50,60l3-4h-6L50,60z M58,73.499    c-1.932,0-3.5,1.569-3.5,3.501s1.568,3.501,3.5,3.501c1.934,0,3.5-1.569,3.5-3.501S59.934,73.499,58,73.499z"></path></g></g></svg>