<svg xmlns="http://www.w3.org/2000/svg" xmlns:xlink="http://www.w3.org/1999/xlink" version="1.1" preserveAspectRatio="none" x="0px" y="0px" viewBox="0 0 100 100"><defs><g id="a"><path fill="#000000" stroke="none" d=" M 83.65 21.75 Q 83.2 21.35 82.75 21 81 19.6 77.7 17.05 71.9 12.6 62.55 12.6 L 30 12.6 Q 11.35 12.6 11.35 31.25 L 11.35 63.8 Q 11.35 80 28.05 85.8 31.95 87.45 37.5 87.45 L 70.05 87.45 Q 88.7 87.45 88.7 68.8 L 88.4 35.7 Q 88.4 26.8 84.3 22.4 L 84.35 22.4 Q 84.15 22.2 83.7 21.8 L 83.65 21.75 M 81.05 24.85 Q 85.3 28.75 85.3 36.25 L 85.3 68.8 Q 85.3 84.05 70.05 84.05 L 37.5 84.05 Q 22.25 84.05 22.25 68.8 L 22.25 36.25 Q 22.25 21 37.5 21 L 69.2 21 Q 76.95 21 81.05 24.85 M 70.2 17.6 Q 70.1 17.6 70.05 17.6 L 37.5 17.6 Q 28 17.6 23.35 22.45 22.85 22.8 22.45 23.2 22.55 23.2 22.65 23.2 18.85 27.8 18.85 36.25 L 18.85 68.8 Q 18.85 73.05 19.85 76.35 14.75 72.6 14.75 63.8 L 14.75 31.25 Q 14.75 16 30 16 L 61.7 16 Q 66.7 16 70.2 17.6 M 81.55 65.45 L 81.4 39.1 Q 81.4 31.75 77.75 28.2 74.15 24.7 66.7 24.7 L 40.9 24.7 Q 25.95 24.7 25.95 39.6 L 25.95 65.45 Q 25.95 80.3 40.9 80.3 L 66.7 80.3 Q 81.55 80.3 81.55 65.45 M 73.9 34.1 Q 73.9 31.25 73.35 28.95 74.55 29.55 75.5 30.45 78.9 33.55 78.9 39.6 L 78.9 65.45 Q 78.9 77.55 66.7 77.55 L 40.9 77.55 Q 35.6 77.55 32.6 75.3 33 75.3 33.4 75.3 L 59.2 75.3 Q 74.05 75.3 74.05 60.45 L 73.9 34.1 M 66.1 27.4 Q 68.1 27.4 69.85 27.75 71.4 30.5 71.4 34.6 L 71.4 60.45 Q 71.4 72.55 59.2 72.55 L 33.4 72.55 Q 31.6 72.55 30.1 72.3 28.65 69.55 28.65 65.45 L 28.65 39.6 Q 28.65 27.4 40.9 27.4 L 66.1 27.4 Z"></path></g></defs><g transform="matrix( 1, 0, 0, 1, 0,0) "><use xlink:href="#a"></use></g></svg>