<svg xmlns="http://www.w3.org/2000/svg" xmlns:xlink="http://www.w3.org/1999/xlink" version="1.1" x="0px" y="0px" viewBox="0 0 100 100" enable-background="new 0 0 100 100" xml:space="preserve"><path d="M43.397,65.732c1.366-1.498,2.294-3.096,2.668-4.898C47.32,61.106,48.632,61.25,50,61.25c1.372,0,2.674-0.107,3.909-0.311  c0.33,1.919,1.166,3.514,2.436,4.952C52.207,68.38,47.511,68.327,43.397,65.732z M57.5,35c2.25,0,3.75-1.5,3.75-3.75  s-1.5-3.75-3.75-3.75s-3.75,1.5-3.75,3.75S55.25,35,57.5,35z M35.257,37.095c1.251-1.623,2.504-3.055,3.76-4.319  C39.542,34.153,40.809,35,42.5,35c2.25,0,3.75-1.5,3.75-3.75c0-1.379-0.564-2.477-1.518-3.12c6.626-4.208,13.371-4.73,20.345-4.771  c0.443,1.7,0.674,3.584,0.674,5.641c0,13.5-4.5,24-15.75,24C43.06,53,37.458,45.864,35.257,37.095z M87.5,75.5l-21-11.25  c-3.745-1.872-4.86-4.037-5.17-6.129c6.535-4.206,10.073-12.185,11.355-21.032l3.209,3.011C76.925,19.306,70.512,5,50.037,5  l-0.261,0.001c-23.995,0.164-30.95,22.983-23.72,47.887c1.289-2.799,2.579-5.334,3.87-7.628c2.02,4.918,4.981,9.248,8.82,12.157  c-0.168,2.305-1.079,4.75-5.246,6.834l-21,11.25C8.75,83,8.75,95,8.75,95h30l1.362-21.791c6.422,3.93,13.354,3.93,19.776,0L61.25,95  h30C91.25,95,91.25,83,87.5,75.5z"></path></svg>