<svg xmlns="http://www.w3.org/2000/svg" xmlns:xlink="http://www.w3.org/1999/xlink" version="1.1" x="0px" y="0px" viewBox="0 0 100 100" enable-background="new 0 0 100 100" xml:space="preserve"><path fill="#000000" d="M59.182,60.336V23.454c0-6.247-4.119-11.329-9.182-11.329c-5.063,0-9.182,5.083-9.182,11.329v36.882  c-3.85,2.887-6.121,7.402-6.121,12.236c0,8.438,6.865,15.303,15.303,15.303s15.303-6.865,15.303-15.303  C65.303,67.738,63.031,63.223,59.182,60.336z M50,84.814c-6.749,0-12.242-5.49-12.242-12.242c0-4.089,2.032-7.895,5.442-10.178  c0.425-0.283,0.679-0.759,0.679-1.27V23.454c0-4.481,2.804-8.269,6.121-8.269s6.121,3.787,6.121,8.269v37.671  c0,0.511,0.254,0.986,0.679,1.27c3.41,2.283,5.442,6.089,5.442,10.178C62.242,79.324,56.749,84.814,50,84.814z"></path><path fill="#000000" d="M53.061,65.184V24.149c0-2.194-1.378-3.99-3.061-3.99s-3.061,1.796-3.061,3.99v41.034  c-2.702,1.181-4.591,3.871-4.591,7.006c0,4.227,3.425,7.651,7.651,7.651c4.226,0,7.651-3.425,7.651-7.651  C57.651,69.055,55.763,66.364,53.061,65.184z"></path></svg>