<svg fill="#000000" xmlns:dc="http://purl.org/dc/elements/1.1/" xmlns:cc="http://creativecommons.org/ns#" xmlns:rdf="http://www.w3.org/1999/02/22-rdf-syntax-ns#" xmlns:svg="http://www.w3.org/2000/svg" xmlns="http://www.w3.org/2000/svg" xmlns:sodipodi="http://sodipodi.sourceforge.net/DTD/sodipodi-0.dtd" xmlns:inkscape="http://www.inkscape.org/namespaces/inkscape" viewBox="0 0 472.67595 334.45386" version="1.1" x="0px" y="0px"><g transform="translate(-114.08348,-382.85014)"><path style="" d="m 435.6761,382.991 c -3.151,0.704 -5.074,3.851 -4.369,6.958 l 1.943,8.738 c -63.257,17.232 -102.688,81.334 -88.271,146.04 l 0.255,1.131 c 0.456,2.073 2.177,3.597 4.288,3.804 2.155,0.163 4.148,-1.005 4.935,-2.993 2.898,-7.125 3.588,-13.037 4.126,-17.801 0.912,-8.284 1.105,-10.822 12.541,-13.35 7.954,-1.74 13.64,3.435 22.008,12.218 8.035,8.45 17.233,18.074 31.069,14.968 13.877,-3.066 18.076,-15.598 21.764,-26.7 3.852,-11.475 6.771,-18.608 14.725,-20.39 7.953,-1.739 13.558,3.396 21.925,12.137 8.037,8.492 17.233,18.075 31.069,14.968 13.878,-3.106 18.159,-15.639 21.846,-26.699 3.852,-11.516 6.853,-18.608 14.806,-20.39 11.434,-2.567 12.723,-0.41 17.072,6.716 2.526,4.101 5.571,9.182 11.246,14.402 1.531,1.408 3.84,1.724 5.664,0.648 1.823,-1.036 2.759,-3.23 2.344,-5.26 l -0.182,-1.132 c -14.417,-64.664 -77.29,-106.051 -141.913,-94.825 l -1.944,-8.738 c -0.703,-3.149 -3.853,-5.154 -6.958,-4.45 z m 27.427,123.223 c -3.106,0.704 -5.073,3.81 -4.369,6.959 l 40.131,180.668 -10.923,0 c -12.965,0 -23.544,10.497 -23.544,23.463 l 85.763,0 c 0,-13.008 -10.537,-23.544 -23.544,-23.544 l -15.859,0 -40.777,-183.176 c -0.704,-3.149 -3.77,-5.116 -6.878,-4.37 z m -17.961,45.066 c -2.345,0.149 -4.633,1.229 -6.311,3.156 l -67.478,76.862 -190.539,0 c -2.486,0 -4.894,0.97 -6.634,2.751 l -57.446,58.578 c -3.602,3.645 -3.525,9.422 0.183,13.027 1.783,1.74 4.072,2.67 6.392,2.67 2.402,0 4.811,-0.887 6.634,-2.751 l 54.694,-55.747 190.863,0 c 2.651,0 5.177,-1.125 6.958,-3.155 l 70.228,-80.018 c 3.355,-3.853 2.961,-9.752 -0.889,-13.108 -1.863,-1.698 -4.289,-2.415 -6.634,-2.266 z m -256.803,67.235 c -2.443,0 -4.369,1.967 -4.369,4.369 0,2.445 1.968,4.45 4.369,4.45 l 171.202,0 c 2.442,0 4.45,-2.005 4.45,-4.45 0,-2.444 -2.045,-4.369 -4.45,-4.369 l -171.202,0 z m 135.926,36.409 c -17.192,0 -31.151,13.958 -31.151,31.149 0,17.192 13.959,31.15 31.151,31.15 17.191,0 31.149,-13.917 31.149,-31.15 0,-17.233 -13.916,-31.149 -31.149,-31.149 z m 0,12.298 c 10.398,0 18.77,8.454 18.77,18.851 0,10.398 -8.372,18.853 -18.77,18.853 -10.356,0 -18.852,-8.455 -18.852,-18.853 0,-10.397 8.496,-18.851 18.852,-18.851 z m -0.73,14.806 a 4.1010855,4.1010855 0 0 0 -3.398,4.045 4.1010855,4.1010855 0 0 0 4.127,4.127 4.1010855,4.1010855 0 0 0 4.047,-4.127 4.1010855,4.1010855 0 0 0 -4.047,-4.045 4.1010855,4.1010855 0 0 0 -0.73,0 z" fill="#000000"/></g></svg>