<svg xmlns="http://www.w3.org/2000/svg" xmlns:xlink="http://www.w3.org/1999/xlink" version="1.0" id="Layer_1" x="0px" y="0px" width="100px" height="100px" viewBox="247.64 370.945 100 100" enable-background="new 247.64 370.945 100 100" xml:space="preserve">
<path d="M334.722,436.589v-38.806c-0.012-4.779-3.896-7.629-7.648-7.629c-0.003,0-0.007,0-0.011,0  c-1.926,0.003-3.834,0.746-5.239,2.036c-0.019,0.019-0.033,0.038-0.053,0.056v-8.393c-0.012-4.778-3.896-7.628-7.646-7.628  c-0.004,0-0.007,0-0.012,0c-1.927,0.002-3.836,0.744-5.239,2.036c-0.051,0.048-0.098,0.102-0.146,0.151  c-0.583-4.071-4.12-6.466-7.555-6.466c-0.006,0-0.009,0-0.013,0c-1.925,0.002-3.835,0.745-5.237,2.037  c-1.546,1.423-2.395,3.419-2.39,5.619v2.62c-1.451-1.362-3.396-2.108-5.311-2.108c-0.004,0-0.009,0-0.012,0  c-1.926,0.003-3.834,0.745-5.238,2.036c-1.546,1.424-2.397,3.42-2.391,5.619v41.856l-3.116-9.87  c-1.833-5.761-7.607-7.715-12.129-6.281c-2.357,0.75-2.455,0.783-2.498,0.798c-0.033,0.009-0.035,0.009-0.836,0.262  c-0.295,0.094-0.542,0.299-0.685,0.575c-0.143,0.276-0.17,0.596-0.078,0.892l9.7,30.731c0.005,0.016,0.015,0.025,0.02,0.041  c4.311,13.418,16.571,22.684,30.574,23.076c0.023,0.002,0.042,0.014,0.066,0.014c18.274,0,33.139-14.891,33.139-33.193  C334.738,436.64,334.723,436.617,334.722,436.589z M301.667,467.525c-0.015,0-0.027-0.01-0.042-0.01  c-13.078-0.357-24.53-9.039-28.498-21.609c0-0.002-0.002-0.004-0.003-0.006l-9.308-29.495c0.271-0.087,0.869-0.276,2.226-0.707  c3.385-1.07,7.755,0.233,9.196,4.759l5.395,17.089c0.006,0.021,0.022,0.037,0.03,0.059c0.019,0.051,0.046,0.092,0.072,0.139  c0.041,0.074,0.084,0.145,0.141,0.209c0.043,0.049,0.09,0.09,0.141,0.133c0.052,0.039,0.104,0.076,0.162,0.107  c0.067,0.039,0.132,0.072,0.207,0.096c0.069,0.023,0.143,0.035,0.218,0.047c0.049,0.004,0.094,0.027,0.145,0.027  c0.012,0,0.023-0.006,0.034-0.006c0.014,0,0.027,0.004,0.04,0.004c3.074-0.203,13.657-0.176,20.724,8.625  c0.401,0.504,1.139,0.582,1.64,0.182c0.504-0.402,0.584-1.139,0.18-1.643c-6.999-8.721-17.058-9.6-21.446-9.541v-48.22  c-0.005-1.973,0.887-3.209,1.636-3.897c0.978-0.9,2.313-1.417,3.659-1.42c0.003,0,0.007,0,0.01,0c2.564,0,5.291,1.849,5.31,5.278  l0.001,38.249c0,0.646,0.522,1.168,1.167,1.168s1.168-0.521,1.168-1.168V387.74c0-0.012-0.001-0.023-0.001-0.036v-8.107  c-0.006-1.974,0.886-3.208,1.636-3.897c0.978-0.9,2.313-1.417,3.658-1.419c2.588-0.052,5.312,1.852,5.322,5.297v4.303v41.745  c0,0.646,0.521,1.17,1.168,1.17c0.644,0,1.167-0.523,1.167-1.17v-41.747c-0.005-1.974,0.886-3.209,1.638-3.898  c0.976-0.9,2.312-1.417,3.659-1.419c0.004,0,0.006,0,0.009,0c2.57,0,5.301,1.855,5.311,5.296v13.932  c0,0.007-0.001,0.014-0.001,0.021l0.001,28.22c0,0.646,0.522,1.168,1.168,1.168c0.643,0,1.168-0.521,1.168-1.168v-28.24  c0.001-1.961,0.887-3.192,1.635-3.879c0.979-0.899,2.313-1.417,3.66-1.42c0.004,0,0.006,0,0.008,0c2.571,0,5.305,1.857,5.312,5.296  v38.881c0,0.025,0.013,0.045,0.015,0.07C332.361,453.701,318.596,467.488,301.667,467.525z"/>
</svg>
