<svg xmlns="http://www.w3.org/2000/svg" xmlns:xlink="http://www.w3.org/1999/xlink" version="1.1" x="0px" y="0px" viewBox="0 0 512 512" enable-background="new 0 0 512 512" xml:space="preserve"><g><path fill="#000000" d="M217,140.4c0.2,0.1,0.4,0.1,0.6,0.1c0.4,0,0.9-0.2,1.1-0.7c0.3-0.6,0.1-1.4-0.5-1.7   c-23.2-12.1-36.5-44.6-36.6-44.9c-0.3-0.6-1-0.9-1.6-0.7c-0.6,0.3-0.9,1-0.7,1.6C179.8,95.6,193,127.9,217,140.4z"></path><path fill="#000000" d="M397.9,117.8c2.3-4.2,4.3-8.5,6-12.7H416c1.8,2.9,4.9,4.7,8.4,4.7H447c7.9,0,14.4-6.5,14.4-14.4   c0-7.9-6.5-14.4-14.4-14.4h-22.6c-3.4,0-6.6,1.8-8.4,4.7h-5.7c0.9-3.3,1.3-5.5,1.4-5.9c0.2-0.7,0-1.5-0.5-2.1   c-0.5-0.6-1.2-0.9-1.9-0.9h-85.9c-13.7-4.4-28-7.5-42.7-9.1c1-2.8,1.6-5.9,1.6-9.1V29.4C282.3,14.3,270,2,254.9,2   c-15.1,0-27.4,12.3-27.4,27.4v29.3c0,3.3,0.6,6.4,1.7,9.3c-14,1.7-27.6,4.7-40.7,8.9h-88c-0.7,0-1.4,0.3-1.8,0.8   c-0.5,0.5-0.7,1.2-0.6,1.9c0,0.4,0.3,2.7,0.9,6.2h-3C94.2,82.9,91,81,87.6,81H65c-7.9,0-14.4,6.5-14.4,14.4   c0,7.9,6.5,14.4,14.4,14.4h22.6c3.4,0,6.6-1.8,8.4-4.7h7.7c1.7,5.2,3.9,10.7,6.6,15.9c-46.6,40.7-76.1,100.5-76.1,167.1   C34.2,410.5,133.7,510,256,510s221.8-99.5,221.8-221.8C477.8,219.8,446.7,158.5,397.9,117.8z M417.5,90.7c1,0,1.9-0.6,2.3-1.6   c0.7-1.9,2.5-3.1,4.5-3.1H447c5.2,0,9.5,4.2,9.5,9.5c0,5.2-4.2,9.5-9.5,9.5h-22.6c-2,0-3.8-1.2-4.5-3.1c-0.4-1-1.3-1.6-2.3-1.6   h-11.8c1.3-3.4,2.3-6.7,3.1-9.5H417.5z M404.3,88.7c0,0.1,0,0.1,0,0.2c-0.7,2.2-1.4,4.7-2.3,7.3c0,0.1-0.1,0.2-0.1,0.3   c-0.4,1-0.8,2.1-1.2,3.2c-0.2,0.4-0.3,0.8-0.5,1.2c-5.6,14.7-15,32.1-28.4,35.9h-32.7c21.1-13.7,34.9-31.9,35.1-32.2   c0.4-0.5,0.3-1.3-0.3-1.7c-0.5-0.4-1.3-0.3-1.7,0.3c-0.3,0.4-26.2,34.7-61.4,43.8c0,0-0.1,0-0.1-0.1c27.9-16.3,32.8-45.6,32.9-45.9   c0.1-0.7-0.4-1.3-1-1.4c-0.7-0.1-1.3,0.4-1.4,1c-0.1,0.3-5.3,31.5-36,46.4c8.5-30.8,15.1-58,16.9-65.3h84.2   C405.8,83.5,405.1,85.9,404.3,88.7z M282.6,258c-0.7,0-1.2,0.6-1.2,1.2v153h-22.1v-16.1c0-0.7-0.6-1.2-1.2-1.2s-1.2,0.6-1.2,1.2   v16.1h-23V327c0-0.7-0.6-1.2-1.2-1.2s-1.2,0.6-1.2,1.2v85.2h-11.2v-92.6c11.4-8.3,24.3-24.3,36.6-45.3v90.4c0,0.7,0.6,1.2,1.2,1.2   s1.2-0.6,1.2-1.2v-94.7c6.5-11.5,12.7-24.3,18.5-38c6-14.3,12.3-33.1,18.2-52.6v232.9h-12v-153C283.8,258.5,283.3,258,282.6,258z    M212.6,171.7c0.1,0,0.3,0,0.4,0c0.1,0,0.2,0,0.3,0c6.7-0.3,20.1-7.8,46.3-41.6c-16.5,70.8-39.2,89.4-47,93.8V171.7z M212.6,261.7   c1.3,0.4,2.9,0.7,4.8,0.7c1.6,0,3.5-0.2,5.5-0.9c8.5-2.8,21.3-13.4,33.3-48.5c0.2-0.6-0.1-1.4-0.8-1.6c-0.6-0.2-1.4,0.1-1.6,0.8   c-11.6,34-23.6,44.3-31.6,46.9c-4.3,1.4-7.7,0.7-9.6-0.1v-32.3c8.2-3.9,37.4-24.3,54.9-122.6c0.1-0.7-0.3-1.3-1-1.4   c-0.7-0.1-1.3,0.3-1.4,1c-1.4,7.8-2.9,15.2-4.4,22c-0.4,0-0.8,0.1-1.1,0.5c-27.8,36.4-40.7,42.6-45.9,43c-0.4,0-0.7,0-1,0V150   c0-0.1,0-0.2-0.1-0.4c25.9-21,40.9-50.7,46.7-63.9c3.8-0.6,7.2-1.9,10.3-3.9h23.3c-1.9,18.5-14.8,131.2-51.2,185.8   c-0.4,0.6-0.2,1.3,0.3,1.7c0.2,0.1,0.5,0.2,0.7,0.2c0.4,0,0.8-0.2,1-0.6c36.9-55.4,49.8-169.4,51.6-187.2h21.6   c-4.2,17.3-25.5,104.4-43.8,148.2c-17,40.7-39.2,74-56.6,86c-0.2,0.1-0.4,0.3-0.6,0.4c-1.1,0.8-2.2,1.4-3.3,2V261.7z M300.8,162.5   c1.1-3.9,2.2-7.8,3.3-11.7c0.8-0.1,1.7-0.3,2.5-0.4v72.3l-5.8-2.3V162.5z M232.5,29.4c0-12.4,10-22.4,22.4-22.4   c12.4,0,22.4,10,22.4,22.4v29.3c0,11.3-8.5,20.9-19.7,22.2c-0.9,0.1-1.8,0.2-2.7,0.2c-12.4,0-22.4-10-22.4-22.4V29.4z M240.3,81.8   c0,0,0.1,0,0.1,0c4.2,2.7,9.2,4.2,14.5,4.2c0.5,0,0.9,0,1.4,0c-4.6,10.2-14,28.6-28.8,45.6c0,0,0,0,0,0l-19-28.3   c-0.4-0.6-1.2-0.7-1.7-0.3c-0.6,0.4-0.7,1.2-0.3,1.7l19,28.3c0.1,0.2,0.3,0.3,0.5,0.4c-4.5,5-9.5,9.8-15,14.3c0,0,0,0,0,0   c-37.7-14-48.4-47.2-48.5-47.6c-0.4-1.3-1.8-2-3.1-1.6c-1.3,0.4-2,1.8-1.6,3.1c0.4,1.3,8.9,27.8,37.8,44.3   c-38.1-10.5-68.7-42.4-69.1-42.8c-0.5-0.5-1.3-0.5-1.8,0c-0.5,0.5-0.5,1.3,0,1.8c0.3,0.3,17.7,18.4,42.6,32.1h-37.4   c-11.5-7.6-18.3-22.9-22.1-35.7c-0.5-1.7-1-3.4-1.4-5.2c-0.2-0.6-0.3-1.3-0.5-1.9c-0.4-1.8-0.8-3.6-1.2-5.5   c-0.6-2.8-0.9-5.1-1.2-6.7H240.3z M94.5,100.2c-1,0-1.9,0.6-2.3,1.6c-0.7,1.9-2.5,3.1-4.5,3.1H65c-5.2,0-9.5-4.2-9.5-9.5   c0-5.2,4.2-9.5,9.5-9.5h22.6c2,0,3.8,1.2,4.5,3.1c0.4,1,1.3,1.6,2.3,1.6h5.5c0.6,2.8,1.3,6.1,2.3,9.5H94.5z M44.1,288.2   c0-63,27.7-119.7,71.5-158.6c3.4,4.7,7.4,8.8,12.2,11.8c0.4,0.3,0.9,0.4,1.3,0.4h41.8c1.1,0,2.1-0.8,2.4-1.8   c9.7,4.7,20.3,8.6,31.4,10.5c1,0.4,1.9,0.8,2.9,1.2v170.6c0,0.8,0.4,1.6,1,2c0.4,0.3,0.9,0.5,1.4,0.5c0.3,0,0.6,0,0.8-0.1   c1.4-0.5,2.8-1.1,4.2-1.9v89.5h-38.9c-1.4,0-2.5,1.1-2.5,2.5v68.8C97.6,451.3,44.1,375.9,44.1,288.2z M178.7,485.5v-68.3h38.9h80.7   h38.9v66.7c-25,10.4-52.5,16.2-81.2,16.2C228.7,500.1,202.7,494.9,178.7,485.5z M342.2,481.8v-67.1c0-1.4-1.1-2.5-2.5-2.5h-38.9   V225.8l7.3,2.9c0.3,0.1,0.6,0.2,0.9,0.2c0.5,0,1-0.1,1.4-0.4c0.7-0.5,1.1-1.2,1.1-2.1v-77.1c8-2.1,15.6-5.5,22.5-9.4   c0.3,1.1,1.2,1.9,2.4,1.9h35.7c0.2,0,0.4,0,0.7-0.1c7.9-2.2,14.4-8.1,19.8-15.4c46.1,38.9,75.4,97,75.4,161.9   C467.9,374.3,416.2,448.7,342.2,481.8z"></path></g></svg>