<svg fill="#000000" xmlns="http://www.w3.org/2000/svg" xmlns:xlink="http://www.w3.org/1999/xlink" version="1.1" x="0px" y="0px" viewBox="0 0 100 100" enable-background="new 0 0 100 100" xml:space="preserve"><path d="M92.207,44.29c-1.195-1.195-2.783-1.853-4.473-1.853c-1.69,0-3.278,0.658-4.47,1.849l-6.132,6.002  c-3.657,2.64-7.065,3.636-10.043,2.88c-3.764-0.953-6.153-4.512-7.297-7.936c-0.403-2.054-1.067-4.011-1.951-5.842l2.073-1.948  c1.268-1.189,1.463-2.407,0.591-3.605C54.95,25.586,45.695,20.66,35.747,20.66c-16.294,0-29.401,13.102-29.84,29.828  c-0.041,1.582,0.333,4.466,0.346,4.553c0.026,0.448,0.779,11.133,12.161,24.302c0.016,0.018,0.032,0.034,0.049,0.05  c0.446,0.504,0.952,0.947,1.757,0.947h44.814c0.916,0,1.372-0.485,1.9-1.048c0.148-0.158,0.312-0.334,0.52-0.533l24.821-25.454  C94.742,50.838,94.712,46.794,92.207,44.29z M66.967,53.653c0.623,0.157,1.327,0.258,2.11,0.258c1.713,0,3.81-0.486,6.273-1.879  l-6.579,6.44c-2.021,2.021-4.709,3.135-7.568,3.135c-1.23,0-2.424-0.218-3.552-0.613c1.538-3.05,2.456-6.478,2.586-10.125  c0.012-0.296,0.017-0.591,0.017-0.885c0-0.894-0.052-1.775-0.145-2.643C61.478,50.211,63.735,52.834,66.967,53.653z M59.254,49.984  c0,0.28-0.005,0.562-0.017,0.847c-0.125,3.529-1.019,6.843-2.516,9.787c-1.132-0.523-2.18-1.236-3.088-2.145  c-0.994-0.994-1.766-2.15-2.296-3.408c0.462-1.417,0.744-2.921,0.8-4.488c0.007-0.197,0.01-0.393,0.01-0.587  c0-1.355-0.183-2.664-0.493-3.92c0.485-0.955,1.113-1.843,1.881-2.631c0.004-0.004,0.009-0.008,0.014-0.013l3.53-3.317  C58.477,43.103,59.254,46.45,59.254,49.984z M20.792,50.009c0-0.182,0.003-0.365,0.01-0.548c0.11-3.066,1.109-5.882,2.743-8.209  l2.019,1.536c-1.331,1.927-2.151,4.243-2.241,6.763c-0.005,0.152-0.008,0.305-0.008,0.457c0,0.634,0.061,1.253,0.15,1.861  l-2.479,0.47C20.87,51.577,20.792,50.803,20.792,50.009z M35.978,61.656c-0.141,0-0.282-0.003-0.423-0.008  c-6.303-0.224-11.24-5.338-11.24-11.642c0-0.141,0.002-0.282,0.007-0.422c0.225-6.303,5.339-11.24,11.643-11.24  c0.14,0,0.281,0.002,0.422,0.007c6.303,0.225,11.241,5.339,11.241,11.644c0,0.14-0.002,0.28-0.007,0.421  C47.395,56.72,42.281,61.656,35.978,61.656z M40.559,38.208l0.833-2.38c3.736,1.417,6.735,4.247,8.376,7.845l-2.328,0.975  C46.074,41.705,43.616,39.388,40.559,38.208z M39.612,37.886c-1.015-0.301-2.08-0.494-3.189-0.533  c-0.36-0.014-0.714-0.003-1.067,0.013l-0.207-2.502c0.27-0.014,0.537-0.04,0.811-0.04c0.184,0,0.368,0.003,0.552,0.009  c1.371,0.049,2.685,0.29,3.935,0.671L39.612,37.886z M34.151,34.94l0.208,2.514c-1.459,0.181-2.844,0.598-4.105,1.234l-1.209-2.206  C30.608,35.685,32.329,35.155,34.151,34.94z M28.174,36.974l1.207,2.203c-1.227,0.747-2.309,1.703-3.214,2.813l-2.01-1.53  C25.277,39.071,26.636,37.892,28.174,36.974z M23.645,52.852c0.322,1.415,0.875,2.739,1.626,3.928l-2.08,1.441  c-0.947-1.476-1.637-3.129-2.028-4.898L23.645,52.852z M25.842,57.6c0.855,1.141,1.896,2.13,3.087,2.924l-1.31,2.157  c-1.493-0.98-2.794-2.214-3.852-3.644L25.842,57.6z M29.779,61.05c1.226,0.684,2.583,1.162,4.025,1.408l-0.319,2.504  c-1.803-0.294-3.497-0.89-5.019-1.75L29.779,61.05z M34.796,62.587c0.241,0.022,0.479,0.053,0.724,0.062  c0.153,0.005,0.306,0.008,0.458,0.008c2.956,0,5.667-1.003,7.817-2.689l1.651,1.919c-2.593,2.066-5.882,3.294-9.468,3.294  c-0.181,0-0.362-0.003-0.548-0.011c-0.322-0.012-0.636-0.05-0.953-0.08L34.796,62.587z M46.199,61.227l-1.645-1.913  c1.058-0.974,1.942-2.128,2.618-3.416l2.279,1.078C48.622,58.585,47.521,60.021,46.199,61.227z M49.885,56.074l-2.282-1.079  c0.552-1.296,0.893-2.706,0.986-4.19l0.914,0.02c0,0.027-0.004,0.053-0.004,0.08c0,1.453,0.273,2.861,0.777,4.18  C50.158,55.421,50.026,55.75,49.885,56.074z M50.499,50.905c0-0.02,0.002-0.038,0.003-0.058l0.608,0.014  c-0.047,0.836-0.157,1.654-0.331,2.446C50.601,52.527,50.499,51.726,50.499,50.905z M50.551,49.849  c0.069-0.713,0.212-1.41,0.418-2.085c0.101,0.687,0.167,1.384,0.173,2.099L50.551,49.849z M49.552,49.826l-0.934-0.021  c-0.022-1.491-0.302-2.914-0.792-4.235l2.329-0.975c0.169,0.448,0.318,0.906,0.445,1.373C50.036,47.177,49.674,48.475,49.552,49.826  z M36.545,33.834c-9.022-0.313-16.422,6.648-16.742,15.59c-0.007,0.195-0.011,0.391-0.011,0.584c0,8.75,6.854,15.848,15.6,16.16  c0.196,0.008,0.392,0.011,0.586,0.011c6.692,0,12.406-4.016,14.869-9.816c0.541,1.024,1.237,1.974,2.08,2.816  c0.978,0.978,2.104,1.748,3.32,2.318c-3.99,7.069-11.556,11.785-20.261,11.785c-0.28,0-0.562-0.005-0.845-0.016  c-12.59-0.447-22.453-10.66-22.453-23.251c0-0.28,0.005-0.562,0.015-0.845c0.449-12.59,10.663-22.453,23.253-22.453  c0.28,0,0.562,0.005,0.843,0.015c8.683,0.31,16.067,5.264,19.815,12.438l-3.62,3.401c-0.023,0.017-0.047,0.036-0.068,0.058  c-0.644,0.643-1.191,1.354-1.661,2.107C49.161,38.561,43.452,34.08,36.545,33.834z M91.564,52.603L66.75,78.05  c-0.209,0.201-0.385,0.389-0.543,0.558c-0.523,0.557-0.711,0.732-1.172,0.732H20.221c-0.38,0-0.635-0.195-0.974-0.572  c-0.033-0.059-0.078-0.108-0.13-0.149c-0.047-0.054-0.095-0.111-0.146-0.172c-0.123-0.146-0.251-0.298-0.39-0.45  C8.002,65.417,7.258,55.086,7.248,54.947c-0.003-0.029-0.38-2.93-0.341-4.433c0.424-16.18,13.092-28.854,28.84-28.854  c9.614,0,18.56,4.761,23.939,12.751c0.673,0.924,0.305,1.589-0.456,2.302l-1.86,1.748c-3.948-7.35-11.578-12.409-20.535-12.728  c-13.513-0.503-24.653,9.979-25.131,23.401c-0.011,0.295-0.016,0.589-0.016,0.881c0,13.132,10.286,23.785,23.417,24.251  c0.295,0.011,0.589,0.016,0.881,0.016c9.123,0,17.044-4.967,21.19-12.398c1.275,0.467,2.63,0.723,4.027,0.723  c3.126,0,6.065-1.218,8.271-3.424l14.493-14.187c1.006-1.006,2.344-1.56,3.767-1.56c1.422,0,2.76,0.554,3.766,1.56  C93.614,47.111,93.646,50.521,91.564,52.603z M43.507,42.6c-2.008-2.056-4.704-3.188-7.591-3.188  c-5.828,0.011-10.569,4.77-10.569,10.608c0.011,5.828,4.77,10.569,10.607,10.569c0,0,0,0,0.001,0  c2.88-0.006,5.572-1.147,7.579-3.215c0.088-0.09,0.137-0.211,0.137-0.337l-0.026-14.102C43.645,42.811,43.595,42.69,43.507,42.6z   M35.953,59.625c-5.307,0-9.632-4.31-9.642-9.605c0-5.307,4.309-9.633,9.605-9.643c2.56,0,4.954,0.978,6.764,2.76l0.025,13.704  C40.897,58.633,38.506,59.62,35.953,59.625z M42.861,68.814c-0.102-0.257,0.024-0.547,0.281-0.648  c3.962-1.566,7.358-4.444,9.562-8.104c0.145-0.237,0.452-0.31,0.687-0.171c0.236,0.143,0.312,0.45,0.171,0.687  c-2.317,3.846-5.887,6.871-10.051,8.518c-0.061,0.024-0.123,0.035-0.184,0.035C43.127,69.131,42.939,69.011,42.861,68.814z   M29.873,31.35c0.102,0.256-0.024,0.547-0.281,0.648c-3.963,1.567-7.36,4.444-9.565,8.103c-0.094,0.156-0.259,0.242-0.429,0.242  c-0.088,0-0.177-0.023-0.258-0.072c-0.236-0.143-0.312-0.45-0.17-0.687c2.318-3.845,5.888-6.869,10.054-8.516  C29.479,30.966,29.771,31.092,29.873,31.35z M39.318,63.459c-0.106-0.353,0.094-0.723,0.446-0.828  c0.353-0.107,0.724,0.093,0.829,0.445c0.106,0.351-0.094,0.724-0.446,0.829C39.795,64.011,39.424,63.812,39.318,63.459z   M37.317,63.863c-0.104-0.354,0.095-0.725,0.447-0.832c0.353-0.104,0.724,0.096,0.829,0.446c0.105,0.353-0.094,0.724-0.446,0.831  C37.794,64.413,37.423,64.213,37.317,63.863z M41.246,62.682c-0.105-0.351,0.094-0.724,0.446-0.829  c0.352-0.104,0.724,0.094,0.829,0.445c0.106,0.354-0.094,0.725-0.446,0.83C41.724,63.234,41.352,63.034,41.246,62.682z   M45.976,39.436c0.27,0.25,0.287,0.671,0.036,0.941c-0.249,0.27-0.67,0.286-0.941,0.036c-0.27-0.249-0.286-0.671-0.036-0.941  C45.286,39.203,45.706,39.187,45.976,39.436z M47.374,41.897c-0.249,0.27-0.67,0.286-0.941,0.036  c-0.269-0.249-0.285-0.671-0.036-0.941c0.251-0.271,0.671-0.285,0.941-0.036C47.608,41.207,47.625,41.627,47.374,41.897z   M44.329,38.17c0.27,0.25,0.287,0.671,0.036,0.941c-0.25,0.269-0.671,0.285-0.941,0.036c-0.27-0.25-0.286-0.671-0.036-0.941  C43.638,37.936,44.06,37.92,44.329,38.17z M23.096,46.928c-0.085,0.358-0.445,0.578-0.802,0.493  c-0.358-0.085-0.579-0.444-0.493-0.802c0.084-0.358,0.444-0.578,0.802-0.494C22.96,46.211,23.181,46.57,23.096,46.928z M22.95,45.49  c-0.358-0.087-0.579-0.444-0.494-0.803c0.085-0.358,0.444-0.58,0.802-0.493c0.358,0.085,0.578,0.445,0.494,0.801  C23.667,45.353,23.308,45.575,22.95,45.49z M22.801,48.985c-0.085,0.358-0.445,0.578-0.802,0.493  c-0.358-0.085-0.579-0.444-0.494-0.802c0.085-0.358,0.444-0.579,0.803-0.493C22.666,48.268,22.887,48.627,22.801,48.985z"/></svg>