<svg fill="#000000" xmlns="http://www.w3.org/2000/svg" xmlns:xlink="http://www.w3.org/1999/xlink" version="1.1" x="0px" y="0px" viewBox="0 0 100 100" enable-background="new 0 0 100 100" xml:space="preserve"><g display="none"><rect x="-420.877" y="-277.172" display="inline" fill="#000000" width="1370.931" height="877.172"/></g><g><g><path d="M85.823,8.81c-0.582-0.403-1.362-0.345-1.879,0.138c-4.544,4.25-9.019,2.159-14.197-0.263    c-5.387-2.52-11.491-5.375-17.518,0.263c-0.303,0.283-0.475,0.68-0.475,1.095v0.508v16.543v10.683H25.241    c-6.457,0-11.71,5.253-11.71,11.71v16.82c0,3.107,2.283,5.691,5.26,6.163v15.607c0,3.44,2.799,6.24,6.24,6.24h8.02    c3.441,0,6.24-2.799,6.24-6.24V50.885h12.057c0.137,0,0.27-0.015,0.406-0.021v8.52c0,0.829,0.671,1.5,1.5,1.5s1.5-0.671,1.5-1.5    v-9.094c3.979-1.408,6.841-5.198,6.841-9.653v-2.862h-6.841v-9.992c4.382-3.683,8.723-1.67,13.722,0.668    c3.089,1.445,6.415,3,9.827,3c2.536,0,5.121-0.86,7.691-3.264c0.353-0.33,0.524-0.809,0.463-1.288    c-0.062-0.479-0.351-0.898-0.775-1.128c-1.412-0.761-2.982-2.263-4.677-4.471c1.919-3.139,3.675-6.646,5.35-10.685    C86.625,9.965,86.404,9.213,85.823,8.81z M58.593,40.776c-0.074,3.933-3.295,7.109-7.246,7.109H36.291v40.191    c0,1.787-1.454,3.24-3.24,3.24h-8.02c-1.787,0-3.24-1.453-3.24-3.24v-18.53h-2.02c-1.787,0-3.24-1.453-3.24-3.24v-16.82    c0-4.803,3.907-8.71,8.71-8.71H58.593z M77.923,20.574c-0.33,0.52-0.309,1.188,0.053,1.686c1.556,2.142,3.029,3.77,4.46,4.925    c-4.034,2.597-8.083,0.704-12.689-1.45c-3.09-1.445-6.415-3.001-9.827-3.001c-1.707,0-3.436,0.39-5.166,1.376V10.716    c4.384-3.682,8.724-1.651,13.722,0.686c4.085,1.911,8.584,4.015,13.148,2.46C80.449,16.305,79.225,18.525,77.923,20.574z"/><path d="M40.341,23.988c0-6.23-5.069-11.299-11.299-11.299c-6.23,0-11.299,5.069-11.299,11.299c0,6.23,5.069,11.299,11.299,11.299    C35.272,35.287,40.341,30.218,40.341,23.988z M20.743,23.988c0-4.576,3.723-8.299,8.299-8.299s8.299,3.723,8.299,8.299    s-3.723,8.299-8.299,8.299S20.743,28.565,20.743,23.988z"/></g></g></svg>