<svg fill="#000000" xmlns="http://www.w3.org/2000/svg" xmlns:xlink="http://www.w3.org/1999/xlink" version="1.1" x="0px" y="0px" viewBox="0 0 100 100" enable-background="new 0 0 100 100" xml:space="preserve"><g><polygon points="44.34,53.577 31.77,41.013 23.398,49.385 40.152,66.135 44.34,70.319 76.602,38.054 68.229,29.681  "/><g><path fill="none" d="M75.511,14.685H24.489c-5.406,0-9.805,4.398-9.805,9.805v51.021c0,5.406,4.398,9.804,9.805,9.804h51.021    c5.406,0,9.805-4.397,9.805-9.804V24.489C85.315,19.083,80.917,14.685,75.511,14.685z"/><path d="M75.511,10.283H24.489c-7.833,0-14.205,6.373-14.205,14.206v51.021c0,7.833,6.372,14.206,14.205,14.206h51.021    c7.833,0,14.205-6.373,14.205-14.206V24.489C89.716,16.656,83.344,10.283,75.511,10.283z M85.315,75.511    c0,5.406-4.398,9.804-9.805,9.804H24.489c-5.406,0-9.805-4.397-9.805-9.804V24.489c0-5.406,4.398-9.805,9.805-9.805h51.021    c5.406,0,9.805,4.398,9.805,9.805V75.511z"/></g></g></svg>