<svg fill="#000000" xmlns="http://www.w3.org/2000/svg" xmlns:xlink="http://www.w3.org/1999/xlink" version="1.1" x="0px" y="0px" viewBox="0 0 100 100" enable-background="new 0 0 100 100" xml:space="preserve"><g><path d="M58.501,14.36c-0.643,0.028-1.256,0.281-1.703,0.73l-0.027,0.028l-8.488,8.587c-0.475,0.477-0.726,1.123-0.726,1.796v6.146   h-8.208c-2.346,0-4.328,1.88-4.523,4.209l-0.056,0.702c-0.587,0.786-0.921,1.74-0.921,2.778v12.347c0,0.057,0,0.085,0,0.141v13.639   c0,0.028,0,0.057,0,0.084v12.433c0,1.038,0.334,1.992,0.921,2.75l0.056,0.701c0.195,2.357,2.178,4.21,4.523,4.21h9.437h2.457h9.437   c2.317,0,4.3-1.853,4.495-4.21l0.056-0.673c0.587-0.786,0.922-1.74,0.922-2.778V65.604c0-0.057,0-0.084,0-0.141V51.824   c0-0.028,0-0.056,0-0.056V39.336c0-1.066-0.335-2.021-0.922-2.806l-0.056-0.674c-0.195-2.329-2.178-4.209-4.495-4.209h-8.125   v-5.079l7.79-7.886h-0.028v-0.028c0.727-0.729,0.978-1.796,0.587-2.75C60.483,14.921,59.534,14.332,58.501,14.36L58.501,14.36z    M58.557,15.932c0.335,0,0.754,0.252,0.866,0.589c0.139,0.309,0.056,0.786-0.196,1.038c0,0,0,0,0,0.028l-8.013,8.054   c-0.14,0.168-0.224,0.365-0.224,0.561v5.444h-1.843v-6.146c0-0.253,0.112-0.505,0.279-0.674l8.488-8.615   C58.082,16.044,58.334,15.959,58.557,15.932L58.557,15.932z M39.349,33.247h9.437h2.457h0.53h8.906   c1.145,0,2.206,0.758,2.681,1.796c-0.419-0.168-0.894-0.309-1.368-0.365h-0.028c-0.14,0-0.279-0.028-0.446-0.028l0,0H48.785H38.483   c-0.225,0-0.447,0.028-0.643,0.056c-0.084,0-0.195,0.028-0.279,0.056c0,0-0.027,0-0.027,0.028c-0.141,0.028-0.279,0.056-0.42,0.084   l-0.027,0.028c-0.168,0.056-0.307,0.084-0.447,0.141C37.114,34.004,38.176,33.247,39.349,33.247L39.349,33.247z M38.483,36.25   h10.302h12.731l0,0c0.223,0,0.419,0.028,0.614,0.056c0.167,0.056,0.335,0.084,0.502,0.168c0.056,0.028,0.14,0.028,0.195,0.056   c0.057,0.028,0.112,0.084,0.168,0.112c0.111,0.056,0.224,0.112,0.335,0.196c0.028,0.028,0.084,0.084,0.111,0.112   c0.14,0.14,0.308,0.252,0.419,0.393c0.028,0.028,0.028,0.028,0.056,0.056c0.419,0.533,0.671,1.207,0.671,1.937v11.702H39.879V41.75   c0-1.459,1.145-2.582,2.597-2.582c0.418,0,0.781-0.393,0.781-0.813c0-0.393-0.363-0.786-0.781-0.786c-2.289,0-4.16,1.88-4.16,4.182   v9.288h-2.876V39.336c0-0.702,0.224-1.375,0.614-1.88c0.027-0.028,0.027-0.056,0.056-0.112h0.028   c0.111-0.14,0.279-0.252,0.418-0.393c0.057-0.028,0.084-0.084,0.141-0.112c0.084-0.084,0.195-0.14,0.307-0.196   c0.084-0.056,0.168-0.084,0.279-0.141c0.027,0,0.056-0.028,0.084-0.028c0.168-0.084,0.335-0.112,0.53-0.168   C38.092,36.277,38.287,36.25,38.483,36.25L38.483,36.25z M35.439,52.61h29.148v12.066H35.439V52.61L35.439,52.61z M41.47,54.237   c-0.084,0-0.167,0-0.279,0.028c-0.418,0.057-0.754,0.505-0.67,0.926c0.057,0.394,0.531,0.702,0.949,0.618   c-0.111,0.027,0.084,0.027,0.308,0c0.224,0,0.53,0,0.865,0c0.698,0,1.563,0,2.429,0c1.76,0.027,3.463,0.027,3.463,0.027   c0.418,0,0.781-0.364,0.781-0.785c0.027-0.394-0.363-0.786-0.754-0.786c0,0-1.703-0.028-3.462-0.028c-0.865,0-1.786,0-2.485,0   c-0.334,0-0.642,0-0.893,0C41.61,54.237,41.526,54.237,41.47,54.237L41.47,54.237z M41.247,57.857   c-0.419,0-0.782,0.394-0.754,0.814c0.027,0.421,0.418,0.785,0.81,0.758h16.835c0.419,0,0.782-0.365,0.782-0.786   s-0.363-0.813-0.782-0.786H41.303C41.274,57.857,41.274,57.857,41.247,57.857L41.247,57.857z M41.136,61.45   c-0.42,0.027-0.782,0.421-0.754,0.813c0,0.421,0.391,0.786,0.809,0.786c0.225,0.027,0.308,0,0.531,0.027c0.251,0,0.559,0,0.893,0   c0.699,0,1.62,0,2.485,0c1.759-0.027,3.462-0.027,3.462-0.027c0.391,0,0.781-0.394,0.754-0.814c0-0.421-0.363-0.785-0.781-0.785   c0,0-1.703,0.027-3.463,0.027c-0.865,0-1.73,0-2.429,0c-0.335,0-0.642,0-0.865,0s-0.419-0.027-0.308-0.027   c-0.084,0-0.167,0-0.251,0C41.19,61.45,41.163,61.45,41.136,61.45L41.136,61.45z M35.439,66.249h2.876v9.261   c0,2.301,1.871,4.209,4.16,4.209c0.418,0,0.781-0.364,0.781-0.785s-0.363-0.786-0.781-0.786c-1.452,0-2.597-1.179-2.597-2.638   v-9.261h24.709v11.73c0,0.701-0.224,1.347-0.614,1.88c-0.028,0.028-0.057,0.028-0.084,0.057c0,0.027,0,0.027-0.028,0.027   c-0.111,0.169-0.251,0.309-0.419,0.421c-0.027,0.028-0.083,0.085-0.111,0.112c-0.111,0.057-0.224,0.141-0.335,0.197   c-0.084,0.027-0.168,0.084-0.251,0.111c-0.057,0.028-0.084,0.028-0.112,0.057c-0.167,0.056-0.335,0.112-0.502,0.141   c-0.195,0.056-0.392,0.084-0.614,0.084l0,0H48.785H38.511h-0.027c-0.196,0-0.392-0.028-0.587-0.084   c-0.195-0.028-0.362-0.085-0.53-0.141c-0.028-0.028-0.057-0.028-0.084-0.057c-0.111-0.027-0.195-0.084-0.279-0.111   c-0.111-0.057-0.223-0.141-0.307-0.197c-0.057-0.027-0.084-0.084-0.141-0.112c-0.139-0.112-0.278-0.252-0.418-0.421   c-0.028-0.027-0.057-0.084-0.084-0.112c-0.391-0.533-0.614-1.15-0.614-1.852V66.249L35.439,66.249z M36.64,82.245   c0.141,0.056,0.279,0.112,0.447,0.14c0,0.028,0.027,0.028,0.027,0.028c0.141,0.057,0.279,0.084,0.42,0.112   c0.083,0.028,0.195,0.057,0.307,0.084c0.056,0,0.111,0,0.14,0h0.056c0.14,0.028,0.307,0.028,0.447,0.028h0.027h10.274h12.731   c0.307,0,0.614-0.028,0.921-0.084h0.028c0.14-0.028,0.279-0.084,0.419-0.141h0.027c0.084-0.028,0.168-0.056,0.251-0.084   c0.028-0.028,0.084-0.028,0.14-0.056c0,0,0.028-0.028,0.057-0.028c-0.475,1.066-1.536,1.824-2.681,1.824h-9.437h-2.457h-9.437   C38.176,84.069,37.114,83.312,36.64,82.245L36.64,82.245z"/></g></svg>