<?xml version="1.0" encoding="utf-8"?>
<!-- Generator: Adobe Illustrator 16.0.0, SVG Export Plug-In . SVG Version: 6.00 Build 0)  -->
<!DOCTYPE svg PUBLIC "-//W3C//DTD SVG 1.1//EN" "http://www.w3.org/Graphics/SVG/1.1/DTD/svg11.dtd">
<svg version="1.1" id="Layer_1" xmlns="http://www.w3.org/2000/svg" xmlns:xlink="http://www.w3.org/1999/xlink" x="0px" y="0px"
	 width="71.584px" height="100px" viewBox="0 0 71.584 100" enable-background="new 0 0 71.584 100" xml:space="preserve">
<path fill="none" d="M55.366,15.121c0.048-0.262,0.75-0.354,1.583-0.214l7.436-8.723c-1.809-2.281-4.34-4.004-7.328-4.787
	L53.92,18.46l2.317-2.718C55.691,15.567,55.33,15.322,55.366,15.121z M57.029,12.225c0.837-0.258,1.582-0.25,1.664,0.017
	c0.082,0.267-0.529,0.692-1.367,0.95c-0.836,0.258-1.582,0.25-1.664-0.017S56.192,12.482,57.029,12.225z"/>
<path fill="none" d="M66.389,5.479L51.402,22.999h5.422c1.885,0,2.1,0.921,1.516,1.515c-1.081,1.1-1.695,2.668-1.897,4.646
	c3.974,0.046,7.938-1.606,10.716-4.866C71.891,18.744,71.48,10.535,66.389,5.479z M57.96,20.843
	c-0.259,0.105-0.735-0.467-1.065-1.279c-0.33-0.811-0.388-1.554-0.129-1.66c0.258-0.105,0.736,0.468,1.065,1.279
	C58.16,19.995,58.219,20.738,57.96,20.843z M60.452,18.558c-0.177,0.208-0.861-0.084-1.528-0.653
	c-0.666-0.568-1.062-1.197-0.885-1.405c0.176-0.208,0.861,0.084,1.527,0.653C60.232,17.72,60.629,18.35,60.452,18.558z
	 M60.703,15.815c-0.854-0.197-1.494-0.578-1.432-0.85s0.806-0.333,1.658-0.136c0.854,0.197,1.494,0.578,1.432,0.85
	S61.556,16.012,60.703,15.815z"/>
<circle fill="#0D0D0E" cx="31.74" cy="33.401" r="1.591"/>
<circle fill="#0D0D0E" cx="32.34" cy="27.062" r="0.636"/>
<circle fill="#0D0D0E" cx="31.54" cy="39.054" r="1.167"/>
<circle fill="#0D0D0E" cx="33.141" cy="44.41" r="0.849"/>
<ellipse transform="matrix(0.2937 0.9559 -0.9559 0.2937 52.5337 -45.6803)" fill="#0D0D0E" cx="57.178" cy="12.708" rx="0.505" ry="1.586"/>
<circle fill="#0D0D0E" cx="34.542" cy="29.564" r="0.636"/>
<circle fill="#0D0D0E" cx="34.142" cy="37.44" r="0.636"/>
<circle fill="#0D0D0E" cx="32.64" cy="49.179" r="0.636"/>
<ellipse transform="matrix(-0.3765 -0.9264 0.9264 -0.3765 61.0141 79.8094)" fill="#0D0D0E" cx="57.363" cy="19.374" rx="1.586" ry="0.506"/>
<ellipse transform="matrix(0.2241 -0.9746 0.9746 0.2241 32.2558 71.1586)" fill="#0D0D0E" cx="60.816" cy="15.322" rx="0.506" ry="1.586"/>
<ellipse transform="matrix(0.6494 -0.7604 0.7604 0.6494 7.4414 51.1977)" fill="#0D0D0E" cx="59.245" cy="17.529" rx="0.495" ry="1.585"/>
<path fill="#0D0D0E" d="M66.325,3.909L65.113,5.33c-2.171-2.662-5.254-4.594-8.898-5.258l-3.637,19.962l-2.527,2.965h-7.57
	l-1.516-0.017l-1.516,0.017h-8.28L25.572,4.787c-1.217-4.086-2.521-5.41-5.568-4.526L0.058,5.911L0,8.512l19.946-5.649
	c1.909-0.71,2.579,0.132,3.024,1.924l5.597,18.212h-3.461c-1.884,0-2.1,0.921-1.516,1.515c2.795,2.843,2.466,8.809,0,16.913
	c-3.763,12.367-8.992,32.998,12.663,40.452c0.411,1.12,0.716,2.304,0.937,3.538c-0.701,0.66-1.123,1.507-1.123,2.43
	c0,1.117,0.617,2.121,1.6,2.818c0.018,0.822,0.014,1.658-0.006,2.502c-6.908,2.473-14.07,3.062-14.07,5.318
	c0,0.833,0.682,1.516,1.516,1.516h14.343h1.516h1.516h14.344c0.834,0,1.516-0.683,1.516-1.516c0-2.257-7.161-2.846-14.069-5.318
	c-0.02-0.844-0.023-1.679-0.007-2.501c0.983-0.698,1.601-1.702,1.601-2.819c0-0.923-0.422-1.77-1.123-2.43
	c0.22-1.234,0.524-2.418,0.937-3.538c21.654-7.454,16.426-28.085,12.662-40.452c-1.339-4.401-2.047-8.172-1.968-11.154
	c4.312,0.066,8.618-1.72,11.634-5.256C73.369,18.725,72.617,9.273,66.325,3.909z M57.057,1.397c2.988,0.783,5.52,2.506,7.328,4.787
	l-7.436,8.723c-0.833-0.141-1.535-0.048-1.583,0.214c-0.036,0.202,0.325,0.446,0.871,0.622L53.92,18.46L57.057,1.397z
	 M45.045,77.774c-3.209,1.174-5.174,1.162-8.373,0C17.958,70.979,22.196,52.435,25.709,41.39c2.317-7.284,2.346-12.142,0.657-15.459
	c-0.659-1.362-0.58-1.219,0.065-1.214l8.066,0.061h0c-0.01,0.072-0.016,0.146-0.016,0.221c0,0.878,0.713,1.591,1.591,1.591
	c0.879,0,1.591-0.713,1.591-1.591c0-0.067-0.004-0.132-0.013-0.197l1.787,0.013l1.312-0.015l0.107,0.001l0.106-0.001l1.312,0.015
	l13.008-0.098c0.645-0.005,0.725-0.147,0.065,1.214c-1.356,3.309-1.478,8.17,0.657,15.459
	C59.266,52.513,63.744,70.938,45.045,77.774z M67.158,24.294c-2.778,3.26-6.742,4.913-10.716,4.866
	c0.202-1.978,0.816-3.546,1.897-4.646c0.584-0.594,0.369-1.515-1.516-1.515h-5.422L66.389,5.479
	C71.48,10.535,71.891,18.744,67.158,24.294z"/>
<circle fill="#0D0D0E" cx="33.841" cy="53.483" r="0.637"/>
<circle fill="#0D0D0E" cx="35.542" cy="50.181" r="1.167"/>
<circle fill="#0D0D0E" cx="36.344" cy="41.608" r="1.167"/>
<circle fill="#0D0D0E" cx="37.044" cy="33.767" r="0.955"/>
</svg>
