<svg fill="#000000" xmlns="http://www.w3.org/2000/svg" xmlns:xlink="http://www.w3.org/1999/xlink" version="1.1" x="0px" y="0px" viewBox="0 0 100 100" enable-background="new 0 0 100 100" xml:space="preserve"><g><path d="M21.959,95.836l-0.555-0.777c-0.052-0.07-5.183-7.23-8.757-9.996l-1.51-1.168l1.909,0.025c0.072,0,7.176,0.053,9.679-3.639   c0.486-1.125,8.555-19.996,10-35.285l0.064-0.689l0.682,0.12c0.156,0.027,15.683,2.7,27.765-1.447   c3.999-1.373,6.817-2.809,9.305-4.076c5.239-2.67,8.7-4.433,17.355-2.768l0.966,0.186l-0.564,0.806   c-0.257,0.369-26.077,36.853-61.459,47.757c-0.259,1.236-1.268,5.174-4.374,10.141L21.959,95.836z M14.678,85.123   c2.794,2.596,5.933,6.705,7.198,8.416c3.116-5.262,3.771-9.209,3.777-9.25l0.063-0.396l0.384-0.115   c32.209-9.744,56.52-41.101,60.56-46.565c-7.505-1.263-10.739,0.387-15.538,2.831c-2.525,1.287-5.388,2.745-9.47,4.146   c-10.938,3.754-24.555,2.072-27.723,1.604c-1.672,15.768-9.971,34.86-10.055,35.051l-0.023,0.051l-0.029,0.047   C21.741,84.082,17.151,84.908,14.678,85.123z"/></g><g><path d="M37.294,43.391c-1.359-0.646-2.047-2.32-1.846-4.38c-2.035-0.006-3.674-0.886-4.171-2.278   c-0.505-1.418,0.193-3.087,1.792-4.402c-1.457-1.47-1.984-3.201-1.338-4.56c0.646-1.36,2.319-2.047,4.38-1.846   c0.007-2.069,0.858-3.666,2.277-4.171c1.393-0.496,3.11,0.22,4.402,1.793c1.469-1.459,3.2-1.985,4.561-1.34   c1.36,0.646,2.047,2.32,1.845,4.38c2.035,0.006,3.675,0.885,4.172,2.277c0.504,1.419-0.193,3.088-1.792,4.402   c1.457,1.47,1.984,3.201,1.338,4.561c-0.645,1.36-2.319,2.046-4.38,1.845c-0.008,2.07-0.859,3.666-2.278,4.171   c-0.759,0.271-1.604,0.203-2.443-0.196c-0.001,0-0.001,0-0.001,0c-0.703-0.334-1.369-0.879-1.957-1.595   C40.386,43.51,38.655,44.036,37.294,43.391z M36.991,37.618l-0.17,0.845c-0.361,1.797,0.051,3.313,1.021,3.773   c0.97,0.461,2.404-0.179,3.569-1.594l0.547-0.665l0.478,0.717c0.557,0.836,1.24,1.476,1.924,1.8v0   c0.368,0.175,0.922,0.342,1.468,0.147c1.012-0.36,1.573-1.828,1.396-3.652l-0.082-0.857l0.844,0.169   c1.798,0.361,3.314-0.05,3.775-1.021c0.461-0.971-0.181-2.405-1.595-3.57l-0.665-0.547l0.717-0.478   c1.524-1.016,2.308-2.378,1.946-3.391c-0.194-0.545-0.673-0.869-1.041-1.044c-0.683-0.324-1.61-0.45-2.61-0.352l-0.856,0.083   l0.169-0.844c0.359-1.797-0.051-3.314-1.022-3.775c-0.97-0.461-2.405,0.18-3.569,1.595l-0.547,0.664l-0.479-0.716   c-0.557-0.837-1.239-1.476-1.922-1.8c-0.369-0.175-0.923-0.341-1.469-0.147c-1.012,0.36-1.572,1.828-1.396,3.652l0.082,0.857   l-0.844-0.169c-1.797-0.359-3.313,0.05-3.774,1.021c-0.461,0.971,0.181,2.405,1.595,3.571l0.666,0.546l-0.717,0.478   c-1.525,1.016-2.309,2.379-1.947,3.391c0.193,0.546,0.674,0.869,1.041,1.044c0.684,0.324,1.61,0.45,2.611,0.353L36.991,37.618z"/></g><g><path d="M40.097,37.487c-2.584-1.227-3.689-4.33-2.462-6.914c1.228-2.585,4.329-3.69,6.914-2.462   c2.585,1.227,3.689,4.329,2.462,6.914C45.784,37.608,42.683,38.714,40.097,37.487z M44.001,29.265   c-1.949-0.925-4.287-0.093-5.213,1.856c-0.924,1.948-0.092,4.287,1.857,5.212c1.948,0.925,4.287,0.092,5.211-1.856   C46.782,32.528,45.949,30.19,44.001,29.265z"/></g><g><path d="M62.286,37.093c-1.36-0.646-2.047-2.32-1.845-4.38c-2.036-0.005-3.676-0.885-4.172-2.277   c-0.505-1.418,0.193-3.088,1.792-4.402c-1.457-1.469-1.984-3.2-1.338-4.561c0.646-1.36,2.32-2.047,4.38-1.845   c0.007-2.068,0.858-3.666,2.277-4.171c1.394-0.495,3.111,0.22,4.402,1.793c1.468-1.459,3.2-1.985,4.561-1.339   c1.36,0.646,2.047,2.32,1.847,4.381c2.032,0.005,3.673,0.883,4.169,2.277c0.506,1.419-0.193,3.088-1.792,4.402   c1.458,1.469,1.986,3.201,1.34,4.561c-0.646,1.36-2.321,2.046-4.38,1.845c-0.008,2.069-0.859,3.667-2.28,4.171   c-0.757,0.271-1.604,0.201-2.442-0.197c0,0,0,0-0.001,0c-0.702-0.333-1.368-0.878-1.956-1.595   C65.378,37.213,63.646,37.739,62.286,37.093z M61.982,31.321l-0.169,0.843c-0.359,1.797,0.051,3.314,1.021,3.774   c0.972,0.461,2.405-0.18,3.571-1.595l0.546-0.664l0.479,0.716c0.556,0.835,1.239,1.475,1.923,1.8l0,0   c0.367,0.175,0.921,0.342,1.469,0.148c1.011-0.361,1.572-1.829,1.395-3.653l-0.083-0.857l0.844,0.168   c1.798,0.36,3.316-0.049,3.776-1.02c0.461-0.971-0.18-2.407-1.595-3.571l-0.665-0.546l0.717-0.478   c1.525-1.016,2.308-2.379,1.947-3.391c-0.195-0.548-0.674-0.87-1.042-1.044c-0.684-0.325-1.61-0.45-2.61-0.352l-0.857,0.083   l0.17-0.844c0.359-1.798-0.051-3.314-1.021-3.776c-0.97-0.46-2.405,0.181-3.57,1.596l-0.547,0.664l-0.478-0.716   c-0.558-0.837-1.24-1.476-1.923-1.8c-0.369-0.175-0.923-0.343-1.469-0.147c-1.011,0.36-1.572,1.828-1.396,3.652l0.082,0.857   L61.651,21c-1.796-0.361-3.313,0.05-3.774,1.021c-0.461,0.971,0.181,2.405,1.596,3.57l0.664,0.547l-0.717,0.478   c-1.525,1.015-2.309,2.378-1.946,3.39c0.193,0.547,0.673,0.87,1.042,1.045c0.683,0.324,1.609,0.45,2.61,0.352L61.982,31.321z"/></g><g><path d="M65.091,31.189c-2.586-1.227-3.691-4.329-2.464-6.914c1.227-2.585,4.329-3.689,6.915-2.462   c2.585,1.227,3.688,4.329,2.461,6.914C70.776,31.312,67.676,32.417,65.091,31.189z M68.993,22.968   c-1.948-0.925-4.287-0.093-5.213,1.855c-0.924,1.948-0.091,4.288,1.857,5.212s4.286,0.091,5.21-1.857   C71.773,26.23,70.941,23.894,68.993,22.968z"/></g><g><path d="M47.682,21.511c-1.087-0.516-1.653-1.817-1.538-3.422c-1.586-0.045-2.854-0.764-3.249-1.876   c-0.405-1.133,0.114-2.454,1.333-3.507c-1.105-1.171-1.488-2.537-0.973-3.624c0.516-1.088,1.816-1.654,3.424-1.538   c0.045-1.609,0.74-2.847,1.874-3.25c1.113-0.396,2.47,0.131,3.508,1.333c1.171-1.106,2.537-1.489,3.624-0.973   s1.655,1.817,1.538,3.423c1.586,0.044,2.854,0.762,3.25,1.875c0.403,1.133-0.115,2.454-1.334,3.508   c1.105,1.17,1.489,2.536,0.973,3.624c-0.517,1.087-1.817,1.653-3.424,1.537c-0.046,1.609-0.74,2.847-1.874,3.251   c-0.631,0.225-1.329,0.169-2.022-0.16l0,0c-0.53-0.252-1.034-0.652-1.486-1.173C50.136,21.644,48.769,22.027,47.682,21.511z    M47.675,16.707l-0.169,0.843c-0.271,1.345,0.021,2.474,0.724,2.807s1.762-0.154,2.633-1.213l0.547-0.664l0.478,0.716   c0.423,0.635,0.939,1.119,1.453,1.362l0,0c0.386,0.184,0.737,0.22,1.045,0.111c0.732-0.26,1.137-1.354,1.004-2.721l-0.083-0.856   l0.844,0.169c1.347,0.27,2.474-0.021,2.808-0.724c0.334-0.703-0.152-1.762-1.212-2.635l-0.665-0.546l0.716-0.478   c1.143-0.761,1.734-1.764,1.473-2.497c-0.256-0.718-1.391-1.133-2.72-1.004L55.692,9.46l0.17-0.843   c0.269-1.347-0.022-2.475-0.725-2.808c-0.704-0.334-1.763,0.153-2.635,1.214l-0.547,0.664l-0.478-0.716   c-0.741-1.113-1.779-1.729-2.497-1.474c-0.732,0.261-1.137,1.354-1.004,2.72l0.082,0.857l-0.844-0.168   c-1.346-0.271-2.474,0.021-2.809,0.724c-0.332,0.701,0.156,1.76,1.216,2.633l0.664,0.547l-0.716,0.477   c-1.143,0.761-1.734,1.764-1.475,2.497c0.257,0.719,1.391,1.133,2.721,1.005L47.675,16.707z"/></g><g><path d="M49.88,16.883c-2.096-0.995-2.99-3.51-1.996-5.604c0.994-2.095,3.509-2.99,5.604-1.995   c2.095,0.995,2.989,3.507,1.995,5.603C54.489,16.981,51.976,17.878,49.88,16.883z M52.939,10.438   c-1.459-0.693-3.209-0.07-3.901,1.389c-0.693,1.459-0.07,3.209,1.39,3.902c1.459,0.693,3.209,0.069,3.901-1.39   C55.022,12.879,54.399,11.13,52.939,10.438z"/></g><g><path d="M57.713,50.515c0,0-0.253,0.487-0.774,1.293c-0.262,0.401-0.564,0.906-0.953,1.449c-0.387,0.545-0.822,1.162-1.315,1.818   c-0.479,0.674-1.044,1.363-1.646,2.084c-0.606,0.723-1.222,1.508-1.921,2.264c-0.707,0.746-1.418,1.535-2.177,2.305   c-0.378,0.389-0.758,0.777-1.14,1.17c-0.398,0.373-0.801,0.748-1.2,1.123c-0.817,0.734-1.634,1.469-2.438,2.189   c-0.786,0.742-1.665,1.354-2.476,1.988c-0.813,0.631-1.619,1.215-2.381,1.771c-0.381,0.277-0.751,0.549-1.109,0.809   c-0.381,0.23-0.748,0.453-1.101,0.668c-1.408,0.861-2.603,1.535-3.442,1.998c-0.84,0.465-1.328,0.707-1.328,0.707   s0.397-0.385,1.114-1.023c0.716-0.637,1.742-1.535,3.001-2.564c0.313-0.258,0.641-0.525,0.979-0.803   c0.324-0.297,0.658-0.602,1.004-0.916c0.691-0.625,1.414-1.287,2.184-1.945c0.765-0.664,1.563-1.338,2.325-2.082   c0.778-0.723,1.569-1.459,2.359-2.193c0.403-0.361,0.804-0.723,1.204-1.084c0.383-0.377,0.765-0.752,1.145-1.125   c0.752-0.752,1.528-1.455,2.262-2.156c0.722-0.715,1.419-1.402,2.08-2.057c0.658-0.66,1.313-1.256,1.875-1.844   c1.156-1.152,2.122-2.112,2.796-2.784C57.322,50.9,57.713,50.515,57.713,50.515z"/></g><g><path d="M43.63,50.542c0,0,0.016,0.272-0.028,0.738c-0.032,0.472-0.122,1.138-0.296,1.917c-0.076,0.395-0.186,0.813-0.32,1.248   s-0.277,0.9-0.448,1.367c-0.188,0.461-0.39,0.934-0.608,1.412c-0.21,0.479-0.441,0.959-0.718,1.416   C40.938,59.1,40.668,59.559,40.385,60c-0.261,0.453-0.589,0.859-0.907,1.246c-0.313,0.391-0.627,0.76-0.928,1.105   c-0.152,0.17-0.302,0.334-0.445,0.494c-0.156,0.15-0.32,0.283-0.471,0.418c-0.605,0.533-1.139,0.941-1.516,1.215   s-0.605,0.414-0.605,0.414s0.107-0.256,0.324-0.672c0.215-0.416,0.527-0.994,0.938-1.643c0.215-0.32,0.41-0.689,0.615-1.082   c0.209-0.389,0.436-0.791,0.68-1.199c0.246-0.406,0.506-0.82,0.731-1.268c0.231-0.443,0.487-0.881,0.737-1.32   c0.271-0.428,0.497-0.883,0.735-1.322c0.235-0.439,0.479-0.869,0.725-1.281c0.435-0.848,0.904-1.621,1.284-2.297   c0.182-0.343,0.369-0.65,0.535-0.924c0.156-0.275,0.301-0.516,0.42-0.715C43.487,50.771,43.63,50.542,43.63,50.542z"/></g></svg>