<svg fill="#000000" xmlns:dc="http://purl.org/dc/elements/1.1/" xmlns:cc="http://creativecommons.org/ns#" xmlns:rdf="http://www.w3.org/1999/02/22-rdf-syntax-ns#" xmlns:svg="http://www.w3.org/2000/svg" xmlns="http://www.w3.org/2000/svg" xmlns:sodipodi="http://sodipodi.sourceforge.net/DTD/sodipodi-0.dtd" xmlns:inkscape="http://www.inkscape.org/namespaces/inkscape" version="1.1" x="0px" y="0px" viewBox="0 0 100 100"><g transform="translate(0,-952.36218)"><path style="font-size:medium;font-style:normal;font-variant:normal;font-weight:normal;font-stretch:normal;text-indent:0;text-align:start;text-decoration:none;line-height:normal;letter-spacing:normal;word-spacing:normal;text-transform:none;direction:ltr;block-progression:tb;writing-mode:lr-tb;text-anchor:start;baseline-shift:baseline;opacity:1;color:#000000;fill:#000000;fill-opacity:1;stroke:none;stroke-width:4;marker:none;visibility:visible;display:inline;overflow:visible;enable-background:accumulate;font-family:Sans;-inkscape-font-specification:Sans" d="M 50 6 C 25.72316 6 6 25.72316 6 50 C 6 74.2768 25.72316 94 50 94 C 74.27684 94 94 74.2768 94 50 C 94 25.72316 74.27684 6 50 6 z M 47.9375 10.0625 C 47.95816 10.061456 47.979332 10.063513 48 10.0625 L 48 16 A 2.0002 2.0002 0 1 0 52 16 L 52 10.0625 C 61.546859 10.530412 70.212828 14.313214 76.84375 20.3125 L 72.625 24.53125 A 2.0108349 2.0108349 0 0 0 75.46875 27.375 L 79.65625 23.15625 C 85.663341 29.789105 89.469237 38.445975 89.9375 48 L 84 48 A 2.0002 2.0002 0 0 0 83.8125 48 A 2.0021961 2.0021961 0 1 0 84 52 L 89.9375 52 C 89.335759 64.277401 83.2116 75.083181 74 82 L 74 73 A 2.0002 2.0002 0 0 0 72 71 L 28 71 A 2.0002 2.0002 0 0 0 27.8125 71 A 2.0002 2.0002 0 0 0 26 73 L 26 82 C 16.7884 75.083181 10.664241 64.277401 10.0625 52 L 16 52 A 2.0002 2.0002 0 1 0 16 48 L 10.0625 48 C 10.530763 38.445975 14.336658 29.789105 20.34375 23.15625 L 24.53125 27.375 A 2.0108349 2.0108349 0 0 0 27.375 24.53125 L 23.15625 20.3125 C 29.772818 14.326202 38.415159 10.5438 47.9375 10.0625 z M 22.71875 32 A 2.0002 2.0002 0 0 0 21.6875 35.5 L 41.6875 53.1875 C 42.995348 56.5545 46.195039 59 50 59 C 54.94687 59 59 54.9469 59 50 C 59 45.05311 54.946874 41 50 41 C 49.404963 41 48.845729 41.13825 48.28125 41.25 L 23.6875 32.125 A 2.0002 2.0002 0 0 0 22.71875 32 z M 32.375 39.59375 L 47.3125 45.15625 A 2.0002 2.0002 0 0 0 48.59375 45.1875 C 49.038852 45.05438 49.501601 45 50 45 C 52.78511 45 55 47.21487 55 50 C 55 52.7851 52.785114 55 50 55 C 47.693416 55 45.780754 53.43335 45.1875 51.34375 A 2.0002 2.0002 0 0 0 44.59375 50.40625 L 32.375 39.59375 z M 30 75 L 70 75 L 70 84.625 C 64.116575 88.026707 57.296718 90 50 90 C 42.703284 90 35.883425 88.026707 30 84.625 L 30 75 z " transform="translate(0,952.36218)"/></g></svg>