<svg fill="#000000" xmlns="http://www.w3.org/2000/svg" xmlns:xlink="http://www.w3.org/1999/xlink" version="1.1" x="0px" y="0px" viewBox="0 0 100 100" enable-background="new 0 0 100 100" xml:space="preserve"><path d="M69.119,73.513c-1.575,0-2.857,1.282-2.857,2.857s1.282,2.857,2.857,2.857s2.857-1.282,2.857-2.857  S70.694,73.513,69.119,73.513z M69.119,77.228c-0.473,0-0.857-0.385-0.857-0.857s0.385-0.857,0.857-0.857s0.857,0.385,0.857,0.857  S69.592,77.228,69.119,77.228z M96,26h-9v-2h-3.009c-0.118-1.295-1.066-2.393-2.357-2.662l-8.03-1.674L67.969,24l-7.191,0.002  l-4.746-5.839c0,0-24.027,0.427-29.993,0.869C19.85,19.49,16.776,22.471,16.265,23h-1.011l-4.313,1.233L5,24.451V27v2.037  l5.804,1.002L15.033,32h1.921c1.594,1.812,5.618,5.54,12.12,6.054c10.502,0.829,16.704,2.444,21.162,4.824l-0.54,1.365  c-0.403,0.854-0.222,1.872,0.454,2.533l0.718,0.702c1.07,1.046,1.439,2.633,0.939,4.043l-3.724,10.477l3.018,0.754  c0.356,0.09,0.715,0.132,1.07,0.132c1.778,0,3.456-1.072,4.155-2.773l3.611-8.794c3.389,4.438,5.836,11.334,7.047,15.279  c0.43,1.397,0.046,2.896-1.002,3.913l-2.227,2.158c-1.158,1.124-1.507,2.813-0.888,4.304l1.511,3.632  c0.618,1.486,2.049,2.408,3.598,2.408c0.296,0,0.597-0.033,0.896-0.104l12.029-2.805c1.854-0.433,3.121-2.122,3.012-4.018  c-0.182-3.19-0.731-9.587-2.359-16.579c-1.505-6.472-4.411-11.641-6.584-14.837c-0.28-0.412-0.37-0.904-0.252-1.386  c0.117-0.475,0.418-0.863,0.849-1.095l6.504-3.493C83.266,38.053,84,36.813,84,35.458V35h3v-3h9V26z M65.37,26l-1.826,1.405  L62.402,26H65.37z M16,30h-0.525l-3.949-1.831L7,27.354v-0.975l4.141-0.151L15.398,25H16V30z M54.478,59.35  c-0.464,1.129-1.706,1.756-2.892,1.462l-0.879-0.221l2.985-8.401c0.76-2.143,0.199-4.554-1.426-6.142l-0.718-0.702  c-0.066-0.064-0.084-0.164-0.019-0.307l0.452-1.138c2.5,1.608,4.464,3.51,6.497,5.702L54.478,59.35z M81.126,36.932l-6.507,3.493  c-0.923,0.495-1.594,1.362-1.844,2.38c-0.251,1.023-0.053,2.112,0.541,2.987c2.077,3.056,4.855,7.993,6.291,14.165  c1.594,6.847,2.132,13.113,2.311,16.24c0.053,0.922-0.565,1.745-1.471,1.956L68.42,80.958c-0.913,0.212-1.835-0.261-2.193-1.125  l-1.51-3.632c-0.303-0.728-0.133-1.552,0.433-2.101l2.227-2.158c1.59-1.543,2.173-3.817,1.521-5.937  c-1.381-4.494-4.323-12.718-8.514-17.289c-2.517-2.745-4.869-5.222-8.273-7.067c-5.579-3.025-11.615-4.701-22.879-5.59  C22.662,35.541,18.849,31.205,18,30.131V27v-2.877c0.893-0.734,3.739-2.767,8.188-3.097c5.432-0.402,25.515-0.783,28.907-0.846  l8.125,9.998l10.876-8.37l7.123,1.486C81.675,23.391,82,23.799,82,24.266v11.192C82,36.075,81.669,36.64,81.126,36.932z M85,33h-1  v-7h1V33z M94,30h-7v-2h7V30z M59.595,28.622c0.348,0.429,0.283,1.059-0.146,1.407c-0.186,0.15-0.408,0.224-0.63,0.224  c-0.291,0-0.579-0.126-0.777-0.369l-5.376-6.614c-0.348-0.429-0.283-1.059,0.146-1.407c0.43-0.348,1.059-0.282,1.407,0.146  L59.595,28.622z M55.166,28.622c0.348,0.429,0.283,1.059-0.146,1.407c-0.186,0.15-0.408,0.224-0.63,0.224  c-0.291,0-0.579-0.126-0.777-0.369l-5.376-6.614c-0.348-0.429-0.283-1.059,0.146-1.407c0.431-0.348,1.059-0.282,1.407,0.146  L55.166,28.622z M50.737,28.622c0.348,0.429,0.283,1.059-0.146,1.407c-0.186,0.15-0.408,0.224-0.63,0.224  c-0.291,0-0.579-0.126-0.777-0.369l-5.376-6.614c-0.348-0.429-0.283-1.059,0.146-1.407c0.43-0.348,1.059-0.282,1.407,0.146  L50.737,28.622z M46.309,28.622c0.348,0.429,0.283,1.059-0.146,1.407c-0.186,0.15-0.408,0.224-0.63,0.224  c-0.291,0-0.579-0.126-0.777-0.369L39.38,23.27c-0.348-0.429-0.283-1.059,0.146-1.407c0.43-0.348,1.059-0.282,1.407,0.146  L46.309,28.622z M41.88,28.622c0.348,0.429,0.283,1.059-0.146,1.407c-0.186,0.15-0.408,0.224-0.63,0.224  c-0.291,0-0.579-0.126-0.777-0.369l-5.375-6.614c-0.348-0.429-0.283-1.059,0.146-1.407c0.43-0.348,1.059-0.282,1.407,0.146  L41.88,28.622z M72.546,47.746C72.7,48,76.327,54.052,77.633,60.235c0.114,0.54-0.231,1.07-0.772,1.185  c-0.069,0.015-0.139,0.021-0.207,0.021c-0.463,0-0.878-0.322-0.978-0.794c-1.235-5.855-4.806-11.809-4.841-11.868  c-0.286-0.473-0.135-1.087,0.339-1.372C71.645,47.117,72.261,47.272,72.546,47.746z M78.276,63.218  c0.02,0.093,0.483,2.302,0.677,4.231c0.055,0.549-0.346,1.039-0.896,1.095c-0.033,0.003-0.067,0.005-0.101,0.005  c-0.508,0-0.942-0.385-0.994-0.9c-0.183-1.819-0.639-3.996-0.644-4.019c-0.114-0.54,0.231-1.07,0.772-1.185  C77.631,62.33,78.162,62.678,78.276,63.218z"/></svg>