<svg xmlns="http://www.w3.org/2000/svg" xmlns:xlink="http://www.w3.org/1999/xlink" version="1.1" x="0px" y="0px" viewBox="0 0 64 64" enable-background="new 0 0 64 64" xml:space="preserve"><g><path d="M37,20.6V1H27v19.6C16.7,22.8,9,32,9,43v1h12.1c0.5,5.6,5.2,10,10.9,10c5.7,0,10.4-4.4,10.9-10H55v-1   C55,32,47.3,22.8,37,20.6z M29,20.2V3h6v17.2c0,0-0.1,0-0.1,0c-0.4-0.1-0.8-0.1-1.3-0.1c-0.1,0-0.2,0-0.2,0c-0.5,0-0.9,0-1.4,0   c-0.5,0-0.9,0-1.4,0c-0.1,0-0.2,0-0.2,0C29.9,20.1,29.5,20.1,29,20.2C29.1,20.2,29,20.2,29,20.2z M27.9,22.4l0.1,0   c0.3-0.1,0.6-0.1,0.9-0.1c0.4-0.1,0.8-0.1,1.2-0.2c0.4,0,0.9,0,1.3-0.1c0.4,0,0.9,0,1.3,0c0.4,0,0.9,0,1.3,0.1   c0.4,0,0.8,0.1,1.2,0.2c0.3,0,0.6,0.1,0.9,0.1l0.1,0c5,1,9.3,3.8,12.3,7.6H15.5C18.6,26.2,22.9,23.4,27.9,22.4z M32,52   c-4.6,0-8.4-3.5-8.9-8h17.9C40.4,48.5,36.6,52,32,52z M43,42H21H11c0.2-3.7,1.3-7.1,3.1-10h35.7c1.8,2.9,2.9,6.3,3.1,10H43z"></path><rect x="31" y="36" width="2" height="2"></rect><rect x="27" y="36" width="2" height="2"></rect><rect x="35" y="36" width="2" height="2"></rect><rect x="31" y="58" width="2" height="5"></rect><rect x="41.9" y="54.4" transform="matrix(-0.7072 -0.7071 0.7071 -0.7072 36.6011 125.9083)" width="5" height="2"></rect><rect x="18.6" y="52.9" transform="matrix(-0.7071 -0.7071 0.7071 -0.7071 -5.6504 108.4088)" width="2" height="5"></rect></g></svg>