<svg xmlns="http://www.w3.org/2000/svg" xmlns:xlink="http://www.w3.org/1999/xlink" version="1.1" x="0px" y="0px" viewBox="0 0 100 100" enable-background="new 0 0 100 100" xml:space="preserve"><g><g><path d="M71.73,47.51c-0.15-2.91-2.17-5.34-5.02-6.05c-1.37-0.34-2.43-0.69-3.15-1.06c-2.08-1.05-5.41-2.68-6.4-3.16v-5.57    c0-0.06,0-0.12-0.01-0.17c4.41-2.55,7.38-7.32,7.38-12.77c0-8.12-6.61-14.74-14.74-14.74c-8.12,0-14.73,6.62-14.73,14.74    c0,5.82,3.39,10.86,8.29,13.26V37h-0.5c-0.18,0-0.35,0.04-0.51,0.13c-0.06,0.03-5.94,3.26-10.1,4.61    c-1.25,0.4-3.58,1.16-2.41,25.19c0.07,1.39,0.14,2.77,0.23,4.14v0.061c0.001,0.011-0.005,0.021-0.004,0.033    c0.001,0.006,0.005,0.011,0.005,0.018c0.58,9.921,1.449,18.738,1.459,18.848C31.59,90.64,32.58,96,46.73,96c0.01,0,0.01,0,0.01,0    c1.94,0,4.08-0.1,6.36-0.3c2.83-0.25,5.25-0.45,7.3-0.63c11.96-0.99,12.67-1.05,13-4.89l0.03-0.34    C73.7,86.82,72.48,62.03,71.73,47.51z M62.61,42.28c0.87,0.44,2.07,0.85,3.59,1.23c1.95,0.48,3.32,2.13,3.43,4.11    c0.44,8.55,0.8,16.04,1.08,22.24c0,0,0,0,0,0h-2.73l-1.061-22.263c-0.027-0.58-0.525-1.015-1.101-1.001    c-0.581,0.028-1.029,0.521-1.001,1.102l1.076,22.58c-1.754,0.83-7.44,3.135-13.711,1.723c1.511-13.391-0.457-28.306-1.141-32.812    h4.979c0.09,0,0.18-0.01,0.27-0.03C57.33,39.67,60.57,41.26,62.61,42.28z M66.375,80.375c0.043,0.893-0.278,1.767-0.879,2.398    c-0.564,0.591-1.312,0.916-2.106,0.916H49.613c1.07-2.913,1.81-6.172,2.299-9.58c1.527,0.33,3.013,0.466,4.423,0.466    c4.23,0,7.767-1.215,9.666-2.03L66.375,80.375z M47.359,83.689h-6.015c-1.56,0-2.869-1.287-2.981-2.93l-0.597-8.769    c3.589,0.087,8.098,0.46,12.083,1.572C49.346,77.224,48.549,80.688,47.359,83.689z M49.79,6.1c6.97,0,12.64,5.67,12.64,12.63    c0,5.38-3.38,9.99-8.12,11.8c-1.4,0.54-2.93,0.84-4.52,0.84c-1.59,0-3.11-0.3-4.51-0.84c-4.74-1.81-8.12-6.42-8.12-11.8    C37.16,11.77,42.83,6.1,49.79,6.1z M49.79,33.47c1.53,0,3-0.23,4.38-0.66h0.72v4.1h-9.26v-4.04    C46.95,33.26,48.34,33.47,49.79,33.47z M32.89,43.74c3.91-1.27,9.05-4,10.23-4.64h0.93c0.13,0.06,0.28,0.09,0.44,0.09h4.418    c0.589,3.904,2.615,18.946,1.197,32.259c-4.208-1.131-8.835-1.498-12.484-1.576l-1.518-22.297    c-0.039-0.58-0.539-1.024-1.121-0.979c-0.58,0.04-1.018,0.542-0.979,1.121l1.508,22.138c-1.472,0.009-2.671,0.058-3.462,0.102    C31.18,54.32,31.64,44.71,32.89,43.74z M71.33,89.65L71.3,90c-0.12,1.44-0.13,1.52-0.97,1.8c-1.39,0.45-4.48,0.71-10.1,1.18    c-2.06,0.17-4.48,0.37-7.32,0.62c-2.21,0.2-4.29,0.3-6.17,0.3c0,0,0,0-0.01,0c-12.21,0-13.11-4.09-13.11-4.09    c-0.64-6.489-1.12-12.438-1.44-17.747c0.784-0.041,1.991-0.088,3.475-0.094l0.608,8.933c0.187,2.743,2.418,4.893,5.081,4.893    h5.071c-0.338,0.67-0.691,1.319-1.08,1.921c-0.315,0.488-0.176,1.14,0.312,1.455c0.176,0.114,0.375,0.169,0.57,0.169    c0.345,0,0.683-0.17,0.885-0.481c0.613-0.948,1.164-1.974,1.659-3.063H63.39c1.376,0,2.665-0.558,3.63-1.569    c0.996-1.046,1.527-2.486,1.457-3.951l-0.396-8.309h2.729c0,0.001,0,0.003,0,0.004C71.26,82.12,71.45,88.39,71.33,89.65z"></path><path d="M48.9,10.29c0.34,0.01,8.42,0.44,9.18,8.54c0.05,0.55,0.51,0.95,1.05,0.95h0.1c0.58-0.05,1-0.57,0.95-1.15    C59.24,8.72,49.09,8.19,48.99,8.19c-0.61-0.05-1.07,0.42-1.1,1.01C47.87,9.78,48.32,10.27,48.9,10.29z"></path></g></g></svg>