<svg xmlns="http://www.w3.org/2000/svg" xmlns:xlink="http://www.w3.org/1999/xlink" version="1.1" x="0px" y="0px" viewBox="0 0 139 139" enable-background="new 0 0 139 139" xml:space="preserve"><path d="M69.699,130.334c-33.544,0-60.834-27.29-60.834-60.835c0-33.544,27.29-60.834,60.834-60.834s60.834,27.29,60.834,60.834  C130.533,103.044,103.243,130.334,69.699,130.334z M69.699,14.665c-30.235,0-54.834,24.599-54.834,54.834  c0,30.236,24.599,54.835,54.834,54.835s54.834-24.599,54.834-54.835C124.533,39.264,99.935,14.665,69.699,14.665z"></path><rect x="53.199" y="96.485" width="33" height="6"></rect><rect x="25.965" y="65.5" width="19.07" height="6"></rect><rect x="93.965" y="65.5" width="19.07" height="6"></rect></svg>