<svg fill="#000000" xmlns="http://www.w3.org/2000/svg" xmlns:xlink="http://www.w3.org/1999/xlink" version="1.1" x="0px" y="0px" viewBox="0 0 144.083 144" enable-background="new 0 0 144.083 144" xml:space="preserve"><path d="M49.092,47.368l-1.549-5.797c-3.352,0.896-6.686,2.007-9.908,3.301l2.236,5.568C42.872,49.235,45.973,48.202,49.092,47.368z  "/><path d="M31.084,54.599l-2.887-5.26c-3.041,1.67-6.014,3.543-8.838,5.568l3.498,4.875C25.487,57.897,28.254,56.153,31.084,54.599z"/><path d="M3.995,69.016l4.561,3.898c2.1-2.457,4.373-4.811,6.754-6.996l-4.057-4.42C8.694,63.846,6.252,66.375,3.995,69.016z"/><path d="M133.495,66.601l-4.418,4.059c2.188,2.382,4.252,4.921,6.137,7.545l4.875-3.498  C138.063,71.886,135.846,69.159,133.495,66.601z"/><path d="M114.313,58.052c2.691,1.785,5.305,3.756,7.764,5.856l3.896-4.563c-2.643-2.258-5.451-4.376-8.346-6.294L114.313,58.052z"/><path d="M108.577,47.815c-3.1-1.549-6.332-2.927-9.611-4.096l-2.014,5.652c3.051,1.087,6.059,2.369,8.943,3.811L108.577,47.815z"/><path d="M54.311,51.86l4.078,0.002l3.399-5.155l6.545,0.045l-4.121,14.208v0.336c0,1.794,1.46,3.255,3.254,3.255h5.912l9.382-17.399  l7.251,0.24c3.753,0,6.807-2.945,6.807-6.563c0.002-1.778-0.723-3.443-2.04-4.688c-1.278-1.208-2.969-1.875-4.838-1.875  c-0.003,0-0.005,0-0.006,0l-7.236,0.242L73.38,17.228l-5.922-0.002c-1.79,0.005-3.246,1.466-3.246,3.256v0.335L68.3,34.912  l-6.573,0.057l-3.34-5.053l-4.075,0.001c-1.674,0-3.035,1.361-3.035,3.034v15.876C51.277,50.5,52.637,51.86,54.311,51.86z   M55.998,34.863l3.206,4.85l15.368-0.133l-5.115-17.632l1.104,0l9.371,17.377l10.082-0.337c0.581,0,1.121,0.208,1.521,0.585  c0.363,0.343,0.562,0.788,0.562,1.255c0,1.017-0.936,1.843-2.007,1.844l-10.096-0.334L70.56,59.83h-1.104l5.149-17.755  l-15.347-0.107l-3.262,4.943V34.863z"/><path d="M81.707,75.003c-3.927-0.895-7.942-1.349-11.935-1.349c-25.115,0-46.559,17.128-52.146,41.651  c-0.868,3.812-1.302,7.651-1.335,11.469h6.001c0.026-2.387,0.227-4.784,0.617-7.176c3.374,0.865,6.85,2.253,7.967,3.164  c-0.052,0.387-0.112,0.779-0.173,1.174c-0.135,0.875-0.281,1.843-0.341,2.838h6.02c0.063-0.68,0.17-1.397,0.251-1.924  c0.111-0.723,0.221-1.443,0.29-2.139c0.373-3.768-3.9-6.781-12.684-8.964c4.832-16.481,17.895-28.741,34.096-32.711  c-0.893,1.726-1.612,3.862-1.912,6.564c-0.146,1.324-0.336,2.52-0.503,3.573c-0.672,4.246-1.367,8.637,4.375,11.193  c3.22,1.438,5.473,1.676,7.282,1.865c0.88,0.092,1.656,0.174,2.48,0.385c0.291,0.975,0.144,3.357,0.085,4.309  c-0.075,1.209-0.151,2.443,0.218,3.451c0.367,2.06,1.89,8.585,6.943,14.396h9.029c-8.68-5.667-10.063-15.355-10.12-15.781  l-0.123-0.988c0.012-0.234,0.027-0.49,0.041-0.709c0.193-3.123,0.553-8.939-3.899-10.299c-1.538-0.469-2.86-0.607-4.026-0.73  c-1.672-0.176-3.115-0.328-5.467-1.377c-1.539-0.686-1.539-0.686-0.892-4.776c0.177-1.119,0.378-2.389,0.539-3.853  c0.458-4.131,2.199-6.749,3.771-8.464c1.195-0.089,2.4-0.143,3.616-0.143c3.545,0,7.112,0.403,10.603,1.198  c12.381,2.821,22.923,10.293,29.682,21.039c4.581,7.284,7.046,15.482,7.285,23.864c-0.499,0.327-1.12,0.672-1.788,1.019h7.791  c-0.056-9.856-2.831-19.525-8.209-28.076C107.523,86.595,95.651,78.18,81.707,75.003z"/></svg>