<svg xmlns="http://www.w3.org/2000/svg" xmlns:xlink="http://www.w3.org/1999/xlink" version="1.1" id="Your_Icon" x="0px" y="0px" width="91.337px" height="96.423px" viewBox="0 0 91.337 96.423" enable-background="new 0 0 91.337 96.423" xml:space="preserve">
<path fill-rule="evenodd" clip-rule="evenodd" d="M23.935,14c0.985,0,1.97,0,2.954,0c3.895,0.193,7.305,1.154,9.999,2.531  c2.62,1.339,5.054,3.247,5.53,6.459c0,0.466,0,0.933,0,1.399c-0.233,1.726-1.016,2.97-2.045,3.996  c-0.385,0.283-0.739,0.593-1.061,0.932c-0.323,0.315-0.839,0.461-1.061,0.866c1.591,3.037,2.293,7.401,1.515,11.454  c-0.716,3.73-2.646,6.832-4.923,8.99c-0.36,0.262-0.688,0.551-0.985,0.867c-2.028,1.568-4.368,2.862-8.104,2.93  c-0.455,0-0.909,0-1.364,0c-3.073-0.251-5.217-1.318-7.044-2.664c-0.016-0.074-0.083-0.104-0.151-0.133  c-0.372-0.383-0.776-0.738-1.212-1.066c-0.042-0.096-0.118-0.162-0.227-0.199c-2.676-2.797-4.579-6.274-4.848-11.188  c0-0.71,0-1.42,0-2.131c0.145-2.647,0.755-4.886,1.742-6.793c-0.174-0.513-0.803-0.625-1.136-0.999  c-0.246-0.272-0.523-0.517-0.833-0.732c-2.75-2.019-2.851-7.422-0.152-9.523c0.085-0.014,0.118-0.074,0.152-0.133  c0.31-0.217,0.587-0.461,0.833-0.733c0.109-0.037,0.185-0.104,0.227-0.2C14.769,15.708,18.749,14.323,23.935,14z"/>
<path fill-rule="evenodd" clip-rule="evenodd" d="M49.08,8.924c0.195-0.728,0.379-1.634,0.758-2.331  C52.042,2.527,58.329,0.427,64.455,0c0.33,0,0.657,0,0.985,0c0.379,0,0.758,0,1.137,0c0.328,0,0.657,0,0.984,0  c7.436,0.631,14.14,2.954,15.453,8.99c0,0.444,0,0.888,0,1.332c-0.242,1.333-0.659,2.443-1.364,3.33  c-0.79,0.994-1.948,1.62-2.803,2.531c1.627,2.957,2.218,7.243,1.515,11.188c-0.671,3.766-2.448,6.824-4.696,8.99  c-0.493,0.455-0.998,0.899-1.514,1.333c-1.812,1.404-4.082,2.405-7.121,2.73c-0.657,0-1.313,0-1.969,0  c-3.266-0.326-5.593-1.476-7.499-2.997c-0.221-0.25-0.473-0.472-0.758-0.666c-2.916-2.83-4.977-6.413-5.302-11.521  c0-0.777,0-1.554,0-2.331c0.138-2.654,0.822-4.826,1.741-6.793c-0.305-0.397-0.821-0.609-1.211-0.932  c-0.328-0.311-0.63-0.646-0.985-0.932c-0.984-1.021-1.681-2.295-1.969-3.929C49.08,9.856,49.08,9.39,49.08,8.924z"/>
<path fill-rule="evenodd" clip-rule="evenodd" d="M45.435,43.412c2.611-1.856,5.432-3.528,8.56-4.928  c2.831,1.996,5.741,3.921,10.529,4.196c0.732,0.111,1.994,0.111,2.727,0c4.524-0.24,7.266-2.047,10.074-3.796  c3.278,1.713,6.688,3.311,9.393,5.527c0.499,0.495,1.029,0.96,1.591,1.399c1.744,1.641,2.845,3.848,3.029,6.859  c0,9.988,0,19.979,0,29.967c-11.992,0-23.986,0-35.979,0c-0.051-5.57,0.101-11.32-0.076-16.781  c-0.272-3.867-1.671-6.744-4.015-8.791c0-0.021,0-0.043,0-0.066c-0.423-0.428-0.877-0.826-1.362-1.197  c-2.484-2.303-5.848-3.828-8.939-5.596c0.772-2.162,1.794-4.105,3.257-5.66C44.619,44.159,45.052,43.808,45.435,43.412z   M67.629,53.136c-1.327,0.186-2.021,0.93-2.272,2.064c-0.126,0.201-0.126,0.863,0,1.064c0.218,1.117,0.903,1.826,2.12,2.064  c0.156,0.111,0.83,0.111,0.985,0c1.287-0.223,1.977-0.971,2.197-2.131c0.125-0.137,0.125-0.729,0-0.865  c-0.183-1.238-0.939-1.971-2.272-2.197C68.305,53.024,67.711,53.024,67.629,53.136z M67.553,69.45  c-1.283,0.203-1.964,0.938-2.196,2.064c-0.126,0.203-0.126,0.863,0,1.066c0.257,1.127,0.936,1.885,2.272,2.064  c0.082,0.109,0.676,0.109,0.758,0c1.357-0.205,2.075-0.973,2.272-2.197c0.125-0.137,0.125-0.73,0-0.867  c-0.228-1.154-0.906-1.912-2.197-2.131C68.332,69.341,67.684,69.341,67.553,69.45z"/>
<path fill-rule="evenodd" clip-rule="evenodd" d="M4.696,59.063c2.667-1.917,5.65-3.557,8.862-4.994  c2.843,1.939,5.772,3.804,10.528,4.063c0.733,0.11,1.994,0.11,2.727,0c4.496-0.223,7.261-1.964,10.074-3.663  c3.594,1.79,7.307,3.476,10.149,5.927c0.374,0.383,0.776,0.738,1.212,1.065c1.606,1.541,2.487,3.718,2.728,6.46  c0,9.501,0,19.002,0,28.502c-16.993,0-33.985,0-50.977,0c0-9.456,0-18.913,0-28.369c0.403-3.485,1.868-6.038,3.787-8.191  C4.122,59.624,4.425,59.358,4.696,59.063z M25.905,68.387c-3.038,0.062-3.076,4.992-0.151,5.194c0.155,0.111,0.829,0.111,0.984,0  c2.971-0.222,2.925-5.031-0.076-5.194C26.581,68.276,25.987,68.276,25.905,68.387z M25.905,83.637  c-3.038,0.063-3.076,4.992-0.151,5.194c0.155,0.11,0.829,0.11,0.984,0c2.971-0.222,2.925-5.031-0.076-5.194  C26.581,83.526,25.987,83.526,25.905,83.637z"/>
</svg>
