<svg xmlns="http://www.w3.org/2000/svg" xmlns:xlink="http://www.w3.org/1999/xlink" version="1.1" x="0px" y="0px" viewBox="0 0 100 100" enable-background="new 0 0 100 100" xml:space="preserve"><g><path d="M50,70.25c11.184,0,20.25-9.066,20.25-20.25c0-11.184-9.066-20.25-20.25-20.25S29.75,38.816,29.75,50   C29.75,61.184,38.816,70.25,50,70.25z M50,33.424c9.141,0,16.576,7.436,16.576,16.576c0,9.141-7.436,16.576-16.576,16.576   S33.424,59.141,33.424,50C33.424,40.86,40.859,33.424,50,33.424z"></path><path d="M48.163,81.086v12.077C48.163,94.178,48.985,95,50,95s1.837-0.822,1.837-1.837V81.086c0-1.013-0.822-1.836-1.837-1.836   S48.163,80.073,48.163,81.086z"></path><path d="M50,20.75c1.015,0,1.837-0.822,1.837-1.837V6.837C51.837,5.822,51.015,5,50,5s-1.837,0.822-1.837,1.837v12.076   C48.163,19.928,48.985,20.75,50,20.75z"></path><path d="M6.837,51.837h12.077c1.014,0,1.836-0.822,1.836-1.837c0-1.014-0.822-1.837-1.836-1.837H6.837C5.822,48.163,5,48.986,5,50   C5,51.015,5.822,51.837,6.837,51.837z"></path><path d="M93.163,48.163H81.086c-1.014,0-1.836,0.823-1.836,1.837c0,1.015,0.822,1.837,1.836,1.837h12.077   C94.178,51.837,95,51.015,95,50C95,48.986,94.178,48.163,93.163,48.163z"></path><path d="M26.72,70.683l-8.54,8.54c-0.717,0.718-0.717,1.88,0,2.598c0.718,0.717,1.88,0.717,2.598,0l8.54-8.54   c0.717-0.717,0.717-1.88,0-2.598C28.6,69.967,27.438,69.967,26.72,70.683z"></path><path d="M73.28,29.317l8.54-8.54c0.717-0.717,0.717-1.88,0-2.597c-0.718-0.717-1.88-0.717-2.598,0l-8.54,8.54   c-0.717,0.717-0.717,1.88,0,2.597C71.4,30.034,72.563,30.034,73.28,29.317z"></path><path d="M26.72,29.316c0.718,0.717,1.88,0.717,2.598,0c0.717-0.717,0.717-1.88,0-2.597l-8.54-8.539   c-0.718-0.717-1.88-0.717-2.598,0c-0.717,0.717-0.717,1.88,0,2.597L26.72,29.316z"></path><path d="M70.683,70.683c-0.717,0.718-0.717,1.88,0,2.598l8.54,8.54c0.718,0.716,1.88,0.716,2.598,0   c0.717-0.718,0.717-1.881,0-2.598l-8.54-8.54C72.563,69.966,71.4,69.966,70.683,70.683z"></path></g></svg>