<svg xmlns:x="http://ns.adobe.com/Extensibility/1.0/" xmlns:i="http://ns.adobe.com/AdobeIllustrator/10.0/" xmlns:graph="http://ns.adobe.com/Graphs/1.0/" xmlns="http://www.w3.org/2000/svg" xmlns:xlink="http://www.w3.org/1999/xlink" version="1.1" x="0px" y="0px" width="100px" height="100px" viewBox="0 0 100 100" enable-background="new 0 0 100 100" xml:space="preserve">
<metadata>
	<sfw xmlns="http://ns.adobe.com/SaveForWeb/1.0/">
		<slices/>
		<sliceSourceBounds height="1780.628" width="870" bottomLeftOrigin="true" x="-192" y="-1744.628"/>
	</sfw>
</metadata>
<g id="Captions">
</g>
<g id="Your_Icon">
	<path fill="#000000" d="M83.038,48.58c-0.261,0-0.536,0.023-0.996,0.121c-1.897,0.69-2.733,2.186-2.261,4.22   c0.578,1.601,1.729,2.483,3.242,2.483c0.257,0,0.527-0.026,0.98-0.123c1.913-0.697,2.731-2.18,2.254-4.336   C85.674,49.42,84.531,48.58,83.038,48.58z M83.464,53.291c-0.662,0.123-1.289,0.166-1.701-0.949   c-0.174-0.762-0.068-1.312,0.816-1.648c0.16-0.03,0.313-0.045,0.459-0.045c0.462,0,0.939,0.125,1.242,0.885   C84.492,52.511,84.226,53,83.464,53.291z"/>
	<path fill="#000000" d="M85.832,43.108c0.467,0,0.962-0.046,1.654-0.189c3.257-1.208,4.618-3.652,3.885-7.24   c-1.339-3.376-3.709-4.085-5.463-4.085c-0.503,0-1.04,0.058-1.747,0.214c-3.259,1.212-4.62,3.652-3.883,7.249   C81.636,42.406,84.046,43.108,85.832,43.108z M84.727,33.791c0.42-0.085,0.816-0.129,1.182-0.129c1.663,0,2.788,0.885,3.487,2.598   c0.48,2.41-0.331,3.867-2.454,4.673c-2.291,0.423-3.839-0.424-4.689-2.469C81.771,36.058,82.581,34.604,84.727,33.791z"/>
	<path fill="#000000" d="M94.845,46.297c-1.128-2.812-3.105-3.402-4.568-3.402c-0.454,0-0.939,0.057-1.562,0.202   c-2.646,0.936-3.847,3.021-3.38,5.875c0.012,0.077,0.034,0.151,0.062,0.225c1.164,2.838,3.244,3.432,4.788,3.432   c0.37,0,0.76-0.032,1.166-0.101c0.072-0.012,0.146-0.032,0.214-0.061C94.293,51.378,95.446,49.309,94.845,46.297z M90.9,50.503   c-1.685,0.263-2.838-0.352-3.543-1.983c-0.261-1.807,0.369-2.879,1.925-3.435c0.355-0.081,0.689-0.121,0.994-0.121   c0.775,0,1.894,0.218,2.592,1.915C93.216,48.667,92.607,49.788,90.9,50.503z"/>
	<path fill="#000000" d="M76.528,52.107l6.028-6.028c0.227-0.227,0.336-0.544,0.295-0.861c-0.04-0.319-0.226-0.598-0.501-0.762   c-4.768-2.804-9.893-4.919-15.23-6.289c-6.039-1.558-12.266-2.348-18.487-2.348c-6.805-0.127-13.481,0.994-19.924,3.364   c-4.639,1.962-8.871,4.713-12.607,8.192c-0.373-0.897-0.81-1.782-1.303-2.641c-1.397-2.423-3.019-2.932-4.129-2.932   c-1.554,0-2.918,0.79-3.94,2.283c-0.775,1.123-1.345,2.331-1.692,3.596c-0.066,0.244-0.043,0.507,0.072,0.735   c0.631,1.265,1.317,2.514,2.049,3.72L5.126,55.86c-0.127,0.234-0.16,0.512-0.089,0.771c0.35,1.267,0.919,2.475,1.688,3.59   c1.022,1.495,2.387,2.285,3.944,2.285c1.119,0,2.747-0.52,4.137-2.992c0.491-0.877,0.928-1.778,1.304-2.686   c3.729,3.423,7.964,6.148,12.635,8.122c6.068,2.293,12.4,3.456,18.82,3.456c0.355,0,0.712-0.004,1.035-0.012l0.775,0.004   c5.974,0,11.941-0.76,17.742-2.255c5.346-1.369,10.471-3.486,15.232-6.291c0.273-0.161,0.459-0.438,0.499-0.753   c0.043-0.313-0.061-0.633-0.282-0.859C80.553,56.17,78.539,54.127,76.528,52.107z M66.603,64.14   c-5.632,1.455-11.429,2.19-17.227,2.19l-0.784-0.004l-1.026,0.012c-6.17,0-12.255-1.119-18.053-3.31   c-4.877-2.061-9.283-5.01-13.098-8.764c-0.196-0.193-0.456-0.297-0.726-0.297c-0.08,0-0.161,0.01-0.24,0.028   c-0.348,0.083-0.626,0.337-0.739,0.677c-0.435,1.293-1.01,2.582-1.707,3.83c-0.497,0.881-1.305,1.934-2.333,1.934   c-0.855,0-1.608-0.467-2.239-1.388c-0.56-0.812-0.989-1.677-1.28-2.576L9.262,52.6c0.178-0.327,0.165-0.723-0.03-1.04   c-0.744-1.194-1.445-2.438-2.087-3.701c0.288-0.905,0.723-1.777,1.288-2.6c0.633-0.922,1.385-1.387,2.237-1.387   c1.028,0,1.838,1.031,2.337,1.896c0.697,1.216,1.269,2.485,1.703,3.773c0.113,0.34,0.394,0.597,0.743,0.679   c0.35,0.079,0.716-0.023,0.968-0.276c3.816-3.816,8.223-6.794,13.047-8.837c5.827-2.144,11.912-3.229,18.084-3.229l1.061,0.011   c6.069,0,12.122,0.768,17.992,2.282c4.72,1.211,9.268,3.026,13.532,5.402l-5.8,5.803c-0.404,0.402-0.404,1.057-0.003,1.461   c1.938,1.943,3.877,3.904,5.818,5.893C75.888,61.109,71.336,62.928,66.603,64.14z"/>
	<path fill="#000000" d="M71.005,47.182c-1.2-2.962-3.331-3.584-4.907-3.584c-0.465,0-0.96,0.055-1.63,0.206   c-2.875,1.087-4.069,3.261-3.406,6.449c1.151,3.034,3.327,3.673,4.951,3.673c0.416,0,0.856-0.041,1.503-0.174   c2.859-1.081,4.088-3.281,3.55-6.36C71.054,47.319,71.033,47.25,71.005,47.182z M66.969,51.764   c-0.336,0.061-0.655,0.093-0.956,0.093c-1.454,0-2.412-0.743-2.97-2.176c-0.408-2.008,0.257-3.225,1.998-3.897   c0.376-0.076,0.731-0.117,1.057-0.117c1.376,0,2.315,0.699,2.95,2.19C69.368,49.881,68.67,51.104,66.969,51.764z"/>
	<path fill="#000000" d="M55.17,62.618c-4.437-2.076-6.733-5.497-7.017-10.342c0.17-4.834,2.295-8.218,6.5-10.35   c0.563-0.284,0.8-0.966,0.533-1.537c-0.263-0.574-0.939-0.832-1.518-0.588c-2.489,1.049-4.628,2.656-6.359,4.78   c-1.784,2.189-2.689,4.766-2.689,7.679c0.066,2.953,1.073,5.563,2.992,7.75c1.853,2.115,4.079,3.715,6.616,4.756   c0.146,0.059,0.295,0.084,0.444,0.084c0.451,0,0.881-0.262,1.073-0.698C56.003,63.568,55.746,62.888,55.17,62.618z"/>
</g>
</svg>
