<svg fill="#000000" xmlns="http://www.w3.org/2000/svg" xmlns:xlink="http://www.w3.org/1999/xlink" viewBox="0 0 60 60" version="1.1" x="0px" y="0px"><title>70 -Sick- (Outline)</title><desc>Created with Sketch.</desc><g stroke="none" stroke-width="1" fill="none" fill-rule="evenodd"><g transform="translate(-1199.000000, -1066.000000)" fill="#000000"><g transform="translate(1199.000000, 1066.000000)"><path d="M9.25742491,30.1584871 C10.2310534,31.9616835 10.2318216,33.3342147 9.36692462,34.3312077 C8.59363904,35.2225974 7.40596096,35.2225974 6.63267538,34.3312077 C5.77308727,33.3403343 5.77396572,31.7055368 6.72481288,30.1872748 L7.99996584,27.9920072 L9.25742491,30.1584871 Z M10.8776754,35.6417923 C12.3537973,33.9402218 12.3525328,31.680844 11.0021169,29.1811873 L8.86517509,25.4985129 C8.47981465,24.8345742 7.52102388,24.8344762 7.13552762,25.498336 L5.01252762,29.154336 C3.64176777,31.3420403 3.64037501,33.9339651 5.12192462,35.6417923 C6.69263904,37.4524026 9.30696096,37.4524026 10.8776754,35.6417923 Z"/><path d="M58,30 C58,45.4637153 45.4637153,58 30,58 C14.5362847,58 2,45.4637153 2,30 C2,14.5362847 14.5362847,2 30,2 C45.4637153,2 58,14.5362847 58,30 Z M60,30 C60,13.4317153 46.5682847,0 30,0 C13.4317153,0 0,13.4317153 0,30 C0,46.5682847 13.4317153,60 30,60 C46.5682847,60 60,46.5682847 60,30 Z"/><path d="M15.6607435,23.9373882 C15.246192,23.5724697 14.6143067,23.6127051 14.2493882,24.0272565 C13.8844697,24.441808 13.9247051,25.0736933 14.3392565,25.4386118 C17.1911854,27.9490884 22.1377061,27.317033 24.7506118,24.3487435 C25.339198,23.6801031 24.8256897,22.6336043 23.9366832,22.6900065 C20.683585,22.8963964 16.1489296,20.3044489 15.9979744,17.9363829 C15.9628396,17.3852169 15.4875489,16.9668909 14.9363829,17.0020256 C14.3852169,17.0371604 13.9668909,17.5124511 14.0020256,18.0636171 C14.1884511,20.988112 17.750988,23.6075795 21.3239087,24.4328855 C19.4192686,25.2977736 17.0910054,25.1964095 15.6607435,23.9373882 Z"/><path d="M45.9979744,18.0636171 C46.0331091,17.5124511 45.6147831,17.0371604 45.0636171,17.0020256 C44.5124511,16.9668909 44.0371604,17.3852169 44.0020256,17.9363829 C43.8510704,20.3044489 39.316415,22.8963964 36.0633168,22.6900065 C35.1743103,22.6336043 34.660802,23.6801031 35.2493882,24.3487435 C37.8622939,27.317033 42.8088146,27.9490884 45.6607435,25.4386118 C46.0752949,25.0736933 46.1155303,24.441808 45.7506118,24.0272565 C45.3856933,23.6127051 44.753808,23.5724697 44.3392565,23.9373882 C42.9089946,25.1964095 40.5807314,25.2977736 38.6760913,24.4328855 C42.249012,23.6075795 45.8115489,20.988112 45.9979744,18.0636171 Z"/><path d="M20,18 C23.3162847,18 26,15.3162847 26,12 C26,11.4477153 25.5522847,11 25,11 C24.4477153,11 24,11.4477153 24,12 C24,14.2117153 22.2117153,16 20,16 C19.4477153,16 19,16.4477153 19,17 C19,17.5522847 19.4477153,18 20,18 Z"/><path d="M40,16 C37.7882847,16 36,14.2117153 36,12 C36,11.4477153 35.5522847,11 35,11 C34.4477153,11 34,11.4477153 34,12 C34,15.3162847 36.6837153,18 40,18 C40.5522847,18 41,17.5522847 41,17 C41,16.4477153 40.5522847,16 40,16 Z"/><path d="M23.4452998,42.8320503 C23.7811992,43.0559832 24.2188008,43.0559832 24.5547002,42.8320503 L27,41.2018504 L29.4452998,42.8320503 C29.7811992,43.0559832 30.2188008,43.0559832 30.5547002,42.8320503 L33,41.2018504 L35.4452998,42.8320503 C35.7811992,43.0559832 36.2188008,43.0559832 36.5547002,42.8320503 L39,41.2018504 L41.4452998,42.8320503 C41.9048285,43.1384028 42.5256978,43.0142289 42.8320503,42.5547002 C43.1384028,42.0951715 43.0142289,41.4743022 42.5547002,41.1679497 L39.5547002,39.1679497 C39.2188008,38.9440168 38.7811992,38.9440168 38.4452998,39.1679497 L36,40.7981496 L33.5547002,39.1679497 C33.2188008,38.9440168 32.7811992,38.9440168 32.4452998,39.1679497 L30,40.7981496 L27.5547002,39.1679497 C27.2188008,38.9440168 26.7811992,38.9440168 26.4452998,39.1679497 L24,40.7981496 L21.5547002,39.1679497 C21.2188008,38.9440168 20.7811992,38.9440168 20.4452998,39.1679497 L17.4452998,41.1679497 C16.9857711,41.4743022 16.8615972,42.0951715 17.1679497,42.5547002 C17.4743022,43.0142289 18.0951715,43.1384028 18.5547002,42.8320503 L21,41.2018504 L23.4452998,42.8320503 Z"/></g></g></g></svg>