<svg xmlns="http://www.w3.org/2000/svg" xmlns:xlink="http://www.w3.org/1999/xlink" viewBox="0 0 72 42" version="1.1" x="0px" y="0px"><title>couch</title><desc>Created with Sketch.</desc><g stroke="none" stroke-width="1" fill="none" fill-rule="evenodd"><g transform="translate(-354.000000, -1034.000000)" fill="#000000"><g transform="translate(354.000000, 1034.000000)"><path d="M6.33273742,14 L9.66726258,14 C12.0571073,14 14,15.9455355 14,18.3344727 L14,35 L2,35 L2,18.3344727 C2,15.941746 3.94192664,14 6.33273742,14 Z M0,18.3344727 L0,35.3364592 C0,36.2647659 0.753124919,37 1.6752491,37 L15,37 C15.5522847,37 16,36.5522847 16,36 L16,18.3344727 C16,14.8415741 13.1622859,12 9.66726258,12 L6.33273742,12 C2.83739879,12 0,14.8371348 0,18.3344727 L0,18.3344727 Z"></path><path d="M57.8262841,40.7582925 C58.1149487,41.4799542 58.8925395,42 59.6743222,42 L63.3256778,42 C64.2508631,42 65,41.2540134 65,40.3256778 L65,36 L63,36 L63,40 L59.6743222,40 C59.7058944,40 57.9284767,35.6286093 57.9284767,35.6286093 C57.7233633,35.1158258 57.1413928,34.8664099 56.6286093,35.0715233 C56.1158258,35.2766367 55.8664099,35.8586072 56.0715233,36.3713907 L57.8262841,40.7582925 Z"></path><path d="M12.3167626,40.0155112 C12.3335078,39.9736482 9,40 9,40 L9,36 L7,36 L7,40.3256778 C7,41.2540134 7.74913693,42 8.67432225,42 L12.3256778,42 C13.1074605,42 13.8850513,41.4799542 14.1737159,40.7582925 L15.9284767,36.3713907 C16.1335901,35.8586072 15.8841742,35.2766367 15.3713907,35.0715233 C14.8586072,34.8664099 14.2766367,35.1158258 14.0715233,35.6286093 L12.3167626,40.0155112 Z"></path><rect transform="translate(8.000000, 20.000000) rotate(90.000000) translate(-8.000000, -20.000000) " x="6" y="19" width="4" height="2" rx="1"></rect><path d="M62.3327374,14 L65.6672626,14 C68.0571073,14 70,15.9455355 70,18.3344727 L70,35 C70,35 58,35.1492915 58,35 L58,18.3344727 C58,15.941746 59.9419266,14 62.3327374,14 Z M56,18.3344727 L56,35.3364592 C56,36.2647659 56.7531249,37 57.6752491,37 L71,37 C71.5522847,37 72,36.5522847 72,36 L72,18.3344727 C72,14.8415741 69.1622859,12 65.6672626,12 L62.3327374,12 C58.8373988,12 56,14.8371348 56,18.3344727 L56,18.3344727 Z"></path><path d="M35.9982809,2.68132543 C37.0724975,1.06444009 38.9112103,0 41.0044356,0 L58.9955644,0 C62.3119953,0 65,2.68589421 65,6.00140231 L65,13 C65,13.5522847 64.5522847,14 64,14 C63.4477153,14 63,13.5522847 63,13 L63,6.00140231 C63,3.79081553 61.2077773,2 58.9955644,2 L41.0044356,2 C38.7862463,2 37,3.78683402 37,5.99903746 L37,26 C37,26.5522847 36.5522847,27 36,27 C35.4477153,27 35,26.5522847 35,26 L35,5.99903746 C35,3.79219304 33.2064761,2 30.9955644,2 L13.0044356,2 C10.7863873,2 9,3.78810071 9,6.00218626 L9,13 C9,13.5522847 8.55228475,14 8,14 C7.44771525,14 7,13.5522847 7,13 L7,6.00218626 C7,2.6839602 9.68138837,0 13.0044356,0 L30.9955644,0 C33.0829777,0 34.922255,1.06543138 35.9982809,2.68132543 L35.9982809,2.68132543 Z"></path><path d="M57,25 L15,25 C14.4477153,25 14,25.4477153 14,26 C14,26.5522847 14.4477153,27 15,27 L57,27 C57.5522847,27 58,26.5522847 58,26 C58,25.4477153 57.5522847,25 57,25 L57,25 Z"></path><rect x="21" y="11" width="4" height="2" rx="1"></rect><rect x="47" y="11" width="4" height="2" rx="1"></rect><rect transform="translate(64.000000, 20.000000) rotate(90.000000) translate(-64.000000, -20.000000) " x="62" y="19" width="4" height="2" rx="1"></rect><path d="M57,35 L15,35 C14.4477153,35 14,35.4477153 14,36 C14,36.5522847 14.4477153,37 15,37 L57,37 C57.5522847,37 58,36.5522847 58,36 C58,35.4477153 57.5522847,35 57,35 L57,35 Z"></path></g></g></g></svg>