<svg xmlns="http://www.w3.org/2000/svg" xmlns:xlink="http://www.w3.org/1999/xlink" version="1.1" id="Layer_1" x="0px" y="0px" width="100px" height="100px" viewBox="0 0 100 100" enable-background="new 0 0 100 100" xml:space="preserve">
<path d="M50,0C22.386,0,0,22.386,0,50s22.386,50,50,50s50-22.386,50-50S77.615,0,50,0z M50,95.625  C24.802,95.625,4.375,75.199,4.375,50S24.802,4.375,50,4.375c25.197,0,45.625,20.427,45.625,45.625S75.198,95.625,50,95.625z"/>
<path d="M50,5.5C25.423,5.5,5.5,25.423,5.5,50c0,24.576,19.923,44.5,44.5,44.5c24.576,0,44.5-19.924,44.5-44.5  C94.5,25.423,74.577,5.5,50,5.5z M52.857,68.944v6.398h-6.148v-5.9c-4.161-0.188-8.199-1.367-10.559-2.671l1.863-7.269  c2.608,1.43,6.272,2.733,10.311,2.733c3.602,0,6.024-1.429,6.024-3.85c0-2.361-1.987-3.852-6.646-5.405  c-6.646-2.235-11.181-5.34-11.181-11.365c0-5.528,3.852-9.813,10.498-11.055V24.66h6.086v5.466c4.1,0.124,6.895,1.056,9.068,2.05  l-1.863,7.018c-1.554-0.745-4.473-2.173-8.943-2.173c-4.039,0-5.344,1.801-5.344,3.54c0,1.987,2.175,3.354,7.517,5.279  c7.391,2.608,10.31,6.023,10.31,11.676C63.85,63.044,60,67.763,52.857,68.944z"/>
</svg>
