<svg xmlns="http://www.w3.org/2000/svg" xmlns:xlink="http://www.w3.org/1999/xlink" version="1.1" x="0px" y="0px" width="100px" height="100px" viewBox="0 0 100 100" enable-background="new 0 0 100 100" xml:space="preserve">
<g id="Captions">
</g>
<g id="Your_Icon">
	<g>
		<path d="M81.461,96H19.867c-1.135,0-2.172-0.64-2.681-1.653l-4.867-9.69C12.109,84.238,12,83.777,12,83.31V7c0-1.657,1.343-3,3-3    h70c1.657,0,3,1.343,3,3v76.31c0,0.351-0.062,0.699-0.182,1.029l-3.539,9.69C83.847,95.213,82.721,96,81.461,96z M21.718,90    h57.645L82,82.779V10H18v72.599L21.718,90z"/>
	</g>
	<g>
		<path d="M75,56H26c-1.657,0-3-1.343-3-3V17c0-1.657,1.343-3,3-3h49c1.657,0,3,1.343,3,3v36C78,54.657,76.657,56,75,56z M29,50h43    V20H29V50z"/>
	</g>
	<g>
		<g>
			<rect x="45" y="68" width="32" height="2"/>
			<path d="M77.5,71h-32c-0.828,0-1.5-0.672-1.5-1.5v-2c0-0.828,0.672-1.5,1.5-1.5h32c0.828,0,1.5,0.672,1.5,1.5v2     C79,70.328,78.328,71,77.5,71z"/>
		</g>
		<g>
			<rect x="67" y="66" width="10" height="5"/>
			<path d="M77.5,72h-10c-0.828,0-1.5-0.672-1.5-1.5v-5c0-0.828,0.672-1.5,1.5-1.5h10c0.828,0,1.5,0.672,1.5,1.5v5     C79,71.328,78.328,72,77.5,72z M69,69h7v-2h-7V69z"/>
		</g>
	</g>
	<g>
		<rect x="24" y="77" width="5" height="3"/>
		<path d="M29.5,81h-5c-0.828,0-1.5-0.672-1.5-1.5v-3c0-0.828,0.672-1.5,1.5-1.5h5c0.828,0,1.5,0.672,1.5,1.5v3    C31,80.328,30.328,81,29.5,81z M26,78h2H26z"/>
	</g>
</g>
</svg>
