<svg xmlns="http://www.w3.org/2000/svg" xmlns:xlink="http://www.w3.org/1999/xlink" version="1.1" x="0px" y="0px" viewBox="0 0 100 100" enable-background="new 0 0 100 100" xml:space="preserve"><g><path d="M91.7,59c-1.3-0.5-2.7,0.1-3.2,1.4c-1.2,3.1-3.6,5.6-6.6,6.9c-3.1,1.3-6.5,1.4-9.6,0.2c-1.3-0.5-2.7,0.1-3.2,1.4   c-0.5,1.3,0.1,2.7,1.4,3.2c2.1,0.8,4.2,1.2,6.4,1.2c2.4,0,4.8-0.5,7-1.5c4.3-1.9,7.6-5.3,9.3-9.6C93.7,60.9,93,59.5,91.7,59z"></path><path d="M77.1,60.5c0.3,0.1,0.6,0.2,1,0.2c0.4,0,0.8-0.1,1.1-0.3c0.7-0.3,1.1-0.9,1.3-1.6c0.8-3,1.2-6.2,1.2-9.4   C81.7,28.8,64.9,12,44.2,12C23.5,12,6.7,28.8,6.7,49.5c0,2.9,0.4,5.8,1,8.7c-0.7,2.4-1,4.8-1,7.4C6.7,77.9,16.8,88,29.2,88   s22.5-10.1,22.5-22.5l0.1-8.4C62.5,57.4,72.7,58.7,77.1,60.5z M11.7,49.5C11.7,31.6,26.3,17,44.2,17s32.5,14.6,32.5,32.5   c0,1.8-0.2,3.7-0.5,5.5c-0.2-0.1-0.5-0.1-0.7-0.2c-3-11.5-14-16.7-23.3-16.7c-3.1,0-6.2,0.5-9,1.5c-2.9-1-5.9-1.5-9-1.5   c-9.3,0-17.5,4.6-22.5,11.7C11.7,49.6,11.7,49.6,11.7,49.5z M46.8,52.6l-0.1,12.9c0,9.6-7.9,17.5-17.5,17.5s-17.5-7.9-17.5-17.5   C11.7,53.1,21.8,43,34.2,43c0.7,0,1.4,0,2.1,0.1c-7,5-11.6,13.2-11.6,22.4c0,1.4,1.1,2.5,2.5,2.5s2.5-1.1,2.5-2.5   C29.7,53.1,39.8,43,52.2,43c5.3,0,14.2,2.3,17.7,10.6c-5.7-0.9-12.4-1.3-18.1-1.4c-0.2-1.1-1.2-2-2.4-2c0,0,0,0,0,0   C47.9,50.2,46.8,51.3,46.8,52.6z"></path></g></svg>