<svg xmlns="http://www.w3.org/2000/svg" xmlns:xlink="http://www.w3.org/1999/xlink" version="1.1" id="Layer_1" x="0px" y="0px" width="100px" height="100px" viewBox="0 0 100 100" enable-background="new 0 0 100 100" xml:space="preserve">
<line x1="20.367" y1="86.339" x2="20.367" y2="86.339"/>
<path d="M38.177,5.947c1.94-1.639,3.885-2.745,5.83-3.389C43.452,2.57,36.85,2.649,34.66,2.981  c-1.414,0.215-4.447,0.922-4.621,0.956c1.908-0.148,7.098-0.142,7.098-0.142c-1.229,0.783-1.426,0.652-2.798,1.529l-9.49,1.082  c-0.395,0.301-1.804,1.562-2.121,1.871l9.074-1.01c-1.086,0.935-2.127,1.972-3.113,3.125l-8.621,0.985  c-0.1,0.135-1.73,2.515-2.188,3.315l8.163-0.838c-0.858,1.298-1.659,2.694-2.419,4.144l-7.816,0.819h-0.002  c-0.542,1.21-1.049,2.475-1.526,3.786l7.495-0.629c-0.65,1.548-1.242,3.157-1.784,4.82l-7.249,0.62  c-0.431,1.549-0.828,3.13-1.173,4.771l7.016-0.486c-0.431,1.743-0.819,3.51-1.134,5.329l-6.847,0.481  c-0.158,1.099-0.585,5.837-0.603,6.101l6.646-0.269c-0.141,1.519-0.258,3.048-0.321,4.586l-6.624,0.211  c-0.018,0.484,0.13,6.848,0.156,7.585h6.559c0.052,1.036,0.08,2.073,0.173,3.109H9.967c0.015,0.16,0.839,6.448,0.943,7.241  l6.78,0.759c0.178,0.974,0.377,1.947,0.599,2.908l-6.906-0.748c-0.004-0.014,1.141,4.633,1.141,4.633  c0.286,1.041,0.629,1.993,0.954,2.969l6.975,0.876c0.201,0.611,0.405,1.227,0.613,1.819l-7.025-0.856  c0.065,0.18,2.649,5.858,3.198,6.84l6.834,0.982c0.195,0.382,0.39,0.78,0.594,1.149l-6.925-1.067c0.154,0.259,3.667,4.9,4.317,5.577  l6.496,1.093c0.299,0.343,0.592,0.685,0.896,0.988l-6.613-1.148c0.139,0.132,1.818,1.603,2.586,2.029  c0.508,0.282,3.484,1.921,4.868,2.202c0.414,0.101,0.833,0.178,1.275,0.213c1.511,0.112,4.963,0.521,7.949,0.848  c-6.188-3.346-11.667-13.553-14.787-28.184C19.472,45.284,25.486,16.629,38.177,5.947L38.177,5.947z"/>
<path d="M44.038,98.311c-1.28-0.14-2.121-0.004-3.381-0.134c-5.89-3.729-11.579-13.996-14.579-28.046  c-5.25-24.68,0.76-53.33,13.45-64.01c1.87-1.58,3.946-2.846,5.816-3.496c1.7-0.05,3.651-0.067,3.891-0.067  c-1.94,0.64-4.597,1.923-6.537,3.563c-12.69,10.68-18.7,39.33-13.45,64.01C32.368,84.761,37.848,94.961,44.038,98.311z"/>
<path d="M68.769,75.837c-4.106,6.062-8.924-0.378-10.767-14.386c-1.821-14.01,0.021-30.306,4.128-36.39  c4.106-6.083,8.924,0.355,10.767,14.365C74.74,53.457,72.875,69.755,68.769,75.837z"/>
<path d="M83.303,33.033c-1.644-9.969-4.573-17.474-8.06-22.202c-0.021-0.023-0.021-0.023-0.021-0.044  c-0.311-0.6-1.754-2.332-1.889-2.442c-1.31-1.333-3.831-3.498-5.208-4.297c-0.199-0.111-16.453-1.498-16.453-1.498  c-2.265,0.555-4.381,1.621-6.423,3.352c-12.7,10.679-18.717,39.342-13.455,64.008c3.175,14.965,8.904,25.246,15.364,28.398  c0.201,0.021,16.006-0.069,21.47-1.6c2.153-0.599,3.772-1.908,4.796-2.976C82.747,83.607,87.188,56.41,83.303,33.033z M53.629,3.736  l11.892,1.181c-1.201-0.088-3.531,0.363-5.062,1.495l-9.127-1.087C52.375,4.414,52.585,4.226,53.629,3.736z M44.982,13.85  l8.903,0.843c-0.711,1.288-1.376,2.665-1.998,4.129l-8.77-0.82C43.694,16.559,44.316,15.159,44.982,13.85z M41.696,21.976  l8.881,0.666c-0.511,1.532-0.977,3.152-1.421,4.818l-8.858-0.666C40.719,25.128,41.186,23.529,41.696,21.976z M39.209,31.7  l9.015,0.511c-0.333,1.731-0.644,3.508-0.888,5.328l-8.991-0.511C38.588,35.208,38.876,33.432,39.209,31.7z M37.745,43.312  l8.97,0.333c-0.112,1.487-0.201,2.975-0.267,4.485L37.5,47.93C37.544,46.375,37.633,44.844,37.745,43.312z M37.567,55.723h8.881  c0.044,1.043,0.066,2.066,0.11,3.106h-8.836C37.633,57.789,37.611,56.766,37.567,55.723z M39.033,69.531  c-0.156-0.819-0.245-1.665-0.378-2.484l8.592-0.732c0.133,0.887,0.222,1.775,0.377,2.662l-8.548,0.755  C39.054,69.666,39.054,69.623,39.033,69.531z M41.274,79.302c-0.155-0.534-0.289-1.089-0.444-1.622l8.237-0.887  c0.133,0.555,0.267,1.11,0.423,1.642L41.274,79.302z M44.094,87.406c-0.133-0.334-0.289-0.689-0.422-1.045l7.926-1.043  c0.133,0.355,0.288,0.732,0.421,1.064L44.094,87.406z M47.891,93.999c-0.155-0.201-0.311-0.422-0.444-0.644l7.462-1.088  c0.178,0.244,0.331,0.489,0.485,0.711L47.891,93.999z M47.003,10.386c0.754-1.154,1.576-2.175,2.398-3.108l9.191,0.955  c-0.267,0.244-0.556,0.511-0.844,0.799c-0.665,0.688-1.31,1.465-1.932,2.31L47.003,10.386z M70.271,82.298  c-5.173,7.639-11.214-0.442-13.521-18.026c-2.312-17.607,0.021-38.056,5.194-45.693c5.149-7.638,11.188,0.444,13.5,18.05  C77.752,54.214,75.421,74.684,70.271,82.298z"/>
</svg>
