<svg xmlns="http://www.w3.org/2000/svg" xmlns:xlink="http://www.w3.org/1999/xlink" version="1.1" x="0px" y="0px" viewBox="0 0 100 100" enable-background="new 0 0 100 100" xml:space="preserve"><g><path d="M95,89.852c-30.438,7.043-60.517,7.043-90,0c0-4.178,0.119-9.07,0.358-14.322c0.239-4.416,0.478-9.072,1.075-13.848   c0.597-4.893,1.432-9.906,2.506-14.801c1.194-4.773,2.507-9.43,4.297-13.844c2.03-5.135,4.537-9.789,7.639-13.848   C27.44,10.475,36.871,4.865,50.239,4.865C92.016,4.865,95,61.801,95,89.852z M55.132,87.346c11.937-0.238,23.993-1.434,36.048-3.82   c0.835-5.49,0-10.861-1.193-16.352c-28.051,6.445-53.953,6.326-81.048,0c-0.716,5.49-0.955,10.861-0.955,16.352   c9.907,1.791,19.933,2.986,29.96,3.582v-0.477v-5.969c0-3.463,2.865-5.492,7.759-5.492h1.551c5.252,0,7.878,1.791,7.878,5.492   v5.969V87.346z M9.775,63.594c25.901,4.773,53.235,5.607,79.973,0c0-5.373,0.12-10.506-2.268-16.355   c-26.737,6.447-49.058,6.328-74.96,0C10.849,52.73,10.372,58.102,9.775,63.594z M13.595,43.182   c21.246,4.775,51.326,6.326,73.289,0.717c-0.956-5.254-2.149-10.504-5.252-15.756c-21.962,6.445-39.151,5.609-62.188-0.598   C16.936,32.797,14.788,37.93,13.595,43.182z M21.473,23.486c18.262,6.684,39.39,6.924,58.01,1.074   c-3.342-5.49-5.013-7.4-10.743-12.055c-10.981,4.775-22.918,4.178-35.928-1.195C27.798,14.414,23.979,18.475,21.473,23.486z    M37.467,9.52c9.668,4.895,18.74,4.418,26.856,0.359c-4.297-1.672-8.713-2.506-13.846-2.627C45.345,7.133,42.361,7.611,37.467,9.52   z"></path></g></svg>