<svg fill="#000000" xmlns="http://www.w3.org/2000/svg" xmlns:xlink="http://www.w3.org/1999/xlink" version="1.1" x="0px" y="0px" viewBox="0 0 100 100" enable-background="new 0 0 100 100" xml:space="preserve"><g display="none"><rect x="-486" y="-735" display="inline" fill="#000000" width="1156" height="1004"/></g><g><g><path d="M55.039,22.437c0-2.354-1.915-4.269-4.269-4.269s-4.269,1.915-4.269,4.269s1.915,4.269,4.269,4.269    S55.039,24.791,55.039,22.437z M50.77,24.506c-1.141,0-2.069-0.929-2.069-2.069s0.928-2.069,2.069-2.069s2.069,0.929,2.069,2.069    S51.911,24.506,50.77,24.506z"/><g><path d="M95.847,70.318c0-4.276-3.466-7.741-7.741-7.741c-4.275,0-7.741,3.466-7.741,7.741c0,3.901,2.888,7.119,6.641,7.654     v7.734h-4.253v-4.147h-4.147V58.981c1.893-0.556,3.407-1.986,4.05-3.876l0.344-1.971V44.84v-7.514H55.365     c7.156-1.233,12.552-6.505,12.552-12.806c0-0.185-0.008-0.367-0.017-0.551l-0.049-1.048h-2.825     c-0.828-6.296-6.452-11.151-13.577-11.473c-0.219-0.008-0.447-0.016-0.676-0.016c-5.894,0-11.052,3.189-13.26,8.053l-5.967-3.393     V32.79l6.067-3.242c1.994,3.986,6.275,6.904,11.376,7.779H18.591l-0.247,13.82h-4.335v1.79l0,0c0,2.062-1.855,3.739-3.917,3.739     s-3.738-1.678-3.738-3.739h-2.2c0,3.274,2.664,5.938,5.938,5.938c3.136,0,5.706-2.446,5.918-5.529h2.334l0.247,0.126l0,0     l0.34,1.633l0,0c0.584,1.723,1.89,3.088,3.56,3.734v22.72h-4.147v4.147H8.385v2.199h12.159v-4.147h4.147V59.251     c0.006,0,0.012,0.002,0.018,0.002c2.209,0,4.138-1.177,5.215-2.961c1.075,1.78,3.007,2.961,5.22,2.961     c2.21,0,4.141-1.179,5.217-2.966c1.072,1.783,3.001,2.966,5.21,2.966c2.213,0,4.145-1.181,5.221-2.971     c1.072,1.786,3.003,2.971,5.214,2.971s4.142-1.18,5.218-2.967c1.074,1.784,3.008,2.967,5.223,2.967     c2.209,0,4.138-1.177,5.215-2.961c0.996,1.649,2.732,2.76,4.744,2.917v24.55h4.147v4.147h12.16v-2.199h-3.506v-7.734     C92.958,77.437,95.847,74.219,95.847,70.318z M39.167,27.632L39.167,27.632l-0.536-1.111l-1.061,0.555l-3.824,2.043v-9.244     l3.831,2.178l0.047,0.023l1.007,0.36l0.515-0.972c1.609-4.437,6.555-7.578,12.261-7.816l0-0.001     c5.881,0.267,10.576,4.173,11.399,9.274h-5.101v2.199h7.991c-0.39,5.721-6.313,10.279-13.537,10.279     c-0.224,0-0.447-0.008-0.707-0.016C45.736,35.147,40.798,32.032,39.167,27.632z M20.791,39.526h60.008v5.314     c0,0.147-0.012,0.295-0.022,0.411c-0.208,2-1.884,3.508-3.896,3.508c-1.979,0-3.691-1.541-3.895-3.483     c-0.011-0.138-0.023-0.287-0.023-0.436h-0.398h-1.802h-0.398c0,0.148-0.012,0.298-0.021,0.411c-0.208,2-1.884,3.508-3.896,3.508     c-1.979,0-3.691-1.541-3.894-3.483c-0.011-0.138-0.024-0.287-0.024-0.436h-0.405h-1.795h-0.405c0,0.148-0.013,0.298-0.022,0.411     c-0.208,2-1.884,3.508-3.896,3.508c-2.005,0-3.674-1.508-3.881-3.483c-0.011-0.138-0.023-0.287-0.023-0.436h-0.412h-1.788h-0.412     c0,0.148-0.012,0.298-0.021,0.411c-0.208,2-1.884,3.508-3.896,3.508c-2.004,0-3.674-1.508-3.88-3.483     c-0.011-0.138-0.024-0.287-0.024-0.436h-0.405h-1.795h-0.405c0,0.148-0.013,0.298-0.022,0.411     c-0.205,1.967-1.917,3.508-3.896,3.508c-2.013,0-3.688-1.508-3.895-3.483c-0.011-0.138-0.023-0.287-0.023-0.436h-0.398h-1.802     h-0.398c0,0.148-0.012,0.298-0.021,0.411c-0.205,1.967-1.917,3.508-3.896,3.508c-2.012,0-3.688-1.508-3.894-3.487     c-0.012-0.137-0.024-0.284-0.024-0.432V39.526z M72.986,53.569c-0.011-0.137-0.023-0.286-0.023-0.434c0,0,0,0,0,0h-0.398h-1.802     h-0.398c0,0,0,0,0,0c0,0.148-0.012,0.298-0.021,0.411c-0.208,2-1.884,3.508-3.896,3.508c-1.979,0-3.691-1.541-3.894-3.484     c-0.011-0.137-0.024-0.286-0.024-0.434c0,0,0,0,0,0h-0.405h-1.795h-0.405c0,0,0,0,0,0c0,0.148-0.013,0.298-0.022,0.411     c-0.208,2-1.883,3.508-3.896,3.508c-2.005,0-3.674-1.508-3.881-3.484c-0.011-0.137-0.023-0.286-0.023-0.434c0,0,0,0,0,0h-0.412     h-1.788h-0.412c0,0,0,0,0,0c0,0.148-0.012,0.298-0.021,0.411c-0.208,2-1.884,3.508-3.896,3.508c-2.005,0-3.674-1.508-3.88-3.484     c-0.011-0.137-0.024-0.286-0.024-0.434c0,0,0,0,0,0h-0.405h-1.795h-0.405c0,0,0,0,0,0c0,0.148-0.013,0.298-0.022,0.411     c-0.205,1.967-1.917,3.508-3.896,3.508c-2.013,0-3.688-1.508-3.895-3.484c-0.011-0.137-0.023-0.286-0.023-0.434c0,0,0,0,0,0     h-0.398h-1.802h-0.398c0,0,0,0,0,0c0,0.148-0.012,0.298-0.021,0.411c-0.205,1.967-1.917,3.508-3.896,3.508     c-2.013,0-3.688-1.508-3.894-3.487c-0.012-0.136-0.024-0.284-0.024-0.431c0,0,0,0,0,0v-3.609c1.065,0.89,2.427,1.433,3.918,1.433     c2.208,0,4.138-1.177,5.215-2.961c1.075,1.78,3.008,2.961,5.22,2.961c2.21,0,4.141-1.179,5.217-2.966     c1.072,1.783,3.001,2.966,5.21,2.966c2.213,0,4.145-1.181,5.221-2.971c1.072,1.786,3.003,2.971,5.214,2.971     c2.211,0,4.142-1.18,5.218-2.967c1.074,1.784,3.008,2.967,5.223,2.967c2.208,0,4.138-1.177,5.215-2.961     c1.075,1.78,3.008,2.961,5.22,2.961c1.49,0,2.852-0.542,3.918-1.435v3.611c0,0,0,0,0,0c0,0.147-0.012,0.296-0.022,0.411     c-0.208,2-1.883,3.508-3.896,3.508C74.901,57.053,73.189,55.512,72.986,53.569z M88.105,75.859c-3.056,0-5.541-2.486-5.541-5.541     s2.486-5.541,5.541-5.541s5.541,2.486,5.541,5.541S91.161,75.859,88.105,75.859z"/></g><path d="M88.105,68.754c-0.876,0-1.589,0.713-1.589,1.589c0,0.876,0.713,1.588,1.589,1.588s1.589-0.713,1.589-1.588    C89.694,69.467,88.981,68.754,88.105,68.754z"/><path d="M73.169,62.206H57.145v26.077h16.024V62.206z M70.969,86.084H59.346V64.405h11.624V86.084z"/><path d="M68.928,66.115h-7.54v8.193h7.54V66.115z M66.728,72.108h-3.14v-3.793h3.14V72.108z"/><path d="M52.716,63.306H28.14v19.354h24.576V63.306z M50.516,80.459H30.34V65.506h20.176V80.459z"/><rect x="35.027" y="67.453" transform="matrix(0.5999 0.8001 -0.8001 0.5999 71.1905 -0.5318)" width="2.199" height="6.912"/><rect x="34.745" y="71.883" transform="matrix(-0.8 0.6 -0.6 -0.8 118.7701 106.3778)" width="13.824" height="2.2"/><rect x="27.833" y="85.801" width="2.765" height="2.765"/><rect x="49.951" y="85.801" width="2.765" height="2.765"/><rect x="35.205" y="85.801" width="2.765" height="2.765"/><rect x="42.578" y="85.801" width="2.765" height="2.765"/><path d="M10.092,60.541l-4.147,4.147c0,0,3.686,0.14,6.144,0.14c1.229,0,2.15-0.035,2.15-0.14L10.092,60.541z"/><polygon points="6.501,75.398 8.153,76.851 10.092,74.647 12.031,76.851 13.683,75.398 11.192,72.567 11.192,70.485     12.079,71.373 13.635,69.816 11.192,67.374 11.192,66.07 8.992,66.07 8.992,67.374 6.549,69.817 8.105,71.372 8.992,70.485     8.992,72.567   "/><rect x="60.739" y="77.81" width="2.237" height="2.027"/></g></g></svg>