<svg xmlns="http://www.w3.org/2000/svg" xmlns:xlink="http://www.w3.org/1999/xlink" version="1.1" x="0px" y="0px" viewBox="0 0 100 100" enable-background="new 0 0 100 100" xml:space="preserve"><g><path fill="#000000" d="M81.636,17.667H19.097c-9.429,0-17.1,7.275-17.1,16.218v32.232c0,8.942,7.671,16.218,17.1,16.218h62.539   c9.429,0,17.1-7.275,17.1-16.218V33.884C98.735,24.941,91.064,17.667,81.636,17.667z M50.366,57.623   c-4.203,0-7.623-3.42-7.623-7.623c0-4.204,3.42-7.623,7.623-7.623s7.623,3.419,7.623,7.623   C57.989,54.203,54.569,57.623,50.366,57.623z M49.118,39.832C44.053,40.451,40.114,44.77,40.114,50   c0,5.229,3.938,9.55,9.003,10.169v19.536H37.749v-59.41h11.369V39.832z M51.747,60.147c5.001-0.678,8.871-4.964,8.871-10.147   c0-5.184-3.87-9.47-8.871-10.148V20.295h11.368v59.41H51.747V60.147z M4.626,66.116V33.884c0-5.654,3.696-10.51,8.938-12.555v57.34   C8.322,76.626,4.626,71.77,4.626,66.116z M16.192,79.43V58.508c1.632-0.217,2.892-1.61,2.892-3.302V44.794   c0-1.691-1.26-3.085-2.892-3.302V20.57c0.938-0.181,1.91-0.275,2.904-0.275H35.12v59.41H19.097   C18.102,79.705,17.131,79.61,16.192,79.43z M65.744,79.705v-59.41h15.892c0.629,0,1.246,0.042,1.853,0.115v21.058   c-1.763,0.089-3.165,1.541-3.165,3.326v10.411c0,1.785,1.402,3.237,3.165,3.326V79.59c-0.606,0.073-1.224,0.115-1.853,0.115H65.744   z M96.106,66.116c0,6.024-4.196,11.143-9.989,12.919v-58.07c5.793,1.776,9.989,6.894,9.989,12.919V66.116z"></path><path fill="#000000" d="M25.185,40.927c3.957,0,7.176-3.219,7.176-7.175s-3.219-7.175-7.176-7.175   c-3.956,0-7.175,3.218-7.175,7.175S21.229,40.927,25.185,40.927z M25.185,29.205c2.507,0,4.546,2.04,4.546,4.546   s-2.04,4.546-4.546,4.546s-4.546-2.04-4.546-4.546S22.678,29.205,25.185,29.205z"></path><path fill="#000000" d="M25.71,61.275c-3.956,0-7.175,3.22-7.175,7.176s3.219,7.176,7.175,7.176c3.957,0,7.175-3.22,7.175-7.176   S29.667,61.275,25.71,61.275z M25.71,72.998c-2.507,0-4.546-2.04-4.546-4.547s2.04-4.547,4.546-4.547s4.546,2.04,4.546,4.547   S28.217,72.998,25.71,72.998z"></path><circle fill="#000000" cx="25.71" cy="68.451" r="1.071"></circle><circle fill="#000000" cx="25.185" cy="33.751" r="1.071"></circle><circle fill="#000000" cx="74.464" cy="68.046" r="1.071"></circle><circle fill="#000000" cx="50.366" cy="50" r="1.599"></circle><circle fill="#000000" cx="74.464" cy="33.346" r="1.071"></circle><path fill="#000000" d="M74.464,40.521c3.956,0,7.174-3.219,7.174-7.175c0-3.957-3.218-7.175-7.174-7.175   c-3.957,0-7.176,3.219-7.176,7.175C67.288,37.303,70.507,40.521,74.464,40.521z M74.464,28.8c2.506,0,4.545,2.039,4.545,4.546   c0,2.507-2.039,4.546-4.545,4.546c-2.508,0-4.547-2.04-4.547-4.546C69.917,30.839,71.956,28.8,74.464,28.8z"></path><path fill="#000000" d="M74.464,60.871c-3.957,0-7.176,3.219-7.176,7.175s3.219,7.176,7.176,7.176c3.956,0,7.174-3.22,7.174-7.176   S78.42,60.871,74.464,60.871z M74.464,72.593c-2.508,0-4.547-2.039-4.547-4.547c0-2.507,2.039-4.547,4.547-4.547   c2.506,0,4.545,2.04,4.545,4.547C79.009,70.554,76.97,72.593,74.464,72.593z"></path></g></svg>