<svg fill="#000000" xmlns="http://www.w3.org/2000/svg" viewBox="0 0 60 60" x="0px" y="0px"><title>Bathroom Objects - Outline - 019 - Hair Gel</title><g data-name="01-Toilet Front"><path d="M19,59a1,1,0,0,0,1,1H42a1,1,0,0,0,1-1V49l4-48A1,1,0,0,0,46,0H16a1,1,0,0,0-1,1.08L19,49Zm2-9H41v4H21Zm0,8V56H41v2ZM44.66,5H42V2h2.91ZM22,5V2h2V5Zm4-3h2V5H26Zm4,0h2V5H30Zm4,0h2V5H34Zm4,0h2V5H38ZM20,2V5H17.34l-.25-3ZM17.5,7h27L41.08,48H20.92Z"/><path d="M23,37H39a1,1,0,0,0,1-.91l2-22A1,1,0,0,0,41,13H21a1,1,0,0,0-1,1.09l2,22A1,1,0,0,0,23,37ZM39.91,15,38.09,35H23.91L22.09,15Z"/></g></svg>