<svg fill="#000000" xmlns="http://www.w3.org/2000/svg" xmlns:xlink="http://www.w3.org/1999/xlink" version="1.1" x="0px" y="0px" viewBox="0 0 100 100" style="enable-background:new 0 0 100 100;" xml:space="preserve"><g><path d="M73.444,70.291c-2.134-0.83-4.638-1.547-7.59-2.169c1.89-0.419,3.567-1.007,4.985-1.758   c3.395-1.797,5.261-4.462,5.397-7.705c0.144-3.263-1.415-6.922-4.274-10.04c-2.246-2.449-5.141-4.438-8.466-5.88   c4.903-0.377,10.04-1.813,11.13-6.747c0.602-2.616-0.189-5.538-2.227-8.229c-2.803-3.701-7.442-6.418-12.969-7.718   c0.31-0.088,0.61-0.179,0.896-0.274c3.673-1.232,5.504-3.259,5.442-6.01c-0.053-4.703-6.344-9.779-16.414-9.779   c-0.525,0-1.061,0.015-1.599,0.044c-7.002,0.423-12.923,2.734-15.452,6.033c-1.181,1.54-1.617,3.272-1.26,5.012   c0.487,2.335,2.159,4.04,4.969,5.068c0.524,0.192,1.096,0.361,1.71,0.511c-6.167,1.719-9.729,4.866-9.963,9.108   c-0.11,2.2,0.759,5.387,5.523,8.073c1.617,0.912,3.564,1.704,5.824,2.375c-4.147,0.271-7.558,0.812-10.317,1.634   c-5.096,1.52-7.955,4.059-8.495,7.544c-1.021,6.403,7.045,12.877,19.967,16.671c-13.409,1.071-22.698,6.289-22.729,13.185   c-0.068,7.724,10.535,13.063,32.418,16.326c2.042,0.299,4.11,0.451,6.143,0.451c6.857,0,13.434-1.714,18.517-4.826   c4.92-3.014,7.782-6.941,7.852-10.771C82.558,76.06,79.522,72.652,73.444,70.291z M33.291,14.607   c-0.222-1.081,0.059-2.142,0.834-3.153c2.104-2.744,7.509-4.761,13.764-5.139c0.49-0.026,0.983-0.04,1.467-0.04   c8.272,0,14.082,3.959,14.122,7.525c0.073,3.263-4.827,4.961-15.406,5.345c-0.607,0.014-1.2,0.021-1.764,0.021c0,0-0.001,0-0.001,0   C38.076,19.166,33.939,17.716,33.291,14.607z M30.051,29.879c0.343-6.209,10.804-8.422,20.479-8.422   c0.959,0,1.946,0.021,2.927,0.062c7.372,0.359,13.771,3.211,17.117,7.63c1.62,2.139,2.267,4.388,1.817,6.34   c-0.766,3.466-4.716,5.081-12.432,5.08c-1.589,0-3.326-0.067-5.281-0.207c-0.987-0.125-1.99-0.21-3.007-0.254   c-0.003,0-0.007,0-0.01,0c-0.867-0.083-1.772-0.178-2.726-0.284C36.874,38.339,29.814,34.619,30.051,29.879z M22.561,49.74   c0.766-4.941,8.647-7.447,23.425-7.447c1.734,0,3.597,0.035,5.529,0.104c1.036,0.099,2.016,0.182,2.947,0.248   c6.464,0.832,12.12,3.501,15.811,7.524c2.451,2.673,3.79,5.73,3.674,8.392c-0.209,4.953-6.224,8.03-15.697,8.03   c-0.001,0-0.001,0-0.002,0c-0.979,0-1.986-0.035-3.015-0.101c-1.152-0.129-2.35-0.25-3.595-0.365   c-0.083-0.008-0.166-0.013-0.249-0.02c-0.64-0.085-1.285-0.18-1.937-0.288C33.376,63.058,21.563,55.998,22.561,49.74z    M73.414,89.236c-4.727,2.895-10.877,4.488-17.318,4.488c-1.923,0-3.878-0.144-5.808-0.427c-9.511-1.418-16.906-3.246-21.98-5.434   c-5.656-2.438-8.509-5.333-8.48-8.608c0.013-2.933,2.505-5.68,7.017-7.734c4.778-2.178,11.388-3.376,18.614-3.376   c1.868,0,3.782,0.083,5.689,0.241c1.312,0.174,2.598,0.304,3.853,0.387c17.278,1.947,25.3,5.659,25.171,11.601   C80.117,83.365,77.591,86.679,73.414,89.236z"/></g></svg>