<svg fill="#000000" xmlns="http://www.w3.org/2000/svg" data-name="Layer 1" viewBox="0 0 90 44.91" x="0px" y="0px"><title>19</title><path d="M16,29.92a2.51,2.51,0,1,0,2.51,2.51A2.51,2.51,0,0,0,16,29.92Zm0,3.87a1.36,1.36,0,1,1,1.36-1.36A1.36,1.36,0,0,1,16,33.78Z" transform="translate(-5 -27.54)"/><path d="M95,50.83c-.32-1.43-3.72-2.07-5.3-1.84a15.06,15.06,0,0,0-3,1c-2.78,1.12-7,2.81-11.83,2.35-7.31-.7-15-1.7-21.36-4.33-2.3-.94-5.05-2-7.72-2.94-4.86-1.79-9.88-3.64-11.68-4.91-2.82-2-8.34-6.5-9.81-8.3l-.06-.06c-.17-.15-4.09-3.69-8-3.51a11.49,11.49,0,0,0-1.71.23,2.74,2.74,0,0,0-1.36-.87,2.58,2.58,0,0,0-2,.25,3.41,3.41,0,0,0-1.57,2.18c-1.86.74-3.24,1.43-3.3,1.46l-.12.08c-.66.58-1.66,2-.76,3.29.15.21.28.42.4.62a3.37,3.37,0,0,0,3.43,2,11.54,11.54,0,0,1,5.46.95c.5.25,1.61,2.08,2.59,3.69,1.67,2.75,3.68,6.06,5.87,7.72a35.21,35.21,0,0,0-1.38,9.29c.09,2.16-.76,2.35-2,2.64a4.63,4.63,0,0,0-1.93.75c-.3.23-1.09.85-.85,1.55s1,.66,1.2.66l.16,0,.63-.18c-.61,1-.43,1.84,0,2.23a1.26,1.26,0,0,0,1.79-.38,8.33,8.33,0,0,1,3.08-2,9.4,9.4,0,0,1,.7.94c.69,1,1.15,1.61,1.69,1.74l.23,0a1.24,1.24,0,0,0,1.08-.88A1.92,1.92,0,0,0,27,63.86a4.25,4.25,0,0,1-.86-2.19A20.36,20.36,0,0,0,28,56.87a41,41,0,0,0,.24-4.29c2.9,1.62,5.25,3.28,5.72,4.14A61.31,61.31,0,0,1,36.1,63a30.29,30.29,0,0,0,1.18,3.47,2.53,2.53,0,0,1-1.85,1.69c-1.73.52-1.88,1.49-1.88,1.78a1,1,0,0,0,.69,1,1,1,0,0,0,.33,0,7.49,7.49,0,0,0,1.8-.41,9.49,9.49,0,0,1,1.93-.45,23.49,23.49,0,0,0,2.87-.3c.57.45,1.62,1.14,2.38.92a1,1,0,0,0,.68-.67c.37-1.12-1.09-2.94-1.78-3.73A13.24,13.24,0,0,0,42,62l-.13-.62c-.11-.51-.23-1.09-.38-1.7,2.58.41,11.34,1.74,15.88,1.62a37.42,37.42,0,0,0,2.27,3.11,1.08,1.08,0,0,1-1.34-.19,3.92,3.92,0,0,0-4.25-.07,1.84,1.84,0,0,0-1.07,2,1.29,1.29,0,0,0,.71,1c.51.19,1-.16,1.36-.46a2.2,2.2,0,0,1,.78-.46c.18,0,.37.08.72.31l.25.16a4.64,4.64,0,0,0-2.26,2.42,1.81,1.81,0,0,0-.14,1.73,1.18,1.18,0,0,0,1.23.43,2.89,2.89,0,0,0,1.53-.85A5.44,5.44,0,0,1,61.16,69c.19.4.37,1,.18,1.31a1.35,1.35,0,0,0,.2,1.5,1.65,1.65,0,0,0,1.29.68,1.35,1.35,0,0,0,.37-.05c.93-.26,1.51-1.41,1.73-3.4a2.89,2.89,0,0,1,2-1.59,1.53,1.53,0,0,0,1-.92C68.46,65,67,62,66.53,61c2.19.11,8,.23,11.34-1.17,1.68-.7,3.89-1.84,6.24-3a68.17,68.17,0,0,1,9-4.17C94.52,52.2,95.14,51.59,95,50.83ZM11.7,28.88a1.45,1.45,0,0,1,1.14-.13,1.68,1.68,0,0,1,.34.14L11,29.6A2.71,2.71,0,0,1,11.7,28.88ZM26.83,56.61A18.27,18.27,0,0,1,25.2,61a.57.57,0,0,0-.26.57c.06.44.43,2.66,1.45,3.27.13.08.16.33.16.4a1.29,1.29,0,0,1-.15.67,9.48,9.48,0,0,1-.94-1.22c-.58-.82-.89-1.26-1.29-1.39-.92-.31-3.54,1.43-4.32,2.36a.76.76,0,0,1-.19.17,1.53,1.53,0,0,1,.41-1A3.55,3.55,0,0,1,21,64a.57.57,0,0,0-.42-1.05c-.62.14-1.34.33-2.15.55l.06,0a3.74,3.74,0,0,1,1.48-.54c1.3-.29,3.08-.69,2.95-3.81a33.56,33.56,0,0,1,1.25-8.6l.12.06c.94.43,1.88.9,2.79,1.38C27.06,52.64,27,56.1,26.83,56.61Zm40,9.46a.38.38,0,0,1-.26.25,3.88,3.88,0,0,0-2.73,2.42.57.57,0,0,0,0,.08c-.19,1.87-.69,2.5-1,2.48a.71.71,0,0,1-.48-.44c.67-1.11-.24-2.62-.34-2.79a.57.57,0,0,0-.49-.27,6.72,6.72,0,0,0-5,1.78c-.4.35-.65.55-.92.58h-.11a1.8,1.8,0,0,1,.18-.51l0-.06a3.77,3.77,0,0,1,3.16-2.3.57.57,0,0,0-.05-1.14,2.86,2.86,0,0,1-1.53-.57,2.11,2.11,0,0,0-1.53-.47,3,3,0,0,0-1.29.68l-.23.17,0-.07c-.07-.34.35-.63.53-.74a2.84,2.84,0,0,1,2.9-.05,2.3,2.3,0,0,0,3.33-.22.57.57,0,0,0,0-.75c-1.35-1.59-4.8-6.17-4.52-8.25a.88.88,0,0,1,.37-.66l.11-.1c.06-.06,1.39-1.51,4.24.9a15.42,15.42,0,0,1,4.21,5.16l0,.06C66.17,62.72,67.14,65.18,66.79,66.08Zm26-14.55a68.55,68.55,0,0,0-9.2,4.25c-2.32,1.2-4.52,2.32-6.16,3-3.56,1.48-10.4,1.12-11.51,1a18.6,18.6,0,0,0-4-4.65,5.59,5.59,0,0,0-4-1.66,2.87,2.87,0,0,0-1.82.82,2,2,0,0,0-.8,1.41c-.16,1.22.53,2.88,1.44,4.46-5,0-14.07-1.46-15.51-1.69a20.18,20.18,0,0,0-7.44-10.59.57.57,0,0,0-.7.91,19.8,19.8,0,0,1,7.73,12.84l.14.63a10.66,10.66,0,0,1,.34,4.11.57.57,0,0,0,.14.53,6.81,6.81,0,0,1,1.74,2.72,4.5,4.5,0,0,1-1.45-.86.58.58,0,0,0-.46-.12,25.74,25.74,0,0,1-2.93.33,9.45,9.45,0,0,0-2.25.5c-.39.12-.94.28-1.26.34a1.93,1.93,0,0,1,1-.55,3.94,3.94,0,0,0,2.56-2.21,1.3,1.3,0,0,0,0-1.16c-.13-.24-.63-1.83-1.07-3.23a57.19,57.19,0,0,0-2.28-6.51c-1-1.82-6.57-5-10.19-6.63-2.31-1.06-4.74-5.06-6.51-8-1.44-2.38-2.3-3.74-3.06-4.13a12.51,12.51,0,0,0-6-1.07,2.29,2.29,0,0,1-2.45-1.42c-.14-.22-.28-.45-.45-.69-.46-.65.33-1.5.54-1.71s1.75-.84,3.48-1.52l4.09-1.3a11.12,11.12,0,0,1,1.88-.28c3.26-.13,6.78,2.88,7.13,3.19,1.62,2,7.17,6.47,10,8.48,1.92,1.36,6.79,3.15,11.94,5,2.65,1,5.4,2,7.68,2.92,6.55,2.69,14.3,3.71,21.69,4.41,5.12.49,9.49-1.27,12.37-2.43a15,15,0,0,1,2.73-.94,6.17,6.17,0,0,1,4,.92A2.58,2.58,0,0,1,92.78,51.52Z" transform="translate(-5 -27.54)"/><path d="M14.72,32.48A1.73,1.73,0,0,0,16,33a2.09,2.09,0,0,0,1.33-.51,1.81,1.81,0,0,0-1.39-.75A1.65,1.65,0,0,0,14.72,32.48Z" transform="translate(-5 -27.54)"/></svg>