<svg fill="#000000" xmlns="http://www.w3.org/2000/svg" xmlns:xlink="http://www.w3.org/1999/xlink" version="1.1" x="0px" y="0px" viewBox="0 0 512 512" enable-background="new 0 0 512 512" xml:space="preserve"><g><path d="M393.6,219.1l44.5-32.3l44.5,32.3l-17-52.3l44.5-32.3h-55l-17-52.3l-17,52.3h-55l44.5,32.3L393.6,219.1z M433,151l5-15.5   l5,15.5h16.3l-13.2,9.6l5,15.5l-13.2-9.6l-13.2,9.6l5-15.5l-13.2-9.6H433z"/><path d="M333.6,166.7c0-34.7,27.3-73.9,27.3-73.9l-23.1,9.8c-44.2,18.7-72.7,61.7-72.7,109.6c0,3.9,0.2,7.9,0.7,11.9   c-0.2,0-0.3,0-0.5,0c-8.8,0-17.4,1.4-25.8,4.2c-19.9-18.6-45.6-28.8-73-28.8c-56.4,0-102.7,43.8-106.7,99.2   C27.3,302.5,2,330.3,2,363.9c0,36.3,29.5,65.8,65.8,65.8h279.7c36.3,0,65.8-29.5,65.8-65.8c0-12.6-3.6-24.4-9.8-34.4   c34.3-5.7,64.5-26.1,82.7-56.6l12.8-21.5c0,0-31.8,17.8-63,17.8C379.6,269.2,333.6,223.2,333.6,166.7z M347.6,413.3H67.8   c-27.2,0-49.4-22.1-49.4-49.4c0-27.2,22.1-49.4,49.4-49.4H76v-8.2c0-49.9,40.6-90.5,90.5-90.5c45.3,0,68.9,31.6,68.9,31.6   s15.1-6.9,29.9-6.9c36.3,0,65.8,29.5,65.8,65.8v8.2h16.5c27.2,0,49.4,22.1,49.4,49.4C396.9,391.2,374.8,413.3,347.6,413.3z    M390.9,314.5c-26.9-20.4-43.8-16.4-43.8-16.4c-3.6-35.3-29.8-64.7-64.6-72.2c-0.6-4.6-8.5-59.1,40.6-96.2   c-3.9,11.9-5.9,24.3-5.9,36.9c0,65.6,53.4,119,119,119c7.2,0,14.3-0.6,21.3-1.9C439.9,301.7,416.4,312.8,390.9,314.5z"/><path d="M92.5,306.3H109c0-31.8,25.8-57.6,57.6-57.6v-16.5C125.7,232.3,92.5,265.5,92.5,306.3z"/></g></svg>