<svg xmlns="http://www.w3.org/2000/svg" xmlns:xlink="http://www.w3.org/1999/xlink" version="1.1" x="0px" y="0px" viewBox="0 0 64.696 65.721" style="enable-background:new 0 0 64.696 65.721;" xml:space="preserve"><g><path d="M26.288,65.142c0.126,0.037,0.254,0.06,0.382,0.069c1.847,0.329,3.741,0.51,5.68,0.51c12.233,0,22.898-6.826,28.396-16.868   c0.086-0.129,0.158-0.264,0.213-0.406c2.384-4.504,3.738-9.634,3.738-15.073c0-17.839-14.51-32.349-32.347-32.349   c-5.663,0-10.987,1.466-15.624,4.033c0.011-1.47,0.227-2.463,0.25-2.567c0.209-0.88-0.193-1.792-0.984-2.233   s-1.776-0.303-2.417,0.336L3.468,10.698c-0.639,0.641-0.777,1.629-0.335,2.419c0.439,0.789,1.35,1.192,2.233,0.983   c0.017-0.006,0.441-0.1,1.146-0.169C2.428,19.347,0,26.081,0,33.373C0,49.138,11.339,62.297,26.288,65.142z M4.05,33.373   c0-7.36,2.827-14.072,7.447-19.111c2.022,0.482,4.262,1.485,6.24,3.464l0.492,0.492c-0.627,0.874-1.237,2.016-1.725,3.516   c-3.232,4.991-10.31,16.389-9.962,19.985c0.347,3.628,5.129,5.946,7.654,6.924c0.437,3.571,1.892,6.583,3.64,9.013   C9.585,52.706,4.05,43.676,4.05,33.373z M32.35,61.673c-1.639,0-3.241-0.148-4.805-0.418c-2.099-1.302-9.056-6.21-9.418-14.174   c-0.039-0.846-0.601-1.579-1.409-1.837c-3.058-0.975-6.047-2.876-6.143-3.884c-0.007-1.464,3.615-8.63,9.475-17.653   c0.104-0.158,0.185-0.33,0.238-0.511c0.42-1.371,1.544-3.508,2.479-3.793c0.251-0.077,0.604,0.069,1.051,0.436   c2.557,2.08,2.209,2.624,1.449,3.814c-0.086,0.137-0.173,0.27-0.255,0.402c-0.361,0.203-1.539,0.248-2.442,0.09   c-0.568-0.104-1.152,0.04-1.607,0.395c-0.455,0.354-0.736,0.887-0.775,1.461c-0.005,0.068-0.483,6.778-2.746,10.383   c-0.391,0.623-0.412,1.411-0.057,2.057c0.357,0.644,1.035,1.043,1.771,1.043h16.219c0.829,0,1.576-0.506,1.883-1.275   c0.305-0.772,0.109-1.652-0.494-2.223c-1.408-1.324-2.813-3.553-2.446-4.33c0.863-1.838,1.798-3.385,2.253-4.108   c1.117-0.573,3.673-2.018,5.812-4.239c1.585-0.325,6.452-0.982,8.82,2.519c1.507,2.229,2.013,4.926,1.384,7.398   c-0.501,1.973-1.671,3.561-3.21,4.359c-0.579,0.3-0.979,0.863-1.07,1.511c-0.093,0.646,0.134,1.299,0.605,1.75l7.598,7.25   C51.531,56.231,42.563,61.673,32.35,61.673z M31.231,35.435h-8.885c0.938-2.561,1.424-5.327,1.667-7.146   c1.085-0.028,2.356-0.246,3.351-0.936l3.089,3.087C29.875,32.164,30.407,33.944,31.231,35.435z M60.647,33.373   c0,3.886-0.787,7.591-2.211,10.966l-4.983-4.756c1.446-1.386,2.519-3.243,3.056-5.362c0.912-3.591,0.201-7.479-1.955-10.663   c-4.464-6.6-13.416-4.133-13.794-4.024c-0.369,0.104-0.701,0.313-0.958,0.602c-2.233,2.514-5.43,3.981-5.458,3.993   c-0.346,0.156-0.639,0.405-0.85,0.719c-0.034,0.049-0.487,0.729-1.111,1.799l-2.726-2.728c0.575-1.75,0.406-4.215-3.282-7.219   c-1.937-1.579-3.673-1.509-4.786-1.17c-0.057,0.017-0.14,0.048-0.237,0.085L20.6,14.862c-1.734-1.734-2.719-3.66-3.262-5.464   c4.354-2.737,9.499-4.325,15.012-4.325C47.952,5.073,60.647,17.767,60.647,33.373z M12.783,7.109   c0.017,0.155,0.039,0.318,0.059,0.479c-0.957,0.727-1.871,1.509-2.742,2.335c-0.037-0.004-0.077-0.01-0.114-0.014L12.783,7.109z"></path></g></svg>