<svg xmlns:dc="http://purl.org/dc/elements/1.1/" xmlns:cc="http://creativecommons.org/ns#" xmlns:rdf="http://www.w3.org/1999/02/22-rdf-syntax-ns#" xmlns:svg="http://www.w3.org/2000/svg" xmlns="http://www.w3.org/2000/svg" xmlns:sodipodi="http://sodipodi.sourceforge.net/DTD/sodipodi-0.dtd" xmlns:inkscape="http://www.inkscape.org/namespaces/inkscape" version="1.1" x="0px" y="0px" viewBox="0 0 100 100"><g transform="translate(0,-952.36218)"><path style="font-size:medium;font-style:normal;font-variant:normal;font-weight:normal;font-stretch:normal;text-indent:0;text-align:start;text-decoration:none;line-height:normal;letter-spacing:normal;word-spacing:normal;text-transform:none;direction:ltr;block-progression:tb;writing-mode:lr-tb;text-anchor:start;baseline-shift:baseline;opacity:1;color:#000000;fill:#000000;fill-opacity:1;stroke:none;stroke-width:1.99999988000000010;marker:none;visibility:visible;display:inline;overflow:visible;enable-background:accumulate;font-family:Sans;-inkscape-font-specification:Sans" d="M 12 12 C 11.447715 12 11 12.447715 11 13 L 11 33 C 11 34.42527 11.664768 35.70287 12.6875 36.6875 C 13.695427 37.65788 15.052851 38.37426 16.625 38.90625 L 16.625 38.9375 L 37.875 47.25 L 13.4375 64.1875 C 12.846314 64.593549 12.96121 65.665912 13.625 65.9375 L 23.625 69.9375 C 23.862566 70.03359 24.137434 70.03359 24.375 69.9375 L 60.03125 56.0625 L 80.625 63.9375 L 80.65625 63.9375 C 82.336081 64.637 83.750765 65 85 65 C 86.250163 65 87.291997 64.4583 87.96875 63.6875 C 88.645503 62.9167 89 61.9455 89 61 C 89 56.9749 86.976735 51.2869 81.5 48.125 C 81.44979 48.09983 81.397465 48.0789 81.34375 48.0625 L 61.40625 40.71875 L 49.84375 21.46875 A 1.0000999 1.0000999 0 0 0 49.4375 21.09375 L 37.4375 15.09375 A 1.0000999 1.0000999 0 0 0 36.96875 14.96875 A 1.0000999 1.0000999 0 0 0 36.78125 15 A 1.0000999 1.0000999 0 0 0 36.09375 16.375 C 36.09375 16.375 40.435647 26.664652 43.1875 34.03125 L 24.8125 27.25 L 21.96875 17.71875 C 21.897178 17.470256 21.725098 17.252289 21.5 17.125 C 21.5 17.125 12.847172 12.368908 12.59375 12.1875 C 12.429912 12.070219 12.216856 12 12 12 z M 13 14.71875 L 20.15625 18.6875 L 23.03125 28.28125 C 23.12114 28.581597 23.360642 28.833077 23.65625 28.9375 L 80.5 49.875 C 85.252945 52.619 87 57.6572 87 61 C 87 61.438 86.805303 61.96045 86.46875 62.34375 C 86.132197 62.72705 85.696611 63 85 63 C 84.150495 63 82.919592 62.7085 81.375 62.0625 C 81.36458 62.062337 81.35417 62.062337 81.34375 62.0625 L 60.34375 54.0625 C 60.115054 53.97444 59.853696 53.97444 59.625 54.0625 L 24 67.90625 L 16.09375 64.75 L 40.5625 47.8125 C 41.153686 47.406451 41.03879 46.334088 40.375 46.0625 L 17.375 37.0625 C 17.35417 37.061849 17.33333 37.061849 17.3125 37.0625 C 15.914251 36.59642 14.789768 35.95017 14.0625 35.25 C 13.335232 34.54983 13 33.83551 13 33 L 13 14.71875 z M 38.875 18.03125 L 48.3125 22.75 L 58.40625 39.625 L 45.65625 34.9375 C 43.334023 28.508047 39.882388 20.40822 38.875 18.03125 z M 8 86 C 7.2631456 86 7.0030025 86.5316 7 87 C 6.99696 87.4744 7.4741053 88 8 88 L 92 88 C 92.528405 88 93.003036 87.4744 93 87 C 92.997 86.5316 92.528363 86 92 86 L 8 86 z " transform="translate(0,952.36218)"></path></g></svg>