<svg fill="#000000" xmlns="http://www.w3.org/2000/svg" xmlns:xlink="http://www.w3.org/1999/xlink" version="1.1" x="0px" y="0px" viewBox="-255 347 100 100" style="enable-background:new -255 347 100 100;" xml:space="preserve"><path d="M-195.1,390.2c3.3,0,5.9-2.6,5.9-5.8c0-0.7-0.1-1.4-0.4-2c-0.5,0.8-1.3,1.3-2.3,1.3c-1.5,0-2.7-1.2-2.7-2.7v-0.4  c0-0.8,0.3-1.4,0.8-1.9c-0.5-0.1-0.9-0.2-1.4-0.2c-3.3,0-5.9,2.6-5.9,5.8C-201,387.6-198.4,390.2-195.1,390.2z"/><path d="M-212.5,383.7c-1.5,0-2.7-1.2-2.7-2.7v-0.4c0-0.8,0.4-1.5,0.9-2c-0.3,0-0.6-0.1-0.9-0.1c-3.3,0-5.9,2.6-5.9,5.8  c0,3.2,2.6,5.8,5.9,5.8s5.9-2.6,5.9-5.8c0-1-0.2-1.9-0.7-2.7C-210.2,382.8-211.3,383.7-212.5,383.7z"/><path d="M-170.9,391.4c-0.2,0-0.3-0.1-0.5-0.1c-1.1-8.1-3.9-15-5-17.6c-0.2-0.4-0.1-0.9,0.1-1.3c1.4-2,4.7-7.3,4.4-13.6  c0-1.3-0.7-2.3-1.8-2.7c-0.9-0.3-1.9-0.1-2.6,0.7c-1.8,2-4,3.1-6.6,3.2c-0.6,0-1.4,0-2.3-0.2l-1.1-0.2c-0.5-0.1-13.5-1.7-18.3,2.2  c-0.4,0.3-1,0.3-1.4,0c-4.8-3.9-17.7-2.3-18.3-2.2l-1,0.2c-0.9,0.2-1.6,0.2-2.3,0.2c-2.6-0.1-4.8-1.2-6.6-3.2  c-0.7-0.8-1.7-1-2.6-0.7c-1,0.4-1.7,1.4-1.8,2.7c-0.2,6.3,3,11.7,4.4,13.6c0.2,0.3,0.3,0.9,0.1,1.3c-1.2,2.7-3.9,9.5-5,17.7  c-0.1,0-0.1,0-0.2,0c-8.5,2.6-8,14.7-7.7,18.3c0.4,4.7,1.5,12.6,3.6,12.8c0.1,0,0.2,0,0.3,0c2.7,0,5.5-3.3,7.8-6.8  c0.9,1.6,1.9,3.1,3.1,4.4c0.2,0.3,3.8,5.1,12.7,7.9c-1.5,0.8-3.2,2-3.8,3.4c-0.3,0.7-0.3,1.4,0,2.1c0.6,1.3,1.4,1.9,2.1,2.1  c0.7,0.2,1.4,0.2,2,0c0.2,0.6,0.6,1.2,1.3,1.5c0.6,0.3,1.3,0.2,2.1-0.1c0.4,0.5,1,1,1.8,1.2c0.2,0.1,0.5,0.1,0.8,0.1  c0.6,0,1.3-0.2,2.1-0.7c2.3-1.6,1.2-5.5,0.3-7.7c1.7,0.2,3.4,0.3,5.3,0.3h0.6c2.3,0,4.4-0.1,6.3-0.4c-0.9,2.3-2,6.3,0.3,7.9  c0.8,0.5,1.5,0.7,2.1,0.7c0.3,0,0.5,0,0.8-0.1c0.8-0.2,1.4-0.7,1.8-1.2c0.8,0.4,1.5,0.4,2.1,0.1c0.7-0.3,1.1-0.9,1.3-1.5  c0.6,0.1,1.3,0.2,2,0c0.6-0.2,1.5-0.7,2.1-2.1c0.3-0.7,0.3-1.4,0-2.1c-0.6-1.5-2.6-2.7-4.2-3.6c8.5-2.8,11.9-7.4,12-7.6  c1.2-1.4,2.3-3,3.3-4.7c2.2,3.6,5.1,7,7.9,7c0.1,0,0.2,0,0.3,0c2.1-0.2,3.2-8.1,3.6-12.8C-162.9,406.1-162.4,394-170.9,391.4z   M-227.6,362c0.8,0,1.7,0,2.7-0.2l1-0.2c3.5-0.5,13.3-1,16.8,1.8c1.2,0.9,2.8,0.9,4,0c3.4-2.8,13.3-2.2,16.7-1.8l1,0.2  c1.1,0.2,1.9,0.2,2.7,0.2c3.8-0.2,6.3-2.1,7.9-3.8c0,0.6-0.1,1.3-0.6,2.1c-1.1,1.7-4.2,3.9-12.9,4.5c-7.3,0.5-12.5,2.4-15.4,5.7  c-0.7,0.8-1.1,1.5-1.5,2.2c-0.3-0.7-0.8-1.5-1.5-2.2c-2.9-3.3-8.1-5.2-15.4-5.7c-8.7-0.6-11.8-2.7-12.9-4.5  c-0.5-0.8-0.6-1.5-0.6-2.1C-233.9,359.8-231.4,361.8-227.6,362z M-201,388.7c-0.9-0.7-3.9,0-3.9,0h-0.5c0,0-3-0.7-3.9,0  c-0.4,0.3,0.4,1.7,1.3,3.1c-2.3,2-6.1,4.3-8.8,4.3c-6.3,0-11.5-5.6-11.5-12.4c0-6.8,5.3-12.4,11.6-12.4c3.8,0,7.4,2.1,9.5,5.5  c0.4,0.7,1.2,1.1,2.1,1.1c0.8,0,1.6-0.4,2.1-1.1c2.1-3.5,5.7-5.5,9.5-5.5c6.3,0,11.5,5.6,11.5,12.4c0,6.8-5.1,12.4-11.5,12.4  c-2.7,0-6.4-2.3-8.8-4.4C-201.4,390.3-200.6,389-201,388.7z M-242.7,420.5c-0.8-1.4-1.8-8.3-2.1-11c-0.2-2.3-1-14,6.3-16.2  c0.3-0.1,0.6-0.1,0.9-0.2l0,0c0.1,0,0.3,0,0.4,0c1.6,0,2.8,0.6,3.7,1.9c2.3,3.1,1.9,8.9,0.8,11.8  C-234.5,411.4-239.6,420.2-242.7,420.5z M-212.2,435.7c-0.5,0.3-0.8,0.4-1.2,0.3c-0.6-0.1-1-0.8-1.1-1.1l-0.5-1.1l-1,0.7  c-0.6,0.5-0.9,0.5-1,0.5c-0.2-0.1-0.4-0.6-0.4-1.1l-0.2-1.6l-1.4,1c-0.2,0.1-0.9,0.5-1.5,0.3c-0.1,0-0.5-0.2-0.8-0.9  c0-0.1-0.1-0.3,0-0.5c0.5-1.2,3.1-2.6,5-3.4c1,0.2,2.1,0.4,3.3,0.6C-212,431.6-211.1,435-212.2,435.7z M-205.4,427.9  c-8,0-13.8-1.7-17.8-3.6c0.5-3.1,3.6-15.3,17.8-14.7h0.6c14.2-0.6,17.2,11.6,17.7,14.7c-4,1.9-9.7,3.6-17.8,3.6H-205.4z M-188,432.1  c0.1,0.3,0.1,0.4,0,0.5c-0.2,0.5-0.5,0.8-0.8,0.9c-0.6,0.2-1.3-0.1-1.5-0.3l-1.3-0.8l-0.2,1.6c-0.1,0.5-0.3,1-0.5,1.1  c-0.1,0-0.4,0-1-0.5l-1-0.7l-0.5,1.1c-0.1,0.2-0.6,0.9-1.1,1.1c-0.4,0.1-0.7,0-1.2-0.3c-1.1-0.7-0.2-4.1,0.9-6.5c1-0.2,2-0.4,3-0.6  C-191.5,429.3-188.5,430.8-188,432.1z M-179.8,418.9c0,0-1.6,2.2-5.4,4.4c-0.9-4.2-4.9-16.4-19.6-15.7h-0.5  c-14.8-0.7-18.8,11.4-19.7,15.7c-3.8-2.2-5.4-4.3-5.5-4.4c-1.3-1.6-2.5-3.3-3.5-5.1c1.8-3.3,3.1-6.2,3.1-6.3  c1.3-3.3,1.7-9.9-1.1-13.7c-1.2-1.7-2.9-2.6-4.9-2.7c1.1-7.7,3.7-14.2,4.8-16.7c0.5-1.1,0.3-2.3-0.3-3.2c-1.1-1.5-3.3-5.1-3.9-9.5  c2.1,2.8,6.9,4.5,14.2,5c11.5,0.7,14.6,5,15.5,7.5c-2.5-3.1-6.2-4.9-10.1-4.9c-7.4,0-13.5,6.5-13.5,14.4c0,7.9,6,14.4,13.5,14.4  c3.3,0,7.4-2.5,10-4.7c0.7,1,1.4,1.8,1.4,1.8l0.2,0.3l0.2-0.3c0,0,0.6-0.8,1.4-1.8c2.6,2.2,6.7,4.7,9.9,4.7  c7.4,0,13.5-6.5,13.5-14.4c0-7.9-6-14.4-13.5-14.4c-3.9,0-7.6,1.8-10.1,4.9c0.8-2.5,4-6.7,15.5-7.5c7.3-0.5,12-2.2,14.2-5  c-0.6,4.4-2.8,8-3.9,9.5c-0.6,0.9-0.8,2.2-0.3,3.2c1.1,2.5,3.7,9,4.8,16.7c-1.9,0.2-3.5,1.1-4.7,2.6c-2.7,3.7-2.4,10.3-1.1,13.7  c0,0.1,1.2,2.9,2.9,6C-177.2,415.4-178.4,417.2-179.8,418.9z M-165.2,409.5c-0.3,2.7-1.3,9.6-2.1,11c-3.1-0.3-8.2-9.1-10-13.7  c-1.1-2.8-1.4-8.7,0.8-11.8c0.9-1.3,2.1-1.9,3.7-1.9c0.1,0,0.3,0,0.4,0l0,0c0.3,0,0.6,0.1,0.9,0.2  C-164.2,395.5-165,407.2-165.2,409.5z"/></svg>