<svg xmlns="http://www.w3.org/2000/svg" xmlns:xlink="http://www.w3.org/1999/xlink" version="1.1" id="Layer_1" x="0px" y="0px" width="100px" height="89.831px" viewBox="0 0 100 89.831" enable-background="new 0 0 100 89.831" xml:space="preserve">
<path d="M91.574,16.801H75.076C71.019,6.942,61.322,0,50,0S28.982,6.942,24.925,16.801h-16.5C3.772,16.801,0,19.556,0,22.954v60.724  c0,3.397,3.772,6.153,8.425,6.153h83.149c4.653,0,8.426-2.756,8.426-6.153V22.954C100,19.556,96.228,16.801,91.574,16.801z   M50,5.147c7.812,0,14.482,4.826,17.229,11.654H32.772C35.518,9.973,42.189,5.147,50,5.147z M64.706,58.218h-9.804v9.804h-9.805  v-9.804h-9.804v-8.339v-1.466h9.804v-6.794V38.61h9.805v3.009v6.794h9.804v1.466V58.218z"/>
</svg>
