<svg xmlns="http://www.w3.org/2000/svg" viewBox="0 0 56 68" x="0px" y="0px"><g fill="#000000" fill-rule="evenodd"><path d="M45,34 C45,19.7803761 37.637265,8 28,8 C18.362735,8 11,19.7803761 11,34 C11,48.2196239 18.362735,60 28,60 C37.637265,60 45,48.2196239 45,34 Z M15,34 C15,21.7099559 21.0687225,12 28,12 C34.9312775,12 41,21.7099559 41,34 C41,46.2900441 34.9312775,56 28,56 C21.0687225,56 15,46.2900441 15,34 Z"></path><path d="M26 31L15 31C13.8954305 31 13 30.1045695 13 29 13 27.8954305 13.8954305 27 15 27L41 27C42.1045695 27 43 27.8954305 43 29 43 30.1045695 42.1045695 31 41 31L30 31 30 56C30 57.1045695 29.1045695 58 28 58 26.8954305 58 26 57.1045695 26 56L26 31 26 31zM54 36C55.1045695 36 56 35.1045695 56 34 56 32.8954305 55.1045695 32 54 32L45 32C43.8954305 32 43 32.8954305 43 34 43 35.1045695 43.8954305 36 45 36L54 36zM11 36C12.1045695 36 13 35.1045695 13 34 13 32.8954305 12.1045695 32 11 32L2 32C.8954305 32 0 32.8954305 0 34 0 35.1045695.8954305 36 2 36L11 36zM26 9C26 10.1045695 26.8954305 11 28 11 29.1045695 11 30 10.1045695 30 9L30 4C30 2.8954305 29.1045695 2 28 2 26.8954305 2 26 2.8954305 26 4L26 9zM45.8944272 15.7888544C46.5719952 15.4500704 47 14.7575441 47 14L47 2C47 .8954305 46.1045695 0 45 0 43.8954305 0 43 .8954305 43 2L43 12.75 38.687594 14.9184783 40.7036069 18.3842645 45.8944272 15.7888544zM43 66C43 67.1045695 43.8954305 68 45 68 46.1045695 68 47 67.1045695 47 66L47 53C47 52.2424559 46.5719952 51.5499296 45.8944272 51.2111456L40.8141538 48.6710089 38.9450388 52.2126911 43 54.2599945 43 66zM13 2C13 .8954305 12.1045695 0 11 0 9.8954305 0 9 .8954305 9 2L9 14C9 14.7575441 9.42800475 15.4500704 10.1055728 15.7888544L15.3877994 18.4299677 17.1380628 14.8369908 13 12.7899933 13 2zM10.1055728 51.2111456C9.42800475 51.5499296 9 52.2424559 9 53L9 66C9 67.1045695 9.8954305 68 11 68 12.1045695 68 13 67.1045695 13 66L13 54.2599945 17.0190366 52.2265497 14.9000064 48.8139288 10.1055728 51.2111456z"></path></g></svg>