<?xml version="1.0" encoding="utf-8"?>
<!-- Generator: Adobe Illustrator 15.1.0, SVG Export Plug-In . SVG Version: 6.00 Build 0)  -->
<!DOCTYPE svg PUBLIC "-//W3C//DTD SVG 1.1//EN" "http://www.w3.org/Graphics/SVG/1.1/DTD/svg11.dtd">
<svg version="1.1" id="Layer_1" xmlns="http://www.w3.org/2000/svg" xmlns:xlink="http://www.w3.org/1999/xlink" x="0px" y="0px"
	 width="87.098px" height="100px" viewBox="0 0 87.098 100" enable-background="new 0 0 87.098 100" xml:space="preserve">
<path fill="#010101" d="M83.871,41.936h-6.452c-1.781,0-3.225-1.444-3.225-3.226c0-1.781,1.446-3.227,3.225-3.227h6.452
	c1.782,0,3.227,1.445,3.227,3.227C87.098,40.492,85.653,41.936,83.871,41.936z"/>
<path fill="#010101" d="M71.198,20.462c-1.26,1.259-3.304,1.259-4.562,0c-1.259-1.26-1.259-3.302,0-4.562l4.562-4.562
	c1.259-1.259,3.302-1.259,4.561,0c1.26,1.26,1.26,3.303,0,4.562L71.198,20.462z"/>
<path fill="#010101" d="M66.44,45.637c0.831-2.155,1.304-4.484,1.304-6.928c0-10.69-8.668-19.354-19.356-19.354
	c-6.222,0-11.742,2.946-15.284,7.507c-2.313-0.682-4.76-1.056-7.298-1.056C11.555,25.806,0,37.362,0,51.613
	c0,2.23,0.308,4.386,0.844,6.449C2.592,64.828,7,70.517,12.905,73.938v-7.931c-2.389-2.138-4.231-4.864-5.328-7.945
	c-0.718-2.017-1.125-4.184-1.125-6.449c0-10.689,8.666-19.356,19.354-19.356c9.18,0,16.832,6.412,18.817,14.987
	c2.018-1.308,4.408-2.083,6.989-2.083c7.127,0,12.905,5.778,12.905,12.901c0,4.773-2.598,8.932-6.452,11.166v7.066
	c7.513-2.662,12.903-9.807,12.903-18.232C70.969,53.332,69.264,48.999,66.44,45.637z M61.05,41.172
	c-2.793-1.561-6.008-2.463-9.438-2.463c-1.119,0-2.208,0.148-3.279,0.331c-2.166-3.874-5.304-7.126-9.08-9.441
	c2.336-2.344,5.567-3.792,9.135-3.792c7.125,0,12.903,5.776,12.903,12.903C61.291,39.553,61.205,40.375,61.05,41.172z"/>
<path fill="#010101" d="M48.388,12.903c-1.779,0-3.226-1.444-3.226-3.226V3.226C45.162,1.445,46.608,0,48.388,0
	c1.78,0,3.225,1.445,3.225,3.226v6.451C51.612,11.459,50.168,12.903,48.388,12.903z"/>
<path fill="#010101" d="M25.577,20.462L21.016,15.9c-1.259-1.259-1.259-3.302,0-4.562c1.259-1.259,3.303-1.259,4.561,0l4.562,4.562
	c1.259,1.26,1.259,3.302,0,4.562C28.881,21.721,26.839,21.721,25.577,20.462z"/>
<circle fill="#010101" cx="4.839" cy="91.934" r="3.226"/>
<path fill="#010101" d="M20.969,61.289c0-1.78-0.168-3.227,1.613-3.227l0,0c1.781,0,1.613,1.446,1.613,3.227V100h-3.226l0,0l0,0
	c0-3.563-2.888-6.452-6.451-6.452v-3.227c2.489,0,4.736,0.969,6.451,2.511V61.289z"/>
<path fill="#010101" d="M35.485,83.869c-1.781,0-1.613-1.443-1.613-3.224V67.741c0-1.78-0.168-3.227,1.613-3.227
	c1.782,0,1.613,1.446,1.613,3.227v12.904C37.098,82.426,37.267,83.869,35.485,83.869z"/>
<circle fill="#010101" cx="35.485" cy="93.547" r="3.226"/>
<path fill="#010101" d="M48.388,58.062L48.388,58.062c1.78,0,1.613,1.446,1.613,3.227v29.062c2.941-3.928,7.618-6.482,12.903-6.482
	v3.226c-7.127,0-12.903,5.778-12.903,12.905h-3.226c0-0.439,0.031-0.87,0.064-1.302c-0.087-0.538-0.064-1.2-0.064-1.925V61.289
	C46.775,59.509,46.608,58.062,48.388,58.062z"/>
<circle fill="#010101" cx="72.581" cy="83.87" r="3.225"/>
</svg>
