<svg xmlns="http://www.w3.org/2000/svg" xmlns:xlink="http://www.w3.org/1999/xlink" version="1.1" id="Your_Icon" x="0px" y="0px" width="100px" height="100px" viewBox="0 0 100 100" enable-background="new 0 0 100 100" xml:space="preserve">
<rect x="58" y="16" width="2" height="66"/>
<polygon points="56,82 57,82 57,16 56,17 "/>
<rect x="69" y="16" width="2" height="66"/>
<polygon points="67,82 68,82 68,16 67,17 "/>
<rect x="56.414" y="23.089" transform="matrix(0.7071 -0.7071 0.7071 0.7071 1.8344 51.4292)" width="13.172" height="0.823"/>
<rect x="56.414" y="22.089" transform="matrix(-0.7071 -0.7071 0.7071 -0.7071 91.6392 82.9573)" width="13.172" height="0.823"/>
<rect x="0.383" y="62.103" transform="matrix(-0.7071 -0.7071 0.7071 -0.7071 -38.8848 108.4276)" width="5.26" height="0.329"/>
<rect x="0.383" y="62.103" transform="matrix(0.7071 -0.7071 0.7071 0.7071 -43.1468 20.3686)" width="5.26" height="0.329"/>
<rect x="0.383" y="66.103" transform="matrix(0.7071 -0.7071 0.7071 0.7071 -45.9752 21.5402)" width="5.26" height="0.329"/>
<rect x="0.383" y="70.103" transform="matrix(0.7071 -0.7071 0.7071 0.7071 -48.8036 22.7117)" width="5.26" height="0.329"/>
<rect x="0.383" y="74.103" transform="matrix(0.7071 -0.7071 0.7071 0.7071 -51.6321 23.8833)" width="5.26" height="0.329"/>
<rect x="0.383" y="79.103" transform="matrix(0.7071 -0.7071 0.7071 0.7071 -55.1676 25.3478)" width="5.26" height="0.329"/>
<rect x="0.383" y="82.103" transform="matrix(0.7071 -0.7071 0.7071 0.7071 -57.2889 26.2265)" width="5.26" height="0.329"/>
<rect x="0.383" y="66.103" transform="matrix(-0.7071 -0.7071 0.7071 -0.7071 -41.7132 115.256)" width="5.26" height="0.329"/>
<rect x="0.383" y="70.103" transform="matrix(-0.7071 -0.7071 0.7071 -0.7071 -44.5417 122.0844)" width="5.26" height="0.329"/>
<rect x="0.383" y="74.103" transform="matrix(-0.7071 -0.7071 0.7071 -0.7071 -47.3701 128.9128)" width="5.26" height="0.329"/>
<rect x="0.383" y="79.103" transform="matrix(-0.7071 -0.7071 0.7071 -0.7071 -50.9056 137.4484)" width="5.26" height="0.329"/>
<rect x="0.383" y="82.103" transform="matrix(-0.7071 -0.7071 0.7071 -0.7071 -53.027 142.5697)" width="5.26" height="0.329"/>
<rect x="56.414" y="32.089" transform="matrix(-0.7071 -0.7071 0.7071 -0.7071 84.5684 100.0285)" width="13.172" height="0.823"/>
<rect x="56.414" y="41.089" transform="matrix(-0.7071 -0.7071 0.7071 -0.7071 78.2046 115.3927)" width="13.172" height="0.823"/>
<rect x="56.414" y="50.089" transform="matrix(-0.7071 -0.7071 0.7071 -0.7071 71.8408 130.7568)" width="13.172" height="0.823"/>
<rect x="56.414" y="67.089" transform="matrix(-0.7071 -0.7071 0.7071 -0.7071 59.8225 159.7784)" width="13.172" height="0.823"/>
<rect x="56.414" y="77.089" transform="matrix(-0.7071 -0.7071 0.7071 -0.7071 52.7518 176.8499)" width="13.172" height="0.823"/>
<rect x="56.414" y="34.089" transform="matrix(0.7071 -0.7071 0.7071 0.7071 -5.9436 54.6508)" width="13.172" height="0.823"/>
<rect x="56.414" y="42.089" transform="matrix(0.7071 -0.7071 0.7071 0.7071 -11.6003 56.9938)" width="13.172" height="0.823"/>
<rect x="56.414" y="51.089" transform="matrix(0.7071 -0.7071 0.7071 0.7071 -17.9641 59.6297)" width="13.172" height="0.823"/>
<rect x="56.414" y="67.089" transform="matrix(0.7071 -0.7071 0.7071 0.7071 -29.2776 64.3133)" width="13.172" height="0.823"/>
<rect x="56.414" y="77.089" transform="matrix(0.7071 -0.7071 0.7071 0.7071 -36.3483 67.2419)" width="13.172" height="0.823"/>
<path d="M1,76c0,0,15-8,28-11c0,0,21-4,27-6v3c0,0-38,7-52,14H1z"/>
<rect x="1" y="60" width="1" height="24"/>
<rect x="4" y="60" width="1" height="24"/>
<path fill="none" stroke="#000000" stroke-miterlimit="10" d="M59,18c0,0,31,5,86-2"/>
<path fill="none" stroke="#000000" stroke-miterlimit="10" d="M70,20c0,0,35,5,75,0"/>
<path fill="none" stroke="#000000" stroke-miterlimit="10" d="M57,21.12c0,0-25.463,42.778-41.759,47.871  c0,0-9.167,3.055-13.241-5.093"/>
<path fill="none" stroke="#000000" stroke-miterlimit="10" d="M67,19c0,0-7,12-8,11"/>
<path fill="none" stroke="#000000" stroke-miterlimit="10" d="M56,35c0,0-24,34-39,35c0,0-9.485,2.582-12.243-5.709"/>
<polygon points="59.25,58 145,39 145,46 70.75,60 59.75,61 "/>
<rect x="76" y="19" width="1" height="38"/>
<rect x="54" y="25" width="1" height="36"/>
<rect x="52" y="40" width="1" height="21"/>
<rect x="45" y="48" width="1" height="14"/>
<rect x="39" y="55" width="1" height="9"/>
<rect x="33" y="61" width="1" height="4"/>
<rect x="47" y="36" width="1" height="27"/>
<rect x="41" y="44" width="1" height="20"/>
<rect x="35" y="52" width="1" height="13"/>
<rect x="78" y="21" width="1" height="36"/>
<rect x="85" y="21" width="1" height="36"/>
<rect x="92" y="22" width="1" height="33"/>
<rect x="101" y="22" width="1" height="29"/>
<rect x="110" y="22" width="1" height="29"/>
<rect x="119" y="22" width="1" height="27"/>
<rect x="128" y="21" width="1" height="27"/>
<rect x="138" y="21" width="1" height="24"/>
<rect x="83" y="20" width="1" height="37"/>
<rect x="90" y="20" width="1" height="35"/>
<rect x="99" y="20" width="1" height="33"/>
<rect x="108" y="19" width="1" height="33"/>
<rect x="117" y="19" width="1" height="31"/>
<rect x="126" y="18" width="1" height="31"/>
<rect x="136" y="17" width="1" height="29"/>
<rect x="28" y="60" width="1" height="7"/>
<rect x="9" y="69" width="1" height="4"/>
<rect x="5" y="68" width="1" height="7"/>
<rect x="7" y="68" width="1" height="6"/>
<rect x="22" y="65" width="1" height="4"/>
</svg>
