<svg xmlns="http://www.w3.org/2000/svg" xmlns:xlink="http://www.w3.org/1999/xlink" version="1.1" x="0px" y="0px" viewBox="0 0 90 90" enable-background="new 0 0 90 90" xml:space="preserve"><path fill="none" stroke="#000000" stroke-width="2" stroke-linecap="round" stroke-linejoin="round" stroke-miterlimit="10" d="  M64.9,65c0,0-2.7-6.6-2.7-11S70,44.8,70,36.6C70,27,61.8,21,55,21c-11,0-14.8,6.6-15.5,10.5c-0.7,3.9-0.4,7.8-0.4,7.8  s-3.8,3.8-3.7,4.4s2.5,2.3,4.5,2.3l-1.3,2.5c0,0,6.6-0.6,6.9,2.1c0.3,2.9-5,2.3-5,2.3s0.1,0.3,0.3,1.3c0.2,1.1,0.4,1.8,2.8,1.8  s6.4-0.5,6.4-0.5l0.2,9.6"></path><circle cx="26.1" cy="68.7" r="2"></circle><circle cx="17.6" cy="46.3" r="2"></circle><circle cx="24.7" cy="56" r="2"></circle><circle cx="16.7" cy="59" r="2"></circle><circle cx="33.2" cy="53.3" r="2"></circle><circle cx="30.4" cy="61.6" r="2"></circle><circle cx="25.6" cy="49" r="2"></circle></svg>