<svg xmlns="http://www.w3.org/2000/svg" xmlns:xlink="http://www.w3.org/1999/xlink" version="1.1" id="Layer_1" x="0px" y="0px" width="100px" height="100px" viewBox="0 0 100 100" enable-background="new 0 0 100 100" xml:space="preserve">
<path d="M32.659,24.197c-0.24-7.313,1.439-20.862,17.745-21.821c0,0,18.584,0.24,17.145,22.181  c-0.539,1.199-1.618,1.499-1.798,3.177c0,0,0.42-3.657,0-5.096c-0.419-1.439-2.518-4.376-3.058-6.114  c-0.539-1.739,0.54-3.058,0.12-3.897c-0.779-1.169-1.169-2.008-2.278-2.458c-9.292,0.719-9.292,0.779-19.603-0.06  c-1.499,0.12-3.417,2.099-2.698,4.976s-0.54,3.836-1.199,4.436c-0.659,0.6-3.057,2.038-2.098,8.932c0,0-0.659-4.106-2.488-4.616"/>
<path d="M55.068,23.703c-0.899-0.021-0.873-1.196-0.073-1.178c0.799,0.018,4.9-0.079,5.197,0.055  c0.297,0.134,2.189,1.925,2.379,2.343c0.19,0.417-2.904-1.21-2.904-1.21L55.068,23.703z"/>
<path d="M46.636,23.813c0.951-0.024,0.919-1.267,0.074-1.246c-0.846,0.022-5.184-0.071-5.498,0.072  c-0.313,0.143-2.31,2.043-2.511,2.485c-0.2,0.442,3.071-1.289,3.071-1.289L46.636,23.813z"/>
<path d="M39.249,27.835l-0.083-0.727c0.349-0.04,0.883-0.355,1.448-0.69c1.709-1.011,4.29-2.541,7.12,0.102l-0.5,0.534  c-2.427-2.267-4.545-1.014-6.247-0.006C40.325,27.439,39.753,27.778,39.249,27.835z"/>
<circle cx="44.06" cy="26.221" r="0.952"/>
<circle fill="#000000" cx="43.703" cy="26.064" r="0.267"/>
<path d="M62.492,27.746c-0.504-0.057-1.075-0.396-1.737-0.787c-1.702-1.007-3.82-2.261-6.247,0.006l-0.5-0.534  c2.828-2.642,5.41-1.113,7.119-0.102c0.565,0.334,1.1,0.651,1.448,0.69L62.492,27.746z"/>
<circle cx="57.682" cy="26.131" r="0.952"/>
<circle fill="#000000" cx="57.353" cy="25.908" r="0.267"/>
<path d="M58.57,45.126l-0.648-0.298c3.209-7,2.394-7.737-1.04-10.841c-0.102-0.092-0.206-0.186-0.312-0.282  c0.027,0.257-0.01,0.493-0.112,0.708c-0.515,1.077-2.494,1.062-3.176,1.021c-0.717,0.95-1.543,1.453-2.399,1.46  c-0.898,0.025-1.754-0.516-2.532-1.516c-1.767,0.224-2.785,0.024-3.194-0.621c-0.531-0.838,0.243-2.019,0.755-2.8  c0.083-0.127,0.159-0.241,0.216-0.337l0.613,0.368c-0.062,0.103-0.142,0.225-0.231,0.361c-0.361,0.551-1.034,1.578-0.75,2.026  c0.113,0.178,0.603,0.562,2.701,0.269l0.212-0.03l0.126,0.173c0.665,0.912,1.378,1.394,2.066,1.394c0.004,0,0.008,0,0.012,0  c0.664-0.005,1.335-0.462,1.94-1.322l0.119-0.169l0.207,0.02c0.742,0.069,2.374,0.015,2.669-0.603  c0.12-0.253,0.12-0.885-1.239-2.275l0.507-0.504c0.846,0.835,1.607,1.524,2.28,2.132C61.113,36.849,61.873,37.924,58.57,45.126z"/>
<path d="M42.68,45.113c-2.377-7.061-2.19-7.526,0.568-10.364c0.743-0.765,1.667-1.716,2.775-3.082l0.555,0.45  c-1.128,1.39-2.065,2.354-2.818,3.129c-2.504,2.578-2.708,2.789-0.403,9.638L42.68,45.113z"/>
<path d="M33.91,37.183c-0.012,0-0.023,0-0.035,0c-0.795-0.031-1.169-1.087-1.47-1.935c-0.06-0.169-0.115-0.324-0.167-0.449  c-1.052-1.684-1.412-4.284-1.412-4.827c0-0.134-0.111-0.364-0.229-0.607c-0.191-0.396-0.429-0.889-0.485-1.503l-0.005-0.054  l0.011-0.052c0.108-0.512,0.093-0.855,0.067-1.425c-0.014-0.307-0.03-0.668-0.03-1.137c0-0.837,0.383-1.289,0.705-1.52  c0.517-0.372,1.264-0.449,1.999-0.203l-0.226,0.678c-0.519-0.173-1.025-0.134-1.355,0.104c-0.271,0.195-0.408,0.512-0.408,0.941  c0,0.456,0.016,0.806,0.029,1.104c0.025,0.565,0.044,0.978-0.07,1.548c0.052,0.464,0.243,0.858,0.411,1.208  c0.161,0.333,0.299,0.621,0.299,0.918c0,0.417,0.347,2.918,1.331,4.5c0.083,0.186,0.142,0.353,0.207,0.537  c0.167,0.469,0.513,1.447,0.824,1.459c0.086-0.013,0.55-0.083,1.42-2.042l0.653,0.29C35.22,36.419,34.581,37.183,33.91,37.183z"/>
<path d="M34.242,31.754l-0.667-0.258c0.782-2.017-1.138-5.74-2.083-6.308l0.368-0.613C33.177,25.365,35.142,29.431,34.242,31.754z"/>
<path d="M33.57,33.239c-1.509-0.755-1.82-1.674-1.814-2.312c0.01-1.198,1.145-2.297,1.909-2.662l0.308,0.645  c-0.504,0.241-1.495,1.109-1.503,2.024c-0.005,0.632,0.472,1.192,1.42,1.666L33.57,33.239z"/>
<path d="M66.064,37.185c-0.015,0-0.029,0-0.044-0.001c-0.66-0.037-1.022-0.745-1.076-2.107l0.715-0.028  c0.045,1.15,0.304,1.416,0.4,1.421c0.003,0,0.006,0,0.01,0c0.355,0,1.133-1.034,1.291-2.086l0.021-0.141l0.113-0.087  c0.331-0.258,0.617-0.852,0.902-1.869c0.003-0.021,0.233-1.16,1.104-4.113c0.074-3.191-0.432-3.799-0.652-3.912  c-0.28-0.142-0.789,0.201-1.201,0.516l-0.434-0.568c0.436-0.331,1.246-0.949,1.959-0.584c0.789,0.403,1.11,1.825,1.041,4.613  l-0.015,0.093c-0.872,2.956-1.1,4.075-1.108,4.122c-0.316,1.131-0.633,1.789-1.048,2.171C67.813,35.833,66.921,37.185,66.064,37.185  z"/>
<path d="M65.89,32.111c-0.9-2.323,1.065-6.388,2.383-7.178l0.367,0.612c-0.946,0.568-2.865,4.291-2.084,6.308L65.89,32.111z"/>
<path d="M66.562,33.597l-0.319-0.639c0.947-0.474,1.425-1.034,1.419-1.666c-0.008-0.915-0.999-1.783-1.503-2.024l0.309-0.645  c0.764,0.365,1.898,1.464,1.908,2.662C68.381,31.923,68.071,32.841,66.562,33.597z"/>
<path d="M50.678,38.655c-1.18-0.708-5.901-0.236-7.884,1.18c4.013,2.455,3.132,4.563,7.979,4.485  c4.847-0.079,3.872-2.077,7.459-5.004C57.146,38.892,51.812,38.088,50.678,38.655z M56.355,40.645  c-0.029,0.224-0.565,0.477-1.012,0.477c0.029,0.446-0.566,0.863-1.103,0.536c-0.029,0.477-1.279,0.625-1.31,0.179  c-0.298,0.745-1.816,0.774-2.114,0.506c0,0-2.061,0.446-2.061-0.357c0,0.268-1.25,0.223-1.229-0.223  c-0.022,0.446-1.295,0.134-1.295-0.38c-0.022,0.491-1.02,0.067-1.012-0.379c0,0,0.06-0.774,0.06-1.042s0.923-0.446,0.923,0.119  c0.03-0.536,1.37-0.625,1.37-0.06c0-0.596,1.28-0.625,1.28,0.03c0-0.715,1.876-0.566,1.906,0.149  c-0.031-0.744,2.114-0.864,2.114-0.089c0-0.804,1.429-0.804,1.429-0.06c0-0.774,1.042-0.595,1.042-0.03  c0-0.596,1.012-0.476,0.982-0.089C56.326,40.467,56.386,40.422,56.355,40.645z"/>
<path d="M50.515,54.354c-4.316-0.072-5.432-1.594-6.328-2.817c-0.242-0.33-0.471-0.642-0.742-0.896  c-2.721-1.838-5.558-7.503-6.79-10.855c-0.166-0.741-0.301-1.057-0.458-1.422c-0.249-0.581-0.531-1.24-0.942-3.459l0.703-0.13  c0.396,2.141,0.662,2.761,0.896,3.308c0.164,0.382,0.319,0.743,0.485,1.503c1.141,3.094,3.944,8.733,6.55,10.499  c0.364,0.334,0.612,0.672,0.875,1.031c0.844,1.151,1.802,2.459,5.763,2.525L50.515,54.354z"/>
<path d="M50.281,54.354l-0.012-0.714c3.995-0.066,4.959-1.357,5.812-2.498c0.264-0.354,0.514-0.687,0.837-0.983  c2.669-1.779,5.492-7.352,6.655-10.455c0.154-0.706,0.31-1.062,0.476-1.44c0.235-0.54,0.504-1.153,0.902-3.267l0.701,0.132  c-0.414,2.194-0.699,2.846-0.95,3.42c-0.158,0.361-0.294,0.672-0.447,1.358c-1.256,3.36-4.113,8.96-6.899,10.812  c-0.229,0.216-0.46,0.524-0.704,0.851C55.75,52.778,54.626,54.282,50.281,54.354z"/>
<path d="M46.979,58.234l-0.149-0.106c-0.083-0.06-8.327-6.379-8.007-9.791c0.062-0.562-0.285-3.247-0.534-4.916l0.706-0.105  c0.064,0.435,0.629,4.268,0.538,5.094c-0.229,2.441,5.728,7.666,7.563,9.029c3.219-1.159,6.389-3.873,7.295-4.689l0.477,0.53  c-1.216,1.094-4.401,3.762-7.714,4.895L46.979,58.234z"/>
<path d="M37.733,68.747l-0.504-0.504c0.437-0.437,0.997-1.292,1.645-2.282c1.658-2.532,4.162-6.358,7.994-8.437l0.08-0.043h0.09  c0.642,0,6.021,6.771,6.615,8.327l-0.666,0.254c-0.668-1.746-5.083-6.847-5.998-7.789c-3.552,2.02-5.933,5.656-7.518,8.078  C38.773,67.417,38.222,68.259,37.733,68.747z"/>
<path d="M43.001,60.759c0,0,1.087,3.899-0.091,5.987c-1.903,1.601-6.374,11.578-6.736,16.628c-0.362,5.05,0.756,14.03,0.756,14.03  l5.226-0.031c0,0,6.494-21.313,7.4-22.434c0.484-2.933-1.299-5.078-1.51-5.473c-0.786-1.754-2.779-2.057,3.111-7.104l-3.987-4.777  C47.17,57.585,43.605,60.156,43.001,60.759z"/>
<g>
	<circle fill="#000000" cx="43.227" cy="74.048" r="0.804"/>
	<circle fill="#000000" cx="45.103" cy="72.753" r="0.804"/>
	<circle fill="#000000" cx="46.264" cy="74.316" r="0.804"/>
	<circle fill="#000000" cx="44.7" cy="76.147" r="0.804"/>
	<circle fill="#000000" cx="45.951" cy="77.889" r="0.804"/>
	<circle fill="#000000" cx="42.78" cy="77.844" r="0.804"/>
	<circle fill="#000000" cx="41.262" cy="75.745" r="0.804"/>
	<circle fill="#000000" cx="38.314" cy="75.269" r="0.804"/>
	<circle fill="#000000" cx="42.066" cy="72.039" r="0.804"/>
	<circle fill="#000000" cx="43.405" cy="68.466" r="0.714"/>
	<circle fill="#000000" cx="43.108" cy="66.084" r="0.715"/>
	<circle fill="#000000" cx="46.353" cy="70.521" r="0.715"/>
	<circle fill="#000000" cx="47.96" cy="72.351" r="0.714"/>
	<circle fill="#000000" cx="49.181" cy="73.959" r="0.715"/>
	<circle fill="#000000" cx="39.564" cy="77.725" r="0.715"/>
	<circle fill="#000000" cx="40.86" cy="79.63" r="0.714"/>
	<circle fill="#000000" cx="42.334" cy="81.595" r="0.715"/>
	<circle fill="#000000" cx="44.254" cy="79.764" r="0.714"/>
	<circle fill="#000000" cx="45.683" cy="81.64" r="0.714"/>
	<circle fill="#000000" cx="43.718" cy="83.605" r="0.714"/>
	<circle fill="#000000" cx="40.369" cy="83.337" r="0.715"/>
	<circle fill="#000000" cx="39.163" cy="81.417" r="0.714"/>
	<circle fill="#000000" cx="38.717" cy="85.346" r="0.714"/>
	<circle fill="#000000" cx="37.198" cy="86.479" r="0.714"/>
	<circle fill="#000000" cx="41.842" cy="85.346" r="0.714"/>
	<circle fill="#000000" cx="43.405" cy="87.4" r="0.715"/>
	<circle fill="#000000" cx="40.056" cy="87.267" r="0.715"/>
	<circle fill="#000000" cx="41.708" cy="89.276" r="0.714"/>
	<circle fill="#000000" cx="38.076" cy="89.171" r="0.714"/>
	<circle fill="#000000" cx="39.744" cy="91.062" r="0.715"/>
	<circle fill="#000000" cx="41.307" cy="92.893" r="0.714"/>
	<path fill="#000000" d="M42.11,94.947c0,0.274,0.155,0.513,0.382,0.633l0.424-1.341c-0.03-0.004-0.061-0.006-0.091-0.006   C42.43,94.233,42.11,94.553,42.11,94.947z"/>
	<circle fill="#000000" cx="39.476" cy="94.769" r="0.714"/>
	<path fill="#000000" d="M37.979,92.111c-0.262,0-0.491,0.142-0.615,0.352l0.112,0.87c0.129,0.128,0.307,0.208,0.503,0.208   c0.395,0,0.715-0.32,0.715-0.715S38.375,92.111,37.979,92.111z"/>
	<path fill="#000000" d="M37.667,82.536c-0.257-0.049-0.508,0.047-0.67,0.229l-0.053,0.876c0.103,0.15,0.264,0.262,0.456,0.299   c0.388,0.073,0.762-0.182,0.835-0.568C38.31,82.984,38.055,82.609,37.667,82.536z"/>
	<path fill="#000000" d="M39.167,73.804c0.335,0.208,0.776,0.104,0.984-0.231c0.208-0.335,0.104-0.776-0.231-0.983   c-0.224-0.138-0.492-0.14-0.708-0.026l-0.364,0.799C38.89,73.538,38.999,73.7,39.167,73.804z"/>
	<path fill="#000000" d="M40.983,70.351c0.335,0.207,0.776,0.103,0.984-0.232c0.207-0.335,0.104-0.776-0.232-0.983   c-0.223-0.138-0.492-0.139-0.708-0.026l-0.364,0.8C40.706,70.084,40.815,70.246,40.983,70.351z"/>
	<path fill="#000000" d="M43.526,63.487c0.394-0.002,0.714-0.322,0.713-0.717c0-0.394-0.322-0.715-0.716-0.713   c-0.262,0.001-0.491,0.142-0.614,0.352l0.113,0.87C43.151,63.407,43.33,63.486,43.526,63.487z"/>
	<circle fill="#000000" cx="44.031" cy="70.654" r="0.714"/>
	<circle fill="#000000" cx="45.951" cy="67.127" r="0.715"/>
	<circle fill="#000000" cx="44.968" cy="64.492" r="0.714"/>
	<circle fill="#000000" cx="46.978" cy="62.795" r="0.715"/>
	<circle fill="#000000" cx="44.834" cy="60.964" r="0.715"/>
	<circle fill="#000000" cx="47.067" cy="59.937" r="0.714"/>
	<circle fill="#000000" cx="48.764" cy="61.5" r="0.714"/>
	<path fill="#000000" d="M49.159,64.016c0,0.227,0.107,0.431,0.274,0.562l1.033-0.961c-0.128-0.19-0.345-0.315-0.592-0.315   C49.479,63.301,49.159,63.621,49.159,64.016z"/>
	<path fill="#000000" d="M48.195,65.071c-0.39,0.061-0.655,0.428-0.594,0.816c0.036,0.225,0.173,0.409,0.357,0.513l0.871-1.11   C48.673,65.122,48.439,65.032,48.195,65.071z"/>
	<path fill="#000000" d="M47.332,69.099c-0.096,0.383,0.138,0.771,0.52,0.866c0.221,0.056,0.444,0.001,0.611-0.128l-0.682-1.236   C47.566,68.679,47.392,68.859,47.332,69.099z"/>
	<path fill="#000000" d="M44.371,85.426c0.049,0.391,0.407,0.669,0.799,0.619l0.397-1.232c-0.15-0.139-0.358-0.214-0.577-0.186   C44.598,84.677,44.321,85.034,44.371,85.426z"/>
	<path fill="#000000" d="M38.104,78.049c-0.051-0.391-0.41-0.667-0.802-0.616l-0.392,1.234c0.15,0.138,0.359,0.212,0.578,0.184   C37.88,78.799,38.155,78.439,38.104,78.049z"/>
	<path fill="#000000" d="M37.432,81.466c0.359-0.164,0.517-0.588,0.354-0.948c-0.164-0.357-0.587-0.516-0.947-0.353l-0.013,1.294   C37.009,81.548,37.231,81.557,37.432,81.466z"/>
	<path fill="#000000" d="M42.696,91.231c0.05,0.391,0.408,0.668,0.799,0.619l0.397-1.232c-0.15-0.139-0.358-0.214-0.577-0.186   C42.923,90.481,42.646,90.84,42.696,91.231z"/>
	<circle fill="#000000" cx="47.648" cy="76.103" r="0.804"/>
</g>
<path d="M63.326,31.035c-0.068-0.475-0.471-1.022-1.051-1.429c-0.65-0.457-1.39-0.654-1.977-0.535l-0.146-0.699  c0.78-0.162,1.724,0.081,2.532,0.648c0.748,0.524,1.251,1.239,1.348,1.913L63.326,31.035z"/>
<path d="M38.371,30.976l-0.708-0.101c0.097-0.674,0.6-1.389,1.348-1.914c0.81-0.568,1.757-0.81,2.532-0.648l-0.146,0.699  c-0.586-0.122-1.326,0.078-1.977,0.535C38.841,29.954,38.438,30.501,38.371,30.976z"/>
<path d="M61.134,44.9c0,0,3.168,5.72,5.159,7.173c6.878,3.632,24.436,8.535,25.249,11.44c3.439,0.364,4.345,5.084,4.526,6.448  c0.271,2.904,0.543,5.991-1.721,7.445c-1.356,1.088,2.534,3.994-0.542,7.353c-0.905,2.726,3.891,4.722,0.995,7.266  c-0.995,2.996,0.181,4.177,0,5.448c-5.974,0-52.944-0.091-52.944-0.091s7.09-27.089,16.623-41.134  c3.438-4.539,3.922-7.627,3.801-9.322"/>
<path d="M39.312,48.192c0,0-0.269,4.515-2.009,6.14c-3.958,3.19-21.893,9.45-24.411,11.678c-1.86,0.784-2.399-1.022-5.698,8.188  c0,0,0.24,3.673-1.8,5.357c-1.02,2.408,0.06,3.913-1.679,5.719c-0.9,0.843,1.02,3.974-0.18,5.96  c-0.839,1.084-1.139,6.141-1.139,6.141l34.668,0.03c0,0-2.04-14.538,0.66-29.287c0,0,1.02-19.527,1.02-16.253"/>
<rect x="60.305" y="46.44" transform="matrix(0.4606 0.8876 -0.8876 0.4606 74.9576 -29.7465)" width="3.295" height="0.713"/>
<rect x="38.274" y="49.197" transform="matrix(0.971 0.2392 -0.2392 0.971 13.6077 -7.7237)" width="0.715" height="6.028"/>
<g>
	<polygon fill="#000000" points="60.335,71.609 60.303,71.717 62.227,71.766 62.251,71.641  "/>
	<polygon fill="#000000" points="60.1,72.403 58.669,72.351 58.654,72.421 62.068,72.558 62.135,72.226 60.163,72.186  "/>
	<polygon fill="#000000" points="58.567,72.842 58.582,72.804 61.989,72.956 62.042,72.691 58.624,72.565  "/>
	<polygon fill="#000000" points="60.207,72.041 62.161,72.091 62.199,71.901 60.26,71.861  "/>
	<polygon fill="#000000" points="58.47,73.312 61.894,73.431 61.962,73.09 58.546,72.948  "/>
	<polygon fill="#000000" points="58.99,71.743 59.054,71.719 59.109,71.757 59.105,71.689 59.158,71.648 59.093,71.631    59.07,71.568 59.034,71.625 58.967,71.627 59.01,71.68  "/>
	<polygon fill="#000000" points="59.272,71.743 59.335,71.719 59.392,71.756 59.387,71.689 59.44,71.648 59.375,71.631    59.352,71.567 59.315,71.624 59.249,71.626 59.291,71.679  "/>
	<polygon fill="#000000" points="59.585,71.766 59.647,71.741 59.704,71.778 59.699,71.712 59.753,71.67 59.688,71.652    59.665,71.59 59.628,71.646 59.562,71.648 59.604,71.701  "/>
	<polygon fill="#000000" points="59.875,71.776 59.938,71.752 59.994,71.79 59.99,71.723 60.043,71.682 59.978,71.664    59.955,71.602 59.919,71.658 59.852,71.66 59.895,71.712  "/>
	<polygon fill="#000000" points="58.971,71.979 59.033,71.955 59.089,71.992 59.085,71.926 59.138,71.885 59.073,71.867    59.05,71.805 59.014,71.86 58.946,71.863 58.989,71.915  "/>
	<polygon fill="#000000" points="59.252,71.979 59.315,71.954 59.371,71.992 59.366,71.925 59.42,71.884 59.354,71.866    59.332,71.804 59.296,71.86 59.229,71.862 59.271,71.914  "/>
	<polygon fill="#000000" points="59.564,72.001 59.628,71.977 59.684,72.015 59.68,71.947 59.732,71.906 59.667,71.889    59.645,71.826 59.608,71.883 59.541,71.885 59.584,71.937  "/>
	<polygon fill="#000000" points="59.855,72.012 59.918,71.987 59.974,72.025 59.97,71.958 60.022,71.917 59.958,71.899    59.935,71.837 59.898,71.894 59.831,71.896 59.874,71.948  "/>
	<polygon fill="#000000" points="58.926,72.225 58.988,72.2 59.044,72.238 59.04,72.171 59.093,72.13 59.028,72.112 59.005,72.05    58.969,72.106 58.902,72.108 58.944,72.161  "/>
	<polygon fill="#000000" points="59.208,72.225 59.271,72.2 59.326,72.237 59.322,72.171 59.375,72.129 59.311,72.112    59.287,72.049 59.251,72.105 59.184,72.107 59.227,72.16  "/>
	<polygon fill="#000000" points="59.521,72.247 59.583,72.223 59.639,72.26 59.635,72.193 59.688,72.151 59.623,72.135 59.6,72.071    59.563,72.128 59.496,72.13 59.539,72.183  "/>
	<polygon fill="#000000" points="59.811,72.258 59.873,72.233 59.929,72.271 59.925,72.204 59.978,72.163 59.913,72.146    59.89,72.083 59.854,72.139 59.787,72.142 59.829,72.193  "/>
</g>
</svg>