<svg fill="#000000" xmlns="http://www.w3.org/2000/svg" xmlns:xlink="http://www.w3.org/1999/xlink" version="1.1" x="0px" y="0px" viewBox="0 0 100 100" enable-background="new 0 0 100 100" xml:space="preserve"><g><path d="M31.641,14.296c-1.563-1.562-4.095-1.562-5.657,0c-1.562,1.563-1.562,4.095,0,5.657l29.933,29.932L25.973,80.058   c-1.556,1.567-1.546,4.101,0.021,5.656c0.78,0.774,1.799,1.161,2.818,1.161c1.029,0,2.057-0.395,2.839-1.183l32.75-33   c1.553-1.563,1.548-4.088-0.011-5.646L31.641,14.296z"/><path d="M71,13c-2.209,0-4,1.791-4,4v66c0,2.209,1.791,4,4,4s4-1.791,4-4V17C75,14.791,73.209,13,71,13z"/></g></svg>