<svg xmlns="http://www.w3.org/2000/svg" xmlns:xlink="http://www.w3.org/1999/xlink" version="1.1" x="0px" y="0px" viewBox="0 0 100 100" enable-background="new 0 0 100 100" xml:space="preserve"><path fill="#000000" d="M90.294,27.238H75.538c-5.062,0-9.028,3.793-9.028,8.637c0,0.939,0.156,1.903,0.438,2.817  c-0.359,0.611-0.721,1.243-1.091,1.918c-0.432,0.788-0.694,1.648-0.802,2.527c-0.558,0.077-1.25,0.14-1.577,0.14H15.921  c-0.994-0.002-2.03-0.003-3.024,0.256l-2.381-3.119c-0.768-0.995-2.107-1.365-3.188-0.931c-0.226,0.072-0.415,0.162-0.579,0.273  l-0.159,0.116c-0.592,0.457-0.971,1.116-1.066,1.857s0.104,1.476,0.561,2.068l2.212,2.868C7.2,48.25,6.625,50.094,6.625,52.044  c0,1.549,0.37,3.252,0.972,4.506l0.875,12.99c0.116,1.729,1.564,3.082,3.297,3.082c1.388,0,2.637-0.877,3.107-2.182l3.16-8.752  c1.975-0.41,3.827-1.504,5.226-3.087c9.189,2.714,25.596,7.032,36.918,7.032h2.458l0.957,4.564c0.345,1.51,1.669,2.564,3.221,2.564  h0.558c1.554,0,2.915-1.14,3.239-2.722l1.291-6.679c8.334-4.144,9.312-13.284,9.312-19.851v-1.4  c0.025-0.016,0.045-0.029,0.062-0.042l11.172-7.479c1.048-0.715,2.11-1.681,2.049-3.429C94.422,28.961,92.575,27.238,90.294,27.238z   M75.419,32.081c0.13,0,0.309,0.025,0.525,0.222c2.065,1.867,3.178,8.667,1.485,13.063c-0.913,2.374-2.436,3.577-4.522,3.577  c-0.894,0-1.711-0.085-2.428-0.254c-1.342-0.314-2.452-1.259-3.047-2.592c-0.646-1.45-0.58-3.142,0.178-4.526  C71.45,34.566,74.217,32.081,75.419,32.081z M70.599,61.77l-0.467,0.214L68.65,69.65c-0.13,0.634-0.68,1.112-1.278,1.112h-0.558  c-0.612,0-1.136-0.415-1.268-0.992l-1.285-6.137h-4.083c-11.334,0-28.036-4.472-36.982-7.137l-0.66-0.197l-0.419,0.546  c-1.251,1.629-3.059,2.71-4.959,2.965l-0.601,0.081l-3.563,9.869c-0.186,0.516-0.679,0.861-1.227,0.861  c-0.684,0-1.255-0.534-1.302-1.217L9.564,56.008l-0.097-0.186c-0.512-0.986-0.843-2.47-0.843-3.778c0-1.751,0.588-3.395,1.702-4.751  l0.505-0.615l-3.165-4.101c-0.13-0.169-0.187-0.379-0.16-0.59c0.022-0.171,0.097-0.327,0.198-0.438l0.165-0.135l0.133-0.049  c0.323-0.131,0.706-0.019,0.927,0.268l3.281,4.297l0.713-0.3c0.846-0.356,1.852-0.354,2.995-0.353h47.56  c0.34,0,0.994-0.052,1.613-0.129c0.097,0.603,0.263,1.197,0.516,1.764c0.851,1.908,2.461,3.266,4.416,3.724  c0.866,0.204,1.837,0.307,2.885,0.307c2.781,0,4.962-1.587,6.206-4.452C78.587,54.459,75.849,59.356,70.599,61.77z M91.328,32.934  l-11.069,7.41c0.016-3.886-1.068-7.803-2.973-9.525c-0.535-0.483-1.181-0.738-1.867-0.738c-1.907,0-4.22,2.043-6.897,6.076  c-0.004-0.094-0.013-0.189-0.013-0.282c0-3.784,3.021-6.637,7.028-6.637h14.756c1.218,0,2.166,0.856,2.205,1.993  C92.521,31.891,92.225,32.322,91.328,32.934z"></path></svg>