<svg fill="#000000" xmlns:dc="http://purl.org/dc/elements/1.1/" xmlns:cc="http://creativecommons.org/ns#" xmlns:rdf="http://www.w3.org/1999/02/22-rdf-syntax-ns#" xmlns:svg="http://www.w3.org/2000/svg" xmlns="http://www.w3.org/2000/svg" xmlns:sodipodi="http://sodipodi.sourceforge.net/DTD/sodipodi-0.dtd" xmlns:inkscape="http://www.inkscape.org/namespaces/inkscape" version="1.1" x="0px" y="0px" viewBox="0 0 100 100"><g transform="translate(0,-952.36218)"><path style="text-indent:0;text-transform:none;direction:ltr;block-progression:tb;baseline-shift:baseline;color:#000000;enable-background:accumulate;" d="m 50,959.8623 c -15.125,-0.0442 -27,12.21693 -27,27.25883 0,6.53088 3.36256,12.29949 6.59375,17.55707 3.23119,5.2576 6.28126,10.0548 6.28125,14.2397 0.0413,3.9767 0.0882,8.0421 0.125,11.4542 0.006,2.3421 0.64404,4.2995 2,5.6333 1.0092,0.9927 2.35942,1.6001 3.96875,1.8465 0.45631,3.9475 3.86756,7.0103 7.96875,7.0103 4.09947,0 7.4789,-3.0652 7.9375,-7.0103 1.67061,-0.2276 3.08555,-0.8159 4.125,-1.8465 1.35173,-1.3402 2,-3.3076 2,-5.6646 -0.0414,-3.9873 -0.0915,-8.0287 -0.125,-11.4543 0.0155,-4.1689 3.12273,-8.9626 6.40625,-14.2083 C 73.57299,999.41924 77,993.65345 77,987.12108 76.875,971.83584 64.875,959.81817 50,959.8623 z m 0,2.00295 c 13.81413,0 25,11.28714 25,25.25588 0,5.82229 -3.13776,11.27124 -6.40625,16.49297 -3.05415,4.8794 -6.15493,9.5387 -6.5625,14.3023 -2.02072,0 -4.73464,-0.023 -7.25,-0.031 0.96633,-6.2149 1.8267,-13.1303 2.71875,-19.15315 1.21968,0.10612 2.65944,-0.0687 3.71875,-0.46944 1.13491,-0.4119 1.49683,-1.21323 1.78125,-2.19072 0,-1.14181 -0.0587,-2.79089 -1.5,-4.16237 -1.625,-1.04566 -4.625,-1.04566 -5.28125,1.68999 -0.16912,1.00028 -0.30211,2.03636 -0.43745,2.97312 -1.63737,-0.1753 -3.17784,-0.21588 -4.31245,-0.97018 0.83701,-0.79479 1.65914,-1.80702 2.21875,-2.69146 0.51849,-0.82882 0.90625,-1.64398 0.90625,-2.56627 -0.31277,-2.53526 -1.71885,-4.48822 -4.65625,-4.47533 -3.0626,-0.0129 -4.48698,2.25809 -4.53125,4.47533 0,0.92229 0.38776,1.73745 0.90625,2.56627 0.68101,1.06035 1.44397,1.91264 2.21875,2.69146 -1.31221,0.82041 -2.88178,1.17202 -4.2812,1.34573 -0.16271,-1.02394 -0.30799,-2.43085 -0.46875,-3.34867 -0.9064,-1.73417 -2.9064,-2.73565 -5.28125,-1.68999 -1.44133,1.37148 -1.5,3.02056 -1.5,4.16237 0,0.99662 0.70651,1.79961 1.5,2.22202 1.40859,0.63641 2.63261,0.75677 4.03125,0.68856 0.91712,6.00033 1.86257,12.78113 2.71875,18.90283 -2.64657,0 -5.48873,0 -7.53125,0.031 -0.39991,-4.7564 -3.43955,-9.393 -6.4375,-14.271 -3.20835,-5.22043 -6.28125,-10.68984 -6.28125,-16.52432 C 24.875,972.83731 35.875,961.82111 50,961.86525 z m 0,26.03828 c 1.875,-0.0442 2.21084,1.26409 2.59375,2.44109 -0.39437,1.54526 -1.55259,2.82513 -2.59375,3.912 -1.19705,-1.18015 -2.13058,-2.32493 -2.59375,-3.912 C 47.64414,988.77398 47.875,987.8594 50,987.90353 z m -8.1876,6.04013 c 0.14413,0.82284 0.29118,2.12134 0.4375,3.03572 -1.34103,0.17196 -2.37652,-0.39137 -3.25,-0.90764 0,-1.14181 -0.0836,-1.77929 0.875,-2.69146 1.0001,-0.51352 1.40373,0.11874 1.9375,0.56338 z m 18.28135,-0.56333 C 61.05239,994.2925 61,994.92998 61,996.07179 c -0.93577,0.65414 -2.25611,0.63964 -3.2187,0.68851 0.16647,-0.99093 0.27561,-2.0181 0.40625,-2.97312 0.68745,-0.92042 1.28586,-0.50171 1.9062,-0.40685 z M 50,996.94808 c 0.875,0.92604 3.83949,1.43117 5.50005,1.56475 -0.91069,6.15907 -1.80977,13.17627 -2.78125,19.37227 -1.96163,-0.01 -3.516,0 -5.46875,0 -0.85177,-6.0861 -1.79333,-12.8812 -2.71875,-18.96542 1.99029,-0.54006 4.3437,-1.04556 5.4687,-1.9716 z m 11.875,22.97122 0.0937,7.0416 -24,-0.031 -0.0937,-7.0103 c 7.66778,-0.077 16.2874,-0.01 24,0 z m -23.90625,9.0133 24,0.031 c 0.0407,1.9087 -0.25008,4.4116 -1.37505,5.6333 -0.8855,0.8779 -2.24985,1.377 -4.28125,1.377 l -12.5625,0 c -2.06962,0 -3.4512,-0.5303 -4.34375,-1.4083 -1.41668,-2.0385 -1.38777,-3.392 -1.4375,-5.6333 z m 6.0625,9.0446 11.78125,0 c -0.48934,2.7936 -2.90954,4.9134 -5.875,4.9134 -2.9657,0 -5.41719,-2.1194 -5.90625,-4.9134 z" fill="#000000" fill-opacity="1" stroke="none" marker="none" visibility="visible" display="inline" overflow="visible"/></g></svg>