<svg fill="#000000" xmlns="http://www.w3.org/2000/svg" xmlns:xlink="http://www.w3.org/1999/xlink" version="1.1" x="0px" y="0px" viewBox="0 0 164 164" enable-background="new 0 0 164 164" xml:space="preserve"><path fill-rule="evenodd" clip-rule="evenodd" fill="#000000" d="M68.418,163.729h-43.76c-3.823,0-6.953-3.132-6.953-6.953v-84.2  c0-3.828,3.125-6.955,6.953-6.955h1.667V51.52c0-2.629,3.473-3.035,5.402-3.035H37.6l4.748-29.561c0.649-4.053,7.805-3.617,8.383,0  l4.75,29.561h5.868c1.94,0,5.404,0.394,5.404,3.035v14.101h1.666c3.817,0,6.954,3.137,6.954,6.955v84.2  C75.373,160.604,72.247,163.729,68.418,163.729L68.418,163.729z M132.609,141.441h-30.937c-1.189,0-2.153-0.964-2.153-2.152V74.604  c0-1.189,0.964-2.153,2.153-2.153h30.937c1.188,0,2.152,0.964,2.152,2.153v64.686C134.762,140.478,133.798,141.441,132.609,141.441  L132.609,141.441z M103.825,137.136h26.631v-60.38h-26.631V137.136L103.825,137.136z M108.201,32.759h-5.871  c-1.959,0-5.402,0.419-5.402,3.036v14.1h-1.667c-3.828,0-6.953,3.127-6.953,6.955v100.196c0,3.813,3.137,6.954,6.953,6.954h43.76  c3.818,0,6.954-3.136,6.954-6.954V56.849c0-3.819-3.136-6.955-6.954-6.955h-1.665v-14.1c0-2.633-3.458-3.036-5.404-3.036h-5.869  l-4.749-29.561c-0.578-3.605-7.732-4.062-8.384,0L108.201,32.759L108.201,32.759z M121.737,32.759h-9.19  c0.401-2.498,4.288-28.18,4.671-28.128L121.737,32.759L121.737,32.759z M133.05,49.895h-31.816V37.124  c0.317-0.038,0.688-0.059,1.097-0.059h29.621c0.403,0,0.775,0.022,1.099,0.063V49.895L133.05,49.895z M95.261,159.694h43.76  c1.446,0,2.648-1.204,2.648-2.649V56.849c0-1.445-1.202-2.649-2.648-2.649h-43.76c-1.455,0-2.647,1.195-2.647,2.649v100.196  C92.613,158.493,93.809,159.694,95.261,159.694L95.261,159.694z M28.854,77.466v74.417c0,1.188,0.964,2.152,2.153,2.152  s2.153-0.964,2.153-2.152V77.466c0-1.188-0.964-2.153-2.153-2.153S28.854,76.278,28.854,77.466L28.854,77.466z M41.945,48.485h9.19  l-4.52-28.128C46.233,20.305,42.346,45.987,41.945,48.485L41.945,48.485z M30.631,65.621h31.816V52.853  c-0.322-0.041-0.694-0.063-1.098-0.063H31.728c-0.403,0-0.774,0.022-1.097,0.063V65.621L30.631,65.621z M24.659,159.423h43.76  c1.455,0,2.648-1.192,2.648-2.647v-84.2c0-1.466-1.182-2.649-2.648-2.649h-43.76c-1.455,0-2.647,1.195-2.647,2.649v84.2  C22.011,158.236,23.199,159.423,24.659,159.423z"/></svg>