<svg xmlns="http://www.w3.org/2000/svg" xmlns:xlink="http://www.w3.org/1999/xlink" version="1.1" x="0px" y="0px" viewBox="0 0 100 100" enable-background="new 0 0 100 100" xml:space="preserve"><path fill="#000000" d="M87.807,62.456V15.164c0-4.507-3.561-8.174-7.938-8.174c-4.377,0-7.938,3.667-7.938,8.174v20.922  c-0.997-0.465-2.095-0.74-3.259-0.74c-3.381,0-6.254,2.198-7.396,5.27c-1.134-0.651-2.416-1.054-3.8-1.054  c-3.242,0-6.029,2.04-7.26,4.947c-1.165-0.631-2.498-1.02-3.937-1.02c-4.377,0-7.939,3.343-7.939,7.452v11.519v2.977v8.764  c0,8.05,5.789,17.848,22.102,18.967l1.071,0.084c1.397,0.116,3.216,0.266,5.242,0.266c5.185,0,11.717-0.985,15.932-6.061  c3.886-4.679,5.787-7.16,7.686-11.275c2.239-4.852,0.676-10.289-2.024-13.153L87.807,62.456z M76.61,15.164  c0-1.927,1.462-3.494,3.258-3.494c1.797,0,3.258,1.567,3.258,3.494v42.332l-6.131-6.499c-0.12-0.127-0.26-0.218-0.385-0.336V43.52  V15.164z M65.413,43.52c0-1.926,1.462-3.494,3.258-3.494s3.259,1.567,3.259,3.494v4.954c-2.253-0.265-4.573,0.378-6.318,2.025  c-0.076,0.072-0.127,0.158-0.2,0.232v-2.904V43.52z M65.413,61.848c0.013,0.014,0.021,0.03,0.034,0.043l4.711,4.993  c-0.46,0.255-0.964,0.411-1.486,0.411c-1.797,0-3.258-1.567-3.258-3.494V61.848z M54.216,47.827c0-1.977,1.462-3.584,3.259-3.584  s3.258,1.608,3.258,3.584v15.974v0.825c0,1.976-1.462,3.584-3.258,3.584s-3.259-1.608-3.259-3.584V50.941V47.827z M43.019,50.941  c0-1.529,1.462-2.772,3.259-2.772s3.258,1.244,3.258,2.772v13.685v0.812c0,1.529-1.462,2.772-3.258,2.772s-3.259-1.243-3.259-2.772  v-2.977V50.941z M86.124,74.223c-1.587,3.438-3.075,5.473-7.037,10.245c-4.307,5.186-13.011,4.466-17.19,4.121  c-0.42-0.034-0.801-0.066-1.136-0.089c-16.462-1.129-17.742-11.229-17.742-14.298v-1.987c0.997,0.424,2.095,0.674,3.259,0.674  c2.25,0,4.274-0.892,5.719-2.309c1.427,1.422,3.351,2.309,5.478,2.309c2.42,0,4.564-1.157,6.021-2.941  c1.394,1.246,3.189,2.027,5.175,2.027c1.495,0,2.953-0.431,4.217-1.247c0.189-0.122,0.345-0.273,0.486-0.434l0.334,0.354  c0.887,0.941,2.369,0.983,3.308,0.097c0.94-0.887,0.983-2.368,0.097-3.308l-8.261-8.757c-1.322-1.401-1.334-3.546-0.027-4.778  c1.306-1.233,3.447-1.096,4.768,0.305l11.352,12.033C86.548,67.943,87.429,71.394,86.124,74.223z"></path><path fill="#000000" d="M54.13,24.307c0.283,1.318,1.447,2.221,2.743,2.221c0.195,0,0.392-0.021,0.59-0.062  c1.516-0.324,2.483-1.817,2.159-3.333l-3.079-14.39c-0.325-1.516-1.818-2.478-3.333-2.159c-1.516,0.324-2.483,1.817-2.159,3.333  L54.13,24.307z"></path><path fill="#000000" d="M39.355,32.213L28.812,21.125c-1.069-1.123-2.846-1.169-3.97-0.101c-1.124,1.069-1.168,2.846-0.101,3.97  l10.542,11.087c0.552,0.58,1.293,0.873,2.036,0.873c0.695,0,1.391-0.256,1.934-0.772C40.378,35.114,40.422,33.336,39.355,32.213z"></path><path fill="#000000" d="M10.853,50.941l14.566,4.771c0.29,0.095,0.584,0.14,0.874,0.14c1.181,0,2.28-0.751,2.667-1.935  c0.483-1.473-0.321-3.06-1.794-3.542l-14.566-4.771c-1.47-0.48-3.059,0.32-3.542,1.794C8.576,48.872,9.379,50.458,10.853,50.941z"></path><path fill="#000000" d="M26,71.259l-14.913,3.495c-1.51,0.353-2.447,1.865-2.093,3.374c0.303,1.295,1.457,2.168,2.731,2.168  c0.212,0,0.427-0.024,0.643-0.075l14.913-3.495c1.51-0.353,2.447-1.865,2.093-3.374C29.02,71.843,27.513,70.908,26,71.259z"></path></svg>