<svg fill="#000000" xmlns:dc="http://purl.org/dc/elements/1.1/" xmlns:cc="http://creativecommons.org/ns#" xmlns:rdf="http://www.w3.org/1999/02/22-rdf-syntax-ns#" xmlns:svg="http://www.w3.org/2000/svg" xmlns="http://www.w3.org/2000/svg" xmlns:sodipodi="http://sodipodi.sourceforge.net/DTD/sodipodi-0.dtd" xmlns:inkscape="http://www.inkscape.org/namespaces/inkscape" viewBox="0 0 32 32.000001" version="1.1" x="0px" y="0px"><g transform="translate(0,-1020.3622)"><path style="color:#000000;font-style:normal;font-variant:normal;font-weight:normal;font-stretch:normal;font-size:medium;line-height:normal;font-family:sans-serif;text-indent:0;text-align:start;text-decoration:none;text-decoration-line:none;text-decoration-style:solid;text-decoration-color:#000000;letter-spacing:normal;word-spacing:normal;text-transform:none;direction:ltr;writing-mode:lr-tb;baseline-shift:baseline;text-anchor:start;white-space:normal;clip-rule:nonzero;display:inline;overflow:visible;visibility:visible;opacity:1;isolation:auto;mix-blend-mode:normal;color-interpolation:sRGB;color-interpolation-filters:linearRGB;solid-color:#000000;solid-opacity:1;fill:#000000;fill-opacity:1;fill-rule:nonzero;stroke:none;stroke-width:0.99999994;stroke-linecap:butt;stroke-linejoin:round;stroke-miterlimit:4;stroke-dasharray:none;stroke-dashoffset:0;stroke-opacity:1;color-rendering:auto;image-rendering:auto;shape-rendering:auto;text-rendering:auto;enable-background:accumulate" d="m 6.81127,1028.6119 c -0.53643,-1e-4 -1.04179,0.2863 -1.28901,0.7208 -0.0755,-0.012 -0.0833,0 -0.16015,0 -0.76618,2e-4 -1.41366,0.5734 -1.51752,1.3124 -0.60575,0.4091 -0.95693,1.0792 -0.95699,1.8201 0,1.2226 1.00822,2.2207 2.23429,2.2207 0.55173,-9e-4 1.12616,-0.2215 1.52543,-0.6076 0.29159,0.09 0.38831,0.098 0.7069,0.1135 0.50675,-2e-4 0.97365,-0.1609 1.36519,-0.4688 0.2866,0.164 0.61543,0.2592 1.00191,0.2598 l 0.002,0 c 0.23908,-4e-4 0.45449,-0.112 0.6777,-0.1915 0.39147,0.4763 0.93045,0.8146 1.56244,0.8145 1.14276,0 2.08391,-0.9303 2.08391,-2.0703 -7e-5,-1.0837 -0.8171,-1.9395 -1.8222,-2.0525 -0.21041,-0.9228 -1.04677,-1.627 -2.03312,-1.627 l -0.002,0 c -0.28968,5e-4 -0.43192,0.037 -0.69529,0.1289 -0.26346,-0.2425 -0.64226,-0.3689 -0.99214,-0.3691 -0.33604,2e-4 -0.57941,0.067 -0.84177,0.2637 -0.26184,-0.1655 -0.51203,-0.2629 -0.84763,-0.2637 l 0.31445,0.1113 c -0.0892,-0.073 -0.20102,-0.1131 -0.3164,-0.1133 z m -0.004,1.002 c 0.001,0 0.003,0 0.004,0 0.17525,4e-4 0.33705,0.086 0.43554,0.2265 0.19913,0.2835 0.61919,0.2835 0.81832,0 0.0987,-0.1406 0.26189,-0.2264 0.43749,-0.2265 0.18256,10e-5 0.35015,0.092 0.44724,0.2422 0.14676,0.2263 0.44665,0.2955 0.67771,0.1562 0.1698,-0.1028 0.36485,-0.1579 0.56443,-0.1582 0.60528,0 1.07947,0.4736 1.08199,1.0663 -3.1e-4,0 3.5e-4,0.01 0,0.012 -0.0294,0.3207 0.24745,0.5851 0.56639,0.541 0.041,-0.01 0.0817,-0.01 0.12303,-0.01 l 0.002,0 c 0.60591,10e-4 1.08195,0.476 1.08199,1.0703 0,0.5949 -0.47706,1.0702 -1.08395,1.0702 -0.41019,10e-5 -0.78216,-0.2269 -0.96675,-0.5859 -0.13319,-0.258 -0.45733,-0.3487 -0.70505,-0.1973 -0.17012,0.1041 -0.36785,0.1595 -0.56834,0.1602 -0.26561,-4e-4 -0.521,-0.098 -0.71872,-0.2715 -0.20931,-0.1832 -0.52791,-0.1604 -0.70897,0.051 -0.2341,0.2726 -0.57815,0.4295 -0.94136,0.4297 -0.20838,-10e-5 -0.41345,-0.051 -0.59568,-0.1504 -0.21921,-0.1189 -0.49249,-0.058 -0.6406,0.1426 -0.23158,0.3145 -0.60071,0.5012 -0.99605,0.5019 -0.6902,0 -1.23433,-0.5431 -1.23433,-1.2206 4e-5,-0.4586 0.25813,-0.8763 0.6738,-1.0859 0.18285,-0.093 0.29047,-0.2879 0.27147,-0.4921 -10e-4,-0.011 -0.002,-0.022 -0.002,-0.033 8e-5,-0.2914 0.22886,-0.5206 0.52928,-0.5215 0.0787,2e-4 0.15763,0.018 0.2285,0.051 0.2924,0.1365 0.63562,-0.036 0.70114,-0.3515 0.0504,-0.243 0.26205,-0.4146 0.51756,-0.416 z"/><path style="color:#000000;font-style:normal;font-variant:normal;font-weight:normal;font-stretch:normal;font-size:medium;line-height:normal;font-family:sans-serif;text-indent:0;text-align:start;text-decoration:none;text-decoration-line:none;text-decoration-style:solid;text-decoration-color:#000000;letter-spacing:normal;word-spacing:normal;text-transform:none;direction:ltr;writing-mode:lr-tb;baseline-shift:baseline;text-anchor:start;white-space:normal;clip-rule:nonzero;display:inline;overflow:visible;visibility:visible;opacity:1;isolation:auto;mix-blend-mode:normal;color-interpolation:sRGB;color-interpolation-filters:linearRGB;solid-color:#000000;solid-opacity:1;fill:#000000;fill-opacity:1;fill-rule:nonzero;stroke:none;stroke-width:0.99999994;stroke-linecap:round;stroke-linejoin:round;stroke-miterlimit:4;stroke-dasharray:none;stroke-dashoffset:0;stroke-opacity:1;color-rendering:auto;image-rendering:auto;shape-rendering:auto;text-rendering:auto;enable-background:accumulate" d="m 19.25024,1022.8622 c -0.70271,0 -1.34447,0.3058 -1.74798,0.746 -0.35172,-0.1881 -0.72643,-0.2735 -1.13081,-0.2734 -0.67498,6e-4 -1.302,0.2816 -1.75579,0.7636 -0.18176,-0.043 -0.33265,-0.054 -0.51951,-0.055 l -0.002,0 c -0.74588,0 -1.46111,0.3379 -1.91204,0.9395 -0.0633,-0.01 -0.0634,0.01 -0.12694,0.01 -1.12218,6e-4 -2.10747,0.7758 -2.33975,1.8358 -0.9225,0.3486 -1.51689,1.2077 -1.51752,2.2069 -0.01,0.6762 1.00952,0.6762 0.99996,0 4e-4,-0.6352 0.43583,-1.1876 1.07027,-1.3456 0.20566,-0.051 0.3567,-0.2265 0.37693,-0.4375 0.0683,-0.7143 0.67039,-1.2593 1.41011,-1.2596 0.0895,0 0.18006,0.01 0.26757,0.025 0.21076,0.039 0.42286,-0.061 0.52732,-0.2481 0.24782,-0.4433 0.72223,-0.7219 1.24214,-0.7226 0.17534,5e-4 0.34793,0.032 0.50974,0.094 0.21642,0.083 0.46133,0.01 0.59177,-0.1855 0.26169,-0.3837 0.7034,-0.6162 1.1777,-0.6173 0.33643,0 0.66234,0.1181 0.91792,0.3302 0.23479,0.1945 0.5875,0.1354 0.74607,-0.125 0.25141,-0.4127 0.70761,-0.6613 1.19918,-0.668 0.005,0 0.009,0 0.0137,0 0.50091,4e-4 0.9619,0.2594 1.21675,0.6778 0.15857,0.2604 0.51127,0.3195 0.74606,0.125 0.25519,-0.2119 0.58004,-0.3299 0.91598,-0.3302 0.475,5e-4 0.9157,0.2349 1.17769,0.6192 0.13022,0.1906 0.37395,0.2672 0.58981,0.1855 0.16272,-0.062 0.33593,-0.095 0.50976,-0.096 0.51115,8e-4 0.97932,0.2694 1.23042,0.7012 0.0891,0.1542 0.25349,0.2495 0.43162,0.25 l 0.002,0 c 0.11922,0 0.16357,-0.01 0.13476,-0.01 0.72618,10e-4 1.32114,0.5288 1.40424,1.2284 0.0275,0.23 0.20931,0.411 0.43944,0.4375 0.72115,0.083 1.25238,0.6726 1.25385,1.3768 -6.7e-4,0.1689 -0.0337,0.3362 -0.0957,0.4942 -0.0862,0.2195 -0.007,0.4694 0.18944,0.5996 0.39245,0.2597 0.62455,0.6896 0.62498,1.1503 -2.9e-4,0.3256 -0.11757,0.64 -0.33202,0.8906 -0.20202,0.2365 -0.14128,0.5982 0.12695,0.7558 0.42781,0.253 0.68505,0.7036 0.68552,1.1894 -0.002,0.4846 -0.25869,0.9331 -0.68552,1.1855 -0.26822,0.1576 -0.32896,0.5192 -0.12695,0.7558 0.21478,0.251 0.33207,0.5664 0.33202,0.8925 -0.001,0.4599 -0.23306,0.891 -0.62498,1.1503 -0.19663,0.1302 -0.27559,0.3801 -0.18944,0.5997 0.0622,0.1585 0.0953,0.3247 0.0957,0.4941 -6.5e-4,0.7043 -0.53079,1.295 -1.2519,1.3788 -0.22949,0.026 -0.41113,0.2063 -0.43943,0.4356 -0.0839,0.6995 -0.67997,1.2277 -1.4062,1.2284 0.0289,0 -0.0156,-0.01 -0.13476,-0.01 -0.17773,1e-4 -0.34206,0.094 -0.43162,0.248 -0.25066,0.4322 -0.71925,0.7039 -1.23043,0.705 -0.17519,-4e-4 -0.34782,-0.034 -0.50974,-0.096 -0.21642,-0.083 -0.46133,-0.01 -0.59177,0.1856 -0.26203,0.3844 -0.70271,0.6168 -1.17769,0.6172 -0.33583,-2e-4 -0.66072,-0.1162 -0.91598,-0.3281 -0.23423,-0.1948 -0.5868,-0.1367 -0.74606,0.123 -0.25457,0.4177 -0.7146,0.6767 -1.2148,0.6777 -0.50039,-8e-4 -0.96017,-0.2598 -1.2148,-0.6777 -0.15926,-0.2597 -0.51184,-0.3178 -0.74607,-0.123 -0.25513,0.2118 -0.58029,0.3278 -0.91597,0.3281 -0.47497,-4e-4 -0.91762,-0.2328 -1.17965,-0.6172 -0.13022,-0.1906 -0.37395,-0.2672 -0.58981,-0.1856 -0.16247,0.062 -0.33591,0.095 -0.50975,0.096 -0.52142,3e-4 -0.99808,-0.2797 -1.24604,-0.7245 -0.1052,-0.1895 -0.32048,-0.2897 -0.53318,-0.2481 -0.0836,0.016 -0.16928,0.027 -0.25781,0.027 -0.7391,0 -1.34187,-0.5479 -1.4101,-1.2616 -0.0205,-0.2115 -0.17246,-0.387 -0.37889,-0.4375 -0.31747,-0.079 -0.5829,-0.2559 -0.77145,-0.4941 -0.41025,-0.5528 -1.22803,0.096 -0.78318,0.6211 0.26653,0.3366 0.57706,0.5888 0.99411,0.746 0.25858,1.0565 1.22542,1.8245 2.34756,1.8261 0.066,-7e-4 0.0589,0.01 0.11531,0 0.45502,0.5708 1.17739,0.9457 1.92376,0.9454 0.18707,0.011 0.37009,-0.041 0.5176,-0.057 0.45379,0.4823 1.08452,0.7629 1.7597,0.7636 0.40459,1e-4 0.77509,-0.085 1.1269,-0.2734 0.45444,0.5148 1.04777,0.7447 1.74994,0.746 0.82727,-0.023 1.3572,-0.3614 1.75779,-0.7441 0.35099,0.1878 0.7174,0.2712 1.12105,0.2715 0.67518,-7e-4 1.30981,-0.2813 1.76361,-0.7636 0.18198,0.043 0.3264,0.056 0.51365,0.057 l 0.002,0 c 0.74699,-8e-4 1.47119,-0.3755 1.92571,-0.9493 1.01286,-0.049 1.9441,-0.7692 2.20304,-1.7421 1.04262,-0.2712 1.76844,-1.2368 1.76555,-2.2947 l 0,0 c -4.5e-4,-0.183 -0.0281,-0.3539 -0.0469,-0.4961 0.48631,-0.447 0.7649,-1.0769 0.76559,-1.7461 6e-5,-0.3978 -0.10884,-0.7872 -0.26952,-1.1132 0.46803,-0.4357 0.74858,-1.0248 0.74997,-1.7206 l 0,0 c -6.8e-4,-0.6964 -0.28173,-1.2472 -0.74997,-1.7304 0.14863,-0.3097 0.26917,-0.7064 0.26952,-1.1034 -6.2e-4,-0.6695 -0.28682,-1.3049 -0.7734,-1.7519 0.0422,-0.177 0.0542,-0.3074 0.0547,-0.4903 10e-6,-10e-4 10e-6,0 0,0 -0.002,-1.0968 -0.73646,-2.0225 -1.77922,-2.2928 -0.27466,-1.0093 -1.13537,-1.6571 -2.18936,-1.744 -0.45445,-0.5714 -1.18069,-0.9443 -1.92572,-0.9454 l -0.002,0 c -0.18765,5e-4 -0.32829,0.012 -0.50976,0.055 -0.45376,-0.4821 -1.09244,-0.7629 -1.7675,-0.7636 -0.40368,4e-4 -0.77001,0.089 -1.12105,0.2773 -0.5037,-0.4799 -1.0696,-0.7522 -1.75579,-0.7597 z"/><path style="color:#000000;font-style:normal;font-variant:normal;font-weight:normal;font-stretch:normal;font-size:medium;line-height:normal;font-family:sans-serif;text-indent:0;text-align:start;text-decoration:none;text-decoration-line:none;text-decoration-style:solid;text-decoration-color:#000000;letter-spacing:normal;word-spacing:normal;text-transform:none;direction:ltr;writing-mode:lr-tb;baseline-shift:baseline;text-anchor:start;white-space:normal;clip-rule:nonzero;display:inline;overflow:visible;visibility:visible;opacity:1;isolation:auto;mix-blend-mode:normal;color-interpolation:sRGB;color-interpolation-filters:linearRGB;solid-color:#000000;solid-opacity:1;fill:#000000;fill-opacity:1;fill-rule:evenodd;stroke:none;stroke-width:0.99999994px;stroke-linecap:round;stroke-linejoin:round;stroke-miterlimit:4;stroke-dasharray:none;stroke-dashoffset:0;stroke-opacity:1;color-rendering:auto;image-rendering:auto;shape-rendering:auto;text-rendering:auto;enable-background:accumulate" d="m 20.49238,1045.8611 a 0.50003043,0.50002618 0 0 0 -0.49217,0.5078 l 0,3.4862 a 0.50003043,0.50002618 0 1 0 0.99996,0 l 0,-3.4862 a 0.50003043,0.50002618 0 0 0 -0.50779,-0.5078 z"/><path style="color:#000000;font-style:normal;font-variant:normal;font-weight:normal;font-stretch:normal;font-size:medium;line-height:normal;font-family:sans-serif;text-indent:0;text-align:start;text-decoration:none;text-decoration-line:none;text-decoration-style:solid;text-decoration-color:#000000;letter-spacing:normal;word-spacing:normal;text-transform:none;direction:ltr;writing-mode:lr-tb;baseline-shift:baseline;text-anchor:start;white-space:normal;clip-rule:nonzero;display:inline;overflow:visible;visibility:visible;opacity:1;isolation:auto;mix-blend-mode:normal;color-interpolation:sRGB;color-interpolation-filters:linearRGB;solid-color:#000000;solid-opacity:1;fill:#000000;fill-opacity:1;fill-rule:evenodd;stroke:none;stroke-width:0.99999982;stroke-linecap:round;stroke-linejoin:round;stroke-miterlimit:4;stroke-dasharray:none;stroke-dashoffset:0;stroke-opacity:1;color-rendering:auto;image-rendering:auto;shape-rendering:auto;text-rendering:auto;enable-background:accumulate" d="m 3.46374,1032.4457 a 0.50003034,0.50002609 0 0 0 -0.44724,0.2441 c -0.48664,0.7915 -0.92781,0.9526 -1.75774,1.4122 a 0.50003034,0.50002609 0 0 0 -0.17382,0.7167 c 0,0 0.1789,0.2675 0.42966,0.5605 0.25077,0.293 0.53607,0.634 0.99996,0.7949 0.98094,0.3403 2.07671,0.032 2.70497,-0.2813 a 0.50003034,0.50002609 0 1 0 -0.44529,-0.8944 c -0.35881,0.1791 -1.44358,0.4017 -1.93156,0.2324 -0.0577,-0.02 -0.36038,-0.259 -0.56834,-0.5019 -0.0211,-0.025 -0.0173,-0.023 -0.0371,-0.047 0.5931,-0.3348 1.15469,-0.6944 1.6308,-1.4688 a 0.50003034,0.50002609 0 0 0 -0.40429,-0.7675 z"/><path style="color:#000000;font-style:normal;font-variant:normal;font-weight:normal;font-stretch:normal;font-size:medium;line-height:normal;font-family:sans-serif;text-indent:0;text-align:start;text-decoration:none;text-decoration-line:none;text-decoration-style:solid;text-decoration-color:#000000;letter-spacing:normal;word-spacing:normal;text-transform:none;direction:ltr;writing-mode:lr-tb;baseline-shift:baseline;text-anchor:start;white-space:normal;clip-rule:nonzero;display:inline;overflow:visible;visibility:visible;opacity:1;isolation:auto;mix-blend-mode:normal;color-interpolation:sRGB;color-interpolation-filters:linearRGB;solid-color:#000000;solid-opacity:1;fill:#000000;fill-opacity:1;fill-rule:evenodd;stroke:none;stroke-width:0.99999982;stroke-linecap:butt;stroke-linejoin:round;stroke-miterlimit:4;stroke-dasharray:none;stroke-dashoffset:0;stroke-opacity:1;color-rendering:auto;image-rendering:auto;shape-rendering:auto;text-rendering:auto;enable-background:accumulate" d="m 5.62968,1034.184 -0.99996,0.014 c 0,0 9.3e-4,1.5013 0.20702,2.3826 0.21429,0.9161 0.4701,1.9372 1.10934,2.7831 0.45429,0.601 1.07973,1.1269 1.83195,1.3808 0.46744,0.1576 0.97704,0.1563 1.44135,0 0.75699,-0.2516 1.39858,-0.7718 1.86321,-1.3808 0.6432,-0.8431 0.90246,-1.8667 1.11128,-2.787 l 0,0 c 0.20114,-0.8887 0.17578,-2.3865 0.17578,-2.3865 l -0.99997,0 c 0,0 -0.0156,1.5683 -0.15038,2.1619 -0.20303,0.8949 -0.45179,1.7733 -0.9316,2.4023 -0.35768,0.4688 -0.86617,0.8666 -1.38471,1.039 -0.24746,0.082 -0.56135,0.082 -0.80466,0 -0.50586,-0.1707 -1.00219,-0.5697 -1.35541,-1.037 -0.47757,-0.632 -0.72384,-1.5096 -0.93356,-2.4062 -0.14031,-0.6 -0.17968,-2.1698 -0.17968,-2.1698 z"/><path style="color:#000000;font-style:normal;font-variant:normal;font-weight:normal;font-stretch:normal;font-size:medium;line-height:normal;font-family:sans-serif;text-indent:0;text-align:start;text-decoration:none;text-decoration-line:none;text-decoration-style:solid;text-decoration-color:#000000;letter-spacing:normal;word-spacing:normal;text-transform:none;direction:ltr;writing-mode:lr-tb;baseline-shift:baseline;text-anchor:start;white-space:normal;clip-rule:nonzero;display:inline;overflow:visible;visibility:visible;opacity:1;isolation:auto;mix-blend-mode:normal;color-interpolation:sRGB;color-interpolation-filters:linearRGB;solid-color:#000000;solid-opacity:1;fill:#000000;fill-opacity:1;fill-rule:evenodd;stroke:none;stroke-width:0.99999982;stroke-linecap:round;stroke-linejoin:round;stroke-miterlimit:4;stroke-dasharray:none;stroke-dashoffset:0;stroke-opacity:1;color-rendering:auto;image-rendering:auto;shape-rendering:auto;text-rendering:auto;enable-background:accumulate" d="m 13.52976,1032.4379 a 0.50003034,0.50002609 0 0 0 -0.43943,0.7675 c 0.48158,0.7834 1.0659,1.1454 1.66985,1.4805 -0.0182,0.022 -0.014,0.02 -0.0332,0.043 -0.20795,0.243 -0.5126,0.4819 -0.57028,0.5019 -0.48798,0.1693 -1.57077,-0.053 -1.92962,-0.2324 a 0.50005035,0.5000461 0 1 0 -0.44724,0.8945 c 0.62827,0.3136 1.72404,0.6215 2.70497,0.2812 0.4639,-0.1609 0.75115,-0.5019 1.00191,-0.7949 0.25076,-0.2929 0.42772,-0.5605 0.42772,-0.5605 a 0.50003034,0.50002609 0 0 0 -0.17187,-0.7167 c -0.83421,-0.462 -1.31931,-0.6369 -1.80071,-1.4199 a 0.50003034,0.50002609 0 0 0 -0.41209,-0.2442 z"/><path style="opacity:1;fill:#000000;fill-opacity:1;stroke:none;stroke-width:0.99999994;stroke-linecap:round;stroke-linejoin:round;stroke-miterlimit:4;stroke-dasharray:none;stroke-dashoffset:0;stroke-opacity:1" d="m 7.74996,1035.862 a 0.4999804,0.49997615 0 0 1 -0.49998,0.5 0.4999804,0.49997615 0 0 1 -0.49999,-0.5 0.4999804,0.49997615 0 0 1 0.49999,-0.4999 0.4999804,0.49997615 0 0 1 0.49998,0.4999 z"/><path style="opacity:1;fill:#000000;fill-opacity:1;stroke:none;stroke-width:0.99999994;stroke-linecap:round;stroke-linejoin:round;stroke-miterlimit:4;stroke-dasharray:none;stroke-dashoffset:0;stroke-opacity:1" d="m 10.24986,1035.862 a 0.4999804,0.49997615 0 0 1 -0.49998,0.5 0.4999804,0.49997615 0 0 1 -0.49998,-0.5 0.4999804,0.49997615 0 0 1 0.49998,-0.4999 0.4999804,0.49997615 0 0 1 0.49998,0.4999 z"/><path style="color:#000000;font-style:normal;font-variant:normal;font-weight:normal;font-stretch:normal;font-size:medium;line-height:normal;font-family:sans-serif;text-indent:0;text-align:start;text-decoration:none;text-decoration-line:none;text-decoration-style:solid;text-decoration-color:#000000;letter-spacing:normal;word-spacing:normal;text-transform:none;direction:ltr;writing-mode:lr-tb;baseline-shift:baseline;text-anchor:start;white-space:normal;clip-rule:nonzero;display:inline;overflow:visible;visibility:visible;opacity:1;isolation:auto;mix-blend-mode:normal;color-interpolation:sRGB;color-interpolation-filters:linearRGB;solid-color:#000000;solid-opacity:1;fill:#000000;fill-opacity:1;fill-rule:evenodd;stroke:none;stroke-width:0.99999994px;stroke-linecap:round;stroke-linejoin:round;stroke-miterlimit:4;stroke-dasharray:none;stroke-dashoffset:0;stroke-opacity:1;color-rendering:auto;image-rendering:auto;shape-rendering:auto;text-rendering:auto;enable-background:accumulate" d="m 16.99251,1045.8611 a 0.50003043,0.50002618 0 0 0 -0.49217,0.5078 l 0,3.4862 a 0.50003043,0.50002618 0 1 0 0.99996,0 l 0,-3.4862 a 0.50003043,0.50002618 0 0 0 -0.50779,-0.5078 z"/></g></svg>