<svg fill="#000000" xmlns="http://www.w3.org/2000/svg" xmlns:xlink="http://www.w3.org/1999/xlink" version="1.1" x="0px" y="0px" viewBox="0 0 100 100" enable-background="new 0 0 100 100" xml:space="preserve"><g><path d="M50.001,16.599c-18.418,0-33.402,14.984-33.402,33.401c0,18.418,14.984,33.401,33.402,33.401   c18.417,0,33.4-14.983,33.4-33.401C83.401,31.583,68.418,16.599,50.001,16.599z M50.001,80.401   c-16.764,0-30.402-13.638-30.402-30.401c0-16.763,13.639-30.401,30.402-30.401c16.763,0,30.4,13.638,30.4,30.401   C80.401,66.764,66.764,80.401,50.001,80.401z"/><path d="M56.265,59.6c0,2.142-2.869,3.951-6.265,3.951c-3.337,0-6.265-1.77-6.265-3.786v-5.287h-3v5.287   c0,3.742,4.156,6.786,9.265,6.786s9.265-3.118,9.265-6.951v-5.452h-3V59.6z"/><path d="M30.34,39.278c-4.835,0-8.756,3.92-8.756,8.756c0,4.836,3.921,8.756,8.756,8.756c4.836,0,8.757-3.92,8.757-8.756   C39.097,43.199,35.176,39.278,30.34,39.278z M27.301,47.652c-1.467,0-2.656-1.189-2.656-2.656s1.189-2.657,2.656-2.657   c1.468,0,2.656,1.189,2.656,2.657S28.769,47.652,27.301,47.652z"/><path d="M69.66,39.278c-4.836,0-8.757,3.92-8.757,8.756c0,4.836,3.921,8.756,8.757,8.756c4.835,0,8.756-3.92,8.756-8.756   C78.416,43.199,74.495,39.278,69.66,39.278z M66.62,47.652c-1.467,0-2.656-1.189-2.656-2.656s1.189-2.657,2.656-2.657   c1.468,0,2.657,1.189,2.657,2.657S68.088,47.652,66.62,47.652z"/><circle cx="22.41" cy="55.813" r="1.678"/><circle cx="77.59" cy="55.813" r="1.678"/></g></svg>