<svg xmlns="http://www.w3.org/2000/svg" xmlns:xlink="http://www.w3.org/1999/xlink" version="1.1" x="0px" y="0px" width="100px" height="100px" viewBox="0 0 100 100" enable-background="new 0 0 100 100" xml:space="preserve">
<g id="Captions">
</g>
<g id="Your_Icon">
	<g>
		<path d="M66.57,37.969L6.395,38.437v0.259l-2.822-0.072C3.44,38.411,3.25,38.23,3.031,38.151l-0.425-0.155    c-0.111-0.312-0.337-0.613-0.604-0.754l-1.325-0.701C0.305,36.344,0,36.527,0,36.949v6.476c0,0.421,0.305,0.605,0.677,0.408    l1.325-0.701c0.266-0.141,0.493-0.441,0.604-0.754l0.425-0.155c0.219-0.08,0.409-0.259,0.542-0.473l2.822-0.072v0.259    l60.176,0.468c4.954,0,8.969,4.016,8.969,8.97s-4.015,8.97-8.969,8.97H29.854c-4.954,0-8.97-4.016-8.97-8.97    c0-3.535,2.049-6.728,5.02-8.273l-6.55-0.051c-1.816,2.287-2.906,5.176-2.906,8.324c0,7.404,6.001,13.405,13.405,13.405H66.57    c7.402,0,13.404-6.001,13.404-13.405S73.973,37.969,66.57,37.969z"/>
		<path d="M98.652,23.776c-1.578,14.193-20.501,14.193-20.501,14.193h-6.305c2.368,0.936,4.43,2.475,5.992,4.435h0.312    c0,0,18.923,0,20.501,14.192c0,0,0.031,0.402,0.69,0.402v-0.402V23.776v-0.401C98.684,23.375,98.652,23.776,98.652,23.776z"/>
	</g>
</g>
</svg>
