<svg fill="#000000" xmlns="http://www.w3.org/2000/svg" xmlns:xlink="http://www.w3.org/1999/xlink" version="1.1" x="0px" y="0px" viewBox="0 0 100 100" style="enable-background:new 0 0 100 100;" xml:space="preserve"><path d="M80.187,38.952C71.771,35.666,61.615,34,50,34s-21.771,1.666-30.188,4.952C18.497,39.466,15,40.832,15,45v16  c0,1.236,0,5,6,5h14.167c0.407,0,0.773-0.246,0.927-0.623C38.406,59.68,43.865,56,50,56s11.594,3.68,13.906,9.377  C64.06,65.754,64.426,66,64.833,66H79c6,0,6-3.764,6-5V45C85,40.832,81.503,39.466,80.187,38.952z M83,61c0,1.266,0,3-4,3H65.492  C62.734,57.902,56.727,54,50,54s-12.734,3.902-15.492,10H21c-4,0-4-1.734-4-3V45c0-2.326,1.415-3.355,3.54-4.185  C28.607,37.665,38.794,36,50,36s21.393,1.665,29.459,4.815C81.585,41.645,83,42.674,83,45V61z"/><path d="M20,48c0.256,0,0.512-0.098,0.707-0.293l4-4c0.391-0.391,0.391-1.023,0-1.414s-1.023-0.391-1.414,0l-4,4  c-0.391,0.391-0.391,1.023,0,1.414C19.488,47.902,19.744,48,20,48z"/><path d="M29.293,42.293l-10,10c-0.391,0.391-0.391,1.023,0,1.414C19.488,53.902,19.744,54,20,54s0.512-0.098,0.707-0.293l10-10  c0.391-0.391,0.391-1.023,0-1.414S29.684,41.902,29.293,42.293z"/><path d="M94,45h-3c0-5.36-3.239-9.373-9.629-11.929C75.587,30.758,65.449,28,50,28s-25.587,2.758-31.371,5.071  C12.239,35.627,9,39.64,9,45H6c-0.553,0-1,0.448-1,1v16c0,0.553,0.447,1,1,1h3.155c0.831,5.6,5.202,9,11.845,9h19  c0.553,0,1-0.447,1-1c0-4.963,4.037-9,9-9s9,4.037,9,9c0,0.553,0.447,1,1,1h19c6.643,0,11.014-3.4,11.845-9H94c0.553,0,1-0.447,1-1  V46C95,45.448,94.553,45,94,45z M7,61V47h2v14H7z M79,70H60.955C60.448,64.401,55.729,60,50,60s-10.448,4.401-10.955,10H21  c-6.262,0-10-3.364-10-9V46v-1c0-4.524,2.738-7.818,8.371-10.071C24.992,32.68,34.869,30,50,30s25.008,2.68,30.629,4.929  C86.262,37.182,89,40.476,89,45v1v15C89,66.636,85.262,70,79,70z M93,61h-2V47h2V61z"/></svg>