<svg fill="#000000" xmlns="http://www.w3.org/2000/svg" xmlns:xlink="http://www.w3.org/1999/xlink" xmlns:a="http://ns.adobe.com/AdobeSVGViewerExtensions/3.0/" version="1.1" x="0px" y="0px" viewBox="-3.708 -28.441 100 100" overflow="visible" enable-background="new -3.708 -28.441 100 100" xml:space="preserve"><path d="M73.616,0C63.99,0,53.443,5.677,46.294,14.281C39.141,5.677,28.592,0,18.968,0C9.797,0,0,5.663,0,21.558  c0,15.895,9.797,21.56,18.968,21.56c9.624,0,20.173-5.671,27.326-14.278c7.149,8.607,17.696,14.278,27.322,14.278  c9.169,0,18.968-5.665,18.968-21.56C92.584,5.663,82.785,0,73.616,0z M18.968,31.396c-3.373,0-7.247-1.122-7.247-9.839  c0-8.719,3.874-9.837,7.247-9.837c5.883,0,13.14,3.945,18.137,9.84C32.111,27.454,24.854,31.396,18.968,31.396z M73.616,31.396  c-5.887,0-13.144-3.942-18.132-9.836c4.992-5.895,12.245-9.84,18.132-9.84c3.373,0,7.247,1.118,7.247,9.837  C80.863,30.28,76.989,31.396,73.616,31.396z"/></svg>