<svg fill="#000000" xmlns:dc="http://purl.org/dc/elements/1.1/" xmlns:cc="http://creativecommons.org/ns#" xmlns:rdf="http://www.w3.org/1999/02/22-rdf-syntax-ns#" xmlns:svg="http://www.w3.org/2000/svg" xmlns="http://www.w3.org/2000/svg" xmlns:sodipodi="http://sodipodi.sourceforge.net/DTD/sodipodi-0.dtd" xmlns:inkscape="http://www.inkscape.org/namespaces/inkscape" version="1.1" x="0px" y="0px" viewBox="0 0 100 100"><g transform="translate(0,-952.36218)"><path style="text-indent:0;text-transform:none;direction:ltr;block-progression:tb;baseline-shift:baseline;color:#000000;enable-background:accumulate;" d="m 67.872687,978.50148 c 0.082,1.57097 1.5858,2.92581 3.1568,2.84372 l 10.75,0 -27.0312,27.0313 -13.5313,-10.1563 c -0.6219,-0.64577 -1.5448,-0.98887 -2.4375,-0.90625 -0.6617,0.0635 -1.2995,0.35439 -1.7812,0.8125 L 8.9982865,1024.1264 c -1.2447,1.038 -1.3829,3.1465 -0.2844,4.338 1.0986,1.1916 3.2113005,1.2248 4.3468005,0.068 l 26.1563,-24.3125 13.1875,9.875 c 1.1969,1.2588 3.1328,1.4625 4.75,0.3438 l 28.875,-28.87505 0,10.78125 c -0.022,1.58494 1.4149,3.04273 3,3.04273 1.585102,0 3.022402,-1.45779 3.000002,-3.04273 l 0,-18 c -2e-4,-1.57075 -1.4292,-2.99984 -3.000002,-3 l -18,0 c -1.7838,0.0116 -3.1813,1.80894 -3.1568,3.15628 z" fill="#000000" fill-opacity="1" stroke="none" marker="none" visibility="visible" display="inline" overflow="visible"/></g></svg>