<svg xmlns="http://www.w3.org/2000/svg" xmlns:xlink="http://www.w3.org/1999/xlink" version="1.1" id="Layer_1" x="0px" y="0px" width="100px" height="100px" viewBox="0 0 100 100" enable-background="new 0 0 100 100" xml:space="preserve">
<path d="M50,0C22.461,0,0,22.462,0,50c0,27.54,22.461,50,50,50s50-22.46,50-50C100,22.462,77.539,0,50,0z M43.771,15.246  c0-3.426,2.802-6.229,6.229-6.229c3.426,0,6.229,2.804,6.229,6.229v27.869c0,3.426-2.804,6.229-6.229,6.229  c-3.427,0-6.229-2.804-6.229-6.229V15.246z M49.999,84.591c-19.1,0-34.59-15.489-34.59-34.591c0-9.848,4.625-18.229,11.233-24.53  c5.948-4.634,14,3.495,8.173,9.346c-3.887,3.887-6.291,9.256-6.291,15.185c0,11.858,9.617,21.478,21.475,21.478  c11.858,0,21.476-9.619,21.476-21.478c0-5.714-1.727-10.149-5.367-13.997c-3.047-3.014-6.037-7.062-2.065-11.074  c4.577-4.632,9.661,0.091,12.836,3.598C82.26,34.627,84.59,41.229,84.59,50C84.59,69.102,69.1,84.591,49.999,84.591z"/>
</svg>
