<svg fill="#000000" xmlns="http://www.w3.org/2000/svg" xmlns:xlink="http://www.w3.org/1999/xlink" version="1.1" x="0px" y="0px" viewBox="255.1 378.4 85 85" style="enable-background:new 255.1 378.4 85 85;" xml:space="preserve"><style type="text/css">
	.st0{fill:none;stroke:#000000;stroke-width:1.901;stroke-linecap:round;stroke-linejoin:round;stroke-miterlimit:10;}
	.st1{fill:none;stroke:#000000;stroke-width:1.83;stroke-linecap:round;stroke-linejoin:round;stroke-miterlimit:10;}
</style><polyline class="st0" points="305.8,399.2 305.8,389.5 302.1,394 298.2,389.5 294.5,394 290.7,389.5 290.7,397.6 "/><path class="st1" d="M306.5,414.6c-0.8-0.8-2.3-2-4.1-2.1 M287.3,414.6c0.8-0.8,2.3-2,4.1-2.1 M303.5,401  c-0.3-3.8-4.9-4.9-8.7-4.4c-9.3,1.3-17,7.3-12.8,27.9 M283.8,424.3c0,4.4,7.5,12.4,12.5,12.4c5.3,0,13.6-7.9,13.6-12.6  c0,0,0-6.8,0-11.8 M291.6,427.6c2.7,2.7,8.3,2.5,10.5-0.4 M294.6,423c0.6,1.2,3.8,1.2,4.6,0 M311.2,412.7c1.9-0.7,2.6,0.9,2.6,2.3  s-1.1,6.7-3.8,6.7"/><path d="M304.4,418.3c0,0.7-0.6,1.2-1.2,1.2c-0.7,0-1.2-0.6-1.2-1.2c0-0.7,0.6-1.2,1.2-1.2  C303.9,417,304.4,417.6,304.4,418.3"/><path d="M291.8,418.1c0,0.7-0.6,1.2-1.2,1.2s-1.2-0.6-1.2-1.2c0-0.7,0.6-1.2,1.2-1.2S291.8,417.4,291.8,418.1"/><path class="st1" d="M308.9,442.7c-0.8,1.4-0.4,3.2,2,6.1c2,2.4,0.8,4.5,0.8,4.5s5.2-5,3.7-8.6  c-0.9-2.3-2.5-1.7-3.2-3.7 M314.7,418.9c0.4,4.5-2.7,6.3-2.9,10.4 M309.2,435.1c-1.4,1.1-1,3.9,1.8,7.2 M308.5,431.2  c0.3,1.3,1.1,2.8,2.4,4.5 M314.2,432.7c1.5,2.9-0.7,5.4-2.8,6.8 M314.2,426c1.4,1.1,0.5,4.1-2.2,7.4 M303.2,399.7  c6.5-1.9,12.4,3.2,10.8,11.9 M301.6,404.7c0.3,1,3.4,6.5,8.3,7.7 M303.5,401.4c0.2,1.2-0.4,2.2-2.4,3.6c-2.4,1.7-8.3,1.6-11.2,2.5  c-6.4,2.2-6.6,8.8-6,21.6"/></svg>