<svg xmlns="http://www.w3.org/2000/svg" xmlns:xlink="http://www.w3.org/1999/xlink" version="1.1" x="0px" y="0px" viewBox="0 0 44 60" enable-background="new 0 0 44 60" xml:space="preserve"><g><circle cx="24" cy="13" r="1"></circle><circle cx="20" cy="13" r="1"></circle><circle cx="22" cy="15" r="1"></circle><circle cx="26" cy="15" r="1"></circle><circle cx="24" cy="17" r="1"></circle><circle cx="20" cy="17" r="1"></circle><circle cx="18" cy="15" r="1"></circle><circle cx="20" cy="21" r="1"></circle><circle cx="24" cy="21" r="1"></circle><circle cx="22" cy="19" r="1"></circle><circle cx="18" cy="19" r="1"></circle><circle cx="26" cy="19" r="1"></circle><path d="M39,32.65V17c0-9.37-7.63-17-17-17S5,7.63,5,17v15.65L0,38.9v0.35c0,13.73,5.22,17.43,5.44,17.58L6,57.21l0.56-0.38   C6.78,56.68,12,52.98,12,39.25V38.9l-5-6.25v-7.67c2.57,4.81,7.38,8.23,13.02,8.89l-1.16,1.45c-2.11,2.64-3.15,5.84-2.86,8.81   c0.92,9.33,4.48,14.51,5.16,15.42l0.3,0.45H22l0.52-0.02l0.3-0.4c0.7-0.94,4.25-6.12,5.18-15.45c0.29-2.96-0.75-6.17-2.86-8.8   l-1.16-1.45c5.64-0.66,10.45-4.09,13.02-8.89v7.67l-5,6.25v0.35c0,13.73,5.22,17.43,5.44,17.58L38,57.21l0.56-0.38   C38.78,56.68,44,52.98,44,39.25V38.9L39,32.65z M10,39.6c-0.07,9.55-2.79,13.67-4,15.03c-1.2-1.36-3.93-5.48-4-15.03l3-3.75v6.74   l-1.71,1.71c-0.39,0.39-0.39,1.02,0,1.41C3.49,45.9,3.74,46,4,46s0.51-0.1,0.71-0.29L5,45.41V49c0,0.55,0.45,1,1,1s1-0.45,1-1   v-3.59l0.29,0.29C7.49,45.9,7.74,46,8,46s0.51-0.1,0.71-0.29c0.39-0.39,0.39-1.02,0-1.41L7,42.59v-6.74L10,39.6z M34.87,9.33   l-12.22-7.3C27.84,2.26,32.35,5.13,34.87,9.33z M21.94,29.99L11,23.45V10.45l11.06-6.44L33,10.55v13.01L21.94,29.99z M21.49,2.03   L9.24,9.16C11.8,5.01,16.31,2.2,21.49,2.03z M9,9.55v14.9c-1.27-2.2-2-4.74-2-7.45S7.73,11.75,9,9.55z M9.13,24.67l12.22,7.3   C16.16,31.74,11.65,28.87,9.13,24.67z M26,43.93C25.34,50.65,23.21,55.1,22,57.17c-1.19-2.03-3.33-6.49-4-13.24   c-0.24-2.44,0.64-5.13,2.43-7.36L21,35.85v4.73l-1.71,1.71c-0.39,0.39-0.39,1.02,0,1.41C19.49,43.9,19.74,44,20,44   s0.51-0.1,0.71-0.29L21,43.41v2.17l-1.71,1.71c-0.39,0.39-0.39,1.02,0,1.41C19.49,48.9,19.74,49,20,49s0.51-0.1,0.71-0.29L21,48.41   V50c0,0.55,0.45,1,1,1s1-0.45,1-1v-1.59l0.29,0.29C23.49,48.9,23.74,49,24,49s0.51-0.1,0.71-0.29c0.39-0.39,0.39-1.02,0-1.41   L23,45.59v-2.17l0.29,0.29C23.49,43.9,23.74,44,24,44s0.51-0.1,0.71-0.29c0.39-0.39,0.39-1.02,0-1.41L23,40.59v-4.73l0.58,0.72   C25.36,38.8,26.25,41.48,26,43.93z M22.51,31.97l12.25-7.13C32.2,28.99,27.69,31.8,22.51,31.97z M35,24.45V9.55   c1.27,2.2,2,4.74,2,7.45S36.27,22.25,35,24.45z M38,54.63c-1.2-1.36-3.93-5.48-4-15.03l3-3.75v6.74l-1.71,1.71   c-0.39,0.39-0.39,1.02,0,1.41C35.49,45.9,35.74,46,36,46s0.51-0.1,0.71-0.29L37,45.41V49c0,0.55,0.45,1,1,1s1-0.45,1-1v-3.59   l0.29,0.29C39.49,45.9,39.74,46,40,46s0.51-0.1,0.71-0.29c0.39-0.39,0.39-1.02,0-1.41L39,42.59v-6.74l3,3.75   C41.93,49.15,39.21,53.27,38,54.63z"></path><path d="M17.44,9l-4.74,7.82L17.42,25l9.15,0.04l4.73-8.14L26.57,9H17.44z M21,11c0,0.55,0.45,1,1,1s1-0.45,1-1h2   c0,0.55,0.45,1,1,1c0.01,0,0.02-0.01,0.03-0.01l2.51,4.18C28.38,16.07,28.2,16,28,16c-0.55,0-1,0.45-1,1c0,0.55,0.45,1,1,1   c0.14,0,0.27-0.03,0.4-0.08L26.02,22c-0.01,0-0.01,0-0.02,0c-0.55,0-1,0.45-1,1c0,0.01,0.01,0.02,0.01,0.03L23,23.02   c0-0.01,0-0.01,0-0.02c0-0.55-0.45-1-1-1s-1,0.45-1,1c0,0,0,0.01,0,0.01L19,23c0,0,0,0,0,0c0-0.55-0.45-1-1-1l-2.35-4.07   C15.76,17.97,15.88,18,16,18c0.55,0,1-0.45,1-1c0-0.55-0.45-1-1-1c-0.23,0-0.43,0.09-0.59,0.22l2.56-4.22   c0.01,0,0.02,0.01,0.04,0.01c0.55,0,1-0.45,1-1H21z M15.03,16.83c0,0.01,0,0.02,0,0.02l0-0.01L15.03,16.83z"></path></g></svg>