<?xml version="1.0" encoding="utf-8"?>
<!-- Generator: Adobe Illustrator 15.1.0, SVG Export Plug-In . SVG Version: 6.00 Build 0)  -->
<!DOCTYPE svg PUBLIC "-//W3C//DTD SVG 1.1//EN" "http://www.w3.org/Graphics/SVG/1.1/DTD/svg11.dtd">
<svg version="1.1" id="Layer_1" xmlns="http://www.w3.org/2000/svg" xmlns:xlink="http://www.w3.org/1999/xlink" x="0px" y="0px"
	 width="82.98px" height="100px" viewBox="0 0 82.98 100" enable-background="new 0 0 82.98 100" xml:space="preserve">
<path d="M68.034,14.918c-3.886,0-7.057,3.133-7.057,7.023c0,3.891,3.169,7.024,7.057,7.024c3.884,0,7.058-3.134,7.058-7.024
	C75.092,18.052,71.918,14.918,68.034,14.918z"/>
<path d="M39.741,27.268c-0.49,0.003-0.809,0.687-0.5,1.065l2.862,3.329l-0.266,0.2l-3.961-2.497h-0.033
	c-0.57-0.268-1.188,0.701-0.699,1.098l3.928,2.563l-0.067,0.266l-3.928-1.231c-0.328-0.107-0.726,0.138-0.832,0.466
	c-0.107,0.328,0.071,0.692,0.399,0.799l4.228,1.432v0.399l-3.295,0.832c-0.559,0.235-0.339,1.292,0.266,1.265l3.695-0.666l0.633,0.2
	l7.655,7.656c1.111,1.098,3.117,1.098,4.228,0l5.26-5.226l0.066,18.874l-6.324,18.009H82.98l-6.059-17.31
	c0.017-0.1,0.03-0.202,0.033-0.3c-0.002-0.006,0-8.676,0-14.946l0.467-0.466c0.162-0.134,0.35-0.318,0.499-0.466
	c1.294-1.277,2.097-3.032,2.097-4.993c0-3.89-3.174-7.057-7.057-7.057H62.775h-0.433c-1.675,0-3.219,0.585-4.428,1.564
	c-0.019,0.015-0.049,0.019-0.066,0.033c-0.336,0.278-0.62,0.597-0.898,0.932c-0.011,0.011-0.025,0.022-0.033,0.033l-4.993,4.96
	l-4.095-4.094l-0.333-0.899l-0.199-1.897c-0.011-0.021-0.022-0.046-0.033-0.066l-0.333-1.564v-1.498
	c0.008-0.344-0.288-0.657-0.633-0.666c-0.344-0.007-0.69,0.288-0.699,0.632l-0.1,1.464c-0.002,0.031-0.002,0.069,0,0.1l0.066,1.665
	l-0.299,0.366h-0.233c-0.233-0.082-0.453-0.11-0.699-0.133l-0.766-0.399l-3.329-3.628c-0.088-0.107-0.232-0.166-0.366-0.2
	c-0.021-0.001-0.045-0.001-0.066,0C39.786,27.267,39.761,27.267,39.741,27.268L39.741,27.268z"/>
<path d="M51.757,45.942c-0.247,0.031-0.493,0.187-0.565,0.433c-0.099,0.328,0.104,0.734,0.433,0.832l1.398,0.466
	c0.02,0.012,0.044,0.024,0.066,0.033l1.664,0.333l0.267,0.399l-0.167,0.599l-0.799,0.932l-4.36,2.264
	c-0.154,0.085-0.289,0.229-0.333,0.399c-0.153,0.482,0.443,1.021,0.899,0.799l3.961-1.864l0.133,0.233l-3.462,3.229h-0.033
	c-0.254,0.237-0.271,0.679-0.033,0.933c0.237,0.253,0.712,0.271,0.965,0.033l3.462-3.129l0.267,0.133l-2.197,3.495
	c-0.188,0.287-0.12,0.709,0.167,0.898c0.287,0.188,0.742,0.121,0.932-0.166l2.497-3.695l0.333,0.066l-0.034,3.429
	c0.06,0.487,0.756,0.612,1.099,0.333V46.541l-1.331,0.167l-1.864-0.333c-0.031-0.002-0.068-0.002-0.1,0l-1.564-0.067l-1.465-0.366
	C51.908,45.917,51.84,45.932,51.757,45.942z"/>
<path d="M59.38,76.899v19.007C59.257,97.998,61.146,100,63.241,100s3.984-2.002,3.861-4.094V76.899H59.38z"/>
<path d="M68.102,76.899v18.974v0.033c0.008,0.639-0.13,1.237-0.366,1.83c-0.017,0.043-0.048,0.092-0.067,0.134
	c0.844,1.467,2.728,2.277,4.361,1.83c1.632-0.447,2.883-2.102,2.862-3.794V76.899H68.102L68.102,76.899z"/>
<path d="M12.775,0C8.892,0,5.73,3.155,5.73,7.045s3.162,7.015,7.045,7.015c3.887,0,7.045-3.124,7.045-7.015
	C19.82,3.155,16.662,0,12.775,0z"/>
<path d="M40.924,12.369c-0.134,0.034-0.257,0.112-0.345,0.219l-3.35,3.632l-0.751,0.375c-0.246,0.022-0.488,0.075-0.72,0.157h-0.219
	l-0.313-0.376l0.062-1.659c0.002-0.031,0.002-0.063,0-0.094l-0.094-1.471c-0.008-0.344-0.345-0.635-0.689-0.626
	c-0.345,0.008-0.635,0.313-0.626,0.658v1.503l-0.344,1.565c-0.012,0.021-0.022,0.041-0.031,0.062l-0.188,1.878L32.971,19.1
	l-4.102,4.102l-4.979-4.947c-0.009-0.011-0.021-0.02-0.031-0.031c-0.279-0.335-0.572-0.662-0.908-0.939
	c-0.018-0.015-0.045-0.017-0.062-0.032c-1.209-0.979-2.741-1.565-4.416-1.565h-0.438H8.736H7.295h-0.25
	C3.162,15.688,0,18.842,0,22.733c0,1.96,0.804,3.732,2.098,5.009c0.15,0.148,0.307,0.304,0.47,0.438l6.137,6.168
	c0.372,0.372,0.84,0.647,1.347,0.783l10.521,2.818l0.344,0.501l0.313,3.757c0.132,0.595,1.21,0.542,1.284-0.062l-0.031-3.444
	l0.344-0.062l2.505,3.695c0.188,0.287,0.622,0.376,0.908,0.188c0.287-0.189,0.376-0.622,0.188-0.908l-2.192-3.507l0.251-0.125
	l3.475,3.131c0.254,0.238,0.702,0.223,0.939-0.031c0.238-0.254,0.223-0.702-0.031-0.939h-0.031l-3.444-3.225l0.125-0.25l3.946,1.878
	c0.456,0.223,1.061-0.299,0.908-0.783c-0.044-0.17-0.16-0.321-0.313-0.407l-4.383-2.286l-0.783-0.908l-0.188-0.595l0.282-0.407
	l1.66-0.345c0.021-0.008,0.042-0.02,0.062-0.031l1.409-0.47c0.328-0.098,0.537-0.486,0.438-0.814
	c-0.098-0.328-0.486-0.537-0.814-0.438l-1.472,0.376L24.705,31.5c-0.031-0.002-0.062-0.002-0.093,0l-1.848,0.313l-3.069-0.345
	l-7.295-1.941l-5.135-5.135h1.409l4.227,4.227l6.889,1.848l1.691,0.188V24.33l5.26,5.229c1.112,1.099,3.116,1.099,4.228,0
	l7.671-7.64l0.626-0.219l3.694,0.657c0.605,0.027,0.841-1.017,0.282-1.252l-3.319-0.845v-0.376l4.228-1.44
	c0.328-0.106,0.514-0.486,0.407-0.814c-0.107-0.328-0.486-0.545-0.814-0.438l-3.945,1.221l-0.062-0.282l3.913-2.568
	c0.489-0.397-0.118-1.364-0.688-1.096h-0.031l-3.976,2.505l-0.251-0.188l2.85-3.35c0.309-0.378-0.013-1.062-0.501-1.064
	c-0.021-0.001-0.042-0.001-0.062,0C40.966,12.367,40.945,12.367,40.924,12.369z"/>
<path d="M3.852,30.905v12.681c0,0.453,0.077,0.897,0.25,1.315c0.173,0.418,0.432,0.807,0.751,1.127
	c0.303,0.303,0.671,0.548,1.065,0.72v34.255c-0.124,2.092,1.755,4.102,3.851,4.102c2.096,0,3.974-2.01,3.852-4.102V47.03h1.002
	v33.941v0.031c0.008,0.639-0.107,1.253-0.344,1.848c-0.018,0.042-0.044,0.082-0.062,0.124c0.844,1.468,2.72,2.264,4.352,1.816
	s2.871-2.096,2.849-3.788V44.337c0.049-0.194,0.052-0.396,0.063-0.595c-0.02-0.005-0.043,0.005-0.063,0
	c-0.108-0.029-0.21-0.075-0.313-0.125c-0.008-0.004-0.023,0.005-0.031,0c-0.111-0.057-0.217-0.135-0.313-0.219
	c-0.089-0.077-0.15-0.157-0.22-0.25c-0.065-0.085-0.108-0.154-0.156-0.25c-0.052-0.104-0.096-0.2-0.125-0.313
	c-0.029-0.103-0.053-0.205-0.063-0.313l-0.156-2.035l-0.125-1.44L9.801,36.071c-0.679-0.182-1.319-0.536-1.816-1.033L3.852,30.905
	L3.852,30.905z"/>
</svg>
