<svg xmlns="http://www.w3.org/2000/svg" xmlns:xlink="http://www.w3.org/1999/xlink" version="1.1" x="0px" y="0px" viewBox="0 0 512 512" enable-background="new 0 0 512 512" xml:space="preserve"><path d="M365.3,2C317,2,280.3,16,256,43.7C231.7,16,195,2,146.7,2C66.9,2,2,71.5,2,157c0,129.5,234.6,340.5,244.6,349.4  c6.3,4.8,12.6,4.8,18.9-0.1C275.5,497.3,510,283.1,510,157C510,71.5,445.1,2,365.3,2z M255.9,476.7C212,435.8,30.2,260.3,30.2,157  c0-69.9,52.3-126.8,116.5-126.8c44.8,0,75.6,13.3,94.2,40.4l-16.3,78.8c-0.9,4.3,0.3,8.8,3.2,12.1l40.6,46.9l-32.7,66.3  c-1.9,3.9-1.9,8.4-0.1,12.2l27.9,59.4c3.4,7,11.7,10.1,18.8,6.8c7.1-3.3,10.1-11.7,6.8-18.8L264,281l33.9-68.6  c2.5-5.1,1.7-11.2-2-15.5l-42.2-48.7l15.6-75.1c18.4-28.8,49.8-42.9,96-42.9c64.2,0,116.5,56.9,116.5,126.8  C481.8,257.5,299.8,435.3,255.9,476.7z"></path></svg>