<svg fill="#000000" xmlns="http://www.w3.org/2000/svg" xmlns:xlink="http://www.w3.org/1999/xlink" version="1.1" x="0px" y="0px" viewBox="0 0 100 100" enable-background="new 0 0 100 100" xml:space="preserve"><g><path fill="#000000" d="M74.293,57.298V42.527c0-10.367-6.529-19.234-15.689-22.716c0.293-0.463,0.469-1.008,0.469-1.597   c0-5.003-4.07-9.073-9.073-9.073c-5.003,0-9.074,4.07-9.074,9.073c0,0.589,0.176,1.134,0.469,1.597   c-9.16,3.482-15.689,12.348-15.689,22.715v14.771L15.552,74.707c-0.542,0.928-0.545,2.074-0.01,3.006   c0.535,0.932,1.527,1.506,2.602,1.506h18.445c0.94,6.569,6.587,11.64,13.412,11.64c6.824,0,12.471-5.071,13.41-11.64h18.446   c1.074,0,2.066-0.574,2.602-1.506c0.535-0.932,0.531-2.078-0.01-3.006L74.293,57.298z M46.927,18.215   c0-1.695,1.379-3.073,3.074-3.073c1.694,0,3.073,1.378,3.073,3.073c0,0.076,0.017,0.147,0.022,0.222   c-1.015-0.13-2.046-0.204-3.095-0.204s-2.082,0.074-3.096,0.204C46.91,18.362,46.927,18.291,46.927,18.215z M50,84.858   c-3.505,0-6.453-2.399-7.307-5.64h14.612C56.451,82.459,53.505,84.858,50,84.858z M23.366,73.219l7.932-13.598   c0.268-0.459,0.409-0.98,0.409-1.512V42.527c0-10.088,8.207-18.295,18.294-18.295c10.087,0,18.293,8.207,18.293,18.295v15.582   c0,0.531,0.141,1.053,0.409,1.512l7.932,13.598H23.366z"/><path fill="#000000" d="M17.611,62.834c0.554,0,1.114-0.153,1.615-0.474c1.396-0.894,1.802-2.749,0.909-4.144   c-1.83-2.857-2.757-5.871-2.757-8.958s0.928-6.101,2.757-8.958c0.894-1.395,0.487-3.25-0.909-4.144   c-1.396-0.893-3.25-0.486-4.144,0.909c-2.458,3.838-3.705,7.941-3.705,12.193s1.247,8.355,3.705,12.193   C15.654,62.346,16.622,62.834,17.611,62.834z"/><path fill="#000000" d="M84.917,37.065c-0.894-1.396-2.75-1.802-4.144-0.909c-1.396,0.894-1.802,2.749-0.909,4.144   c1.83,2.857,2.757,5.871,2.757,8.958s-0.928,6.101-2.757,8.958c-0.894,1.395-0.487,3.25,0.909,4.144   c0.501,0.321,1.061,0.474,1.615,0.474c0.989,0,1.957-0.488,2.529-1.383c2.458-3.838,3.705-7.941,3.705-12.193   S87.375,40.903,84.917,37.065z"/><path fill="#000000" d="M7.973,49.258c0-4.004,1.199-7.908,3.564-11.602c0.894-1.396,0.487-3.251-0.909-4.144   c-1.396-0.894-3.25-0.487-4.144,0.909c-2.994,4.676-4.512,9.668-4.512,14.837c0,5.17,1.518,10.162,4.512,14.837   c0.573,0.895,1.541,1.383,2.529,1.383c0.554,0,1.114-0.153,1.615-0.474c1.396-0.894,1.802-2.749,0.909-4.144   C9.172,57.166,7.973,53.263,7.973,49.258z"/><path fill="#000000" d="M89.371,33.512c-1.396,0.893-1.802,2.749-0.909,4.144c2.365,3.694,3.564,7.598,3.564,11.602   s-1.199,7.908-3.564,11.602c-0.894,1.395-0.487,3.25,0.909,4.144c0.501,0.321,1.061,0.474,1.615,0.474   c0.989,0,1.957-0.488,2.529-1.383c2.994-4.675,4.512-9.667,4.512-14.837c0-5.169-1.518-10.162-4.512-14.837   C92.621,33.025,90.766,32.618,89.371,33.512z"/></g></svg>