<svg fill="#000000" xmlns:dc="http://purl.org/dc/elements/1.1/" xmlns:cc="http://creativecommons.org/ns#" xmlns:rdf="http://www.w3.org/1999/02/22-rdf-syntax-ns#" xmlns:svg="http://www.w3.org/2000/svg" xmlns="http://www.w3.org/2000/svg" xmlns:sodipodi="http://sodipodi.sourceforge.net/DTD/sodipodi-0.dtd" xmlns:inkscape="http://www.inkscape.org/namespaces/inkscape" version="1.1" x="0px" y="0px" viewBox="0 0 100 100"><g transform="translate(0,-952.36215)"><path style="text-indent:0;text-transform:none;direction:ltr;block-progression:tb;baseline-shift:baseline;color:#000000;enable-background:accumulate;" d="m 49.992166,967.36215 c -5.621388,0 -10.721043,0.81429 -14.494593,2.21875 -1.886774,0.70223 -3.444826,1.55375 -4.592037,2.5625 -1.147211,1.00875 -1.905539,2.26682 -1.905539,3.65625 l 0,7.125 c 0,1.38943 0.758328,2.61624 1.905539,3.625 0.921445,0.81024 2.120944,1.54478 3.529933,2.15625 l -5.435472,47.5313 a 0.99972707,1.0001 0 0 0 0.999627,1.125 l 6.99739,0 a 0.99972707,1.0001 0 0 0 0.999627,-0.9063 l 1.593156,-14.0938 20.804739,0 1.593156,14.0938 a 0.99972707,1.0001 0 0 0 0.999627,0.9063 l 6.99739,0 a 0.99972707,1.0001 0 0 0 0.999627,-1.125 l -5.435473,-47.5313 c 1.40899,-0.61147 2.608489,-1.34601 3.529933,-2.15625 1.147212,-1.00876 1.90554,-2.23557 1.90554,-3.625 l 0,-7.125 c 0,-1.38943 -0.758328,-2.6475 -1.90554,-3.65625 -1.147211,-1.00875 -2.705262,-1.86027 -4.592037,-2.5625 -3.773549,-1.40446 -8.873205,-2.21875 -14.494593,-2.21875 z m 0,2 c 5.420188,0 10.313784,0.80513 13.776111,2.09375 1.731165,0.64431 3.122365,1.4171 3.998509,2.1875 0.876144,0.7704 1.218295,1.49434 1.218295,2.15625 l 0,0.3125 c -0.726159,1.26987 -3.089529,2.91173 -6.466337,4.09375 -3.407312,1.1927 -7.809495,2 -12.526578,2 -4.717082,0 -9.119265,-0.8073 -12.526577,-2 -3.376808,-1.18202 -5.740179,-2.82388 -6.466338,-4.09375 l 0,-0.3125 c 0,-0.66191 0.342152,-1.38585 1.218296,-2.15625 0.876144,-0.7704 2.267344,-1.54319 3.998508,-2.1875 3.462328,-1.28862 8.355923,-2.09375 13.776111,-2.09375 z m -18.992915,9.75 c 1.432765,1.18469 3.423998,2.16468 5.810333,3 3.650707,1.2779 8.242294,2.09375 13.182582,2.09375 4.940288,0 9.531876,-0.81585 13.182583,-2.09375 2.386335,-0.83532 4.377568,-1.81531 5.810332,-3 l 0,3.8125 c 0,0.66192 -0.342151,1.3546 -1.218295,2.125 -0.876144,0.7704 -2.267344,1.54319 -3.998509,2.1875 -3.462327,1.28862 -8.355922,2.125 -13.776111,2.125 -5.420189,0 -10.313783,-0.83638 -13.776111,-2.125 -1.731164,-0.64431 -3.122364,-1.4171 -3.998508,-2.1875 -0.876144,-0.7704 -1.218296,-1.46308 -1.218296,-2.125 l 0,-3.8125 z m 5.341758,10.28125 c 1.465129,0.48951 3.101438,0.90244 4.873182,1.21875 l -5.123089,44.75005 -4.966897,0 5.216804,-45.9688 z m 27.302315,0 5.216804,45.9688 -4.966897,0 -5.123089,-44.75005 c 1.771744,-0.31631 3.408053,-0.72924 4.873182,-1.21875 z m -20.461117,1.53125 c 2.138631,0.28338 4.421176,0.4375 6.809959,0.4375 2.388783,0 4.671329,-0.15412 6.80996,-0.4375 l 2.561545,22.43745 -18.743009,0 2.561545,-22.43745 z m -2.780213,24.43745 19.180345,0 0.56229,5 -20.304925,0 0.56229,-5 z" fill="#000000" fill-opacity="1" stroke="none" marker="none" visibility="visible" display="inline" overflow="visible"/></g></svg>