<svg xmlns="http://www.w3.org/2000/svg" xmlns:xlink="http://www.w3.org/1999/xlink" version="1.1" id="Your_Icon" x="0px" y="0px" width="100px" height="100px" viewBox="0 0 100 100" enable-background="new 0 0 100 100" xml:space="preserve">
<g>
	<path d="M57.161,63.662c0.918,0,1.662-0.662,1.662-1.662h-3.325C55.498,63,56.243,63.662,57.161,63.662z"/>
	<circle cx="42.546" cy="62.194" r="1.662"/>
	<rect x="48" y="74" width="4" height="2"/>
	<path d="M69.733,67.862l5.848-1.795L69.921,67c0.643-2,1.068-3.977,1.068-6.203c0-3.232-0.988-6.101-1.988-8.841V36.507   c0-0.861,0.89-1.679,1.319-2.424c1.632-2.837,2.133-3.778,2.254-4.059c0.567-1.311,0.562-2.533,0.02-3.633   c-1.425-2.891-6.45-4.153-11.302-5.373c-1.479-0.372-2.882-0.724-4.148-1.111c-0.338-0.104-0.684-0.156-1.022-0.156   c-0.182,0-0.356,0.04-0.532,0.069c1.978,0.613,3.849,1.608,5.138,3.121c0.023,0.006,0.044,0.011,0.066,0.017   c4.205,1.058,8.971,2.257,9.986,4.318c0.175,0.355,0.357,0.945-0.077,1.949c-0.116,0.252-1.078,1.925-2.192,3.861   c-0.496,0.863-1.049,1.823-1.63,2.838c-0.188,0.112-0.37,0.213-0.556,0.321c-0.911,0.475-1.806,0.818-2.675,1.261   c0.415-1.989,1.035-4.757,1.035-4.757s-0.031,0.043-0.075,0.105c0.047-0.211,0.075-0.338,0.075-0.338S60.872,37.845,60.16,39   h-0.127c0,0,0.015,0.082,0.039,0.102c-0.834,0.316-1.681,0.692-2.55,0.928c1.162-2.981,2.356-5.814,3.267-7.973   c1.479-3.504,1.648-3.952,1.648-4.356c0-1.983-0.667-3.537-1.71-4.76c-1.289-1.513-3.162-2.508-5.14-3.121   c-1.986-0.615-4.066-0.857-5.734-0.857c-1.669,0-3.748,0.242-5.735,0.857c-0.176-0.028-0.349-0.069-0.531-0.069   c-0.338,0-0.682,0.053-1.02,0.156c-1.266,0.387-2.664,0.739-4.143,1.111c-4.852,1.22-9.868,2.482-11.292,5.373   c-0.542,1.1-0.529,2.322,0.038,3.633c0.122,0.281,0.733,1.223,2.366,4.063c0.428,0.744,0.463,1.56,1.463,2.42v15.449   c-1,2.739-2.132,5.79-2.132,9.022c0,2.226,0.317,4.37,0.96,6.386l2.257,0.451l-2.293-0.451l-5.665-1.115l5.848,1.614   c2.862,8.236,10.681,14.173,19.879,14.173S66.871,76.1,69.733,67.864l-2.384,0.658c-2.929,6.766-9.665,11.516-17.495,11.516   c-7.83,0-14.566-4.749-17.495-11.516l17.09,4.715l0.405,0.612l0.405-0.612l-0.173,0.048l0.004-0.012l0.17-0.041l17.09-4.712   L69.733,67.862z M67,38.26v13.454c-6,3.352-10.13,5.163-17.229,5.163C42.925,56.877,38,55.155,33,51.97V38.499   c5,2.996,9.898,4.607,16.771,4.607C56.842,43.106,61,41.345,67,38.26z M51,41h0.218L51,41.006V41z M49.854,20.963   c3.91,0,10.512,1.404,10.583,6.652c-0.121,0.419-0.787,1.998-1.49,3.665c-1.048,2.484-2.463,5.842-3.785,9.324   c-0.008,0.001-0.016,0.015-0.024,0.017C53.969,40.819,52.739,41,51.423,41h-0.004l-1.616-11.978L48.185,41h-0.007l0.004,0.024   c-1.269-0.048-2.455-0.135-3.584-0.31c-0.004-0.001-0.007-0.002-0.011-0.003c-1.334-3.521-2.768-6.922-3.827-9.432   c-0.704-1.667-1.37-3.246-1.49-3.665C39.341,22.367,45.944,20.963,49.854,20.963z M29.015,29.229   c-0.437-1.009-0.259-1.598-0.084-1.954c1.016-2.061,5.779-3.26,9.984-4.318c0.022-0.006,0.042-0.011,0.064-0.017   c-1.042,1.224-1.71,2.777-1.71,4.76c0,0.404,0.169,0.852,1.648,4.355c0.909,2.154,2.099,4.978,3.259,7.951   c-0.874-0.188-1.724-0.045-2.563-1.007h0.061l-4.653-6.483c0,0,0.666,3.183,1.079,5.199c-0.995-0.489-2.007-0.925-3.056-1.526   c-0.017-0.01-0.029-0.016-0.045-0.025c-0.633-1.103-1.248-2.145-1.783-3.074C30.101,31.152,29.129,29.477,29.015,29.229z    M30.795,60.978c0-2.507,0.499-4.897,1.383-7.092c0,0,0,0,0,0c0,0,0-0.001,0-0.001c4.611,2.633,8.526,4.283,13.677,4.808   c1.188,0.122,2.443,0.184,3.788,0.184c7.331,0,12.196-1.896,17.813-5.193c0.935,2.248,1.456,4.704,1.456,7.286   c0,1.186-0.116,2.343-0.329,3.465c-0.222,1.088-0.544,2.141-0.951,3.196l-0.01,0.093l-15.801,3.154l0.812-1.292L52.978,69h0.056   h0.119h-0.086l0.38-0.573l-0.171,0.123l0.171-0.257L52.467,69l-2.442,1.762l0.151-1.731L50.178,69l0.634-7h-2l0.633,7l0.003,0.037   l0.148,1.663L47.24,69l-0.98-0.707l0.171,0.257l-0.171-0.123L46.64,69h-0.087h0.119h0.057l0.345,0.588l0.846,1.31l-15.836-3.099   C31.264,65.673,30.795,63.39,30.795,60.978z"/>
</g>
</svg>
