<svg xmlns="http://www.w3.org/2000/svg" xmlns:xlink="http://www.w3.org/1999/xlink" version="1.1" x="0px" y="0px" width="100px" height="100px" viewBox="0 0 100 100" enable-background="new 0 0 100 100" xml:space="preserve">
<g id="Captions">
</g>
<g id="Your_Icon">
	<g>
		<g id="XMLID_13_">
			<g>
				<polyline fill="none" stroke="#000000" stroke-width="3" stroke-miterlimit="10" points="56.5,58 56.5,68 96.5,68 96.5,58       91.5,58     "/>
				<polyline fill="none" stroke="#000000" stroke-width="3" stroke-miterlimit="10" points="51.5,48 51.5,58 56.5,58 91.5,58       91.5,48 86.5,48     "/>
				<polyline fill="none" stroke="#000000" stroke-width="3" stroke-miterlimit="10" points="46.5,38 46.5,48 51.5,48 86.5,48       86.5,38 81.5,38     "/>
				<polyline fill="none" stroke="#000000" stroke-width="3" stroke-miterlimit="10" points="41.5,28 41.5,38 46.5,38 81.5,38       81.5,28 42,28     "/>
				<polyline fill="none" stroke="#000000" stroke-width="3" stroke-miterlimit="10" points="30,28 31.5,28 41.5,28 42,28     "/>
				<polyline fill="none" stroke="#000000" stroke-width="3" stroke-miterlimit="10" points="55,68 44,68 31.5,43.5 31.5,29.5           "/>
			</g>
		</g>
	</g>
	<polygon points="13.75,26.879 2.629,38 8,38 8,70 20,70 20,38 24.871,38  "/>
</g>
</svg>
