<svg xmlns="http://www.w3.org/2000/svg" xmlns:xlink="http://www.w3.org/1999/xlink" version="1.1" x="0px" y="0px" viewBox="0 0 100 100" enable-background="new 0 0 100 100" xml:space="preserve"><g><path d="M90.859,45.104H75.663V44.09h0.935c1.805,0,3.272-1.468,3.272-3.273v-6.36c0-1.805-1.468-3.273-3.272-3.273h-1.386   c-0.997-2.662-3.561-4.565-6.566-4.565H15.687c-7.995,0-14.5,6.505-14.5,14.5v24.47c0,0.776,0.627,1.403,1.403,1.403h6.057   c0.989,3.676,4.34,6.392,8.324,6.392c3.982,0,7.334-2.716,8.324-6.392h31.007h10.05c0.185,0.092,0.393,0.141,0.612,0.141h7.379   c1.036,3.604,4.355,6.251,8.288,6.251c3.932,0,7.251-2.646,8.287-6.251h6.491c0.774,0,1.403-0.628,1.403-1.403v-12.67   C98.813,48.672,95.245,45.104,90.859,45.104z M74.024,64.326h-4.955v-5.658h7.451C75.061,60.135,74.133,62.125,74.024,64.326z    M69.069,55.862v-3.741h26.848c0.057,0.303,0.09,0.615,0.09,0.938v2.804H69.069z M77.064,34.456v6.36   c0,0.254-0.214,0.467-0.467,0.467h-0.935v-7.295h0.935C76.851,33.988,77.064,34.203,77.064,34.456z M15.687,29.423h52.958   c2.322,0,4.212,1.889,4.212,4.211v12.873c0,0.775,0.628,1.403,1.402,1.403h16.6c1.363,0,2.601,0.536,3.522,1.404H69.069v-15.53   c0-0.775-0.629-1.403-1.403-1.403H56.302c-0.774,0-1.403,0.628-1.403,1.403v15.53H3.994v-8.197   C3.994,34.669,9.239,29.423,15.687,29.423z M23.081,58.668h31.817v5.518H25.571C25.429,62.04,24.51,60.104,23.081,58.668z    M3.994,52.121h50.905v3.741H3.994V52.121z M3.994,58.668h6.868c-1.429,1.436-2.349,3.372-2.49,5.518H3.994V58.668z M16.971,70.577   c-3.21,0-5.823-2.612-5.823-5.823c0-3.21,2.612-5.822,5.823-5.822s5.822,2.612,5.822,5.822   C22.793,67.965,20.182,70.577,16.971,70.577z M57.705,35.188h2.876v28.998h-2.876V35.188z M63.387,64.186V35.188h2.877v28.998   H63.387z M82.631,70.577c-3.211,0-5.822-2.612-5.822-5.823c0-3.21,2.611-5.822,5.822-5.822c3.21,0,5.821,2.612,5.821,5.822   C88.452,67.965,85.841,70.577,82.631,70.577z M91.236,64.326c-0.108-2.201-1.035-4.191-2.496-5.658h7.267v5.658H91.236z"></path><path d="M41.222,46.947h9.267c1.289,0,2.337-1.048,2.337-2.338v-6.986c0-1.29-1.049-2.338-2.337-2.338h-9.267   c-1.29,0-2.338,1.049-2.338,2.338v6.986C38.884,45.898,39.933,46.947,41.222,46.947z M41.69,38.09h8.33v6.051h-8.33V38.09z"></path><path d="M9.445,46.947h9.266c1.29,0,2.338-1.048,2.338-2.338v-6.986c0-1.29-1.049-2.338-2.338-2.338H9.445   c-1.29,0-2.338,1.049-2.338,2.338v6.986C7.106,45.898,8.155,46.947,9.445,46.947z M9.913,38.09h8.33v6.051h-8.33V38.09z"></path><path d="M25.333,46.947h9.266c1.29,0,2.338-1.048,2.338-2.338v-6.986c0-1.29-1.049-2.338-2.338-2.338h-9.266   c-1.289,0-2.338,1.049-2.338,2.338v6.986C22.995,45.898,24.044,46.947,25.333,46.947z M25.801,38.09h8.33v6.051h-8.33V38.09z"></path></g></svg>