<svg fill="#000000" xmlns="http://www.w3.org/2000/svg" data-name="Layer 1" viewBox="0 0 128 128" x="0px" y="0px"><defs><style>.cls-1,.cls-2{fill:none;stroke:#000000;stroke-linejoin:round;stroke-width:4px;}.cls-2{stroke-linecap:round;}</style></defs><title>Artboard 6</title><line class="cls-1" x1="64" x2="64" y2="19"/><line class="cls-1" x1="57" y1="6" x2="71" y2="6"/><polyline class="cls-2" points="81 40 64 19 47 40"/><line class="cls-1" x1="76" y1="35" x2="76" y2="87"/><line class="cls-1" x1="52" y1="87" x2="52" y2="35"/><line class="cls-2" x1="76" y1="62.8" x2="108.1" y2="94.9"/><line class="cls-2" x1="52.1" y1="62.8" x2="20" y2="94.9"/><polyline class="cls-2" points="41.1 93 64.1 82 64 82 87 93"/><polyline class="cls-1" points="47 90 47 126 81 126 81 90"/><polyline class="cls-1" points="87 122 99 122 99 86"/><polyline class="cls-1" points="29.1 86 29.1 122 41 122"/><path class="cls-1" d="M73,126V106a9,9,0,0,0-9-9h0a9,9,0,0,0-9,9v20"/><path class="cls-1" d="M64,98v30"/><circle class="cls-1" cx="64" cy="42" r="5"/></svg>