<svg xmlns="http://www.w3.org/2000/svg" xmlns:xlink="http://www.w3.org/1999/xlink" version="1.1" x="0px" y="0px" viewBox="0 0 100 100" enable-background="new 0 0 100 100" xml:space="preserve"><path d="M76.356,90.844c0-0.001-0.004-0.333-0.009-0.736c-0.005-0.403,0.009-1.414,0.031-2.247c0,0,0.078-2.963-0.191-5.151  c-0.213-2.193-0.365-4.391-0.71-6.618c-0.017-0.134-0.017-0.134-0.017-0.134c-0.038-0.114-0.133-0.828-0.212-1.586  c-0.079-0.758-0.396-3.426-0.529-4.248l-0.179-1.114c-0.133-0.822-0.274-1.598-0.314-1.725c-0.04-0.126-0.331-1.003-0.508-1.817  l-5.688-21.135c-0.264-0.79-0.57-2.112-0.68-2.937c0,0-1.611-12.07,1.35-19.097c1.962-4.656,5.63-11.628,2.603-16.545  c-0.628-1.02-2.057-0.992-2.691,0c-0.581,0.909-0.751,1.266-0.751,1.266c-0.358,0.752-1.076,1.9-1.596,2.551  c0,0-2.305,2.888-3.909,4.944c-0.064,0.081-0.064,0.081-0.064,0.081c-0.042,0.081-0.525,0.661-1.074,1.288  c0,0-1.645,1.88-3.068,3.454c-0.954,1.04-0.954,1.04-0.954,1.04c-0.457,0.493-1.251,1.225-1.763,1.627  c-0.512,0.402-1.833,1.777-2.017,1.976s-0.366,0.405-0.406,0.457c-0.04,0.052-0.569,0.693-1.124,1.314c0,0-2.134,2.388-3.81,4.056  c-1.679,1.669-4.253,3.762-4.253,3.762c-0.646,0.526-1.193,0.97-1.216,0.987c-0.023,0.017-0.017,0.032,0.014,0.032  c0.031,0,0.106,0.001,0.168,0.001c0.061,0,0.212,0.001,0.335,0.003c0.123,0.001,0.427,0.004,0.676,0.006  c0.249,0.002,0.863,0.009,1.366,0.014c0.503,0.006,1.596,0.02,2.428,0.032l0.504,0.007c0.833,0.012,1.911,0.028,2.397,0.036  s1.068,0.017,1.295,0.021c0.227,0.004,0.496,0.008,0.598,0.01c0.102,0.002,0.2,0.002,0.218,0.001c0.018-0.001,0.056,0.03,0.06,0.056  c0.003,0.026,0.011,0.089,0.017,0.14c0.006,0.051,0.045,0.334,0.087,0.628c0.042,0.294,0.106,1.634,0.138,2.273c0,0,0,0-0.023,0.584  c-0.001,0.122-0.001,0.122-0.001,0.122c-0.007,0.134-0.207,0.897-0.443,1.696c0,0-2.16,7.302-2.371,9.06  c-1.545,12.877-10.55,34.04-10.55,34.04c-0.326,0.766-1.27,1.316-2.098,1.222l-2.019-0.626c-0.711-0.434-1.685-1.346-2.165-2.027  c0,0-0.514-0.73-0.998-1.837c-1.246-2.878-1.677-6.07-1.69-9.216c-0.006-3.157,0.456-6.315,1.304-9.345  c0.801-2.773,2.95-6.405,2.95-6.405c0.424-0.717,1.673-2.34,2.234-2.956l0.169-0.187c0.56-0.616,0.412-0.81-0.329-0.43l-0.204,0.105  c-0.741,0.38-1.405,0.719-1.475,0.755c-0.07,0.036-3.3,1.768-5.004,3.31c0,0-12.935,11.613-3.49,29.206c0,0,2.754,4.444,5.545,6.305  c1.099,0.746,2.114,1.23,2.114,1.23c0.752,0.358,2.015,0.862,2.807,1.121l0.996,0.325c0.792,0.258,1.696,0.529,2.01,0.602  c0,0,0,0,0.287,0.057c1.451,0.285,2.923,0.449,4.407,0.47c1.486,0.012,2.969-0.067,4.5-0.497c0.118-0.032,0.118-0.032,0.118-0.032  c0.156-0.056,0.47-0.104,0.698-0.107c0.228-0.002,1.041-0.005,1.299,0.004c0.257,0.009,1.6-0.071,2.433-0.091  c0,0,0.246-0.006,1.129-0.038c4.757-0.172,14.871-0.366,21.12-1.122C77.352,92.974,76.356,90.844,76.356,90.844z M30.099,88.482  c-0.05-0.05-0.315-0.333-0.59-0.631c-0.275-0.297-0.948-1.122-0.945-1.125c0.003-0.003,0.237,0.282,0.522,0.632  C29.37,87.709,30.149,88.531,30.099,88.482z M70.207,87.67c0,0,0,0-0.231-0.099c-1.144-0.506-2.16-0.699-2.16-0.699  c-0.818-0.156-1.53-0.286-1.58-0.291c-0.051-0.005-0.206-0.009-0.234-0.008c-0.028,0.001-0.065-0.043-0.051-0.08  c0.013-0.036,0.112-0.316,0.22-0.621c0.108-0.305,0.331-1.09,0.497-1.743c0,0,0,0,0.152-0.594c0.162-0.593,0.285-1.191,0.38-1.791  c0.454-2.445,0.777-5.852,0.777-5.852c0.078-0.829,0.215-0.894,0.304-0.145c0,0,0,0,0.081,0.684  c0.442,3.532,1.778,9.124,1.778,9.124c0.194,0.81,0.302,1.82,0.405,2.083c0.034,0.086,0.034,0.086,0.034,0.086  C70.62,87.818,70.452,87.794,70.207,87.67z"></path></svg>