<svg xmlns="http://www.w3.org/2000/svg" xmlns:xlink="http://www.w3.org/1999/xlink" version="1.1" x="0px" y="0px" viewBox="0 0 144.083 144" enable-background="new 0 0 144.083 144" xml:space="preserve"><path d="M86.165,91.986c11.729-5.754,19.523-18.647,19.523-34.393c0-3.402-0.371-6.703-1.061-9.855  c0.813-1.274,1.321-2.76,1.402-4.36l4.641-16.239l-38.63-15.451L33.413,27.139l4.64,16.239c0.081,1.6,0.589,3.085,1.401,4.358  c-0.689,3.153-1.061,6.454-1.061,9.857c0,15.744,7.795,28.639,19.522,34.393c-10.408,4.166-24.21,13.798-24.21,26.082v14.244h6  v-14.244c0-8.632,11.222-16.604,19.68-20.247l6.572,6.644l-2.763,4.785l4.423,7.661h0.578l-5.156,15.313h18.002l-4.905-15.313h0.327  l4.424-7.661l-2.681-4.643l6.495-6.783c8.458,3.645,19.674,11.614,19.674,20.244v14.244h6v-14.244  C110.375,105.785,96.574,96.152,86.165,91.986z M72.041,18.149l31.372,12.549l-2.92,10.219H43.588l-2.919-10.219L72.041,18.149z   M44.393,57.594c0-2.036,0.166-4.022,0.454-5.958c0.703,0.177,1.436,0.281,2.193,0.281h50.001c0.758,0,1.489-0.104,2.193-0.281  c0.287,1.936,0.453,3.922,0.453,5.958c0,18.035-11.886,31.635-27.647,31.635S44.393,75.629,44.393,57.594z M72.789,101.59h-1.235  l-5.71-5.772c0.363-0.048,0.706-0.079,1.007-0.079h10.379c0.32,0,0.687,0.034,1.078,0.088L72.789,101.59z"></path><path d="M81.698,76.49h-6c0,1.563-1.675,2.882-3.658,2.882c-1.981,0-3.656-1.319-3.656-2.882h-6c0,4.897,4.332,8.882,9.656,8.882  C77.366,85.372,81.698,81.388,81.698,76.49z"></path><ellipse cx="55.528" cy="57.993" rx="2.766" ry="3.521"></ellipse><path d="M88.551,61.514c1.527,0,2.768-1.576,2.768-3.521c0-1.943-1.24-3.52-2.768-3.52c-1.525,0-2.766,1.576-2.766,3.52  C85.786,59.938,87.026,61.514,88.551,61.514z"></path><path d="M72.041,71.014c1.657,0,3.001-1.344,3.001-3v-4.358c0-1.656-1.344-3-3.001-3c-1.656,0-3,1.344-3,3v4.358  C69.041,69.67,70.384,71.014,72.041,71.014z"></path><polygon points="69.041,34.916 69.041,37.416 75.042,37.416 75.042,34.916 80.167,34.916 80.167,28.916 63.916,28.916   63.916,34.916 "></polygon></svg>