<svg fill="#000000" xmlns="http://www.w3.org/2000/svg" xmlns:xlink="http://www.w3.org/1999/xlink" version="1.1" x="0px" y="0px" viewBox="0 0 100 100" enable-background="new 0 0 100 100" xml:space="preserve"><g><path d="M37,45.539c-4.806,0-12.646-8.223-12.646-10.646c0-0.298,0.133-0.58,0.361-0.77c0.229-0.19,0.53-0.269,0.823-0.213   l21.291,4c0.473,0.089,0.815,0.501,0.815,0.982C47.646,43.799,41.911,45.539,37,45.539z M27.085,36.236   c1.885,2.575,6.947,7.303,9.915,7.303c2.96,0,7.81-0.831,8.55-3.834L27.085,36.236z"/><path d="M50,93.94C25.771,93.94,6.06,74.229,6.06,50S25.771,6.06,50,6.06S93.94,25.771,93.94,50S74.229,93.94,50,93.94z M50,10.06   c-22.023,0-39.94,17.917-39.94,39.94S27.977,89.94,50,89.94S89.94,72.023,89.94,50S72.023,10.06,50,10.06z"/><path d="M62.5,72.583c-0.05,0-26.316-3.97-26.316-3.97c-0.296-0.044-0.521-0.243-0.709-0.476c-0.48-0.595-3.162-3.013,0.215-5.82   c7.123-5.922,16.603-10.013,23.518-8.735c2.262,0.418,2.722,1.279,3.81,3.775c1.857,4.262,3.154,11.701,0.221,14.901   C63.046,72.467,62.778,72.583,62.5,72.583z M36.931,66.704l25.143,3.803c1.357-2.067,1.014-6.326,0.008-9.825   c-0.955-3.32-2.198-4.985-2.621-5.102l-0.253,0.002c-8.572,0-15.428,2.55-22.23,8.267c-1.345,1.13-1.3,1.188-0.559,2.156   C36.578,66.215,36.754,66.444,36.931,66.704z"/><path d="M37.5,43.3c-1.794,0-3.097-1.012-3.097-2.406c0-2.548,1.092-4.396,2.597-4.396c1.42,0,3.597,1.97,3.597,4.396   C40.597,42.288,39.294,43.3,37.5,43.3z M36.983,38.496c-0.102,0.094-0.58,0.942-0.58,2.397c0,0.184,2.193,0.184,2.193,0   C38.597,39.59,37.386,38.549,36.983,38.496z"/><path d="M63,45.539c-4.911,0-10.646-1.74-10.646-6.646c0-0.481,0.343-0.894,0.815-0.982l21.291-4   c0.291-0.057,0.595,0.022,0.823,0.213c0.229,0.189,0.361,0.472,0.361,0.77C75.646,37.316,67.806,45.539,63,45.539z M54.45,39.705   c0.74,3.003,5.59,3.834,8.55,3.834c2.962,0,8.012-4.71,9.905-7.301L54.45,39.705z"/><path d="M62.5,43.3c-1.794,0-3.097-1.012-3.097-2.406c0-2.427,2.177-4.396,3.597-4.396c1.505,0,2.597,1.849,2.597,4.396   C65.597,42.288,64.294,43.3,62.5,43.3z M62.919,38.481c-0.305,0.067-1.516,1.108-1.516,2.412c0,0.184,2.193,0.184,2.193,0   C63.597,39.438,63.118,38.59,62.919,38.481z"/><path d="M53.354,40.394h-6.709c-0.244,0-0.485-0.06-0.701-0.174L23.913,28.576c-0.732-0.387-1.012-1.295-0.625-2.027   c0.386-0.731,1.294-1.012,2.027-0.625l21.702,11.47h5.965l21.702-11.47c0.733-0.387,1.642-0.106,2.027,0.625   c0.387,0.732,0.107,1.641-0.625,2.027L54.056,40.22C53.84,40.334,53.599,40.394,53.354,40.394z"/><path d="M32.251,49.875c-0.365,0-0.718-0.201-0.894-0.549c-0.249-0.493-0.051-1.095,0.441-1.344l10.439-5.273   c0.492-0.252,1.095-0.051,1.344,0.441c0.249,0.493,0.051,1.095-0.441,1.344l-10.439,5.273   C32.557,49.841,32.402,49.875,32.251,49.875z"/><path d="M67.688,49.875c-0.152,0-0.308-0.035-0.454-0.109l-10.214-5.214c-0.491-0.251-0.687-0.854-0.436-1.346   c0.25-0.49,0.848-0.688,1.346-0.436l10.214,5.214c0.491,0.251,0.687,0.854,0.436,1.346C68.403,49.676,68.053,49.875,67.688,49.875z   "/><path d="M36.332,64.083c-0.518,0-0.956-0.399-0.996-0.925c-0.042-0.55,0.371-1.03,0.922-1.072l26.876-2.04   c0.567-0.039,1.031,0.371,1.073,0.921c0.042,0.551-0.371,1.031-0.922,1.073l-26.876,2.04   C36.383,64.082,36.357,64.083,36.332,64.083z"/></g></svg>