<svg fill="#000000" xmlns:dc="http://purl.org/dc/elements/1.1/" xmlns:cc="http://creativecommons.org/ns#" xmlns:rdf="http://www.w3.org/1999/02/22-rdf-syntax-ns#" xmlns:svg="http://www.w3.org/2000/svg" xmlns="http://www.w3.org/2000/svg" xmlns:sodipodi="http://sodipodi.sourceforge.net/DTD/sodipodi-0.dtd" xmlns:inkscape="http://www.inkscape.org/namespaces/inkscape" viewBox="0 0 48 48.000001" version="1.1" x="0px" y="0px"><g transform="translate(0,-1004.3622)"><path style="color:#000000;font-style:normal;font-variant:normal;font-weight:normal;font-stretch:normal;font-size:medium;line-height:normal;font-family:sans-serif;text-indent:0;text-align:start;text-decoration:none;text-decoration-line:none;text-decoration-style:solid;text-decoration-color:#000000;letter-spacing:normal;word-spacing:normal;text-transform:none;direction:ltr;block-progression:tb;writing-mode:lr-tb;baseline-shift:baseline;text-anchor:start;white-space:normal;clip-rule:nonzero;display:inline;overflow:visible;visibility:visible;opacity:1;isolation:auto;mix-blend-mode:normal;color-interpolation:sRGB;color-interpolation-filters:linearRGB;solid-color:#000000;solid-opacity:1;fill:#000000;fill-opacity:1;fill-rule:evenodd;stroke:none;stroke-width:1.06666696;stroke-linecap:round;stroke-linejoin:round;stroke-miterlimit:4;stroke-dasharray:none;stroke-dashoffset:0;stroke-opacity:1;color-rendering:auto;image-rendering:auto;shape-rendering:auto;text-rendering:auto;enable-background:accumulate" d="m 32.771574,1013.9417 a 0.53335466,0.53335466 0 0 0 -0.296857,0.092 l -5.019229,3.4256 -5.659815,-1.6971 a 0.53335466,0.53335466 0 0 0 -0.609338,0.7889 l 3.029114,4.9587 -4.220448,3.7674 a 0.53335466,0.53335466 0 0 0 0.445285,0.9238 l 7.173396,-1.2168 3.495883,6.2185 a 0.53335466,0.53335466 0 0 0 0.992127,-0.1875 l 0.812451,-5.7458 4.980169,-1.2616 a 0.53335466,0.53335466 0 0 0 0.132805,-0.9804 l -4.841505,-2.7694 0.123039,-5.7711 a 0.53335466,0.53335466 0 0 0 -0.537077,-0.5449 z m -0.550748,1.5565 -0.109368,5.0524 a 0.53335466,0.53335466 0 0 0 0.269514,0.4746 l 3.970464,2.2713 -4.044677,1.0274 a 0.53335466,0.53335466 0 0 0 -0.398414,0.4413 l -0.640587,4.5408 -2.908027,-5.1716 a 0.53335466,0.53335466 0 0 0 -0.554654,-0.2637 l -5.716452,0.9687 3.16973,-2.8299 a 0.53335466,0.53335466 0 0 0 0.0996,-0.6757 l -2.535004,-4.1502 4.568084,1.371 a 0.53335466,0.53335466 0 0 0 0.455051,-0.07 l 4.374736,-2.9861 z"/><path style="color:#000000;font-style:normal;font-variant:normal;font-weight:normal;font-stretch:normal;font-size:medium;line-height:normal;font-family:sans-serif;text-indent:0;text-align:start;text-decoration:none;text-decoration-line:none;text-decoration-style:solid;text-decoration-color:#000000;letter-spacing:normal;word-spacing:normal;text-transform:none;direction:ltr;block-progression:tb;writing-mode:lr-tb;baseline-shift:baseline;text-anchor:start;white-space:normal;clip-rule:nonzero;display:inline;overflow:visible;visibility:visible;opacity:1;isolation:auto;mix-blend-mode:normal;color-interpolation:sRGB;color-interpolation-filters:linearRGB;solid-color:#000000;solid-opacity:1;fill:#000000;fill-opacity:1;fill-rule:evenodd;stroke:none;stroke-width:1.06666696;stroke-linecap:round;stroke-linejoin:round;stroke-miterlimit:4;stroke-dasharray:none;stroke-dashoffset:0;stroke-opacity:1;color-rendering:auto;image-rendering:auto;shape-rendering:auto;text-rendering:auto;enable-background:accumulate" d="m 27.896868,1023.8512 a 0.53335466,0.53335466 0 0 0 -0.470675,0.2715 c -4.926495,8.4227 -10.03606,16.9167 -14.506938,25.514 a 0.53335466,0.53335466 0 1 0 0.945255,0.4922 c 4.450081,-8.5574 9.550608,-17.0369 14.481549,-25.4671 a 0.53335466,0.53335466 0 0 0 -0.449191,-0.8106 z"/><path style="color:#000000;font-style:normal;font-variant:normal;font-weight:normal;font-stretch:normal;font-size:medium;line-height:normal;font-family:sans-serif;text-indent:0;text-align:start;text-decoration:none;text-decoration-line:none;text-decoration-style:solid;text-decoration-color:#000000;letter-spacing:normal;word-spacing:normal;text-transform:none;direction:ltr;block-progression:tb;writing-mode:lr-tb;baseline-shift:baseline;text-anchor:start;white-space:normal;clip-rule:nonzero;display:inline;overflow:visible;visibility:visible;opacity:1;isolation:auto;mix-blend-mode:normal;color-interpolation:sRGB;color-interpolation-filters:linearRGB;solid-color:#000000;solid-opacity:1;fill:#000000;fill-opacity:1;fill-rule:evenodd;stroke:none;stroke-width:1.06666696;stroke-linecap:round;stroke-linejoin:round;stroke-miterlimit:4;stroke-dasharray:none;stroke-dashoffset:0;stroke-opacity:1;color-rendering:auto;image-rendering:auto;shape-rendering:auto;text-rendering:auto;enable-background:accumulate" d="m 8.3765602,1006.3035 a 0.53335466,0.53335466 0 0 0 -0.5116879,0.3378 l -2.2029923,5.568 -5.26530755,1.4159 a 0.53335466,0.53335466 0 0 0 -0.0585903,1.0118 l 4.93524945,1.9588 3.3552665,5.4274 a 0.53335466,0.53335466 0 0 0 0.9628326,-0.1211 l 1.6288083,-5.2243 4.361065,-2.535 a 0.53335466,0.53335466 0 0 0 -0.164052,-0.9844 l -4.556367,-0.9041 -1.997926,-5.5974 a 0.53335466,0.53335466 0 0 0 -0.4862988,-0.3534 z m -0.041014,2.0467 1.622949,4.5466 a 0.53335466,0.53335466 0 0 0 0.3984138,0.3456 l 3.466588,0.6875 -3.31816,1.9296 a 0.53335466,0.53335466 0 0 0 -0.242172,0.3028 l -1.3417166,4.3063 -2.8338136,-4.5837 a 0.53335466,0.53335466 0 0 0 -0.255844,-0.2148 l -3.6052514,-1.4316 3.9724168,-1.0703 a 0.53335466,0.53335466 0 0 0 0.3574003,-0.3182 l 1.7791897,-4.4998 z"/><path style="color:#000000;font-style:normal;font-variant:normal;font-weight:normal;font-stretch:normal;font-size:medium;line-height:normal;font-family:sans-serif;text-indent:0;text-align:start;text-decoration:none;text-decoration-line:none;text-decoration-style:solid;text-decoration-color:#000000;letter-spacing:normal;word-spacing:normal;text-transform:none;direction:ltr;block-progression:tb;writing-mode:lr-tb;baseline-shift:baseline;text-anchor:start;white-space:normal;clip-rule:nonzero;display:inline;overflow:visible;visibility:visible;opacity:1;isolation:auto;mix-blend-mode:normal;color-interpolation:sRGB;color-interpolation-filters:linearRGB;solid-color:#000000;solid-opacity:1;fill:#000000;fill-opacity:1;fill-rule:evenodd;stroke:none;stroke-width:1.06666696;stroke-linecap:round;stroke-linejoin:round;stroke-miterlimit:4;stroke-dasharray:none;stroke-dashoffset:0;stroke-opacity:1;color-rendering:auto;image-rendering:auto;shape-rendering:auto;text-rendering:auto;enable-background:accumulate" d="m 25.26812,1008.2466 c -0.495483,-0.2051 -1.098971,-0.265 -1.648338,0.02 -0.582339,0.3016 -0.836906,0.8676 -0.984315,1.332 -0.06433,0.2026 -0.139819,0.4565 -0.162101,0.746 -0.02228,0.2895 0.01296,0.6502 0.257798,0.9512 0.272311,0.3345 0.658998,0.4629 0.996033,0.5077 0.337036,0.045 0.657664,0.017 0.919866,-0.014 0.450897,-0.053 1.016827,-0.1898 1.386636,-0.6932 0.391961,-0.5341 0.456141,-1.2103 0.255843,-1.8046 -0.174065,-0.5168 -0.577846,-0.8593 -1.021422,-1.043 z m -1.158133,0.9668 c 0.160884,-0.083 0.506388,-0.083 0.749955,0.018 0.183798,0.076 0.377336,0.2721 0.419896,0.3985 0.08341,0.2474 0.0283,0.6516 -0.105462,0.8338 -0.07497,0.1021 -0.356792,0.2328 -0.652305,0.2676 -0.224754,0.026 -0.470351,0.038 -0.654257,0.014 -0.183907,-0.024 -0.273524,-0.076 -0.310528,-0.1211 -0.0077,-0.01 -0.03208,-0.06 -0.02148,-0.1973 0.0106,-0.1377 0.0605,-0.3272 0.117181,-0.5058 0.104415,-0.3289 0.299973,-0.6256 0.457004,-0.707 z"/><path style="color:#000000;font-style:normal;font-variant:normal;font-weight:normal;font-stretch:normal;font-size:medium;line-height:normal;font-family:sans-serif;text-indent:0;text-align:start;text-decoration:none;text-decoration-line:none;text-decoration-style:solid;text-decoration-color:#000000;letter-spacing:normal;word-spacing:normal;text-transform:none;direction:ltr;block-progression:tb;writing-mode:lr-tb;baseline-shift:baseline;text-anchor:start;white-space:normal;clip-rule:nonzero;display:inline;overflow:visible;visibility:visible;opacity:1;isolation:auto;mix-blend-mode:normal;color-interpolation:sRGB;color-interpolation-filters:linearRGB;solid-color:#000000;solid-opacity:1;fill:#000000;fill-opacity:1;fill-rule:evenodd;stroke:none;stroke-width:1.06666696;stroke-linecap:round;stroke-linejoin:round;stroke-miterlimit:4;stroke-dasharray:none;stroke-dashoffset:0;stroke-opacity:1;color-rendering:auto;image-rendering:auto;shape-rendering:auto;text-rendering:auto;enable-background:accumulate" d="m 39.402034,1034.5147 a 0.53335466,0.53335466 0 0 0 -0.511688,0.3378 l -1.462803,3.7048 -3.497835,0.9414 a 0.53335466,0.53335466 0 0 0 -0.05859,1.0097 l 3.300582,1.3124 2.251818,3.6404 a 0.53335466,0.53335466 0 0 0 0.962833,-0.1211 l 1.085871,-3.488 2.906075,-1.6894 a 0.53335466,0.53335466 0 0 0 -0.164052,-0.9843 l -2.999819,-0.5957 -1.326092,-3.7127 a 0.53335466,0.53335466 0 0 0 -0.486299,-0.3553 z m -0.04102,2.0486 0.949161,2.662 a 0.53335466,0.53335466 0 0 0 0.398413,0.3438 l 1.913948,0.3807 -1.865123,1.084 a 0.53335466,0.53335466 0 0 0 -0.240219,0.3026 l -0.802686,2.5702 -1.728412,-2.7966 a 0.53335466,0.53335466 0 0 0 -0.255843,-0.2149 l -1.974491,-0.7832 2.204946,-0.5936 a 0.53335466,0.53335466 0 0 0 0.357399,-0.3203 l 1.042907,-2.6347 z"/><path style="color:#000000;font-style:normal;font-variant:normal;font-weight:normal;font-stretch:normal;font-size:medium;line-height:normal;font-family:sans-serif;text-indent:0;text-align:start;text-decoration:none;text-decoration-line:none;text-decoration-style:solid;text-decoration-color:#000000;letter-spacing:normal;word-spacing:normal;text-transform:none;direction:ltr;block-progression:tb;writing-mode:lr-tb;baseline-shift:baseline;text-anchor:start;white-space:normal;clip-rule:nonzero;display:inline;overflow:visible;visibility:visible;opacity:1;isolation:auto;mix-blend-mode:normal;color-interpolation:sRGB;color-interpolation-filters:linearRGB;solid-color:#000000;solid-opacity:1;fill:#000000;fill-opacity:1;fill-rule:evenodd;stroke:none;stroke-width:1.06666696;stroke-linecap:round;stroke-linejoin:round;stroke-miterlimit:4;stroke-dasharray:none;stroke-dashoffset:0;stroke-opacity:1;color-rendering:auto;image-rendering:auto;shape-rendering:auto;text-rendering:auto;enable-background:accumulate" d="m 44.632187,1017.629 c -0.399447,-0.1643 -0.881055,-0.2153 -1.33781,0.019 -0.487068,0.251 -0.685439,0.7046 -0.800732,1.0663 -0.04888,0.1532 -0.108828,0.3516 -0.126946,0.5859 -0.01812,0.2344 0.0098,0.5422 0.222643,0.8027 0.232999,0.2846 0.55806,0.3879 0.828075,0.4238 0.270015,0.036 0.518021,0.014 0.718707,-0.01 0.354901,-0.041 0.81147,-0.1436 1.124932,-0.5683 0.325323,-0.4409 0.373292,-0.9793 0.208971,-1.4648 -0.146916,-0.4336 -0.47482,-0.7059 -0.83784,-0.8553 z m -0.849558,0.9667 c 0.07006,-0.036 0.294089,-0.042 0.443332,0.019 a 0.53335466,0.53335466 0 0 0 0.002,0 c 0.103405,0.043 0.218162,0.1689 0.232408,0.2109 0.04655,0.1375 0.0071,0.4012 -0.05859,0.4903 -0.01729,0.023 -0.190445,0.1171 -0.390602,0.1406 -0.161426,0.019 -0.335763,0.027 -0.453097,0.012 -0.117336,-0.016 -0.145558,-0.045 -0.14257,-0.041 0.02511,0.031 0.0074,0.037 0.01367,-0.045 0.0063,-0.082 0.04088,-0.2148 0.08203,-0.3438 0.0719,-0.2255 0.208704,-0.411 0.271468,-0.4433 z"/><path style="color:#000000;font-style:normal;font-variant:normal;font-weight:normal;font-stretch:normal;font-size:medium;line-height:normal;font-family:sans-serif;text-indent:0;text-align:start;text-decoration:none;text-decoration-line:none;text-decoration-style:solid;text-decoration-color:#000000;letter-spacing:normal;word-spacing:normal;text-transform:none;direction:ltr;block-progression:tb;writing-mode:lr-tb;baseline-shift:baseline;text-anchor:start;white-space:normal;clip-rule:nonzero;display:inline;overflow:visible;visibility:visible;opacity:1;isolation:auto;mix-blend-mode:normal;color-interpolation:sRGB;color-interpolation-filters:linearRGB;solid-color:#000000;solid-opacity:1;fill:#000000;fill-opacity:1;fill-rule:evenodd;stroke:none;stroke-width:1.06666696;stroke-linecap:round;stroke-linejoin:round;stroke-miterlimit:4;stroke-dasharray:none;stroke-dashoffset:0;stroke-opacity:1;color-rendering:auto;image-rendering:auto;shape-rendering:auto;text-rendering:auto;enable-background:accumulate" d="m 46.514886,1028.9193 c -0.410362,-0.055 -0.8096,-0.022 -1.140556,0.018 -0.555828,0.066 -1.240163,0.2403 -1.671774,0.83 -0.465419,0.636 -0.546274,1.468 -0.306623,2.1816 0.204129,0.6079 0.691002,1.0252 1.222584,1.246 0.599221,0.249 1.337065,0.3197 1.986208,-0.018 0.686,-0.3565 1.002995,-1.0457 1.185475,-1.623 0.08131,-0.2568 0.17627,-0.5756 0.203113,-0.9256 0.02684,-0.3501 -0.01697,-0.7682 -0.296857,-1.1132 -0.31523,-0.3888 -0.771207,-0.5409 -1.18157,-0.5957 z m -0.140616,1.0565 c 0.256518,0.034 0.411412,0.1114 0.492158,0.2109 0.0434,0.054 0.07774,0.1608 0.0625,0.3594 -0.01524,0.1987 -0.08257,0.4527 -0.15624,0.6856 -0.139636,0.4416 -0.397659,0.8625 -0.658165,0.9979 -0.260242,0.1353 -0.739016,0.1246 -1.085871,-0.019 -0.271462,-0.1128 -0.547762,-0.3833 -0.621057,-0.6016 -0.12342,-0.3674 -0.05343,-0.927 0.154288,-1.2108 0.137743,-0.1882 0.539443,-0.3551 0.939396,-0.4024 0.292474,-0.035 0.616476,-0.054 0.872995,-0.019 z"/><path style="color:#000000;font-style:normal;font-variant:normal;font-weight:normal;font-stretch:normal;font-size:medium;line-height:normal;font-family:sans-serif;text-indent:0;text-align:start;text-decoration:none;text-decoration-line:none;text-decoration-style:solid;text-decoration-color:#000000;letter-spacing:normal;word-spacing:normal;text-transform:none;direction:ltr;block-progression:tb;writing-mode:lr-tb;baseline-shift:baseline;text-anchor:start;white-space:normal;clip-rule:nonzero;display:inline;overflow:visible;visibility:visible;opacity:1;isolation:auto;mix-blend-mode:normal;color-interpolation:sRGB;color-interpolation-filters:linearRGB;solid-color:#000000;solid-opacity:1;fill:#000000;fill-opacity:1;fill-rule:evenodd;stroke:none;stroke-width:1.06666696;stroke-linecap:round;stroke-linejoin:round;stroke-miterlimit:4;stroke-dasharray:none;stroke-dashoffset:0;stroke-opacity:1;color-rendering:auto;image-rendering:auto;shape-rendering:auto;text-rendering:auto;enable-background:accumulate" d="m 29.642856,1042.8638 c -0.400283,-0.1649 -0.881777,-0.2185 -1.339763,0.018 -0.486842,0.251 -0.68351,0.7064 -0.79878,1.0682 -0.0489,0.1532 -0.110781,0.3497 -0.128898,0.584 -0.01812,0.2343 0.0097,0.5422 0.222643,0.8026 0.232979,0.2847 0.558063,0.388 0.828075,0.4239 0.270012,0.036 0.518021,0.014 0.718706,-0.01 0.355076,-0.042 0.811509,-0.1437 1.124933,-0.5684 0.325432,-0.4409 0.373386,-0.9792 0.208972,-1.4647 -0.146839,-0.4338 -0.472685,-0.704 -0.835888,-0.8534 z m -0.85151,0.9667 c 0.0702,-0.036 0.296056,-0.042 0.445285,0.02 0.10333,0.043 0.218189,0.1689 0.232408,0.2109 0.04656,0.1375 0.0091,0.3993 -0.05664,0.4883 -0.01722,0.023 -0.192463,0.1191 -0.392554,0.1425 -0.161425,0.019 -0.335773,0.027 -0.453098,0.012 -0.117325,-0.016 -0.145587,-0.047 -0.142569,-0.043 0.02126,0.028 0.0095,0.034 0.01563,-0.045 0.0063,-0.082 0.03895,-0.2129 0.08008,-0.3418 0.07182,-0.2254 0.208583,-0.4109 0.271469,-0.4433 z"/><path style="color:#000000;font-style:normal;font-variant:normal;font-weight:normal;font-stretch:normal;font-size:medium;line-height:normal;font-family:sans-serif;text-indent:0;text-align:start;text-decoration:none;text-decoration-line:none;text-decoration-style:solid;text-decoration-color:#000000;letter-spacing:normal;word-spacing:normal;text-transform:none;direction:ltr;block-progression:tb;writing-mode:lr-tb;baseline-shift:baseline;text-anchor:start;white-space:normal;clip-rule:nonzero;display:inline;overflow:visible;visibility:visible;opacity:1;isolation:auto;mix-blend-mode:normal;color-interpolation:sRGB;color-interpolation-filters:linearRGB;solid-color:#000000;solid-opacity:1;fill:#000000;fill-opacity:1;fill-rule:evenodd;stroke:none;stroke-width:1.06666696;stroke-linecap:round;stroke-linejoin:round;stroke-miterlimit:4;stroke-dasharray:none;stroke-dashoffset:0;stroke-opacity:1;color-rendering:auto;image-rendering:auto;shape-rendering:auto;text-rendering:auto;enable-background:accumulate" d="m 8.1070453,1026.9741 c -0.4954835,-0.2053 -1.0989712,-0.2652 -1.6483383,0.019 -0.58232,0.3016 -0.8369385,0.8675 -0.9843157,1.3319 l 0.00195,0 c -0.064366,0.2028 -0.1417793,0.4585 -0.1640526,0.7481 -0.022274,0.2895 0.012974,0.6501 0.257797,0.951 0.2723016,0.3347 0.6590074,0.4611 0.9960336,0.5059 0.3370262,0.045 0.6576655,0.017 0.9198665,-0.014 0.4511519,-0.053 1.0169001,-0.1898 1.3866352,-0.6933 0.3921744,-0.5341 0.4560505,-1.2122 0.2558439,-1.8065 -0.1740828,-0.5169 -0.5779248,-0.8593 -1.0214227,-1.0429 z m -1.1581334,0.9668 c 0.1608838,-0.083 0.506389,-0.081 0.7499548,0.02 0.1837709,0.076 0.3773525,0.27 0.4198966,0.3964 0.083403,0.2476 0.028197,0.6539 -0.1054624,0.8359 -0.074931,0.1021 -0.3569412,0.2309 -0.6523045,0.2656 -0.2247564,0.026 -0.4703681,0.04 -0.6542574,0.016 -0.1838893,-0.024 -0.271562,-0.078 -0.3085751,-0.1231 -0.0077,-0.01 -0.034028,-0.058 -0.023436,-0.1953 0.010591,-0.1377 0.060486,-0.3272 0.1171804,-0.5059 0.1043411,-0.3288 0.2999547,-0.6275 0.4570037,-0.7088 z"/></g></svg>