<svg xmlns="http://www.w3.org/2000/svg" xmlns:xlink="http://www.w3.org/1999/xlink" xmlns:a="http://ns.adobe.com/AdobeSVGViewerExtensions/3.0/" version="1.1" x="0px" y="0px" width="100px" height="100px" viewBox="-18.5 -3.999 100 100" enable-background="new -18.5 -3.999 100 100" xml:space="preserve">
<defs>
</defs>
<path d="M62,84.093V63.518c0.513-0.46,0.99-1.116,0.998-2.018c0-0.651-0.418-1.199-0.998-1.406V33.518  c0.513-0.46,0.99-1.116,0.998-2.016c0-0.653-0.418-1.202-0.998-1.408V8.518c0.512-0.46,0.989-1.116,1-2.018  c-0.012-0.999-0.594-1.711-1.164-2.171c-2.02-1.55-5.736-2.398-11.05-3.172C45.512,0.432,38.809,0.002,31.5,0  c-8.355,0.002-15.915,0.562-21.459,1.486C7.262,1.95,4.996,2.497,3.308,3.16C2.462,3.496,1.756,3.851,1.162,4.33  C0.592,4.79,0.01,5.501,0,6.5c0.009,0.902,0.488,1.56,1,2.02v21.574C0.419,30.3,0.001,30.85,0.001,31.502  c0.007,0.9,0.485,1.557,0.999,2.017v26.572c-0.581,0.207-0.999,0.758-0.999,1.409C0.009,62.402,0.487,63.058,1,63.519v20.574  c-0.581,0.206-0.999,0.755-0.999,1.407c0.01,0.998,0.591,1.712,1.162,2.17c2.02,1.551,5.737,2.398,11.049,3.174  c5.276,0.726,11.979,1.155,19.29,1.157c8.352-0.002,15.911-0.563,21.457-1.486c2.778-0.465,5.046-1.011,6.733-1.672  c0.846-0.337,1.552-0.692,2.146-1.173c0.57-0.458,1.151-1.172,1.162-2.17C63,84.849,62.581,84.3,62,84.093z M12.212,11.845  C17.489,12.569,24.191,13,31.5,13c8.354,0,15.912-0.561,21.459-1.485c2.428-0.406,4.439-0.88,6.041-1.433V25.5  c-4.629,1.766-15.196,3.001-27.5,3.001c-12.304,0-22.873-1.235-27.5-3.001V10.097C6.067,10.819,8.808,11.348,12.212,11.845z   M15.788,9.247C20.338,8.776,25.728,8.5,31.5,8.502C37.275,8.5,42.666,8.777,47.217,9.249C42.674,9.722,37.278,10.003,31.5,10  C25.715,10.002,20.332,9.72,15.788,9.247z M31.5,42.501c12.304,0,22.871-1.235,27.5-3.001v16c-4.629,1.767-15.196,3.001-27.5,3.001  c-12.304,0-22.873-1.234-27.5-3.001v-16C8.628,41.267,19.196,42.501,31.5,42.501z M6.174,5.374C11.162,3.983,20.679,2.995,31.5,3  c8.213,0,15.654,0.56,20.966,1.445c2.649,0.439,4.777,0.972,6.125,1.504c0.496,0.193,0.885,0.392,1.136,0.553  c-0.498,0.315-1.525,0.757-2.9,1.127c-0.752,0.209-1.617,0.408-2.563,0.598C48.666,7.163,40.555,6.502,31.5,6.5  C22.442,6.502,14.33,7.163,8.733,8.228c-1.817-0.365-3.297-0.77-4.326-1.177C3.912,6.858,3.524,6.659,3.272,6.5  C3.772,6.184,4.8,5.742,6.174,5.374z M31.501,89c-8.215,0-15.657-0.559-20.968-1.443c-2.65-0.44-4.777-0.972-6.125-1.505  C4.261,85.995,4.127,85.937,4,85.879V69.5c4.628,1.767,15.196,3.001,27.5,3.001c12.304,0,22.871-1.234,27.5-3.001v16.375  c-0.55,0.245-1.286,0.514-2.174,0.754C51.836,88.02,42.319,89.006,31.501,89z"/>
</svg>
