<svg xmlns="http://www.w3.org/2000/svg" xmlns:xlink="http://www.w3.org/1999/xlink" version="1.1" x="0px" y="0px" viewBox="0 0 100 100" style="enable-background:new 0 0 100 100;" xml:space="preserve"><g><path d="M75.9,8.9H24.1c-3.9,0-7.1,3.2-7.1,7.1v46.1V64v19.2c0,3.9,3.2,7.1,7.1,7.1h51.7c3.9,0,7.1-3.2,7.1-7.1V64V16   C83,12.1,79.8,8.9,75.9,8.9z M81,16v48c0,2.8-2.3,5.1-5.1,5.1H25.1V10.9h50.7C78.7,10.9,81,13.2,81,16z M19,64v-1.9V16   c0-2.5,1.8-4.6,4.1-5v58.2c-1.6,0.2-3.1,1-4.1,2.1V64z M81,70.3c0,2.8-2.3,5.1-5.1,5.1H24.1c-0.6,0-1,0.4-1,1s0.4,1,1,1h51.7   c2,0,3.8-0.8,5.1-2.2v1.5c0,2.8-2.3,5.1-5.1,5.1H24.1c-0.6,0-1,0.4-1,1s0.4,1,1,1h51.7c2,0,3.8-0.8,5.1-2.2v1.5   c0,2.8-2.3,5.1-5.1,5.1H24.1c-2.8,0-5.1-2.3-5.1-5.1v-6.9c0-2.8,2.3-5.1,5.1-5.1h51.7c2,0,3.8-0.8,5.1-2.2V70.3z"></path><path d="M43.6,35.1H51v16.1c0,0.6,0.4,1,1,1s1-0.4,1-1V35.1h7.3c0.6,0,1-0.4,1-1s-0.4-1-1-1H53v-6.4c0-0.6-0.4-1-1-1s-1,0.4-1,1   v6.4h-7.3c-0.6,0-1,0.4-1,1S43.1,35.1,43.6,35.1z"></path></g></svg>