<svg fill="#000000" xmlns="http://www.w3.org/2000/svg" xmlns:xlink="http://www.w3.org/1999/xlink" version="1.1" x="0px" y="0px" viewBox="0 0 100 100" enable-background="new 0 0 100 100" xml:space="preserve"><g><path fill="#000000" d="M85.047,62.194c-3.141-4.2-3.364-14.943-3.366-15.052c-0.001-0.038-0.003-0.076-0.009-0.113   c-1.408-10.654-5.329-18.473-11.654-23.242C61.811,17.6,52.637,18.88,52.25,18.937c-0.072,0.011-0.132,0.046-0.197,0.071   c-0.025-0.005-0.045-0.021-0.07-0.025c-0.396-0.059-9.817-1.368-18.167,4.93c-5.604,4.226-9.305,10.826-11.05,19.625   c-0.259-0.965-0.472-1.826-0.601-2.386c-0.109-0.475-0.547-0.806-1.032-0.773c-0.487,0.028-0.882,0.402-0.937,0.887   c-0.007,0.06-0.691,5.972-2.753,8.51c-1.449,1.783-4.048,4.411-4.074,4.438c-0.197,0.198-0.301,0.471-0.289,0.75   c0.013,0.279,0.143,0.54,0.357,0.72c1.896,1.589,3.357,3.035,4.008,3.968c0.374,0.537,0.792,1.582,1.192,2.777   c-2.971,4.107-3.58,8.646-1.654,12.492c1.938,3.871,6.035,6.275,10.692,6.275c0.398,0,0.759-0.236,0.917-0.602   c0.159-0.366,0.085-0.791-0.187-1.082c-0.029-0.03-2.307-2.51-1.97-5.28c1.366,2.791,4.388,6.964,10.241,6.964   c0.425,0,0.804-0.27,0.944-0.671s0.01-0.848-0.323-1.112c-0.041-0.033-4.112-3.304-4.359-6.65c-0.043-0.592,0.044-1.145,0.253-1.67   c3.814,7.445,10.675,13.363,18.714,13.363c8.22,0,14.841-5.548,18.582-12.743c0.248,0.563,0.355,1.147,0.295,1.768   c-0.301,3.073-4.151,5.875-4.19,5.903c-0.353,0.254-0.501,0.706-0.368,1.119s0.518,0.693,0.951,0.693c6.07,0,9-4.079,10.297-6.881   c0.619,3.009-1.389,5.063-1.492,5.166c-0.27,0.266-0.367,0.66-0.252,1.021c0.116,0.36,0.426,0.624,0.801,0.682   c0.494,0.076,0.986,0.113,1.474,0.113c3.383,0,6.501-1.798,8.369-4.914C88.369,73.05,89.072,67.572,85.047,62.194z M15.54,54.85   c0.905-0.938,2.427-2.551,3.455-3.814c1.095-1.347,1.844-3.361,2.339-5.193c0.565,1.897,1.272,3.916,1.959,4.902   c0.709,1.018,2.459,2.969,3.46,4.064c-0.998,0.839-2.216,1.987-3.37,3.407c-1.095,1.348-1.844,3.361-2.34,5.193   c-0.564-1.896-1.272-3.915-1.959-4.901C18.287,57.362,16.838,55.981,15.54,54.85z M30.479,63.371   c-1.981-0.27-3.526-2.104-3.526-4.344v-1.063l3.02-0.131v0.633C29.973,60.079,30.15,61.727,30.479,63.371z M33.755,78.723   c-4.815-1.662-6.265-7.157-6.334-7.431c-0.096-0.379-0.403-0.668-0.787-0.739c-0.386-0.069-0.774,0.086-1,0.405   c-1.996,2.822-1.235,5.909-0.041,8.043c-3.002-0.571-5.518-2.37-6.823-4.977c-1.379-2.754-1.129-5.99,0.63-9.086   c0.357,1.272,0.651,2.454,0.813,3.161c0.105,0.456,0.511,0.775,0.974,0.775c0.019,0,0.039-0.001,0.058-0.002   c0.487-0.028,0.882-0.402,0.936-0.888c0.184-1.65,1.038-6.397,2.753-8.509c0.012-0.015,0.025-0.028,0.037-0.044   c0.198,3.338,2.807,5.989,5.995,5.993c0.326,1.168,0.729,2.325,1.201,3.46c-0.922,1.202-1.335,2.554-1.225,4.029   C31.11,75.148,32.476,77.232,33.755,78.723z M69.521,69.183c-0.057,0.088-0.098,0.178-0.125,0.275   c-3.262,7.234-9.563,12.997-17.492,12.997c-7.698,0-14.211-6.065-17.544-13.455c-0.005-0.25-0.105-0.495-0.294-0.686   c-1.34-3.191-2.093-6.596-2.093-9.848v-0.775c0.701-0.144,1.318-0.449,1.875-0.867c-0.112,0.374-0.19,0.764-0.19,1.176v2.422   c0,2.206,1.734,4,3.866,4h9.314c2.132,0,3.866-1.794,3.866-4V59h1.94v1.422c0,2.206,1.734,4,3.866,4h9.314   c2.132,0,3.866-1.794,3.866-4V58c0-0.268-0.028-0.527-0.076-0.78c0.711,0.267,1.449,0.442,2.22,0.521v0.726   C71.836,62.057,71.015,65.775,69.521,69.183z M57.09,51.308h5.873c0.689,1.007,1.4,1.901,2.135,2.692h-8.586   c-1.797,0-3.297,1.279-3.729,3h-2.215c-0.432-1.721-1.933-3-3.729-3h-9.314c-0.605,0-1.171,0.157-1.682,0.415   c1.381-2.458,2.183-5.9,2.926-9.115c0.843-3.649,1.715-7.423,3.192-8.695c1.086-0.936,2.141-1.355,3.15-1.24   c1.526,0.171,2.535,1.512,2.542,1.521c0.187,0.259,0.487,0.413,0.807,0.414c0.001,0,0.002,0,0.003,0   c0.318,0,0.618-0.152,0.806-0.409c0.016-0.02,1.567-2.062,3.426-1.847c1.627,0.188,3.244,2.064,4.676,5.424   c1.426,3.349,2.844,6.325,4.329,8.838h-4.61c-0.553,0-1,0.448-1,1S56.537,51.308,57.09,51.308z M56.965,59.086   c0.332,0.167,0.719,0.049,0.93-0.242c-0.041,0.184-0.066,0.374-0.066,0.57c0,1.449,1.176,2.621,2.624,2.621   c1.447,0,2.622-1.172,2.622-2.621c0-0.411-0.103-0.795-0.271-1.141c0.354,0.328,0.569,0.702,0.592,1.044   c0.025,0.397,0.355,0.702,0.748,0.702c0.016,0,0.031,0,0.048-0.002c0.413-0.026,0.728-0.383,0.7-0.796   c-0.084-1.313-1.354-2.841-3.535-3.222h4.471c1.029,0,1.866,0.897,1.866,2v2.422c0,1.103-0.837,2-1.866,2h-9.314   c-1.029,0-1.866-0.897-1.866-2V58c0-1.103,0.837-2,1.866-2h2.933c-1.435,0.292-2.389,1.21-2.819,2.081   C56.441,58.453,56.593,58.902,56.965,59.086z M37.524,56h9.314c1.029,0,1.866,0.897,1.866,2v2.422c0,1.103-0.837,2-1.866,2h-9.314   c-1.029,0-1.866-0.897-1.866-2V58C35.658,56.897,36.496,56,37.524,56z M84.655,75.354c-1.386,2.31-3.614,3.717-6.064,3.917   c1.067-1.949,1.688-4.969-0.34-8.261c-0.215-0.35-0.618-0.536-1.026-0.459c-0.403,0.071-0.723,0.383-0.805,0.784   c-0.057,0.271-1.236,5.713-6.17,7.379c1.16-1.312,2.327-3.08,2.521-5.034c0.147-1.493-0.277-2.882-1.262-4.137   c0.572-1.355,1.057-2.748,1.423-4.164c2.978-0.383,5.294-3.086,5.294-6.354v-2.019c0-0.533-0.418-0.973-0.951-0.999l-4.34-0.213   c-0.033-0.003-0.066-0.005-0.1-0.005c-4.869,0-8.689-4.515-13.625-16.104c-1.754-4.118-3.869-6.348-6.286-6.627   c-1.984-0.228-3.579,0.918-4.478,1.776c-0.67-0.593-1.725-1.293-3.087-1.453c-1.591-0.188-3.17,0.389-4.704,1.708   c-1.974,1.699-2.878,5.615-3.836,9.76c-1.185,5.128-2.528,10.94-5.847,10.94c-0.008,0-0.014,0.004-0.021,0.004   c-0.007,0.001-0.014-0.003-0.021-0.003l-2.34,0.101c0.081-0.063,0.164-0.13,0.234-0.184c0.223-0.172,0.363-0.43,0.386-0.71   c0.023-0.281-0.073-0.559-0.266-0.764c-0.031-0.033-3.093-3.318-4.01-4.634c-0.25-0.359-0.52-0.945-0.791-1.651   c0.015-0.345,0.022-0.6,0.024-0.713c1.329-9.976,4.972-17.28,10.828-21.709c7.666-5.798,16.604-4.581,16.696-4.566   c0.173,0.025,0.335-0.008,0.488-0.065c0.116,0.026,0.238,0.038,0.363,0.02c0.086-0.014,8.727-1.218,16.271,4.469   c5.871,4.426,9.527,11.778,10.868,21.852c0.021,0.986,0.33,11.564,3.764,16.157C86.877,67.978,86.32,72.578,84.655,75.354z    M73.403,63.227c0.284-1.588,0.433-3.186,0.433-4.76v-0.626l2.391,0.118v1.066C76.227,60.996,75.037,62.668,73.403,63.227z"/><path fill="#000000" d="M58.125,70.805c-0.025,0.027-2.566,2.796-6.416,2.796c-3.842,0-6.444-2.755-6.49-2.805   c-0.373-0.406-1.003-0.437-1.411-0.063c-0.408,0.372-0.437,1.005-0.065,1.413c0.128,0.141,3.205,3.455,7.966,3.455   c4.77,0,7.781-3.322,7.907-3.464c0.366-0.412,0.329-1.041-0.081-1.409C59.125,70.361,58.492,70.395,58.125,70.805z"/><path fill="#000000" d="M38.928,60.307c0.017,0.001,0.033,0.002,0.049,0.002c0.393,0,0.722-0.305,0.748-0.701   c0.022-0.342,0.237-0.717,0.592-1.046c-0.168,0.346-0.271,0.729-0.271,1.14c0,1.451,1.174,2.623,2.622,2.623   s2.623-1.172,2.623-2.623c0-0.195-0.025-0.384-0.065-0.567c0.211,0.29,0.597,0.405,0.929,0.241c0.372-0.184,0.523-0.633,0.34-1.005   c-0.58-1.171-2.095-2.434-4.459-2.139c-2.355,0.296-3.72,1.91-3.809,3.278C38.202,59.924,38.515,60.28,38.928,60.307z"/><path fill="#000000" d="M45.762,49.348h-6.723c-0.552,0-1,0.448-1,1s0.448,1,1,1h6.723c0.552,0,1-0.447,1-1   S46.314,49.348,45.762,49.348z"/></g></svg>