<svg xmlns="http://www.w3.org/2000/svg" xmlns:xlink="http://www.w3.org/1999/xlink" version="1.1" x="0px" y="0px" width="100px" height="100px" viewBox="0 0 100 100" enable-background="new 0 0 100 100" xml:space="preserve">
<g id="Captions">
</g>
<g id="Your_Icon">
	<g>
		<path d="M50,85.158c-3.169,0-6.244-0.622-9.14-1.847c-2.797-1.184-5.308-2.876-7.464-5.032c-2.156-2.155-3.849-4.666-5.032-7.462    c-1.225-2.896-1.847-5.973-1.847-9.142c0-8.1,4.15-15.561,10.935-19.851V25.563h-6.084V14.842h37.264v10.721h-6.081v16.263    c6.781,4.29,10.932,11.751,10.932,19.851c0,3.169-0.622,6.245-1.847,9.142c-1.184,2.796-2.876,5.307-5.032,7.462    c-2.153,2.156-4.664,3.849-7.461,5.032C56.244,84.536,53.169,85.158,50,85.158z M42.964,25.31v19.744l-1.453,0.78    c-5.848,3.142-9.479,9.211-9.479,15.842c0,9.908,8.059,17.971,17.968,17.971s17.971-8.063,17.971-17.971    c0-6.631-3.634-12.7-9.481-15.842l-1.45-0.78V25.31H42.964z"/>
	</g>
	<path d="M34.976,61.222c0,0,29.834-14.943,30.049,0c0,8.297-6.727,15.023-15.024,15.023S34.976,69.519,34.976,61.222z"/>
</g>
</svg>
