<svg fill="#000000" xmlns="http://www.w3.org/2000/svg" xmlns:xlink="http://www.w3.org/1999/xlink" version="1.0" x="0px" y="0px" viewBox="0 0 100 100" enable-background="new 0 0 100 100" xml:space="preserve"><path d="M76.2,9.6h-1c-2.2,0-4,1.8-4,4v27.5H29.8V13.6c0-2.2-1.8-4-4-4h-1c-2.2,0-4,1.8-4,4v31.5v0.3v0.7c0,2.2,1.8,4,4,4H46v12.5  c-2,0.2-3.6,1.9-3.6,4v19.8c0,1.8,1.3,2.9,2.9,3.9c0.9,0.5,2.6,1.1,5.2,1.1c2.5,0,4.2-0.7,5.2-1.1c1.9-1.2,2.9-2,2.9-3.9V66.7  c0-2.1-1.6-3.8-3.6-4V50.1h21.2c2.2,0,4-1.8,4-4v-0.7v-0.3V13.6C80.2,11.4,78.4,9.6,76.2,9.6z M45.4,79.2v-7h10.2v7H45.4z   M55.6,80.2v2H45.4v-2H55.6z M45.4,71.2v-2h10.2v2H45.4z M54.8,87.5c0,0-1.5,1-4.3,1c-2.8,0-4.4-1-4.4-1c-0.4-0.3-0.7-0.4-0.7-1  v-3.2h10.2v3.2C55.6,87,55.1,87.3,54.8,87.5z M55.6,66.7v1.6H45.4v-1.6c0-0.5,0.4-1,1-1h8.2C55.2,65.7,55.6,66.1,55.6,66.7z   M77.2,45.1v0.3v0.7c0,0.5-0.5,1-1,1H52v16.5h-3V47.1H24.8c-0.6,0-1-0.5-1-1v-0.7v-0.3V13.6c0-0.5,0.4-1,1-1h1c0.5,0,1,0.5,1,1v30.5  h47.4V13.6c0-0.5,0.4-1,1-1h1c0.5,0,1,0.5,1,1V45.1z"/></svg>