<svg fill="#000000" xmlns="http://www.w3.org/2000/svg" viewBox="0 0 100 100" x="0px" y="0px"><title>Artboard 29</title><g data-name="Layer 2"><path d="M60.5,50A10.5,10.5,0,1,0,50,60.5,10.5118,10.5118,0,0,0,60.5,50Zm-20,0A9.5,9.5,0,1,1,50,59.5,9.51081,9.51081,0,0,1,40.5,50Z"/><path d="M60.64648,13.89648,50.5,24.043V6a.5.5,0,0,0-1,0V24.043L39.35352,13.89648a.49995.49995,0,0,0-.707.707L49.64587,25.60291a.50148.50148,0,0,0,.70825,0L61.35352,14.60352a.49995.49995,0,0,0-.707-.707Z"/><path d="M50.35413,74.39709a.50148.50148,0,0,0-.70825,0L38.64648,85.39648a.49995.49995,0,1,0,.707.707L49.5,75.957V94a.5.5,0,0,0,1,0V75.957L60.64648,86.10352a.49995.49995,0,0,0,.707-.707Z"/><path d="M5.5,50a.49971.49971,0,0,0,.5.5H24.043L13.89648,60.64648a.49995.49995,0,1,0,.707.707L25.60291,50.35413a.50148.50148,0,0,0,0-.70825L14.60352,38.64648a.49995.49995,0,0,0-.707.707L24.043,49.5H6A.49971.49971,0,0,0,5.5,50Z"/><path d="M94,49.5H75.957L86.10352,39.35352a.49995.49995,0,0,0-.707-.707L74.39709,49.64587a.50148.50148,0,0,0,0,.70825L85.39648,61.35352a.49995.49995,0,0,0,.707-.707L75.957,50.5H94a.5.5,0,0,0,0-1Z"/></g></svg>