<svg fill="#000000" xmlns="http://www.w3.org/2000/svg" xmlns:xlink="http://www.w3.org/1999/xlink" version="1.2" baseProfile="tiny" x="0px" y="0px" viewBox="0 0 100 100" xml:space="preserve"><path d="M50,31.25c6.203,0,11.25-5.047,11.25-11.25S56.203,8.75,50,8.75S38.75,13.797,38.75,20S43.797,31.25,50,31.25z M50,16.25  c2.068,0,3.75,1.682,3.75,3.75s-1.682,3.75-3.75,3.75s-3.75-1.682-3.75-3.75S47.932,16.25,50,16.25z"/><polygon points="55.303,39.394 50,44.697 44.697,39.394 39.394,44.697 44.697,50 39.394,55.303 44.697,60.606 50,55.303   55.303,60.606 60.606,55.303 55.303,50 60.606,44.697 "/><polygon points="47.348,80 42.045,74.697 36.742,80 47.348,90.606 63.258,74.697 57.955,69.394 "/><polygon points="27.49,77.5 27.49,82.5 32.5,82.5 32.49,77.5 "/><polygon points="20.083,52.734 22.479,52.392 21.771,47.442 19.297,47.795 16.662,48.354 17.71,53.242 "/><polygon points="17.531,76.901 16.824,81.851 19.22,82.194 21.593,82.701 22.641,77.813 20.197,77.29 "/><polygon points="14.447,55.102 10.578,51.936 7.398,55.821 11.281,58.972 "/><polygon points="7.412,74.195 10.592,78.081 14.448,74.898 11.282,71.029 "/><polygon points="10,62.5 5,62.5 5,67.521 10,67.5 "/><polygon points="27.5,52.5 32.5,52.5 32.5,47.5 27.49,47.5 "/><polygon points="67.51,22.5 72.51,22.5 72.51,17.5 67.5,17.5 "/><polygon points="79.917,47.266 77.521,47.608 78.229,52.558 80.703,52.205 83.338,51.646 82.29,46.758 "/><polygon points="82.469,23.099 83.176,18.149 80.78,17.806 78.407,17.299 77.359,22.187 79.803,22.71 "/><polygon points="85.553,44.898 89.422,48.064 92.602,44.179 88.719,41.028 "/><polygon points="92.588,25.805 89.408,21.919 85.552,25.102 88.718,28.971 "/><polygon points="90,37.5 95,37.5 95,32.479 90,32.5 "/><polygon points="67.5,47.5 67.5,52.5 72.51,52.5 72.5,47.5 "/></svg>