<svg fill="#000000" xmlns="http://www.w3.org/2000/svg" xmlns:xlink="http://www.w3.org/1999/xlink" version="1.1" x="0px" y="0px" viewBox="0 0 100 100" enable-background="new 0 0 100 100" xml:space="preserve"><g><path fill="none" d="M66.753,19.604c-6.218-5.988-14.358-9.335-22.975-9.335s-16.758,3.347-22.744,9.335   c-6.217,6.221-9.572,14.121-9.572,22.735c0,8.616,3.354,16.756,9.572,22.982c2.154,2.153,4.554,3.826,6.944,5.265l44.042-44.042   C70.588,24.146,68.675,21.755,66.753,19.604z"/><path fill="none" d="M68.433,54.547l7.414-7.417c0.716-5.03,0.239-10.297-1.435-15.083L33.486,72.983   c3.347,1.195,6.698,1.674,10.291,1.674c1.674,0,3.351,0,4.782-0.238l7.425-7.423c0.477-0.477,1.193-0.718,1.912-0.718   c0.716,0,1.442,0.241,1.919,0.718l19.389,19.388l8.618-8.618L68.433,58.377C67.23,57.421,67.23,55.747,68.433,54.547z"/><path d="M93.321,75.853l-19.386-19.39l6.225-5.984c0.242-0.479,0.477-0.956,0.719-1.435c2.151-12.211-1.916-24.414-10.533-33.032   C63.405,8.83,53.83,5,43.777,5C33.728,5,24.391,8.83,17.205,16.013C10.261,22.951,6.199,32.525,6.199,42.339   c0,10.056,4.063,19.63,11.007,26.57c7.186,7.182,16.523,11.012,26.572,11.012c2.154,0,4.305,0,6.467-0.479   c0.715,0,1.193-0.479,1.431-0.716l6.221-6.228L77.29,91.891c0.477,0.715,1.196,0.956,1.915,0.956c0.716,0,1.432-0.241,1.913-0.956   l12.203-12.209c0.481-0.479,0.958-1.196,0.958-1.918C94.04,77.047,93.802,76.33,93.321,75.853z M21.033,65.321   c-6.217-6.226-9.572-14.367-9.572-22.982c0-8.614,3.354-16.514,9.572-22.735c5.986-5.988,14.126-9.335,22.744-9.335   s16.758,3.347,22.975,9.335c1.923,2.151,3.835,4.542,5.267,6.941L27.977,70.586C25.588,69.147,23.188,67.474,21.033,65.321z    M79.205,86.382L59.816,66.995c-0.477-0.477-1.204-0.718-1.919-0.718c-0.719,0-1.435,0.241-1.912,0.718l-7.425,7.423   c-1.431,0.238-3.109,0.238-4.782,0.238c-3.593,0-6.944-0.479-10.291-1.674l40.926-40.935c1.674,4.786,2.151,10.053,1.435,15.083   l-7.414,7.417c-1.203,1.2-1.203,2.874,0,3.83l19.389,19.388L79.205,86.382z"/><path d="M12.897,80.639c-4.067,0-7.175,3.114-7.175,7.182c0,3.83,3.109,7.179,7.175,7.179c3.835,0,6.944-3.349,6.944-7.179   C19.841,83.753,16.732,80.639,12.897,80.639z"/></g></svg>