<svg xmlns="http://www.w3.org/2000/svg" xmlns:xlink="http://www.w3.org/1999/xlink" version="1.1" x="0px" y="0px" width="100px" height="100px" viewBox="0 0 100 100" enable-background="new 0 0 100 100" xml:space="preserve">
<g id="Captions">
</g>
<g id="Your_Icon">
	<path d="M95.626,50c0,4-3.347,7.459-7.46,7.459c-4.112,0-7.458-3.459-7.458-7.459h-0.192h-3.808h-0.192c0,4-3.347,7.459-7.46,7.459   c-4.112,0-7.458-3.459-7.458-7.459h-0.191h-3.809h-0.191c0,4-3.347,7.459-7.46,7.459c-4.113,0-7.459-3.459-7.459-7.459h-0.192   h-3.808h-0.192c0,4-3.346,7.459-7.459,7.459S23.377,54,23.377,50h-0.193h-3.807h-0.193c0,4-3.346,7.459-7.459,7.459   S4.267,54,4.267,50h-4c0,6,5.141,11.459,11.459,11.459c3.987,0,7.502-2.177,9.556-5.289c2.053,3.112,5.567,5.289,9.555,5.289   c3.987,0,7.501-2.176,9.555-5.288c2.053,3.112,5.567,5.288,9.555,5.288s7.502-2.176,9.556-5.288   c2.053,3.112,5.566,5.288,9.554,5.288c3.988,0,7.503-2.177,9.556-5.288c2.054,3.111,5.567,5.288,9.555,5.288   c6.319,0,11.46-5.459,11.46-11.459H95.626z"/>
</g>
</svg>
