<svg xmlns="http://www.w3.org/2000/svg" xmlns:xlink="http://www.w3.org/1999/xlink" version="1.1" id="Layer_1" x="0px" y="0px" width="100px" height="100px" viewBox="0 0 100 100" enable-background="new 0 0 100 100" xml:space="preserve">
<g>
	<path d="M38.94,18.359c-0.034-0.157-0.088-0.297-0.162-0.417c-0.075-0.119-0.172-0.217-0.295-0.292   c-0.124-0.073-0.273-0.121-0.455-0.146c-0.18-0.027-0.395-0.022-0.641,0.003c-0.051,0.011-0.094-0.006-0.128-0.051   c-0.033-0.044-0.056-0.096-0.069-0.157c-0.013-0.062-0.012-0.119,0.004-0.172c0.015-0.053,0.05-0.086,0.107-0.097l0.537-0.113   c0.246-0.051,0.501-0.099,0.765-0.139c0.258-0.04,0.495-0.071,0.709-0.086c0.226-0.019,0.359-0.005,0.403,0.035l7.206,5.634   c0.025,0.023,0.06,0.025,0.107,0.005c0.046-0.018,0.063-0.059,0.051-0.114l-0.74-3.503l-0.073-0.342   c-0.036-0.167-0.074-0.349-0.117-0.541c-0.042-0.193-0.09-0.378-0.136-0.561c-0.048-0.181-0.098-0.351-0.147-0.505   c-0.05-0.153-0.103-0.278-0.156-0.368c-0.07-0.132-0.142-0.232-0.209-0.303c-0.069-0.07-0.147-0.119-0.235-0.147   c-0.091-0.026-0.194-0.036-0.317-0.027c-0.121,0.009-0.27,0.024-0.445,0.047c-0.051,0.011-0.093-0.006-0.128-0.054   c-0.034-0.048-0.058-0.102-0.071-0.163c-0.012-0.056-0.012-0.109,0.003-0.163c0.013-0.053,0.045-0.084,0.097-0.095   c0.229-0.048,0.476-0.085,0.743-0.112c0.265-0.029,0.533-0.07,0.805-0.128c0.247-0.051,0.486-0.118,0.723-0.196   c0.238-0.079,0.509-0.151,0.815-0.216c0.058-0.012,0.104,0.004,0.145,0.046c0.041,0.044,0.068,0.097,0.081,0.159   c0.013,0.061,0.01,0.118-0.013,0.171c-0.02,0.055-0.057,0.086-0.112,0.098c-0.164,0.053-0.296,0.096-0.398,0.127   c-0.103,0.031-0.185,0.075-0.247,0.128c-0.061,0.056-0.11,0.128-0.151,0.223c-0.038,0.091-0.075,0.225-0.111,0.399   c-0.021,0.125-0.025,0.29-0.009,0.495c0.017,0.207,0.042,0.425,0.076,0.655c0.037,0.231,0.077,0.462,0.122,0.691   c0.044,0.228,0.086,0.427,0.124,0.598l1.308,6.188c0.008,0.033-0.026,0.069-0.1,0.107c-0.075,0.04-0.155,0.07-0.238,0.086   c-0.05,0.012-0.099,0.016-0.149,0.014c-0.048-0.002-0.083-0.014-0.104-0.039l-7.69-5.991c-0.03-0.024-0.077-0.029-0.142-0.015   c-0.064,0.015-0.09,0.058-0.074,0.133l1.101,5.206c0.072,0.34,0.155,0.599,0.249,0.775c0.093,0.178,0.203,0.301,0.334,0.375   c0.129,0.073,0.279,0.108,0.448,0.105c0.17-0.001,0.368-0.012,0.592-0.03c0.058-0.002,0.105,0.017,0.141,0.059   c0.036,0.042,0.06,0.091,0.07,0.147c0.013,0.062,0.01,0.121-0.009,0.174c-0.021,0.053-0.06,0.086-0.114,0.097   c-0.211,0.044-0.444,0.079-0.704,0.1c-0.262,0.021-0.563,0.067-0.909,0.14c-0.362,0.077-0.679,0.161-0.949,0.253   c-0.27,0.089-0.502,0.156-0.698,0.198c-0.051,0.011-0.097-0.004-0.138-0.047c-0.04-0.044-0.067-0.097-0.08-0.158   c-0.011-0.053-0.009-0.104,0.006-0.157c0.015-0.052,0.053-0.09,0.112-0.113c0.24-0.079,0.44-0.154,0.601-0.222   c0.16-0.068,0.281-0.16,0.361-0.277c0.079-0.116,0.12-0.273,0.123-0.469c0.003-0.197-0.032-0.465-0.104-0.805L38.94,18.359z"/>
</g>
<g>
	<path d="M25.595,53.246c-0.986,0.627-1.996,1.242-3.028,1.844c-1.036,0.603-2.077,1.182-3.125,1.74   c-0.062,0.037-0.082,0.084-0.068,0.136c0.017,0.054,0.06,0.084,0.13,0.094l7.04,0.538c0.05,0.006,0.094,0.04,0.129,0.101   c0.034,0.062,0.058,0.129,0.074,0.206c0.014,0.063,0.015,0.127,0.003,0.189c-0.01,0.063-0.039,0.111-0.087,0.137   c-0.571,0.356-1.142,0.709-1.71,1.06c-0.571,0.348-1.15,0.694-1.738,1.03c-0.589,0.342-1.188,0.683-1.801,1.021   c-0.61,0.337-1.24,0.675-1.887,1.012c-0.226,0.122-0.426,0.237-0.599,0.354c-0.172,0.112-0.313,0.243-0.423,0.391   c-0.109,0.147-0.185,0.314-0.229,0.504c-0.042,0.19-0.047,0.419-0.015,0.689c0.006,0.052-0.015,0.099-0.063,0.138   c-0.048,0.04-0.103,0.065-0.166,0.078c-0.055,0.015-0.108,0.011-0.155-0.006c-0.05-0.017-0.079-0.053-0.092-0.108   c-0.039-0.185-0.07-0.365-0.098-0.537c-0.028-0.172-0.051-0.341-0.07-0.504c-0.022-0.161-0.043-0.326-0.068-0.489   c-0.025-0.161-0.056-0.328-0.092-0.501c-0.077-0.367-0.175-0.745-0.289-1.129c-0.115-0.383-0.214-0.773-0.298-1.166   c-0.011-0.052,0.004-0.095,0.041-0.13c0.042-0.036,0.086-0.057,0.139-0.072c0.062-0.012,0.121-0.008,0.184,0.011   c0.06,0.018,0.098,0.053,0.114,0.104c0.039,0.137,0.076,0.278,0.116,0.423c0.038,0.146,0.089,0.274,0.151,0.389   c0.063,0.11,0.146,0.197,0.248,0.258c0.101,0.057,0.232,0.066,0.39,0.036c0.092-0.019,0.251-0.077,0.471-0.169   c0.221-0.096,0.546-0.246,0.976-0.464c0.431-0.214,0.989-0.505,1.673-0.865c0.687-0.364,1.542-0.827,2.569-1.392   c0.051-0.036,0.073-0.085,0.064-0.148c-0.01-0.063-0.049-0.102-0.12-0.108c-1.282-0.135-2.54-0.23-3.775-0.289   c-1.233-0.061-2.463-0.118-3.687-0.183c-0.055-0.003-0.099-0.033-0.134-0.088c-0.038-0.055-0.064-0.116-0.076-0.189   c-0.016-0.064-0.016-0.125-0.006-0.188c0.011-0.061,0.043-0.101,0.091-0.122c1.112-0.6,2.217-1.212,3.315-1.841   c1.096-0.63,2.183-1.287,3.257-1.969c0.065-0.045,0.093-0.093,0.086-0.154c-0.008-0.059-0.038-0.09-0.094-0.092   c-0.833-0.091-1.593-0.158-2.275-0.204c-0.682-0.048-1.281-0.072-1.796-0.082c-0.518-0.004-0.948,0.003-1.298,0.021   c-0.347,0.021-0.604,0.047-0.772,0.083c-0.173,0.039-0.311,0.084-0.418,0.143c-0.104,0.061-0.182,0.134-0.233,0.223   c-0.05,0.087-0.075,0.196-0.077,0.319c-0.003,0.124,0.011,0.268,0.039,0.434c0.015,0.064,0.002,0.114-0.035,0.156   c-0.039,0.039-0.086,0.066-0.143,0.078c-0.063,0.012-0.124,0.008-0.186-0.014c-0.062-0.021-0.099-0.062-0.11-0.122   c-0.034-0.152-0.059-0.299-0.078-0.438c-0.021-0.139-0.038-0.277-0.051-0.412c-0.013-0.135-0.03-0.271-0.049-0.403   c-0.019-0.132-0.042-0.266-0.071-0.399c-0.027-0.13-0.057-0.25-0.089-0.355c-0.033-0.107-0.068-0.214-0.104-0.32   c-0.037-0.103-0.071-0.21-0.104-0.322c-0.033-0.112-0.068-0.241-0.098-0.393c-0.011-0.052,0.006-0.1,0.051-0.142   c0.046-0.047,0.1-0.072,0.16-0.086c0.057-0.014,0.11-0.008,0.162,0.014c0.052,0.022,0.086,0.067,0.106,0.141   c0.063,0.224,0.169,0.399,0.319,0.527c0.153,0.125,0.333,0.222,0.543,0.29c0.212,0.064,0.448,0.115,0.712,0.142   c0.264,0.03,0.54,0.058,0.828,0.085c1.278,0.124,2.552,0.247,3.821,0.377c1.272,0.127,2.547,0.249,3.826,0.374   c0.055,0.01,0.104,0.042,0.145,0.105c0.043,0.061,0.072,0.131,0.09,0.211c0.018,0.082,0.019,0.161,0.006,0.236   C25.675,53.172,25.644,53.224,25.595,53.246z"/>
</g>
<g>
	<path d="M84.752,46.766c0.014,0.083,0.013,0.158,0.002,0.223c-0.014,0.076-0.088,0.119-0.223,0.116   c-0.076-0.005-0.16-0.002-0.249,0.008c-0.091,0.01-0.186,0.024-0.284,0.035l-0.233,0.033c-0.212,0.029-0.417,0.063-0.616,0.105   c-0.198,0.04-0.395,0.075-0.594,0.103c-0.037,0.005-0.069-0.017-0.098-0.063c-0.029-0.046-0.048-0.098-0.055-0.156   c-0.007-0.05-0.004-0.099,0.009-0.148c0.012-0.048,0.039-0.078,0.08-0.093c0.364-0.117,0.647-0.224,0.854-0.325   c0.204-0.1,0.354-0.219,0.446-0.359c0.094-0.139,0.141-0.314,0.142-0.523c0-0.209-0.019-0.484-0.056-0.823l-0.119-0.871   c-0.036-0.278-0.071-0.496-0.102-0.648c-0.031-0.154-0.082-0.266-0.153-0.336c-0.072-0.068-0.175-0.104-0.313-0.105   c-0.138,0-0.328,0.016-0.574,0.05l-2.53,0.344c-0.136,0.018-0.218,0.052-0.245,0.105c-0.026,0.051-0.036,0.098-0.03,0.146   c0.061,0.448,0.128,0.797,0.202,1.045c0.076,0.249,0.173,0.431,0.289,0.548c0.116,0.116,0.262,0.186,0.436,0.208   c0.173,0.021,0.389,0.029,0.646,0.021c0.053,0.004,0.098,0.031,0.129,0.08c0.034,0.051,0.057,0.107,0.063,0.168   c0.01,0.056,0.001,0.106-0.019,0.154c-0.021,0.045-0.057,0.072-0.109,0.079c-0.154,0.021-0.292,0.036-0.413,0.042   c-0.123,0.009-0.243,0.013-0.365,0.018c-0.121,0.004-0.25,0.01-0.382,0.02c-0.133,0.008-0.286,0.022-0.454,0.046   c-0.297,0.042-0.56,0.09-0.785,0.15c-0.115,0.038-0.247,0.066-0.389,0.093c-0.143,0.025-0.298,0.052-0.467,0.074   c-0.047,0.006-0.088-0.012-0.116-0.054c-0.031-0.045-0.05-0.095-0.057-0.154c-0.009-0.061-0.005-0.117,0.011-0.169   c0.021-0.053,0.049-0.089,0.096-0.104c0.278-0.068,0.502-0.135,0.669-0.203c0.169-0.069,0.295-0.174,0.374-0.317   c0.084-0.142,0.124-0.345,0.125-0.604c0.001-0.259-0.029-0.613-0.09-1.061c-0.007-0.046-0.031-0.092-0.075-0.133   c-0.039-0.043-0.113-0.056-0.216-0.042l-1.901,0.259c-0.442,0.062-0.788,0.129-1.038,0.201c-0.248,0.075-0.431,0.191-0.539,0.348   c-0.11,0.157-0.166,0.373-0.166,0.644c0.002,0.271,0.032,0.629,0.095,1.077c0.031,0.239,0.07,0.459,0.116,0.657   c0.048,0.199,0.095,0.345,0.147,0.444c0.095,0.179,0.194,0.333,0.293,0.463c0.099,0.133,0.217,0.238,0.354,0.32   c0.136,0.082,0.3,0.142,0.498,0.177c0.196,0.037,0.439,0.053,0.734,0.051c0.052,0.002,0.093,0.029,0.124,0.08   c0.032,0.054,0.053,0.11,0.062,0.176c0.009,0.071,0.002,0.137-0.017,0.197c-0.021,0.059-0.058,0.091-0.109,0.084   c-0.417,0.011-0.804,0.019-1.156,0.025c-0.355,0.008-0.715,0.041-1.082,0.102c-0.014,0.001-0.033,0-0.058-0.004   s-0.049-0.018-0.074-0.036c-0.023-0.022-0.048-0.052-0.069-0.096c-0.023-0.042-0.039-0.099-0.049-0.169l-0.712-5.251   c-0.052-0.368-0.11-0.725-0.178-1.074c-0.064-0.35-0.127-0.662-0.187-0.942c-0.006-0.063,0.014-0.113,0.06-0.153   c0.046-0.039,0.103-0.063,0.167-0.073c0.052-0.007,0.103-0.002,0.151,0.018c0.051,0.02,0.084,0.062,0.103,0.128   c0.061,0.221,0.125,0.413,0.205,0.571c0.076,0.161,0.175,0.287,0.288,0.381c0.116,0.093,0.26,0.158,0.424,0.188   c0.166,0.031,0.365,0.031,0.602-0.001l5.574-0.758c0.212-0.029,0.419-0.066,0.623-0.107c0.201-0.042,0.385-0.101,0.548-0.176   c0.163-0.075,0.299-0.17,0.409-0.287c0.107-0.116,0.175-0.262,0.199-0.443c0.02-0.108,0.029-0.224,0.032-0.343   c0.003-0.121,0.003-0.234-0.002-0.338c-0.008-0.057,0.009-0.103,0.049-0.134c0.043-0.03,0.092-0.051,0.147-0.058   c0.062-0.01,0.119-0.002,0.171,0.018c0.055,0.023,0.085,0.059,0.091,0.112c0.043,0.319,0.077,0.613,0.098,0.878   c0.021,0.261,0.056,0.567,0.104,0.924L84.752,46.766z"/>
</g>
<g>
	<path d="M59.137,81.747c-0.062-0.29-0.173-0.518-0.332-0.687c-0.16-0.165-0.345-0.299-0.561-0.395   c-0.217-0.095-0.443-0.169-0.689-0.224c-0.244-0.048-0.48-0.103-0.708-0.15c-0.401-0.097-0.802-0.2-1.2-0.313   c-0.397-0.117-0.767-0.27-1.104-0.465c-0.337-0.193-0.631-0.445-0.881-0.753c-0.25-0.31-0.43-0.712-0.533-1.21   c-0.104-0.494-0.09-0.932,0.044-1.316c0.133-0.381,0.34-0.716,0.622-0.999s0.618-0.517,1.01-0.695   c0.388-0.184,0.788-0.317,1.195-0.403c0.271-0.06,0.58-0.081,0.932-0.069c0.348,0.01,0.679,0.069,0.988,0.173   c0.056,0.01,0.103,0.016,0.15,0.025c0.045,0.011,0.103,0.01,0.166-0.004c0.07-0.017,0.137-0.061,0.202-0.13   c0.067-0.073,0.112-0.186,0.137-0.342c0.017-0.063,0.048-0.11,0.091-0.139c0.045-0.031,0.092-0.05,0.146-0.053   c0.053-0.004,0.1,0.004,0.135,0.027c0.04,0.02,0.063,0.048,0.071,0.086c0.017,0.216,0.039,0.446,0.068,0.698   c0.029,0.248,0.068,0.497,0.119,0.742c0.052,0.246,0.112,0.491,0.179,0.736c0.066,0.242,0.146,0.497,0.239,0.759   c0.02,0.056,0.013,0.104-0.025,0.154c-0.038,0.052-0.086,0.085-0.144,0.101c-0.059,0.016-0.114,0.017-0.171,0.002   c-0.056-0.016-0.097-0.049-0.118-0.101c-0.142-0.38-0.324-0.713-0.542-0.999c-0.219-0.286-0.466-0.519-0.74-0.693   c-0.277-0.173-0.573-0.294-0.889-0.357c-0.318-0.064-0.649-0.061-0.991,0.01c-0.257,0.056-0.495,0.143-0.715,0.265   c-0.221,0.125-0.407,0.27-0.56,0.444c-0.151,0.176-0.261,0.376-0.321,0.599c-0.063,0.223-0.063,0.469-0.008,0.737   c0.073,0.345,0.211,0.63,0.412,0.854c0.204,0.223,0.436,0.406,0.691,0.548c0.258,0.138,0.536,0.249,0.832,0.33   c0.297,0.081,0.576,0.153,0.838,0.22c0.347,0.076,0.692,0.16,1.04,0.243c0.345,0.086,0.665,0.208,0.955,0.37   c0.293,0.16,0.548,0.378,0.764,0.643c0.218,0.269,0.375,0.628,0.47,1.081c0.097,0.454,0.083,0.854-0.036,1.205   c-0.122,0.347-0.313,0.649-0.577,0.905c-0.265,0.257-0.584,0.468-0.956,0.638c-0.373,0.168-0.769,0.297-1.188,0.385   c-0.27,0.057-0.501,0.088-0.692,0.094c-0.19,0.006-0.408-0.006-0.659-0.035c-0.129-0.014-0.235-0.02-0.322-0.026   c-0.086-0.005-0.166-0.001-0.24,0.014c-0.117,0.025-0.189,0.088-0.216,0.19c-0.011,0.044-0.041,0.076-0.09,0.106   c-0.049,0.025-0.101,0.04-0.147,0.046c-0.049,0.002-0.095-0.003-0.139-0.011c-0.043-0.011-0.063-0.035-0.061-0.077   c0.013-0.185,0.009-0.357-0.012-0.532c-0.021-0.173-0.055-0.356-0.093-0.544c-0.055-0.25-0.116-0.474-0.189-0.668   c-0.074-0.193-0.146-0.426-0.224-0.695c-0.007-0.028,0.009-0.06,0.043-0.091c0.032-0.031,0.077-0.056,0.126-0.074   c0.05-0.017,0.102-0.02,0.153-0.012c0.056,0.012,0.089,0.037,0.109,0.083c0.182,0.397,0.359,0.723,0.529,0.972   c0.172,0.247,0.359,0.428,0.563,0.544c0.204,0.113,0.436,0.175,0.691,0.183c0.256,0.006,0.554-0.027,0.895-0.101   c0.242-0.052,0.464-0.131,0.664-0.238c0.201-0.106,0.368-0.242,0.502-0.397c0.135-0.156,0.229-0.338,0.286-0.546   C59.183,82.206,59.188,81.984,59.137,81.747z"/>
</g>
<g>
	<path d="M21.697,35.801c-0.042-0.029-0.083-0.047-0.125-0.057c-0.043-0.009-0.084-0.009-0.127,0   c-0.042,0.011-0.086,0.035-0.13,0.068c-0.046,0.034-0.092,0.08-0.139,0.139c-0.01,0.015-0.023,0.02-0.04,0.019   c-0.017-0.003-0.034-0.011-0.049-0.021c-0.016-0.01-0.03-0.022-0.037-0.038c-0.009-0.015-0.007-0.029,0.003-0.043l0.091-0.142   c0.043-0.066,0.087-0.131,0.137-0.196c0.047-0.064,0.095-0.124,0.138-0.174c0.043-0.053,0.075-0.08,0.094-0.08l2.793-0.342   c0.011-0.002,0.019-0.009,0.026-0.023c0.004-0.016,0-0.025-0.015-0.037l-0.923-0.6l-0.09-0.06   c-0.045-0.027-0.092-0.058-0.144-0.091c-0.051-0.033-0.101-0.063-0.152-0.093c-0.049-0.028-0.098-0.054-0.142-0.078   c-0.044-0.023-0.082-0.038-0.113-0.047c-0.045-0.012-0.082-0.019-0.113-0.02c-0.029,0-0.058,0.007-0.083,0.02   c-0.026,0.013-0.05,0.033-0.075,0.063c-0.026,0.029-0.053,0.065-0.087,0.107c-0.008,0.013-0.021,0.019-0.041,0.017   c-0.015-0.002-0.034-0.009-0.048-0.021c-0.015-0.008-0.027-0.021-0.034-0.035c-0.01-0.014-0.011-0.028-0.001-0.042   c0.039-0.06,0.083-0.122,0.137-0.186c0.052-0.063,0.1-0.13,0.146-0.201c0.044-0.066,0.08-0.132,0.116-0.201   c0.034-0.067,0.077-0.141,0.129-0.224c0.009-0.015,0.023-0.021,0.042-0.021c0.019,0.001,0.036,0.006,0.053,0.017   c0.014,0.011,0.026,0.024,0.034,0.041c0.008,0.015,0.006,0.031-0.003,0.045c-0.024,0.047-0.044,0.086-0.059,0.115   c-0.016,0.031-0.025,0.057-0.027,0.082c0,0.024,0.005,0.052,0.017,0.081c0.01,0.028,0.031,0.065,0.062,0.11   c0.021,0.035,0.056,0.069,0.106,0.112c0.047,0.042,0.1,0.082,0.159,0.125c0.057,0.042,0.116,0.084,0.175,0.123   c0.06,0.039,0.113,0.075,0.158,0.104l1.63,1.061c0.008,0.004,0.011,0.02,0.001,0.044c-0.005,0.024-0.017,0.049-0.032,0.07   c-0.008,0.015-0.02,0.027-0.029,0.036c-0.01,0.011-0.021,0.017-0.032,0.016l-2.977,0.367c-0.011,0.002-0.022,0.01-0.034,0.029   c-0.012,0.018-0.006,0.033,0.015,0.046l1.372,0.893c0.089,0.059,0.163,0.096,0.223,0.113c0.058,0.019,0.109,0.022,0.155,0.01   c0.042-0.012,0.083-0.036,0.121-0.073c0.037-0.038,0.077-0.084,0.121-0.137c0.012-0.012,0.026-0.019,0.043-0.017   c0.018,0.001,0.033,0.006,0.048,0.016c0.016,0.01,0.027,0.024,0.034,0.04c0.008,0.015,0.005,0.03-0.002,0.046   c-0.038,0.055-0.082,0.113-0.132,0.174c-0.052,0.061-0.109,0.139-0.167,0.228c-0.063,0.096-0.114,0.183-0.152,0.263   c-0.039,0.078-0.075,0.145-0.109,0.195c-0.009,0.013-0.023,0.02-0.041,0.018c-0.017,0.002-0.036-0.003-0.05-0.014   c-0.015-0.009-0.026-0.022-0.035-0.036c-0.008-0.017-0.006-0.033,0.002-0.049c0.034-0.071,0.06-0.129,0.081-0.18   c0.022-0.05,0.026-0.095,0.018-0.14c-0.009-0.042-0.033-0.084-0.076-0.127c-0.042-0.043-0.108-0.095-0.197-0.152L21.697,35.801z"/>
	<path d="M26.998,32.34c-0.35-0.077-0.704-0.164-1.061-0.256c-0.357-0.094-0.709-0.195-1.059-0.303   c-0.021-0.005-0.035,0-0.044,0.015c-0.008,0.016-0.004,0.032,0.008,0.048l1.415,1.65c0.008,0.011,0.01,0.03,0.004,0.049   c-0.005,0.021-0.013,0.041-0.027,0.061c-0.01,0.018-0.024,0.032-0.041,0.042c-0.016,0.011-0.033,0.016-0.049,0.011   c-0.203-0.045-0.4-0.095-0.603-0.141c-0.199-0.05-0.4-0.101-0.602-0.154c-0.203-0.055-0.406-0.112-0.612-0.171   c-0.207-0.059-0.417-0.122-0.631-0.189c-0.076-0.023-0.144-0.042-0.207-0.055c-0.062-0.012-0.122-0.015-0.177-0.006   c-0.056,0.007-0.11,0.026-0.16,0.06c-0.049,0.031-0.102,0.081-0.154,0.146c-0.009,0.012-0.024,0.017-0.043,0.015   c-0.02-0.002-0.038-0.007-0.052-0.019c-0.015-0.009-0.026-0.021-0.033-0.035c-0.006-0.014-0.005-0.029,0.002-0.044   c0.034-0.048,0.064-0.096,0.098-0.137c0.03-0.045,0.063-0.086,0.094-0.125c0.031-0.04,0.06-0.079,0.09-0.12   c0.031-0.041,0.061-0.084,0.09-0.13c0.064-0.096,0.125-0.199,0.182-0.308c0.059-0.109,0.122-0.214,0.19-0.319   c0.007-0.012,0.021-0.021,0.037-0.019c0.016,0.002,0.032,0.007,0.045,0.016c0.017,0.01,0.029,0.025,0.039,0.042   c0.007,0.017,0.01,0.033,0,0.048c-0.02,0.039-0.042,0.078-0.065,0.118c-0.023,0.039-0.041,0.079-0.053,0.118   c-0.012,0.039-0.011,0.074-0.003,0.109c0.012,0.037,0.036,0.067,0.077,0.093c0.025,0.016,0.072,0.038,0.14,0.066   c0.069,0.028,0.173,0.065,0.313,0.111c0.142,0.048,0.324,0.106,0.553,0.176c0.228,0.069,0.516,0.156,0.86,0.257   c0.019,0.003,0.036-0.002,0.047-0.02c0.012-0.015,0.012-0.03-0.001-0.047c-0.25-0.309-0.503-0.604-0.759-0.886   c-0.255-0.28-0.509-0.562-0.763-0.842c-0.009-0.012-0.014-0.029-0.009-0.049c0.004-0.019,0.012-0.039,0.024-0.056   c0.011-0.016,0.024-0.031,0.042-0.043c0.016-0.011,0.029-0.012,0.045-0.008c0.373,0.114,0.749,0.22,1.122,0.322   c0.375,0.101,0.754,0.194,1.136,0.282c0.025,0.004,0.042-0.002,0.053-0.016c0.011-0.015,0.014-0.029,0.001-0.041   c-0.162-0.202-0.313-0.381-0.451-0.54c-0.14-0.159-0.264-0.294-0.375-0.41c-0.109-0.112-0.205-0.206-0.285-0.277   c-0.08-0.072-0.142-0.121-0.187-0.149c-0.045-0.029-0.086-0.051-0.121-0.06c-0.038-0.01-0.069-0.01-0.099-0.003   c-0.029,0.009-0.06,0.026-0.088,0.054c-0.026,0.025-0.055,0.06-0.084,0.103c-0.012,0.017-0.024,0.026-0.044,0.023   c-0.016,0.001-0.032-0.003-0.046-0.012c-0.018-0.011-0.029-0.025-0.037-0.044c-0.009-0.017-0.009-0.034,0.002-0.052   c0.026-0.039,0.052-0.077,0.079-0.112c0.025-0.035,0.051-0.068,0.078-0.101c0.025-0.032,0.053-0.063,0.077-0.096   c0.024-0.032,0.048-0.068,0.072-0.104c0.022-0.033,0.042-0.064,0.058-0.096c0.017-0.03,0.031-0.06,0.046-0.09   c0.014-0.03,0.03-0.064,0.047-0.094c0.018-0.032,0.04-0.067,0.064-0.106c0.009-0.014,0.024-0.021,0.043-0.02   c0.019-0.001,0.036,0.005,0.052,0.015c0.015,0.01,0.026,0.023,0.032,0.038c0.007,0.017,0.005,0.036-0.006,0.056   c-0.034,0.061-0.051,0.123-0.045,0.185c0.005,0.059,0.024,0.12,0.055,0.18c0.031,0.06,0.071,0.122,0.122,0.187   c0.054,0.065,0.107,0.13,0.164,0.198c0.25,0.304,0.501,0.61,0.75,0.914c0.249,0.304,0.5,0.609,0.75,0.915   c0.01,0.011,0.015,0.03,0.008,0.053c-0.003,0.023-0.012,0.044-0.025,0.065c-0.015,0.021-0.032,0.038-0.049,0.052   C27.031,32.341,27.014,32.345,26.998,32.34z"/>
</g>
<g>
	<path d="M64.656,21.229c0.027-0.042,0.046-0.083,0.057-0.126c0.011-0.041,0.011-0.084-0.002-0.127   c-0.01-0.042-0.032-0.086-0.065-0.131s-0.08-0.092-0.14-0.139c-0.015-0.007-0.021-0.021-0.02-0.039   c0.002-0.017,0.011-0.034,0.022-0.051c0.011-0.015,0.023-0.027,0.037-0.036c0.015-0.008,0.03-0.008,0.044,0.003l0.14,0.091   c0.066,0.043,0.134,0.088,0.199,0.138c0.063,0.047,0.122,0.092,0.174,0.136c0.052,0.045,0.079,0.076,0.081,0.094l0.342,2.794   c-0.001,0.009,0.006,0.018,0.02,0.024c0.017,0.004,0.026,0.001,0.038-0.013l0.601-0.925l0.059-0.089   c0.026-0.044,0.059-0.093,0.091-0.144c0.031-0.051,0.063-0.103,0.093-0.151c0.03-0.049,0.056-0.098,0.076-0.143   c0.025-0.043,0.04-0.082,0.047-0.112c0.016-0.043,0.021-0.081,0.022-0.111c-0.001-0.03-0.007-0.058-0.021-0.083   c-0.012-0.025-0.033-0.052-0.063-0.075c-0.026-0.023-0.062-0.053-0.106-0.087c-0.014-0.01-0.019-0.023-0.015-0.039   c0.001-0.019,0.008-0.035,0.02-0.053c0.009-0.015,0.022-0.025,0.034-0.034c0.015-0.007,0.027-0.008,0.044,0.001   c0.059,0.037,0.12,0.084,0.184,0.136c0.065,0.051,0.131,0.1,0.204,0.146c0.064,0.042,0.133,0.08,0.199,0.114   c0.068,0.035,0.144,0.079,0.224,0.131c0.016,0.01,0.021,0.023,0.021,0.04c0,0.019-0.006,0.038-0.016,0.053   c-0.011,0.017-0.023,0.027-0.038,0.036c-0.018,0.006-0.032,0.005-0.049-0.003c-0.048-0.023-0.084-0.043-0.114-0.06   c-0.028-0.015-0.058-0.025-0.08-0.025c-0.025-0.001-0.055,0.002-0.081,0.015c-0.029,0.013-0.066,0.032-0.11,0.063   c-0.032,0.021-0.068,0.058-0.11,0.106c-0.042,0.047-0.083,0.101-0.125,0.159c-0.044,0.058-0.085,0.116-0.124,0.175   c-0.04,0.059-0.075,0.114-0.105,0.159l-1.06,1.63c-0.007,0.007-0.022,0.009-0.047,0.001c-0.025-0.008-0.049-0.02-0.069-0.032   c-0.014-0.01-0.025-0.021-0.037-0.031c-0.01-0.011-0.014-0.02-0.014-0.031l-0.368-2.978c-0.002-0.01-0.011-0.022-0.029-0.033   c-0.017-0.01-0.03-0.007-0.043,0.014l-0.894,1.374c-0.06,0.089-0.096,0.163-0.115,0.221c-0.02,0.059-0.021,0.11-0.01,0.154   c0.014,0.043,0.037,0.085,0.075,0.123c0.038,0.035,0.085,0.074,0.136,0.122c0.014,0.01,0.018,0.024,0.018,0.043   c-0.002,0.016-0.008,0.031-0.018,0.045c-0.011,0.019-0.024,0.031-0.04,0.036c-0.017,0.008-0.03,0.007-0.046-0.003   c-0.057-0.036-0.113-0.08-0.176-0.133c-0.062-0.05-0.135-0.106-0.227-0.166c-0.098-0.063-0.183-0.113-0.262-0.152   c-0.079-0.041-0.144-0.075-0.194-0.109c-0.014-0.009-0.02-0.022-0.021-0.04c0.003-0.02,0.007-0.037,0.018-0.053   c0.011-0.014,0.021-0.025,0.036-0.034c0.015-0.007,0.031-0.007,0.049,0c0.07,0.034,0.13,0.062,0.179,0.082   c0.05,0.021,0.099,0.028,0.14,0.019c0.042-0.008,0.086-0.034,0.128-0.076c0.045-0.042,0.095-0.106,0.154-0.198L64.656,21.229z"/>
	<path d="M69.372,23.71c0.022,0.016,0.04,0.03,0.052,0.046c0.016,0.019,0.01,0.043-0.018,0.075c-0.016,0.017-0.031,0.037-0.047,0.06   c-0.018,0.023-0.032,0.048-0.049,0.074l-0.04,0.061c-0.035,0.053-0.067,0.11-0.099,0.165c-0.031,0.054-0.063,0.106-0.097,0.158   c-0.006,0.01-0.018,0.013-0.034,0.01c-0.017-0.002-0.03-0.01-0.046-0.018c-0.015-0.01-0.025-0.021-0.033-0.032   c-0.009-0.014-0.01-0.026-0.006-0.039c0.046-0.107,0.077-0.197,0.095-0.264c0.019-0.068,0.021-0.126,0.007-0.177   c-0.015-0.05-0.046-0.095-0.095-0.138c-0.046-0.041-0.116-0.093-0.202-0.152l-0.227-0.148c-0.07-0.047-0.129-0.082-0.169-0.106   c-0.044-0.023-0.079-0.035-0.111-0.032c-0.029,0.002-0.06,0.019-0.088,0.052c-0.026,0.033-0.063,0.08-0.103,0.143l-0.429,0.659   c-0.022,0.035-0.032,0.063-0.026,0.08c0.009,0.017,0.019,0.027,0.03,0.035c0.115,0.075,0.211,0.129,0.284,0.163   c0.072,0.033,0.135,0.049,0.185,0.044c0.051-0.003,0.095-0.023,0.135-0.06c0.042-0.037,0.087-0.085,0.138-0.145   c0.01-0.014,0.024-0.019,0.043-0.014c0.021,0.001,0.035,0.008,0.054,0.018c0.012,0.012,0.024,0.022,0.031,0.036   s0.006,0.028-0.005,0.041c-0.025,0.042-0.051,0.076-0.072,0.104c-0.024,0.032-0.048,0.061-0.07,0.089   c-0.024,0.029-0.049,0.061-0.072,0.093c-0.025,0.032-0.052,0.07-0.081,0.116c-0.051,0.078-0.091,0.148-0.123,0.213   c-0.016,0.033-0.034,0.07-0.059,0.109c-0.021,0.039-0.047,0.079-0.075,0.123c-0.008,0.014-0.02,0.019-0.037,0.017   c-0.015-0.002-0.03-0.008-0.047-0.018s-0.027-0.023-0.037-0.037c-0.009-0.014-0.01-0.03-0.005-0.042   c0.041-0.079,0.07-0.146,0.088-0.198c0.017-0.053,0.019-0.103,0-0.15c-0.016-0.048-0.055-0.096-0.115-0.15   c-0.061-0.051-0.147-0.116-0.266-0.193c-0.012-0.007-0.027-0.008-0.046-0.009c-0.018,0.001-0.036,0.015-0.054,0.041l-0.321,0.496   c-0.076,0.115-0.129,0.208-0.162,0.281c-0.032,0.073-0.043,0.14-0.028,0.196c0.015,0.058,0.053,0.114,0.115,0.168   c0.065,0.054,0.153,0.119,0.271,0.195c0.062,0.042,0.121,0.076,0.178,0.103c0.054,0.031,0.098,0.049,0.133,0.055   c0.06,0.015,0.117,0.023,0.168,0.026c0.048,0.002,0.097-0.002,0.146-0.018c0.045-0.016,0.092-0.043,0.139-0.08   c0.048-0.039,0.103-0.093,0.16-0.161c0.012-0.012,0.027-0.016,0.045-0.013c0.019,0.003,0.035,0.009,0.054,0.021   c0.018,0.012,0.031,0.027,0.041,0.045c0.011,0.018,0.011,0.03,0,0.041c-0.082,0.1-0.158,0.191-0.228,0.277   c-0.069,0.082-0.134,0.175-0.192,0.272c-0.005,0.002-0.007,0.007-0.014,0.012s-0.015,0.008-0.023,0.009   c-0.009,0.002-0.021,0.001-0.036-0.002c-0.016-0.002-0.03-0.012-0.049-0.024l-1.367-0.887c-0.097-0.064-0.188-0.121-0.284-0.176   c-0.096-0.055-0.181-0.104-0.257-0.147c-0.018-0.012-0.026-0.025-0.025-0.044c0-0.02,0.006-0.038,0.018-0.053   c0.007-0.016,0.02-0.025,0.034-0.032c0.016-0.008,0.03-0.01,0.05,0c0.063,0.031,0.121,0.054,0.175,0.067   c0.054,0.015,0.103,0.019,0.146,0.009c0.045-0.007,0.088-0.026,0.128-0.061c0.043-0.031,0.081-0.077,0.121-0.141l0.943-1.451   c0.036-0.056,0.071-0.11,0.102-0.166c0.031-0.056,0.057-0.112,0.068-0.163c0.015-0.053,0.021-0.103,0.017-0.151   c-0.007-0.05-0.026-0.095-0.063-0.137c-0.021-0.026-0.046-0.052-0.074-0.078c-0.027-0.024-0.054-0.047-0.078-0.065   c-0.016-0.012-0.022-0.023-0.021-0.04c0.001-0.018,0.005-0.032,0.016-0.047c0.013-0.015,0.022-0.025,0.039-0.034   c0.017-0.008,0.03-0.008,0.043,0.001c0.085,0.053,0.161,0.105,0.225,0.153c0.064,0.048,0.145,0.1,0.237,0.161L69.372,23.71z"/>
</g>
<g>
	<path d="M77.968,65.468c-0.077-0.049-0.15-0.076-0.222-0.077c-0.071-0.003-0.142,0.007-0.21,0.036   c-0.065,0.024-0.133,0.059-0.198,0.101s-0.125,0.083-0.188,0.122c-0.107,0.064-0.217,0.129-0.329,0.191   c-0.112,0.061-0.227,0.109-0.342,0.141c-0.114,0.03-0.232,0.041-0.354,0.028c-0.123-0.013-0.25-0.065-0.381-0.15   c-0.13-0.084-0.224-0.182-0.278-0.294c-0.054-0.112-0.08-0.231-0.081-0.354c0-0.122,0.022-0.247,0.068-0.37   c0.045-0.126,0.102-0.241,0.172-0.348c0.045-0.07,0.11-0.145,0.188-0.22c0.077-0.071,0.161-0.132,0.252-0.177   c0.013-0.009,0.027-0.02,0.038-0.023c0.014-0.01,0.023-0.021,0.035-0.038c0.014-0.019,0.017-0.044,0.016-0.073   c-0.003-0.031-0.017-0.064-0.045-0.106c-0.011-0.018-0.014-0.033-0.013-0.049c0.004-0.017,0.011-0.03,0.021-0.043   c0.01-0.012,0.021-0.02,0.036-0.024c0.013-0.005,0.023-0.004,0.033,0.004c0.05,0.043,0.104,0.089,0.166,0.137   c0.061,0.047,0.123,0.093,0.188,0.135c0.064,0.044,0.133,0.083,0.199,0.123c0.066,0.037,0.138,0.076,0.218,0.113   c0.016,0.004,0.025,0.02,0.026,0.037c0.002,0.021-0.001,0.039-0.009,0.055c-0.009,0.016-0.021,0.028-0.037,0.036   c-0.016,0.009-0.031,0.012-0.047,0.003c-0.112-0.05-0.224-0.083-0.335-0.098c-0.109-0.015-0.214-0.013-0.314,0.009   c-0.098,0.021-0.187,0.062-0.271,0.116c-0.082,0.055-0.154,0.127-0.212,0.222c-0.045,0.066-0.079,0.138-0.098,0.213   c-0.021,0.072-0.029,0.145-0.025,0.216c0.006,0.071,0.026,0.141,0.062,0.201c0.032,0.061,0.087,0.115,0.158,0.162   c0.092,0.061,0.184,0.093,0.275,0.096c0.093,0.006,0.184-0.003,0.271-0.032c0.084-0.026,0.17-0.061,0.251-0.109   c0.083-0.046,0.16-0.093,0.23-0.133c0.093-0.061,0.186-0.118,0.281-0.176c0.094-0.056,0.19-0.098,0.287-0.126   c0.1-0.027,0.2-0.037,0.307-0.025c0.105,0.011,0.217,0.053,0.336,0.133c0.12,0.078,0.206,0.168,0.256,0.271   c0.051,0.1,0.073,0.207,0.071,0.321c-0.002,0.111-0.025,0.228-0.071,0.346c-0.043,0.118-0.102,0.232-0.174,0.342   c-0.047,0.072-0.088,0.128-0.13,0.171c-0.039,0.045-0.09,0.091-0.151,0.136c-0.03,0.025-0.056,0.047-0.076,0.064   c-0.019,0.019-0.035,0.038-0.047,0.058c-0.021,0.027-0.023,0.06-0.007,0.087c0.007,0.013,0.009,0.026,0.003,0.041   c-0.004,0.02-0.012,0.03-0.022,0.044c-0.009,0.012-0.02,0.019-0.032,0.028c-0.011,0.003-0.021,0.007-0.029-0.004   c-0.037-0.041-0.076-0.08-0.117-0.113c-0.043-0.033-0.092-0.067-0.14-0.097c-0.066-0.046-0.127-0.08-0.186-0.106   s-0.124-0.06-0.199-0.103c-0.008-0.004-0.013-0.015-0.013-0.03c0-0.013,0.004-0.027,0.013-0.043   c0.007-0.015,0.018-0.027,0.03-0.036c0.014-0.006,0.028-0.012,0.042-0.004c0.127,0.047,0.234,0.078,0.326,0.094   c0.093,0.02,0.173,0.018,0.24-0.004c0.071-0.018,0.135-0.055,0.19-0.107c0.058-0.055,0.116-0.127,0.174-0.217   c0.042-0.063,0.071-0.131,0.092-0.198c0.021-0.064,0.028-0.131,0.022-0.193c-0.005-0.064-0.023-0.125-0.055-0.183   C78.077,65.556,78.03,65.506,77.968,65.468z"/>
	<path d="M76.244,69.199c-0.015,0.022-0.028,0.04-0.044,0.052c-0.019,0.017-0.043,0.011-0.075-0.018   c-0.019-0.015-0.036-0.032-0.06-0.047c-0.022-0.017-0.046-0.034-0.072-0.049L75.932,69.1c-0.054-0.038-0.109-0.071-0.164-0.101   c-0.054-0.031-0.106-0.063-0.158-0.096c-0.011-0.006-0.014-0.017-0.011-0.035c0.004-0.017,0.01-0.031,0.019-0.046   c0.007-0.015,0.02-0.023,0.032-0.033c0.011-0.007,0.024-0.009,0.037-0.005c0.107,0.047,0.196,0.078,0.263,0.093   c0.069,0.021,0.127,0.021,0.177,0.009c0.051-0.014,0.097-0.047,0.138-0.094c0.043-0.048,0.094-0.118,0.154-0.204l0.146-0.228   c0.047-0.069,0.083-0.128,0.106-0.169c0.024-0.043,0.036-0.081,0.033-0.108c-0.003-0.032-0.021-0.059-0.052-0.088   c-0.033-0.028-0.08-0.063-0.145-0.105l-0.656-0.428c-0.035-0.023-0.063-0.032-0.079-0.025c-0.016,0.009-0.029,0.018-0.037,0.028   c-0.073,0.116-0.129,0.214-0.162,0.287c-0.033,0.072-0.047,0.134-0.044,0.183c0.004,0.052,0.023,0.097,0.062,0.137   c0.034,0.039,0.082,0.085,0.144,0.135c0.013,0.012,0.018,0.027,0.016,0.048c-0.004,0.015-0.008,0.033-0.019,0.049   s-0.024,0.025-0.037,0.034c-0.013,0.005-0.026,0.003-0.04-0.005c-0.04-0.024-0.075-0.052-0.104-0.074s-0.06-0.044-0.09-0.07   c-0.029-0.022-0.06-0.048-0.093-0.072c-0.032-0.022-0.07-0.053-0.116-0.078c-0.076-0.05-0.148-0.092-0.215-0.125   c-0.031-0.017-0.068-0.032-0.107-0.056c-0.036-0.023-0.079-0.049-0.121-0.075c-0.016-0.007-0.02-0.021-0.018-0.037   c0.003-0.016,0.007-0.03,0.017-0.046c0.013-0.018,0.023-0.028,0.037-0.037c0.016-0.011,0.031-0.015,0.044-0.006   c0.08,0.039,0.144,0.069,0.196,0.087c0.056,0.019,0.103,0.018,0.15,0.002c0.049-0.017,0.099-0.057,0.15-0.117   c0.053-0.059,0.118-0.148,0.193-0.265c0.007-0.013,0.01-0.027,0.01-0.046c-0.001-0.021-0.017-0.037-0.043-0.053L75.05,66.94   c-0.113-0.072-0.208-0.126-0.28-0.16c-0.073-0.033-0.141-0.042-0.197-0.03c-0.057,0.016-0.112,0.052-0.167,0.117   c-0.054,0.064-0.119,0.152-0.195,0.271c-0.039,0.062-0.074,0.124-0.103,0.179c-0.03,0.053-0.049,0.099-0.057,0.134   c-0.014,0.058-0.023,0.115-0.025,0.165s0.004,0.1,0.018,0.146c0.018,0.046,0.044,0.094,0.082,0.144   c0.038,0.047,0.092,0.101,0.16,0.158c0.012,0.013,0.017,0.024,0.015,0.044c-0.003,0.02-0.013,0.036-0.023,0.055   c-0.011,0.018-0.024,0.032-0.042,0.04c-0.017,0.012-0.032,0.011-0.043,0c-0.098-0.081-0.19-0.157-0.273-0.225   c-0.086-0.072-0.176-0.137-0.273-0.197c-0.003,0-0.009-0.006-0.013-0.012c-0.005-0.007-0.009-0.013-0.01-0.022   c-0.004-0.01-0.002-0.022,0.002-0.038c0.003-0.013,0.012-0.029,0.022-0.048l0.891-1.367c0.063-0.097,0.122-0.19,0.175-0.284   c0.055-0.098,0.104-0.181,0.146-0.259c0.011-0.015,0.023-0.022,0.045-0.021c0.02-0.001,0.037,0.004,0.054,0.016   c0.013,0.008,0.022,0.021,0.03,0.034c0.009,0.014,0.007,0.032-0.001,0.051c-0.029,0.063-0.055,0.122-0.067,0.176   c-0.017,0.052-0.018,0.1-0.011,0.145c0.012,0.046,0.029,0.089,0.063,0.13c0.032,0.04,0.079,0.079,0.14,0.119l1.451,0.945   c0.056,0.037,0.11,0.068,0.167,0.1c0.056,0.03,0.11,0.055,0.161,0.069c0.053,0.017,0.106,0.021,0.153,0.017   c0.048-0.006,0.094-0.025,0.136-0.063c0.025-0.023,0.052-0.046,0.074-0.075c0.024-0.025,0.05-0.053,0.07-0.078   c0.01-0.017,0.021-0.02,0.038-0.021c0.017,0.001,0.03,0.006,0.044,0.019c0.018,0.01,0.031,0.021,0.038,0.036   c0.009,0.018,0.007,0.03-0.001,0.046c-0.055,0.083-0.104,0.159-0.154,0.224c-0.049,0.063-0.102,0.146-0.161,0.233L76.244,69.199z"/>
</g>
<g>
	<path d="M35.119,77.576c0.049-0.074,0.074-0.148,0.077-0.223c0.001-0.069-0.009-0.14-0.036-0.207   c-0.028-0.065-0.061-0.134-0.102-0.198c-0.041-0.064-0.084-0.127-0.122-0.188c-0.064-0.108-0.13-0.217-0.193-0.328   c-0.061-0.116-0.107-0.229-0.138-0.343c-0.031-0.113-0.041-0.233-0.026-0.355c0.012-0.124,0.062-0.249,0.147-0.381   c0.085-0.128,0.184-0.224,0.296-0.274c0.112-0.058,0.229-0.082,0.352-0.082c0.124-0.001,0.249,0.021,0.371,0.066   c0.125,0.043,0.241,0.1,0.349,0.172c0.072,0.046,0.142,0.108,0.215,0.188c0.075,0.077,0.133,0.163,0.178,0.254   c0.01,0.015,0.019,0.026,0.028,0.037c0.007,0.014,0.02,0.024,0.037,0.036c0.02,0.01,0.043,0.017,0.073,0.013   c0.03,0,0.063-0.015,0.103-0.044c0.017-0.012,0.034-0.013,0.05-0.011c0.018,0.002,0.031,0.009,0.044,0.021   c0.012,0.012,0.02,0.022,0.024,0.035c0.002,0.013,0.001,0.024-0.004,0.034c-0.044,0.05-0.089,0.104-0.139,0.168   c-0.047,0.058-0.092,0.12-0.135,0.186c-0.042,0.066-0.082,0.132-0.122,0.197c-0.038,0.07-0.076,0.142-0.112,0.219   c-0.008,0.02-0.021,0.025-0.04,0.03c-0.019,0.002-0.037-0.003-0.053-0.012c-0.015-0.008-0.028-0.019-0.038-0.036   c-0.01-0.017-0.009-0.032-0.004-0.047c0.052-0.112,0.085-0.224,0.1-0.334c0.014-0.109,0.011-0.216-0.01-0.313   c-0.022-0.097-0.06-0.188-0.116-0.273c-0.055-0.082-0.127-0.153-0.219-0.212c-0.067-0.043-0.139-0.076-0.213-0.095   c-0.074-0.023-0.146-0.031-0.218-0.025c-0.071,0.005-0.138,0.023-0.199,0.059c-0.063,0.034-0.117,0.086-0.163,0.157   c-0.062,0.095-0.093,0.186-0.097,0.277c-0.004,0.091,0.007,0.184,0.033,0.271c0.024,0.087,0.062,0.169,0.108,0.25   c0.047,0.084,0.092,0.159,0.134,0.23c0.059,0.097,0.118,0.187,0.174,0.283c0.057,0.09,0.1,0.188,0.128,0.285   c0.028,0.097,0.037,0.201,0.026,0.309c-0.01,0.104-0.055,0.218-0.133,0.337c-0.078,0.118-0.167,0.202-0.269,0.253   c-0.104,0.05-0.212,0.073-0.324,0.07c-0.112-0.001-0.228-0.022-0.346-0.07c-0.118-0.043-0.232-0.1-0.342-0.171   c-0.071-0.048-0.127-0.089-0.171-0.132c-0.042-0.04-0.088-0.089-0.136-0.151c-0.025-0.031-0.046-0.056-0.063-0.076   c-0.02-0.018-0.037-0.035-0.056-0.048c-0.03-0.021-0.06-0.022-0.089-0.004c-0.012,0.005-0.025,0.005-0.042,0.003   c-0.018-0.007-0.031-0.016-0.041-0.024c-0.012-0.009-0.02-0.021-0.029-0.033c-0.007-0.01-0.006-0.019,0.002-0.027   c0.044-0.036,0.082-0.078,0.114-0.119c0.033-0.041,0.065-0.089,0.099-0.138c0.042-0.065,0.077-0.132,0.102-0.188   c0.027-0.058,0.062-0.124,0.104-0.198c0.003-0.007,0.014-0.012,0.028-0.011c0.014,0.001,0.03,0.003,0.045,0.011   c0.013,0.008,0.025,0.02,0.035,0.032c0.01,0.014,0.011,0.026,0.005,0.042c-0.046,0.127-0.078,0.233-0.095,0.323   c-0.018,0.095-0.017,0.175,0.003,0.244c0.021,0.067,0.057,0.131,0.112,0.189c0.055,0.056,0.127,0.115,0.217,0.174   c0.062,0.04,0.127,0.071,0.196,0.089c0.068,0.025,0.132,0.031,0.196,0.024c0.063-0.003,0.124-0.021,0.18-0.056   C35.028,77.688,35.077,77.64,35.119,77.576z"/>
	<path d="M32.641,73.037c-0.079,0.352-0.164,0.705-0.258,1.063c-0.094,0.353-0.195,0.709-0.302,1.057   c-0.003,0.022,0.001,0.036,0.017,0.043c0.014,0.009,0.029,0.006,0.046-0.009l1.65-1.413c0.013-0.01,0.03-0.012,0.05-0.007   c0.021,0.005,0.041,0.017,0.06,0.027c0.016,0.011,0.031,0.025,0.043,0.042c0.012,0.017,0.015,0.03,0.011,0.049   c-0.047,0.2-0.095,0.401-0.144,0.6c-0.048,0.203-0.098,0.4-0.153,0.605c-0.053,0.202-0.109,0.406-0.168,0.612   c-0.06,0.207-0.124,0.419-0.192,0.631c-0.022,0.078-0.04,0.145-0.052,0.209c-0.012,0.062-0.016,0.122-0.007,0.177   c0.008,0.055,0.029,0.107,0.061,0.158c0.03,0.053,0.08,0.101,0.146,0.152c0.014,0.012,0.019,0.027,0.017,0.047   s-0.009,0.032-0.019,0.053c-0.011,0.015-0.021,0.026-0.037,0.03c-0.013,0.008-0.027,0.007-0.042-0.005   c-0.049-0.028-0.095-0.064-0.138-0.093c-0.042-0.032-0.084-0.063-0.125-0.096c-0.041-0.028-0.079-0.063-0.12-0.093   c-0.042-0.029-0.084-0.059-0.13-0.088c-0.097-0.062-0.201-0.123-0.31-0.182c-0.107-0.058-0.214-0.12-0.317-0.188   c-0.015-0.012-0.02-0.021-0.019-0.037c0.002-0.019,0.006-0.031,0.016-0.046c0.009-0.016,0.024-0.029,0.04-0.037   c0.019-0.011,0.035-0.014,0.049-0.006c0.039,0.024,0.079,0.047,0.117,0.07c0.04,0.024,0.08,0.04,0.118,0.05   c0.039,0.011,0.075,0.01,0.109,0.001c0.036-0.009,0.066-0.034,0.093-0.075c0.016-0.023,0.037-0.07,0.065-0.141   c0.028-0.068,0.065-0.172,0.111-0.313c0.048-0.141,0.106-0.324,0.176-0.552s0.156-0.516,0.257-0.862   c0.003-0.018-0.003-0.031-0.018-0.045c-0.017-0.012-0.032-0.013-0.05,0.002c-0.308,0.249-0.603,0.504-0.884,0.758   c-0.282,0.258-0.563,0.512-0.843,0.764c-0.012,0.012-0.029,0.017-0.047,0.013c-0.021-0.007-0.041-0.016-0.058-0.027   c-0.018-0.011-0.03-0.022-0.042-0.037c-0.011-0.019-0.013-0.034-0.006-0.051c0.111-0.368,0.218-0.743,0.319-1.118   c0.102-0.377,0.197-0.756,0.283-1.139c0.003-0.021,0-0.037-0.017-0.049c-0.015-0.012-0.026-0.013-0.041-0.001   c-0.202,0.161-0.381,0.313-0.54,0.45c-0.158,0.137-0.294,0.264-0.407,0.372c-0.115,0.112-0.208,0.208-0.28,0.287   c-0.07,0.081-0.121,0.143-0.149,0.185c-0.029,0.048-0.049,0.088-0.06,0.124c-0.01,0.034-0.011,0.069-0.002,0.1   c0.008,0.029,0.027,0.057,0.053,0.083c0.027,0.029,0.06,0.06,0.103,0.089c0.017,0.011,0.026,0.022,0.026,0.039   c-0.001,0.021-0.005,0.035-0.015,0.05c-0.01,0.016-0.025,0.029-0.042,0.036c-0.018,0.009-0.036,0.01-0.05-0.001   c-0.042-0.026-0.079-0.053-0.113-0.077c-0.036-0.026-0.068-0.056-0.102-0.079c-0.033-0.025-0.064-0.052-0.096-0.078   c-0.033-0.023-0.067-0.047-0.103-0.071c-0.035-0.022-0.067-0.041-0.098-0.058c-0.03-0.016-0.06-0.03-0.091-0.047   c-0.031-0.014-0.062-0.032-0.093-0.047c-0.032-0.018-0.068-0.038-0.107-0.066c-0.014-0.007-0.02-0.021-0.019-0.04   c0-0.019,0.004-0.038,0.016-0.053c0.01-0.014,0.021-0.026,0.039-0.034c0.015-0.004,0.034-0.002,0.054,0.009   c0.063,0.035,0.124,0.052,0.184,0.044c0.06-0.003,0.119-0.022,0.181-0.054c0.061-0.032,0.122-0.075,0.185-0.125   c0.065-0.053,0.13-0.104,0.199-0.162c0.305-0.252,0.61-0.501,0.914-0.751c0.304-0.247,0.609-0.497,0.914-0.748   c0.014-0.013,0.034-0.015,0.056-0.013c0.023,0.006,0.044,0.015,0.065,0.029c0.021,0.015,0.04,0.028,0.054,0.051   C32.641,73.004,32.646,73.021,32.641,73.037z"/>
</g>
<path d="M72.316,23.427L59.676,35.263L47.037,47.101l0.006,0.006l-9.586,14.412l-9.592,14.417l12.638-11.839l12.642-11.839  l-0.005-0.007l9.584-14.406L72.316,23.427z M49.673,53.204c-1.77-0.181-3.058-1.761-2.877-3.53c0.18-1.77,1.762-3.059,3.531-2.878  c1.77,0.181,3.06,1.762,2.879,3.532C53.024,52.098,51.443,53.384,49.673,53.204z"/>
<path d="M41.206,49.102c0.496-4.851,4.844-8.391,9.692-7.896c0.6,0.061,1.176,0.18,1.729,0.351l0.745-0.696  c-0.751-0.278-1.549-0.464-2.381-0.55c-0.079-0.008-0.153-0.012-0.23-0.018l-2.752-6.546l-2.774-6.593l0.072,7.15l0.069,7.128  c-1.02,0.554-1.934,1.284-2.699,2.157l-3.236-1.32l-3.605-1.47l2.78,2.726l2.512,2.464c-0.422,0.932-0.706,1.947-0.816,3.022  c-0.008,0.078-0.012,0.155-0.018,0.233l-6.544,2.75l-6.593,2.774l7.152-0.071l7.125-0.071c0.049,0.093,0.102,0.181,0.155,0.272  l0.561-0.843C41.385,52.58,41.025,50.875,41.206,49.102z"/>
<path d="M72.684,45.243l-7.151,0.07l-6.96,0.068c-0.088-0.162-0.18-0.319-0.276-0.476l-0.554,0.835  c0.839,1.519,1.241,3.301,1.053,5.156c-0.495,4.851-4.844,8.391-9.692,7.896c-0.732-0.075-1.434-0.237-2.097-0.478l-0.728,0.682  c0.854,0.354,1.77,0.593,2.733,0.69c0.022,0.002,0.048,0.002,0.071,0.003l2.772,6.592l2.772,6.591l-0.072-7.152l-0.068-7.079  c1.15-0.603,2.177-1.429,3.009-2.424l3.449,1.405l3.604,1.472l-2.781-2.728l-2.75-2.696c0.342-0.836,0.575-1.734,0.671-2.681  c0.01-0.098,0.016-0.195,0.021-0.291l6.379-2.684L72.684,45.243z"/>
<circle cx="50" cy="49.999" r="2.645"/>
<path d="M54.704,3.91C29.25,1.311,6.509,19.84,3.911,45.295C1.312,70.747,19.839,93.492,45.294,96.091  c25.457,2.599,48.197-15.932,50.795-41.386C98.688,29.25,80.16,6.508,54.704,3.91z M89.544,56.927l-1.147,0.055l-1.242,0.038  l1.134,0.489l1.059,0.47c-0.111,0.555-0.235,1.104-0.369,1.649c-0.175-0.004-0.588-0.015-1.001-0.026  c-0.542-0.02-1.083-0.043-1.083-0.043s-0.541-0.027-1.081-0.054c-0.539-0.033-1.076-0.065-1.076-0.065s0.482,0.244,0.967,0.487  c0.483,0.254,0.966,0.503,0.966,0.503s0.477,0.256,0.951,0.51c0.362,0.2,0.723,0.399,0.873,0.484  c-0.16,0.538-0.329,1.076-0.51,1.603l-1.155-0.13l-1.229-0.154l1.044,0.659l0.979,0.64c-0.197,0.526-0.403,1.049-0.624,1.565  c-0.159-0.03-0.572-0.107-0.991-0.184c-0.532-0.105-1.063-0.214-1.063-0.214s-0.528-0.112-1.056-0.223  c-0.523-0.113-1.05-0.232-1.05-0.232s0.437,0.317,0.874,0.636c0.431,0.32,0.865,0.644,0.865,0.644s0.43,0.326,0.86,0.653  c0.336,0.262,0.668,0.522,0.796,0.621c-0.24,0.507-0.491,1.003-0.754,1.499l-1.13-0.313l-1.187-0.344l0.929,0.816l0.869,0.782  c-0.276,0.49-0.565,0.979-0.861,1.453c-0.151-0.054-0.55-0.195-0.95-0.338c-0.505-0.186-1.013-0.372-1.013-0.372  s-0.506-0.195-1.013-0.389c-0.505-0.199-1.01-0.4-1.01-0.4s0.382,0.38,0.764,0.763c0.379,0.387,0.756,0.771,0.756,0.771  s0.376,0.394,0.751,0.784c0.293,0.312,0.583,0.623,0.694,0.743c-0.319,0.458-0.645,0.913-0.98,1.358l-1.066-0.483l-1.119-0.525  l0.796,0.957l0.731,0.905c-0.354,0.44-0.715,0.871-1.082,1.3c-0.152-0.087-0.517-0.282-0.881-0.483  c-0.478-0.265-0.951-0.532-0.951-0.532s-0.47-0.272-0.94-0.538c-0.466-0.278-0.931-0.551-0.931-0.551s0.318,0.437,0.636,0.874  c0.317,0.438,0.632,0.883,0.632,0.883s0.313,0.444,0.62,0.894c0.234,0.34,0.468,0.683,0.565,0.827  c-0.386,0.406-0.782,0.806-1.185,1.195l-0.965-0.634l-1.027-0.697l0.63,1.06l0.579,1.008c-0.415,0.381-0.838,0.751-1.267,1.115  c-0.137-0.104-0.465-0.357-0.797-0.612c-0.427-0.334-0.852-0.67-0.852-0.67s-0.422-0.34-0.845-0.678  c-0.416-0.343-0.831-0.688-0.831-0.688s0.249,0.484,0.496,0.968c0.243,0.485,0.486,0.973,0.486,0.973s0.234,0.485,0.468,0.97  c0.176,0.375,0.352,0.749,0.427,0.902c-0.447,0.341-0.897,0.677-1.357,0.999l-0.854-0.782l-0.907-0.85l0.457,1.152l0.419,1.084  c-0.47,0.31-0.947,0.612-1.429,0.903c-0.116-0.123-0.4-0.423-0.69-0.725c-0.367-0.398-0.735-0.795-0.735-0.795s-0.362-0.4-0.725-0.8  c-0.356-0.403-0.715-0.807-0.715-0.807s0.167,0.511,0.335,1.023c0.162,0.514,0.325,1.028,0.325,1.028s0.157,0.517,0.313,1.035  c0.117,0.401,0.232,0.801,0.277,0.966c-0.49,0.264-0.988,0.522-1.491,0.771l-0.726-0.909l-0.759-0.976l0.275,1.211l0.239,1.132  c-0.513,0.232-1.029,0.459-1.552,0.671c-0.098-0.14-0.33-0.482-0.564-0.825c-0.304-0.447-0.602-0.894-0.602-0.894  s-0.297-0.457-0.592-0.911c-0.291-0.46-0.585-0.918-0.585-0.918s0.088,0.533,0.172,1.068c0.079,0.532,0.158,1.069,0.158,1.069  s0.075,0.536,0.147,1.074c0.054,0.417,0.104,0.832,0.126,0.999c-0.528,0.185-1.056,0.364-1.594,0.529l-0.577-1.018l-0.596-1.083  l0.082,1.241l0.06,1.161c-0.394,0.108-0.788,0.21-1.184,0.305l-1.079-1.758l-0.897-1.47c-0.133-0.306-0.234-0.543-0.234-0.543  s-0.001,0.063,0,0.158l-0.04-0.064l-0.297,2.225l-0.27,2.036c-0.371,0.063-0.741,0.125-1.117,0.177l-0.411-1.097l-0.42-1.16  c0,0-0.025,0.31-0.056,0.621c-0.028,0.307-0.058,0.611-0.058,0.611l-0.125,1.158c-0.558,0.064-1.119,0.117-1.681,0.156  c-0.049-0.164-0.168-0.564-0.286-0.968c-0.147-0.521-0.295-1.044-0.295-1.044s-0.142-0.525-0.282-1.05  c-0.136-0.523-0.272-1.05-0.272-1.05s-0.083,0.535-0.166,1.068c-0.089,0.535-0.179,1.069-0.179,1.069s-0.095,0.535-0.19,1.071  c-0.078,0.413-0.157,0.826-0.189,0.991c-0.559,0.014-1.117,0.014-1.681,0.005l-0.235-1.135l-0.234-1.212l-0.305,1.194l-0.3,1.12  c-0.563-0.025-1.125-0.062-1.688-0.109c-0.023-0.179-0.076-0.584-0.129-0.991c-0.064-0.539-0.128-1.08-0.128-1.08  s-0.059-0.538-0.118-1.075c-0.051-0.539-0.103-1.077-0.103-1.077s-0.167,0.515-0.331,1.03c-0.173,0.513-0.343,1.031-0.343,1.031  s-0.178,0.514-0.356,1.027c-0.138,0.383-0.275,0.768-0.336,0.937c-0.558-0.076-1.115-0.162-1.666-0.258l-0.055-1.143l-0.041-1.243  l-0.488,1.132l-0.471,1.06c-0.554-0.114-1.103-0.236-1.651-0.372c0.005-0.171,0.018-0.583,0.028-1  c0.022-0.543,0.043-1.084,0.043-1.084s0.027-0.538,0.054-1.08c0.032-0.538,0.065-1.078,0.065-1.078s-0.243,0.485-0.489,0.969  c-0.25,0.483-0.5,0.965-0.5,0.965s-0.258,0.476-0.513,0.952c-0.2,0.362-0.398,0.721-0.48,0.872  c-0.541-0.157-1.077-0.326-1.605-0.508l0.132-1.154l0.155-1.232l-0.661,1.046l-0.637,0.979c-0.529-0.197-1.05-0.406-1.568-0.623  c0.029-0.161,0.106-0.577,0.186-0.995c0.105-0.53,0.21-1.059,0.21-1.059s0.111-0.527,0.222-1.057  c0.117-0.525,0.234-1.053,0.234-1.053s-0.316,0.44-0.633,0.875c-0.324,0.436-0.644,0.867-0.644,0.867s-0.328,0.432-0.656,0.859  c-0.262,0.337-0.52,0.67-0.622,0.799c-0.505-0.242-1.004-0.495-1.498-0.759l0.312-1.126l0.344-1.19l-0.817,0.933l-0.784,0.868  c-0.491-0.276-0.974-0.565-1.452-0.86c0.057-0.154,0.196-0.55,0.338-0.951c0.187-0.506,0.373-1.015,0.373-1.015  s0.193-0.505,0.388-1.014c0.2-0.506,0.4-1.007,0.4-1.007s-0.381,0.382-0.762,0.762c-0.385,0.379-0.773,0.759-0.773,0.759  s-0.392,0.373-0.782,0.748c-0.314,0.292-0.622,0.582-0.742,0.693c-0.461-0.317-0.914-0.644-1.359-0.979l0.483-1.066l0.523-1.118  l-0.955,0.798l-0.905,0.729c-0.442-0.351-0.875-0.714-1.298-1.081c0.082-0.154,0.281-0.516,0.481-0.883  c0.265-0.473,0.531-0.949,0.531-0.949s0.271-0.468,0.541-0.939c0.276-0.466,0.549-0.931,0.549-0.931s-0.436,0.317-0.874,0.636  c-0.441,0.314-0.883,0.63-0.883,0.63s-0.446,0.311-0.891,0.622c-0.344,0.235-0.687,0.469-0.83,0.565  c-0.408-0.386-0.805-0.782-1.195-1.186l0.633-0.967l0.698-1.027l-1.061,0.63l-1.006,0.583c-0.379-0.415-0.753-0.839-1.116-1.269  c0.105-0.136,0.358-0.467,0.612-0.798c0.336-0.427,0.669-0.852,0.669-0.852s0.339-0.423,0.678-0.844  c0.343-0.416,0.688-0.833,0.688-0.833s-0.484,0.251-0.964,0.497c-0.486,0.244-0.973,0.487-0.973,0.487s-0.485,0.234-0.971,0.469  c-0.376,0.175-0.749,0.352-0.903,0.423c-0.342-0.444-0.674-0.896-0.997-1.354l0.781-0.856l0.847-0.906l-1.149,0.458l-1.085,0.418  c-0.312-0.472-0.612-0.944-0.905-1.429c0.124-0.115,0.424-0.401,0.726-0.691c0.396-0.366,0.792-0.733,0.792-0.733  s0.4-0.362,0.8-0.728c0.403-0.356,0.807-0.714,0.807-0.714s-0.512,0.169-1.022,0.338c-0.517,0.163-1.029,0.324-1.029,0.324  s-0.519,0.156-1.038,0.313c-0.4,0.115-0.798,0.231-0.961,0.277c-0.269-0.491-0.523-0.989-0.771-1.495l0.907-0.725l0.977-0.758  l-1.209,0.274l-1.135,0.242c-0.234-0.514-0.458-1.03-0.67-1.556c0.141-0.096,0.479-0.33,0.822-0.564  c0.447-0.298,0.896-0.602,0.896-0.602s0.455-0.296,0.912-0.594c0.458-0.29,0.916-0.581,0.916-0.581s-0.532,0.087-1.065,0.172  c-0.537,0.078-1.07,0.158-1.07,0.158s-0.54,0.075-1.075,0.148c-0.419,0.052-0.832,0.104-0.999,0.123  c-0.188-0.524-0.365-1.055-0.53-1.59l1.017-0.58l1.081-0.594l-1.239,0.08l-1.16,0.058c-0.097-0.345-0.186-0.69-0.272-1.04  l1.76-1.077l1.918-1.173l-0.136-0.018c0.121-0.052,0.194-0.085,0.194-0.085s-0.378-0.001-0.817,0.003l-1.47-0.198l-2.043-0.269  c-0.073-0.417-0.141-0.839-0.199-1.259l1.096-0.412l1.158-0.416c0,0-0.309-0.029-0.619-0.058c-0.308-0.026-0.615-0.059-0.615-0.059  l-1.158-0.126c-0.063-0.557-0.115-1.116-0.156-1.679c0.164-0.047,0.564-0.167,0.969-0.288c0.523-0.146,1.046-0.293,1.046-0.293  s0.524-0.141,1.048-0.284c0.524-0.135,1.047-0.27,1.047-0.27s-0.532-0.082-1.068-0.167c-0.536-0.09-1.071-0.178-1.071-0.178  s-0.535-0.096-1.068-0.193c-0.416-0.08-0.827-0.156-0.993-0.189c-0.013-0.556-0.012-1.115-0.002-1.677l1.136-0.238l1.208-0.235  l-1.194-0.305l-1.118-0.299c0.025-0.562,0.062-1.124,0.11-1.688c0.175-0.023,0.582-0.077,0.988-0.129  c0.54-0.067,1.08-0.13,1.08-0.13s0.54-0.058,1.079-0.116c0.538-0.052,1.077-0.105,1.077-0.105s-0.517-0.164-1.033-0.33  c-0.514-0.172-1.029-0.343-1.029-0.343s-0.514-0.178-1.03-0.356c-0.383-0.136-0.765-0.274-0.934-0.335  c0.074-0.559,0.158-1.113,0.255-1.666l1.146-0.055l1.242-0.04l-1.134-0.486l-1.057-0.473c0.111-0.554,0.235-1.105,0.369-1.649  c0.174,0.005,0.587,0.016,1.002,0.028c0.541,0.02,1.083,0.042,1.083,0.042s0.542,0.025,1.081,0.053  c0.54,0.034,1.076,0.067,1.076,0.067s-0.483-0.245-0.968-0.49c-0.479-0.25-0.964-0.5-0.964-0.5s-0.477-0.256-0.952-0.512  c-0.361-0.2-0.721-0.397-0.873-0.482c0.16-0.54,0.328-1.075,0.508-1.603l1.157,0.131l1.229,0.153l-1.043-0.66l-0.979-0.638  c0.197-0.527,0.403-1.05,0.621-1.568c0.163,0.031,0.575,0.108,0.994,0.186c0.529,0.105,1.059,0.21,1.059,0.21  s0.531,0.112,1.059,0.223c0.525,0.117,1.049,0.234,1.049,0.234s-0.435-0.317-0.874-0.634c-0.432-0.321-0.865-0.643-0.865-0.643  s-0.431-0.328-0.861-0.655c-0.336-0.261-0.667-0.521-0.795-0.621c0.24-0.506,0.493-1.006,0.753-1.498l1.13,0.312l1.187,0.344  l-0.929-0.817l-0.869-0.785c0.277-0.49,0.565-0.975,0.861-1.451c0.153,0.054,0.551,0.194,0.952,0.337  c0.505,0.188,1.012,0.373,1.012,0.373s0.506,0.196,1.014,0.388c0.504,0.199,1.009,0.401,1.009,0.401s-0.381-0.383-0.764-0.763  c-0.379-0.387-0.756-0.774-0.756-0.774s-0.376-0.392-0.751-0.783c-0.292-0.312-0.583-0.619-0.693-0.739  c0.317-0.461,0.644-0.914,0.98-1.36l1.066,0.482l1.118,0.523l-0.795-0.955l-0.729-0.903c0.351-0.442,0.711-0.875,1.08-1.3  c0.151,0.083,0.517,0.282,0.88,0.481c0.476,0.265,0.949,0.532,0.949,0.532s0.473,0.269,0.941,0.54  c0.468,0.275,0.934,0.551,0.934,0.551s-0.319-0.437-0.64-0.874c-0.314-0.442-0.629-0.883-0.629-0.883s-0.311-0.446-0.621-0.893  c-0.232-0.341-0.465-0.684-0.563-0.827c0.386-0.409,0.781-0.805,1.185-1.195l0.964,0.633l1.029,0.697l-0.629-1.061l-0.58-1.006  c0.415-0.381,0.837-0.753,1.268-1.115c0.136,0.104,0.465,0.356,0.797,0.61c0.426,0.337,0.854,0.671,0.854,0.671  s0.421,0.338,0.84,0.677c0.417,0.343,0.834,0.686,0.834,0.686s-0.247-0.48-0.497-0.964c-0.243-0.486-0.486-0.973-0.486-0.973  s-0.234-0.485-0.467-0.971c-0.178-0.374-0.352-0.748-0.425-0.902c0.446-0.342,0.896-0.676,1.354-0.998l0.859,0.781l0.903,0.846  l-0.458-1.148l-0.416-1.084c0.47-0.311,0.945-0.613,1.428-0.904c0.118,0.124,0.402,0.423,0.69,0.726  c0.367,0.395,0.735,0.791,0.735,0.791s0.361,0.4,0.726,0.8c0.357,0.404,0.715,0.808,0.715,0.808s-0.167-0.511-0.335-1.024  c-0.161-0.515-0.324-1.029-0.324-1.029s-0.157-0.519-0.313-1.035c-0.115-0.401-0.229-0.799-0.278-0.964  c0.491-0.266,0.991-0.523,1.493-0.77l0.725,0.909l0.759,0.975l-0.274-1.209l-0.24-1.132c0.512-0.233,1.03-0.458,1.552-0.671  c0.097,0.14,0.33,0.48,0.565,0.823c0.301,0.448,0.6,0.897,0.6,0.897s0.297,0.455,0.594,0.911c0.29,0.458,0.581,0.915,0.581,0.915  s-0.084-0.53-0.17-1.064c-0.079-0.535-0.157-1.07-0.157-1.07s-0.074-0.537-0.148-1.075c-0.051-0.418-0.103-0.832-0.124-1  c0.526-0.187,1.057-0.362,1.593-0.528l0.578,1.017l0.596,1.079l-0.083-1.241l-0.057-1.157c0.347-0.098,0.694-0.186,1.044-0.275  l1.076,1.758l1.174,1.918l0.017-0.129c0.05,0.117,0.083,0.191,0.083,0.191s0-0.371-0.001-0.803l0.198-1.487l0.27-2.041  c0.417-0.072,0.834-0.139,1.256-0.198l0.412,1.096l0.419,1.157c0,0,0.027-0.311,0.055-0.62c0.031-0.305,0.059-0.611,0.059-0.611  l0.125-1.16c0.558-0.062,1.119-0.116,1.68-0.156c0.049,0.163,0.167,0.564,0.285,0.968c0.148,0.522,0.295,1.047,0.295,1.047  s0.143,0.523,0.283,1.047c0.135,0.522,0.271,1.048,0.271,1.048s0.084-0.535,0.167-1.069c0.089-0.536,0.179-1.069,0.179-1.069  s0.095-0.536,0.19-1.07c0.08-0.416,0.158-0.828,0.188-0.994c0.559-0.014,1.119-0.011,1.682-0.001l0.235,1.135l0.235,1.209  l0.303-1.194l0.301-1.119c0.561,0.024,1.123,0.063,1.689,0.11c0.022,0.174,0.074,0.581,0.128,0.989  c0.065,0.539,0.129,1.077,0.129,1.077s0.057,0.541,0.118,1.079c0.052,0.54,0.104,1.077,0.104,1.077s0.164-0.515,0.331-1.031  c0.172-0.515,0.343-1.03,0.343-1.03s0.178-0.513,0.355-1.028c0.137-0.383,0.274-0.767,0.335-0.935  c0.559,0.073,1.116,0.16,1.666,0.255l0.055,1.146l0.042,1.241l0.487-1.131l0.47-1.058c0.556,0.112,1.104,0.237,1.652,0.37  c-0.005,0.172-0.019,0.586-0.028,1.001c-0.022,0.541-0.042,1.083-0.042,1.083s-0.029,0.54-0.055,1.082  c-0.032,0.537-0.065,1.076-0.065,1.076s0.243-0.484,0.488-0.967c0.252-0.483,0.501-0.965,0.501-0.965s0.258-0.477,0.512-0.952  c0.2-0.362,0.4-0.724,0.481-0.874c0.54,0.159,1.077,0.33,1.604,0.509l-0.13,1.157l-0.154,1.229l0.659-1.044l0.639-0.979  c0.527,0.198,1.05,0.405,1.566,0.621c-0.03,0.163-0.106,0.577-0.186,0.995c-0.106,0.53-0.211,1.062-0.211,1.062  s-0.111,0.527-0.222,1.056c-0.117,0.523-0.235,1.049-0.235,1.049s0.317-0.437,0.636-0.875c0.321-0.432,0.643-0.864,0.643-0.864  s0.328-0.431,0.656-0.861c0.262-0.336,0.519-0.669,0.62-0.797c0.505,0.242,1.005,0.493,1.496,0.754l-0.312,1.13l-0.342,1.188  l0.814-0.929l0.785-0.869c0.49,0.276,0.973,0.564,1.45,0.86c-0.055,0.153-0.196,0.551-0.337,0.95  c-0.187,0.506-0.374,1.012-0.374,1.012s-0.193,0.508-0.386,1.014c-0.201,0.504-0.402,1.009-0.402,1.009s0.383-0.381,0.764-0.763  c0.388-0.379,0.772-0.758,0.772-0.758s0.392-0.374,0.783-0.75c0.313-0.292,0.621-0.583,0.74-0.693  c0.459,0.317,0.916,0.645,1.36,0.979l-0.483,1.067l-0.524,1.118l0.955-0.797l0.904-0.729c0.443,0.351,0.874,0.713,1.3,1.081  c-0.083,0.151-0.284,0.515-0.481,0.882c-0.266,0.475-0.532,0.95-0.532,0.95s-0.271,0.469-0.541,0.939  c-0.277,0.467-0.548,0.932-0.548,0.932s0.436-0.318,0.875-0.638c0.438-0.315,0.881-0.631,0.881-0.631s0.446-0.31,0.892-0.621  c0.344-0.235,0.687-0.466,0.829-0.563c0.408,0.386,0.805,0.783,1.196,1.185L78.21,23.04l-0.697,1.029l1.061-0.63l1.008-0.581  c0.38,0.415,0.753,0.837,1.115,1.269c-0.104,0.134-0.357,0.463-0.612,0.797c-0.334,0.424-0.669,0.852-0.669,0.852  s-0.339,0.42-0.679,0.845c-0.343,0.415-0.687,0.832-0.687,0.832s0.482-0.249,0.967-0.497c0.483-0.243,0.97-0.487,0.97-0.487  s0.487-0.235,0.973-0.468c0.374-0.177,0.746-0.351,0.902-0.424c0.342,0.446,0.674,0.897,0.997,1.354l-0.781,0.857l-0.847,0.906  l1.147-0.461l1.086-0.415c0.311,0.467,0.612,0.944,0.904,1.425c-0.125,0.119-0.425,0.405-0.727,0.69  c-0.396,0.369-0.793,0.737-0.793,0.737s-0.399,0.361-0.798,0.723c-0.403,0.358-0.809,0.716-0.809,0.716s0.513-0.167,1.023-0.336  c0.516-0.162,1.03-0.323,1.03-0.323s0.517-0.157,1.035-0.314c0.401-0.115,0.798-0.23,0.962-0.278  c0.268,0.492,0.523,0.99,0.771,1.493l-0.906,0.724l-0.978,0.76l1.209-0.275l1.135-0.241c0.232,0.512,0.458,1.03,0.671,1.554  c-0.143,0.095-0.481,0.331-0.823,0.565c-0.448,0.3-0.896,0.6-0.896,0.6s-0.457,0.298-0.912,0.593  c-0.457,0.29-0.916,0.581-0.916,0.581s0.532-0.084,1.066-0.17c0.533-0.079,1.068-0.16,1.068-0.16s0.537-0.074,1.073-0.147  c0.42-0.053,0.833-0.104,0.999-0.124c0.187,0.524,0.366,1.056,0.53,1.591l-1.018,0.577l-1.081,0.596l1.241-0.081l1.158-0.06  c0.095,0.342,0.181,0.682,0.268,1.024l-1.755,1.073l-1.917,1.174l0.173,0.023c-0.141,0.06-0.232,0.102-0.232,0.102  s0.48-0.002,0.986-0.001l1.303,0.171l2.037,0.271c0.074,0.424,0.144,0.851,0.203,1.281l-1.095,0.41L87.5,45.181  c0,0,0.308,0.028,0.616,0.055c0.31,0.029,0.614,0.061,0.614,0.061l1.158,0.123c0.063,0.558,0.116,1.117,0.156,1.681  c-0.162,0.047-0.563,0.167-0.968,0.285c-0.521,0.147-1.047,0.294-1.047,0.294s-0.523,0.143-1.048,0.286  c-0.524,0.134-1.049,0.269-1.049,0.269s0.535,0.083,1.068,0.166c0.535,0.091,1.07,0.18,1.07,0.18s0.535,0.096,1.069,0.192  c0.416,0.079,0.826,0.157,0.994,0.188c0.012,0.557,0.011,1.117,0.001,1.679l-1.136,0.237l-1.209,0.234l1.195,0.305l1.118,0.301  c-0.026,0.561-0.062,1.122-0.11,1.686c-0.176,0.024-0.579,0.078-0.988,0.13c-0.539,0.065-1.079,0.13-1.079,0.13  s-0.538,0.058-1.079,0.116c-0.539,0.052-1.075,0.104-1.075,0.104s0.515,0.164,1.031,0.33c0.514,0.172,1.03,0.344,1.03,0.344  s0.513,0.178,1.027,0.356c0.384,0.138,0.766,0.273,0.934,0.336C89.725,55.818,89.64,56.373,89.544,56.927z"/>
</svg>
