<svg xmlns="http://www.w3.org/2000/svg" xmlns:xlink="http://www.w3.org/1999/xlink" version="1.1" x="0px" y="0px" viewBox="0 0 100 100" enable-background="new 0 0 100 100" xml:space="preserve"><g><path fill="#000000" d="M56.436,27.466h-1.929h-9.015h-1.929c-6.024,0-10.924,4.901-10.924,10.924v3.842v7.102v13.717   c0,2.748,2.236,4.984,4.984,4.984c0.608,0,1.184-0.125,1.723-0.325v21.259c0,3.39,2.757,6.146,6.146,6.146   c1.782,0,3.384-0.766,4.507-1.982c1.124,1.215,2.726,1.982,4.507,1.982c3.39,0,6.146-2.757,6.146-6.146V67.709   c0.539,0.2,1.115,0.325,1.723,0.325c2.748,0,4.984-2.236,4.984-4.984V49.334v-7.102v-3.842   C67.361,32.366,62.459,27.466,56.436,27.466z M64.1,63.051c0,0.95-0.773,1.723-1.723,1.723c-0.95,0-1.723-0.773-1.723-1.723v-2.118   V42.231c0-0.901-0.73-1.631-1.631-1.631s-1.631,0.73-1.631,1.631v18.701v2.118v25.918c0,1.591-1.294,2.885-2.885,2.885   c-1.553,0-2.814-1.235-2.874-2.773c0.001-0.038,0.006-0.074,0.006-0.112v-21.47c0-0.9-0.73-1.631-1.631-1.631   c-0.003,0-0.006,0.001-0.008,0.001s-0.006-0.001-0.008-0.001c-0.9,0-1.631,0.73-1.631,1.631v21.47c0,0.038,0.005,0.074,0.006,0.112   c-0.06,1.538-1.321,2.773-2.874,2.773c-1.591,0-2.885-1.294-2.885-2.885V63.051v-2.118V42.231c0-0.901-0.73-1.631-1.631-1.631   s-1.631,0.73-1.631,1.631v18.701v2.118c0,0.95-0.773,1.723-1.723,1.723c-0.95,0-1.723-0.773-1.723-1.723V49.334v-7.102v-3.842   c0-4.226,3.438-7.663,7.663-7.663h1.929h9.015h1.929c4.226,0,7.663,3.437,7.663,7.663v3.842v7.102V63.051z"></path><path fill="#000000" d="M50.008,27.023c6.103,0,11.069-4.966,11.069-11.069S56.111,4.885,50.008,4.885S38.94,9.851,38.94,15.954   S43.906,27.023,50.008,27.023z M50.008,8.146c4.306,0,7.808,3.503,7.808,7.808c0,4.306-3.502,7.808-7.808,7.808   s-7.808-3.503-7.808-7.808C42.201,11.649,45.703,8.146,50.008,8.146z"></path></g></svg>