<svg fill="#000000" xmlns="http://www.w3.org/2000/svg" xmlns:xlink="http://www.w3.org/1999/xlink" version="1.1" x="0px" y="0px" viewBox="0 0 91 91" style="enable-background:new 0 0 91 91;" xml:space="preserve"><g><path d="M41.3,8.5l-0.1,0.2c-0.8,1.3-1.1,1.8-1.8,3.5c0,0,0,0,0,0.1c1.6,1.2,3.6,2.9,5.7,5.1c1.9-3.3,2.7-5.8,2.7-5.9   c0,0,0-0.1,0.1-0.1c0.2-0.4,1-2.7-1.9-4C42.9,6.1,41.4,8.3,41.3,8.5z"/><path d="M26.3,64.8c0,0,3,4.6,9.7,7.1c4.7,1.7,4.7,4.5,4.7,4.8L40.4,80c2.2,1.3,10.8,5.8,22.8,2.4l0.5-6c0.5-2.9,3.5-4.5,3.8-4.7   c3.5-1.8,3.9-7.1,3.9-7.2L73,41c0.1-2.2-1.5-4.1-3.7-4.2c-1.1-0.1-2.1,0.3-2.9,1c-0.8,0.7-1.3,1.7-1.3,2.7v0c0,0.7-0.6,1.2-1.3,1.2   c-0.7,0-1.2-0.6-1.2-1.3l0.2-3.1c0,0,0-0.1,0-0.1c0,0,0-0.1,0-0.1c0.1-1.1-0.3-2.1-1-2.9C61,33.3,60,32.8,59,32.8   c-2.2-0.2-4.1,1.5-4.2,3.7c0,0,0,0.1,0,0.1c0,0.6-0.4,1.1-1,1.3c-0.7,0.1-1.3-0.3-1.4-1c-2.8-16-16.9-24.2-17-24.3   c0,0-1.2-0.7-2.4-0.3c-0.7,0.3-1.3,0.9-1.7,2c-0.8,1.9,0.5,3.1,0.7,3.2c11.4,8.1,11.4,20.2,11.4,20.7c0,0.7-0.6,1.2-1.2,1.2   c0,0,0,0,0,0c-0.7,0-1.2-0.6-1.2-1.3c0-0.1-0.1-7-5.1-13.6c-2.1,10.5-2.3,20.1-2.3,20.2c0,0,0,0,0,0.1c0,0,0,0,0,0l-0.6,6.7   c-0.1,2.5-2.2,3.8-3.4,4.2c-0.1,0-0.2,0.1-0.4,0.1c-0.5,0-1-0.3-1.2-0.9c-0.2-0.7,0.2-1.4,0.8-1.6c0.1,0,1.5-0.5,1.6-2l0-0.4   c-1.7,0.6-3.2-0.5-3.3-0.6l-6.3-5.5c-0.2-0.2-3.2-3-6-1c-2.6,1.9-1.9,4.4-1.7,5l13.2,15.7C26.2,64.7,26.3,64.7,26.3,64.8z"/></g></svg>