<svg xmlns="http://www.w3.org/2000/svg" xmlns:xlink="http://www.w3.org/1999/xlink" xmlns:sketch="http://www.bohemiancoding.com/sketch/ns" viewBox="0 0 100 100" version="1.1" x="0px" y="0px"><title>eye-fill 49</title><desc>Created with Sketch.</desc><g stroke="none" stroke-width="1" fill="none" fill-rule="evenodd" sketch:type="MSPage"><path d="M70.603769,57.3402136 C71.3356245,58.0720691 72.5235639,58.0720691 73.2554194,57.3402136 L79.6644585,50.9311745 C79.8421191,50.7535139 79.9773533,50.5440335 80.0675094,50.3265982 C80.1576655,50.1038595 80.2106985,49.8599077 80.2133502,49.6080009 C80.2133502,49.3534425 80.1603172,49.1094906 80.0675094,48.8894036 C79.9747016,48.6693167 79.8447708,48.4598363 79.6644585,48.279524 L73.2554194,41.870485 C72.5235639,41.1386294 71.3356245,41.1386294 70.603769,41.870485 C69.8692618,42.6049921 69.8719135,43.7902799 70.603769,44.5221354 L73.812266,47.7306324 L51.4800661,47.7306324 L51.4827178,25.4010841 L54.6885631,28.6069295 C55.4204186,29.338785 56.6057064,29.3414367 57.3402136,28.6069295 C58.0720691,27.875074 58.0720691,26.6871346 57.3402136,25.9552791 L50.9338261,19.5488916 C50.7535139,19.3685794 50.5440335,19.2386485 50.3239465,19.1458408 C50.1038595,19.053033 49.8599077,19 49.6053493,19 C49.3507908,19 49.106839,19.053033 48.886752,19.1458408 C48.6693167,19.2359969 48.4598363,19.3712311 48.2821757,19.5488916 L41.8731366,25.9579307 C41.1412811,26.6897862 41.1386294,27.875074 41.8731366,28.6095812 C42.6049921,29.3414367 43.7929315,29.3414367 44.524787,28.6095812 L47.7306324,25.4037358 L47.7306324,47.7306324 L25.4010841,47.7332841 L28.6095812,44.524787 C29.3414367,43.7929315 29.3414367,42.6049921 28.6095812,41.8731366 C27.875074,41.1386294 26.6897862,41.1412811 25.9579307,41.8731366 L19.5488916,48.2821757 C19.3685794,48.4624879 19.2359969,48.6693167 19.1431891,48.8894036 C19.0503814,49.1094906 19,49.3507908 19,49.6053493 C19,49.8599077 19.053033,50.1038595 19.1458408,50.3239465 C19.2359969,50.5466852 19.3685794,50.7535139 19.5488916,50.9338261 L25.9552791,57.3402136 C26.6871346,58.0720691 27.875074,58.0720691 28.6069295,57.3402136 C29.338785,56.608358 29.338785,55.4204186 28.6069295,54.6885631 L25.4010841,51.4827178 L47.7306324,51.4800661 L47.7306324,73.812266 L44.5221354,70.603769 C43.7902799,69.8719135 42.6023405,69.8719135 41.870485,70.603769 C41.1386294,71.3356245 41.1386294,72.5235639 41.870485,73.2554194 L48.279524,79.6644585 C48.4598363,79.8447708 48.666665,79.9773533 48.8894036,80.0675094 C49.1094906,80.1603172 49.3534425,80.2133502 49.6080009,80.2133502 C49.8599077,80.2106985 50.1012079,80.1603172 50.3239465,80.070161 C50.5440335,79.9773533 50.7508622,79.8447708 50.9311745,79.6644585 L57.3402136,73.2554194 C58.0720691,72.5235639 58.0720691,71.3356245 57.3402136,70.603769 C56.608358,69.8719135 55.4204186,69.8719135 54.6885631,70.603769 L51.4800661,73.812266 L51.4800661,51.4800661 L73.8096144,51.4827178 L70.603769,54.6885631 C69.8719135,55.4204186 69.8719135,56.608358 70.603769,57.3402136" fill="#000000" sketch:type="MSShapeGroup"></path></g></svg>