<svg fill="#000000" xmlns="http://www.w3.org/2000/svg" xmlns:xlink="http://www.w3.org/1999/xlink" version="1.1" x="0px" y="0px" viewBox="0 0 100 100" enable-background="new 0 0 100 100" xml:space="preserve"><path d="M19.101,94.995c-0.18,0-0.361-0.048-0.525-0.149c-0.47-0.291-0.614-0.907-0.324-1.377c0.086-0.139,8.618-14.018,8.39-20.968  c-0.234-7.142-2.189-14.735-4.756-18.468c-2.691-3.916-6.559-13.084-6.309-20.324c0.268-7.76,6.875-29.713,32.729-29.713  c0.212,0,0.422,0.001,0.636,0.004c11.88,0.164,26.889,3.904,30.924,20.793l0.099,0.409c0.2,0.798,0.427,1.569,0.648,2.32  c0.735,2.497,1.43,4.855,0.926,7.379c-0.549,2.745-0.436,3.044,0.964,5.432c0.368,0.627,0.988,1.513,1.645,2.449  c2.1,2.996,3.593,5.239,3.686,6.825c0.171,2.905-1.64,3.756-3.351,4.327c-0.457,0.152-1.041,0.426-1.229,0.862  c-0.125,0.288-0.078,0.67,0.138,1.138c0.537,1.163,0.374,2.1,0.143,2.68c-0.207,0.519-0.549,0.972-0.998,1.334  c0.55,1.122,0.65,2.408-0.789,3.848c-0.714,0.713-0.583,1.059-0.347,1.686c0.039,0.103,0.076,0.201,0.107,0.296  c0.368,1.107,0.792,5.721-2.046,7.216c-1.197,0.63-3.475,0.922-6.111,1.26c-2.514,0.322-5.643,0.723-6.472,1.397  c-1.781,1.446-2.57,4.457-2.011,7.671c0.272,1.569-0.086,2.875-0.501,4.387c-0.417,1.518-0.889,3.236-0.928,5.822  c-0.009,0.553-0.487,0.958-1.015,0.985c-0.553-0.009-0.993-0.463-0.985-1.015c0.043-2.841,0.573-4.771,0.999-6.322  c0.38-1.386,0.655-2.387,0.459-3.515c-0.682-3.915,0.387-7.671,2.72-9.566c1.271-1.033,4.287-1.42,7.479-1.829  c2.136-0.273,4.557-0.584,5.434-1.045c1.625-0.855,1.252-4.299,1.08-4.813l-0.081-0.223c-0.287-0.762-0.823-2.181,0.804-3.806  c0.776-0.777,0.778-1.107,0.008-2.208l-0.724-1.034l1.172-0.468c0.43-0.172,0.753-0.463,0.887-0.798  c0.126-0.314,0.092-0.686-0.101-1.102c-0.578-1.253-0.404-2.197-0.157-2.77c0.387-0.895,1.205-1.556,2.433-1.965  c1.693-0.565,2.064-0.997,1.987-2.313c-0.067-1.142-2.029-3.942-3.327-5.794c-0.681-0.971-1.323-1.888-1.731-2.585  c-1.625-2.772-1.861-3.53-1.2-6.835c0.407-2.04-0.19-4.07-0.884-6.421c-0.229-0.777-0.463-1.575-0.669-2.4l-0.104-0.43  C74.92,12.703,65.16,6.224,48.913,6c-0.213-0.003-0.427-0.004-0.637-0.004c-28.929,0-30.692,27.502-30.702,27.782  c-0.233,6.791,3.418,15.425,5.959,19.123c2.761,4.016,4.86,12.049,5.105,19.534c0.249,7.553-8.321,21.497-8.687,22.087  C19.763,94.827,19.436,94.995,19.101,94.995z"/><path d="M52,56h-6c-0.553,0-1-0.447-1-1s0.447-1,1-1h6c0.553,0,1,0.447,1,1S52.553,56,52,56z"/><path d="M52.604,57.718C52.429,57.291,52.018,57,51.557,57h-5.113c-0.461,0-0.872,0.291-1.047,0.718  c-0.175,0.426-0.076,0.919,0.238,1.229l1.525,1.609C47.411,60.81,47.758,61,48.113,61h1.773c0.355,0,0.702-0.186,0.956-0.444  l1.51-1.576C52.68,58.657,52.778,58.144,52.604,57.718z"/><path d="M49,19c-0.553,0-1-0.448-1-1v-4c0-0.552,0.447-1,1-1s1,0.448,1,1v4C50,18.552,49.553,19,49,19z"/><path d="M41.609,20.914c-0.346,0-0.682-0.179-0.867-0.5l-2-3.464c-0.276-0.478-0.112-1.09,0.366-1.366  c0.477-0.276,1.089-0.112,1.366,0.366l2,3.464c0.276,0.478,0.112,1.09-0.366,1.366C41.951,20.871,41.779,20.914,41.609,20.914z"/><path d="M36.163,26.267c-0.17,0-0.342-0.043-0.499-0.134l-3.465-2c-0.479-0.276-0.643-0.888-0.366-1.366s0.889-0.642,1.366-0.366  l3.465,2c0.479,0.276,0.643,0.888,0.366,1.366C36.845,26.087,36.509,26.267,36.163,26.267z"/><path d="M34,34h-4c-0.553,0-1-0.448-1-1s0.447-1,1-1h4c0.553,0,1,0.448,1,1S34.553,34,34,34z"/><path d="M32.654,43.404c-0.346,0-0.682-0.179-0.867-0.5c-0.276-0.479-0.112-1.09,0.366-1.366l3.465-2  c0.476-0.276,1.089-0.113,1.366,0.366c0.276,0.479,0.112,1.09-0.366,1.366l-3.465,2C32.996,43.361,32.824,43.404,32.654,43.404z"/><path d="M65.607,43.267c-0.17,0-0.342-0.043-0.499-0.134l-3.464-2c-0.479-0.276-0.643-0.888-0.366-1.366  c0.276-0.479,0.889-0.643,1.366-0.366l3.464,2c0.479,0.276,0.643,0.888,0.366,1.366C66.289,43.087,65.953,43.267,65.607,43.267z"/><path d="M68,34h-4c-0.553,0-1-0.448-1-1s0.447-1,1-1h4c0.553,0,1,0.448,1,1S68.553,34,68,34z"/><path d="M62.1,26.404c-0.346,0-0.682-0.179-0.867-0.5c-0.276-0.478-0.112-1.09,0.366-1.366l3.464-2  c0.477-0.277,1.089-0.113,1.366,0.366c0.276,0.478,0.112,1.09-0.366,1.366l-3.464,2C62.441,26.361,62.27,26.404,62.1,26.404z"/><path d="M56.653,20.776c-0.17,0-0.342-0.043-0.499-0.134c-0.479-0.276-0.643-0.888-0.366-1.366l2-3.464  c0.276-0.479,0.888-0.643,1.366-0.366c0.479,0.276,0.643,0.888,0.366,1.366l-2,3.464C57.335,20.597,56.999,20.776,56.653,20.776z"/><path d="M43.781,35.012c-0.372,0-0.728-0.208-0.898-0.566c-0.05-0.103-0.48-1.048-0.485-2.477c-0.006-1.786,0.685-3.598,1.944-4.865  C45.601,25.837,47.277,25,49.064,25c0.001,0,0.002,0,0.003,0c0.551,0,0.998,0.576,1,1.127c0.002,0.552-0.444,1.066-0.997,1.068  c-1.252,0.004-2.428,0.528-3.311,1.416c-0.882,0.888-1.366,2.083-1.362,3.335c0.003,0.979,0.291,1.631,0.294,1.638  c0.228,0.5,0.012,1.097-0.485,1.329C44.068,34.977,43.923,35.012,43.781,35.012z"/><path d="M60.085,32.209c-0.009-2.937-1.161-5.777-3.244-7.848C54.766,22.299,52.015,21,49.091,21c-0.012,0-0.023,0-0.035,0  c-2.938,0-5.695,1.326-7.766,3.41c-2.07,2.083-3.206,5.013-3.196,7.95c0.007,2.192,0.624,3.686,0.751,3.968  c0.006,0.016,0.003,0.033,0.01,0.048c0.606,1.423,1.18,2.728,1.702,3.896c1.039,2.322,1.859,4.207,2.354,5.836  c0.257,0.842,0.711,3.519,0.87,4.473C44.039,51.867,45.176,53,46.485,53c0.003,0,0.007,0,0.01,0h5.313  c1.314-0.005,2.45-1.146,2.706-2.469c0.147-0.923,0.586-3.719,0.837-4.562c0.485-1.632,1.295-3.473,2.32-5.804  c0.515-1.17,1.078-2.45,1.675-3.874c0.012-0.029,0.009-0.06,0.018-0.09C59.682,35.419,60.091,34.133,60.085,32.209z M53.434,45.448  c-0.339,1.141-0.871,4.726-0.888,4.835C52.477,50.638,52.163,51,51.802,51h-5.313c0,0-0.001,0-0.002,0  c-0.36,0-0.673-0.457-0.738-0.779c-0.023-0.141-0.576-3.656-0.923-4.795c-0.532-1.749-1.375-3.632-2.443-6.018  c-0.516-1.152-1.081-2.412-1.679-3.815c-0.012-0.035-0.01-0.072-0.026-0.106c-0.006-0.012-0.577-1.306-0.583-3.217  c-0.008-2.402,0.921-4.747,2.615-6.451C44.402,24.115,46.659,23,49.062,23c0.01,0,0.02,0,0.029,0c2.392,0,4.643,1.091,6.34,2.778  c1.704,1.694,2.647,4.112,2.654,6.515c0.005,1.597-0.332,2.6-0.585,3.219c-0.006,0.014-0.003,0.028-0.008,0.042  c-0.588,1.402-1.144,2.677-1.65,3.829C54.788,41.778,53.955,43.695,53.434,45.448z"/></svg>