<svg fill="#000000" xmlns:dc="http://purl.org/dc/elements/1.1/" xmlns:cc="http://creativecommons.org/ns#" xmlns:rdf="http://www.w3.org/1999/02/22-rdf-syntax-ns#" xmlns:svg="http://www.w3.org/2000/svg" xmlns="http://www.w3.org/2000/svg" xmlns:sodipodi="http://sodipodi.sourceforge.net/DTD/sodipodi-0.dtd" xmlns:inkscape="http://www.inkscape.org/namespaces/inkscape" version="1.1" x="0px" y="0px" viewBox="0 0 100 100"><g transform="translate(0,-952.36218)"><path style="text-indent:0;text-transform:none;direction:ltr;block-progression:tb;baseline-shift:baseline;color:#000000;enable-background:accumulate;" d="m 42.775791,958.364 a 3.0003,3.0003 0 0 0 -0.4062,0.0312 c -20.7097,3.87478 -36.3749995,21.94606 -36.3749995,43.5938 0,24.4751 20.0654995,44.375 44.7187995,44.375 20.5731,0 37.9983,-13.8226 43.1874,-32.6562 a 3.0003,3.0003 0 0 0 -4.0312,-3.5625 c -4.1073,1.6878 -8.5968,2.625 -13.3125,2.625 -19.245,0 -34.75,-15.3785 -34.75,-34.4063 0,-5.63938 1.358,-10.93022 3.7813,-15.625 a 3.0003,3.0003 0 0 0 -2.8126,-4.375 z m -4.9062,7.5 c -1.2989,3.94702 -2.0625,8.13128 -2.0625,12.5 0,22.2999 18.2916,40.4063 40.75,40.4063 3.301,0 6.4609,-0.4771 9.5313,-1.2188 -6.0237,13.403 -19.5533,22.8125 -35.375,22.8125 -21.4398,0 -38.718799,-17.1721 -38.718799,-38.375 0,-16.72623 10.818499,-30.867 25.874999,-36.125 z" fill="#000000" fill-opacity="1" stroke="none" marker="none" visibility="visible" display="inline" overflow="visible"/></g></svg>