<svg xmlns="http://www.w3.org/2000/svg" xmlns:xlink="http://www.w3.org/1999/xlink" version="1.1" x="0px" y="0px" viewBox="0 0 77.877 92.396" enable-background="new 0 0 77.877 92.396" xml:space="preserve"><g><g><rect x="12.127" y="51.978" fill="#000000" width="25.079" height="3.961"></rect><rect x="12.127" y="59.898" fill="#000000" width="15.18" height="3.961"></rect><rect x="29.287" y="59.898" fill="#000000" width="11.879" height="3.961"></rect><rect x="12.127" y="67.818" fill="#000000" width="5.939" height="3.961"></rect><rect x="19.387" y="67.818" fill="#000000" width="9.24" height="3.961"></rect><rect x="12.127" y="75.738" fill="#000000" width="9.24" height="3.961"></rect><rect x="22.688" y="75.738" fill="#000000" width="13.199" height="3.961"></rect></g><rect x="44.466" y="14.03" fill="#000000" width="25.079" height="3.96"></rect><rect x="44.466" y="21.95" fill="#000000" width="9.239" height="3.96"></rect><rect x="55.686" y="21.95" fill="#000000" width="10.56" height="3.96"></rect><rect x="44.466" y="29.87" fill="#000000" width="5.94" height="3.96"></rect><rect x="51.726" y="29.87" fill="#000000" width="9.239" height="3.96"></rect><rect x="62.285" y="29.87" fill="#000000" width="9.24" height="3.96"></rect><rect x="44.466" y="37.79" fill="#000000" width="9.239" height="3.959"></rect><rect x="55.025" y="37.79" fill="#000000" width="13.199" height="3.959"></rect><path fill="#000000" d="M0.908,0.171v92.397h77.877V0.171H0.908z M74.824,88.607H4.867V4.131h69.957V88.607z"></path><rect x="12.127" y="14.03" fill="#000000" width="23.76" height="23.76"></rect><rect x="44.631" y="51.978" fill="#000000" width="23.76" height="23.76"></rect></g></svg>