<svg fill="#000000" xmlns="http://www.w3.org/2000/svg" xmlns:xlink="http://www.w3.org/1999/xlink" xml:space="preserve" version="1.1" shape-rendering="geometricPrecision" text-rendering="geometricPrecision" image-rendering="optimizeQuality" fill-rule="evenodd" clip-rule="evenodd" viewBox="0 0 5000000 5000000" x="0px" y="0px"><g><path fill="#000000" fill-rule="nonzero" d="M1586270 1761788l220283 252764 198195 -251583c13347,-17008 33190,-25749 53151,-25631 12521,-590 22915,-945 31064,-945 121894,0 232803,32954 316428,101460 45474,37324 82207,84452 107720,141737 12756,-15473 26693,-30237 41694,-43938 82207,-75712 195242,-122721 319262,-122721l57640 0c27166,0 50434,15946 61064,38978 7442,10866 11930,24095 11930,38269 0,159335 25040,302017 65553,403949 33190,83389 71932,135005 108311,135005 36497,0 75120,-51616 108310,-135005 40631,-101932 65672,-244614 65672,-403949 0,-14174 4370,-27403 11929,-38151 10630,-23150 33899,-39096 60947,-39096l57639 0c124020,0 237173,47009 319381,122721 83742,77010 135713,183785 135713,301426l0 653879c0,115279 -49963,220046 -130753,296702 -60356,57404 -138193,98862 -225125,117051l339814 1108736c10867,35316 -8977,72758 -44175,83625 -35316,10866 -72758,-8977 -83624,-44293l-363319 -1185155c-2362,-7678 -3189,-15355 -2835,-22915l-236 -616554c0,-36852 29883,-66735 66735,-66735 36969,0 66852,29883 66852,66735l236 544269c59294,-13701 112209,-42521 153548,-81617 54805,-52088 88704,-122720 88704,-199849l0 -653879c0,-78664 -35316,-150595 -92129,-202919 -57876,-53270 -137839,-86578 -226188,-87169 -5551,153076 -32954,291742 -74530,396273 -54096,135949 -135831,220046 -232566,220046 -96618,0 -178352,-84097 -232449,-220046 -41576,-104531 -69096,-243197 -74529,-396273 -88350,591 -168313,33899 -226189,87169 -56931,52324 -92247,124255 -92247,202919l0 643249 0 10630c0,77483 34253,148469 89649,200558 41812,39450 95554,68270 155674,81616l-236 -544977c0,-36852 30001,-66735 66852,-66735 36852,0 66735,29883 66735,66735l236 616436c472,7560 -473,15355 -2835,23033l-363318 1185273c-10867,35198 -48309,55041 -83507,44175 -35316,-10749 -55159,-48191 -44293,-83507l339696 -1108263c-87522,-17717 -165950,-59057 -226661,-116342 -24331,-22796 -45828,-48191 -64017,-75593 -17363,28229 -37679,54332 -60593,77955 -64018,65908 -148115,112326 -242252,129099l237 1106491c0,36852 -30001,66734 -66853,66734 -36851,0 -66734,-29882 -66734,-66734l-236 -1164604 0 -118c0,-1181 0,-2480 0,-3661l-119 -537773c0,-36970 29883,-66853 66853,-66853 36851,0 66734,29883 66734,66853l118 463007c56341,-14765 106775,-44884 146344,-85633 54686,-56458 88467,-133232 88467,-217802l0 -643249 0 -52560c0,-10867 -236,-19017 -473,-24450 -4960,-100397 -41458,-172564 -98034,-218983 -53742,-43939 -127091,-66853 -210597,-70042l-234929 967353c-4370,24804 -22678,46183 -48663,53152 -35788,9567 -72522,-11694 -82089,-47482l-260087 -968771c-70750,10985 -137248,44529 -188746,92720 -60356,56576 -99452,133114 -99452,216503l0 695809c0,84924 34135,162289 89412,218865 40041,40868 91184,70987 148233,85278l-118 -463715c0,-36970 29883,-66853 66853,-66853 36851,0 66734,29883 66734,66853l118 536710c0,1417 118,2835 0,4252l0 1653 236 1163541c0,36852 -30001,66734 -66852,66734 -36852,0 -66735,-29882 -66735,-66734l-236 -1106019c-94727,-16182 -179533,-62482 -244023,-128508 -79018,-80672 -127800,-190990 -127800,-312057l0 -695809c0,-122366 55868,-233275 141973,-313947 87641,-82089 207172,-133351 330601,-133351 20907,0 39569,9567 51852,24568zm219574 794907l114216 -469740 -56576 71578c-2953,4134 -6378,8031 -10394,11575 -27993,24213 -70278,21260 -94609,-6615l-84216 -96617 131579 489819zm1372721 -1976047c148705,0 283237,60238 380681,157564 97444,97444 157682,232094 157682,380682 0,148705 -60238,283237 -157682,380681 -97444,97444 -231976,157682 -380681,157682 -148588,0 -283238,-60238 -380563,-157682 -97445,-97444 -157683,-231976 -157683,-380681 0,-148588 60238,-283238 157683,-380682 97325,-97326 231975,-157564 380563,-157564zm285835 252410c-73112,-73113 -174218,-118350 -285835,-118350 -111618,0 -212605,45237 -285718,118350 -73231,73230 -118468,174218 -118468,285836 0,111617 45237,212723 118468,285835 73113,73113 174100,118350 285718,118350 111617,0 212723,-45237 285835,-118350 73113,-73112 118351,-174218 118351,-285835 0,-111618 -45238,-212606 -118351,-285836zm-1656902 -333082c153666,0 292922,62246 393556,162998 100751,100751 163115,239889 163115,393555 0,153785 -62364,292923 -163115,393674 -100634,100633 -239890,162997 -393556,162997 -153666,0 -292805,-62364 -393556,-162997 -100751,-100751 -163115,-239889 -163115,-393674 0,-153666 62364,-292804 163115,-393555 100751,-100752 239890,-162998 393556,-162998zm298828 257843c-76538,-76538 -182132,-123783 -298828,-123783 -116697,0 -222291,47245 -298710,123783 -76538,76420 -123784,182014 -123784,298710 0,116697 47246,222291 123784,298829 76419,76419 182013,123665 298710,123665 116696,0 222290,-47246 298828,-123665 76420,-76538 123665,-182132 123665,-298829 0,-116696 -47245,-222290 -123665,-298710z"/></g></svg>