<?xml version="1.0" encoding="utf-8"?>
<!-- Generator: Adobe Illustrator 15.1.0, SVG Export Plug-In . SVG Version: 6.00 Build 0)  -->
<!DOCTYPE svg PUBLIC "-//W3C//DTD SVG 1.1//EN" "http://www.w3.org/Graphics/SVG/1.1/DTD/svg11.dtd">
<svg version="1.1" id="Layer_1" xmlns="http://www.w3.org/2000/svg" xmlns:xlink="http://www.w3.org/1999/xlink" x="0px" y="0px"
	 width="99.997px" height="100px" viewBox="0 0 99.997 100" enable-background="new 0 0 99.997 100" xml:space="preserve">
<path fill="#010101" d="M81.816,71.14v-9.957c5.431-3.146,9.089-9.003,9.089-15.729c0-10.041-8.14-18.182-18.179-18.182
	c-3.641,0-7.01,1.091-9.852,2.934C60.078,18.121,49.296,9.09,36.361,9.09C21.3,9.09,9.09,21.3,9.09,36.361
	c0,8.067,3.524,15.292,9.089,20.285v11.174C7.324,61.528,0,49.813,0,36.361C0,16.279,16.279,0,36.361,0
	c13.646,0,25.524,7.526,31.743,18.646c1.508-0.257,3.037-0.466,4.622-0.466c15.061,0,27.271,12.211,27.271,27.274
	C99.997,57.324,92.401,67.394,81.816,71.14z"/>
<path fill="#010101" d="M31.817,72.725c-2.509,0-2.273-2.033-2.273-4.541V50c0-2.508-0.236-4.546,2.273-4.546
	c2.51,0,2.273,2.038,2.273,4.546v18.184C34.09,70.691,34.327,72.725,31.817,72.725z"/>
<path fill="#010101" d="M31.817,81.816c2.51,0,4.544,2.038,4.544,4.546c0,2.513-2.034,4.546-4.544,4.546
	c-2.509,0-4.546-2.033-4.546-4.546C27.271,83.854,29.306,81.816,31.817,81.816z"/>
<path fill="#010101" d="M49.999,81.816c-2.509,0-2.273-2.033-2.273-4.546V59.092c0-2.511-0.236-4.546,2.273-4.546
	c2.511,0,2.273,2.035,2.273,4.546v18.179C52.272,79.783,52.509,81.816,49.999,81.816z"/>
<circle fill="#010101" cx="49.999" cy="95.454" r="4.546"/>
<path fill="#010101" d="M68.18,72.725c-2.509,0-2.273-2.033-2.273-4.541V50c0-2.508-0.235-4.546,2.273-4.546
	c2.508,0,2.272,2.038,2.272,4.546v18.184C70.453,70.691,70.688,72.725,68.18,72.725z"/>
<path fill="#010101" d="M68.18,81.816c2.508,0,4.546,2.038,4.546,4.546c0,2.513-2.038,4.546-4.546,4.546
	c-2.509,0-4.546-2.033-4.546-4.546C63.634,83.854,65.671,81.816,68.18,81.816z"/>
</svg>
