<svg fill="#000000" xmlns="http://www.w3.org/2000/svg" xmlns:xlink="http://www.w3.org/1999/xlink" version="1.1" x="0px" y="0px" viewBox="0 0 100 100" style="enable-background:new 0 0 100 100;" xml:space="preserve"><g><path d="M97.6,69.1c0.3-0.9,0.5-1.6,0.3-2.4c-0.1-0.4-0.3-0.8-0.8-1.4c-0.5-0.7-1.1-1.7-1.8-3.1c0,0,0,0,0,0c1.3-1,1.6-2.5,1.6-2.6   c0.2-2.3-0.3-6.6-0.4-7.6c0.4-0.6,0.9-2.5,0.9-8.1c0-4.5-1-6.9-1.9-8c-0.1-1.2-0.4-2.2-1-3.1c-1.2-1.9-5.8-3-11.4-4.1   c-1.6-0.3-3-0.6-3.7-0.9c-0.3-0.1-0.5-0.2-0.8-0.3c-2-0.7-3.4-1.3-6-0.2c-2.6,1.1-11.8,2.4-13.9,1.6c-1.2-0.5-3.1-1.2-4.7-1.8   c-1.6-0.6-4.3-1.3-6.8-1.3c1.4-3.1,1.7-7.4-1.7-12.3c-0.6-0.9-1.5-1.8-2.4-2.5l-0.9-0.7c-0.4-0.3-1-0.2-1.2,0.2   c-0.2,0.2-0.2,0.5,0,0.8c1.6,3.3,3.4,9.3,1.8,11.6c-2.2,3.1-6,3.7-13.5,4.8l-1.4,0.2l-2,0.4c-1.5-0.1-8.2-0.7-9.8-0.1   c0,0-0.1,0-0.1,0.1c-1.4-0.2-8.4-1.7-9.3-6.5c-1-5.5,4.9-11.3,5-11.3c0.2-0.2,0.2-0.4,0.1-0.6c-0.1-0.2-0.4-0.3-0.6-0.3   c-0.1,0-8.9,2.1-9.4,11.8c-0.5,8.4,8.5,12,11,12.9c-1.7,0.4-4.1,1-4.8,1c-1,0-4.7,1.8-5.7,3.2c-0.3,0.4-0.4,0.8-0.3,1.1   c0.3,1,1.9,1.3,3.9,1.7c1.1,0.2,2.3,0.5,2.8,0.8C9,41.9,9.3,42,9.5,42c1.1,0,2.3-1.4,2.8-2c0.4-0.5,0.7-0.9,1-1.4   c0.1,0.9,0.3,1.9,0.5,2.7c0.3,1.4,0.5,2.7,0.5,3.2c-0.1,0.4-0.2,1-0.5,1.6c-0.5,1.5-1,3.1-0.6,4c0.9,1.8,2.6,2.7,5.2,2.7   c1.3,0,2.7-0.2,4.4-0.7c0.5,0.7,3.3,4.6,8.4,4.8c1.2,0,1.5,0.7,2.1,2.1c0.2,0.6,0.5,1.2,0.9,1.9c0.1,0.9,0.7,11.2,1.5,14.8   c0.7,3.4-1.1,6.2-1.1,6.2c-0.7,0.9-2.4,3.2-2,4.2c0.1,0.3,0.4,0.5,0.7,0.6c0.2,0,0.4,0.1,0.7,0.1c1,0,2.3-0.3,3.3-0.5   c0.4-0.1,0.9-0.2,1-0.2c0.2,0,0.4-0.1,0.5-0.2c0.3-0.4,0.4-1.4,0.3-2.3c0.3,0,0.5-0.1,0.8-0.3c0.4-0.3,0.7-0.8,0.6-1.4   c-0.3-2.3-0.5-5.9-0.5-6.6c0.2-0.5,0.8-2.4,1-3.2c0.2-0.8,0.2-4.6,0.2-6.3c0.2,0,0.3,0.1,0.4,0.1c0.3,1.2,0.5,2.5,0.7,3.9   c0,0.1,0,0.2,0.1,0.3c0.4,0.6,1.5,2.4,1.7,3.5c0.1,0.6,0.4,1.2,0.9,1.9c0.6,1,1.4,2.3,1.6,4.4c0.2,1.9,0.2,5.7-0.6,6.5   c-1.1,1.1-1.6,2.2-1.4,3.1c0,0.2,0.2,0.4,0.5,0.5c0.3,0.1,0.7,0.2,1.3,0.2c1.7,0,4.1-0.4,4.6-0.7c0.5-0.3,0.6-1.3,0.5-3   c0.4-0.1,1-0.3,1.4-0.8c0.3-0.4,0.4-0.8,0.3-1.3c-0.1-0.8-0.6-1.8-1.1-2.8c-0.4-0.8-0.8-1.6-0.9-2.1c-0.1-0.4-0.2-0.9-0.4-1.4   c-0.3-1-0.6-2.1-0.5-3.4c0-0.3,0.1-0.6,0.1-0.9c0.2-1.6,0.3-3.6,0.2-7.6c3.4,0.2,20.5,1.1,25.3-3.1l2.3-2l2,1.6c0,0,0.1,0,0.1,0.1   c0.1,3.2,0.2,7.5-0.2,9.9c-0.8,5.2-2.6,11.8-3.7,12.7c0,0,0,0,0,0c0,0,0,0,0,0c-1,0.9-2.8,2.9-2.6,4.2c0.1,0.4,0.4,0.8,0.8,0.9   c0.6,0.2,1.8,0.4,2.9,0.4c1.6,0,3.2-0.4,3.8-1.4c0.4-0.7,0.6-1.2,0.7-1.5c0.7-0.2,1.7-0.7,1.7-1.9c0-0.5-0.2-1-0.3-1.5   c-0.3-0.9-0.6-1.6,0.1-2.4c0.6-0.8,1.6-2.6,2.7-4.7c1.3-2.4,2.7-5.1,3.7-6.4c0.2-0.3,0.3-0.7,0.3-1c0.7,0.9,1.5,2.1,1.9,3.8   c0.7,2.9,0.1,8.1,0,9c-0.2,0.4-1.2,2-2.2,2.8c-0.5,0.5-0.3,0.9-0.3,1.1c0.3,0.5,1.3,0.6,2.3,0.6c1.2,0,2.5-0.2,2.7-0.3   c1.3-0.4,1.9-1.3,1.9-2.4v-0.5c0.3,0,0.6-0.1,0.8-0.4c0.2-0.2,0.3-0.5,0.2-0.8c-0.2-0.8-1.2-7.4-0.7-10.5   C97.1,70.8,97.4,69.8,97.6,69.1z M96,59.4c0,0-0.2,1-1,1.8c-0.4-1.1-0.8-2.3-1.1-3.9c0-1.1,0.6-3.3,0.8-4.1l0.5-2   c0.1-0.3,1.8-6.4,0.2-10.8l0.2-2.5c0.5,1.2,0.9,3.1,0.9,6.1c0,6.3-0.7,7.5-0.8,7.6c-0.1,0.1-0.2,0.3-0.1,0.4   C95.6,51.9,96.2,57,96,59.4z M93.1,50.6c0.6-2.4,1.1-4.5,1.4-6c0.1-0.6,0.3-1.2,0.4-1.8c0.5,3.8-0.7,8-0.7,8.1l-0.5,2   c0,0.1-0.2,0.6-0.3,1.1C93.2,52.9,93.1,51.8,93.1,50.6z M28.3,28.8l1.4-0.2c7.5-1.2,11.7-1.8,14.2-5.2c2.2-3-0.3-9.5-1.3-11.9   l0.2,0.1c0.9,0.7,1.6,1.4,2.2,2.3c4.4,6.3,2.4,11.7-0.7,14.4c-2.8,2.5-13.9,4.1-14.1,4.1L28,32.7c-0.7-1.2-1.1-2.7-1.3-3.6   L28.3,28.8z M3.1,21.2c0.3-6.2,4.2-8.9,6.7-10.1c-1.8,2.2-4.6,6.5-3.8,10.7c0.9,5.1,7.4,6.9,9.6,7.3c-0.5,0.9-1.4,2.5-2,4   C11.6,32.4,2.6,29.1,3.1,21.2z M13,37c0,0-0.7,1.2-1.6,2.3c-1.2,1.5-1.9,1.7-2.1,1.5c-0.7-0.4-1.9-0.7-3.1-0.9   c-1-0.2-2.9-0.6-3-0.9c0.1-0.8,4.1-3,5-3c0.9,0,3.6-0.7,4.8-1c0,0.1,0,0.3,0,0.4c0,0.1,0,0.2,0,0.3c0,0,0,0,0,0l-5.6,1.4   c-0.3,0.1-0.5,0.4-0.4,0.6c0.1,0.2,0.3,0.4,0.5,0.4c0,0,0.1,0,0.1,0l5.5-1.4C13,36.9,13,36.9,13,37C13,37,13,37,13,37z M14.1,49.7   c-0.3-0.5,0.3-2.1,0.6-3.2c0.2-0.7,0.4-1.3,0.5-1.8c0.1-0.6-0.1-1.7-0.5-3.5c-0.3-1.8-0.8-4-0.8-5.7c0-1.5,1.9-5,2.8-6.4   c1.2-0.3,5.3-0.1,8.8,0.2c0.3,1.5,1.1,4.5,2.9,5.8c0.6,0.4,1.3,0.6,2.1,0.5c0.4-0.1,1.9-0.3,3.7-0.7c1.9,0.3,3.5,1.1,4.4,1.5   c0.2,0.1,0.2,0.3,0.3,0.4c0,0.1,0,0.3-0.2,0.4c-0.6,0.4-1.2,1.1-1.9,1.8c-2.3,2.4-4.7,1.2-5.5,0.8l-0.1,0c-0.9-0.4-2.2-0.1-2.3,0   c-0.2,0-0.3,0.2-0.4,0.3c0,0.2-0.5,1.5-0.5,2c0,0.2-0.1,0.4-0.1,0.7c-0.9,1.8-3,5.6-3.1,5.6c0,0,0,0,0,0.1   c-0.5,1.3-1.3,2.1-2.3,2.6C18,52.3,15.2,51.8,14.1,49.7z M33.6,85.7c0-0.4,0.7-1.7,1.7-2.9c0.2,0,0.4,0,0.7,0c-0.4,0.7-1,2-1.1,2.9   C34.3,85.7,33.9,85.7,33.6,85.7z M38,85c-0.2,0-0.5,0.1-1,0.2c-0.3,0.1-0.7,0.2-1.2,0.2c0.2-0.7,0.7-1.8,1.1-2.5   c0.4,0.1,0.7,0.2,1,0.3C38.1,84,38.1,84.7,38,85z M40,71.8C39.8,72.7,39,75,39,75c0,0.1,0,0.1,0,0.2c0,0,0.2,4.2,0.5,6.7   c0,0.2-0.1,0.4-0.2,0.4c-0.1,0-0.2,0.1-0.4,0c-0.9-0.5-2.1-0.7-3-0.7c0.6-1.2,1.4-3.5,0.8-6.2c-0.6-2.8-1.1-9.9-1.4-13.1   c0.1,0.1,0.3,0.3,0.4,0.4c1.7,1.5,3.3,2.2,4.4,2.6C40.2,67.7,40.2,71.2,40,71.8z M45.6,89c0-0.5,0.3-1.2,1.1-2   c0.2-0.2,0.3-0.4,0.4-0.7c0.2,0,0.5,0,0.8,0c-0.4,0.8-0.9,2-0.9,2.7C46.3,89,45.8,89,45.6,89z M50.4,88.5C50,88.6,49,88.8,48,88.9   c0.1-0.6,0.6-1.8,1-2.6c0.5,0,1,0,1.4,0.1C50.5,87.3,50.5,88.2,50.4,88.5z M79.1,60.1l1.2-1c0,0.5,0.1,1.2,0.1,2L79.1,60.1z    M74.9,89.1c-0.1-0.5,0.9-2,2.1-3.1c0.3,0,0.7,0.1,1.2,0.2c-0.7,0.8-1.8,2.2-2.1,3.3c-0.4-0.1-0.8-0.1-1-0.3   C74.9,89.2,74.9,89.2,74.9,89.1z M77.2,89.6c0.3-0.8,1.4-2.2,2.2-3c0.7,0.2,1.3,0.5,1.7,0.9c-0.1,0.2-0.2,0.6-0.6,1.4   C80.1,89.4,78.6,89.7,77.2,89.6z M88.9,70.2c-1.1,1.4-2.5,4.1-3.8,6.6c-1,2-2,3.9-2.6,4.6c-1,1.3-0.6,2.5-0.2,3.5   c0.1,0.4,0.3,0.8,0.3,1.1c0,0.5-0.5,0.7-0.9,0.8c-1-1-2.9-1.4-4-1.6c1.5-2.6,2.9-9.3,3.4-12.6c0.7-4.4,0-14.2,0-14.6   c0-0.2-0.1-0.4-0.3-0.5c-0.2-0.1-0.4,0-0.5,0.1L75.2,62c-4.5,3.9-21.7,3-24.7,2.8c0-0.2,0-0.4,0-0.7c0,0,0-0.1,0-0.1   C50.3,63,50,61,50.5,60.2c0.7-1.3,2.4-6.5,2-8.6c-0.1-0.3-0.3-0.5-0.6-0.4c-0.3,0.1-0.5,0.3-0.4,0.6c0.3,1.8-1.2,6.8-1.9,7.9   c-0.8,1.3-0.2,4.1-0.1,4.6c0.3,5.2,0.1,7.3-0.1,9.2c0,0.3-0.1,0.6-0.1,0.9c-0.1,1.5,0.3,2.8,0.6,3.8c0.1,0.5,0.3,0.9,0.3,1.3   c0.1,0.7,0.5,1.5,1,2.4c0.4,0.9,0.9,1.8,1,2.5c0,0.2,0,0.4-0.1,0.5c-0.3,0.3-0.8,0.5-1.1,0.5c-0.8-0.2-2.5-0.1-3.5-0.1   c0.4-2.2,0.1-5.5,0.1-5.6c-0.2-2.3-1.1-3.8-1.8-4.8c-0.4-0.6-0.7-1.1-0.7-1.5c-0.2-1.3-1.4-3.3-1.8-3.8c-0.6-6-3.1-10-3.2-10.2   c-0.2-0.2-0.5-0.3-0.7-0.2c-0.2,0.2-0.3,0.5-0.2,0.7c0,0,1.2,1.8,2.1,4.8c-0.1,0-0.3-0.1-0.4-0.1c0,0,0,0,0,0c-1-0.3-2.7-1-4.4-2.5   c-1.3-1.1-1.8-2.3-2.2-3.4c-0.6-1.4-1.1-2.7-3-2.7c-4.3-0.1-6.9-3.4-7.5-4.2c0.8-0.5,1.6-1.4,2.2-2.8c0.2-0.4,2.2-4,3.1-5.7   c0,0,0-0.1,0-0.1c0.1-0.4,0.1-0.7,0.2-0.9c0-0.3,0.3-1.1,0.4-1.6c0.4-0.1,1-0.1,1.3,0l0.1,0c2.6,1.3,4.8,1,6.7-1   c0.7-0.7,1.3-1.3,1.8-1.7c0.4-0.3,0.6-0.8,0.6-1.3c-0.1-0.5-0.4-1-0.8-1.2c-1.3-0.6-2.9-1.3-4.8-1.6c-0.1,0-0.1,0-0.2,0   c-1.9,0.4-3.4,0.7-3.8,0.7c-0.4,0.1-0.9,0-1.2-0.3c-0.2-0.1-0.3-0.3-0.5-0.5l1.6-0.2c0.5-0.1,11.6-1.7,14.6-4.3   c0.7-0.6,1.4-1.4,2-2.5c2.5-0.1,5.3,0.6,7,1.3c1.6,0.6,3.5,1.3,4.7,1.8c2.5,1,12.1-0.5,14.7-1.6c2.2-0.9,3.2-0.5,5.2,0.3   c0.2,0.1,0.5,0.2,0.8,0.3c0.7,0.3,2.1,0.5,3.9,0.9c3.6,0.7,9.7,2,10.7,3.6c0.5,0.8,0.7,1.7,0.8,2.8l-0.4,4.3   c-0.2,1.2-0.5,2.6-0.9,4c-0.5,2-1.2,5.1-2,8.4c-1.4,5.8-2.8,11.8-3,13.2c-0.2,1.2,0.1,2.1,0.3,2.9C89,69.5,89.1,69.9,88.9,70.2z    M90.7,86c1-0.9,1.9-2.3,2.2-2.8c0.2-0.1,0.4-0.1,0.8-0.1l-1.3,3C91.7,86,91.1,86,90.7,86z M94.2,85.8c-0.1,0-0.4,0.1-0.7,0.1   l1.2-2.7c0.2,0.1,0.5,0.2,0.7,0.4v0.8C95.4,84.7,95.4,85.4,94.2,85.8z M96.6,68.8c-0.2,0.7-0.5,1.8-0.8,3.3   c-0.5,3.2,0.4,9.6,0.6,10.8c-0.1,0-0.2,0-0.3,0c-1.2-0.9-2.3-1-3-0.9c0.2-1.7,0.5-6-0.1-8.7c-0.8-3.2-3-5.2-3.4-5.5   c-0.1-0.6-0.2-1.2-0.1-1.8c0.2-1.2,1.5-6.8,2.7-12c0.1,1.2,0.3,2.4,0.5,3.4c0,0.1,0,0.2,0,0.3c0,0.1,0.1,0.2,0.1,0.2   c1,4.4,2.5,6.6,3.4,7.9c0.3,0.4,0.6,0.8,0.6,1C97,67.4,96.9,67.9,96.6,68.8z"/><path d="M19.8,45.9c-0.4,0.1-0.9,0.2-1.5,0.2c-0.6,0-1.2-0.1-1.6-0.3c-0.6-0.2-1.1-0.3-1.5,0c-0.2,0.2-0.4,0.4-0.4,0.7   c-0.1,0.6,0,1.4,0.4,2.4c0.2,0.6,0.7,1,1.3,1.2c1,0.2,1.8,0.3,2.4,0.3c0.6,0,1-0.1,1.3-0.1c0.6-0.1,1-0.5,1.3-1   c0,0,0.1-0.1,0.1-0.2c0,0,0.1-0.1,0.1-0.2c0.3-0.4,1-1.3,0.5-2.4C21.6,45.5,20.7,45.7,19.8,45.9z M20.8,48.3   c-0.1,0.1-0.1,0.2-0.2,0.2c0,0,0,0,0,0c-0.1,0.1-0.1,0.2-0.2,0.3c-0.1,0.2-0.3,0.4-0.5,0.4c-0.6,0.1-1.6,0.2-3.3-0.2   c-0.2-0.1-0.4-0.2-0.5-0.4c-0.3-0.8-0.4-1.5-0.3-1.9c0.1,0,0.4,0.1,0.6,0.1c0.5,0.1,1.1,0.3,1.9,0.3c0.7,0,1.2-0.1,1.7-0.2   c0.9-0.2,1-0.2,1.1,0.1C21.4,47.5,21.2,47.8,20.8,48.3z"/><ellipse transform="matrix(0.7703 -0.6377 0.6377 0.7703 -26.0824 23.6138)" cx="19.7" cy="48" rx="1" ry="0.5"/><ellipse transform="matrix(0.8887 -0.4585 0.4585 0.8887 -20.0721 12.9758)" cx="16.7" cy="47.8" rx="0.4" ry="0.9"/><path d="M16.4,37.5c0,0-0.6-2.4-1.9-0.8C14.5,36.7,15.1,39.1,16.4,37.5z"/><path d="M26.3,36.7c-1.9-1.6-2.6,0.8-2.6,0.8C25.5,39.1,26.3,36.7,26.3,36.7z"/><path d="M30.3,38c0.1,0,0.2,0,0.2-0.1c1.1-0.5,2.9-1.2,3.6-0.9c1.3,0.5,2.4,0.7,2.4,0.7c0.3,0,0.6-0.1,0.6-0.4   c0-0.3-0.1-0.6-0.4-0.6c0,0-1-0.2-2.2-0.7c-1.4-0.6-4.2,0.7-4.5,0.9c-0.3,0.1-0.4,0.4-0.2,0.7C30,37.9,30.1,38,30.3,38z"/></g></svg>