<svg xmlns="http://www.w3.org/2000/svg" xmlns:xlink="http://www.w3.org/1999/xlink" version="1.1" id="Layer_1" x="0px" y="0px" width="100px" height="100px" viewBox="0 0 100 100" enable-background="new 0 0 100 100" xml:space="preserve">
<path d="M51.5,2c-25.916,0-47,21.084-47,47s21.084,47,47,47s47-21.084,47-47S77.416,2,51.5,2z M17.5,49  c0-7.243,2.284-13.96,6.159-19.481l44.516,49.095C63.244,81.4,57.557,83,51.5,83C32.752,83,17.5,67.748,17.5,49z M78.072,70.176  L33.018,20.484C38.342,17.021,44.688,15,51.5,15c18.748,0,34,15.252,34,34C85.5,57.002,82.715,64.361,78.072,70.176z"/>
</svg>
