<svg fill="#000000" xmlns="http://www.w3.org/2000/svg" xmlns:xlink="http://www.w3.org/1999/xlink" version="1.1" x="0px" y="0px" viewBox="0 0 100 100" enable-background="new 0 0 100 100" xml:space="preserve"><g><path d="M73.411,29.347c0,0.96-0.778,1.739-1.738,1.739H28.328c-0.961,0-1.739-0.779-1.739-1.739l0,0   c0-0.961,0.778-1.74,1.739-1.74h43.345C72.633,27.607,73.411,28.386,73.411,29.347L73.411,29.347z"/></g><g><path d="M73.411,40.853c0,0.96-0.778,1.738-1.738,1.738H28.328c-0.961,0-1.739-0.778-1.739-1.738l0,0   c0-0.961,0.778-1.74,1.739-1.74h43.345C72.633,39.113,73.411,39.892,73.411,40.853L73.411,40.853z"/></g><g><path d="M73.411,52.356c0,0.962-0.778,1.74-1.738,1.74H28.328c-0.961,0-1.739-0.778-1.739-1.74l0,0c0-0.96,0.778-1.738,1.739-1.738   h43.345C72.633,50.618,73.411,51.396,73.411,52.356L73.411,52.356z"/></g><g><path d="M9.393,91.94c-0.564,0-1.098-0.3-1.389-0.801c-0.342-0.591-0.273-1.332,0.171-1.851c4.634-5.401,7.153-10.447,8.466-13.804   h-2.225c-5.426,0-9.839-4.413-9.839-9.837v-47.75c0-5.424,4.413-9.838,9.839-9.838h71.17c5.425,0,9.838,4.414,9.838,9.838v47.75   c0,5.424-4.413,9.837-9.838,9.837H36.893c-7.676,12.593-26.391,16.273-27.2,16.427C9.592,91.931,9.492,91.94,9.393,91.94z    M14.416,11.271c-3.654,0-6.628,2.973-6.628,6.627v47.75c0,3.654,2.974,6.626,6.628,6.626h4.5c0.512,0,0.994,0.245,1.296,0.659   c0.302,0.413,0.389,0.946,0.233,1.435c-1.037,3.254-3.03,7.939-6.816,13.186c6.005-1.882,16.363-6.19,20.938-14.451   c0.282-0.511,0.82-0.828,1.404-0.828h49.615c3.654,0,6.627-2.972,6.627-6.626v-47.75c0-3.654-2.973-6.627-6.627-6.627H14.416z"/></g></svg>