<svg xmlns="http://www.w3.org/2000/svg" xmlns:xlink="http://www.w3.org/1999/xlink" version="1.1" id="Layer_1" x="0px" y="0px" width="100px" height="100px" viewBox="0 0 100 100" enable-background="new 0 0 100 100" xml:space="preserve">
<path d="M71.785,38.471l-0.092,0.146c-0.058,0.1-0.113,0.201-0.167,0.303c-0.104,0.205-0.2,0.412-0.296,0.621  c-0.368,0.658-0.804,1.274-1.306,1.829c-0.504,0.552-1.063,1.053-1.673,1.479c-0.609,0.43-1.256,0.802-1.929,1.11l-0.26,0.118  l-0.251,0.107l-0.524,0.222l-0.524,0.222c-0.176,0.076-0.348,0.157-0.521,0.234c-0.344,0.158-0.693,0.311-1.035,0.476l-1.027,0.5  c-0.34,0.166-0.675,0.346-1.014,0.52c-0.169,0.089-0.34,0.173-0.506,0.264l-0.5,0.274c-0.671,0.358-1.328,0.744-1.988,1.123  c-0.531,0.32-1.068,0.641-1.592,0.967c0.01-0.018,0.021-0.034,0.028-0.052c0.235-0.494,0.464-0.997,0.624-1.529  c0.095-0.259,0.153-0.532,0.224-0.798c0.031-0.134,0.052-0.271,0.075-0.407l0.037-0.202l0.005-0.024l0.004-0.021l0.002-0.013  l0.004-0.049l0.01-0.098c0.031-0.254,0.048-0.533,0.059-0.799c0.002-0.131,0.005-0.262,0.005-0.391c0-0.13-0.003-0.258-0.005-0.384  c-0.015-0.507-0.048-0.992-0.081-1.45c-0.033-0.458-0.062-0.889-0.081-1.287c-0.014-0.397-0.019-0.763-0.002-1.086  c0.004-0.081,0.007-0.159,0.012-0.235c0.002-0.075,0.013-0.147,0.019-0.217c0.012-0.139,0.024-0.268,0.047-0.382  c0.018-0.115,0.034-0.217,0.049-0.308c0.021-0.087,0.036-0.163,0.05-0.222c0.03-0.123,0.044-0.188,0.044-0.188  s-0.021,0.065-0.058,0.183c-0.019,0.061-0.043,0.134-0.069,0.221c-0.023,0.087-0.047,0.19-0.076,0.304  c-0.03,0.113-0.053,0.241-0.076,0.381c-0.013,0.069-0.028,0.142-0.037,0.219c-0.01,0.075-0.021,0.154-0.032,0.234  c-0.042,0.325-0.067,0.694-0.085,1.097c-0.016,0.402-0.021,0.837-0.024,1.296c-0.003,0.458-0.01,0.94-0.034,1.434  c-0.01,0.122-0.017,0.248-0.027,0.372c-0.009,0.124-0.022,0.25-0.033,0.376c-0.032,0.246-0.062,0.488-0.119,0.75l-0.017,0.096  l-0.01,0.049l-0.002,0.013c0.002-0.018,0-0.002,0-0.003l-0.002,0.004l-0.007,0.024l-0.047,0.185  c-0.036,0.123-0.063,0.247-0.104,0.37c-0.086,0.241-0.157,0.485-0.265,0.722c-0.188,0.478-0.442,0.931-0.693,1.366  c-0.271,0.431-0.55,0.843-0.856,1.22c-0.075,0.092-0.146,0.187-0.225,0.277c-0.078,0.09-0.155,0.179-0.231,0.264  c-0.009,0.012-0.019,0.02-0.027,0.03l-0.238,0.173c-0.621,0.453-1.227,0.922-1.822,1.403c-1.188,0.961-2.335,1.962-3.476,2.95  l-0.437,0.381l-0.438,0.407c-0.141,0.14-0.283,0.277-0.421,0.422c-0.136,0.145-0.276,0.288-0.407,0.438  c-0.264,0.295-0.519,0.597-0.762,0.908c0.28-1.551,0.593-3.102,0.915-4.644c0.516-2.484,1.04-4.95,1.473-7.357  c0.054-0.3,0.105-0.601,0.16-0.899l0.039-0.223l0.038-0.226c0.026-0.147,0.049-0.295,0.075-0.441  c0.097-0.588,0.194-1.169,0.289-1.745s0.187-1.149,0.274-1.714c0.043-0.283,0.087-0.564,0.131-0.844  c0.041-0.279,0.082-0.559,0.122-0.835c0.058-0.402,0.111-0.799,0.163-1.193c0.088-0.057,0.231-0.149,0.424-0.274  c0.083-0.057,0.175-0.108,0.279-0.184c0.104-0.077,0.218-0.161,0.336-0.25c0.12-0.089,0.248-0.185,0.383-0.286  c0.127-0.105,0.254-0.217,0.389-0.334c0.067-0.058,0.138-0.117,0.208-0.178c0.069-0.062,0.142-0.121,0.209-0.19  c0.135-0.134,0.277-0.272,0.422-0.415c0.07-0.072,0.147-0.141,0.216-0.219c0.07-0.078,0.14-0.156,0.213-0.234  c0.14-0.16,0.287-0.316,0.428-0.485c0.137-0.171,0.275-0.346,0.42-0.522l0.104-0.132l0.098-0.139  c0.067-0.09,0.135-0.183,0.201-0.277c0.011-0.013,0.021-0.027,0.031-0.041c0.022-0.026,0.045-0.052,0.067-0.081  c0.061-0.056,0.122-0.118,0.188-0.181c0.066-0.062,0.13-0.133,0.208-0.194c0.074-0.065,0.153-0.131,0.233-0.198  c0.079-0.068,0.169-0.132,0.26-0.199c0.09-0.065,0.178-0.137,0.276-0.2c0.194-0.129,0.396-0.264,0.608-0.391  c0.212-0.131,0.435-0.251,0.655-0.377c0.445-0.243,0.894-0.486,1.315-0.713c0.209-0.117,0.413-0.228,0.604-0.34  c0.188-0.111,0.368-0.217,0.529-0.322c0.08-0.051,0.158-0.1,0.232-0.147c0.072-0.051,0.14-0.099,0.204-0.144  c0.126-0.09,0.238-0.168,0.323-0.241c0.174-0.139,0.275-0.218,0.275-0.218s-0.107,0.07-0.294,0.192  c-0.09,0.064-0.208,0.132-0.342,0.209c-0.066,0.038-0.138,0.08-0.215,0.123c-0.076,0.04-0.157,0.082-0.241,0.126  c-0.169,0.09-0.356,0.176-0.555,0.27c-0.196,0.094-0.407,0.185-0.624,0.281c-0.441,0.19-0.91,0.391-1.379,0.594  c-0.234,0.107-0.471,0.208-0.697,0.323c-0.23,0.107-0.451,0.229-0.667,0.345c-0.004,0.002-0.004,0.003-0.008,0.005  c0.162-0.274,0.322-0.547,0.465-0.826c0.223-0.394,0.412-0.798,0.604-1.183c0.091-0.193,0.176-0.387,0.264-0.575  c0.04-0.094,0.084-0.186,0.124-0.279c0.041-0.091,0.078-0.184,0.119-0.273c0.073-0.181,0.146-0.358,0.219-0.528  c0.072-0.17,0.135-0.338,0.195-0.496c0.062-0.161,0.122-0.312,0.178-0.458c0.054-0.146,0.104-0.284,0.15-0.415  c0.097-0.261,0.178-0.489,0.24-0.678c0.127-0.376,0.201-0.592,0.201-0.592s-0.096,0.208-0.262,0.568  c-0.078,0.182-0.184,0.398-0.305,0.648c-0.059,0.125-0.124,0.256-0.19,0.396c-0.072,0.138-0.145,0.284-0.222,0.436  c-0.079,0.15-0.156,0.31-0.242,0.47c-0.089,0.162-0.18,0.327-0.272,0.498c-0.046,0.085-0.094,0.171-0.141,0.258  c-0.052,0.086-0.103,0.174-0.153,0.261c-0.104,0.176-0.207,0.356-0.316,0.538c-0.228,0.356-0.449,0.731-0.704,1.093  c-0.241,0.371-0.516,0.727-0.779,1.085c-0.137,0.176-0.278,0.348-0.419,0.521c-0.069,0.085-0.135,0.174-0.209,0.255  c-0.072,0.083-0.145,0.164-0.219,0.248c-0.072,0.081-0.145,0.162-0.216,0.242l-0.107,0.122l-0.111,0.114  c-0.149,0.152-0.299,0.301-0.443,0.449c-0.146,0.146-0.301,0.276-0.445,0.411c-0.074,0.067-0.146,0.132-0.219,0.198  c-0.07,0.065-0.148,0.121-0.222,0.181c-0.146,0.117-0.286,0.23-0.426,0.341c-0.065,0.058-0.14,0.104-0.208,0.154  c-0.068,0.048-0.136,0.096-0.202,0.143c-0.136,0.093-0.263,0.184-0.383,0.265c-0.123,0.073-0.238,0.145-0.35,0.209  c-0.033,0.021-0.066,0.04-0.098,0.062c0.12-1.149,0.21-2.261,0.251-3.327c0.075-1.789,0.022-3.443-0.113-4.92  c0.004-0.09,0.008-0.193,0.01-0.303c0.004-0.23-0.002-0.51-0.014-0.823c-0.014-0.313-0.032-0.662-0.027-1.037  c0.002-0.374,0.032-0.775,0.131-1.181l0.02-0.077l0.001-0.01l0.005-0.016l0.015-0.04c0.018-0.053,0.036-0.106,0.055-0.161  c0.038-0.105,0.072-0.219,0.114-0.32c0.09-0.202,0.169-0.412,0.282-0.624c0.207-0.424,0.458-0.849,0.706-1.29  c0.062-0.11,0.125-0.22,0.188-0.33c0.062-0.112,0.123-0.226,0.185-0.338c0.064-0.113,0.123-0.229,0.178-0.345l0.087-0.176  l0.043-0.085l0.041-0.079l0.181-0.339c0.064-0.109,0.128-0.217,0.19-0.327c0.131-0.218,0.263-0.436,0.394-0.652  c0.132-0.214,0.256-0.435,0.381-0.65c0.115-0.221,0.234-0.437,0.33-0.663c0.024-0.056,0.049-0.111,0.074-0.166  c0.022-0.055,0.041-0.113,0.063-0.17c0.037-0.113,0.081-0.222,0.115-0.337c0.061-0.221,0.112-0.448,0.155-0.665  c0.085-0.435,0.137-0.85,0.172-1.235c0.032-0.385,0.044-0.737,0.042-1.051c-0.001-0.313-0.021-0.586-0.049-0.809  c-0.025-0.224-0.059-0.397-0.086-0.515c-0.029-0.117-0.045-0.179-0.045-0.179s0.013,0.063,0.038,0.18  c0.024,0.119,0.05,0.292,0.068,0.516s0.031,0.495,0.021,0.807c-0.007,0.311-0.03,0.662-0.076,1.042  c-0.047,0.38-0.114,0.791-0.211,1.218c-0.049,0.215-0.104,0.427-0.176,0.648c-0.032,0.106-0.081,0.214-0.121,0.321  c-0.023,0.055-0.043,0.109-0.066,0.163c-0.026,0.052-0.053,0.104-0.079,0.158c-0.1,0.216-0.223,0.423-0.344,0.636  c-0.129,0.21-0.26,0.42-0.398,0.632c-0.139,0.211-0.276,0.425-0.416,0.64c-0.067,0.11-0.138,0.219-0.207,0.329l-0.192,0.333  l-0.024,0.041l-0.011,0.021l-0.018,0.028l-0.044,0.083l-0.09,0.167c-0.06,0.111-0.117,0.223-0.184,0.331  c-0.065,0.109-0.13,0.218-0.192,0.327c-0.065,0.107-0.133,0.214-0.2,0.322c-0.263,0.431-0.53,0.852-0.76,1.286  c-0.121,0.209-0.22,0.438-0.323,0.655c-0.051,0.11-0.083,0.216-0.126,0.322c-0.02,0.053-0.038,0.105-0.061,0.158l-0.014,0.038  l-0.007,0.021l-0.003,0.004c-0.001,0.007,0.003-0.01-0.006,0.019l-0.003,0.01l-0.021,0.083c-0.045,0.165-0.081,0.328-0.108,0.487  c-0.009-0.053-0.018-0.109-0.026-0.162c-0.035-0.161-0.073-0.318-0.106-0.47c-0.067-0.307-0.135-0.599-0.198-0.876  c-0.284-1.101-0.534-1.954-0.742-2.525c-0.196-0.574-0.3-0.878-0.3-0.878s0.077,0.313,0.219,0.902  c0.155,0.583,0.327,1.456,0.507,2.562c0.037,0.279,0.077,0.573,0.117,0.88c0.021,0.155,0.043,0.311,0.061,0.473  c0.014,0.16,0.027,0.326,0.041,0.495c0.024,0.336,0.058,0.687,0.081,1.05c0.011,0.363,0.022,0.74,0.035,1.129  c0.019,1.558-0.07,3.31-0.322,5.205c-0.25,1.896-0.657,3.929-1.167,6.072c-0.063,0.267-0.127,0.536-0.194,0.808  s-0.136,0.545-0.203,0.819c-0.137,0.549-0.279,1.105-0.425,1.668c-0.147,0.563-0.294,1.134-0.445,1.708  c-0.037,0.145-0.074,0.288-0.113,0.433l-0.055,0.212l-0.06,0.216c-0.077,0.286-0.157,0.574-0.234,0.863  c-0.636,2.312-1.371,4.688-2.114,7.125c-0.14,0.464-0.282,0.931-0.423,1.401c-0.062-0.09-0.127-0.183-0.19-0.279  c-0.368-0.541-0.761-1.152-1.111-1.825c-0.174-0.34-0.338-0.695-0.477-1.065c-0.067-0.185-0.134-0.374-0.188-0.568  c-0.064-0.225-0.128-0.453-0.193-0.685c-0.265-0.931-0.543-1.891-0.788-2.884c-0.247-0.992-0.453-2.015-0.566-3.059  c-0.056-0.546-0.112-1.098-0.168-1.65c-0.055-0.551-0.105-1.104-0.153-1.658c-0.012-0.151-0.024-0.303-0.035-0.453l0.041,0.056  c0,0,0.107-0.094,0.294-0.256c0.096-0.082,0.209-0.18,0.341-0.293c0.131-0.115,0.278-0.241,0.442-0.385  c0.161-0.144,0.337-0.298,0.521-0.468c0.093-0.085,0.186-0.171,0.283-0.26c0.095-0.092,0.191-0.187,0.29-0.281  c0.099-0.094,0.195-0.196,0.293-0.297c0.097-0.103,0.197-0.203,0.293-0.312c0.191-0.216,0.388-0.434,0.566-0.667l0.135-0.171  l0.073-0.092l0.062-0.086c0.082-0.115,0.165-0.23,0.246-0.343c0.163-0.228,0.325-0.45,0.472-0.676  c0.15-0.223,0.295-0.44,0.431-0.644c0.129-0.209,0.249-0.408,0.362-0.591c0.056-0.091,0.108-0.179,0.159-0.262  c0.052-0.083,0.092-0.167,0.135-0.242c0.083-0.153,0.156-0.287,0.215-0.395c0.118-0.218,0.186-0.343,0.186-0.343  s-0.087,0.112-0.238,0.309c-0.077,0.097-0.17,0.216-0.276,0.353c-0.054,0.066-0.106,0.141-0.169,0.215  c-0.063,0.073-0.13,0.149-0.198,0.23c-0.14,0.16-0.29,0.333-0.447,0.518c-0.166,0.176-0.339,0.362-0.52,0.554  c-0.176,0.194-0.372,0.387-0.569,0.585c-0.098,0.099-0.2,0.199-0.299,0.298l-0.076,0.075l-0.07,0.064l-0.153,0.139  c-0.201,0.188-0.416,0.359-0.625,0.531c-0.105,0.085-0.215,0.164-0.321,0.244c-0.106,0.079-0.209,0.158-0.318,0.231  c-0.105,0.074-0.209,0.146-0.312,0.218c-0.105,0.069-0.208,0.136-0.308,0.201c-0.197,0.132-0.391,0.251-0.568,0.364  c-0.17,0.108-0.334,0.207-0.478,0.294c-0.022-0.423-0.043-0.845-0.057-1.263c-0.009-0.544-0.026-1.084-0.014-1.617  c0-0.134,0.002-0.267,0.003-0.399l0.001-0.213l-0.001-0.202c-0.001-0.267,0-0.521,0.006-0.781c0.019-1.032,0.101-2.025,0.247-2.961  c0.146-0.935,0.345-1.812,0.577-2.611c0.232-0.79,0.51-1.511,0.753-2.146c0.247-0.636,0.455-1.196,0.617-1.658  c0.042-0.116,0.08-0.226,0.117-0.328c0.039-0.102,0.076-0.196,0.109-0.285c0.069-0.178,0.127-0.328,0.174-0.451  c0.087-0.248,0.134-0.38,0.134-0.38s-0.057,0.127-0.164,0.367c-0.057,0.118-0.127,0.264-0.21,0.435  c-0.041,0.087-0.086,0.179-0.133,0.278c-0.046,0.1-0.093,0.205-0.144,0.317c-0.198,0.448-0.449,0.984-0.748,1.599  c-0.295,0.616-0.63,1.311-0.937,2.111c-0.302,0.791-0.58,1.671-0.808,2.622c-0.141,0.589-0.259,1.206-0.354,1.841  c-0.034-0.084-0.071-0.169-0.109-0.254c-0.134-0.307-0.286-0.624-0.45-0.946c-0.329-0.646-0.713-1.309-1.104-1.964  c-0.093-0.154-0.187-0.327-0.281-0.488c-0.099-0.164-0.198-0.332-0.302-0.491c-0.104-0.159-0.206-0.319-0.316-0.468  c-0.055-0.077-0.106-0.153-0.162-0.225c-0.055-0.074-0.111-0.146-0.167-0.217c-0.089-0.12-0.186-0.231-0.279-0.341  c-0.005-0.015-0.013-0.03-0.022-0.047c-0.025-0.042-0.043-0.102-0.069-0.165c-0.029-0.063-0.051-0.138-0.077-0.221  c-0.029-0.081-0.045-0.174-0.071-0.27c-0.021-0.098-0.042-0.2-0.058-0.309c-0.017-0.108-0.032-0.221-0.044-0.335  c-0.014-0.115-0.019-0.232-0.027-0.349c-0.012-0.235-0.015-0.473-0.009-0.695c0.003-0.221,0.013-0.428,0.022-0.605  c0.023-0.355,0.045-0.592,0.045-0.592s-0.039,0.234-0.087,0.588c-0.024,0.176-0.048,0.383-0.067,0.605  c-0.022,0.223-0.035,0.46-0.041,0.7c0,0.12-0.003,0.241,0.001,0.357c0.002,0.119,0.01,0.236,0.018,0.348  c0.009,0.114,0.024,0.222,0.038,0.326c0.014,0.072,0.025,0.14,0.037,0.205c-0.11-0.112-0.221-0.222-0.325-0.329  c-0.109-0.106-0.221-0.211-0.326-0.307c-0.21-0.191-0.404-0.366-0.57-0.526c-0.165-0.161-0.302-0.307-0.406-0.435  c-0.107-0.127-0.181-0.234-0.229-0.308c-0.047-0.076-0.072-0.116-0.072-0.116s0.021,0.042,0.062,0.122  c0.043,0.078,0.107,0.192,0.204,0.328c0.096,0.138,0.221,0.299,0.374,0.475c0.152,0.177,0.333,0.367,0.525,0.574  c0.098,0.106,0.196,0.212,0.295,0.33c0.098,0.117,0.199,0.238,0.303,0.361c0.1,0.127,0.2,0.259,0.302,0.396  c0.024,0.034,0.048,0.069,0.072,0.102c0.001,0.005,0.003,0.009,0.003,0.009l0.001-0.001c0.072,0.103,0.148,0.206,0.216,0.315  c0.046,0.075,0.095,0.149,0.144,0.224c0.048,0.075,0.091,0.154,0.137,0.23c0.095,0.155,0.18,0.317,0.266,0.479  c0.088,0.162,0.166,0.328,0.25,0.494c0.081,0.172,0.155,0.342,0.245,0.52c0.332,0.681,0.653,1.363,0.919,2.011  c0.134,0.324,0.251,0.641,0.355,0.939c0.054,0.151,0.098,0.299,0.144,0.44c0.04,0.142,0.082,0.28,0.118,0.413  c0.032,0.133,0.066,0.258,0.092,0.381c0.024,0.121,0.052,0.236,0.072,0.344c0.018,0.108,0.035,0.21,0.05,0.304  c0.014,0.092,0.022,0.174,0.032,0.249c0.004,0.038,0.008,0.073,0.013,0.106c0.004,0.032,0.006,0.07,0.009,0.101  c0.004,0.063,0.008,0.12,0.011,0.164c0.008,0.089,0.011,0.136,0.011,0.136l0.01,0c-0.004,0.041-0.008,0.083-0.012,0.125  c-0.056,0.545-0.083,1.098-0.118,1.655c-0.056,1.115-0.074,2.246-0.073,3.375c0.002,0.565,0.007,1.129,0.019,1.69  c0.008,0.438,0.017,0.876,0.026,1.313c-0.063-0.036-0.128-0.074-0.197-0.116c-0.121-0.079-0.257-0.157-0.395-0.256  c-0.281-0.187-0.586-0.421-0.911-0.688c-0.325-0.27-0.661-0.582-0.997-0.931c-0.336-0.35-0.671-0.738-0.979-1.162  c-0.074-0.106-0.154-0.213-0.223-0.325c-0.037-0.056-0.072-0.11-0.107-0.168l-0.008-0.01c0.002,0.002-0.006-0.011,0.002,0.002  l-0.004-0.005l-0.014-0.023l-0.026-0.046l-0.055-0.092c-0.142-0.245-0.296-0.496-0.426-0.743c-0.068-0.124-0.136-0.249-0.206-0.375  c-0.067-0.126-0.13-0.256-0.198-0.384c-0.065-0.13-0.133-0.258-0.195-0.39l-0.188-0.394c-0.249-0.528-0.474-1.067-0.69-1.602  c-0.103-0.269-0.205-0.537-0.302-0.802c-0.092-0.269-0.189-0.531-0.274-0.792c-0.172-0.523-0.328-1.033-0.465-1.52  c-0.136-0.487-0.254-0.953-0.359-1.382c-0.05-0.215-0.098-0.421-0.144-0.618c-0.042-0.198-0.081-0.384-0.119-0.561  c-0.076-0.352-0.13-0.661-0.181-0.916c-0.09-0.509-0.142-0.801-0.142-0.801s0.028,0.295,0.076,0.811  c0.029,0.256,0.056,0.571,0.104,0.929c0.023,0.178,0.048,0.369,0.072,0.571c0.03,0.2,0.061,0.411,0.093,0.631  c0.068,0.44,0.149,0.917,0.246,1.418c0.096,0.501,0.211,1.029,0.342,1.573c0.063,0.271,0.14,0.545,0.211,0.825  c0.077,0.278,0.157,0.558,0.24,0.841c0.173,0.562,0.358,1.131,0.568,1.694l0.159,0.422c0.053,0.141,0.112,0.277,0.168,0.417  c0.056,0.139,0.112,0.278,0.171,0.415c0.061,0.139,0.123,0.275,0.183,0.413c0.119,0.278,0.248,0.533,0.369,0.792l0.047,0.097  l0.023,0.048l0.012,0.023l0.01,0.019l0.007,0.013c0.035,0.067,0.07,0.133,0.104,0.199c0.069,0.135,0.146,0.259,0.221,0.386  c0.303,0.502,0.634,0.958,0.97,1.369c0.337,0.414,0.676,0.785,1.008,1.113c0.335,0.324,0.653,0.614,0.953,0.853  c0.147,0.125,0.295,0.228,0.427,0.33c0.136,0.098,0.264,0.185,0.379,0.264c0.123,0.079,0.236,0.15,0.333,0.209  c0.025,0.015,0.049,0.029,0.07,0.042c0.021,0.013,0.041,0.024,0.059,0.034c0.037,0.021,0.072,0.041,0.101,0.057  c0.09,0.052,0.149,0.084,0.173,0.097c0.062,0.647,0.148,1.279,0.248,1.891c0.173,1.062,0.379,2.072,0.564,3.01  c0.047,0.237,0.092,0.47,0.139,0.699c0.051,0.262,0.117,0.515,0.187,0.758c0.14,0.492,0.311,0.947,0.49,1.368  c0.36,0.846,0.752,1.564,1.105,2.182c0.354,0.615,0.671,1.129,0.928,1.549c0.197,0.324,0.363,0.596,0.489,0.805  c-0.24,0.879-0.47,1.768-0.686,2.66c-0.258,1.073-0.493,2.157-0.696,3.25c-0.013,0.003-0.026,0.005-0.041,0.007  c-0.08,0.015-0.174,0.021-0.285,0.021c-0.219-0.006-0.509-0.049-0.874-0.2c-0.364-0.149-0.793-0.398-1.265-0.741  c-0.476-0.341-0.985-0.771-1.578-1.245c-0.008-0.009,0.048,0.041,0.021,0.019l-0.006-0.007l-0.014-0.01l-0.026-0.021l-0.052-0.046  l-0.106-0.09c-0.07-0.059-0.141-0.119-0.212-0.181c-0.144-0.121-0.287-0.243-0.425-0.364c-0.14-0.122-0.281-0.246-0.424-0.37  c-0.141-0.131-0.282-0.26-0.426-0.391c-0.07-0.065-0.142-0.13-0.214-0.195c-0.07-0.068-0.14-0.136-0.21-0.201  c-0.14-0.137-0.281-0.275-0.423-0.415c-0.27-0.284-0.558-0.562-0.815-0.87l-0.2-0.225l-0.1-0.112l-0.095-0.116  c-0.126-0.159-0.252-0.315-0.378-0.474c-0.125-0.16-0.238-0.326-0.358-0.488l-0.179-0.251l-0.184-0.266  c-0.12-0.173-0.246-0.35-0.359-0.522c-0.114-0.171-0.229-0.344-0.34-0.515c-0.115-0.171-0.222-0.352-0.333-0.524  c-0.111-0.177-0.219-0.35-0.324-0.527c-0.428-0.706-0.814-1.418-1.181-2.115c-0.175-0.352-0.354-0.694-0.513-1.039  c-0.082-0.171-0.164-0.34-0.241-0.51c-0.076-0.168-0.149-0.336-0.224-0.5c-0.037-0.083-0.072-0.167-0.11-0.246  c-0.033-0.083-0.067-0.165-0.101-0.246c-0.068-0.163-0.134-0.323-0.2-0.48c-0.126-0.316-0.243-0.623-0.357-0.917  c-0.105-0.297-0.208-0.583-0.301-0.857c-0.089-0.274-0.174-0.535-0.253-0.78c-0.071-0.246-0.139-0.478-0.201-0.692  c-0.062-0.214-0.109-0.414-0.157-0.593c-0.098-0.358-0.154-0.644-0.198-0.837s-0.067-0.298-0.067-0.298s0.013,0.105,0.037,0.302  c0.026,0.198,0.054,0.488,0.115,0.857c0.029,0.183,0.058,0.386,0.097,0.607c0.042,0.221,0.086,0.46,0.134,0.714  c0.056,0.254,0.114,0.524,0.175,0.81c0.067,0.285,0.144,0.58,0.218,0.891c0.047,0.169,0.094,0.343,0.144,0.519  c-0.014,0.006-0.027,0.014-0.043,0.02c-0.027,0.011-0.058,0.025-0.094,0.039c-0.07,0.027-0.161,0.059-0.265,0.088  c-0.105,0.029-0.226,0.054-0.359,0.077c-0.133,0.018-0.279,0.036-0.432,0.042c-0.156,0.009-0.32,0.005-0.489-0.002  c-0.339-0.022-0.699-0.082-1.046-0.185c-0.174-0.052-0.346-0.112-0.509-0.189c-0.082-0.031-0.16-0.074-0.239-0.112  c-0.075-0.045-0.152-0.086-0.224-0.133c-0.146-0.088-0.274-0.191-0.396-0.291c-0.116-0.104-0.222-0.208-0.309-0.313  c-0.09-0.106-0.163-0.208-0.222-0.301c-0.029-0.049-0.057-0.092-0.081-0.133c-0.023-0.043-0.042-0.083-0.061-0.119  c-0.038-0.07-0.059-0.131-0.077-0.169c-0.016-0.041-0.026-0.062-0.026-0.062s0.008,0.022,0.024,0.062  c0.018,0.039,0.035,0.101,0.071,0.172c0.018,0.037,0.037,0.077,0.058,0.12c0.022,0.044,0.049,0.088,0.077,0.137  c0.057,0.096,0.127,0.202,0.213,0.311c0.087,0.108,0.189,0.216,0.305,0.327c0.119,0.106,0.247,0.214,0.392,0.309  c0.071,0.049,0.149,0.092,0.224,0.14c0.079,0.043,0.157,0.088,0.24,0.126c0.163,0.081,0.337,0.149,0.513,0.208  c0.351,0.12,0.717,0.189,1.064,0.223c0.174,0.014,0.342,0.022,0.502,0.018c0.161-0.002,0.312-0.014,0.452-0.032  c0.139-0.018,0.266-0.04,0.377-0.069c0.112-0.025,0.208-0.054,0.288-0.083c0.039-0.014,0.076-0.027,0.106-0.039  c0.005-0.002,0.01-0.004,0.017-0.009c0.024,0.093,0.049,0.178,0.075,0.271c0.05,0.165,0.103,0.333,0.154,0.505  c0.026,0.083,0.052,0.169,0.078,0.257c0.03,0.086,0.058,0.171,0.086,0.26c0.058,0.173,0.117,0.352,0.176,0.532  c0.061,0.178,0.129,0.356,0.192,0.539c0.128,0.366,0.274,0.732,0.419,1.109c0.3,0.744,0.624,1.513,0.992,2.274  c0.088,0.194,0.183,0.386,0.277,0.577c0.096,0.189,0.188,0.384,0.29,0.573c0.101,0.191,0.202,0.385,0.303,0.577  c0.102,0.191,0.206,0.373,0.309,0.559l0.151,0.271l0.166,0.287c0.112,0.189,0.218,0.384,0.337,0.57  c0.119,0.186,0.24,0.367,0.36,0.553l0.09,0.141l0.095,0.13c0.063,0.09,0.128,0.176,0.19,0.267c0.25,0.355,0.524,0.687,0.785,1.023  c0.135,0.16,0.272,0.319,0.406,0.479c0.068,0.081,0.134,0.157,0.203,0.237c0.067,0.076,0.137,0.152,0.204,0.229  c0.137,0.151,0.273,0.302,0.408,0.451c0.136,0.146,0.271,0.291,0.408,0.435c0.134,0.146,0.266,0.284,0.396,0.415  c0.065,0.067,0.13,0.135,0.194,0.202l0.096,0.103l0.047,0.047l0.024,0.025l0.011,0.011l0.006,0.006  c-0.022-0.02,0.037,0.034,0.033,0.032c0.5,0.486,0.997,1.001,1.513,1.456c0.515,0.458,1.056,0.863,1.622,1.168  c0.284,0.15,0.57,0.277,0.855,0.37c0.284,0.095,0.562,0.157,0.821,0.193c0.056,0.007,0.11,0.014,0.165,0.019  c-0.093,0.679-0.173,1.354-0.237,2.035c-0.02,0.163-0.031,0.334-0.042,0.505c-0.013,0.17-0.024,0.341-0.034,0.512  c-0.024,0.341-0.046,0.681-0.068,1.021c-0.007,0.087-0.007,0.162-0.01,0.243l-0.008,0.235c-0.005,0.156-0.008,0.312-0.013,0.47  c-0.009,0.314-0.019,0.626-0.027,0.936c-0.001,0.337-0.003,0.67-0.004,1.001c-0.001,0.32,0.006,0.643,0.008,0.963  c0.001,0.32,0.016,0.645,0.025,0.963c0.007,0.32,0.027,0.643,0.043,0.965c0.071,1.282,0.202,2.565,0.411,3.825  s0.498,2.497,0.854,3.677c0.095,0.295,0.188,0.586,0.282,0.875c0.097,0.288,0.203,0.57,0.304,0.852  c0.099,0.284,0.215,0.555,0.323,0.827c0.056,0.138,0.11,0.271,0.164,0.406c0.058,0.138,0.122,0.274,0.182,0.412  c0.061,0.136,0.122,0.273,0.183,0.408c0.06,0.131,0.124,0.282,0.177,0.388c0.111,0.232,0.22,0.462,0.33,0.688l0.093,0.191  l0.067,0.149c0.045,0.099,0.09,0.198,0.135,0.295c0.093,0.196,0.174,0.395,0.255,0.591c0.325,0.782,0.6,1.548,0.816,2.298  c0.218,0.743,0.398,1.458,0.532,2.141c0.277,1.361,0.409,2.569,0.471,3.568c0.011,0.248,0.024,0.482,0.036,0.706  c0.004,0.223,0.009,0.431,0.015,0.625c0.005,0.2,0.001,0.362,0,0.516c-0.001,0.152-0.003,0.291-0.003,0.416  C46.532,99.68,46.521,100,46.521,100l7.482-0.105c0,0-0.02-0.325-0.057-0.934c-0.015-0.179-0.03-0.377-0.048-0.596  c-0.017-0.216-0.034-0.46-0.065-0.696c-0.028-0.246-0.056-0.507-0.091-0.787c-0.038-0.276-0.081-0.572-0.126-0.883  c-0.192-1.25-0.498-2.753-1.006-4.438c-0.248-0.844-0.558-1.729-0.924-2.648c-0.362-0.921-0.801-1.867-1.31-2.83  c-0.126-0.241-0.252-0.484-0.396-0.727c-0.068-0.12-0.138-0.24-0.208-0.362l-0.105-0.186c0,0.006-0.022-0.038-0.001,0l-0.012-0.017  l-0.024-0.043l-0.047-0.079c-0.129-0.219-0.259-0.438-0.391-0.658c-0.072-0.115-0.116-0.2-0.171-0.301  c-0.055-0.097-0.108-0.192-0.163-0.289c-0.054-0.099-0.109-0.197-0.164-0.295c-0.055-0.105-0.108-0.209-0.163-0.316  c-0.106-0.21-0.223-0.422-0.32-0.641c-0.101-0.217-0.21-0.436-0.308-0.659c-0.096-0.22-0.19-0.448-0.287-0.676  c-0.37-0.913-0.692-1.878-0.957-2.896c-0.267-1.019-0.477-2.094-0.644-3.217c-0.041-0.284-0.085-0.563-0.118-0.852  c-0.033-0.291-0.074-0.575-0.101-0.87c-0.03-0.293-0.063-0.586-0.089-0.885c-0.013-0.148-0.026-0.297-0.039-0.445l-0.019-0.226  l-0.012-0.113l-0.004-0.057l-0.002-0.027c-0.001-0.044,0,0.027-0.001,0.008c-0.02-0.31-0.039-0.619-0.057-0.934  c-0.003-0.05-0.006-0.101-0.01-0.153c0.124,0,0.252,0,0.391,0c0.194,0,0.4-0.011,0.617-0.019c0.216-0.006,0.443-0.028,0.681-0.042  c0.237-0.02,0.481-0.047,0.736-0.074c0.127-0.019,0.253-0.034,0.386-0.055c0.129-0.016,0.262-0.036,0.395-0.059  c0.134-0.024,0.269-0.047,0.406-0.072c0.138-0.024,0.272-0.054,0.413-0.083c0.277-0.052,0.557-0.128,0.843-0.193  c0.568-0.151,1.149-0.324,1.726-0.532c0.576-0.21,1.153-0.442,1.714-0.704c0.559-0.264,1.11-0.546,1.637-0.847  c0.523-0.305,1.03-0.62,1.501-0.944c0.473-0.329,0.922-0.657,1.33-0.986c0.413-0.324,0.786-0.648,1.126-0.953  c0.168-0.153,0.328-0.303,0.479-0.444c0.15-0.144,0.289-0.281,0.421-0.41c0.131-0.133,0.252-0.257,0.364-0.371  c0.11-0.113,0.208-0.224,0.3-0.32c0.181-0.191,0.315-0.352,0.411-0.455c0.092-0.107,0.144-0.163,0.144-0.163  s-0.057,0.05-0.162,0.146c-0.104,0.095-0.254,0.237-0.455,0.41c-0.099,0.086-0.208,0.184-0.33,0.287  c-0.123,0.099-0.255,0.209-0.396,0.326c-0.143,0.112-0.297,0.234-0.458,0.36c-0.165,0.125-0.336,0.253-0.518,0.388  c-0.365,0.262-0.765,0.542-1.199,0.816c-0.432,0.279-0.9,0.553-1.39,0.818c-0.491,0.267-1.011,0.519-1.542,0.758  c-0.534,0.237-1.086,0.448-1.643,0.643c-0.559,0.189-1.123,0.352-1.683,0.491c-0.56,0.138-1.116,0.239-1.654,0.324  c-0.273,0.033-0.537,0.077-0.798,0.097c-0.13,0.015-0.257,0.027-0.386,0.039c-0.127,0.007-0.252,0.016-0.376,0.024  c-0.123,0.01-0.247,0.012-0.367,0.016c-0.12,0.005-0.238,0.009-0.356,0.012c-0.232,0-0.457,0-0.672-0.003  c-0.216-0.011-0.422-0.013-0.62-0.026c-0.195-0.016-0.38-0.024-0.555-0.041c-0.173-0.021-0.336-0.036-0.486-0.054  c-0.015-0.003-0.028-0.003-0.042-0.005c-0.004-0.063-0.004-0.126-0.006-0.191c-0.003-0.144-0.008-0.291-0.003-0.441  c0.005-1.637,0.112-3.301,0.292-4.975c0.047-0.12,0.097-0.242,0.148-0.362c0.146-0.335,0.293-0.668,0.451-0.996  c0.311-0.655,0.652-1.294,1.027-1.907c0.096-0.154,0.193-0.311,0.292-0.464c0.052-0.04,0.117-0.088,0.191-0.144  c0.079-0.063,0.165-0.12,0.263-0.192c0.191-0.14,0.441-0.309,0.73-0.492c0.29-0.184,0.622-0.388,0.996-0.59  c0.369-0.211,0.782-0.419,1.224-0.634c0.442-0.207,0.918-0.416,1.415-0.62c0.5-0.2,1.021-0.394,1.556-0.579  c0.271-0.087,0.539-0.178,0.815-0.264L55.1,55.35l0.208-0.069l0.414-0.135c0.548-0.177,1.103-0.344,1.651-0.48  c0.549-0.138,1.092-0.262,1.627-0.344c0.265-0.049,0.528-0.08,0.786-0.114c0.128-0.019,0.258-0.029,0.386-0.043  c0.129-0.011,0.253-0.024,0.377-0.036c0.497-0.036,0.972-0.069,1.408-0.102c0.437-0.036,0.838-0.076,1.192-0.124  c0.353-0.049,0.659-0.107,0.908-0.169c0.123-0.029,0.236-0.057,0.331-0.086c0.096-0.026,0.177-0.049,0.241-0.071  c0.128-0.043,0.199-0.068,0.199-0.068s-0.072,0.019-0.204,0.053c-0.066,0.018-0.146,0.036-0.246,0.054  c-0.096,0.021-0.208,0.041-0.333,0.061c-0.253,0.038-0.559,0.075-0.91,0.095c-0.354,0.022-0.752,0.031-1.188,0.031  c-0.438,0-0.912-0.002-1.413-0.004c-0.128,0.002-0.255,0.004-0.386,0.007c-0.126,0.004-0.258,0.006-0.394,0.016  c-0.112,0.005-0.228,0.011-0.344,0.016c0.094-0.045,0.185-0.097,0.276-0.15c0.116-0.065,0.227-0.143,0.337-0.219l0.021-0.017  l0.01-0.007l0.005-0.004l0.009-0.007l0.037-0.031l0.079-0.062l0.151-0.121c0.205-0.165,0.409-0.327,0.61-0.489  c0.192-0.174,0.384-0.343,0.567-0.51c0.092-0.08,0.181-0.163,0.269-0.241c0.085-0.083,0.165-0.167,0.246-0.246  c0.159-0.162,0.308-0.313,0.447-0.453c0.142-0.135,0.256-0.273,0.362-0.395c0.105-0.119,0.196-0.223,0.273-0.308  c0.151-0.171,0.238-0.268,0.238-0.268s-0.095,0.09-0.256,0.252c-0.081,0.078-0.18,0.178-0.292,0.289  c-0.116,0.113-0.237,0.243-0.388,0.37c-0.146,0.131-0.305,0.271-0.474,0.419c-0.083,0.074-0.169,0.151-0.257,0.226  c-0.093,0.072-0.188,0.147-0.284,0.224c-0.19,0.151-0.388,0.304-0.588,0.461c-0.211,0.149-0.426,0.299-0.641,0.447l-0.161,0.113  l-0.081,0.056l-0.039,0.027l-0.011,0.006l-0.004,0.006l-0.004,0.002c0.01-0.008,0.002-0.002,0.004-0.002l-0.021,0.011  c-0.107,0.063-0.215,0.129-0.326,0.183c-0.221,0.112-0.444,0.207-0.672,0.279c-0.451,0.151-0.895,0.239-1.277,0.322  c-0.193,0.046-0.373,0.086-0.528,0.126c-0.035,0.009-0.068,0.019-0.1,0.027c-0.475,0.089-0.95,0.194-1.427,0.305l-0.427,0.106  l-0.209,0.051l-0.208,0.05c-0.286,0.065-0.568,0.14-0.852,0.212c-0.562,0.146-1.112,0.31-1.642,0.478  c-0.529,0.173-1.037,0.354-1.515,0.539c-0.247,0.1-0.487,0.196-0.716,0.298l0.147-0.146c0.722-0.698,1.438-1.394,2.158-2.078  c0.059-0.039,0.118-0.081,0.189-0.138c0.2-0.151,0.448-0.333,0.703-0.557c0.063-0.055,0.131-0.113,0.199-0.17  c0.069-0.06,0.135-0.125,0.207-0.188c0.139-0.131,0.29-0.263,0.433-0.412c0.198-0.197,0.398-0.411,0.603-0.637  c0.153-0.131,0.31-0.262,0.468-0.39l0.434-0.35l0.438-0.342l0.222-0.165l0.111-0.085l0.048-0.035l0.058-0.042l0.464-0.327  c0.613-0.441,1.233-0.858,1.852-1.282c0.63-0.408,1.255-0.825,1.896-1.217l0.478-0.298c0.158-0.099,0.321-0.191,0.483-0.288  c0.325-0.19,0.646-0.385,0.972-0.57l0.983-0.549c0.331-0.181,0.665-0.351,0.998-0.527c0.168-0.087,0.332-0.176,0.5-0.261  l0.507-0.249l0.505-0.248l0.264-0.129l0.25-0.135c0.681-0.358,1.327-0.78,1.928-1.257c0.603-0.475,1.145-1.021,1.63-1.612  c0.479-0.595,0.885-1.245,1.215-1.928l0.002-0.002l0,0c0.085-0.213,0.169-0.427,0.263-0.636c0.048-0.105,0.096-0.208,0.148-0.311  l0.08-0.152l0.09-0.148L71.785,38.471z"/>
<g>
	<path d="M42.094,80.038c0,0-0.388-0.084-1.114-0.243c-0.729-0.166-1.75-0.331-3.298-0.882c-0.744-0.248-1.596-0.494-2.398-0.896   c-0.414-0.188-0.844-0.383-1.291-0.585c-0.223-0.103-0.449-0.207-0.679-0.312c-0.219-0.128-0.442-0.257-0.669-0.389   c-0.895-0.543-1.896-1.042-2.815-1.773c-0.472-0.345-0.956-0.699-1.451-1.062c-0.476-0.386-0.931-0.819-1.41-1.241   c-0.989-0.815-1.842-1.843-2.776-2.847c-0.457-0.511-0.847-1.093-1.281-1.65c-0.432-0.56-0.859-1.135-1.219-1.768   c-1.617-2.416-2.828-5.254-3.741-8.25c-0.934-3.001-1.329-6.251-1.307-9.514c-0.034-1.639,0.191-3.271,0.381-4.907l0.028-0.217   l0.031-0.145l0.062-0.29l0.125-0.581l0.127-0.583l0.187-0.627c0.129-0.414,0.247-0.842,0.388-1.24l0.452-1.163   c1.242-3.081,2.965-5.844,4.754-8.459c1.808-2.606,3.746-5.034,5.694-7.309c3.906-4.544,7.843-8.492,11.296-11.782   c3.46-3.283,6.44-5.909,8.553-7.714c2.111-1.807,3.351-2.798,3.351-2.798s-1.19,1.051-3.208,2.958   c-2.019,1.905-4.862,4.67-8.145,8.107c-3.274,3.442-6.993,7.561-10.622,12.229c-1.809,2.336-3.593,4.812-5.22,7.425   c-1.608,2.614-3.126,5.359-4.116,8.229l-0.358,1.075c-0.106,0.354-0.179,0.697-0.272,1.044c-0.192,0.614-0.306,1.587-0.398,2.203   c-0.095,1.513-0.234,3.012-0.125,4.502c0.128,2.969,0.625,5.879,1.598,8.52c0.952,2.637,2.141,5.099,3.672,7.146   c0.339,0.542,0.741,1.025,1.144,1.495c0.405,0.467,0.764,0.961,1.185,1.384c0.861,0.828,1.632,1.688,2.524,2.342   c0.432,0.342,0.837,0.698,1.261,1.009c0.439,0.288,0.869,0.569,1.287,0.844c0.809,0.591,1.688,0.96,2.464,1.387   c0.196,0.104,0.389,0.204,0.579,0.304c0.2,0.079,0.396,0.156,0.588,0.231c0.384,0.152,0.755,0.298,1.111,0.438   c0.712,0.32,1.357,0.452,1.936,0.621c0.289,0.082,0.562,0.16,0.819,0.233c0.128,0.037,0.252,0.073,0.373,0.108   c0.143,0.023,0.281,0.047,0.414,0.069c0.532,0.09,0.984,0.165,1.351,0.227c0.733,0.123,1.125,0.189,1.125,0.189L42.094,80.038z"/>
</g>
<g>
	<path d="M52.075,0.81c0,0,3.96,5.067,9.223,13.165c2.615,4.057,5.56,8.871,8.331,14.265c1.381,2.699,2.717,5.544,3.879,8.536   c1.155,2.992,2.156,6.132,2.69,9.444c0.209,1.667,0.404,3.361,0.215,5.109l-0.021,0.326l-0.005,0.081l-0.003,0.041l-0.017,0.103   l-0.024,0.147l-0.096,0.592l-0.191,1.18c-0.067,0.395-0.119,0.782-0.2,1.181l-0.318,1.229c-0.374,1.671-0.984,3.188-1.55,4.718   c-0.701,1.469-1.354,2.949-2.228,4.28c-1.648,2.713-3.627,5.13-5.832,7.071c-0.533,0.507-1.072,0.992-1.656,1.407   c-0.571,0.432-1.134,0.857-1.688,1.275c-0.591,0.366-1.172,0.727-1.741,1.08c-0.288,0.173-0.565,0.357-0.855,0.516   c-0.296,0.146-0.589,0.29-0.879,0.433c-0.582,0.284-1.151,0.563-1.709,0.835c-0.581,0.219-1.149,0.432-1.703,0.64   c-1.098,0.456-2.2,0.696-3.226,0.968c-1.018,0.309-2.015,0.38-2.921,0.538c-0.907,0.171-1.753,0.188-2.518,0.221   c-1.53,0.12-2.729,0.004-3.549-0.047c-0.82-0.053-1.257-0.081-1.257-0.081l0.686-4.953c0,0,0.363,0.039,1.042,0.113   c0.681,0.074,1.679,0.229,2.962,0.185c0.641,0.004,1.354,0.032,2.121-0.081c0.766-0.102,1.615-0.104,2.485-0.333   c0.876-0.19,1.827-0.337,2.778-0.688c0.482-0.153,0.978-0.311,1.484-0.471c0.489-0.212,0.989-0.429,1.501-0.649   c0.256-0.11,0.516-0.221,0.777-0.333c0.257-0.124,0.502-0.274,0.758-0.412c0.511-0.281,1.03-0.568,1.559-0.859   c0.5-0.342,1.008-0.689,1.523-1.043c0.531-0.334,1.021-0.738,1.51-1.161c2.024-1.607,3.879-3.663,5.471-6.016   c0.845-1.15,1.486-2.452,2.19-3.744c0.571-1.354,1.202-2.723,1.586-4.13l0.34-1.054c0.096-0.374,0.169-0.773,0.255-1.159   l0.249-1.17l0.124-0.586l0.031-0.146c-0.002,0.018,0.017-0.089-0.003,0.029l0.004-0.034l0.007-0.068l0.029-0.271   c0.236-1.434,0.138-2.968,0.023-4.487c-0.341-3.057-1.144-6.121-2.123-9.073c-0.986-2.956-2.16-5.814-3.393-8.54   c-2.473-5.451-5.165-10.38-7.571-14.542C55.786,6.068,52.075,0.81,52.075,0.81z"/>
</g>
</svg>
