<svg fill="#000000" xmlns:dc="http://purl.org/dc/elements/1.1/" xmlns:cc="http://creativecommons.org/ns#" xmlns:rdf="http://www.w3.org/1999/02/22-rdf-syntax-ns#" xmlns:svg="http://www.w3.org/2000/svg" xmlns="http://www.w3.org/2000/svg" xmlns:sodipodi="http://sodipodi.sourceforge.net/DTD/sodipodi-0.dtd" xmlns:inkscape="http://www.inkscape.org/namespaces/inkscape" version="1.1" x="0px" y="0px" viewBox="0 0 100 100"><g transform="translate(0,-952.36218)"><path style="text-indent:0;text-transform:none;direction:ltr;block-progression:tb;baseline-shift:baseline;color:#000000;enable-background:accumulate;" d="m 18,957.36219 a 3.0003,3.0003 0 0 0 -2.625,1.59375 l -13,24 A 3.0003,3.0003 0 0 0 2,984.36219 l 0,5 c 0,4.81453 2.87981,8.99982 7,10.90621 l 0,44.0938 a 3.0003,3.0003 0 0 0 3,3 l 11.78125,0 20.53125,0 43.6875,0 a 3.0003,3.0003 0 0 0 3,-3 l 0,-44.0938 c 4.12019,-1.90639 7,-6.09168 7,-10.90621 l 0,-5 a 3.0003,3.0003 0 0 0 -0.375,-1.40625 l -13,-24 A 3.0003,3.0003 0 0 0 82,957.36219 l -64,0 z m 1.78125,6 60.4375,0 9.75,18 -79.9375,0 9.75,-18 z m -11.78125,24 12,0 0,2 c 0,3.37589 -2.62411,6 -6,6 -3.37589,0 -6,-2.62411 -6,-6 l 0,-2 z m 18,0 12,0 0,2 c 0,3.37589 -2.62411,6 -6,6 -3.37589,0 -6,-2.62411 -6,-6 l 0,-2 z m 18,0 12,0 0,2 c 0,3.37589 -2.62411,6 -6,6 -3.37589,0 -6,-2.62411 -6,-6 l 0,-2 z m 18,0 12,0 0,2 c 0,3.37589 -2.62411,6 -6,6 -3.37589,0 -6,-2.62411 -6,-6 l 0,-2 z m 18,0 12,0 0,2 c 0,3.37589 -2.62411,6 -6,6 -3.37589,0 -6,-2.62411 -6,-6 l 0,-2 z m -57,9.90625 c 2.20418,2.50796 5.42194,4.09376 9,4.09376 3.57806,0 6.79582,-1.5858 9,-4.09376 2.20418,2.50796 5.42194,4.09376 9,4.09376 3.57806,0 6.79582,-1.5858 9,-4.09376 2.20418,2.50796 5.42194,4.09376 9,4.09376 3.57806,0 6.79582,-1.5858 9,-4.09376 1.99568,2.27073 4.82593,3.76436 8,4.03126 l 0,40.0625 -38,0 0,-29 a 3.0003,3.0003 0 0 0 -3,-3 l -20,0 a 3.0003,3.0003 0 0 0 -3,3 l 0,29 -6,0 0,-40.0625 c 3.17407,-0.2669 6.00432,-1.76053 8,-4.03126 z m 31,12.09376 a 3.0003,3.0003 0 0 0 -3,3 l 0,14 a 3.0003,3.0003 0 0 0 3,3 l 22,0 a 3.0003,3.0003 0 0 0 3,-3 l 0,-14 a 3.0003,3.0003 0 0 0 -3,-3 l -22,0 z m -27,6 14,0 0,26 -14,0 0,-26 z m 30,0 16,0 0,8 -16,0 0,-8 z" fill="#000000" fill-opacity="1" stroke="none" marker="none" visibility="visible" display="inline" overflow="visible"/></g></svg>