<svg fill="#000000" xmlns="http://www.w3.org/2000/svg" xmlns:xlink="http://www.w3.org/1999/xlink" version="1.1" x="0px" y="0px" viewBox="0 0 100 100" enable-background="new 0 0 100 100" xml:space="preserve"><g><path d="M62.255,41.78H42.9V21.437h19.355V41.78z M45.569,39.11h14.017V24.106H45.569V39.11z"/></g><g><path d="M84.445,98.374H20.708V70.177c0-14.926,10.163-27.685,24.705-31.033l0.302-0.034l14.026,0.034   c14.547,3.348,24.704,16.107,24.704,31.033V98.374z M23.378,95.704h58.398V70.177c0-13.623-9.239-25.279-22.488-28.397H45.867   c-13.249,3.118-22.488,14.774-22.488,28.397V95.704z"/></g><g><path d="M76.959,77.322h-2.671v-7.097c0-9.359-5.97-17.632-14.859-20.585l0.839-2.535c9.985,3.317,16.691,12.608,16.691,23.12   V77.322z"/></g><g><rect x="74.288" y="81.658" width="2.671" height="4.505"/></g><g><path d="M58.308,24.106H46.075v-9.461h12.232V24.106z M48.745,21.437h6.894v-4.122h-6.894V21.437z"/></g><g><path d="M45.569,31.591H31.393v-8.038h14.177V31.591z M34.062,28.922H42.9v-2.698h-8.838V28.922z"/></g><g><path d="M30.094,44.233H19.416V32.147l2.007,1.17c2.117,1.23,4.547,1.23,6.664,0l2.007-1.17V44.233z M22.085,41.563h5.339v-5.052   c-1.731,0.537-3.608,0.537-5.339,0V41.563z"/></g><g><rect x="23.42" y="6.798" width="2.669" height="12.764"/></g><g><path d="M24.755,36.915c-5.151,0-9.344-4.192-9.344-9.344s4.193-9.344,9.344-9.344s9.343,4.192,9.343,9.344   S29.906,36.915,24.755,36.915z M24.755,20.897c-3.681,0-6.674,2.993-6.674,6.674c0,3.681,2.993,6.674,6.674,6.674   c3.681,0,6.674-2.993,6.674-6.674C31.429,23.891,28.436,20.897,24.755,20.897z"/></g><g><path d="M19.233,23.163V7.148c0-3.045,2.477-5.522,5.522-5.522c3.04,0,5.516,2.477,5.516,5.522v16.01l-2.034-1.251   c-2.164-1.33-4.813-1.327-6.971,0.003L19.233,23.163z M24.755,4.295c-1.575,0-2.853,1.28-2.853,2.853v11.541   c1.852-0.61,3.854-0.607,5.699-0.002V7.148C27.602,5.576,26.324,4.295,24.755,4.295z"/></g><g><path d="M67.094,38.779c-1.961,0-3.557-1.596-3.557-3.559v-9.678c0-1.963,1.596-3.558,3.557-3.558c1.966,0,3.562,1.595,3.562,3.558   v9.678C70.655,37.184,69.06,38.779,67.094,38.779z M67.094,24.654c-0.491,0-0.887,0.399-0.887,0.889v9.678   c0,0.49,0.396,0.889,0.887,0.889c0.495,0,0.892-0.399,0.892-0.889v-9.678C67.985,25.053,67.589,24.654,67.094,24.654z"/></g><g><path d="M66.207,34.219h-6.621v-8.342h6.621V34.219z M62.255,31.55h1.282v-3.003h-1.282V31.55z"/></g></svg>