<svg xmlns="http://www.w3.org/2000/svg" xmlns:xlink="http://www.w3.org/1999/xlink" version="1.1" x="0px" y="0px" width="100px" height="100px" viewBox="0 0 100 100" enable-background="new 0 0 100 100" xml:space="preserve">
<g id="Captions">
</g>
<g id="Your_Icon">
	<polygon points="23.694,98.037 23.694,97.037 23.694,97.037  "/>
	<path d="M93.8,27.927c-3.761-3.873-9.481-4.133-10.189-4.151c-5.391-0.701-11.216-3.357-11.274-3.384l-0.2-0.067   C62.243,18.119,51.903,17,41.403,17c-17.885,0-30.239,3.302-30.374,3.339c-4.47,1.277-6.324,3.738-6.4,3.842l-0.073,0.114   c-1.671,3.065-2.099,5.083-1.346,6.352c0.254,0.428,0.89,1.146,2.294,1.146c0.908,0,1.741-0.296,1.833-0.33l0.141-0.065   c0.288-0.16,0.542-0.241,0.758-0.241c1.007,0,1.685,2.14,1.84,3.116l0.025,0.162l0.075,0.144   c1.169,2.254,4.447,27.179,6.365,43.392c0.704,5.428,5.331,9.436,13.382,11.586c6.067,1.621,12.237,1.746,13.983,1.746l0.289-0.002   c0.876,0.045,1.72,0.066,2.531,0.066c9.853,0,15-3.285,17.583-6.039c2.869-3.061,3.312-6.145,3.316-6.197   c0.624-2.887,1.24-5.938,1.833-9.021l0.272-0.053l-0.197-0.34c0.044-0.225,0.088-0.451,0.131-0.678   c0.004-0.018,0.007-0.035,0.01-0.053c2.916-15.322,5.24-31.051,5.265-31.22c0.584-3.283,3.573-3.773,5.303-3.773   c0.352,0,0.608,0.021,0.715,0.033c4.149,1.107,4.572,3.155,4.601,3.309c0.327,1.438,0.443,10.042,0.346,25.573   c-0.007,0.973-0.011,1.672-0.011,1.996c0,3.277,2.128,5.312,5.553,5.312c3.289,0,4.434-3.822,4.593-6.15   c0-16.172,0.945-26.997,0.959-27.172C97.069,33.204,95.994,30.187,93.8,27.927z M59.785,64.652   c-5.572-0.723-11.192,1.107-11.492,1.209l-0.15,0.064c-0.022,0.012-0.716,0.365-1.892,0.746l-1.911-0.783l4.813-1.977h10.631   V64.652z M94.039,63.998c-0.003,0.041-0.355,4.219-2.595,4.219c-2.357,0-3.553-1.113-3.553-3.312c0-0.322,0.004-1.018,0.011-1.982   c0.069-11.006,0.087-23.91-0.379-25.938c-0.018-0.14-0.511-3.44-6.129-4.911l-0.119-0.024c-0.043-0.005-0.436-0.056-1.034-0.056   c-3.949,0-6.668,2.027-7.276,5.453c-0.028,0.188-2.24,15.159-5.058,30.122c-0.633-0.26-1.733-0.744-3.651-1.662   c-0.363-0.174-0.735-0.32-1.112-0.459l-1.358-0.838v-2.697H48.759l-9.685,3.977l3.771,1.547c-2.794,0.375-6.428,0.256-10.28-1.533   c-7.008-3.256-13.007-1.6-15.564-0.572c-1.533-12.066-3.802-28.718-4.974-31.506c-0.16-0.891-1.002-4.666-3.792-4.666   c-0.533,0-1.085,0.15-1.645,0.447c-0.163,0.052-0.631,0.188-1.086,0.188c-0.143,0-0.485-0.016-0.574-0.167   c-0.053-0.089-0.463-0.966,1.341-4.299c0.242-0.29,1.842-2.075,5.295-3.062C11.686,22.233,23.804,19,41.403,19   c10.318,0,20.478,1.095,30.197,3.254c0.836,0.376,6.425,2.824,11.811,3.513l0.116,0.008c0.055,0,5.512,0.108,8.849,3.555   c1.802,1.861,2.684,4.393,2.625,7.456C94.99,36.894,94.037,47.798,94.039,63.998z"/>
	<path d="M12.031,25.642l-0.736,1.859c0.21,0.083,15.145,5.864,35.838,5.864c8.575,0,18.139-0.993,28.052-3.795l-0.545-1.925   C41.478,37.022,12.322,25.757,12.031,25.642z"/>
	<path d="M39.075,45.48l9.685,3.976h13.026v-7.952H48.759L39.075,45.48z M59.785,43.504v3.952H49.154L44.34,45.48l4.813-1.976   H59.785z"/>
	<path d="M39.075,55.596l9.685,3.979h13.026v-7.953H48.759L39.075,55.596z M59.785,53.621v3.953H49.154l-4.813-1.979l4.813-1.975   H59.785z"/>
</g>
</svg>
