<svg xmlns="http://www.w3.org/2000/svg" xmlns:xlink="http://www.w3.org/1999/xlink" version="1.1" id="Layer_1" x="0px" y="0px" width="100px" height="100px" viewBox="0 0 100 100" enable-background="new 0 0 100 100" xml:space="preserve">
<path fill="#000000" d="M47.16,56.449l-1.09,26.809c0,0-4.577,11.987-11.116,11.987c0,0,0.607,1.891,2.722,1.875  c3.083-0.023,8.143-1.268,9.048-2.953c0,0,0.501,2.245,2.204,3.741c0.737,0.649,2.39,0.217,3.245,0.171c0,0-0.557-2.199,1.091-2.834  c0,0,2.259,1.605,5.095,2.566c1.211,0.41,1.824-0.462,3.623-1.041c0,0-8.064-5.23-8.064-13.513c0-8.283-0.436-28.553-0.436-28.553  s-0.276-3.486,4.766-6.975c5.042-3.487,17.465-12.175,17.465-12.175l6.757,3.784l1.526-1.635L79.002,34l4.34-4.686l-1.744-2.289  l-5.231,2.834l-1.702-7.629h-2.657l0.436,9.264l-9.808,6.974l-5.231-8.5l9.591-14.603l-2.507-1.962l-3.16,3.161l-4.25-5.014  L55,12.095l2.622,9.481l-3.16,3.269l-6.212-8.282l-2.778,1.199l1.471,3.814H34.301l-0.654-10.026h-2.616l-0.653,9.59l-8.283-3.378  l-1.09,2.615l10.571,5.013l17.654,0.763l9.017,15.148l-8.254,5.231c0,0-1.744,1.089-1.744,3.378l-7.224-6.647l-1.167-7.707h-2.397  l-1.09,3.784l-6.539-6.687L27.076,34l1.558,2.085l-7.629-0.529l-0.748,1.822l10.447,2.467l3.378,2.654l-8.736,1.635l0.562,3.052  l11.988-0.109L47.16,56.449z"/>
<path fill="#000000" d="M26.763,16.199c0,1.625-1.318,2.942-2.943,2.942c-1.625,0-2.942-1.317-2.942-2.942  c0-1.625,1.317-7.302,2.942-7.302C25.445,8.897,26.763,14.574,26.763,16.199z"/>
<path fill="#000000" d="M34.549,10.314c0,1.625-1.317,2.942-2.942,2.942s-2.942-1.317-2.942-2.942c0-1.625,1.317-7.302,2.942-7.302  S34.549,8.689,34.549,10.314z"/>
<path fill="#000000" d="M38.252,14.997c-0.902,1.352-2.729,1.715-4.081,0.813c-1.352-0.903-1.716-2.729-0.813-4.081  c0.903-1.352,5.15-5.341,6.502-4.438C41.212,8.193,39.155,13.645,38.252,14.997z"/>
<path fill="#000000" d="M66.668,11.535c0,1.625-1.317,2.943-2.942,2.943c-1.626,0-2.942-1.318-2.942-2.943s1.316-7.302,2.942-7.302  C65.351,4.233,66.668,9.91,66.668,11.535z"/>
<path fill="#000000" d="M68.802,16.417c-1.388,0.844-3.197,0.402-4.042-0.986c-0.846-1.389-0.403-3.198,0.985-4.043  c1.388-0.844,6.923-2.667,7.767-1.279C74.356,11.498,70.19,15.572,68.802,16.417z"/>
<path fill="#000000" d="M85.568,27.713c-1.148,1.149-3.012,1.149-4.161,0s-1.149-3.012,0-4.162c1.149-1.148,6.096-4.231,7.244-3.082  C89.8,21.619,86.718,26.564,85.568,27.713z"/>
<path fill="#000000" d="M84.877,33.643c-1.594,0.318-3.143-0.717-3.461-2.312c-0.316-1.593,0.718-3.143,2.312-3.46  s7.418-0.134,7.736,1.46C91.781,30.924,86.471,33.325,84.877,33.643z"/>
<path fill="#000000" d="M31.561,13.797c1.351,0.902,1.715,2.729,0.813,4.081c-0.903,1.352-2.73,1.715-4.081,0.813  c-1.352-0.902-5.34-5.15-4.438-6.502C24.757,10.837,30.209,12.894,31.561,13.797z"/>
<path fill="#000000" d="M20.311,31.439c1.352,0.903,1.715,2.73,0.812,4.082c-0.902,1.352-2.729,1.715-4.081,0.812  c-1.352-0.902-5.341-5.15-4.438-6.501C13.507,28.48,18.958,30.537,20.311,31.439z"/>
<path fill="#000000" d="M53.393,32.34c1.601,0.285,2.667,1.812,2.381,3.412c-0.284,1.6-1.812,2.666-3.411,2.382  c-1.601-0.284-6.958-2.575-6.674-4.175C45.973,32.359,51.792,32.056,53.393,32.34z"/>
<path fill="#000000" d="M42.893,17.52c1.352,0.902,1.715,2.729,0.812,4.081c-0.902,1.351-2.729,1.715-4.081,0.812  c-1.352-0.903-5.341-5.15-4.438-6.502S41.541,16.616,42.893,17.52z"/>
<path fill="#000000" d="M62.353,26.114c-1.551,0.49-3.204-0.37-3.693-1.919c-0.489-1.55,0.369-3.203,1.918-3.692  c1.551-0.49,7.359-0.944,7.85,0.606C68.916,22.658,63.9,25.625,62.353,26.114z"/>
<path fill="#000000" d="M69.712,44.414c-1.562-0.449-2.465-2.079-2.016-3.641c0.449-1.562,2.079-2.464,3.641-2.016  c1.562,0.449,6.654,3.283,6.205,4.845C77.093,45.165,71.273,44.863,69.712,44.414z"/>
<path fill="#000000" d="M50.515,16.175c-0.776,1.427-2.564,1.955-3.991,1.177c-1.428-0.777-1.955-2.563-1.177-3.991  s4.647-5.783,6.076-5.006C52.85,9.132,51.293,14.748,50.515,16.175z"/>
<path fill="#000000" d="M20.097,15.042c1.297,0.979,1.556,2.824,0.577,4.121c-0.978,1.297-2.823,1.556-4.12,0.577  c-1.298-0.979-5.036-5.448-4.058-6.746C13.474,11.697,18.8,14.064,20.097,15.042z"/>
<path fill="#000000" d="M47.497,13.307c1.298,0.978,1.556,2.823,0.578,4.12c-0.979,1.298-2.824,1.556-4.121,0.578  c-1.297-0.979-5.036-5.449-4.058-6.746C40.875,9.961,46.199,12.328,47.497,13.307z"/>
<path fill="#000000" d="M78.04,26.245c-0.776,1.427-2.563,1.954-3.991,1.177c-1.427-0.777-1.955-2.563-1.177-3.99  c0.776-1.428,4.647-5.784,6.076-5.006C80.375,19.202,78.817,24.817,78.04,26.245z"/>
<path fill="#000000" d="M71.77,32.91c-0.081,1.623-1.462,2.874-3.086,2.792c-1.622-0.08-2.873-1.461-2.793-3.085  c0.082-1.623,1.679-7.227,3.302-7.146C70.814,25.552,71.85,31.287,71.77,32.91z"/>
<path fill="#000000" d="M74.367,19.017c1.298,0.979,1.557,2.824,0.578,4.121c-0.979,1.297-2.823,1.556-4.12,0.577  c-1.299-0.978-5.037-5.448-4.059-6.746C67.746,15.672,73.07,18.039,74.367,19.017z"/>
<path fill="#000000" d="M77.711,38.305c0.034-1.624,1.379-2.915,3.003-2.881c1.626,0.034,2.915,1.378,2.881,3.003  c-0.033,1.625-1.467,7.273-3.093,7.24C78.879,45.633,77.678,39.93,77.711,38.305z"/>
<path fill="#000000" d="M84.296,43.034c-1.602-0.272-2.68-1.791-2.406-3.393c0.271-1.603,1.79-2.681,3.393-2.408  c1.603,0.272,6.978,2.522,6.706,4.123C91.716,42.958,85.899,43.306,84.296,43.034z"/>
<path fill="#000000" d="M60.28,13.624c-0.277,1.601-1.8,2.674-3.402,2.396c-1.602-0.277-2.674-1.801-2.396-3.402  c0.278-1.601,2.548-6.968,4.148-6.69S60.559,12.022,60.28,13.624z"/>
<path fill="#000000" d="M49.2,8.008c0.264,1.604-0.822,3.117-2.426,3.381c-1.604,0.264-3.117-0.823-3.38-2.426  c-0.264-1.604,0.116-7.418,1.72-7.683C46.716,1.017,48.937,6.405,49.2,8.008z"/>
<path fill="#000000" d="M70.902,8.986c-0.278,1.601-1.802,2.674-3.404,2.396c-1.6-0.278-2.673-1.802-2.396-3.402  c0.278-1.601,2.548-6.969,4.148-6.691C70.852,1.567,71.18,7.384,70.902,8.986z"/>
<path fill="#000000" d="M58.329,14.202c1.187,1.111,1.247,2.973,0.136,4.159c-1.11,1.186-2.973,1.247-4.157,0.136  c-1.187-1.111-4.43-5.952-3.319-7.139C52.099,10.173,57.144,13.091,58.329,14.202z"/>
<path fill="#000000" d="M42.581,35.852c-0.777,1.426-2.564,1.954-3.992,1.177s-1.954-2.564-1.177-3.991  c0.777-1.427,4.648-5.782,6.076-5.005C44.915,28.809,43.357,34.424,42.581,35.852z"/>
<path fill="#000000" d="M28.976,32.713c0.732,1.45,0.15,3.221-1.301,3.953c-1.45,0.732-3.22,0.15-3.952-1.3  c-0.733-1.451-2.116-7.111-0.666-7.844C24.508,26.79,28.243,31.262,28.976,32.713z"/>
<path fill="#000000" d="M39.562,32.983c1.297,0.979,1.556,2.823,0.577,4.121c-0.979,1.297-2.823,1.556-4.121,0.578  c-1.297-0.979-5.036-5.449-4.058-6.746C32.939,29.638,38.265,32.004,39.562,32.983z"/>
<path fill="#000000" d="M19.983,18.729c1.554-0.477,3.201,0.395,3.677,1.948c0.478,1.554-0.395,3.2-1.948,3.677  c-1.553,0.477-7.367,0.886-7.843-0.667C13.391,22.133,18.431,19.206,19.983,18.729z"/>
<path fill="#000000" d="M24.574,22.257c1.421-0.789,3.212-0.276,4,1.145c0.789,1.421,0.276,3.212-1.145,4  c-1.42,0.789-7.023,2.391-7.812,0.97C18.829,26.951,23.153,23.045,24.574,22.257z"/>
<path fill="#000000" d="M17.387,35.118c1.42-0.789,3.211-0.276,4,1.146c0.789,1.42,0.276,3.211-1.146,4  c-1.42,0.789-7.023,2.391-7.812,0.97C11.641,39.813,15.966,35.907,17.387,35.118z"/>
<path fill="#000000" d="M26.873,41.402c1.594,0.314,2.633,1.861,2.318,3.456c-0.314,1.595-1.861,2.632-3.456,2.318  c-1.594-0.314-6.909-2.704-6.595-4.299C19.455,41.283,25.279,41.088,26.873,41.402z"/>
<path fill="#000000" d="M25.587,45.921c1.009-1.273,2.859-1.488,4.133-0.479c1.274,1.008,1.489,2.859,0.479,4.133  c-1.009,1.274-5.566,4.906-6.839,3.897C22.086,52.463,24.577,47.195,25.587,45.921z"/>
<path fill="#000000" d="M29.492,24.786c0.741-1.447,2.514-2.02,3.96-1.278c1.446,0.74,2.019,2.513,1.277,3.959  c-0.739,1.447-4.5,5.899-5.946,5.159C27.337,31.885,28.752,26.231,29.492,24.786z"/>
<path fill="#000000" d="M42.378,25.365c0.311-1.595,1.855-2.637,3.45-2.326c1.596,0.311,2.637,1.855,2.327,3.45  c-0.311,1.596-2.689,6.915-4.283,6.604C42.276,32.783,42.067,26.96,42.378,25.365z"/>
</svg>
