<svg xmlns="http://www.w3.org/2000/svg" xmlns:xlink="http://www.w3.org/1999/xlink" version="1.1" x="0px" y="0px" viewBox="0 0 100 100" enable-background="new 0 0 100 100" xml:space="preserve"><path d="M19.085,87.062c-0.987,0-1.991-0.185-2.74-0.367c-0.458-0.112-0.811-0.477-0.909-0.938c-0.029-0.137-0.074-0.27-0.117-0.402  c-0.105-0.327-0.236-0.734-0.242-1.2c0.005-0.372,0.015-0.719,0.025-1.067c0.025-0.87,0.051-1.77-0.016-2.596  c-0.066-0.808-0.237-1.566-0.418-2.37c-0.255-1.132-0.519-2.304-0.519-3.715c0-0.895-0.198-1.797-0.574-2.611  c-0.427-0.924-1.003-2.479-1.229-3.541c-0.165-0.774,0.168-1.399,0.39-1.813c0.056-0.106,0.12-0.208,0.153-0.316  c1.098-3.585,0.039-6.646-1.188-10.189c-0.152-0.438-0.307-0.885-0.458-1.338c-0.121,1.276-0.362,2.263-0.784,2.947  c-1.035,1.682-1.71,3.231-2.126,4.877c-0.151,0.6-0.718,0.99-1.338,0.916c-0.613-0.076-1.074-0.597-1.075-1.214  c-0.001-0.67-0.111-1.271-0.228-1.906c-0.198-1.08-0.422-2.305-0.014-3.791c0.184-0.67,0.114-1.391,0.033-2.226  c-0.076-0.78-0.161-1.665-0.013-2.584c0.481-2.972,0.676-5.081,0.58-6.268c-0.051-0.63,0.649-12.446,3.556-14.895  c1.426-3.105,4.343-4.645,7.575-6.35l0.743-0.394c1.161-0.616,2.125-0.862,3.058-1.1c1.302-0.332,2.426-0.618,4.129-1.938  c0.887-0.688,1.705-1.46,2.571-2.277c1.297-1.224,2.638-2.489,4.248-3.468c4.849-2.95,9.757-2.372,14.588,1.716  c0.038,0.032,0.073,0.066,0.107,0.103l1.407,1.527c0.228,0.269,0.457,0.538,0.688,0.803c1.095,1.251,2.188,2.417,3.51,2.942  c0.662,0.264,1.381,0.27,2.213,0.277c0.767,0.008,1.56,0.015,2.401,0.226c2.627,0.66,3.803,2.928,4.839,4.928  c0.837,1.614,1.627,3.14,3.033,3.633c3.441,1.209,4.662,1.202,5.227-0.024c0.434-0.941,0.772-2.376,1.13-3.894  c0.614-2.606,1.25-5.303,2.64-6.926c0.295-0.344,0.532-0.868,0.782-1.423c0.435-0.962,0.927-2.052,1.967-2.691  c0.644-0.396,2.151-1.325,2.404-2.273c0.163-0.61,0.764-1,1.385-0.893c1.579,0.263,2.589,2.29,3.029,3.4  c0.194,0.028,0.383,0.071,0.564,0.128c0.47,0.148,0.898,0.332,1.312,0.509c0.791,0.34,1.478,0.637,2.184,0.554  c1.042-0.114,3.111,0.122,4.216,1.241c0.283,0.287,0.491,0.619,0.619,0.979c0.737,0.339,1.256,1.038,1.508,1.377  c0.462,0.622,0.531,1.388,0.183,2.047c-0.205,0.388-0.546,0.709-0.943,0.952c0.003,0.107-0.003,0.216-0.018,0.326  c-0.136,0.991-0.964,1.777-2.015,1.91c-1.166,0.15-1.954-0.024-2.488-0.34c-2.02,3.177-4.225,2.741-5.569,2.479  c-0.233-0.046-0.472-0.093-0.667-0.111c-0.082,0.002-0.165,0.002-0.251-0.001c-0.031,0.004-0.059,0.01-0.083,0.019  c-1.427,0.507-2.767,2.387-3.063,3.459c-2.758,9.995-5.262,13.784-9.569,14.477c-1.707,0.272-3.338,0.421-5.668-0.474  c-0.386,0.641-0.862,1.259-1.427,1.851c-0.951,0.994-0.981,1.341-1.093,2.633c-0.029,0.328-0.061,0.692-0.111,1.111  c-0.152,1.248-0.432,2.445-0.753,3.609c-0.17,1.452-0.131,3.852,0.12,6.722c0.04,0.453,0.082,0.86,0.121,1.243  c0.138,1.356,0.247,2.428,0.146,4.06c-0.025,0.406-0.054,0.817-0.084,1.231c-0.115,1.604-0.234,3.261-0.086,4.783  c0.081,0.832,0.054,1.829,0.025,2.885c-0.044,1.626-0.094,3.469,0.292,4.501c0.16,0.426,0.545,0.713,1.162,1.146  c0.828,0.581,1.857,1.304,2.145,2.772c0.07,0.355-0.021,0.724-0.25,1.005c-0.228,0.282-0.568,0.449-0.931,0.455  c-0.461,0.008-1.378,0.022-2.023,0.011c-0.148,0.452-0.547,0.779-1.023,0.834c-0.307,0.035-0.593,0.08-0.869,0.122  c-0.662,0.103-1.345,0.21-2.134,0.176c-0.504-0.02-1.975-0.209-2.583-0.405c-0.066-0.019-0.137-0.019-0.203-0.025  c-1.495-0.143-1.677-1.148-1.685-1.573c-0.003-0.129,0.015-0.256,0.052-0.379c0.204-0.677-0.006-1.404-0.249-2.246  c-0.168-0.582-0.341-1.183-0.382-1.82c-0.091-1.416-0.072-4.137,0.004-5.531c0.048-0.865,0.179-1.734,0.306-2.576  c0.281-1.863,0.547-3.623-0.06-5.211c-0.596-1.557-0.266-2.905,0.084-4.333l0.064-0.264c0.118-0.485,0.254-0.953,0.391-1.415  c0.239-0.816,0.465-1.588,0.557-2.397c0.328-2.911,0.304-5.658-0.074-8.387c-2.428-0.314-4.833,0.137-7.363,0.613  c-1.618,0.304-3.29,0.618-5.006,0.729c-4.067,0.263-9.758-0.412-12.813-3.132c-0.421,1.513-0.922,2.99-1.413,4.436  c-1.206,3.553-2.344,6.907-2.331,10.573c0.012,3.548,1.785,7.13,3.499,10.595c0.615,1.243,1.196,2.418,1.707,3.603  c0.41,0.952,0.858,1.36,1.921,2.271c1.198,1.025,1.774,2.127,2.457,3.572c0.25,0.527,0.092,1.157-0.375,1.506  c-1.139,0.849-3.823,0.818-5.352,0.591c-1.444-0.215-2.379-0.637-2.86-1.291c-0.701-0.951-0.431-2.037-0.234-2.829  c0.072-0.289,0.18-0.727,0.145-0.876c-0.104-0.436-0.487-1.004-0.858-1.554c-0.355-0.525-0.722-1.069-0.965-1.653l-0.388-0.938  c-0.676-1.641-1.375-3.337-2.213-4.8c-0.133-0.232-0.307-0.466-0.483-0.705c-0.539-0.736-1.21-1.652-1.224-2.809  c-0.006-0.577,0.083-1.07,0.163-1.506c0.095-0.523,0.171-0.936,0.071-1.412c-0.115-0.544-0.238-1.064-0.379-1.61  c-0.119,1.834-0.066,3.647-0.016,5.339c0.103,3.509,1.03,6.769,1.826,9.216l0.182,0.574c0.412,1.316,0.662,2.029,1.412,2.57  l0.088,0.063c0.687,0.492,2.117,1.517,1.879,3.092c-0.166,1.1-0.816,1.474-1.188,1.599c-0.317,0.105-0.754,0.147-1.271-0.078  C21.147,86.855,20.125,87.062,19.085,87.062z M17.605,84.458c0.499,0.09,0.947,0.135,1.325,0.146  c-0.197-0.147-0.383-0.274-0.53-0.355c-0.592-0.328-0.805-1.074-0.477-1.666c0.32-0.575,1.036-0.791,1.617-0.502  c-0.461-0.751-0.718-1.569-0.969-2.373l-0.174-0.548c-0.847-2.604-1.833-6.081-1.945-9.901c-0.097-3.283-0.207-7.005,0.877-10.669  c0.044-0.147,0.089-0.295,0.137-0.44c0.021-0.135,0.065-0.264,0.128-0.382c0.514-1.478,1.182-2.82,1.788-3.968  c0.938-1.781,1.584-3.311,2.032-4.813c0.166-0.556,0.357-1.152,0.557-1.774c0.538-1.674,1.162-3.615,1.451-5.401  c-0.005-0.146,0.017-0.292,0.063-0.431c0.105-0.797,0.134-1.556,0.049-2.235c-0.084-0.672,0.391-1.284,1.062-1.369  c0.68-0.079,1.284,0.392,1.369,1.063c0.108,0.857,0.082,1.773-0.033,2.712c0.585,0.99,1.628,2.578,2.451,3.736  c0.019,0.024,0.037,0.05,0.054,0.076c0.42,0.589,0.778,1.057,0.979,1.262c2.201,2.248,7.39,3.007,11.269,2.748  c1.568-0.102,3.166-0.401,4.711-0.692c2.3-0.433,4.661-0.876,7.109-0.73c-0.176-0.426-0.37-0.854-0.569-1.293  c-0.572-1.262-1.164-2.567-1.423-4.059c-0.116-0.666,0.33-1.301,0.997-1.417c0.668-0.111,1.301,0.33,1.417,0.997  c0.206,1.184,0.709,2.293,1.241,3.468c0.59,1.301,1.199,2.646,1.425,4.171c0.45,3.039,0.491,6.088,0.127,9.318  c-0.115,1.021-0.382,1.933-0.641,2.813c-0.125,0.427-0.252,0.856-0.36,1.304l-0.065,0.269c-0.328,1.336-0.484,2.07-0.176,2.875  c0.838,2.19,0.496,4.454,0.194,6.452c-0.124,0.82-0.241,1.596-0.282,2.345c-0.073,1.327-0.091,3.905-0.005,5.24  c0.023,0.37,0.153,0.82,0.291,1.298c0.129,0.447,0.272,0.944,0.355,1.478c0.281-0.4,0.791-0.593,1.276-0.497  c-0.59-1.034-1.014-2.654-1.289-4.918c-0.356-2.922-0.164-6.434,0.513-9.394c0.093-0.406,0.188-0.753,0.274-1.07  c0.255-0.939,0.384-1.41,0.208-2.476c-0.277-1.679,0.152-3.545,0.498-5.045l0.035-0.152c0.264-1.15,0.601-2.271,0.927-3.355  c0.172-0.574,0.342-1.139,0.499-1.698c0.055-0.405,0.127-0.773,0.219-1.092c0.034-0.118,0.084-0.227,0.147-0.325  c0.153-0.659,0.278-1.321,0.36-1.997c0.047-0.388,0.077-0.726,0.103-1.029c0.126-1.449,0.218-2.496,1.763-4.113  c1.28-1.339,1.945-2.82,1.976-4.402c0.013-0.677,0.554-1.184,1.248-1.201c0.676,0.013,1.214,0.571,1.201,1.248  c-0.013,0.664-0.102,1.313-0.267,1.942c1.723,0.647,2.873,0.541,4.32,0.311c2.643-0.425,4.835-2.699,7.597-12.71  c0.283-1.026,1.146-2.551,2.393-3.717c-0.783-0.438-1.459-1.036-1.825-1.793c-0.315-0.652-0.653-1.968,0.62-3.456  c0.44-0.514,1.212-0.574,1.727-0.135c0.514,0.439,0.574,1.213,0.134,1.727c-0.422,0.494-0.319,0.707-0.275,0.798  c0.293,0.607,1.624,1.231,2.684,1.298c0.5-0.02,0.992,0.073,1.439,0.161c1.232,0.242,2.042,0.399,3.275-1.802  c0.128-0.229,0.326-0.41,0.565-0.518l0.967-0.437c0.311-0.141,0.667-0.145,0.981-0.012c0.28,0.118,0.505,0.336,0.632,0.608  c0.053,0.014,0.146,0.028,0.294,0.031c-0.121-0.244-0.162-0.527-0.1-0.808c0.129-0.579,0.646-0.996,1.237-0.961  c0.053-0.004,0.129-0.015,0.21-0.041c-0.055-0.058-0.097-0.098-0.129-0.124c-0.335,0.039-0.677-0.057-0.94-0.278  c-0.317-0.267-0.478-0.676-0.427-1.088c0.011-0.089,0.002-0.116-0.059-0.178c-0.396-0.402-1.592-0.593-2.204-0.526  c-1.349,0.151-2.448-0.322-3.417-0.737c-0.354-0.151-0.71-0.307-1.082-0.424c-0.532-0.166-1.384-0.005-1.822,0.348  c-0.527,0.425-1.298,0.343-1.723-0.184c-0.425-0.527-0.342-1.298,0.185-1.723c0.291-0.234,0.629-0.43,0.996-0.581  c-0.114-0.23-0.232-0.439-0.346-0.62c-0.703,0.867-1.697,1.558-2.652,2.146c-0.4,0.247-0.701,0.911-1.019,1.614  c-0.296,0.655-0.632,1.398-1.154,2.008c-1.002,1.171-1.594,3.681-2.116,5.895c-0.387,1.641-0.752,3.191-1.29,4.356  c-1.671,3.627-5.797,2.178-8.263,1.312c-2.323-0.815-3.425-2.941-4.397-4.817c-0.914-1.765-1.704-3.288-3.261-3.679  c-0.559-0.141-1.175-0.146-1.827-0.152c-0.942-0.009-2.01-0.019-3.096-0.45c-1.829-0.728-3.148-2.121-4.449-3.606  c-0.241-0.274-0.477-0.553-0.713-0.831l-0.067-0.079l-1.217-1.312c-4.024-3.384-7.737-3.842-11.677-1.446  c-1.389,0.844-2.579,1.967-3.839,3.156c-0.87,0.821-1.77,1.67-2.751,2.431c-2.106,1.634-3.657,2.028-5.025,2.377  c-0.829,0.211-1.612,0.41-2.513,0.89l-0.75,0.396c-4.458,2.352-7.148,3.771-7.188,8.82c-0.041,5.11,0.377,12.656,1.688,17.106  c0.292,0.993,0.634,1.98,0.964,2.936c1.252,3.618,2.547,7.359,1.216,11.707c-0.09,0.294-0.226,0.548-0.334,0.752  c-0.042,0.078-0.099,0.187-0.131,0.259c0.198,0.851,0.68,2.152,1.033,2.916c0.524,1.134,0.801,2.393,0.801,3.64  c0,1.139,0.223,2.128,0.458,3.176c0.191,0.851,0.39,1.729,0.47,2.708c0.079,0.961,0.051,1.93,0.023,2.867  c-0.009,0.336-0.019,0.669-0.023,0.999C17.529,84.205,17.564,84.326,17.605,84.458z M27.278,83.083  c0.191,0.116,0.533,0.213,0.951,0.284c-0.037-0.032-0.071-0.057-0.102-0.073c-0.594-0.322-0.817-1.065-0.496-1.66  c0.216-0.4,0.622-0.632,1.045-0.644c-0.558-0.564-1.034-1.198-1.435-2.129c-0.485-1.126-1.053-2.272-1.653-3.485  c-1.838-3.716-3.739-7.557-3.753-11.674c-0.014-4.073,1.244-7.782,2.461-11.368c0.667-1.966,1.355-3.992,1.807-6.029  c-0.295-0.423-0.599-0.872-0.892-1.315c-0.286,1.034-0.609,2.041-0.909,2.973c-0.195,0.604-0.381,1.185-0.542,1.724  c-0.494,1.66-1.197,3.331-2.212,5.257c-0.538,1.021-1.129,2.203-1.584,3.472c0.291,1.069,0.588,2.137,0.887,3.203  c0.349,1.244,0.611,2.236,0.842,3.337c0.199,0.947,0.063,1.695-0.058,2.355c-0.068,0.374-0.127,0.697-0.123,1.038  c0.004,0.37,0.383,0.889,0.75,1.39c0.231,0.316,0.456,0.627,0.632,0.934c0.917,1.601,1.647,3.373,2.353,5.086l0.383,0.928  c0.15,0.358,0.434,0.78,0.735,1.227c0.493,0.73,1.003,1.486,1.21,2.354c0.175,0.729,0.002,1.424-0.149,2.035  C27.369,82.534,27.277,82.905,27.278,83.083z M58.28,67.556c-0.036,0.138-0.073,0.276-0.112,0.417  c-0.079,0.288-0.165,0.604-0.249,0.974c-0.618,2.698-0.793,5.896-0.47,8.551c0.382,3.137,0.966,4.025,1.137,4.224  c0.094,0.109,0.215,0.209,0.352,0.306c-0.122-0.196-0.23-0.412-0.319-0.649c-0.555-1.479-0.5-3.486-0.448-5.427  c0.026-0.978,0.051-1.901-0.015-2.582c-0.168-1.728-0.042-3.49,0.081-5.194C58.251,67.967,58.266,67.761,58.28,67.556z M8.73,46.851  c-0.064,1.316-0.267,3.022-0.612,5.157C8.02,52.614,8.083,53.27,8.15,53.964c0.079,0.817,0.167,1.729-0.011,2.681  c0.076-0.128,0.153-0.256,0.232-0.385c0.751-1.22,0.524-5.951,0.358-9.406C8.73,46.853,8.73,46.852,8.73,46.851z M82.611,22.927  c-0.299,0-0.599-0.108-0.834-0.328c-0.326-0.304-0.526-0.563-0.563-0.611c-0.198-0.262-0.282-0.593-0.234-0.917  s0.224-0.616,0.489-0.81c0.204-0.149,1.275-0.893,2.364-0.893c0.951,0,1.736,0.739,1.955,0.966c0.469,0.488,0.454,1.264-0.034,1.732  c-0.485,0.467-1.258,0.454-1.727-0.028c-0.055-0.056-0.133-0.119-0.201-0.167c-0.033,0.241-0.139,0.475-0.317,0.666  C83.267,22.796,82.939,22.927,82.611,22.927z"></path></svg>