<svg xmlns="http://www.w3.org/2000/svg" xmlns:xlink="http://www.w3.org/1999/xlink" version="1.1" id="Your_Icon" x="0px" y="0px" width="100px" height="100px" viewBox="0 0 100 100" enable-background="new 0 0 100 100" xml:space="preserve">
<g>
	<g>
		<path fill="#000000" d="M77.133,25.606c0.617-0.149,1.275-0.03,1.831,0.268c6.474,3.004,12.95,6.006,19.425,9.01    c0.223,0.104,0.445,0.246,0.574,0.463c0.09,0.217,0.018,0.482-0.209,0.578c-3.896,2.245-7.791,4.491-11.689,6.73    c-0.721,0.334-1.602,0.22-2.289-0.148c-6.535-3.523-13.072-7.045-19.609-10.569c-0.212-0.108-0.432-0.331-0.369-0.589    c0.037-0.202,0.223-0.312,0.396-0.39c3.615-1.629,7.231-3.257,10.845-4.887C76.404,25.92,76.752,25.721,77.133,25.606z     M77.319,25.974c-3.685,1.672-7.371,3.342-11.056,5.012c-0.228,0.118-0.5,0.177-0.679,0.367c-0.114,0.168,0.091,0.311,0.223,0.381    c6.452,3.456,12.905,6.91,19.354,10.372c0.406,0.254,0.955,0.388,1.387,0.12c3.373-1.927,6.744-3.86,10.117-5.785    c0.494-0.302,1.027-0.547,1.498-0.887c0.096-0.252-0.207-0.389-0.389-0.48c-6.488-3.017-12.969-6.046-19.455-9.066    C78.008,25.87,77.635,25.829,77.319,25.974z"/>
	</g>
	<path fill="#000000" d="M75.804,30.526c0.905,0.27,1.827,0.488,2.769,0.581c1.729,0.172,3.472,0.091,5.203,0.212   c0.988,0.071,2.004,0.265,2.844,0.813c0.299,0.21,0.615,0.517,0.586,0.913c-0.018,0.32-0.268,0.562-0.531,0.707   c-0.506,0.279-1.094,0.364-1.664,0.39c-0.633,0.009-1.273,0.011-1.895-0.115c2.021,1.041,4.461,1.419,6.66,0.725   c0.398-0.078,0.846-0.417,1.221-0.093c-2.297,1.19-4.547,2.474-6.84,3.673c-0.094-0.069-0.186-0.136-0.262-0.221   c0.461-0.449,1.1-0.883,1.145-1.586c0.014-0.643-0.43-1.18-0.92-1.544c-0.387-0.282-0.779-0.574-1.225-0.755   c0.17,0.433,0.311,0.983-0.016,1.381c-0.412,0.481-1.072,0.656-1.68,0.725c-1.034,0.097-2.119-0.086-3.014-0.632   c-0.341-0.224-0.665-0.511-0.832-0.89c-0.353-0.93-0.051-1.969-0.426-2.897C76.715,31.337,76.23,30.94,75.804,30.526z"/>
	<g>
		<path fill="#000000" d="M62.1,32.403c0.674-0.112,1.387,0.008,1.957,0.393c6.437,3.529,12.875,7.055,19.311,10.583    c0.287,0.162,0.598,0.427,0.58,0.788c-0.006,0.222-0.176,0.392-0.357,0.495c-4.596,2.647-9.193,5.292-13.787,7.943    c-0.868,0.592-2.105,0.51-2.938-0.109c-6.367-4.181-12.736-8.359-19.105-12.538c-0.195-0.124-0.411-0.311-0.389-0.565    c-0.016-0.3,0.251-0.517,0.501-0.626c4.517-2.039,9.034-4.072,13.551-6.108C61.643,32.56,61.86,32.446,62.1,32.403z     M61.421,33.179c-4.286,1.946-8.575,3.888-12.863,5.83c-0.177,0.074-0.337,0.19-0.393,0.381c0.067,0.103,0.139,0.205,0.248,0.268    c6.277,4.095,12.56,8.182,18.837,12.276c0.25,0.154,0.481,0.344,0.76,0.443c0.334,0.084,0.709,0.068,1.005-0.125    c4.589-2.626,9.18-5.248,13.769-7.874c0.111-0.073,0.25-0.154,0.283-0.295c0.014-0.229-0.217-0.346-0.381-0.449    c-6.467-3.564-12.932-7.128-19.398-10.692c-0.264-0.151-0.576-0.239-0.877-0.171C62.061,32.855,61.749,33.041,61.421,33.179z"/>
	</g>
	<path fill="#000000" d="M61.994,37.15c1.008-0.599,2.236-0.665,3.372-0.512c1.089,0.153,2.143,0.719,2.774,1.634   c0.412,0.592,0.612,1.298,0.779,1.99c0.229,1.041,0.508,2.078,0.965,3.044c0.339,0.712,0.834,1.334,1.379,1.899   c-1.594-0.593-3.264-0.947-4.945-1.172c-2.223-0.324-4.462-0.533-6.686-0.849c-0.959-0.163-1.936-0.358-2.801-0.824   c-0.447-0.255-0.917-0.584-1.078-1.1c-0.164-0.496,0.115-1.027,0.514-1.323c0.736-0.556,1.671-0.772,2.578-0.823   c0.98-0.066,1.941,0.163,2.887,0.394c-0.231-0.361-0.525-0.718-0.539-1.168C61.197,37.824,61.566,37.397,61.994,37.15z"/>
	<g>
		<path fill="#000000" d="M44.186,40.472c0.429-0.092,0.881-0.084,1.304,0.031c0.392,0.111,0.707,0.382,1.045,0.596    c6.264,4.197,12.531,8.39,18.793,12.589c0.32,0.218,0.557,0.638,0.401,1.024c-0.129,0.373-0.523,0.528-0.833,0.717    c-5.391,3.102-10.779,6.206-16.167,9.311c-0.48,0.26-0.933,0.611-1.489,0.691c-0.665,0.107-1.408,0.021-1.952-0.404    c-6.16-5.168-12.318-10.34-18.478-15.508c-0.172-0.141-0.336-0.331-0.325-0.567c0.006-0.417,0.364-0.715,0.714-0.876    c5.314-2.392,10.628-4.786,15.941-7.183C43.486,40.747,43.82,40.563,44.186,40.472z M44.367,40.92    c-5.47,2.452-10.921,4.947-16.386,7.413c-0.217,0.102-0.482,0.201-0.562,0.451c-0.046,0.158,0.064,0.293,0.18,0.386    c6.156,5.115,12.307,10.236,18.463,15.352c0.383,0.32,0.965,0.309,1.383,0.062c5.678-3.247,11.357-6.495,17.037-9.741    c0.215-0.108,0.446-0.349,0.293-0.601c-0.313-0.365-0.766-0.569-1.148-0.853c-6.037-4.077-12.078-8.148-18.115-12.225    C45.2,40.891,44.764,40.805,44.367,40.92z"/>
	</g>
	<path fill="#000000" d="M39.754,47.852c0.97-0.622,2.131-0.886,3.273-0.899c0.825,0.036,1.674,0.139,2.406,0.55   c0.519,0.279,0.956,0.75,1.087,1.335c0.039,0.088,0.024,0.222,0.123,0.273c0.162-0.372,0.479-0.645,0.822-0.847   c1.232-0.745,2.772-0.883,4.153-0.526c0.842,0.225,1.688,0.641,2.204,1.369c0.343,0.48,0.38,1.161,0.062,1.663   c-0.419,0.675-1.156,1.064-1.879,1.333c-1.655,0.58-3.476,0.525-5.155,0.079c0.687,0.537,1.482,0.932,2.296,1.24   c1.254,0.431,2.613,0.519,3.924,0.336c0.895-0.165,1.767-0.438,2.622-0.745c0.194-0.102,0.38,0.062,0.558,0.126   c-0.131,0.139-0.318,0.199-0.479,0.295c-2.992,1.616-5.984,3.231-8.976,4.85c-0.183,0.091-0.351,0.215-0.549,0.268   c-0.072-0.098-0.146-0.193-0.205-0.299c0.694-0.614,1.5-1.148,1.977-1.965c0.361-0.653,0.431-1.482,0.084-2.155   c-0.368-0.722-0.986-1.27-1.6-1.778c0.154,0.57,0.223,1.186,0.017,1.753c-0.276,0.802-0.946,1.395-1.665,1.804   c-1.18,0.664-2.584,0.852-3.914,0.664c-1-0.165-2.019-0.588-2.651-1.41c-0.426-0.537-0.485-1.343-0.092-1.914   c0.518-0.774,1.419-1.178,2.281-1.441c0.347-0.125,0.734-0.062,1.072-0.21c-0.782-0.078-1.573-0.319-2.217-0.782   c-0.417-0.313-0.755-0.8-0.701-1.343C38.668,48.772,39.187,48.209,39.754,47.852z"/>
	<g>
		<path fill="#000000" d="M22.885,50.111c0.617-0.1,1.337-0.064,1.82,0.384c5.96,5.139,11.924,10.274,17.886,15.411    c0.324,0.297,0.771,0.559,0.821,1.039c0.085,0.521-0.254,1.014-0.696,1.256c-7.244,4.176-14.491,8.348-21.736,12.521    c-0.646,0.4-1.45,0.529-2.19,0.367c-0.354-0.078-0.688-0.262-0.917-0.545C12.316,74.072,6.761,67.602,1.205,61.131    c-0.202-0.201-0.261-0.512-0.148-0.773c0.19-0.473,0.634-0.795,1.09-0.99c6.692-3.017,13.385-6.031,20.078-9.048    C22.436,50.227,22.656,50.149,22.885,50.111z M22.896,50.661c-0.186,0.056-0.36,0.144-0.537,0.221    c-6.601,2.996-13.205,5.981-19.804,8.978c-0.33,0.133-0.69,0.576-0.361,0.895c5.458,6.277,10.917,12.555,16.374,18.832    c0.217,0.238,0.409,0.543,0.738,0.631c0.368,0.08,0.764,0.023,1.092-0.168c7.189-4.111,14.38-8.221,21.57-12.334    c0.26-0.135,0.484-0.455,0.361-0.752c-0.182-0.281-0.468-0.469-0.711-0.691c-5.875-5.11-11.75-10.219-17.624-15.331    C23.723,50.633,23.281,50.552,22.896,50.661z"/>
	</g>
	<path fill="#000000" d="M16.633,58.695c0.224-0.003,0.438,0.066,0.656,0.108c3.537,0.755,7.123,1.251,10.72,1.608   c0.01,0.213-0.067,0.416-0.104,0.623c-0.582,2.629-0.85,5.328-0.777,8.02c-4.011-0.961-8.095-1.588-12.195-2.006   c0.021-0.201,0.098-0.391,0.156-0.584C15.875,63.939,16.438,61.336,16.633,58.695z"/>
</g>
</svg>
