<svg xmlns="http://www.w3.org/2000/svg" xmlns:xlink="http://www.w3.org/1999/xlink" version="1.1" preserveAspectRatio="none" x="0px" y="0px" viewBox="0 0 100 100"><defs><g id="a"><path fill="#000000" stroke="none" d=" M 71.15 16.6 Q 62.5 2.8 42.35 0 L 33.6 0 33.6 0.1 Q 15.65 2.55 6.65 16.45 0 26.75 0 38.45 0 51.05 6.45 60.55 17.55 76.65 44.6 76.65 53.9 76.65 61.45 73.3 66.75 70.9 68.35 68.6 73.55 61.5 75.55 51 76.75 44.85 76.75 38 76.75 25.7 71.15 16.6 M 42.9 4.3 Q 60.4 6.6 68.05 18.9 73.1 27.1 73.1 38.15 73.1 50.4 68.8 59.1 62.05 72.85 46.25 71.8 L 35.05 71.8 Q 15.8 67.95 8.6 57.75 3.65 50.8 3.65 38.6 3.65 28.45 9.45 19.3 17.3 6.85 33.05 4.3 L 42.9 4.3 M 29.2 20.25 Q 29.2 21.35 29.45 21.95 30.05 23.45 31.95 23.45 34.75 23.45 34.75 20.5 34.75 17.1 32 17.25 29.2 17.4 29.2 20.25 M 29.9 8.5 Q 28.75 9.85 27.9 11.6 27 13.35 24.15 14.55 21.25 15.7 21.5 16.2 21.75 16.7 23.4 16.7 27.4 16.7 29.75 13.05 31.4 10.5 31.4 8.8 31.4 6.7 29.9 8.5 M 60.9 39.55 Q 62.65 42.45 62.95 46.5 63.1 48.7 62.9 51.8 62.9 52.4 62.4 54.75 62.4 55 62.6 55.3 62.85 55.8 63.4 55.8 64.8 55.8 65.4 51.15 65.75 46.4 65.75 46.15 65.75 36.75 57.4 31.55 49.85 26.95 38.95 27.3 28.1 27.7 20.55 32.75 12.15 38.4 12.15 47.35 12.15 55.05 15.9 58.05 L 16.15 57.8 Q 15.9 56.35 14.8 52.1 14.15 49.65 14.15 47.2 14.15 42.4 18.65 37.75 25.2 30.95 38 30.95 55.75 30.95 60.9 39.55 M 41.85 20 Q 41.85 20.1 42.2 21.8 42.9 23.45 44.7 23.45 48 23.45 48 19.3 48 15.95 44.95 16.85 41.85 17.75 41.85 20 M 48.4 10.4 Q 46.15 8.35 45.8 8.15 44.65 7.5 44.65 9.25 44.65 10.2 46.65 12.45 49.25 15.45 52.65 15.45 55.9 15.45 56.55 14.7 57.2 13.95 54.5 13.65 51.75 13.3 48.4 10.4 Z"></path></g></defs><g transform="matrix( 1, 0, 0, 1, 11.65,11.7) "><g transform="matrix( 1, 0, 0, 1, 0,0) "><use xlink:href="#a"></use></g></g></svg>