<svg xmlns="http://www.w3.org/2000/svg" xmlns:xlink="http://www.w3.org/1999/xlink" version="1.1" x="0px" y="0px" viewBox="0 0 144.083 144" enable-background="new 0 0 144.083 144" xml:space="preserve"><path d="M121.026,42.628l2.316-11.616l-2.344,0.645c-1.092,0.3-10.752,3.018-13.727,5.992c-6.486,6.486-3.551,20.479-3.424,21.072  l0.012,0.056c-0.953,1.95-3.691,6.149-9.543,6.444c-4.186-4.018-9.861-6.494-16.105-6.494H65.994c-6.251,0-11.93,2.481-16.116,6.506  c-5.733-0.199-8.519-4.081-9.595-6.164l0.075-0.349c0.128-0.592,3.062-14.585-3.425-21.071c-2.976-2.975-12.636-5.692-13.728-5.992  l-2.345-0.645l2.319,11.616l-11.655-2.727l0.618,2.398c0.289,1.124,2.915,11.067,5.995,14.146c3.366,3.368,8.758,4.196,13.246,4.196  c2.464,0,4.648-0.249,6.085-0.466c1.419,2.907,4.613,6.754,9.96,7.806c-2.956,3.903-4.713,8.762-4.713,14.023  c0,2.351,0.354,4.619,1.004,6.76l-8.633,8.635v6.928h3v-5.686l6.811-6.813c1.363,2.917,3.313,5.504,5.697,7.613l-7.83,7.829v6.929h3  v-5.687l7.216-7.215c3.717,2.516,8.196,3.986,13.013,3.986h12.217c4.816,0,9.297-1.471,13.014-3.987l7.217,7.216v5.687h3v-6.929  l-7.83-7.829c2.383-2.109,4.332-4.696,5.697-7.611l6.811,6.811v5.686h3v-6.928l-8.635-8.633c0.652-2.142,1.006-4.411,1.006-6.762  c0-5.281-1.771-10.154-4.746-14.065c5.26-1.103,8.41-4.913,9.809-7.791c1.428,0.222,3.699,0.493,6.268,0.493  c4.488,0,9.881-0.829,13.248-4.196c3.078-3.079,5.705-13.021,5.994-14.146l0.619-2.399L121.026,42.628z M37.603,57.115  c-3.109,0.511-12.865,1.688-17.343-2.791c-1.665-1.665-3.478-6.84-4.533-10.359l11.308,2.646l-2.268-11.359  c3.42,1.081,8.439,2.912,10.046,4.519C39.281,44.239,38.113,54.003,37.603,57.115z M98.491,82.005  c0,11.183-9.098,20.28-20.279,20.28H65.994c-11.181,0-20.277-9.098-20.277-20.28c0-11.182,9.097-20.278,20.277-20.278h12.217  C89.393,61.727,98.491,70.823,98.491,82.005z M123.948,54.324c-4.469,4.469-14.232,3.302-17.344,2.789  c-0.51-3.112-1.68-12.875,2.789-17.344c1.605-1.606,6.625-3.438,10.045-4.519l-2.266,11.359l11.309-2.646  C127.424,47.483,125.614,52.657,123.948,54.324z"></path><path d="M60.104,57.335c3.859,0,7-3.141,7-7s-3.141-7-7-7s-7,3.141-7,7S56.244,57.335,60.104,57.335z M60.104,46.335  c2.206,0,4,1.794,4,4s-1.794,4-4,4s-4-1.794-4-4S57.897,46.335,60.104,46.335z"></path><path d="M84.104,57.335c3.859,0,7-3.141,7-7s-3.141-7-7-7s-7,3.141-7,7S80.245,57.335,84.104,57.335z M84.104,46.335  c2.205,0,4,1.794,4,4s-1.795,4-4,4c-2.207,0-4-1.794-4-4S81.897,46.335,84.104,46.335z"></path></svg>