<svg xmlns:dc="http://purl.org/dc/elements/1.1/" xmlns:cc="http://creativecommons.org/ns#" xmlns:rdf="http://www.w3.org/1999/02/22-rdf-syntax-ns#" xmlns:svg="http://www.w3.org/2000/svg" xmlns="http://www.w3.org/2000/svg" xmlns:sodipodi="http://sodipodi.sourceforge.net/DTD/sodipodi-0.dtd" xmlns:inkscape="http://www.inkscape.org/namespaces/inkscape" viewBox="0 0 32 32.000001" version="1.1" x="0px" y="0px"><g transform="translate(0,-1020.3622)"><path style="color:#000000;font-style:normal;font-variant:normal;font-weight:normal;font-stretch:normal;font-size:medium;line-height:normal;font-family:sans-serif;text-indent:0;text-align:start;text-decoration:none;text-decoration-line:none;text-decoration-style:solid;text-decoration-color:#000000;letter-spacing:normal;word-spacing:normal;text-transform:none;direction:ltr;block-progression:tb;writing-mode:lr-tb;baseline-shift:baseline;text-anchor:start;white-space:normal;clip-rule:nonzero;display:inline;overflow:visible;visibility:visible;opacity:1;isolation:auto;mix-blend-mode:normal;color-interpolation:sRGB;color-interpolation-filters:linearRGB;solid-color:#000000;solid-opacity:1;fill:#000000;fill-opacity:1;fill-rule:nonzero;stroke:none;stroke-width:1;stroke-linecap:round;stroke-linejoin:round;stroke-miterlimit:4;stroke-dasharray:none;stroke-dashoffset:0;stroke-opacity:1;color-rendering:auto;image-rendering:auto;shape-rendering:auto;text-rendering:auto;enable-background:accumulate" d="M 7.453125 2 A 0.50005 0.50005 0 0 0 7.3925781 2.0097656 C 6.1028341 2.0650253 5.0669124 3.1013983 5.0097656 4.390625 A 0.50005 0.50005 0 0 0 4.9980469 4.5019531 L 4.9980469 22 L 1.5742188 22 A 0.50005 0.50005 0 0 0 1.1699219 22.117188 A 0.50005 0.50005 0 0 0 1.140625 22.146484 A 0.50005 0.50005 0 0 0 1.0898438 22.207031 A 0.50005 0.50005 0 0 0 1.078125 22.222656 A 0.50005 0.50005 0 0 0 1.0742188 22.230469 A 0.50005 0.50005 0 0 0 1.0488281 22.271484 A 0.50005 0.50005 0 0 0 1.0488281 22.273438 A 0.50005 0.50005 0 0 0 1.046875 22.275391 A 0.50005 0.50005 0 0 0 1.015625 22.359375 A 0.50005 0.50005 0 0 0 1.0136719 22.367188 A 0.50005 0.50005 0 0 0 0.99804688 22.556641 L 0.99804688 24.501953 C 0.99804688 25.849435 2.0772651 26.946489 3.4140625 26.992188 A 0.50005 0.50005 0 0 0 3.4628906 26.998047 C 3.4749086 26.998219 3.4859895 27.001953 3.4980469 27.001953 C 3.5047377 27.001953 3.5108994 27.000053 3.5175781 27 L 16.996094 27 L 16.996094 29.691406 A 0.50004997 0.50004997 0 0 0 17.748047 30.123047 L 19.556641 29.064453 L 21.230469 30.115234 A 0.50004997 0.50004997 0 0 0 21.998047 29.691406 L 21.998047 27.001953 L 24.498047 27.001953 C 25.83755 27.001953 26.928381 25.935058 26.986328 24.609375 A 0.50005 0.50005 0 0 0 26.998047 24.5 L 26.998047 16.501953 L 26.998047 7 L 30.421875 7 A 0.50005 0.50005 0 0 0 30.822266 6.8867188 A 0.50005 0.50005 0 0 0 30.826172 6.8828125 A 0.50005 0.50005 0 0 0 30.859375 6.8515625 A 0.50005 0.50005 0 0 0 30.859375 6.8496094 A 0.50005 0.50005 0 0 0 30.861328 6.8496094 A 0.50005 0.50005 0 0 0 30.863281 6.8476562 A 0.50005 0.50005 0 0 0 30.998047 6.4179688 L 30.998047 4.5 C 30.998047 3.1618718 29.933273 2.0716704 28.609375 2.0117188 A 0.50005 0.50005 0 0 0 28.498047 2 L 28.447266 2 L 7.5039062 2 A 0.50005 0.50005 0 0 0 7.4980469 2 A 0.50005 0.50005 0 0 0 7.453125 2 z M 7.4980469 3 A 0.50005 0.50005 0 0 0 7.5039062 3 C 8.3407002 3.0031357 8.9980469 3.6623998 8.9980469 4.5 L 8.9980469 6.4570312 A 0.50005 0.50005 0 0 0 9.0039062 6.5800781 A 0.50005 0.50005 0 0 0 9.0058594 6.5976562 A 0.50005 0.50005 0 0 0 9.0078125 6.6054688 A 0.50005 0.50005 0 0 0 9.5664062 7 L 25.998047 7 L 25.998047 16.464844 A 0.50005 0.50005 0 0 0 25.998047 16.501953 L 25.998047 24.5 L 25.998047 24.501953 C 25.998047 25.341553 25.337695 26.001953 24.498047 26.001953 L 21.998047 26.001953 L 21.998047 23.671875 C 22.114114 23.671936 22.259369 23.672456 22.416016 23.681641 C 22.586563 23.681641 22.761821 23.691641 22.923828 23.681641 C 23.004828 23.681641 23.081057 23.669344 23.167969 23.652344 C 23.254879 23.634344 23.362975 23.638862 23.523438 23.476562 C 23.68404 23.314163 23.67873 23.206241 23.695312 23.119141 C 23.711893 23.032141 23.717503 22.9561 23.720703 22.875 C 23.727103 22.7129 23.721044 22.539541 23.714844 22.369141 C 23.708644 22.198641 23.702955 22.031209 23.703125 21.912109 C 23.703138 21.902109 23.703016 21.901578 23.703125 21.892578 C 23.710125 21.892578 23.71127 21.882812 23.71875 21.882812 C 23.821152 21.821813 23.967408 21.741756 24.117188 21.660156 C 24.266966 21.578156 24.420473 21.496303 24.556641 21.408203 C 24.624721 21.364203 24.689375 21.320319 24.755859 21.261719 C 24.822339 21.202719 24.914815 21.152541 24.972656 20.931641 C 25.030436 20.710841 24.972499 20.620809 24.943359 20.537109 C 24.914169 20.453109 24.881497 20.382247 24.84375 20.310547 C 24.76825 20.166847 24.676507 20.0196 24.585938 19.875 C 24.495368 19.7305 24.40512 19.589628 24.345703 19.486328 C 24.341603 19.476328 24.341791 19.476703 24.337891 19.470703 C 24.341991 19.460703 24.341203 19.459172 24.345703 19.451172 C 24.403943 19.347172 24.493115 19.206147 24.582031 19.060547 C 24.670951 18.914947 24.760125 18.767347 24.833984 18.623047 C 24.870914 18.551047 24.903411 18.478531 24.931641 18.394531 C 24.959881 18.310531 25.015428 18.2202 24.955078 18 C 24.894728 17.7798 24.801516 17.729875 24.734375 17.671875 C 24.667235 17.613875 24.603735 17.572597 24.535156 17.529297 C 24.397999 17.442297 24.244448 17.359297 24.09375 17.279297 C 23.943053 17.199297 23.794498 17.1222 23.691406 17.0625 C 23.683806 17.0625 23.682881 17.052734 23.675781 17.052734 C 23.67557 17.042734 23.6759 17.042203 23.675781 17.033203 C 23.674281 16.914103 23.677341 16.746772 23.681641 16.576172 C 23.685841 16.405672 23.689926 16.232313 23.681641 16.070312 C 23.677541 15.989313 23.671887 15.913072 23.654297 15.826172 C 23.636727 15.739172 23.638842 15.633156 23.476562 15.472656 C 23.314155 15.312256 23.208147 15.315428 23.121094 15.298828 C 23.034044 15.281828 22.957975 15.276438 22.876953 15.273438 C 22.714908 15.263438 22.539617 15.273903 22.369141 15.283203 C 22.198664 15.293203 22.03332 15.294922 21.914062 15.294922 C 21.903993 15.294922 21.901928 15.297075 21.892578 15.296875 C 21.887978 15.286875 21.887573 15.285344 21.882812 15.277344 C 21.821912 15.175044 21.743708 15.028706 21.662109 14.878906 C 21.580509 14.729006 21.496364 14.575553 21.408203 14.439453 C 21.364123 14.371453 21.320481 14.308587 21.261719 14.242188 C 21.202959 14.176187 21.15126 14.082891 20.929688 14.025391 C 20.708782 13.967391 20.61889 14.026734 20.535156 14.052734 C 20.451426 14.081734 20.382326 14.114444 20.310547 14.152344 C 20.16699 14.227344 20.019531 14.319556 19.875 14.410156 C 19.730468 14.501156 19.59155 14.590991 19.488281 14.650391 C 19.480181 14.650391 19.4764 14.660156 19.46875 14.660156 C 19.46105 14.660156 19.459362 14.650391 19.451172 14.650391 C 19.347242 14.592391 19.20803 14.506769 19.0625 14.417969 C 18.916971 14.328969 18.765407 14.236009 18.621094 14.162109 C 18.548934 14.125109 18.480389 14.092453 18.396484 14.064453 C 18.312584 14.036453 18.221973 13.983969 18.001953 14.042969 C 17.78173 14.102969 17.729802 14.194519 17.671875 14.261719 C 17.613945 14.328719 17.570635 14.392337 17.527344 14.460938 C 17.440764 14.598137 17.359189 14.753597 17.279297 14.904297 C 17.199407 15.054897 17.124205 15.201588 17.064453 15.304688 C 17.059753 15.314687 17.059187 15.314266 17.054688 15.322266 C 17.045288 15.322566 17.043263 15.322066 17.033203 15.322266 C 16.913955 15.322266 16.748667 15.3225 16.578125 15.3125 C 16.407584 15.3125 16.232295 15.3035 16.070312 15.3125 C 15.989323 15.3125 15.913058 15.324797 15.826172 15.341797 C 15.739282 15.358797 15.633173 15.357131 15.472656 15.519531 C 15.312212 15.681831 15.315406 15.7879 15.298828 15.875 C 15.282248 15.962 15.276637 16.038141 15.273438 16.119141 C 15.267038 16.281241 15.273097 16.4545 15.279297 16.625 C 15.285497 16.7955 15.291196 16.962831 15.291016 17.082031 C 15.291002 17.092031 15.291129 17.092562 15.291016 17.101562 C 15.284016 17.101562 15.282871 17.111328 15.275391 17.111328 C 15.172986 17.172328 15.026733 17.250531 14.876953 17.332031 C 14.727174 17.414031 14.573664 17.497838 14.4375 17.585938 C 14.36942 17.629938 14.304759 17.673822 14.238281 17.732422 C 14.171801 17.791422 14.079324 17.8416 14.021484 18.0625 C 13.963634 18.2834 14.021641 18.373331 14.050781 18.457031 C 14.079971 18.541031 14.112643 18.611794 14.150391 18.683594 C 14.225891 18.827094 14.317636 18.974641 14.408203 19.119141 C 14.498773 19.263741 14.58902 19.404513 14.648438 19.507812 C 14.652938 19.517812 14.65205 19.517391 14.65625 19.525391 C 14.65255 19.535391 14.652538 19.536969 14.648438 19.542969 C 14.590198 19.646969 14.501027 19.787994 14.412109 19.933594 C 14.323189 20.079094 14.234018 20.226594 14.160156 20.371094 C 14.123226 20.443094 14.09073 20.515609 14.0625 20.599609 C 14.03426 20.683609 13.978783 20.774041 14.039062 20.994141 C 14.099412 21.214341 14.19262 21.264366 14.259766 21.322266 C 14.326906 21.380266 14.390405 21.421544 14.458984 21.464844 C 14.596144 21.550844 14.751646 21.634944 14.902344 21.714844 C 15.053041 21.794844 15.199645 21.871941 15.302734 21.931641 C 15.310334 21.931641 15.311269 21.941406 15.318359 21.941406 C 15.318566 21.951406 15.318242 21.951937 15.318359 21.960938 C 15.319859 22.080037 15.3168 22.247369 15.3125 22.417969 C 15.3083 22.588469 15.304215 22.761728 15.3125 22.923828 C 15.3166 23.004828 15.322254 23.081069 15.339844 23.167969 C 15.357414 23.254969 15.355137 23.360984 15.517578 23.521484 A 0.50005 0.50005 0 0 0 15.519531 23.521484 C 15.682048 23.681984 15.785961 23.678813 15.873047 23.695312 C 15.960137 23.712313 16.036169 23.718656 16.117188 23.722656 C 16.279225 23.732656 16.456541 23.722191 16.626953 23.712891 C 16.765787 23.704744 16.886435 23.70219 16.996094 23.701172 L 16.996094 26 L 5.484375 26 C 5.7812822 25.608095 5.9635143 25.1313 5.9863281 24.609375 A 0.50005 0.50005 0 0 0 5.9980469 24.5 L 5.9980469 22.541016 A 0.50005 0.50005 0 0 0 5.9980469 22.466797 L 5.9980469 4.5019531 L 5.9980469 4.5 C 5.9980469 3.6604 6.6583983 3 7.4980469 3 z M 9.484375 3 L 28.498047 3 C 29.337695 3 29.998047 3.6604 29.998047 4.5 L 29.998047 6 L 26.576172 6 A 0.50005 0.50005 0 0 0 26.490234 5.9941406 A 0.50005 0.50005 0 0 0 26.414062 6 L 9.9980469 6 L 9.9980469 4.5 C 9.9980469 3.9358068 9.8020276 3.4192877 9.484375 3 z M 7.9472656 9 A 0.50005 0.50005 0 0 0 7.9980469 10 L 23.998047 10 A 0.50005 0.50005 0 1 0 23.998047 9 L 7.9980469 9 A 0.50005 0.50005 0 0 0 7.9472656 9 z M 7.9472656 12 A 0.50005 0.50005 0 0 0 7.9980469 13 L 23.998047 13 A 0.50005 0.50005 0 1 0 23.998047 12 L 7.9980469 12 A 0.50005 0.50005 0 0 0 7.9472656 12 z M 7.9472656 15 A 0.50005 0.50005 0 0 0 7.9980469 16 L 13.998047 16 A 0.50005 0.50005 0 1 0 13.998047 15 L 7.9980469 15 A 0.50005 0.50005 0 0 0 7.9472656 15 z M 20.646484 15.117188 C 20.691314 15.194187 20.732235 15.263922 20.783203 15.357422 C 20.862453 15.503022 20.943729 15.654963 21.023438 15.789062 C 21.063288 15.856063 21.102374 15.920022 21.148438 15.982422 C 21.194498 16.044422 21.221635 16.107566 21.378906 16.197266 A 0.50005 0.50005 0 0 0 21.380859 16.197266 C 21.537986 16.286266 21.606603 16.275203 21.683594 16.283203 C 21.760584 16.293203 21.834182 16.293922 21.912109 16.294922 C 22.067959 16.295122 22.240707 16.284297 22.40625 16.279297 L 22.681641 16.279297 C 22.682148 16.368297 22.684247 16.451694 22.681641 16.558594 C 22.677541 16.724294 22.673781 16.894781 22.675781 17.050781 C 22.676781 17.128781 22.676787 17.202197 22.685547 17.279297 C 22.694247 17.356297 22.685935 17.425831 22.777344 17.582031 C 22.868744 17.738331 22.935162 17.7672 22.998047 17.8125 C 23.060937 17.8575 23.121976 17.894194 23.189453 17.933594 C 23.324407 18.011594 23.478618 18.090369 23.625 18.167969 C 23.71926 18.217969 23.789932 18.260488 23.867188 18.304688 C 23.823207 18.381687 23.782069 18.454022 23.726562 18.544922 C 23.640193 18.686222 23.550847 18.83275 23.474609 18.96875 C 23.436489 19.03675 23.402072 19.100875 23.371094 19.171875 C 23.340124 19.242875 23.297798 19.299469 23.298828 19.480469 C 23.299828 19.661569 23.341267 19.718363 23.373047 19.789062 C 23.404827 19.860062 23.44158 19.922634 23.480469 19.990234 C 23.558249 20.125434 23.650311 20.271709 23.738281 20.412109 C 23.795041 20.503109 23.835904 20.573491 23.880859 20.650391 C 23.804109 20.695391 23.734309 20.738163 23.640625 20.789062 C 23.495135 20.868062 23.341091 20.949597 23.207031 21.029297 C 23.140001 21.069297 23.079948 21.106744 23.017578 21.152344 C 22.955208 21.198344 22.888448 21.225413 22.798828 21.382812 C 22.709198 21.540113 22.718778 21.612353 22.710938 21.689453 C 22.703138 21.766453 22.703325 21.839969 22.703125 21.917969 C 22.702892 22.073869 22.708884 22.244456 22.714844 22.410156 C 22.718744 22.516956 22.71825 22.600353 22.71875 22.689453 C 22.62989 22.689953 22.547965 22.689853 22.441406 22.689453 C 22.275818 22.689453 22.103104 22.676734 21.947266 22.677734 C 21.869346 22.678734 21.797607 22.678406 21.720703 22.691406 C 21.643803 22.701406 21.574106 22.69225 21.417969 22.78125 A 0.50005 0.50005 0 0 0 21.416016 22.78125 C 21.308769 22.844014 21.26756 22.891753 21.234375 22.9375 A 0.50004997 0.50004997 0 0 0 21 23.314453 C 20.942945 23.417347 20.885968 23.521569 20.830078 23.626953 C 20.780178 23.720953 20.73928 23.792041 20.695312 23.869141 C 20.617943 23.825141 20.544419 23.786469 20.453125 23.730469 C 20.311766 23.644469 20.167308 23.552862 20.03125 23.476562 C 19.96322 23.438562 19.899214 23.402494 19.828125 23.371094 C 19.757035 23.340094 19.700653 23.297828 19.519531 23.298828 C 19.338517 23.299828 19.281662 23.344 19.210938 23.375 C 19.140207 23.407 19.075406 23.441769 19.007812 23.480469 C 18.872623 23.558469 18.728281 23.652334 18.587891 23.740234 C 18.497221 23.797234 18.42455 23.836059 18.347656 23.880859 C 18.302826 23.803859 18.261905 23.734225 18.210938 23.640625 C 18.131688 23.495125 18.050419 23.345037 17.970703 23.210938 C 17.930843 23.143937 17.891786 23.079878 17.845703 23.017578 C 17.799623 22.955578 17.772675 22.890481 17.615234 22.800781 C 17.457847 22.710781 17.389765 22.720891 17.3125 22.712891 C 17.23523 22.702891 17.160067 22.703125 17.082031 22.703125 C 16.925961 22.702925 16.753498 22.711844 16.587891 22.714844 L 16.3125 22.714844 C 16.312029 22.625844 16.309883 22.545553 16.3125 22.439453 C 16.3166 22.273753 16.320359 22.103166 16.318359 21.947266 C 16.317359 21.869266 16.317354 21.793897 16.308594 21.716797 C 16.299894 21.639797 16.308209 21.568409 16.216797 21.412109 C 16.125397 21.255809 16.058983 21.230847 15.996094 21.185547 C 15.933204 21.140547 15.872167 21.102 15.804688 21.0625 C 15.669731 20.9845 15.515523 20.905725 15.369141 20.828125 C 15.274881 20.778125 15.204206 20.735506 15.126953 20.691406 C 15.171023 20.614406 15.211853 20.542472 15.267578 20.451172 C 15.353948 20.309772 15.443292 20.163344 15.519531 20.027344 C 15.557651 19.959344 15.592069 19.895319 15.623047 19.824219 C 15.654027 19.753219 15.696343 19.696725 15.695312 19.515625 C 15.694313 19.334725 15.652874 19.279784 15.621094 19.208984 C 15.589314 19.137984 15.552561 19.073459 15.513672 19.005859 C 15.435892 18.870759 15.343831 18.726238 15.255859 18.585938 C 15.199319 18.495938 15.158136 18.424256 15.113281 18.347656 C 15.190031 18.302656 15.259832 18.259884 15.353516 18.208984 C 15.499006 18.129984 15.653052 18.04855 15.787109 17.96875 C 15.854139 17.92875 15.914197 17.89035 15.976562 17.84375 C 16.038923 17.79775 16.105697 17.768728 16.195312 17.611328 C 16.284933 17.454128 16.275363 17.385594 16.283203 17.308594 C 16.291003 17.231594 16.290816 17.157978 16.291016 17.080078 C 16.29125 16.924078 16.285257 16.753491 16.279297 16.587891 C 16.275397 16.481091 16.275891 16.397694 16.275391 16.308594 C 16.364251 16.308094 16.446171 16.308094 16.552734 16.308594 C 16.718328 16.308594 16.891037 16.319359 17.046875 16.318359 C 17.124795 16.318359 17.196536 16.319641 17.273438 16.306641 C 17.350337 16.296641 17.422004 16.304844 17.578125 16.214844 C 17.733635 16.123844 17.759389 16.060847 17.804688 15.998047 C 17.849988 15.935047 17.88866 15.870134 17.927734 15.802734 C 18.005894 15.667834 18.086474 15.515441 18.164062 15.369141 C 18.213963 15.275141 18.254861 15.204153 18.298828 15.126953 L 18.298828 15.130859 C 18.376258 15.174859 18.449694 15.213431 18.541016 15.269531 C 18.682419 15.355531 18.826821 15.447338 18.962891 15.523438 C 19.030931 15.561438 19.094939 15.5945 19.166016 15.625 C 19.237096 15.656 19.293704 15.700219 19.474609 15.699219 C 19.655622 15.699219 19.712477 15.654047 19.783203 15.623047 C 19.853933 15.591047 19.918734 15.556378 19.986328 15.517578 C 20.121517 15.439578 20.265861 15.345712 20.40625 15.257812 C 20.49692 15.200812 20.569591 15.161987 20.646484 15.117188 z M 19.484375 17.173828 C 19.213312 17.173828 19.116229 17.310912 19.050781 17.382812 C 18.985331 17.454812 18.947337 17.518184 18.908203 17.583984 C 18.829943 17.715584 18.762502 17.857047 18.697266 17.998047 C 18.632026 18.139047 18.569507 18.2771 18.521484 18.375 C 18.518584 18.385 18.518425 18.385672 18.515625 18.388672 C 18.509725 18.389572 18.508173 18.388672 18.501953 18.388672 C 18.395339 18.405672 18.246111 18.424313 18.09375 18.445312 C 17.941391 18.466312 17.78804 18.488391 17.640625 18.525391 C 17.566915 18.543391 17.4955 18.563469 17.408203 18.605469 C 17.320903 18.647469 17.166157 18.700991 17.083984 18.962891 C 17.001814 19.224391 17.097181 19.360013 17.144531 19.445312 C 17.191891 19.530313 17.237367 19.588484 17.287109 19.646484 C 17.386589 19.762584 17.500995 19.870163 17.613281 19.976562 C 17.725567 20.082962 17.836932 20.185119 17.914062 20.261719 C 17.918563 20.261719 17.917575 20.271484 17.921875 20.271484 C 17.920985 20.281484 17.922814 20.281156 17.921875 20.285156 C 17.905205 20.393156 17.874876 20.542013 17.847656 20.695312 C 17.820446 20.848512 17.794443 21.004903 17.783203 21.158203 C 17.777603 21.235203 17.774709 21.30925 17.787109 21.40625 C 17.799469 21.50325 17.801231 21.670178 18.021484 21.830078 A 0.49696473 0.50315447 0 0 0 18.023438 21.830078 C 18.243727 21.989978 18.399435 21.939522 18.494141 21.919922 C 18.588851 21.900922 18.656694 21.871797 18.726562 21.841797 C 18.866305 21.781797 19.004041 21.708012 19.138672 21.632812 C 19.273304 21.557812 19.402362 21.480287 19.498047 21.429688 C 19.503547 21.429688 19.506409 21.429922 19.511719 21.419922 C 19.517119 21.419922 19.517817 21.419688 19.523438 21.429688 C 19.619747 21.479687 19.751175 21.553353 19.886719 21.626953 C 20.02226 21.699953 20.160315 21.773831 20.300781 21.832031 C 20.371021 21.861031 20.440216 21.88825 20.535156 21.90625 C 20.630096 21.92425 20.785607 21.973547 21.003906 21.810547 C 21.222205 21.647947 21.223196 21.481866 21.234375 21.384766 C 21.245555 21.287766 21.240899 21.213319 21.234375 21.136719 C 21.221265 20.983619 21.193142 20.828681 21.164062 20.675781 C 21.134982 20.522881 21.105881 20.373425 21.087891 20.265625 C 21.086891 20.255625 21.086838 20.255953 21.085938 20.251953 C 21.090138 20.251953 21.08925 20.242188 21.09375 20.242188 C 21.16994 20.165188 21.279645 20.060925 21.390625 19.953125 C 21.501606 19.845325 21.612879 19.736341 21.710938 19.619141 C 21.759967 19.560141 21.807208 19.501816 21.853516 19.416016 C 21.899826 19.330016 21.993566 19.194094 21.908203 18.933594 C 21.822843 18.673094 21.667877 18.620878 21.580078 18.580078 C 21.492278 18.539078 21.419629 18.519953 21.345703 18.501953 C 21.197858 18.466953 21.04518 18.446734 20.892578 18.427734 C 20.739973 18.408734 20.589235 18.392953 20.482422 18.376953 C 20.476122 18.376053 20.47481 18.376953 20.46875 18.376953 C 20.46605 18.366953 20.465691 18.367234 20.462891 18.365234 C 20.413671 18.268234 20.350153 18.130434 20.283203 17.990234 C 20.216253 17.850134 20.148215 17.708825 20.068359 17.578125 C 20.028429 17.513125 19.988177 17.450006 19.921875 17.378906 C 19.855575 17.307906 19.755401 17.174181 19.484375 17.175781 L 19.484375 17.173828 z M 7.9472656 18 A 0.50005 0.50005 0 0 0 7.9980469 19 L 12.998047 19 A 0.50005 0.50005 0 1 0 12.998047 18 L 7.9980469 18 A 0.50005 0.50005 0 0 0 7.9472656 18 z M 19.494141 18.646484 C 19.522411 18.705484 19.549975 18.766666 19.578125 18.822266 C 19.609725 18.884266 19.640864 18.942553 19.677734 19.001953 C 19.714604 19.061953 19.73126 19.119203 19.871094 19.220703 C 20.010912 19.322203 20.06928 19.319337 20.136719 19.335938 C 20.204159 19.351938 20.269315 19.363047 20.337891 19.373047 C 20.398891 19.383047 20.464705 19.390437 20.529297 19.398438 C 20.482207 19.444438 20.434181 19.489303 20.390625 19.533203 C 20.341705 19.583203 20.296402 19.631147 20.251953 19.685547 C 20.207503 19.739547 20.157625 19.7716 20.105469 19.9375 C 20.053309 20.1035 20.074538 20.160569 20.080078 20.230469 C 20.085578 20.300469 20.095872 20.366347 20.107422 20.435547 C 20.117712 20.497547 20.132091 20.562153 20.144531 20.626953 C 20.087111 20.595953 20.027761 20.563156 19.972656 20.535156 C 19.910826 20.503156 19.85144 20.475219 19.787109 20.449219 C 19.722779 20.423219 19.677891 20.385719 19.505859 20.386719 C 19.333739 20.386719 19.286676 20.426125 19.222656 20.453125 C 19.158636 20.480125 19.100507 20.509016 19.039062 20.541016 C 18.984462 20.570016 18.926005 20.602766 18.869141 20.634766 C 18.880751 20.569766 18.892834 20.504959 18.902344 20.443359 C 18.913044 20.374359 18.923044 20.308281 18.927734 20.238281 C 18.932434 20.168281 18.952627 20.112666 18.898438 19.947266 C 18.844268 19.781966 18.795104 19.748613 18.75 19.695312 C 18.7049 19.642312 18.6589 19.594022 18.609375 19.544922 C 18.565315 19.500922 18.516365 19.455456 18.46875 19.410156 C 18.53334 19.400156 18.599185 19.394766 18.660156 19.384766 C 18.728606 19.373766 18.79215 19.36075 18.859375 19.34375 C 18.926605 19.32675 18.986431 19.329362 19.125 19.226562 C 19.263565 19.123362 19.278319 19.065759 19.314453 19.005859 C 19.350593 18.945859 19.381279 18.885066 19.412109 18.822266 C 19.439559 18.766266 19.466601 18.706284 19.494141 18.646484 z M 1.9980469 23 L 4.9980469 23 L 4.9980469 24.5 L 4.9980469 24.501953 C 4.9980469 25.334827 4.3476203 25.989535 3.5175781 26 L 3.4980469 26 A 0.50005 0.50005 0 0 0 3.4785156 26 C 2.6484734 25.989535 1.9980469 25.334827 1.9980469 24.501953 L 1.9980469 23 z M 7.9472656 23 A 0.50005 0.50005 0 0 0 7.9980469 24 L 13.998047 24 A 0.50005 0.50005 0 1 0 13.998047 23 L 7.9980469 23 A 0.50005 0.50005 0 0 0 7.9472656 23 z M 19.998047 24.617188 C 20.122475 24.692994 20.250407 24.769396 20.373047 24.832031 C 20.445297 24.869031 20.51344 24.901687 20.597656 24.929688 C 20.681876 24.957688 20.773699 25.014125 20.994141 24.953125 C 20.996044 24.952601 20.996169 24.951701 20.998047 24.951172 L 20.998047 28.791016 L 19.832031 28.060547 A 0.50004997 0.50004997 0 0 0 19.3125 28.048828 L 17.996094 28.820312 L 17.996094 24.9375 C 18.022192 24.947488 18.031364 24.960164 18.064453 24.96875 C 18.28536 25.02675 18.375249 24.969359 18.458984 24.943359 C 18.542714 24.914359 18.611815 24.879797 18.683594 24.841797 C 18.787232 24.787652 18.892535 24.719752 18.998047 24.654297 L 18.998047 26.5 A 0.50005006 0.50005006 0 1 0 19.998047 26.5 L 19.998047 24.617188 z " transform="translate(0,1020.3622)"></path></g></svg>