<svg xmlns="http://www.w3.org/2000/svg" xmlns:xlink="http://www.w3.org/1999/xlink" version="1.1" x="0px" y="0px" width="100px" height="100px" viewBox="0 0 100 100" enable-background="new 0 0 100 100" xml:space="preserve">
<g id="Layer_2" display="none">
	<rect display="inline" fill="#000000" width="100" height="100"/>
</g>
<g id="Your_Icon">
	<g>
		<g>
			<path fill="#000000" d="M55.855,41.599c-0.24,0.141-0.641-0.102-0.893-0.54l-1.578-2.766c-0.25-0.435-0.256-0.904-0.014-1.042     l0.441-0.253c0.244-0.137,0.643,0.104,0.893,0.542l1.582,2.766c0.248,0.435,0.254,0.903,0.012,1.041L55.855,41.599z"/>
			<path d="M55.701,43.139c-0.785,0-1.566-0.511-2.039-1.333l-1.58-2.769c-0.365-0.635-0.48-1.352-0.314-1.961     c0.135-0.489,0.441-0.891,0.865-1.131l0.432-0.248c0.998-0.561,2.289-0.05,2.943,1.1l1.58,2.765     c0.367,0.638,0.48,1.353,0.314,1.962c-0.135,0.488-0.441,0.889-0.865,1.129l-0.441,0.25     C56.34,43.054,56.023,43.139,55.701,43.139z"/>
		</g>
		<g>
			<path d="M56.016,64.643H14.389c-0.632,0-1.195-0.396-1.41-0.99l-2.085-5.763c-0.262-0.724,0.065-1.526,0.758-1.861l8.066-3.899     l-4.579-5.896c-0.365-0.47-0.418-1.112-0.134-1.635c0.283-0.522,0.842-0.815,1.443-0.78l36.022,3.02l10.064-3.257l-2.645-4.41     c-0.277-0.464-0.285-1.041-0.018-1.511c0.266-0.47,0.764-0.761,1.305-0.761c19.229,0,27.312,13.793,27.646,14.38     c0.262,0.457,0.263,1.02,0.004,1.479C88.555,53.244,81.836,64.643,56.016,64.643z M15.442,61.643h40.574     c20.353,0,27.831-7.322,29.695-9.654c-0.807-1.155-2.587-3.434-5.433-5.687C75.584,42.586,70.081,40.472,63.887,40l2.19,3.655     c0.235,0.393,0.279,0.87,0.118,1.299c-0.16,0.428-0.508,0.759-0.942,0.899l-12.146,3.93c-0.189,0.062-0.393,0.083-0.586,0.068     l-32.917-2.759l3.619,4.661c0.277,0.357,0.379,0.82,0.276,1.262c-0.104,0.441-0.4,0.811-0.809,1.008l-8.517,4.117L15.442,61.643z     "/>
		</g>
		<g>
			<path d="M12.996,59.442c-0.776,0-1.434-0.598-1.493-1.385c-0.063-0.826,0.554-1.547,1.38-1.61l72.368-5.561     c0.82-0.077,1.548,0.553,1.61,1.379c0.063,0.826-0.554,1.547-1.38,1.611l-72.368,5.561     C13.074,59.441,13.035,59.442,12.996,59.442z"/>
		</g>
	</g>
</g>
</svg>
