<svg xmlns:cc="http://creativecommons.org/ns#" xmlns:rdf="http://www.w3.org/1999/02/22-rdf-syntax-ns#" xmlns:svg="http://www.w3.org/2000/svg" xmlns:sodipodi="http://sodipodi.sourceforge.net/DTD/sodipodi-0.dtd" xmlns:inkscape="http://www.inkscape.org/namespaces/inkscape" xmlns:dc="http://purl.org/dc/elements/1.1/" xmlns="http://www.w3.org/2000/svg" xmlns:xlink="http://www.w3.org/1999/xlink" version="1.1" x="0px" y="0px" viewBox="0 0 595.279 841.891" enable-background="new 0 0 595.279 841.891" xml:space="preserve"><g><path fill="#000000" d="M290.503,435.98c0-0.021-0.014-0.034-0.014-0.061v-9.57h-0.605c-4.972-39.751-40.342-70.666-83.106-70.666   c-45.852,0-83.201,35.533-83.718,79.393h-0.014v219.41h30.133V435.98c0-28.337,24.052-51.382,53.599-51.382   c29.535,0,53.572,23.052,53.572,51.382l0,0v218.506h30.133L290.503,435.98L290.503,435.98z"></path><g><path fill="#000000" d="M413.717,701.572l1.5-540.65l-47.662,0.324l0.435,539.863L413.717,701.572z"></path></g><g><path fill="#000000" d="M414.191,695.201l-39.979-0.289c0,0-66.52-1.761-68.575,2.739c-1.128,10.67-2.58,39.314,4.334,41.604    c17.82,0.748,114.267-0.45,131.616-0.479c5.824-1.19,41.501,1.805,40.731-3.331c-0.426-9.095,0.013-8.333-0.015-18.393    c0.049-0.663-0.048-15.583,0-16.273C481.663,693.934,414.191,695.201,414.191,695.201z"></path></g></g><ellipse cx="208.186" cy="657.761" rx="30.493" ry="28.932"></ellipse></svg>