<svg fill="#000000" xmlns="http://www.w3.org/2000/svg" xmlns:xlink="http://www.w3.org/1999/xlink" version="1.1" x="0px" y="0px" viewBox="0 0 12.45 12.45" enable-background="new 0 0 12.45 12.45" xml:space="preserve"><g><path d="M11.131,3.559c0-0.852-0.693-1.545-1.543-1.545c-0.365,0-0.699,0.139-0.969,0.359L8.027,2.511   C7.992,2.436,7.941,2.375,7.871,2.355C7.799,2.337,7.725,2.363,7.656,2.412L6.803,1.623C6.77,1.594,6.725,1.582,6.684,1.595   C6.643,1.605,6.609,1.64,6.598,1.684L6.373,2.529c-0.1-0.008-0.199-0.02-0.301-0.02c-0.631,0-1.238,0.139-1.805,0.41   C4.02,2.375,3.467,2.014,2.861,2.014c-0.852,0-1.543,0.693-1.543,1.545c0,0.621,0.375,1.182,0.943,1.422   C2.02,5.518,1.896,6.092,1.896,6.686c0,2.303,1.875,4.176,4.176,4.176c2.303,0,4.176-1.873,4.176-4.176   c0-0.561-0.109-1.105-0.326-1.621C10.617,4.91,11.131,4.281,11.131,3.559z M9.791,4.92L9.684,4.938l0.045,0.1   c0.234,0.521,0.355,1.076,0.355,1.648c0,2.211-1.799,4.01-4.012,4.01c-2.211,0-4.01-1.799-4.01-4.01c0-0.6,0.129-1.178,0.385-1.717   l0.039-0.082L2.4,4.855C1.852,4.662,1.482,4.139,1.482,3.559c0-0.76,0.619-1.379,1.379-1.379c0.566,0,1.084,0.355,1.287,0.883   l0.033,0.086l0.082-0.041C4.828,2.82,5.438,2.676,6.072,2.676c0.086,0,0.172,0.012,0.258,0.018l-0.135,0.51   c-0.012,0.041,0,0.087,0.029,0.119C6.252,3.354,6.299,3.367,6.34,3.359l1.154-0.236c0.035,0.06,0.078,0.107,0.141,0.124   c0.061,0.017,0.123-0.004,0.182-0.038l0.885,0.775C8.717,3.996,8.734,4.006,8.752,4.01c0.021,0.006,0.045,0.006,0.068,0   c0.041-0.014,0.074-0.047,0.084-0.088l0.074-0.281l0.797,0.787c0.27-0.273,0.268-0.713-0.006-0.984   C9.58,3.257,9.311,3.21,9.072,3.285l0.234-0.884c0.012-0.044,0-0.089-0.029-0.119C9.248,2.254,9.207,2.245,9.168,2.25   c0.135-0.043,0.275-0.07,0.42-0.07c0.76,0,1.377,0.619,1.377,1.379C10.965,4.234,10.461,4.82,9.791,4.92z"/><path d="M2.453,3.443C2.18,3.715,2.176,4.154,2.445,4.428l0.99-0.977C3.166,3.178,2.727,3.176,2.453,3.443z"/><path d="M6.176,6.396c-1.129,0-2.045,0.918-2.045,2.047c0,1.127,0.916,2.045,2.045,2.045S8.223,9.57,8.223,8.443   C8.223,7.314,7.305,6.396,6.176,6.396z M6.176,10.324c-1.037,0-1.881-0.844-1.881-1.881s0.844-1.881,1.881-1.881   s1.881,0.844,1.881,1.881S7.213,10.324,6.176,10.324z"/><path d="M6.141,8.285c0.594,0,0.732-0.91,0.732-0.91S6.734,7.072,6.176,7.072S5.412,7.375,5.412,7.375S5.549,8.285,6.141,8.285z"/><path d="M7.082,9.122c-0.002,0.003-0.174,0.31-0.453,0.31c-0.264,0-0.363-0.279-0.367-0.29c-0.033-0.102-0.205-0.102-0.238,0   c-0.002,0.003-0.102,0.29-0.369,0.29c-0.279,0-0.451-0.307-0.453-0.31C5.168,9.061,5.09,9.039,5.033,9.072   C4.973,9.105,4.949,9.181,4.982,9.241c0.01,0.018,0.244,0.44,0.672,0.44c0.24,0,0.395-0.128,0.488-0.249   c0.092,0.121,0.248,0.249,0.486,0.249c0.43,0,0.664-0.423,0.674-0.44c0.031-0.061,0.01-0.136-0.051-0.169   C7.193,9.039,7.115,9.061,7.082,9.122z"/><path d="M4.721,6.357c0.043-0.054,0.035-0.131-0.018-0.175C4.648,6.139,4.57,6.147,4.527,6.2C4.52,6.208,4.365,6.389,4.029,6.389   c-0.334,0-0.49-0.181-0.496-0.188C3.49,6.146,3.412,6.138,3.357,6.182C3.316,6.215,3.311,6.269,3.326,6.316   c-0.047,0.042-0.113,0.09-0.199,0.118c-0.16,0.05-0.313-0.052-0.314-0.052C2.77,6.35,2.705,6.361,2.674,6.408   c-0.031,0.045-0.02,0.107,0.025,0.139c0.008,0.005,0.148,0.102,0.334,0.102c0.049,0,0.102-0.007,0.154-0.024   c0.119-0.038,0.211-0.104,0.275-0.16c0.033,0.024,0.072,0.045,0.121,0.068C3.57,6.559,3.504,6.679,3.357,6.755   c-0.15,0.076-0.318,0.002-0.318,0.003c-0.053-0.024-0.111,0-0.133,0.049c-0.023,0.051-0.002,0.11,0.049,0.133   C2.961,6.942,3.068,6.99,3.205,6.99c0.076,0,0.16-0.015,0.244-0.058c0.221-0.114,0.318-0.315,0.326-0.33   c0.076,0.02,0.156,0.036,0.254,0.036C4.49,6.639,4.713,6.369,4.721,6.357z"/><path d="M9.324,6.398C9.15,6.344,9.049,6.204,9.049,6.202c0-0.001-0.002-0.001-0.002-0.001c-0.006-0.006-0.004-0.014-0.01-0.019   C9.025,6.174,9.012,6.177,9,6.172C8.99,6.168,8.982,6.164,8.973,6.164C8.93,6.158,8.889,6.166,8.861,6.2   C8.854,6.208,8.699,6.389,8.363,6.389c-0.334,0-0.49-0.181-0.496-0.188C7.824,6.146,7.746,6.138,7.691,6.182   c-0.053,0.043-0.063,0.122-0.02,0.176c0.01,0.012,0.23,0.281,0.691,0.281c0.127,0,0.232-0.021,0.322-0.052   c0.027,0.05,0.123,0.211,0.316,0.312C9.084,6.941,9.17,6.956,9.244,6.956c0.139,0,0.244-0.048,0.252-0.051   c0.049-0.022,0.07-0.082,0.049-0.132C9.521,6.723,9.459,6.7,9.412,6.724C9.41,6.723,9.242,6.797,9.094,6.721   C8.971,6.657,8.898,6.554,8.869,6.507C8.92,6.478,8.953,6.45,8.982,6.425C9.047,6.483,9.141,6.55,9.262,6.589   c0.055,0.018,0.107,0.024,0.156,0.024c0.184,0,0.326-0.097,0.334-0.102c0.045-0.031,0.055-0.094,0.023-0.14   C9.744,6.327,9.682,6.316,9.637,6.348C9.635,6.35,9.486,6.453,9.324,6.398z"/></g></svg>