<svg xmlns="http://www.w3.org/2000/svg" viewBox="0 0 27.31 22" x="0px" y="0px"><title>re</title><g data-name="Слой 2"><g data-name="Слой 1"><path d="M5.95,12.29l-1,1A8.93,8.93,0,0,1,13.66,2a1,1,0,0,0,0-2A11,11,0,0,0,3,13.54L1.71,12.29A1,1,0,0,0,.29,13.71l2.83,2.83a1,1,0,0,0,1.41,0l2.83-2.83a1,1,0,0,0-1.41-1.41Z"></path><path d="M27,9.12,24.19,6.29h0a1,1,0,0,0-.29-.19l0,0a1,1,0,0,0-.23,0l-.16,0h0a.94.94,0,0,0-.14,0,.65.65,0,0,0-.4.18.94.94,0,0,0-.12.08L19.95,9.12a1,1,0,1,0,1.41,1.41l1.22-1.22L22.66,11a9,9,0,0,1-9,9,1,1,0,0,0,0,2,11,11,0,0,0,11-11l-.06-1.43,1,1A1,1,0,0,0,27,9.12Z"></path></g></g></svg>