<svg fill="#000000" xmlns:dc="http://purl.org/dc/elements/1.1/" xmlns:cc="http://creativecommons.org/ns#" xmlns:rdf="http://www.w3.org/1999/02/22-rdf-syntax-ns#" xmlns:svg="http://www.w3.org/2000/svg" xmlns="http://www.w3.org/2000/svg" xmlns:sodipodi="http://sodipodi.sourceforge.net/DTD/sodipodi-0.dtd" xmlns:inkscape="http://www.inkscape.org/namespaces/inkscape" version="1.1" x="0px" y="0px" viewBox="0 0 100 100"><g transform="translate(0,-952.36218)"><path style="text-indent:0;text-transform:none;direction:ltr;block-progression:tb;baseline-shift:baseline;color:#000000;enable-background:accumulate;" d="m 7.8125096,967.36417 a 2.0002,2.0000739 0 0 0 -1.8125,2 l 0,45.99703 a 2.0002,2.0000739 0 0 0 2,2 l 29.0625004,0 -4.28125,15.999 -12.78125,0 a 2.0002,2.0000739 0 0 0 -0.1875,0 2.002322,2.0021958 0 1 0 0.1875,4 l 60,0 a 2.0002,2.0000739 0 1 0 0,-4 l -12.78125,0 -4.28125,-15.999 29.0625,0 a 2.0002,2.0000739 0 0 0 2,-2 l 0,-45.99703 a 2.0002,2.0000739 0 0 0 -2,-2 l -84.0000004,0 a 2.0002,2.0000739 0 0 0 -0.1875,0 z m 2.1875004,4 80,0 0,41.99803 -80,0 0,-41.99803 z m 31.90625,11.99901 a 2.0002851,1.9793951 0 0 0 -0.0625,0.03 2.0002851,1.9793951 0 0 0 -1.1875,0.563 l -7.0625,7 a 2.0002851,1.9793951 0 0 0 0,2.812 l 7.0625,6.99902 a 2.0004625,1.9795706 0 0 0 2.84375,-2.78102 l -3.65625,-3.624 20.3125,0 -3.65625,3.624 a 2.0004625,1.9795706 0 1 0 2.84375,2.78102 l 7.0625,-6.99902 a 2.0002851,1.9793951 0 0 0 0,-2.812 l -7.0625,-7 a 2.0002851,1.9793951 0 0 0 -1.625,-0.563 2.0002851,1.9793951 0 0 0 -1.21875,3.375 l 3.65625,3.625 -20.3125,0 3.65625,-3.625 a 2.0002851,1.9793951 0 0 0 -1.40625,-3.406 2.0002851,1.9793951 0 0 0 -0.1875,0 z m -0.6875,33.99802 17.5625,0 4.28125,15.999 -26.125,0 4.28125,-15.999 z" fill="#000000" fill-opacity="1" stroke="none" marker="none" visibility="visible" display="inline" overflow="visible"/></g></svg>