<svg fill="#000000" xmlns:dc="http://purl.org/dc/elements/1.1/" xmlns:cc="http://creativecommons.org/ns#" xmlns:rdf="http://www.w3.org/1999/02/22-rdf-syntax-ns#" xmlns:svg="http://www.w3.org/2000/svg" xmlns="http://www.w3.org/2000/svg" xmlns:sodipodi="http://sodipodi.sourceforge.net/DTD/sodipodi-0.dtd" xmlns:inkscape="http://www.inkscape.org/namespaces/inkscape" viewBox="0 0 32 32.000001" version="1.1" x="0px" y="0px"><g transform="translate(0,-1020.3622)"><path style="color:#000000;font-style:normal;font-variant:normal;font-weight:normal;font-stretch:normal;font-size:medium;line-height:normal;font-family:sans-serif;text-indent:0;text-align:start;text-decoration:none;text-decoration-line:none;text-decoration-style:solid;text-decoration-color:#000000;letter-spacing:normal;word-spacing:normal;text-transform:none;direction:ltr;block-progression:tb;writing-mode:lr-tb;baseline-shift:baseline;text-anchor:start;white-space:normal;clip-rule:nonzero;display:inline;overflow:visible;visibility:visible;opacity:1;isolation:auto;mix-blend-mode:normal;color-interpolation:sRGB;color-interpolation-filters:linearRGB;solid-color:#000000;solid-opacity:1;fill:#000000;fill-opacity:1;fill-rule:evenodd;stroke:none;stroke-width:1px;stroke-linecap:round;stroke-linejoin:round;stroke-miterlimit:4;stroke-dasharray:none;stroke-dashoffset:0;stroke-opacity:1;color-rendering:auto;image-rendering:auto;shape-rendering:auto;text-rendering:auto;enable-background:accumulate" d="m 14.488281,1031.4789 c -2.567849,0.034 -5.1101638,0.125 -7.7890622,0.125 -0.6544431,6e-4 -1.1929065,0.3577 -1.5996094,0.7812 -0.3707129,0.3861 -0.6352042,0.8431 -0.8476563,1.2657 a 0.50005,0.50005 0 0 0 -0.082031,0.123 c -0.033867,0.071 -0.015001,0.1453 -0.042969,0.2168 l -0.00586,0 a 0.50005,0.50005 0 0 0 0.00195,0.021 c -0.4031244,1.0504 -0.2517487,2.1662 -0.1757813,3.0899 0.070428,0.8529 0.096074,1.8772 0.6484375,2.7656 0.4966974,0.7989 1.2739938,1.4998 2.2207031,1.793 0.8757818,0.2712 1.9879783,0.1481 2.9355469,0 0.9475687,-0.1461 1.7148437,-0.3476 1.7148437,-0.3476 a 0.50005,0.50005 0 0 0 0.216797,-0.1211 l 2.876953,-2.7363 3.146484,3.082 a 0.50005,0.50005 0 0 0 0.31836,0.1426 c 0,0 0.792297,0.047 1.755859,0.016 0.963562,-0.032 2.087888,-0.1162 2.908203,-0.502 0.873276,-0.4105 1.672068,-1.1261 2.060547,-2.0566 0.682634,-1.6353 0.682634,-3.6186 0,-5.2539 -0.188102,-0.4506 -0.459125,-0.945 -0.832031,-1.3633 -0.372907,-0.4183 -0.870647,-0.7775 -1.490235,-0.8281 -2.779251,-0.2261 -5.371603,-0.2473 -7.939453,-0.2129 z m 0.0098,1 c 2.553225,-0.034 5.11536,-0.012 7.849609,0.2109 0.273213,0.022 0.555876,0.1951 0.824219,0.4961 0.268343,0.301 0.499599,0.7134 0.654297,1.084 0.568766,1.3625 0.568766,3.118 0,4.4805 -0.265321,0.6355 -0.891976,1.2238 -1.5625,1.539 -0.517585,0.2434 -1.603962,0.3781 -2.515625,0.4082 -0.815133,0.027 -1.348443,-0.01 -1.484375,-0.014 l -3.347656,-3.2813 a 0.50005,0.50005 0 0 0 -0.695313,-0.01 l -3.123047,2.9726 c -0.09318,0.024 -0.670838,0.1752 -1.4980466,0.3027 -0.8908564,0.1375 -1.967363,0.1907 -2.4882813,0.029 -0.6520906,-0.2019 -1.2852661,-0.7477 -1.6679687,-1.3632 -0.3670364,-0.5904 -0.4274285,-1.4415 -0.5,-2.3203 -0.086392,-1.0504 -0.2231697,-2.0771 0.1289062,-2.8125 0.1848369,-0.3862 0.4514498,-0.8182 0.7480469,-1.127 0.2965971,-0.3088 0.5949493,-0.4743 0.8789063,-0.4746 2.7013015,0 5.2456022,-0.091 7.7988282,-0.125 z"/><path style="color:#000000;font-style:normal;font-variant:normal;font-weight:normal;font-stretch:normal;font-size:medium;line-height:normal;font-family:sans-serif;text-indent:0;text-align:start;text-decoration:none;text-decoration-line:none;text-decoration-style:solid;text-decoration-color:#000000;letter-spacing:normal;word-spacing:normal;text-transform:none;direction:ltr;block-progression:tb;writing-mode:lr-tb;baseline-shift:baseline;text-anchor:start;white-space:normal;clip-rule:nonzero;display:inline;overflow:visible;visibility:visible;opacity:1;isolation:auto;mix-blend-mode:normal;color-interpolation:sRGB;color-interpolation-filters:linearRGB;solid-color:#000000;solid-opacity:1;fill:#000000;fill-opacity:1;fill-rule:evenodd;stroke:none;stroke-width:1px;stroke-linecap:butt;stroke-linejoin:miter;stroke-miterlimit:4;stroke-dasharray:none;stroke-dashoffset:0;stroke-opacity:1;color-rendering:auto;image-rendering:auto;shape-rendering:auto;text-rendering:auto;enable-background:accumulate" d="m 26.882812,1027.6683 0,10.3047 0,0.01 c 0,0 0.150524,3.5843 0.002,5.2676 -0.130397,1.4774 -0.06176,2.9522 -0.683594,4.0078 -0.30772,0.5224 -0.892926,0.9694 -1.50586,1.2168 -1.672804,0.675 -3.689846,0.5294 -5.669921,0.459 -0.844293,-0.031 -1.635779,0 -2.132813,-0.2989 -0.07875,-0.048 -0.343674,-0.3497 -0.517578,-0.6289 -0.143083,-0.2297 -0.209161,-0.3654 -0.242188,-0.4316 -0.0071,-0.014 -0.05078,-0.094 -0.05078,-0.094 l 0.02148,0.094 -0.970704,0 0,0.2383 0.04883,0.1015 c 0,0 0.140457,0.2896 0.345703,0.6192 0.205246,0.3295 0.441055,0.7112 0.845703,0.957 0.870166,0.5284 1.85948,0.4159 2.617187,0.4434 1.948125,0.069 4.111683,0.2631 6.080078,-0.5313 0.785667,-0.317 1.538108,-0.8659 1.992188,-1.6367 0.830167,-1.4092 0.697756,-3.0613 0.818359,-4.4277 0.163377,-1.8511 0.0032,-5.349 0.002,-5.377 l 0,-0.022 0,-10.2715 -1,0 z"/><path style="color:#000000;font-style:normal;font-variant:normal;font-weight:normal;font-stretch:normal;font-size:medium;line-height:normal;font-family:sans-serif;text-indent:0;text-align:start;text-decoration:none;text-decoration-line:none;text-decoration-style:solid;text-decoration-color:#000000;letter-spacing:normal;word-spacing:normal;text-transform:none;direction:ltr;block-progression:tb;writing-mode:lr-tb;baseline-shift:baseline;text-anchor:start;white-space:normal;clip-rule:nonzero;display:inline;overflow:visible;visibility:visible;opacity:1;isolation:auto;mix-blend-mode:normal;color-interpolation:sRGB;color-interpolation-filters:linearRGB;solid-color:#000000;solid-opacity:1;fill:#000000;fill-opacity:1;fill-rule:evenodd;stroke:none;stroke-width:1px;stroke-linecap:butt;stroke-linejoin:miter;stroke-miterlimit:4;stroke-dasharray:none;stroke-dashoffset:0;stroke-opacity:1;color-rendering:auto;image-rendering:auto;shape-rendering:auto;text-rendering:auto;enable-background:accumulate" d="m 30.007812,1027.8988 -1,0.033 c 0,0 0.363946,11.0673 0,16.5078 -0.08515,1.2808 -0.06312,2.5309 -0.466796,3.5742 -0.328131,0.8486 -0.790243,1.6807 -1.439454,2.1231 -0.872316,0.5945 -2.171402,0.635 -3.464843,0.7851 -2.363407,0.2745 -4.668982,0.2764 -7.136719,0 -0.340011,-0.038 -0.656785,-0.249 -0.978516,-0.5957 -0.32173,-0.3466 -0.622337,-0.8093 -0.914062,-1.2363 -0.115925,-0.1696 -0.297178,-0.6068 -0.417969,-0.9726 -0.120791,-0.3659 -0.197265,-0.668 -0.197265,-0.668 l -0.96875,0.248 c 0,0 0.08449,0.3318 0.216796,0.7325 0.132309,0.4007 0.296294,0.8635 0.542969,1.2246 0.279175,0.4086 0.598065,0.9122 1.005859,1.3515 0.407795,0.4394 0.928621,0.8351 1.59961,0.9102 2.536863,0.2841 4.926088,0.283 7.363281,0 1.215959,-0.1412 2.701826,-0.1283 3.912109,-0.9531 0.93219,-0.6352 1.451478,-1.6593 1.810547,-2.5879 0.500324,-1.2931 0.450396,-2.6529 0.53125,-3.8692 0.372855,-5.5737 0.002,-16.6074 0.002,-16.6074 z"/><path style="color:#000000;font-style:normal;font-variant:normal;font-weight:normal;font-stretch:normal;font-size:medium;line-height:normal;font-family:sans-serif;text-indent:0;text-align:start;text-decoration:none;text-decoration-line:none;text-decoration-style:solid;text-decoration-color:#000000;letter-spacing:normal;word-spacing:normal;text-transform:none;direction:ltr;block-progression:tb;writing-mode:lr-tb;baseline-shift:baseline;text-anchor:start;white-space:normal;clip-rule:nonzero;display:inline;overflow:visible;visibility:visible;opacity:1;isolation:auto;mix-blend-mode:normal;color-interpolation:sRGB;color-interpolation-filters:linearRGB;solid-color:#000000;solid-opacity:1;fill:#000000;fill-opacity:1;fill-rule:evenodd;stroke:none;stroke-width:1px;stroke-linecap:round;stroke-linejoin:round;stroke-miterlimit:4;stroke-dasharray:none;stroke-dashoffset:0;stroke-opacity:1;color-rendering:auto;image-rendering:auto;shape-rendering:auto;text-rendering:auto;enable-background:accumulate" d="m 11.814453,1044.3461 a 0.50005,0.50005 0 0 0 -0.462891,0.5 0.50005,0.50005 0 0 0 0,0.02 c 0,0 0.01243,0.3049 0.06055,0.6719 0.04812,0.367 0.107391,0.7875 0.314453,1.1621 0.299937,0.5427 0.768854,1.0613 1.414063,1.3105 0.774562,0.299 1.670896,0.2839 2.435547,-0.037 0.58036,-0.2437 0.909775,-0.7318 1.162109,-1.1172 0.21514,-0.3284 0.364273,-0.7412 0.486328,-1.0996 0.122056,-0.3583 0.203125,-0.6543 0.203125,-0.6543 a 0.50005,0.50005 0 0 0 -0.470703,-0.6328 l -5.09375,-0.123 a 0.50005,0.50005 0 0 0 -0.04883,0 z m 0.585938,1.0137 3.86914,0.094 c -0.111134,0.3225 -0.268364,0.7026 -0.367187,0.8535 -0.229266,0.3501 -0.479251,0.6461 -0.712891,0.7442 -0.501749,0.2106 -1.182615,0.221 -1.689453,0.025 -0.343591,-0.1327 -0.688174,-0.4808 -0.898438,-0.8613 -0.05814,-0.1052 -0.155431,-0.4895 -0.197265,-0.8086 -0.0034,-0.026 -9.27e-4,-0.022 -0.0039,-0.047 z"/><path style="color:#000000;font-style:normal;font-variant:normal;font-weight:normal;font-stretch:normal;font-size:medium;line-height:normal;font-family:sans-serif;text-indent:0;text-align:start;text-decoration:none;text-decoration-line:none;text-decoration-style:solid;text-decoration-color:#000000;letter-spacing:normal;word-spacing:normal;text-transform:none;direction:ltr;block-progression:tb;writing-mode:lr-tb;baseline-shift:baseline;text-anchor:start;white-space:normal;clip-rule:nonzero;display:inline;overflow:visible;visibility:visible;opacity:1;isolation:auto;mix-blend-mode:normal;color-interpolation:sRGB;color-interpolation-filters:linearRGB;solid-color:#000000;solid-opacity:1;fill:#000000;fill-opacity:1;fill-rule:evenodd;stroke:none;stroke-width:1px;stroke-linecap:butt;stroke-linejoin:round;stroke-miterlimit:4;stroke-dasharray:none;stroke-dashoffset:0;stroke-opacity:1;color-rendering:auto;image-rendering:auto;shape-rendering:auto;text-rendering:auto;enable-background:accumulate" d="m 30.744141,1024.7797 -4.5,0.125 a 0.50005,0.50005 0 0 0 -0.472657,0.3769 c 0,0 -0.08555,0.3418 -0.132812,0.7559 -0.04726,0.414 -0.110572,0.8975 0.148437,1.373 0.338509,0.6214 0.981956,0.8096 1.427735,0.9512 a 0.50005,0.50005 0 0 0 0.002,0 c 0.733476,0.2326 1.631704,0.428 2.492187,0.1172 0.615803,-0.2224 1.088292,-0.7042 1.357422,-1.2598 0.204296,-0.4217 0.21082,-0.8741 0.214844,-1.2676 0.004,-0.3934 -0.02539,-0.7168 -0.02539,-0.7167 a 0.50005,0.50005 0 0 0 -0.511718,-0.4551 z m -0.46875,1.0136 c 0.0018,0.071 0.0067,0.067 0.0059,0.1485 -0.0035,0.3373 -0.06628,0.7448 -0.113281,0.8418 -0.15867,0.3276 -0.486831,0.6412 -0.798828,0.7539 -0.502317,0.1814 -1.203839,0.076 -1.851563,-0.1289 -0.410221,-0.1304 -0.762671,-0.3134 -0.851562,-0.4766 -0.02329,-0.043 -0.07202,-0.4412 -0.0332,-0.7812 0.01601,-0.1403 0.02525,-0.1526 0.04492,-0.2578 l 3.597657,-0.1 z"/><path style="color:#000000;font-style:normal;font-variant:normal;font-weight:normal;font-stretch:normal;font-size:medium;line-height:normal;font-family:sans-serif;text-indent:0;text-align:start;text-decoration:none;text-decoration-line:none;text-decoration-style:solid;text-decoration-color:#000000;letter-spacing:normal;word-spacing:normal;text-transform:none;direction:ltr;block-progression:tb;writing-mode:lr-tb;baseline-shift:baseline;text-anchor:start;white-space:normal;clip-rule:nonzero;display:inline;overflow:visible;visibility:visible;opacity:1;isolation:auto;mix-blend-mode:normal;color-interpolation:sRGB;color-interpolation-filters:linearRGB;solid-color:#000000;solid-opacity:1;fill:#000000;fill-opacity:1;fill-rule:evenodd;stroke:none;stroke-width:1px;stroke-linecap:round;stroke-linejoin:round;stroke-miterlimit:4;stroke-dasharray:none;stroke-dashoffset:0;stroke-opacity:1;color-rendering:auto;image-rendering:auto;shape-rendering:auto;text-rendering:auto;enable-background:accumulate" d="m 12.929688,1042.4848 a 0.50005,0.50005 0 0 0 -0.01953,0.998 l 3.125,0.2187 a 0.50023692,0.50023692 0 1 0 0.07031,-0.998 l -3.125,-0.2168 a 0.50005,0.50005 0 0 0 -0.05078,0 z"/><path style="color:#000000;font-style:normal;font-variant:normal;font-weight:normal;font-stretch:normal;font-size:medium;line-height:normal;font-family:sans-serif;text-indent:0;text-align:start;text-decoration:none;text-decoration-line:none;text-decoration-style:solid;text-decoration-color:#000000;letter-spacing:normal;word-spacing:normal;text-transform:none;direction:ltr;block-progression:tb;writing-mode:lr-tb;baseline-shift:baseline;text-anchor:start;white-space:normal;clip-rule:nonzero;display:inline;overflow:visible;visibility:visible;opacity:1;isolation:auto;mix-blend-mode:normal;color-interpolation:sRGB;color-interpolation-filters:linearRGB;solid-color:#000000;solid-opacity:1;fill:#000000;fill-opacity:1;fill-rule:evenodd;stroke:none;stroke-width:1px;stroke-linecap:butt;stroke-linejoin:miter;stroke-miterlimit:4;stroke-dasharray:none;stroke-dashoffset:0;stroke-opacity:1;color-rendering:auto;image-rendering:auto;shape-rendering:auto;text-rendering:auto;enable-background:accumulate" d="m 3.171875,1022.5922 c -0.4897337,-0.01 -0.8677766,0.2353 -1.1464844,0.4668 -0.5482108,0.4554 -1.2825061,1.1027 -1.3066406,2.0605 -0.0260293,1.0122 0.5305559,2.0915 1.5195312,2.5117 1.0909019,0.4637 2.4694482,0.1473 3.2460938,-0.7461 0.7216794,-0.83 0.7958066,-2.1045 0.2539062,-3.0351 -0.5382405,-0.9244 -1.650117,-1.2416 -2.5664062,-1.2578 z m -0.017578,1 c 0.6649108,0.012 1.4677437,0.3253 1.7207031,0.7597 0.2860997,0.4914 0.2149894,1.4635 -0.1445312,1.877 -0.4183544,0.4812 -1.5106644,0.7336 -2.1015626,0.4824 -0.4742246,-0.2015 -0.9247269,-0.9998 -0.9101562,-1.5664 0.00987,-0.3915 0.4522765,-0.9052 0.9472656,-1.3164 0.1766922,-0.1467 0.384215,-0.2381 0.4882813,-0.2363 z"/><path style="color:#000000;font-style:normal;font-variant:normal;font-weight:normal;font-stretch:normal;font-size:medium;line-height:normal;font-family:sans-serif;text-indent:0;text-align:start;text-decoration:none;text-decoration-line:none;text-decoration-style:solid;text-decoration-color:#000000;letter-spacing:normal;word-spacing:normal;text-transform:none;direction:ltr;block-progression:tb;writing-mode:lr-tb;baseline-shift:baseline;text-anchor:start;white-space:normal;clip-rule:nonzero;display:inline;overflow:visible;visibility:visible;opacity:1;isolation:auto;mix-blend-mode:normal;color-interpolation:sRGB;color-interpolation-filters:linearRGB;solid-color:#000000;solid-opacity:1;fill:#000000;fill-opacity:1;fill-rule:evenodd;stroke:none;stroke-width:1px;stroke-linecap:butt;stroke-linejoin:miter;stroke-miterlimit:4;stroke-dasharray:none;stroke-dashoffset:0;stroke-opacity:1;color-rendering:auto;image-rendering:auto;shape-rendering:auto;text-rendering:auto;enable-background:accumulate" d="m 8.015153,1020.5193 c -0.5858109,0.018 -0.9749423,0.4109 -1.2302546,0.7568 -0.3301957,0.4477 -0.6730099,1.088 -0.4775833,1.8033 0.1957844,0.7164 0.7873649,1.2222 1.4633152,1.3789 0.7320714,0.1698 1.6002514,-0.01 2.1128286,-0.6787 0.4829371,-0.6345 0.4595701,-1.4881 0.1012472,-2.1377 -0.3948764,-0.7159 -1.1732171,-1.1473 -1.9695531,-1.1226 z m 0.030565,1.0014 c 0.3709173,-0.011 0.9110427,0.2951 1.0869796,0.6141 0.1500896,0.2721 0.1321988,0.8295 -0.021013,1.0307 -0.1775636,0.2333 -0.7574926,0.4001 -1.1251863,0.3149 -0.2943155,-0.068 -0.6669368,-0.4131 -0.7373885,-0.6709 -0.054574,-0.1997 0.084759,-0.6166 0.3152049,-0.9289 0.1513778,-0.2051 0.3895937,-0.3571 0.481404,-0.3599 z"/><path style="color:#000000;font-style:normal;font-variant:normal;font-weight:normal;font-stretch:normal;font-size:medium;line-height:normal;font-family:sans-serif;text-indent:0;text-align:start;text-decoration:none;text-decoration-line:none;text-decoration-style:solid;text-decoration-color:#000000;letter-spacing:normal;word-spacing:normal;text-transform:none;direction:ltr;block-progression:tb;writing-mode:lr-tb;baseline-shift:baseline;text-anchor:start;white-space:normal;clip-rule:nonzero;display:inline;overflow:visible;visibility:visible;opacity:1;isolation:auto;mix-blend-mode:normal;color-interpolation:sRGB;color-interpolation-filters:linearRGB;solid-color:#000000;solid-opacity:1;fill:#000000;fill-opacity:1;fill-rule:evenodd;stroke:none;stroke-width:1px;stroke-linecap:butt;stroke-linejoin:miter;stroke-miterlimit:4;stroke-dasharray:none;stroke-dashoffset:0;stroke-opacity:1;color-rendering:auto;image-rendering:auto;shape-rendering:auto;text-rendering:auto;enable-background:accumulate" d="m 7.484375,1027.4769 c -0.4253223,-0.01 -0.7738194,0.2034 -1.0351562,0.4629 -0.2613369,0.2596 -0.4556398,0.5849 -0.5,0.9727 -0.039402,0.3416 0.062824,0.6488 0.2304687,0.9121 0.1676448,0.2633 0.4129668,0.4988 0.765625,0.5898 0.4452533,0.1152 0.8915404,0.023 1.2871094,-0.1718 0.395569,-0.1952 0.7812978,-0.5232 0.8632812,-1.0391 0.078688,-0.4973 -0.1739206,-0.9088 -0.4746093,-1.2031 -0.3006888,-0.2943 -0.6807391,-0.515 -1.1347657,-0.5235 l -0.00195,0 z m -0.017578,1 0.00195,0 c 0.084325,0 0.3053881,0.094 0.453125,0.2383 0.1482362,0.1451 0.1902592,0.3023 0.1855469,0.332 -0.00802,0.051 -0.1086003,0.1964 -0.3164063,0.2989 -0.207806,0.1025 -0.4818564,0.131 -0.5957031,0.1015 -0.019242,0 -0.1090698,-0.061 -0.171875,-0.1601 -0.062805,-0.099 -0.086329,-0.2225 -0.082031,-0.2598 l 0,0 c 0.00964,-0.084 0.091778,-0.2567 0.2128907,-0.377 0.120534,-0.1197 0.258449,-0.1721 0.3125,-0.1719 z"/><path style="color:#000000;font-style:normal;font-variant:normal;font-weight:normal;font-stretch:normal;font-size:medium;line-height:normal;font-family:sans-serif;text-indent:0;text-align:start;text-decoration:none;text-decoration-line:none;text-decoration-style:solid;text-decoration-color:#000000;letter-spacing:normal;word-spacing:normal;text-transform:none;direction:ltr;block-progression:tb;writing-mode:lr-tb;baseline-shift:baseline;text-anchor:start;white-space:normal;clip-rule:nonzero;display:inline;overflow:visible;visibility:visible;opacity:1;isolation:auto;mix-blend-mode:normal;color-interpolation:sRGB;color-interpolation-filters:linearRGB;solid-color:#000000;solid-opacity:1;fill:#000000;fill-opacity:1;fill-rule:evenodd;stroke:none;stroke-width:0.5;stroke-linecap:round;stroke-linejoin:round;stroke-miterlimit:4;stroke-dasharray:none;stroke-dashoffset:0;stroke-opacity:1;color-rendering:auto;image-rendering:auto;shape-rendering:auto;text-rendering:auto;enable-background:accumulate" d="m 8.1582031,1032.7719 a 0.250025,0.250025 0 0 0 -0.1894531,0.09 l -2.8066406,3.2441 a 0.250025,0.250025 0 1 0 0.3769531,0.3282 l 2.8066406,-3.2461 a 0.250025,0.250025 0 0 0 -0.1875,-0.416 z"/><path style="color:#000000;font-style:normal;font-variant:normal;font-weight:normal;font-stretch:normal;font-size:medium;line-height:normal;font-family:sans-serif;text-indent:0;text-align:start;text-decoration:none;text-decoration-line:none;text-decoration-style:solid;text-decoration-color:#000000;letter-spacing:normal;word-spacing:normal;text-transform:none;direction:ltr;block-progression:tb;writing-mode:lr-tb;baseline-shift:baseline;text-anchor:start;white-space:normal;clip-rule:nonzero;display:inline;overflow:visible;visibility:visible;opacity:1;isolation:auto;mix-blend-mode:normal;color-interpolation:sRGB;color-interpolation-filters:linearRGB;solid-color:#000000;solid-opacity:1;fill:#000000;fill-opacity:1;fill-rule:evenodd;stroke:none;stroke-width:0.5;stroke-linecap:round;stroke-linejoin:round;stroke-miterlimit:4;stroke-dasharray:none;stroke-dashoffset:0;stroke-opacity:1;color-rendering:auto;image-rendering:auto;shape-rendering:auto;text-rendering:auto;enable-background:accumulate" d="m 8.7128906,1033.4301 a 0.250025,0.250025 0 0 0 -0.1914062,0.088 l -2.7402344,3.1582 a 0.250025,0.250025 0 1 0 0.3769531,0.3281 l 2.7402344,-3.1582 a 0.250025,0.250025 0 0 0 -0.1855469,-0.416 z"/><path style="color:#000000;font-style:normal;font-variant:normal;font-weight:normal;font-stretch:normal;font-size:medium;line-height:normal;font-family:sans-serif;text-indent:0;text-align:start;text-decoration:none;text-decoration-line:none;text-decoration-style:solid;text-decoration-color:#000000;letter-spacing:normal;word-spacing:normal;text-transform:none;direction:ltr;block-progression:tb;writing-mode:lr-tb;baseline-shift:baseline;text-anchor:start;white-space:normal;clip-rule:nonzero;display:inline;overflow:visible;visibility:visible;opacity:1;isolation:auto;mix-blend-mode:normal;color-interpolation:sRGB;color-interpolation-filters:linearRGB;solid-color:#000000;solid-opacity:1;fill:#000000;fill-opacity:1;fill-rule:evenodd;stroke:none;stroke-width:0.5;stroke-linecap:round;stroke-linejoin:round;stroke-miterlimit:4;stroke-dasharray:none;stroke-dashoffset:0;stroke-opacity:1;color-rendering:auto;image-rendering:auto;shape-rendering:auto;text-rendering:auto;enable-background:accumulate" d="m 9.1367188,1034.3285 a 0.250025,0.250025 0 0 0 -0.1933594,0.084 l -2.5839844,2.8515 a 0.250025,0.250025 0 1 0 0.3691406,0.336 l 2.5859375,-2.8516 a 0.250025,0.250025 0 0 0 -0.1777343,-0.4199 z"/><path style="color:#000000;font-style:normal;font-variant:normal;font-weight:normal;font-stretch:normal;font-size:medium;line-height:normal;font-family:sans-serif;text-indent:0;text-align:start;text-decoration:none;text-decoration-line:none;text-decoration-style:solid;text-decoration-color:#000000;letter-spacing:normal;word-spacing:normal;text-transform:none;direction:ltr;block-progression:tb;writing-mode:lr-tb;baseline-shift:baseline;text-anchor:start;white-space:normal;clip-rule:nonzero;display:inline;overflow:visible;visibility:visible;opacity:1;isolation:auto;mix-blend-mode:normal;color-interpolation:sRGB;color-interpolation-filters:linearRGB;solid-color:#000000;solid-opacity:1;fill:#000000;fill-opacity:1;fill-rule:evenodd;stroke:none;stroke-width:0.5;stroke-linecap:round;stroke-linejoin:round;stroke-miterlimit:4;stroke-dasharray:none;stroke-dashoffset:0;stroke-opacity:1;color-rendering:auto;image-rendering:auto;shape-rendering:auto;text-rendering:auto;enable-background:accumulate" d="m 9.3769531,1035.3598 a 0.250025,0.250025 0 0 0 -0.1679687,0.086 l -2.1875,2.4336 a 0.250025,0.250025 0 1 0 0.3710937,0.334 l 2.1875,-2.4336 a 0.250025,0.250025 0 0 0 -0.203125,-0.4199 z"/><path style="color:#000000;font-style:normal;font-variant:normal;font-weight:normal;font-stretch:normal;font-size:medium;line-height:normal;font-family:sans-serif;text-indent:0;text-align:start;text-decoration:none;text-decoration-line:none;text-decoration-style:solid;text-decoration-color:#000000;letter-spacing:normal;word-spacing:normal;text-transform:none;direction:ltr;block-progression:tb;writing-mode:lr-tb;baseline-shift:baseline;text-anchor:start;white-space:normal;clip-rule:nonzero;display:inline;overflow:visible;visibility:visible;opacity:1;isolation:auto;mix-blend-mode:normal;color-interpolation:sRGB;color-interpolation-filters:linearRGB;solid-color:#000000;solid-opacity:1;fill:#000000;fill-opacity:1;fill-rule:evenodd;stroke:none;stroke-width:0.5;stroke-linecap:round;stroke-linejoin:round;stroke-miterlimit:4;stroke-dasharray:none;stroke-dashoffset:0;stroke-opacity:1;color-rendering:auto;image-rendering:auto;shape-rendering:auto;text-rendering:auto;enable-background:accumulate" d="m 9.9121094,1036.3246 a 0.250025,0.250025 0 0 0 -0.1699219,0.08 l -1.8769531,1.9961 a 0.250025,0.250025 0 1 0 0.3632812,0.3418 l 1.8789064,-1.9942 a 0.250025,0.250025 0 0 0 -0.1953126,-0.4238 z"/></g></svg>