<svg xmlns="http://www.w3.org/2000/svg" xmlns:xlink="http://www.w3.org/1999/xlink" version="1.1" id="Layer_1" x="0px" y="0px" width="85.311px" height="100px" viewBox="0 0 85.311 100" enable-background="new 0 0 85.311 100" xml:space="preserve">
<path d="M81.94,90.822c0.018-1.198,1.07-2.77,0.923-4.001c-0.23-1.923,1.739-3.946,2.449-6.016  c-0.769-2.011-2.141-2.888-3.372-4.851c-0.638-1.017-1.286-2.727-2.307-3.668C66.272,59.98,51.98,46.41,38.426,34.315  c-1.316-1.175-1.787-2.339-1.736-4.07c0.255-8.671,0.8-27.588,0.8-28.685C26.35,1.109,13.818,0.435,3.087,0  C2.824,0,2.692,0.165,2.668,0.39C2.634,0.697,2.648,1.644,2.761,1.914c1.814,4.346-0.259,8.566-2.144,12.46  c-0.988,2.041-0.841,2.788,0.814,4.585c1.884,2.044,3.577,5.461,3.371,8.606c-0.203,3.104,0.587,7.168,3.708,8.915  c1.616,0.905,1.94,2.974,2.504,4.572c0.648,1.838,3.076,3.904,3.658,3.072c0.582-0.832,1.193-4.196,1.594-3.676  c0.401,0.52-0.241,2.975,0.191,4.39c0.589,1.929,2.044,3.428,1.444,3.424c-1.041-0.007-3.131-2.904-3.633-2.182  c-0.954,1.375,0.905,2.394,0.684,3.325c-0.532,2.248,1.563,2.725,2.658,3.283c0.912,0.464,2.162,0.78,2.552,1.641  c0.366,0.808-0.285,2.227-0.629,2.427c-1.624,0.944-1.304,2.072-0.497,3.139c2.261,2.992,3.678,4.344,5.703,7.481  c2.011,0.946,3.253,4.791,4.377,7.749c0.043,4.172,0.959,4.808,5.175,5.129c0.157,0.012,0.315,0.022,0.473,0.025  c2.616,0.056,4.445-0.131,6.006,2.595c0.2,0.349,1.567,0.754,2.007,0.85c2.807,0.617,4.619,1.398,6.571,3.468  c4.614,1.656,6.329,3.525,7.485,8.889c2.808,1.248,1.498,4.104,3.04,3.908c6.251-0.793,15.274-1.691,21.521-2.51  c2.52-0.33,2.632-1.042,1.364-3.271C82.135,93.118,81.92,92.099,81.94,90.822z M81.46,81.556c-0.858,1.488-1.921,3.332-1.709,5.508  c-0.04,0.201-0.19,0.622-0.292,0.908c-0.292,0.816-0.622,1.742-0.638,2.803c-0.021,1.423,0.184,2.64,0.655,3.806  c-2.995,0.374-6.495,0.764-9.897,1.143c-2.758,0.308-5.589,0.623-8.109,0.926c-0.338-0.816-0.903-1.753-1.901-2.54  c-1.347-5.145-3.64-7.714-8.485-9.597c-2.368-2.301-4.706-3.189-7.638-3.834c-0.109-0.024-0.289-0.077-0.461-0.133  c-2.29-3.295-5.34-3.341-7.609-3.375c-0.178-0.003-0.359-0.005-0.545-0.009c-0.102-0.002-0.204-0.009-0.304-0.017  c-1.266-0.096-1.87-0.206-2.158-0.288c-0.053-0.246-0.122-0.756-0.133-1.762l-0.006-0.556l-0.198-0.52  c-0.113-0.299-0.228-0.606-0.345-0.919c-1.116-2.996-2.366-6.349-4.727-8.021c-1.196-1.792-2.212-3.036-3.282-4.346  c-0.522-0.639-1.058-1.295-1.648-2.055c1.316-1.507,1.683-4.066,0.972-5.634c-0.641-1.413-1.806-2.134-2.788-2.6  c0.201-0.2,0.376-0.429,0.522-0.684c0.97-1.698,0.082-3.206-0.449-4.107c-0.298-0.505-0.668-1.134-0.848-1.723  c-0.055-0.254,0.001-1.085,0.03-1.532c0.087-1.312,0.178-2.669-0.734-3.851c-0.622-0.807-1.555-1.269-2.559-1.269  c-1.281,0-2.092,0.592-2.648,1.393c-0.509-1.596-1.338-3.703-3.495-4.91c-1.787-1-2.258-3.851-2.118-5.989  c0.288-4.396-2.077-8.633-4.19-10.924c-0.262-0.284-0.425-0.479-0.526-0.61c0.047-0.117,0.118-0.279,0.225-0.501l0.043-0.088  C5.17,12.13,7.225,7.885,6.395,3.261C10.74,3.45,15.34,3.669,19.819,3.882c4.807,0.229,9.748,0.464,14.48,0.667  c-0.15,5.692-0.507,18.082-0.728,25.604c-0.078,2.667,0.804,4.729,2.777,6.49c9.005,8.035,18.421,16.802,27.528,25.281  c4.511,4.2,9.176,8.543,13.643,12.658c0.301,0.277,0.747,1.135,1.042,1.703c0.231,0.444,0.47,0.904,0.735,1.327  c0.615,0.981,1.23,1.708,1.772,2.35c0.313,0.37,0.56,0.667,0.762,0.942C81.714,81.114,81.588,81.333,81.46,81.556z"/>
</svg>
