<svg xmlns="http://www.w3.org/2000/svg" version="1.1" width="100px" height="100px" viewBox="0 0 32 32">
<path d="M15,25.125c0,0.553,0.447,1,1,1c0.553,0,1-0.447,1-1S16,22.5,16,22.5S15,24.572,15,25.125z   M4.5,25.125c0,0.553,0.448,1,1,1s1-0.447,1-1s-1-2.625-1-2.625S4.5,24.572,4.5,25.125z M10.125,28.125c0,0.553,0.448,1,1,1  s1-0.447,1-1s-1-2.625-1-2.625S10.125,27.572,10.125,28.125z M19.875,28.125c0,0.553,0.447,1,1,1s1-0.447,1-1s-1-2.625-1-2.625  S19.875,27.572,19.875,28.125z M28.317,13.553c0.512-0.858,0.807-1.859,0.807-2.928c0-3.17-2.579-5.75-5.75-5.75  c-0.037,0-0.073,0-0.11,0.002c-1.229-1.868-3.311-3.002-5.576-3.002c-1.138,0-2.234,0.285-3.225,0.829  c-1.118-0.584-2.357-0.891-3.62-0.891C6.519,1.812,3,5.331,3,9.656c0,1.326,0.343,2.568,0.928,3.663  c-1.022,0.816-1.679,2.071-1.679,3.478c0,2.455,1.998,4.453,4.453,4.453h18.593c2.456,0,4.455-1.998,4.46-4.452  C29.755,15.516,29.194,14.367,28.317,13.553z M10.844,3.812c1.096,0,2.169,0.311,3.104,0.9l0.555,0.35l0.542-0.371  c0.781-0.534,1.695-0.816,2.643-0.816c1.752,0,3.35,0.968,4.156,2.527l0.325,0.625l0.798-0.11c0.135-0.019,0.268-0.042,0.407-0.042  c2.067,0,3.75,1.682,3.75,3.75c0,0.709-0.218,1.358-0.565,1.921c-0.181-0.054-0.361-0.11-0.552-0.141  c-1.04-1.985-3.075-3.236-5.353-3.236c-0.523,0-1.043,0.067-1.545,0.2C17.717,7.559,15.59,6.5,13.277,6.5  c-3.513,0-6.525,2.523-7.219,5.891c-0.112,0.016-0.216,0.054-0.325,0.078C5.271,11.633,5,10.677,5,9.656  C5,6.434,7.622,3.812,10.844,3.812z M25.295,19.25H6.702c-1.353,0-2.453-1.1-2.453-2.453c0-1.351,1.098-2.45,2.44-2.45  c0.002,0,0.003,0,0.004-0.001l1.154,0.075l0.077-0.976c0.219-2.773,2.57-4.945,5.352-4.945c1.883,0,3.596,0.964,4.583,2.578  l0.447,0.731l0.791-0.33c0.493-0.207,1.019-0.311,1.557-0.311c1.664,0,3.137,1.001,3.752,2.549l0.248,0.623l0.67,0.008  c1.338,0.016,2.426,1.115,2.426,2.449C27.75,18.148,26.648,19.25,25.295,19.25z M25.5,25.125c0,0.553,0.447,1,1,1s1-0.447,1-1  s-1-2.625-1-2.625S25.5,24.572,25.5,25.125z"/>
</svg>
