<svg fill="#000000" xmlns:dc="http://purl.org/dc/elements/1.1/" xmlns:cc="http://creativecommons.org/ns#" xmlns:rdf="http://www.w3.org/1999/02/22-rdf-syntax-ns#" xmlns:svg="http://www.w3.org/2000/svg" xmlns="http://www.w3.org/2000/svg" xmlns:sodipodi="http://sodipodi.sourceforge.net/DTD/sodipodi-0.dtd" xmlns:inkscape="http://www.inkscape.org/namespaces/inkscape" version="1.1" x="0px" y="0px" viewBox="0 0 100 100"><g transform="translate(0,-952.36218)"><path style="text-indent:0;text-transform:none;direction:ltr;block-progression:tb;baseline-shift:baseline;color:#000000;enable-background:accumulate;" d="m 50.000001,967.36215 c -4.394499,0 -8,3.60535 -8,8 0,2.14902 0.855,4.12027 2.25,5.5625 l -12,18.87496 -15.4688,-6.93746 c 0.1273,-0.483 0.2188,-0.97954 0.2188,-1.5 0,-3.29003 -2.71,-6 -5.999999,-6 -3.2900005,0 -6.0000005,2.70997 -6.0000005,6 0,2.36966 1.4216,4.43426 3.4375,5.40626 l 11.5624995,26.99999 0,11.5938 a 2.0002,2.0002 0 0 0 2,2 l 56,0 a 2.0002,2.0002 0 0 0 2,-2 l 0,-11.5938 11.562498,-26.99999 c 2.0159,-0.972 3.4375,-3.0366 3.4375,-5.40626 0,-3.29003 -2.71,-6 -5.999997,-6 -3.29,0 -6,2.70997 -6,6 0,0.52046 0.091,1.017 0.2188,1.5 l -15.4688,6.93746 -12,-18.87496 c 1.395,-1.44224 2.25,-3.41352 2.25,-5.5625 0,-4.39457 -3.6054,-8 -8,-8 z m 0,4 c 2.2328,0 4,1.76721 4,4 0,2.23279 -1.7672,4 -4,4 -2.2325,0 -4,-1.76729 -4,-4 0,-2.23271 1.7675,-4 4,-4 z m -2.3125,11.65625 c 0.7313,0.22237 1.511801,0.34375 2.3125,0.34375 0.800801,0 1.581201,-0.12137 2.3125,-0.34375 l 13,20.4062 a 2.0002,2.0002 0 0 0 2.5,0.75 l 17.6875,-7.96869 c 0.486,0.3533 1.0154,0.6477 1.5938,0.8437 l -10.4376,24.31259 -53.3124,0 -10.4376,-24.31259 c 0.5784,-0.196 1.1078,-0.4904 1.5938,-0.8437 l 17.6875,7.96869 a 2.0002,2.0002 0 0 0 2.5,-0.75 l 13,-20.4062 z m -36.687499,6.34375 c 1.128199,0 2,0.87179 2,2 0,1.12821 -0.871801,1.99996 -2,1.99996 -1.1282005,0 -2.0000005,-0.87175 -2.0000005,-1.99996 0,-1.12821 0.8718,-2 2.0000005,-2 z m 77.999999,0 c 1.128197,0 1.999997,0.87179 1.999997,2 0,1.12821 -0.8718,1.99996 -1.999997,1.99996 -1.1282,0 -2,-0.87175 -2,-1.99996 0,-1.12821 0.8718,-2 2,-2 z m -39,11.99995 -2.375,5.7813 -6.625,0.3437 5.1562,3.875 -1.7187,6.0001 5.5625,-3.3751 5.5625,3.3751 -1.7187,-6.0001 5.1562,-3.875 -6.625,-0.3437 -2.375,-5.7813 z m -26,24.0001 52,0 0,8 -52,0 0,-8 z" fill="#000000" fill-opacity="1" stroke="none" marker="none" visibility="visible" display="inline" overflow="visible"/></g></svg>