<svg xmlns:x="http://ns.adobe.com/Extensibility/1.0/" xmlns:i="http://ns.adobe.com/AdobeIllustrator/10.0/" xmlns:graph="http://ns.adobe.com/Graphs/1.0/" xmlns="http://www.w3.org/2000/svg" xmlns:xlink="http://www.w3.org/1999/xlink" version="1.1" x="0px" y="0px" viewBox="0 0 216 216" enable-background="new 0 0 216 216" xml:space="preserve"><switch><foreignObject requiredExtensions="http://ns.adobe.com/AdobeIllustrator/10.0/" x="0" y="0" width="1" height="1"></foreignObject><g i:extraneous="self"><g><path d="M115.223,209.307c-2.903,0-6.021-1.618-7.583-3.936l-7.983-11.847c-0.213-0.316-0.799-0.644-1.41-0.644     c-0.157,0-0.299,0.022-0.411,0.065l-12.653,4.816c-1.35,0.515-3.097,0.798-4.917,0.798c-0.992,0-2.462-0.088-3.836-0.51     l-32.434-9.974c-2.598-0.798-5.593-3.171-6.965-5.521l-5.079-8.697c-0.586-1.004-2.274-2.247-3.407-2.509l-9.622-2.224     c-3.312-0.765-5.824-4.026-5.719-7.425l4.171-134.329c0.11-3.558,3.096-6.505,6.655-6.57l49.272-0.891     c2.437,0,5.876,0.785,8,1.825l17.314,8.473c0.978,0.479,2.532,0.84,3.617,0.84c0.262,0,0.398-0.022,0.434-0.029     c2.398-0.464,5.805,0.651,7.958,2.53l5.01,4.372c0.275,0.24,0.912,0.499,1.655,0.499c0.368,0,0.708-0.065,0.933-0.18     l12.928-6.583c1.491-0.759,3.512-1.194,5.546-1.194c1.23,0,2.395,0.166,3.369,0.479l3.777,1.214     c0.156,0.05,0.504,0.135,1.07,0.135c1.187,0,2.248-0.354,2.732-0.683l16.29-11.059c1.813-1.229,4.812-2.854,6.827-3.696     l23.137-9.672c0.777-0.324,1.566-0.489,2.348-0.489c2.951,0,5.139,2.273,5.203,5.406l1.346,67.293     c0.047,2.237-0.336,5.694-0.867,7.87l-11.709,47.873c-0.645,2.634-2.822,5.767-5.064,7.288l-30.844,20.92     c-1.029,0.698-2.34,2.564-2.647,3.769l-1.985,7.778c-0.501,1.961-1.676,4.926-2.865,6.556c-0.844,1.156-2.105,1.819-3.461,1.819     c-1.647,0-3.197-0.969-4.274-2.634l-4.698,7.795c-0.934,1.547-2.267,4.28-2.912,5.969l-3.313,8.66     c-1.105,2.889-4.257,5.327-7.331,5.672l-4.774,0.533C115.78,209.291,115.504,209.307,115.223,209.307z M98.246,186.881     c2.571,0,5.018,1.261,6.386,3.29l7.983,11.847c0.474,0.702,1.86,1.385,2.768,1.28l4.773-0.533     c0.855-0.096,2.087-1.049,2.396-1.854l3.312-8.66c0.774-2.024,2.258-5.065,3.377-6.922l5.642-9.357     c1.027-1.704,2.592-2.681,4.292-2.681c1.562,0,2.995,0.834,3.968,2.271c0.286-0.712,0.549-1.475,0.723-2.155l1.986-7.778     c0.668-2.616,2.857-5.733,5.094-7.249l30.844-20.921c1.021-0.692,2.311-2.549,2.604-3.748l11.709-47.873     c0.406-1.661,0.732-4.615,0.697-6.323l-1.33-66.493l-22.391,9.37c-1.646,0.688-4.291,2.12-5.772,3.125l-16.289,11.058     c-1.585,1.076-3.866,1.719-6.103,1.719c-1.057,0-2.033-0.142-2.906-0.422l-3.777-1.215c-0.377-0.12-0.936-0.19-1.533-0.19     c-1.217,0-2.295,0.272-2.823,0.541l-12.928,6.583c-1.07,0.545-2.334,0.833-3.655,0.833c-2.116,0-4.157-0.721-5.599-1.978     l-5.011-4.372c-0.785-0.686-2.107-1.162-2.803-1.162c-0.548,0.094-1.076,0.14-1.645,0.14c-2.001,0-4.457-0.569-6.256-1.45     l-17.314-8.474c-1.32-0.646-3.825-1.214-5.361-1.214l-49.163,0.89c-0.382,0.007-0.755,0.376-0.767,0.758L19.2,161.888     c-0.017,0.553,0.534,1.27,1.072,1.394l9.622,2.224c2.719,0.628,5.831,2.919,7.238,5.329l5.079,8.697     c0.618,1.059,2.375,2.451,3.546,2.811l32.434,9.974c1.172,0.358,3.699,0.28,4.855-0.16l12.654-4.816     C96.499,187.035,97.354,186.881,98.246,186.881z"></path></g></g></switch></svg>