<svg fill="#000000" xmlns="http://www.w3.org/2000/svg" xmlns:xlink="http://www.w3.org/1999/xlink" version="1.1" x="0px" y="0px" viewBox="0 0 100 100" enable-background="new 0 0 100 100" xml:space="preserve"><path d="M87.095,34.78c-4.064-1.848-8.975-1.513-14.053,0.896c-0.736-1.634-1.855-2.89-3.349-3.753  c-4.364-2.521-9.51-2.159-14.88,1.048c-0.582,0.348-1.132,0.711-1.653,1.077c-0.132-1.06-0.271-1.89-0.399-2.559  c0.953-0.795,1.573-1.976,1.573-3.314c0-2.393-1.94-4.333-4.333-4.333s-4.333,1.94-4.333,4.333c0,1.338,0.62,2.52,1.573,3.315  c-0.129,0.668-0.267,1.499-0.4,2.558c-0.521-0.366-1.071-0.729-1.653-1.076c-5.37-3.207-10.515-3.569-14.88-1.048  c-1.493,0.863-2.612,2.119-3.349,3.752c-5.078-2.409-9.989-2.744-14.054-0.896c-4.24,1.928-6.241,6.266-5.352,11.605  c0.782,4.702,3.06,8.924,5.185,12.433c1.447,2.39,3.004,4.649,4.635,6.765c-0.206,0.084-0.415,0.165-0.617,0.252  c-0.686,0.295-1.003,1.089-0.708,1.775c0.294,0.685,1.09,1.003,1.775,0.708c0.497-0.214,1.011-0.414,1.532-0.608  c1.375,1.561,2.122,3.974,2.473,5.469c-0.369,0.111-0.736,0.225-1.1,0.345c-0.709,0.232-1.095,0.995-0.863,1.705  c0.233,0.709,0.995,1.096,1.705,0.863c12.103-3.967,28.197-3.153,28.358-3.144L50,72.95l0.073-0.004  c0.161-0.009,16.256-0.822,28.359,3.144c0.139,0.046,0.281,0.068,0.42,0.068c0.568,0,1.097-0.361,1.284-0.931  c0.232-0.709-0.154-1.472-0.863-1.705c-0.364-0.119-0.73-0.233-1.099-0.345c0.351-1.495,1.098-3.908,2.473-5.469  c0.521,0.194,1.035,0.395,1.532,0.608c0.174,0.075,0.355,0.11,0.532,0.11c0.524,0,1.023-0.307,1.243-0.818  c0.294-0.686-0.023-1.48-0.708-1.775c-0.202-0.087-0.411-0.168-0.617-0.252c1.631-2.116,3.188-4.375,4.634-6.765  c2.126-3.51,4.403-7.731,5.185-12.433C93.336,41.046,91.336,36.708,87.095,34.78z M21.888,64.04  c-1.875-2.315-3.659-4.847-5.298-7.554c-1.903-3.144-3.938-6.89-4.595-10.84c-0.318-1.912-0.38-5.332,2.774-6.766  c3.892-1.769,8.287-0.205,11.175,1.323c-0.285,4.999,1.495,11.034,3.115,15.365c0.846,2.263,1.849,4.573,2.78,6.473  C28.532,62.484,25.113,63.122,21.888,64.04z M36.613,61.515c-2.268-4.221-7.242-15.77-6.02-22.407  c0.298-1.618,0.942-2.692,1.968-3.285c5.091-2.941,10.898,1.04,13.836,3.594c-0.08,1.641-0.129,3.513-0.129,5.656  c0,8.429,0.902,13.678,1.417,15.993C45.268,61.052,41.24,61.113,36.613,61.515z M52.316,61.065  c0.515-2.316,1.417-7.564,1.417-15.993c0-2.142-0.05-4.014-0.129-5.655c2.937-2.553,8.745-6.536,13.837-3.594  c1.026,0.593,1.67,1.667,1.968,3.285c1.224,6.643-3.757,18.196-6.022,22.407C58.759,61.113,54.732,61.052,52.316,61.065z   M88.005,45.646c-0.657,3.95-2.691,7.696-4.594,10.84c-1.64,2.707-3.422,5.239-5.299,7.554c-3.225-0.917-6.645-1.556-9.951-2  c0.932-1.9,1.934-4.207,2.781-6.472c1.62-4.332,3.4-10.367,3.114-15.365c2.887-1.528,7.282-3.092,11.175-1.323  C88.386,40.314,88.323,43.734,88.005,45.646z"/></svg>