<svg fill="#000000" xmlns="http://www.w3.org/2000/svg" xmlns:xlink="http://www.w3.org/1999/xlink" version="1.1" x="0px" y="0px" viewBox="0 0 64 64" style="enable-background:new 0 0 64 64;" xml:space="preserve"><path d="M63.9,21.4c-1-11-9.6-19.9-20.6-21.2c-5.1-0.6-10.1,0.4-14.4,2.9c-2,1.2-4.4,1.8-7.2,1.9  c-0.4,0-0.9,0.1-1.3,0.2c-2.6,0.6-4.6,2.7-5.2,5.3c-0.4,1.8-0.1,3.6,0.9,5.1c0.8,1.3,0.8,2.9-0.1,4c-1.4,1.7-3,3.1-5,4.2  C3.6,28-0.6,35.7,0.1,44.1C0.9,54.5,9.3,63,19.7,63.9c0.6,0.1,1.2,0.1,1.8,0.1c5.5,0,10.9-2.1,14.9-6c1.6-1.5,4.1-1.9,6.1-1  c1.9,0.9,4,1.2,6.1,0.9c4.8-0.7,8.6-4.5,9.3-9.3c0.2-1.3,0.1-2.6-0.1-3.8c-0.5-2.5,0.1-5.2,1.7-7.3C62.8,32.8,64.4,27.1,63.9,21.4z   M55.8,45.2c0.2,1,0.2,2.1,0.1,3.1c-0.6,3.9-3.7,7.1-7.6,7.6c-1.7,0.2-3.4,0-5-0.7c-2.8-1.3-6.2-0.7-8.4,1.4  c-4,3.9-9.5,5.8-15.1,5.3c-9.4-0.8-17-8.5-17.7-17.9c-0.6-7.6,3.2-14.7,9.8-18.4c2.2-1.2,4-2.8,5.5-4.6c1.4-1.7,1.5-4.3,0.3-6.3  c-0.7-1.1-0.9-2.4-0.6-3.7c0.4-1.8,1.9-3.3,3.7-3.8c0.3-0.1,0.6-0.1,1-0.1c3.1-0.2,5.9-0.9,8.1-2.2C33.1,3,36.8,2,40.5,2  c0.9,0,1.7,0,2.6,0.1c10,1.2,17.9,9.3,18.8,19.4c0.5,5.3-1,10.5-4.1,14.7C55.9,38.8,55.2,42.1,55.8,45.2z M42,11  c-6.1,0-11,4.9-11,11s4.9,11,11,11s11-4.9,11-11S48.1,11,42,11z M42,31c-5,0-9-4-9-9s4-9,9-9s9,4,9,9S47,31,42,31z M43,16  c0,0.6-0.4,1-1,1c-2.8,0-5,2.2-5,5c0,0.6-0.4,1-1,1s-1-0.4-1-1c0-3.9,3.1-7,7-7C42.6,15,43,15.4,43,16z M26,34c-6.1,0-11,4.9-11,11  s4.9,11,11,11s11-4.9,11-11S32.1,34,26,34z M26,54c-5,0-9-4-9-9s4-9,9-9s9,4,9,9S31,54,26,54z M27,39c0,0.6-0.4,1-1,1  c-2.8,0-5,2.2-5,5c0,0.6-0.4,1-1,1s-1-0.4-1-1c0-3.9,3.1-7,7-7C26.6,38,27,38.4,27,39z M48,37c0,0.6-0.4,1-1,1c-0.6,0-1-0.4-1-1  s0.4-1,1-1C47.6,36,48,36.4,48,37z M48,47c0,0.6-0.4,1-1,1c-0.6,0-1-0.4-1-1c0-0.6,0.4-1,1-1C47.6,46,48,46.4,48,47z M26,27  c0-0.6,0.4-1,1-1c0.6,0,1,0.4,1,1c0,0.6-0.4,1-1,1C26.4,28,26,27.6,26,27z M26,17c0-0.6,0.4-1,1-1c0.6,0,1,0.4,1,1c0,0.6-0.4,1-1,1  C26.4,18,26,17.6,26,17z M16,32c0-0.6,0.4-1,1-1c0.6,0,1,0.4,1,1c0,0.6-0.4,1-1,1C16.4,33,16,32.6,16,32z"/></svg>