<svg fill="#000000" xmlns:dc="http://purl.org/dc/elements/1.1/" xmlns:cc="http://creativecommons.org/ns#" xmlns:rdf="http://www.w3.org/1999/02/22-rdf-syntax-ns#" xmlns:svg="http://www.w3.org/2000/svg" xmlns="http://www.w3.org/2000/svg" xmlns:sodipodi="http://sodipodi.sourceforge.net/DTD/sodipodi-0.dtd" xmlns:inkscape="http://www.inkscape.org/namespaces/inkscape" version="1.1" x="0px" y="0px" viewBox="0 0 100 100"><g transform="translate(0,-952.36218)"><path style="text-indent:0;text-transform:none;direction:ltr;block-progression:tb;baseline-shift:baseline;color:#000000;enable-background:accumulate;" d="m 49.966873,955.36219 c -9.17827,0 -15.06569,3.31131 -17.99026,8.24926 -0.35356,0.59696 -0.66174,1.22313 -0.93862,1.84358 -0.95424,0.16392 -1.63197,0.5516 -2.56557,1.15615 -1.2589,0.81519 -2.81645,2.41496 -2.81587,4.74957 -5.6e-4,3.35646 1.14587,5.32173 1.78339,6.84314 -0.6446,1.68811 -1.78395,3.77512 -1.78339,7.1556 -5.8e-4,2.33456 1.55686,3.96564 2.81587,4.78083 1.04338,0.67556 1.79701,1.07265 2.94102,1.18739 0.79537,1.83334 1.75391,3.59166 2.90973,5.21828 1.0832,1.52443 2.33536,2.92761 3.75449,4.15591 -4.77297,1.1004 -9.2576,2.8513 -13.10943,5.187 -6.913,4.1919 -12.00805,10.5767 -11.9205,18.3109 0.33171,5.6026 -0.53343,11.3884 0.40673,16.186 0.50436,2.4108 1.49949,4.7758 3.50419,6.4682 1.99071,1.6805 4.72148,2.4677 7.88443,2.4373 16.65896,0.108 33.33262,0.08 49.997282,0 3.20309,0 5.92947,-0.7701 7.94701,-2.4373 2.01753,-1.6673 3.07391,-4.0127 3.59805,-6.4057 1.04826,-4.7859 0.43789,-10.2992 0.43802,-16.1236 0,-7.7954 -5.10327,-14.1897 -12.04565,-18.4046 -3.810732,-2.3135 -8.224172,-4.047 -12.921702,-5.1557 1.38248,-1.1995 2.60264,-2.57979 3.66063,-4.06217 1.19312,-1.67173 2.19248,-3.48309 3.00359,-5.37452 1.11081,-0.12216 1.85299,-0.52343 2.87844,-1.18739 1.259012,-0.81519 2.816452,-2.44627 2.815872,-4.78083 5.6e-4,-3.3594 -1.13571,-5.44032 -1.78339,-7.12436 0.63453,-1.52347 1.78395,-3.50054 1.78339,-6.87438 5.8e-4,-2.33461 -1.55697,-3.93438 -2.815872,-4.74957 -0.92302,-0.5977 -1.59675,-0.9889 -2.53428,-1.15615 -0.27236,-0.614 -0.59162,-1.22128 -0.93862,-1.81234 -2.90843,-4.95398 -8.82122,-8.2805 -17.95898,-8.2805 z m 0,5.99946 c 7.83875,0 10.93007,2.18611 12.76527,5.31202 0.36768,0.62628 0.6786,1.34162 0.93862,2.09356 -0.85169,3.19655 -1.94996,6.49282 -1.97111,9.59289 -0.63257,3.31148 1.48146,6.31645 1.84591,8.9992 -0.73287,2.094 -1.70732,4.11465 -2.94102,5.84322 -2.72936,3.82422 -6.28476,6.20598 -10.63772,6.1557 -4.41387,-0.0511 -8.01276,-2.48563 -10.73158,-6.31194 -1.21057,-1.70368 -2.1855,-3.66619 -2.90973,-5.71823 1.17063,-2.97409 1.83665,-5.99547 1.84591,-8.96795 0.20555,-3.76282 -1.46899,-6.53458 -1.97111,-9.59289 0.26155,-0.75304 0.56677,-1.4657 0.93862,-2.09356 3.78588,-4.29368 7.79067,-5.29359 12.82794,-5.31202 z m -6.13233,13.03008 c -0.99574,0 -2.18616,0.26887 -3.19132,1.0624 -1.00515,0.79354 -1.75085,2.14667 -1.78338,3.9059 0.12821,1.50069 0.73406,3.0987 1.78343,3.9371 1.03019,0.79416 2.24647,1.09365 3.28518,1.09365 1.19435,0 2.41643,-0.29356 3.37904,-1.1249 0.76647,-0.66194 1.2913,-1.64041 1.47051,-2.87474 l 2.12754,0 c 0.18731,1.23433 0.73533,2.2128 1.5018,2.87474 0.96261,0.83134 2.18469,1.1249 3.37904,1.1249 1.03871,0 2.255,-0.29949 3.28518,-1.09365 1.03018,-0.79416 1.78328,-2.13942 1.78338,-3.9059 0.0938,-1.01268 -0.74356,-3.08541 -1.78338,-3.9371 -1.00515,-0.79353 -2.19558,-1.0624 -3.19132,-1.0624 -1.02015,0 -2.20022,0.26822 -3.2226,1.0624 -0.82032,0.63724 -1.48715,1.64959 -1.72081,2.93724 l -2.19012,0 c -0.22569,-1.28765 -0.8692,-2.3 -1.68952,-2.93724 -1.02238,-0.79418 -2.20245,-1.0624 -3.2226,-1.0624 z m 0,1.99982 c 0.61032,0 1.4157,0.20045 2.00239,0.65619 0.5867,0.45574 1.03249,1.11023 1.03249,2.34354 0,1.29332 -0.36006,1.92494 -0.84476,2.34354 -0.4847,0.4186 -1.22547,0.65619 -2.09626,0.65619 -0.64087,0 -1.47376,-0.23168 -2.06497,-0.68744 -0.5912,-0.45576 -1.03241,-1.07902 -1.03248,-2.31229 0.0229,-1.24068 0.48564,-1.88712 1.06377,-2.34354 0.57813,-0.45642 1.37122,-0.65619 1.93982,-0.65619 z m 12.04565,0 c 0.5686,0 1.36169,0.19977 1.93982,0.65619 0.57813,0.45642 1.04084,1.10286 1.06377,2.34354 -7e-5,1.23327 -0.44127,1.85653 -1.03248,2.31229 -0.59121,0.45576 -1.42409,0.68744 -2.06497,0.68744 -0.87079,0 -1.61156,-0.23759 -2.09626,-0.65619 -0.4847,-0.4186 -0.84476,-1.05022 -0.84476,-2.34354 0,-1.23331 0.4458,-1.8878 1.03249,-2.34354 0.58669,-0.45574 1.39207,-0.65619 2.00239,-0.65619 z m -9.10463,9.12418 c -0.5178,0.0862 -1.05006,0.20322 -1.65824,0.5937 -0.60817,0.39047 -1.25149,1.36446 -1.25149,2.28104 10e-5,1.04708 0.95397,1.99972 2.00239,1.99982 2.66986,0 5.33972,0 8.00958,0 1.04842,-1e-4 2.00229,-0.95274 2.00239,-1.99982 0,-0.91658 -0.6746,-1.89057 -1.28278,-2.28104 -0.60818,-0.39048 -1.14043,-0.50751 -1.65823,-0.5937 -2.20753,-0.17917 -4.16161,-0.2001 -6.16362,0 z m 3.09745,19.84197 c 4.54391,0 9.07919,0.7403 13.23457,1.9998 l -13.172,17.4984 -13.14071,-17.5921 c 4.11492,-1.2168 8.60353,-1.9061 13.07814,-1.9061 z m -4.25509,0.5312 c -1.46559,0.1534 -2.69859,1.528 -2.69072,2.9997 l 0,3.9684 c 7e-5,1.5603 1.41013,2.9833 2.97231,2.9998 1.25124,0.017 2.4008,-0.5379 3.06617,-1.0625 0.53089,0.012 1.3131,0 1.87719,-0.062 0.70415,0.5734 1.69122,1.1562 3.09745,1.1562 1.57263,-2e-4 3.00343,-1.4291 3.00359,-2.9997 l 0,-3.9997 c -1.6e-4,-1.5706 -1.43096,-2.9996 -3.00359,-2.9997 -1.38669,0 -2.36115,0.5574 -3.06616,1.1249 -0.60455,-0.1986 -1.2727,-0.1986 -1.87725,0 -1.15725,-0.607 -2.34413,-1.1022 -3.37899,-1.1249 z m -14.64251,3.5934 16.55104,22.1855 c 1.11323,1.4928 3.70504,1.4928 4.81827,0 l 16.61361,-22.0605 c 0.93284,0.4533 1.84502,0.924 2.69072,1.4374 5.799062,3.5207 9.167212,8.0995 9.167212,13.28 -1.4e-4,6.1577 0.4189,11.6443 -0.28159,14.8425 -0.35024,1.599 -0.86502,2.4843 -1.56437,3.0622 -0.69934,0.5779 -1.83672,1.0624 -4.12994,1.0624 -11.455912,0.057 -38.908842,0.1421 -49.934702,0 -1.45275,0.021 -2.94601,-0.3042 -4.06737,-0.9999 -0.66997,-0.5656 -1.15992,-1.4906 -1.50179,-3.1247 -0.68374,-3.2682 -0.28145,-8.805 -0.28159,-14.9674 -0.15644,-6.8248 5.07413,-10.7322 9.01077,-13.1864 0.90644,-0.5496 1.8998,-1.051 2.90973,-1.5311 z m 39.92274,17.9047 c -2.00239,0 -3.53873,0.8516 -4.69311,1.8123 -1.31251,1.139 -2.29688,2.7615 -2.31527,4.1871 1.6e-4,1.5706 1.43096,2.9996 3.00359,2.9998 2.66986,0 5.339722,0 8.009582,0 1.57263,-2e-4 3.00343,-1.4292 3.00359,-2.9998 -0.0722,-1.812 -1.20869,-3.1058 -2.34656,-4.1871 -1.15438,-0.9607 -2.65943,-1.8123 -4.661822,-1.8123 z" fill="#000000" fill-opacity="1" stroke="none" marker="none" visibility="visible" display="inline" overflow="visible"/></g></svg>