<svg xmlns="http://www.w3.org/2000/svg" xmlns:xlink="http://www.w3.org/1999/xlink" version="1.1" x="0px" y="0px" viewBox="0 0 100 100" enable-background="new 0 0 100 100" xml:space="preserve"><g><path d="M73.593,57.644c-0.08-6.39-0.931-12.683-2.356-18.906c-0.12-0.521-0.091-1.08-0.108-1.622   c-0.065-2.046-0.079-4.094-0.189-6.137c-0.16-2.923-2.761-4.476-5.432-3.291c-0.144,0.064-0.291,0.123-0.598,0.251   c0.184-2.068,0.299-4.022,0.543-5.96c0.279-2.221,0.669-4.428,1.017-6.64c0.343-2.182-1.041-4.195-3.196-4.637   c-2.152-0.441-4.238,0.874-4.652,3.09c-0.711,3.81-1.315,7.638-1.965,11.459c-0.023,0.145-0.049,0.292-0.237,0.448   c-0.25-1.29-0.423-2.6-0.763-3.864c-1.062-3.95-2.189-7.881-3.282-11.824c-0.575-2.079-1.849-3.48-3.925-4.125   c-0.573-0.075-0.933-0.087-1.642,0.05C46.36,6.05,46.169,6.169,45.861,6.33c-1.975,1.028-2.871,3.279-2.146,5.447   c1.761,5.271,2.929,10.684,3.882,16.148c0.038,0.228,0.03,0.464,0.044,0.706c-1.214-1.477-2.334-2.986-3.604-4.355   c-2.591-2.794-5.632-5.024-9.117-6.568c-1.896-0.84-4.435-0.41-5.445,1.572c-1.075,2.106-0.473,4.459,1.492,5.729   c4.05,2.617,7.521,5.811,9.856,10.099c0.928,1.703,1.629,3.494,1.817,5.414c-1.688,0-3.319-0.032-4.949,0.008   c-2.135,0.054-4.254,0.25-6.275,1.022c-1.97,0.753-3.573,1.876-4.142,4.058c0,0.602,0,1.204,0,1.806   c0.41,0.759,0.697,1.63,1.257,2.257c1.301,1.454,2.988,1.791,4.867,1.31c3.768-0.963,7.226-0.238,10.488,1.833   c2.07,1.314,2.994,3.174,3.055,5.542c0.316,12.367-2.032,24.169-7.504,35.308c-0.551,1.12-0.415,1.602,0.64,2.336   c0.273,0,0.547,0,0.82,0c0.379-0.445,0.872-0.834,1.12-1.343c5.565-11.454,8.001-23.571,7.672-36.278   c-0.065-2.482-0.702-4.771-2.518-6.463c-2.454-2.289-5.432-3.638-8.803-4.006c-1.975-0.216-3.926-0.058-5.854,0.438   c-1.042,0.267-1.99-0.223-2.357-1.14c-0.371-0.927-0.026-1.93,0.964-2.413c0.926-0.452,1.889-0.93,2.886-1.112   c3.497-0.639,7.018-0.632,10.515,0.042c2.998,0.577,5.732,1.759,8.101,3.731c0.719,0.599,1.52,0.551,2.037-0.063   c0.517-0.612,0.421-1.408-0.259-2.031c-0.262-0.24-0.542-0.461-0.825-0.675c-2.398-1.797-5.11-2.903-8.021-3.585   c-0.156-0.881-0.258-1.751-0.469-2.593c-0.814-3.266-2.406-6.138-4.523-8.733c-2.285-2.801-5.021-5.088-8.032-7.073   c-0.361-0.239-0.73-0.714-0.786-1.122c-0.175-1.289,0.957-1.928,2.293-1.251c6.179,3.127,10.836,7.69,13.289,14.288   c0.449,1.208,1.306,1.797,2.338,1.55c1.085-0.26,1.604-1.097,1.471-2.383c-0.808-7.77-2.381-15.379-4.783-22.814   c-0.315-0.977,0.077-1.939,0.917-2.251c0.689-0.256,1.669,0.258,2.048,1.115c0.286,0.648,0.54,1.313,0.772,1.983   c2.523,7.268,3.923,14.77,4.601,22.416c0.119,1.348,0.825,2.162,1.976,2.183c1.142,0.02,1.885-0.727,1.992-2.032   c0.213-2.614,0.294-5.246,0.649-7.84c0.554-4.03,1.281-8.036,1.96-12.048c0.135-0.799,0.659-1.156,1.385-1.078   c0.869,0.093,1.213,0.794,1,1.956c-1.39,7.562-1.89,15.18-1.402,22.856c0.023,0.362,0.127,0.838,0.373,1.044   c0.622,0.522,0.518,1.128,0.413,1.769c-0.186,1.132-0.392,2.261-0.565,3.396c-0.13,0.86-0.375,1.739-0.3,2.587   c0.158,1.774,1.579,3.048,3.317,3.183c1.752,0.136,3.577-1.116,4.079-2.8c0.083-0.277,0.156-0.558,0.258-0.916   c0.078,0.142,0.114,0.181,0.121,0.225c1.082,7.365,1.266,14.755,0.447,22.154c-0.95,8.586-3.225,16.825-6.705,24.731   c-0.529,1.203-0.402,1.636,0.682,2.397c0.273,0,0.548,0,0.821,0c0.341-0.438,0.791-0.826,1.008-1.317   c4.645-10.548,7.213-21.563,7.395-33.11c0.004-0.234,0.087-0.465,0.133-0.699c0-0.875,0-1.75,0-2.625   C73.68,58.047,73.597,57.846,73.593,57.644z M66.974,46.635c-0.077,0.294-0.276,0.655-0.524,0.781   c-0.316,0.163-0.83,0.273-1.092,0.121c-0.25-0.147-0.436-0.677-0.395-1.007c0.001-0.01,0.002-0.019,0.004-0.029   c-0.01-0.079-0.016-0.158-0.008-0.226c0.425-3.521,0.96-7.029,1.336-10.554c0.071-0.669,0.078-1.346,0.063-2.025   c-0.021-0.713-0.064-1.429-0.088-2.141c-0.001-0.025,0.005-0.044,0.004-0.069c-0.003-0.062-0.006-0.124-0.008-0.186   c-0.022-0.673,0.164-1.176,0.868-1.244c0.705-0.067,1.021,0.383,1.062,1.062c0.086,1.417,0.184,2.833,0.237,3.662   c0,0.053-0.002,0.104-0.002,0.156c0.002,0.03,0.004,0.07,0.006,0.099C68.43,39.357,67.921,43.027,66.974,46.635z"></path><path d="M67.139,30.31c0.705-0.067,1.021,0.383,1.062,1.062c0.083,1.369,0.177,2.725,0.231,3.563c0-0.053,0.002-0.103,0.002-0.156   c-0.054-0.829-0.151-2.245-0.237-3.662c-0.041-0.679-0.356-1.129-1.062-1.062c-0.704,0.068-0.891,0.571-0.868,1.244   c0.002,0.062,0.005,0.124,0.008,0.186C66.268,30.849,66.461,30.375,67.139,30.31z"></path><path d="M66.358,33.695c0.015,0.679,0.008,1.356-0.063,2.025c-0.376,3.525-0.911,7.034-1.336,10.554   c-0.008,0.068-0.002,0.147,0.008,0.226c0.424-3.511,0.957-7.01,1.332-10.525C66.379,35.222,66.381,34.459,66.358,33.695z"></path><path fill="#000000" d="M66.97,46.38c-0.077,0.294-0.276,0.655-0.524,0.781c-0.316,0.163-0.83,0.273-1.092,0.121   c-0.199-0.117-0.352-0.473-0.387-0.781c-0.002,0.01-0.003,0.019-0.004,0.029c-0.041,0.331,0.145,0.86,0.395,1.007   c0.262,0.152,0.775,0.042,1.092-0.121c0.248-0.126,0.447-0.487,0.524-0.781c0.947-3.608,1.456-7.278,1.464-11.601   c-0.002-0.028-0.004-0.069-0.006-0.099C68.411,39.189,67.905,42.816,66.97,46.38z"></path><path fill="#000000" d="M66.271,31.554c0.023,0.711,0.066,1.427,0.088,2.141c-0.017-0.736-0.056-1.474-0.084-2.209   C66.275,31.51,66.27,31.529,66.271,31.554z"></path></g></svg>