<svg fill="#000000" xmlns="http://www.w3.org/2000/svg" xmlns:xlink="http://www.w3.org/1999/xlink" version="1.1" x="0px" y="0px" viewBox="0 0 100 100" enable-background="new 0 0 100 100" xml:space="preserve"><path d="M50.718,92.884c-7.315,0-12.755-0.85-16.599-2.596c-2.048,0.978-4.466,1.744-7.316,2.152  c-3.365,0.485-17.732-0.379-18.888-2.401c-0.29-0.508-0.321-1.098-0.084-1.62c0.532-1.174,2.348-1.766,3.778-2.056  c0.981-0.199,2.338-0.367,3.775-0.545c1.926-0.239,4.109-0.511,5.337-0.867c1.388-0.403,2.719-1.661,3.942-3.362L7.835,84.675  c-0.423,0.075-0.856-0.073-1.14-0.396c-0.285-0.323-0.378-0.771-0.248-1.182c0.05-0.158,1.285-3.89,5.784-6.179  c0.135-0.069,0.363-0.203,0.369-0.33c0.05-1.096-2.969-3.787-5.71-5.516c-0.408-0.257-0.626-0.729-0.56-1.206  c0.067-0.477,0.406-0.871,0.869-1.006c0.23-0.068,5.723-1.646,11.885-0.682c2.306,0.361,5.531,1.679,7.49,2.549  c0.524-11.59,4.499-21.271,5.821-24.2c-1.836-1.308-3.332-2.833-4.466-4.555c-0.971-1.474-1.6-2.857-1.987-4.125  c-1.625,1.105-3.192,2.696-3.726,4.181c-0.229,0.637-0.929,0.968-1.567,0.738c-0.637-0.229-0.967-0.931-0.738-1.567  c0.765-2.126,3.069-4.517,5.533-5.943c-0.092-1.178,0.016-2.197,0.195-3.024c0.071-0.328,0.157-0.644,0.255-0.949  c-1.918-0.038-4.008,0.33-5.27,1.184c-0.56,0.378-1.321,0.233-1.701-0.328c-0.379-0.561-0.232-1.322,0.328-1.701  c1.831-1.239,5.003-1.813,7.791-1.555c0.238-0.364,0.49-0.697,0.748-0.999c0.376-2.479,2.871-15.529,14.036-19.203  c1.155-0.467,4.318-1.568,8.483-1.568c5.102,0,8.541,1.101,8.884,1.215c11.677,3.54,13.509,16.441,13.763,19.103  c0.39,0.415,0.811,0.9,1.208,1.46c2.811-0.282,6.033,0.292,7.885,1.545c0.56,0.379,0.707,1.141,0.328,1.701  c-0.379,0.561-1.14,0.707-1.701,0.328c-1.261-0.854-3.354-1.22-5.267-1.184c0.385,1.123,0.565,2.424,0.355,3.92  c2.499,1.42,4.851,3.844,5.625,5.997c0.229,0.637-0.102,1.338-0.738,1.567c-0.636,0.23-1.338-0.102-1.567-0.738  c-0.562-1.563-2.269-3.243-3.982-4.351c-0.401,1.029-0.98,2.131-1.779,3.311c-0.006,0.009-0.012,0.018-0.018,0.027  c-0.26,0.383-0.544,0.775-0.852,1.174c-1.229,1.594-2.745,3.01-4.529,4.236c2.379,3.481,9.542,15.609,6.942,32.173  c1.671,3.134,3.655,5.737,5.771,6.351c1.228,0.356,3.411,0.627,5.336,0.867c1.437,0.178,2.793,0.347,3.774,0.545  c1.43,0.291,3.246,0.883,3.778,2.057c0.236,0.521,0.206,1.112-0.084,1.62c-1.155,2.021-15.52,2.886-18.888,2.401  c-2.997-0.429-5.516-1.255-7.629-2.305C62.856,91.96,57.41,92.884,50.718,92.884z M36.851,88.732  c3.395,1.144,7.963,1.702,13.867,1.702c5.452,0,9.992-0.629,13.537-1.872c-6.341-4.404-7.827-10.701-7.846-10.79  c-0.147-0.66,0.27-1.315,0.93-1.461c0.662-0.148,1.314,0.27,1.461,0.93c0.078,0.34,1.613,6.667,8.572,10.396  c0.089,0.034,0.174,0.079,0.254,0.134c1.972,1.019,4.368,1.829,7.272,2.246c3.528,0.503,11.674-0.341,15.155-1.05  c-0.252-0.076-0.523-0.146-0.796-0.201c-0.889-0.18-2.201-0.343-3.589-0.516c-2.115-0.263-4.303-0.535-5.718-0.945  C72.81,85.23,68.395,69.156,67.915,67.33c-0.172-0.654,0.219-1.324,0.873-1.496c0.651-0.169,1.324,0.218,1.496,0.873  c0.464,1.761,1.37,4.647,2.589,7.616c0.879-13.736-5.165-23.823-7.051-26.608c-0.372,0.203-0.753,0.399-1.143,0.588  c-0.064,0.86-0.169,1.776-0.326,2.763c-1.408,8.846-7.194,10.267-7.44,10.323c-0.362,0.083-0.745-0.004-1.037-0.236  c-0.292-0.232-0.461-0.585-0.461-0.958v-9.11c-3.827,0.569-7.779,0.54-11.55-0.089v9.199c0,0.373-0.17,0.726-0.462,0.958  c-0.292,0.233-0.672,0.318-1.038,0.235c-0.244-0.056-5.996-1.478-7.403-10.323c-0.181-1.138-0.293-2.181-0.355-3.154  c-0.038-0.021-0.075-0.041-0.112-0.062c-1.447,3.32-5.474,13.597-5.525,25.251c0.974-2.521,1.701-4.875,2.1-6.393  c0.172-0.654,0.841-1.05,1.496-0.873c0.654,0.172,1.045,0.842,0.873,1.496c-0.479,1.826-4.895,17.9-12.036,19.974  c-1.416,0.411-3.603,0.683-5.718,0.945c-1.389,0.172-2.701,0.335-3.59,0.516c-0.272,0.055-0.543,0.125-0.795,0.201  c3.48,0.71,11.625,1.556,15.155,1.05c13.539-1.941,16.074-12.667,16.098-12.775c0.147-0.66,0.803-1.078,1.461-0.93  c0.661,0.147,1.077,0.801,0.93,1.461C44.926,77.862,43.402,84.321,36.851,88.732z M10.58,70.66c2.097,1.609,4.564,3.958,4.468,6.041  c-0.027,0.586-0.284,1.678-1.705,2.401c-1.579,0.803-2.648,1.809-3.353,2.687l16.406-3.008c0.128-0.237,0.255-0.478,0.38-0.722  c-0.034-0.095-0.056-0.196-0.065-0.301c-0.13-1.472-0.191-2.929-0.195-4.364c-1.558-0.722-5.388-2.414-7.812-2.794  C15.594,70.112,12.619,70.35,10.58,70.66z M57.866,39.469v18.786c1.393-0.961,3.353-3.079,4.068-7.575  c0.602-3.779,0.376-6.364,0.138-9.101c-0.025-0.291-0.051-0.583-0.075-0.875l-1.277-0.384  C59.678,40.065,58.729,39.778,57.866,39.469z M37.303,40.704c-0.022,0.27-0.045,0.538-0.068,0.806  c-0.236,2.755-0.459,5.358,0.147,9.171c0.712,4.479,2.648,6.597,4.033,7.564V39.499c-0.602,0.191-1.236,0.372-1.908,0.541  L37.303,40.704z M43.866,48.508c3.759,0.676,7.727,0.709,11.55,0.097V38.434c-2.747-1.364-4.307-2.925-5.177-4.129  c-1.109,1.231-3.073,2.892-6.373,4.292V48.508z M64.483,41.037c0.009,0.11,0.019,0.22,0.028,0.33  c0.115,1.316,0.231,2.653,0.252,4.134c2.021-1.119,3.725-2.46,5.084-4.003C67.88,41.425,66.098,41.265,64.483,41.037z   M30.441,41.289c1.061,1.414,2.438,2.667,4.113,3.743c0.033-1.322,0.137-2.536,0.24-3.732c0.011-0.129,0.022-0.257,0.033-0.386  C33.473,41.089,32.012,41.218,30.441,41.289z M61.337,37.948c2.664,0.653,6.036,1.099,10.3,1.141  c0.565-0.897,0.973-1.727,1.253-2.495c-0.528-0.162-0.991-0.212-1.343-0.125c-0.657,0.166-1.321-0.234-1.486-0.89  s0.234-1.321,0.89-1.486c0.729-0.183,1.563-0.128,2.436,0.105c0.037-0.989-0.161-1.848-0.485-2.598  c-0.729,0.193-1.3,0.471-1.593,0.822c-0.432,0.521-1.205,0.591-1.725,0.158c-0.52-0.433-0.591-1.205-0.158-1.725  c0.491-0.59,1.216-1.044,2.082-1.372c-0.346-0.392-0.697-0.742-1.015-1.058l-0.256-0.256c-4.453-3.064-11.907-2.93-13.686-1.479  c-0.507,1.494-2.799,2.707-4.986,3.549v1.265c0,0.048-0.003,0.096-0.008,0.143c0.006,0.021,0.013,0.042,0.018,0.063  c0.011,0.037,1.05,3.246,7.032,5.42L61.337,37.948z M28.147,36.681c0.187,0.725,0.463,1.46,0.828,2.207  c4.106-0.092,7.42-0.582,10.082-1.271l2.28-0.687c5.27-1.835,7.282-4.4,7.801-5.195c-0.014-0.075-0.022-0.153-0.022-0.232v-1.303  c-2.363-0.922-4.815-2.271-4.982-3.94c-2.766-0.917-9.774-0.948-13.15,2.044c-0.029,0.027-0.061,0.053-0.093,0.077  c-0.033,0.025-0.067,0.048-0.103,0.07c-0.303,0.193-0.702,0.525-1.107,0.992c0.914,0.33,1.679,0.798,2.19,1.412  c0.433,0.52,0.362,1.292-0.158,1.725c-0.52,0.433-1.292,0.363-1.725-0.158c-0.295-0.354-0.871-0.633-1.607-0.826  c-0.14,0.358-0.26,0.744-0.349,1.157c-0.104,0.479-0.163,0.966-0.177,1.46c0.894-0.246,1.747-0.306,2.49-0.12  c0.656,0.165,1.055,0.83,0.89,1.486c-0.164,0.656-0.828,1.057-1.486,0.89C29.341,36.368,28.781,36.453,28.147,36.681z M46.59,25.984  c0.372,0.496,2.061,1.416,3.8,2.077c1.739-0.661,3.429-1.582,3.799-2.077c-0.081-0.253-0.464-0.617-1.125-0.906  c-1.318-0.574-3.355-0.656-4.832-0.191l0,0C47.206,25.208,46.687,25.688,46.59,25.984z M42.024,11.21  c-7.022,2.634-10.003,9.931-11.174,14.178c4.309-2.561,10.932-2.529,14.172-1.41c0.579-0.604,1.422-1.099,2.477-1.43l0,0  c2.04-0.641,4.681-0.529,6.545,0.284c0.83,0.363,1.483,0.84,1.928,1.394c3.226-1.508,9.605-1.292,14.186,1.052  c-0.849-4.236-3.51-12.136-11.693-14.607c-0.015-0.004-0.028-0.009-0.042-0.014c-0.106-0.035-3.34-1.091-8.115-1.091  c-3.758,0-6.602,1.001-7.556,1.385c-0.022,0.01-0.045,0.02-0.069,0.028c-0.177,0.073-0.272,0.118-0.278,0.12  C42.281,11.158,42.153,11.194,42.024,11.21z M38.338,35.506c-0.439,0-0.863-0.236-1.083-0.651c-0.317-0.598-0.09-1.339,0.508-1.656  l0.312-0.166c0.598-0.318,1.339-0.09,1.656,0.508c0.317,0.598,0.09,1.339-0.508,1.656l-0.312,0.166  C38.729,35.46,38.532,35.506,38.338,35.506z M61.662,35.459c-0.524,0-1.009-0.339-1.17-0.866c-0.199-0.647,0.165-1.332,0.812-1.53  l0.337-0.104c0.644-0.2,1.332,0.165,1.53,0.812c0.199,0.647-0.165,1.332-0.812,1.53l-0.337,0.104  C61.902,35.442,61.781,35.459,61.662,35.459z M66.221,34.583c-0.524,0-1.009-0.339-1.17-0.866c-0.199-0.647,0.165-1.332,0.812-1.53  l0.337-0.104c0.644-0.201,1.332,0.165,1.53,0.812c0.199,0.647-0.165,1.332-0.812,1.53l-0.337,0.104  C66.461,34.565,66.34,34.583,66.221,34.583z M34.028,32.92c-0.439,0-0.864-0.236-1.083-0.652c-0.317-0.598-0.089-1.339,0.509-1.656  l0.312-0.165c0.597-0.315,1.339-0.089,1.656,0.509c0.317,0.598,0.089,1.339-0.509,1.656l-0.312,0.165  C34.418,32.874,34.222,32.92,34.028,32.92z M62.479,31.227c-0.524,0-1.009-0.339-1.17-0.866c-0.199-0.647,0.165-1.332,0.812-1.53  l0.337-0.104c0.645-0.201,1.332,0.165,1.53,0.812c0.199,0.647-0.165,1.332-0.812,1.53l-0.337,0.104  C62.719,31.21,62.598,31.227,62.479,31.227z M38.338,31.196c-0.439,0-0.864-0.237-1.084-0.652c-0.316-0.598-0.088-1.339,0.51-1.656  l0.312-0.165c0.597-0.316,1.339-0.088,1.656,0.51c0.316,0.598,0.088,1.339-0.51,1.656l-0.312,0.165  C38.728,31.15,38.532,31.196,38.338,31.196z M56.415,23.074c-1.91,0-3.463-1.554-3.463-3.463s1.554-3.463,3.463-3.463  c1.91,0,3.464,1.554,3.464,3.463S58.325,23.074,56.415,23.074z M56.415,18.597c-0.559,0-1.013,0.455-1.013,1.013  s0.455,1.013,1.013,1.013c0.559,0,1.014-0.455,1.014-1.013S56.974,18.597,56.415,18.597z M43.594,22.945  c-1.838,0-3.334-1.496-3.334-3.334s1.496-3.334,3.334-3.334s3.334,1.496,3.334,3.334S45.432,22.945,43.594,22.945z M43.594,18.727  c-0.487,0-0.884,0.396-0.884,0.884c0,0.488,0.396,0.884,0.884,0.884c0.488,0,0.884-0.396,0.884-0.884  C44.478,19.123,44.082,18.727,43.594,18.727z"/></svg>