<svg fill="#000000" xmlns:dc="http://purl.org/dc/elements/1.1/" xmlns:cc="http://creativecommons.org/ns#" xmlns:rdf="http://www.w3.org/1999/02/22-rdf-syntax-ns#" xmlns:svg="http://www.w3.org/2000/svg" xmlns="http://www.w3.org/2000/svg" xmlns:sodipodi="http://sodipodi.sourceforge.net/DTD/sodipodi-0.dtd" xmlns:inkscape="http://www.inkscape.org/namespaces/inkscape" viewBox="0 0 1044.7173 1037.2088" version="1.1" x="0px" y="0px"><g transform="translate(-769.28532,-40.510403)"><path style="" d="m 769.28532,577.09422 0,-500.625039 25,0 25,0 0,455.312299 0,455.3123 416.55978,-416.55977 416.5598,-416.55979 -55.3098,-55.320224 c -30.4203,-30.426128 -55.3097,-56.042435 -55.3097,-56.925122 0,-1.25579 3.4667,-1.466825 15.9375,-0.970182 8.7656,0.349089 26.0625,0.943127 38.4375,1.320084 12.375,0.376958 28.4062,0.955819 35.625,1.28636 7.2187,0.33054 25.5,0.875618 40.625,1.211284 15.125,0.335666 33.4062,0.916354 40.625,1.290417 7.2188,0.374062 22.9688,0.92032 35,1.213905 34.0688,0.831345 64.2712,2.124911 65.419,2.801891 0.5743,0.338673 0.7213,3.787318 0.3269,7.663659 -0.3945,3.876338 -1.0139,24.204139 -1.3765,45.172888 -0.3626,20.96875 -0.9212,40.37501 -1.2412,43.12501 -0.32,2.75 -0.9049,18.78125 -1.2996,35.625 -0.3947,16.84375 -0.9244,35.125 -1.1771,40.625 -0.6246,13.59585 -2.2426,63.04702 -2.3994,73.33386 -0.07,4.58361 -0.5712,8.77774 -1.114,9.32029 -0.5429,0.54253 -25.9971,-24.01896 -56.5651,-54.58111 l -55.578,-55.56754 -416.5598,416.55978 -416.5598,416.55983 454.6873,0 454.6873,0 0,25 0,25 -500,0 -500.00008,0 0,-500.62508 z m 835.14128,436.26518 c -12.0848,-2.7292 -19.7732,-5.4403 -30.6287,-10.8005 -31.5365,-15.57206 -54.5754,-43.07537 -65.3093,-77.96465 -3.2514,-10.56822 -3.4611,-12.65145 -3.4611,-34.37501 0,-21.72355 0.2097,-23.80678 3.4611,-34.375 13.0578,-42.44298 43.9788,-73.36398 86.4218,-86.42179 10.5682,-3.25136 12.6514,-3.46113 34.375,-3.46113 21.7235,0 23.8068,0.20977 34.375,3.46113 42.443,13.05781 73.364,43.97881 86.4218,86.42179 3.2514,10.56822 3.4611,12.65145 3.4611,34.375 0,21.72356 -0.2097,23.80679 -3.4611,34.37501 -13.0674,42.47419 -44.3224,73.69893 -86.4218,86.33815 -9.7633,2.9312 -13.893,3.4339 -31.25,3.8038 -14.2669,0.3041 -22.2886,-0.091 -27.9838,-1.3768 z m 87.3588,-57.51515 0,-15.625 -62.5,0 -62.5,0 0,15.625 0,15.625 62.5,0 62.5,0 0,-15.625 z m 0,-66.25001 0,-15.625 -62.5,0 -62.5,0 0,15.625 0,15.62501 62.5,0 62.5,0 0,-15.62501 z m 0,-62.5 0,-15.625 -62.5,0 -62.5,0 0,15.625 0,15.625 62.5,0 62.5,0 0,-15.625 z m -635.6251,101.34841 c -4.7061,-2.10675 -11.305,-8.99347 -13.0483,-13.61728 -1.8575,-4.92687 -1.6524,-15.1772 0.3993,-19.95877 2.1034,-4.90199 8.8953,-11.52133 13.6679,-13.32069 4.9269,-1.8575 15.1772,-1.65244 19.9588,0.39928 4.902,2.10339 11.5213,8.89529 13.3207,13.66793 0.7297,1.93538 1.3267,6.25814 1.3267,9.60613 0,3.34798 -0.597,7.67075 -1.3267,9.60612 -1.7994,4.77264 -8.4187,11.56454 -13.3207,13.66793 -5.0703,2.17562 -16.0639,2.14909 -20.9777,-0.0506 z m 115.0001,-55.00001 c -4.7062,-2.10675 -11.3051,-8.99346 -13.0484,-13.61727 -1.8575,-4.92688 -1.6524,-15.1772 0.3993,-19.95878 2.1034,-4.90199 8.8953,-11.52132 13.6679,-13.32069 4.9269,-1.8575 15.1772,-1.65244 19.9588,0.39929 4.902,2.10339 11.5213,8.89529 13.3207,13.66793 0.7297,1.93537 1.3267,6.25813 1.3267,9.60612 0,3.34799 -0.597,7.67075 -1.3267,9.60613 -1.7994,4.77264 -8.4187,11.56454 -13.3207,13.66792 -5.0703,2.17563 -16.0638,2.14909 -20.9776,-0.0506 z m 285,0 c -4.7061,-2.10675 -11.3051,-8.99346 -13.0484,-13.61727 -1.8575,-4.92688 -1.6524,-15.1772 0.3993,-19.95878 2.1034,-4.90199 8.8953,-11.52132 13.668,-13.32069 4.9268,-1.8575 15.1772,-1.65244 19.9587,0.39929 4.902,2.10339 11.5214,8.89529 13.3207,13.66793 0.7297,1.93537 1.3267,6.25813 1.3267,9.60612 0,3.34799 -0.597,7.67075 -1.3267,9.60613 -1.7993,4.77264 -8.4187,11.56454 -13.3207,13.66792 -5.0703,2.17563 -16.0638,2.14909 -20.9776,-0.0506 z m -155,-25 c -4.7061,-2.10675 -11.3051,-8.99346 -13.0484,-13.61727 -1.8575,-4.92688 -1.6524,-15.17721 0.3993,-19.95878 2.1034,-4.90199 8.8953,-11.52133 13.6679,-13.32069 4.9269,-1.8575 15.1772,-1.65244 19.9588,0.39929 4.902,2.10339 11.5213,8.89529 13.3207,13.66792 0.7297,1.93538 1.3267,6.25814 1.3267,9.60613 0,3.34799 -0.597,7.67075 -1.3267,9.60613 -1.7994,4.77263 -8.4187,11.56453 -13.3207,13.66792 -5.0703,2.17563 -16.0638,2.14909 -20.9776,-0.0506 z m -387.50007,-25 c -4.70611,-2.10675 -11.30509,-8.99346 -13.04834,-13.61728 -1.8575,-4.92687 -1.65243,-15.1772 0.39929,-19.95877 2.10339,-4.90199 8.89529,-11.52133 13.66793,-13.32069 4.92687,-1.8575 15.1772,-1.65244 19.95877,0.39929 4.90199,2.10338 11.52133,8.89528 13.32069,13.66792 0.72966,1.93538 1.32667,6.25814 1.32667,9.60613 0,3.34799 -0.59701,7.67075 -1.32667,9.60612 -1.79936,4.77264 -8.4187,11.56454 -13.32069,13.66793 -5.07033,2.17562 -16.06385,2.14909 -20.97765,-0.0506 z m 277.50007,-72.50001 c -4.7062,-2.10675 -11.3051,-8.99346 -13.0484,-13.61727 -1.8575,-4.92688 -1.6524,-15.1772 0.3993,-19.95878 2.1034,-4.90199 8.8953,-11.52132 13.6679,-13.32069 4.9269,-1.8575 15.1772,-1.65243 19.9588,0.39929 4.902,2.10339 11.5213,8.89529 13.3207,13.66793 0.7297,1.93537 1.3267,6.25813 1.3267,9.60612 0,3.34799 -0.597,7.67075 -1.3267,9.60613 -1.7994,4.77264 -8.4187,11.56454 -13.3207,13.66792 -5.0703,2.17563 -16.0638,2.14909 -20.9776,-0.0506 z m 237.5,-17.5 c -4.7061,-2.10675 -11.3051,-8.99346 -13.0484,-13.61727 -1.8575,-4.92688 -1.6524,-15.1772 0.3993,-19.95878 2.1034,-4.90199 8.8953,-11.52133 13.668,-13.32069 4.9268,-1.8575 15.1772,-1.65244 19.9587,0.39929 4.902,2.10339 11.5214,8.89529 13.3207,13.66793 0.7297,1.93537 1.3267,6.25813 1.3267,9.60612 0,3.34799 -0.597,7.67075 -1.3267,9.60613 -1.7993,4.77263 -8.4187,11.56454 -13.3207,13.66792 -5.0703,2.17563 -16.0638,2.14909 -20.9776,-0.0506 z m -505.00007,-47.5 c -4.70611,-2.10675 -11.30509,-8.99346 -13.04834,-13.61728 -1.8575,-4.92687 -1.65243,-15.1772 0.39929,-19.95877 2.10339,-4.90199 8.89529,-11.52133 13.66793,-13.32069 4.92687,-1.8575 15.1772,-1.65244 19.95877,0.39929 4.90199,2.10338 11.52133,8.89528 13.32069,13.66792 0.72967,1.93538 1.32667,6.25814 1.32667,9.60613 0,3.34798 -0.597,7.67075 -1.32667,9.60612 -1.79936,4.77264 -8.4187,11.56454 -13.32069,13.66793 -5.07033,2.17562 -16.06385,2.14909 -20.97765,-0.0506 z m 377.50007,-22.5 c -4.7061,-2.10675 -11.3051,-8.99347 -13.0484,-13.61728 -1.8575,-4.92687 -1.6524,-15.1772 0.3993,-19.95878 2.1034,-4.90198 8.8953,-11.52132 13.6679,-13.32068 4.9269,-1.8575 15.1772,-1.65244 19.9588,0.39928 4.902,2.10339 11.5213,8.89529 13.3207,13.66793 0.7297,1.93537 1.3267,6.25814 1.3267,9.60613 0,3.34798 -0.597,7.67075 -1.3267,9.60612 -1.7994,4.77264 -8.4187,11.56454 -13.3207,13.66793 -5.0703,2.17562 -16.0638,2.14908 -20.9776,-0.0506 z m -157.5,-47.50001 c -4.7062,-2.10675 -11.3051,-8.99346 -13.0484,-13.61727 -1.8575,-4.92688 -1.6524,-15.1772 0.3993,-19.95878 2.1034,-4.90199 8.8953,-11.52132 13.6679,-13.32069 4.9269,-1.8575 15.1772,-1.65244 19.9588,0.39929 4.902,2.10339 11.5213,8.89529 13.3207,13.66793 0.7297,1.93537 1.3267,6.25813 1.3267,9.60612 0,3.34799 -0.597,7.67075 -1.3267,9.60613 -1.7994,4.77264 -8.4187,11.56454 -13.3207,13.66792 -5.0703,2.17563 -16.0638,2.14909 -20.9776,-0.0506 z m 377.5,0 c -4.7061,-2.10675 -11.3051,-8.99346 -13.0484,-13.61727 -1.8575,-4.92688 -1.6524,-15.1772 0.3993,-19.95878 2.1034,-4.90199 8.8953,-11.52132 13.668,-13.32069 4.9268,-1.8575 15.1772,-1.65244 19.9587,0.39929 4.902,2.10339 11.5214,8.89529 13.3207,13.66793 0.7297,1.93537 1.3267,6.25813 1.3267,9.60612 0,3.34799 -0.597,7.67075 -1.3267,9.60613 -1.7993,4.77264 -8.4187,11.56454 -13.3207,13.66792 -5.0703,2.17563 -16.0638,2.14909 -20.9776,-0.0506 z m 145,-87.5 c -4.7061,-2.10675 -11.3051,-8.99347 -13.0483,-13.61728 -1.8575,-4.92687 -1.6525,-15.1772 0.3992,-19.95878 2.1034,-4.90198 8.8953,-11.52132 13.668,-13.32068 4.9268,-1.8575 15.1772,-1.65244 19.9587,0.39928 4.902,2.10339 11.5214,8.89529 13.3207,13.66793 0.7297,1.93537 1.3267,6.25814 1.3267,9.60612 0,3.34799 -0.597,7.67076 -1.3267,9.60613 -1.7993,4.77264 -8.4187,11.56454 -13.3207,13.66793 -5.0703,2.17562 -16.0638,2.14908 -20.9776,-0.0506 z m -210,-5 c -4.7061,-2.10675 -11.3051,-8.99347 -13.0484,-13.61728 -1.8575,-4.92688 -1.6524,-15.1772 0.3993,-19.95878 2.1034,-4.90198 8.8953,-11.52132 13.668,-13.32068 4.9268,-1.8575 15.1772,-1.65244 19.9587,0.39928 4.902,2.10339 11.5214,8.89529 13.3207,13.66793 0.7297,1.93537 1.3267,6.25814 1.3267,9.60612 0,3.34799 -0.597,7.67076 -1.3267,9.60613 -1.7993,4.77264 -8.4187,11.56454 -13.3207,13.66793 -5.0703,2.17562 -16.0638,2.14908 -20.9776,-0.0506 z M 948.66033,503.44261 c -4.70611,-2.10675 -11.30508,-8.99346 -13.04833,-13.61727 -1.8575,-4.92688 -1.65244,-15.1772 0.39928,-19.95878 2.10339,-4.90199 8.89529,-11.52132 13.66793,-13.32069 4.92688,-1.8575 15.1772,-1.65243 19.95878,0.39929 4.90198,2.10339 11.52132,8.89529 13.32069,13.66793 0.72966,1.93537 1.32666,6.25814 1.32666,9.60612 0,3.34799 -0.597,7.67075 -1.32666,9.60613 -1.79937,4.77264 -8.41871,11.56454 -13.32069,13.66792 -5.07034,2.17563 -16.06385,2.14909 -20.97766,-0.0506 z m 212.50007,-2.5 c -4.7062,-2.10675 -11.3051,-8.99346 -13.0484,-13.61727 -1.8575,-4.92688 -1.6524,-15.1772 0.3993,-19.95878 2.1034,-4.90199 8.8953,-11.52132 13.6679,-13.32069 4.9269,-1.8575 15.1772,-1.65243 19.9588,0.39929 4.902,2.10339 11.5213,8.89529 13.3207,13.66793 0.7297,1.93537 1.3267,6.25814 1.3267,9.60612 0,3.34799 -0.597,7.67075 -1.3267,9.60613 -1.7994,4.77264 -8.4187,11.56454 -13.3207,13.66792 -5.0703,2.17563 -16.0638,2.14909 -20.9776,-0.0506 z m 140,-47.5 c -4.7061,-2.10675 -11.3051,-8.99346 -13.0484,-13.61728 -1.8575,-4.92687 -1.6524,-15.1772 0.3993,-19.95877 2.1034,-4.90199 8.8953,-11.52133 13.6679,-13.32069 4.9269,-1.8575 15.1772,-1.65244 19.9588,0.39929 4.902,2.10338 11.5213,8.89529 13.3207,13.66792 0.7297,1.93538 1.3267,6.25814 1.3267,9.60613 0,3.34799 -0.597,7.67075 -1.3267,9.60612 -1.7994,4.77264 -8.4187,11.56454 -13.3207,13.66793 -5.0703,2.17563 -16.0638,2.14909 -20.9776,-0.0506 z m 287.5,-25 c -4.7061,-2.10675 -11.3051,-8.99346 -13.0483,-13.61728 -1.8575,-4.92687 -1.6525,-15.1772 0.3992,-19.95877 2.1034,-4.90199 8.8953,-11.52133 13.668,-13.32069 4.9268,-1.8575 15.1772,-1.65244 19.9587,0.39929 4.902,2.10338 11.5214,8.89528 13.3207,13.66792 0.7297,1.93538 1.3267,6.25814 1.3267,9.60613 0,3.34798 -0.597,7.67075 -1.3267,9.60612 -1.7993,4.77264 -8.4187,11.56454 -13.3207,13.66793 -5.0703,2.17562 -16.0638,2.14909 -20.9776,-0.0506 z m -460,-75.00001 c -4.7062,-2.10675 -11.3051,-8.99346 -13.0484,-13.61727 -1.8575,-4.92688 -1.6524,-15.1772 0.3993,-19.95878 2.1034,-4.90199 8.8953,-11.52133 13.6679,-13.32069 4.9269,-1.8575 15.1772,-1.65244 19.9588,0.39929 4.902,2.10339 11.5213,8.89529 13.3207,13.66793 0.7297,1.93537 1.3267,6.25813 1.3267,9.60612 0,3.34799 -0.597,7.67075 -1.3267,9.60613 -1.7994,4.77263 -8.4187,11.56454 -13.3207,13.66792 -5.0703,2.17563 -16.0638,2.14909 -20.9776,-0.0506 z m 172.5,-16.25 c -4.7061,-2.10675 -11.3051,-8.99346 -13.0484,-13.61727 -1.8575,-4.92688 -1.6524,-15.17721 0.3993,-19.95878 2.1034,-4.90199 8.8953,-11.52133 13.6679,-13.32069 4.9269,-1.8575 15.1772,-1.65244 19.9588,0.39929 4.902,2.10339 11.5213,8.89529 13.3207,13.66792 0.7297,1.93538 1.3267,6.25814 1.3267,9.60613 0,3.34799 -0.597,7.67075 -1.3267,9.60613 -1.7994,4.77263 -8.4187,11.56453 -13.3207,13.66792 -5.0703,2.17563 -16.0638,2.14909 -20.9776,-0.0506 z m 370,-8.75 c -4.7061,-2.10675 -11.3051,-8.99346 -13.0483,-13.61727 -1.8575,-4.92688 -1.6525,-15.17721 0.3992,-19.95878 2.1034,-4.90199 8.8953,-11.52133 13.668,-13.32069 4.9268,-1.8575 15.1772,-1.65244 19.9587,0.39929 4.902,2.10339 11.5214,8.89529 13.3207,13.66792 0.7297,1.93538 1.3267,6.25814 1.3267,9.60613 0,3.34799 -0.597,7.67075 -1.3267,9.60613 -1.7993,4.77263 -8.4187,11.56453 -13.3207,13.66792 -5.0703,2.17563 -16.0638,2.14909 -20.9776,-0.0506 z m -180,-60 c -4.7061,-2.10675 -11.3051,-8.99347 -13.0484,-13.61728 -1.8575,-4.92688 -1.6524,-15.1772 0.3993,-19.95878 2.1034,-4.90198 8.8953,-11.52132 13.668,-13.32068 4.9268,-1.8575 15.1772,-1.65244 19.9587,0.39928 4.902,2.10339 11.5214,8.89529 13.3207,13.66793 0.7297,1.93537 1.3267,6.25814 1.3267,9.60612 0,3.34799 -0.597,7.67076 -1.3267,9.60613 -1.7993,4.77264 -8.4187,11.56454 -13.3207,13.66793 -5.0703,2.17562 -16.0638,2.14908 -20.9776,-0.0506 z m -15,-120.00001 c -4.7061,-2.10675 -11.3051,-8.99347 -13.0484,-13.61728 -1.8575,-4.92687 -1.6524,-15.1772 0.3993,-19.95878 2.1034,-4.90198 8.8953,-11.52132 13.668,-13.32068 4.9268,-1.857504 15.1772,-1.652442 19.9587,0.39928 4.902,2.10339 11.5214,8.89529 13.3207,13.66793 0.7297,1.93537 1.3267,6.25814 1.3267,9.60612 0,3.34799 -0.597,7.67076 -1.3267,9.60613 -1.7993,4.77264 -8.4187,11.56454 -13.3207,13.66793 -5.0703,2.17562 -16.0638,2.14908 -20.9776,-0.0506 z" fill="#000000"/></g></svg>