<svg xmlns="http://www.w3.org/2000/svg" xmlns:xlink="http://www.w3.org/1999/xlink" version="1.1" x="0px" y="0px" viewBox="0 0 64 64" enable-background="new 0 0 64 64" xml:space="preserve"><g><path fill="#000000" d="M6.346,64c-0.202,0-0.402-0.062-0.573-0.181C5.506,63.633,5.346,63.326,5.346,63V37.434   c0-0.42,0.262-0.795,0.656-0.939l51.724-18.939c0.305-0.112,0.647-0.068,0.917,0.119c0.268,0.187,0.427,0.493,0.427,0.82v25.566   c0,0.42-0.262,0.795-0.656,0.939L6.69,63.939C6.579,63.979,6.462,64,6.346,64z M7.346,38.133v23.437L57.07,43.361V19.925   L7.346,38.133z"></path><path fill="#000000" d="M7.254,37.854l-1.815-0.84L19.016,7.657c0.206-0.443,0.7-0.674,1.171-0.545l38.146,10.417l-0.527,1.93   L20.477,9.265L7.254,37.854z"></path><path fill="#000000" d="M19.993,52.428c-1.283,0-2.533-0.274-3.384-0.758c-1.476-0.837-2.857-2.852-4.076-4.628   c-0.392-0.571-0.756-1.104-1.083-1.529l-0.37-0.484c-1.852-2.426-1.924-2.521-5.15-2.521v-2c4.074,0,4.657,0.578,6.74,3.308   l0.367,0.479c0.345,0.45,0.731,1.012,1.146,1.615c1.042,1.52,2.34,3.411,3.414,4.021c1.435,0.813,4.686,0.641,5.402-0.548   c0.516-0.856,0.331-2.102,0.134-3.421c-0.215-1.443-0.438-2.937,0.227-4.234c1.106-2.165,3.312-1.785,4.922-1.51   c0.869,0.148,1.768,0.303,2.334,0.085c0.833-0.322,1.181-1.271,1.656-2.797c0.363-1.167,0.739-2.373,1.59-3.263   c1.495-1.561,3.728-2.292,5.683-1.87c2.514,0.541,3.588,3.068,4.452,5.099c0.199,0.47,0.392,0.923,0.592,1.323   c0.605,1.21,1.353,1.968,2.22,2.25c0.832,0.273,1.823,0.112,2.954-0.472c2.742-1.415,2.961-4.548,2.952-7.907   c-0.002-1.383-0.004-2.654,0.527-3.992c0.375-0.943,1.04-1.624,1.628-2.224c0.466-0.477,0.905-0.926,1.145-1.442   c0.798-1.722,0.521-4.375,0.339-6.129l-0.073-0.724l1.992-0.183l0.07,0.699c0.205,1.974,0.517,4.956-0.514,7.177   c-0.383,0.828-0.992,1.45-1.529,2c-0.5,0.511-0.972,0.994-1.198,1.563c-0.39,0.981-0.389,1.966-0.387,3.214   c0.008,3.06,0.021,7.633-4.034,9.725c-1.622,0.838-3.134,1.037-4.491,0.596c-1.395-0.454-2.535-1.55-3.39-3.257   c-0.218-0.435-0.427-0.925-0.644-1.435c-0.753-1.772-1.532-3.604-3.033-3.928c-1.274-0.272-2.808,0.247-3.815,1.298   c-0.527,0.551-0.818,1.485-1.126,2.475c-0.493,1.582-1.051,3.374-2.845,4.067c-1.08,0.417-2.257,0.216-3.394,0.021   c-1.805-0.309-2.427-0.289-2.803,0.449c-0.373,0.728-0.206,1.846-0.029,3.029c0.229,1.536,0.488,3.276-0.4,4.749   C23.859,51.827,21.891,52.428,19.993,52.428z"></path><path fill="#000000" d="M26.968,26.32c-1.755,0-3.208-0.531-4.44-1.624c-1.432-1.271-3.017-3.688-3.275-5.851   c-0.255-2.147,0.097-4.905,1.854-6.208c0.955-0.708,2.415-1.165,3.721-1.165c0.9,0,1.673,0.209,2.28,0.612   c0.479-0.347,1.178-0.523,2.084-0.523c1.146,0,2.421,0.28,3.04,0.543c1.899,0.805,2.917,3.136,3.06,4.96   c0.148,1.866-0.419,3.943-1.558,5.697c-1.332,2.05-3.314,3.261-5.734,3.504C27.646,26.301,27.302,26.32,26.968,26.32z    M24.829,13.473c-0.978,0-2.013,0.388-2.53,0.771c-0.998,0.74-1.249,2.781-1.06,4.365c0.17,1.424,1.319,3.441,2.615,4.591   c1.059,0.938,2.307,1.241,3.948,1.076c1.82-0.183,3.252-1.059,4.256-2.603c0.903-1.391,1.355-3.014,1.241-4.45   c-0.099-1.269-0.817-2.84-1.849-3.277c-0.379-0.161-1.373-0.384-2.257-0.384c-0.585,0-0.854,0.102-0.908,0.141   c-0.149,0.385-0.515,0.637-0.928,0.637h-0.339c-0.303,0-0.589-0.137-0.779-0.373C25.91,13.559,25.291,13.473,24.829,13.473z"></path><path fill="#000000" d="M26.498,15.8c-0.011-0.414-0.147-10.213,9.62-15.673l0.977,1.746C28.369,6.75,28.495,15.66,28.497,15.75   L26.498,15.8z"></path></g></svg>