<svg fill="#000000" xmlns="http://www.w3.org/2000/svg" xmlns:xlink="http://www.w3.org/1999/xlink" version="1.1" x="0px" y="0px" viewBox="0 0 91 91" style="enable-background:new 0 0 91 91;" xml:space="preserve"><g><path d="M12.2,50.8c0.2,0,0.3,0,0.5-0.1c1.1-0.3,1.7-1.3,1.5-2.4c-0.3-1.4-0.5-2.9-0.5-4.4c0-1.1-0.9-2-2-2c0,0,0,0,0,0   c-1.1,0-2,0.9-2,2c0,1.9,0.2,3.6,0.6,5.3C10.4,50.1,11.2,50.8,12.2,50.8z"/><path d="M13.3,56.1c3.7,5.2,10,8.4,17.3,8.7c0.4,0,0.9,0,1.3,0c8.9,0,17.7-4.1,23.7-11.1c5-5.8,3.8-11.4,0.7-14.2   c-3.1-2.7-8.4-3.1-12.7,1.6c-0.8,0.8-0.7,2.1,0.1,2.8c0.8,0.8,2.1,0.7,2.8-0.1c2.7-2.9,5.6-2.7,7.1-1.3c1.8,1.6,2.2,4.9-1,8.7   c-5.5,6.4-13.7,10-21.8,9.6c-6.1-0.3-11.3-2.8-14.2-7c-0.6-0.9-1.9-1.1-2.8-0.5C12.8,53.9,12.6,55.2,13.3,56.1z"/><path d="M55.5,72.5c-0.8,0.7-0.9,2-0.2,2.8c0.4,0.4,0.9,0.7,1.5,0.7c0.5,0,0.9-0.2,1.3-0.5C66.5,68,73,55.9,67.4,47   c-0.6-0.9-1.8-1.2-2.8-0.6c-0.9,0.6-1.2,1.8-0.6,2.8C68.2,55.8,62.9,65.9,55.5,72.5z"/><path d="M58.4,62.5c0.7-0.9,0.5-2.1-0.4-2.8c-0.9-0.7-2.1-0.5-2.8,0.4c-8.6,11.3-27.6,17.4-37,11.8c-0.9-0.6-2.2-0.2-2.7,0.7   c-0.6,1-0.2,2.2,0.7,2.7c3,1.8,6.8,2.7,11,2.7c3.5,0,7.3-0.6,11.2-1.9C46.4,73.4,53.9,68.4,58.4,62.5z"/><path d="M66.5,28.4c-11.1-3.9-24.6,0.1-32.7,9.9c-4.9,5.8-3.7,11.4-0.5,14.2c1.4,1.2,3.3,2,5.3,2c2.4,0,5.1-1.1,7.5-3.6   c0.7-0.8,0.7-2.1-0.1-2.8c-0.8-0.7-2.1-0.7-2.8,0.1c-2.6,2.9-5.6,2.8-7.1,1.4c-1.8-1.6-2.2-4.9,0.9-8.6c8-9.5,20.3-11.5,28.3-8.7   c4,1.4,10.7,5.3,10.9,15.4c0,1.1,1,2,2,2c1.1,0,2-0.9,2-2C79.9,38.4,75,31.4,66.5,28.4z"/><path d="M23.7,46.2c0.4,0,0.8-0.1,1.1-0.3c0.9-0.6,1.2-1.8,0.6-2.8c-4.3-6.6,0.9-16.8,8.2-23.4c0.8-0.7,0.9-2,0.1-2.8   c-0.7-0.8-2-0.9-2.8-0.1c-8.3,7.5-14.6,19.7-8.8,28.6C22.4,45.8,23.1,46.2,23.7,46.2z"/><path d="M30.8,29.7c-0.7,0.9-0.5,2.1,0.4,2.8c0.4,0.3,0.8,0.4,1.2,0.4c0.6,0,1.2-0.3,1.6-0.8c8.5-11.4,27.5-17.7,37-12.2   c1,0.5,2.2,0.2,2.7-0.7c0.5-1,0.2-2.2-0.7-2.7c-5.6-3.2-13.8-3.4-22.3-0.5C42.7,18.6,35.3,23.7,30.8,29.7z"/><path d="M79.1,53.6c0-0.1-0.1-0.2-0.2-0.3c-0.1-0.1-0.2-0.2-0.2-0.3c-0.1-0.1-0.2-0.2-0.3-0.2c-0.1-0.1-0.2-0.1-0.3-0.2   s-0.2-0.1-0.4-0.1c-0.6-0.1-1.3,0.1-1.8,0.5c-0.1,0.1-0.2,0.2-0.2,0.3c-0.1,0.1-0.1,0.2-0.2,0.3c0,0.1-0.1,0.2-0.1,0.4   c0,0.1,0,0.3,0,0.4s0,0.3,0,0.4c0,0.1,0.1,0.2,0.1,0.4c0.1,0.1,0.1,0.2,0.2,0.4c0.1,0.1,0.2,0.2,0.2,0.3c0.4,0.4,0.9,0.6,1.4,0.6   c0.5,0,1-0.2,1.4-0.6c0.4-0.4,0.6-0.9,0.6-1.4c0-0.1,0-0.3,0-0.4C79.2,53.9,79.2,53.7,79.1,53.6z"/></g></svg>