<svg xmlns="http://www.w3.org/2000/svg" xmlns:xlink="http://www.w3.org/1999/xlink" version="1.1" id="Layer_1" x="0px" y="0px" width="100px" height="100px" viewBox="0 0 100 100" enable-background="new 0 0 100 100" xml:space="preserve">
<path d="M2.493,94.194v0.009c5.47,0.547,11.076,0.466,16.612-0.343c2.757-0.445,5.516-0.989,8.203-1.766  c0.677-0.182,1.332-0.414,2.004-0.618c0.666-0.208,1.326-0.43,1.977-0.678c0.655-0.237,1.317-0.461,1.962-0.714  c0.644-0.261,1.289-0.526,1.928-0.786c5.084-2.191,9.844-4.927,14.143-7.973c4.302-3.049,8.198-6.359,11.717-9.732  c7.032-6.766,12.648-13.675,17.384-19.927c4.733-6.271,8.545-11.927,11.69-16.622c1.563-2.363,2.956-4.471,4.174-6.306  c0.619-0.977,1.189-1.884,1.714-2.714c0.266-0.417,0.521-0.818,0.765-1.198c0.239-0.385,0.471-0.765,0.663-1.013  c1.146-1.607,1.939-2.654,2.293-3.115c0.025-0.012,0.051-0.024,0.074-0.038c0.108-0.06,0.18-0.13,0.198-0.214  c0.337-1.492-13.724-5.95-31.42-9.96C51.909,6.714,37.973,4.687,36.133,5.713c-0.114,0.063-0.18,0.137-0.2,0.224  c0,0,0.329,1.449,0.802,4.135c0.056,0.365,0.129,0.632,0.2,0.928c0.074,0.3,0.153,0.618,0.237,0.95  c0.168,0.668,0.337,1.384,0.499,2.193c0.282,1.674,0.594,3.625,0.829,5.772c0.487,4.305,0.816,9.525,0.508,15.326  c-0.312,5.794-1.215,12.22-3.356,18.697c-2.148,6.451-5.546,12.988-11.017,18.397c-1.353,1.373-2.864,2.614-4.485,3.792  c-1.625,1.174-3.386,2.239-5.267,3.174c-3.764,1.874-8.027,3.26-12.614,3.986c-0.185,0.004-0.365,0.056-0.537,0.152  c-1.042,0.582-1.783,2.763-1.729,5.35c0.063,3.014,1.177,5.433,2.487,5.405C2.49,94.194,2.491,94.192,2.493,94.194z M1.222,88.765  c-0.052-2.451,0.668-3.962,1.073-4.242c0.371,0.222,1.19,1.649,1.242,4.195c0.049,2.396-0.636,3.891-1.019,4.217L2.38,92.896  C1.984,92.534,1.271,91.134,1.222,88.765z M68.305,11.677c14.161,3.209,24.103,6.253,28.374,8.02  c-4.607-0.244-14.891-1.782-29.056-4.99C53.46,11.498,43.515,8.454,39.245,6.686C43.858,6.932,54.141,8.47,68.305,11.677z"/>
</svg>
