<svg xmlns="http://www.w3.org/2000/svg" xmlns:xlink="http://www.w3.org/1999/xlink" version="1.1" x="0px" y="0px" width="100px" height="100px" viewBox="0 0 100 100" enable-background="new 0 0 100 100" xml:space="preserve">
<g id="Layer_1">
	<g>
		<circle cx="50.426" cy="17.326" r="9.874"/>
		<path d="M74.638,24.973c4-7.002,3.265-19.625,3.23-20.16c-0.103-1.634-1.493-2.848-3.142-2.774    c-1.635,0.101-2.878,1.507-2.775,3.142c0.191,3.151,0.127,12.323-2.462,16.849c-1.01,1.766-3.423,2.981-6.218,4.39    c-0.967,0.485-1.965,0.99-2.959,1.539c-1.875,0.077-3.727,0.808-5.17,2.218c-0.478,0.469-0.877,0.986-1.213,1.533    c-3.014,1.06-8.729,2.564-13.072,1.693c-2.052-0.409-8.934-3.196-11.779-8.073c-0.828-1.414-2.642-1.893-4.057-1.067    c-1.415,0.824-1.892,2.64-1.066,4.056c3.868,6.628,12.274,10.206,15.739,10.9c1.313,0.265,2.671,0.376,4.026,0.376    c3.432,0,6.832-0.706,9.405-1.427c0.356,1.137,0.973,2.214,1.869,3.128c0.038,0.045,2.706,2.946,4.439,7.639    c-10.187-2.67-17.025-0.58-21.014,1.726c-5.559,3.211-8.499,8.409-9.33,11.885c-0.474,1.993,0.756,3.991,2.746,4.469    c0.29,0.066,0.576,0.1,0.863,0.1c1.677,0,3.196-1.145,3.601-2.849c0.396-1.645,2.062-5.012,5.829-7.185    c3.424-1.979,7.731-2.502,12.839-1.566c-1.888,0.428-3.457,1.213-4.732,2.365c-4.894,4.428-3.205,12.172-1.97,17.827    c0.385,1.761,0.964,4.418,0.836,5.228c-0.561,1.944,0.543,3.986,2.485,4.577c0.358,0.106,0.72,0.159,1.076,0.159    c1.591,0,3.062-1.031,3.547-2.631c0.722-2.387,0.094-5.266-0.701-8.912c-0.801-3.666-2.009-9.204-0.303-10.749    c0.462-0.414,2.144-1.372,7.288-0.445c1.366,1.779,3.48,2.969,5.899,3.075c0.116,0.006,0.235,0.009,0.354,0.009    c4.19,0,7.678-3.301,7.865-7.531c0.635-14.31-7.08-24.459-9.561-27.334C70.031,29.623,72.952,27.922,74.638,24.973z"/>
		<path d="M55.16,90.431c-5.649-1.728-24.105-18.988-27.311-23.346c-2.57-3.49-3.294-8.938-3.306-9.02    c-0.184-1.458-1.498-2.498-2.976-2.315c-1.464,0.182-2.502,1.515-2.319,2.979c0.035,0.28,0.888,6.884,4.304,11.525    c2.816,3.826,22.286,22.906,30.05,25.276c0.259,0.08,0.522,0.119,0.782,0.119c1.141,0,2.199-0.741,2.55-1.89    C57.365,92.348,56.571,90.856,55.16,90.431z"/>
		<circle cx="20.35" cy="74.858" r="3.736"/>
		<path d="M41.104,90.396c-2.061,0-3.736,1.672-3.736,3.733c0,2.066,1.675,3.74,3.736,3.74c2.065,0,3.737-1.674,3.737-3.74    C44.842,92.067,43.17,90.396,41.104,90.396z"/>
	</g>
</g>
<g id="nyt_x5F_exporter_x5F_info" display="none">
</g>
</svg>
