<svg fill="#000000" xmlns:dc="http://purl.org/dc/elements/1.1/" xmlns:cc="http://creativecommons.org/ns#" xmlns:rdf="http://www.w3.org/1999/02/22-rdf-syntax-ns#" xmlns:svg="http://www.w3.org/2000/svg" xmlns="http://www.w3.org/2000/svg" xmlns:sodipodi="http://sodipodi.sourceforge.net/DTD/sodipodi-0.dtd" xmlns:inkscape="http://www.inkscape.org/namespaces/inkscape" version="1.1" x="0px" y="0px" viewBox="0 0 747.60504 744.10297" enable-background="new 0 0 2000 2000" xml:space="preserve"><path style="" d="M 31.256,0 C 13.971,0 0,13.972 0,31.257 l 0,131.529 c 0,17.285 13.971,31.257 31.256,31.257 17.254,0 31.258,-13.972 31.258,-31.257 l 0,-100.272 100.241,0 c 17.285,0 31.258,-13.972 31.258,-31.257 C 194.013,13.972 180.04,0 162.755,0 L 31.256,0 Z m 553.59603,0 c -17.285,0 -31.26,13.972 -31.26,31.257 0,17.285 13.975,31.257 31.26,31.257 l 100.238,0 0,100.272 c 0,17.285 13.972,31.257 31.257,31.257 17.255,0 31.258,-13.972 31.258,-31.257 l 0,-131.529 C 747.60503,13.972 733.63203,0 716.34703,0 l -131.495,0 z M 157.002,124.027 c -17.285,0 -31.257,13.972 -31.257,31.257 l 0,433.53498 c 0,17.285 13.972,31.257 31.257,31.257 l 433.50503,0 c 17.285,0 31.256,-13.972 31.256,-31.257 l 0,-433.53498 c 0,-17.285 -13.971,-31.257 -31.256,-31.257 l -433.50503,0 z m 31.258,62.514 370.99103,0 0,371.02098 -370.99103,0 0,-371.02098 z M 31.256,550.06098 c -17.285,0 -31.256,13.972 -31.256,31.257 l 0,131.528 c 0,17.285 13.971,31.257 31.256,31.257 l 131.499,0 c 17.255,0 31.258,-13.972 31.258,-31.257 0,-17.285 -13.973,-31.257 -31.258,-31.257 l -100.241,0 0,-100.271 c 0,-17.285 -13.973,-31.257 -31.258,-31.257 z m 685.09103,0 c -17.285,0 -31.257,13.972 -31.257,31.257 l 0,100.271 -100.238,0 c -17.285,0 -31.26,13.972 -31.26,31.257 0,17.285 13.975,31.257 31.26,31.257 l 131.495,0 c 17.255,0 31.258,-14.003 31.258,-31.257 l 0,-131.528 c 0,-17.285 -13.973,-31.257 -31.258,-31.257 z" fill="#000000"/></svg>