<svg xmlns="http://www.w3.org/2000/svg" xmlns:xlink="http://www.w3.org/1999/xlink" xmlns:sketch="http://www.bohemiancoding.com/sketch/ns" viewBox="0 0 100 100" version="1.1" x="0px" y="0px"><title>B04</title><desc>Created with Sketch.</desc><g stroke="none" stroke-width="1" fill="none" fill-rule="evenodd" sketch:type="MSPage"><g sketch:type="MSArtboardGroup" fill="#000000"><path d="M87.7981651,85 L12.2018349,85 C11.0275229,85 10,83.9662447 10,82.7848101 C10,81.6033755 11.0275229,80.5696203 12.2018349,80.5696203 L87.7981651,80.5696203 C88.9724771,80.5696203 90,81.6033755 90,82.7848101 C90,83.9662447 88.9724771,85 87.7981651,85 L87.7981651,85 Z M76.9357798,76.5822785 C76.6422018,77.6160338 75.7614679,78.3544304 74.733945,78.3544304 L26.733945,78.3544304 C25.706422,78.3544304 24.8256881,77.6160338 24.5321101,76.7299578 L17.7798165,48.2278481 L17.7798165,47.7848101 C17.7798165,32.1308017 29.5229358,23.5654008 50.9541284,23.5654008 C50.5137615,22.3839662 50.6605505,21.0548523 51.1009174,19.7257384 C51.3944954,18.8396624 51.9816514,18.1012658 52.2752294,17.6582278 L52.4220183,17.5105485 L52.5688073,17.3628692 C53.1559633,16.6244726 53.8899083,16.1814346 54.7706422,15.7383966 C54.9174312,15.5907173 55.0642202,15.5907173 55.2110092,15.5907173 C55.6513761,15.443038 56.0917431,15.2953586 56.6788991,15.1476793 C57.266055,15 57.706422,15 58.293578,15 L59.0275229,15 L59.1743119,15 L59.1743119,15 L59.3211009,15 C59.6146789,15 59.7614679,15 60.0550459,15.1476793 C60.6422018,15.2953586 61.0825688,15.443038 61.6697248,15.5907173 L61.6697248,15.5907173 C61.8165138,15.5907173 61.9633028,15.7383966 62.1100917,15.7383966 C63.5779817,16.4767932 64.7522936,17.6582278 65.6330275,18.9873418 C67.2477064,18.5443038 68.8623853,18.6919831 70.4770642,19.2827004 C70.6238532,19.2827004 70.7706422,19.4303797 70.9174312,19.4303797 C71.5045872,19.7257384 71.9449541,20.021097 72.5321101,20.3164557 C72.6788991,20.464135 72.8256881,20.6118143 73.1192661,20.7594937 L73.1192661,20.7594937 C74.146789,21.6455696 74.8807339,22.6793249 75.3211009,24.0084388 C75.3211009,24.1561181 75.4678899,24.3037975 75.4678899,24.4514768 C76.0550459,26.2236287 76.0550459,28.1434599 75.3211009,29.9156118 L75.3211009,29.9156118 C75.1743119,30.2109705 75.0275229,30.3586498 74.8807339,30.6540084 C75.3211009,31.0970464 75.9082569,31.3924051 76.3486239,31.835443 C80.8990826,36.1181435 83.3944954,42.1729958 83.3944954,49.4092827 L76.9357798,76.5822785 Z M54.3302752,22.6793249 C54.4770642,22.9746835 54.6238532,23.2700422 54.7706422,23.4177215 C54.9174312,23.7130802 55.2110092,24.0084388 55.5045872,24.4514768 L55.5045872,24.4514768 C55.9449541,25.0421941 56.5321101,25.92827 56.9724771,26.814346 C57.1192661,27.257384 57.412844,27.7004219 57.706422,28.1434599 C58,28.8818565 58.440367,29.7679325 58.733945,30.8016878 C58.8807339,31.0970464 58.8807339,31.3924051 59.0275229,31.6877637 C59.0275229,31.835443 59.0275229,31.9831224 59.1743119,32.1308017 L59.3211009,32.4261603 L59.6146789,33.6075949 L61.3761468,32.5738397 C61.6697248,32.4261603 61.9633028,32.278481 62.2568807,32.1308017 C63.7247706,31.3924051 65.0458716,30.8016878 66.2201835,30.5063291 C67.2477064,30.2109705 68.1284404,30.0632911 69.0091743,29.9156118 L69.0091743,29.9156118 C69.7431193,29.7679325 70.4770642,29.6202532 71.0642202,29.4725738 C71.6513761,29.3248945 72.0917431,28.8818565 72.3853211,28.1434599 C72.6788991,27.257384 72.8256881,26.2236287 72.5321101,25.3375527 C72.5321101,25.1898734 72.3853211,25.0421941 72.3853211,24.8945148 C71.9449541,23.8607595 71.2110092,22.9746835 70.1834862,22.3839662 C70.0366972,22.2362869 69.7431193,22.2362869 69.4495413,22.0886076 L69.1559633,22.0886076 L69.1559633,22.0886076 C68.1284404,21.7932489 67.1009174,21.7932489 66.0733945,22.2362869 C65.4862385,22.5316456 64.7522936,22.5316456 64.1651376,22.3839662 C63.7247706,22.2362869 63.4311927,21.9409283 63.1376147,21.6455696 L63.1376147,21.4978903 L63.1376147,21.350211 L62.8440367,20.6118143 C62.4036697,19.7257384 61.8165138,19.1350211 60.9357798,18.6919831 C60.9357798,18.6919831 60.9357798,18.6919831 60.7889908,18.6919831 L60.7889908,18.6919831 L60.6422018,18.6919831 L60.3486239,18.5443038 C60.0550459,18.3966245 59.6146789,18.2489451 59.1743119,18.2489451 L58,18.2489451 C57.706422,18.2489451 57.412844,18.2489451 57.1192661,18.3966245 C56.8256881,18.3966245 56.6788991,18.5443038 56.5321101,18.6919831 C56.3853211,18.6919831 56.2385321,18.8396624 56.2385321,18.8396624 C55.7981651,19.1350211 55.5045872,19.4303797 55.0642202,19.7257384 L55.0642202,19.7257384 L55.0642202,19.7257384 C54.7706422,20.021097 54.4770642,20.464135 54.3302752,20.907173 C54.0366972,21.4978903 54.0366972,22.0886076 54.3302752,22.6793249 L54.3302752,22.6793249 Z M78.2568807,51.1814346 C72.8256881,52.2151899 69.4495413,50.443038 67.9816514,49.2616034 C60.3486239,53.8396624 54.0366972,50.7383966 51.6880734,49.2616034 C48.6055046,51.4767932 45.5229358,52.3628692 43.0275229,52.3628692 C39.5045872,52.3628692 36.8623853,50.8860759 35.5412844,50 C30.8440367,52.9535865 26,51.7721519 23.2110092,50.7383966 L28.7889908,73.9240506 L73.266055,73.9240506 L78.2568807,51.1814346 L78.2568807,51.1814346 Z M78.8440367,48.3755274 C78.6972477,41.5822785 76.0550459,37.0042194 72.2385321,33.9029536 C71.7981651,33.6075949 71.5045872,33.3122363 71.0642202,33.0168776 C70.4770642,33.164557 69.8899083,33.3122363 69.3027523,33.3122363 C68.7155963,33.4599156 67.9816514,33.6075949 67.2477064,33.7552743 C66.0733945,34.0506329 64.7522936,34.4936709 63.2844037,35.3797468 C63.1376147,35.3797468 62.9908257,35.5274262 62.8440367,35.6751055 L60.2018349,37.1518987 C60.2018349,37.1518987 60.2018349,37.1518987 60.0550459,37.1518987 C59.6146789,37.4472574 59.0275229,37.4472574 58.440367,37.4472574 L58.293578,37.4472574 C58.146789,37.4472574 58,37.4472574 57.853211,37.2995781 C57.266055,37.0042194 56.6788991,36.5611814 56.3853211,35.9704641 L56.3853211,35.8227848 L55.7981651,33.164557 C55.7981651,33.0168776 55.7981651,32.8691983 55.6513761,32.721519 C55.6513761,32.5738397 55.5045872,32.4261603 55.5045872,32.1308017 C55.0642202,30.3586498 54.4770642,29.1772152 53.8899083,28.1434599 C53.8899083,27.9957806 53.7431193,27.8481013 53.5963303,27.8481013 L50.9541284,27.8481013 C37.8899083,27.8481013 22.4770642,31.2447257 22.1834862,47.3417722 C23.5045872,48.0801688 29.3761468,51.1814346 34.6605505,47.3417722 C35.1009174,47.0464135 35.8348624,47.0464135 36.2752294,47.3417722 C36.5688073,47.6371308 42.8807339,52.8059072 50.8073394,46.6033755 C51.2477064,46.1603376 51.9816514,46.1603376 52.5688073,46.6033755 C52.8623853,46.8987342 59.0275229,52.0675105 67.3944954,46.6033755 C67.9816514,46.3080169 68.7155963,46.3080169 69.1559633,46.8987342 C69.1559633,46.8987342 72.2385321,50.1476793 78.8440367,48.3755274 L78.8440367,48.3755274 Z M29.8165138,41.7299578 C29.9633028,41.4345992 34.0733945,35.6751055 44.7889908,35.2320675 C45.5229358,35.2320675 46.1100917,34.6413502 46.1100917,33.9029536 C46.1100917,33.164557 45.5229358,32.5738397 44.7889908,32.5738397 C32.6055046,33.164557 27.9082569,39.9578059 27.7614679,40.2531646 C27.3211009,40.8438819 27.4678899,41.7299578 28.0550459,42.0253165 C28.3486239,42.1729958 28.4954128,42.3206751 28.7889908,42.3206751 C29.2293578,42.3206751 29.5229358,42.0253165 29.8165138,41.7299578 L29.8165138,41.7299578 Z" sketch:type="MSShapeGroup"></path></g></g></svg>