<svg fill="#000000" xmlns="http://www.w3.org/2000/svg" xmlns:xlink="http://www.w3.org/1999/xlink" version="1.1" x="0px" y="0px" viewBox="0 0 1000 1000" style="enable-background:new 0 0 1000 1000;" xml:space="preserve"><g><g><g><g><g><g><path d="M495.4,319.5V686c0,5-3.2,9.2-7.2,9.2h-4.9c-4,0-7.2-4.1-7.2-9.2V319.5c0-0.2,0-0.3,0-0.5v0        c-0.1-1.3-0.4-2.6-0.9-3.7c-2.2-9.4-9.2-16.3-17.3-16.2c-9.8,0.1-17.5,10.5-17.8,22.9c-0.3,13.4,7,18.8,12.9,21        c4.3,1.6,7.3,6.5,7.3,12.2v0c0,8.1-5.9,14.1-12.2,12.4c-11.5-3.2-27-13.6-27.3-45.8c-0.2-26,16.7-47.2,37.2-47.2        c18.9,0,34.6,18.1,36.9,41.4C495.2,317.1,495.4,318.2,495.4,319.5z"/></g></g></g><g><g><g><path d="M532.4,695.2h-3.7c-4.3,0-7.9-3.5-7.9-7.9V318.1c0-4.3,3.5-7.9,7.9-7.9h3.7c4.3,0,7.9,3.5,7.9,7.9        v369.2C540.3,691.7,536.7,695.2,532.4,695.2z"/></g></g></g><g><g><g><path d="M639.9,321.9c-0.6,24.3-15.1,36.6-26.2,42.4c-6.1,3.2-12.8-2.5-12.8-10.9v0c0-4.9,2.4-9.3,6-11        c5.7-2.7,13.5-8.7,13.8-20.6c0.3-12.5-8-22.8-17.9-22.8c-8.8,0-16.2,8.2-17.6,18.9v0c0.1,0.5,0.1,0.9,0.1,1.4V686        c0,5-3.2,9.2-7.2,9.2H573c-4,0-7.2-4.1-7.2-9.2v-359c-0.2-1.7-0.2-3.4-0.2-5.2c0-26,16.7-47.2,37.2-47.2        C623.2,274.7,640.5,295.9,639.9,321.9z"/></g></g></g></g><g><g><path d="M575.2,726.1h-89.6c-5.3,0-9.7-4.4-9.7-9.7v-1.2c0-5.3,4.4-9.7,9.7-9.7h89.6c5.3,0,9.7,4.4,9.7,9.7v1.2      C584.9,721.7,580.5,726.1,575.2,726.1z"/></g></g><g><g><path d="M575.2,273h-89.6c-5.3,0-9.7-4.4-9.7-9.7v-1.2c0-5.3,4.4-9.7,9.7-9.7h89.6c5.3,0,9.7,4.4,9.7,9.7v1.2      C584.9,268.7,580.5,273,575.2,273z"/></g></g><g><g><path d="M600.7,757.5H460c-5.3,0-9.7-4.4-9.7-9.7v-1.2c0-5.3,4.4-9.7,9.7-9.7h140.6c5.3,0,9.7,4.4,9.7,9.7v1.2      C610.4,753.1,606,757.5,600.7,757.5z"/></g></g></g><g><g><path d="M862.5,549.6L777.8,337c-0.3-0.6-0.6-1.2-0.9-1.7l0.3-75.8c6.9-4.9,11.5-12.9,11.5-21.9     c0-14.9-12.4-27.1-27.8-27.1c-15.3,0-27.8,12.2-27.8,27.1c0,1.2,0.1,2.4,0.3,3.6c-19,11.9-43.2,14-72.3,6.2     c-15.1-4.1-28.7-10.2-38.6-15.3c-9.8-5.1-16-9.2-16.1-9.3c-0.2-0.2-0.5-0.3-0.7-0.4c0,0,0,0-0.1,0c-1.7-1.2-3.8-1.8-6-1.8H460.9     c-1.4,0-2.7,0.3-3.9,0.7c-2.5-0.5-5.1,0-7.4,1.5c-0.2,0.2-24.4,16.4-54.6,24.5c-30.6,8.3-55.9,5.5-75.3-8.2     c-0.4,6.9-3.5,13.1-8.2,17.7c14.8,9.5,32.1,14.3,51.4,14.3c11.9,0,24.5-1.8,37.9-5.4c26.9-7.3,48.8-20,56.8-25     c1.1,0.4,2.2,0.6,3.4,0.6h138.7c8.7,5.3,30,17.4,55.9,24.5c13.3,3.6,26,5.4,37.9,5.4c18.5,0,35.1-4.4,49.4-13.1     c4.9,4.1,11.2,6.6,18.1,6.6l-0.4,77.5v0L678,549.6h-9.9c0,46.5,45.9,84.3,102.6,84.3s102.6-37.7,102.6-84.3H862.5z M756.5,247.9     c-4.1-1.7-7-5.7-7-10.3c0-6.1,5.1-11.2,11.4-11.2c1.8,0,3.4,0.4,4.9,1.1c3.9,1.8,6.5,5.6,6.5,10.1c0,6.1-5.1,11.2-11.4,11.2     C759.4,248.8,757.9,248.5,756.5,247.9z M695.5,549.6l74.8-187.7L845,549.6H695.5z"/></g></g><g><path d="M291.9,210.5c-15.3,0-27.8,12.2-27.8,27.1c0,8.8,4.3,16.5,10.9,21.5c4.6,3.4,10.2,5.5,16.4,5.6    c0.2,0,0.3,0,0.5,0c7.6,0,14.5-3,19.5-7.8c4.7-4.6,7.8-10.8,8.2-17.7c0-0.5,0-1,0-1.6C319.7,222.7,307.2,210.5,291.9,210.5z     M298.4,246.8c-1.8,1.3-4.1,2-6.5,2c-6.3,0-11.4-5-11.4-11.2c0-5.9,4.7-10.7,10.6-11.1c0.3,0,0.5,0,0.8,0c6.3,0,11.4,5,11.4,11.2    C303.4,241.4,301.4,244.8,298.4,246.8z"/></g><g><g><path d="M378.2,551.7L293.5,337c-0.4-0.9-0.9-1.8-1.6-2.5l-0.5-69.8c-6.1-0.1-11.8-2.2-16.4-5.6l0.6,84.5     l-82.1,208.1h-10.9c0,46.5,45.9,84.3,102.6,84.3c56.7,0,102.6-37.7,102.6-84.3H378.2z M211.1,551.7l74.8-189.7l74.8,189.7H211.1z     "/></g></g></g></svg>