<svg xmlns="http://www.w3.org/2000/svg" xmlns:xlink="http://www.w3.org/1999/xlink" version="1.1" id="Your_Icon" x="0px" y="0px" width="100px" height="100px" viewBox="0 0 100 100" enable-background="new 0 0 100 100" xml:space="preserve">
<g>
	<path d="M65.022,7.987H35.164c-4.951,0-8.978,4.143-8.978,9.231v66.545c0,5.091,4.027,9.236,8.978,9.236h29.859   c4.958,0,8.986-4.146,8.986-9.236V17.218C74.009,12.129,69.98,7.987,65.022,7.987z M69.792,83.764c0,2.77-2.128,5.021-4.77,5.021   H35.164c-2.628,0-4.763-2.251-4.763-5.021V17.218c0-2.775,2.134-5.016,4.763-5.016h29.859c2.642,0,4.77,2.24,4.77,5.016V83.764z"/>
</g>
<path d="M35.525,20.047c0-1.393,1.062-2.517,2.379-2.517h24.391c1.311,0,2.381,1.124,2.381,2.517v25.6  c0,1.384-1.07,2.511-2.381,2.511H37.904c-1.316,0-2.379-1.127-2.379-2.511V20.047z"/>
<g>
	<path d="M46.527,65.629c0-0.929,0.708-1.682,1.593-1.682h4.028c0.875,0,1.585,0.753,1.585,1.682v4.233   c0,0.929-0.71,1.67-1.585,1.67H48.12c-0.885,0-1.593-0.741-1.593-1.67V65.629z"/>
	<path d="M35.352,65.629c0-0.929,0.711-1.682,1.578-1.682h4.04c0.88,0,1.585,0.753,1.585,1.682v4.233c0,0.929-0.705,1.67-1.585,1.67   h-4.04c-0.867,0-1.578-0.741-1.578-1.67V65.629z"/>
	<path d="M57.314,65.629c0-0.929,0.703-1.682,1.575-1.682h4.043c0.864,0,1.576,0.753,1.576,1.682v4.233   c0,0.929-0.712,1.67-1.576,1.67H58.89c-0.872,0-1.575-0.741-1.575-1.67V65.629z"/>
	<path d="M46.527,54.579c0-0.916,0.708-1.669,1.593-1.669h4.028c0.875,0,1.585,0.753,1.585,1.669v4.252   c0,0.93-0.71,1.677-1.585,1.677H48.12c-0.885,0-1.593-0.747-1.593-1.677V54.579z"/>
	<path d="M35.352,54.579c0-0.916,0.711-1.669,1.578-1.669h4.04c0.88,0,1.585,0.753,1.585,1.669v4.252   c0,0.93-0.705,1.677-1.585,1.677h-4.04c-0.867,0-1.578-0.747-1.578-1.677V54.579z"/>
	<path d="M57.314,54.579c0-0.916,0.703-1.669,1.575-1.669h4.043c0.864,0,1.576,0.753,1.576,1.669v4.252   c0,0.93-0.712,1.677-1.576,1.677H58.89c-0.872,0-1.575-0.747-1.575-1.677V54.579z"/>
	<path d="M46.527,76.919c0-0.929,0.708-1.676,1.593-1.676h4.028c0.875,0,1.585,0.747,1.585,1.676v4.239   c0,0.927-0.71,1.68-1.585,1.68H48.12c-0.885,0-1.593-0.753-1.593-1.68V76.919z"/>
	<path d="M35.352,76.919c0-0.929,0.711-1.676,1.578-1.676h4.04c0.88,0,1.585,0.747,1.585,1.676v4.239c0,0.927-0.705,1.68-1.585,1.68   h-4.04c-0.867,0-1.578-0.753-1.578-1.68V76.919z"/>
	<path d="M57.314,76.919c0-0.929,0.703-1.676,1.575-1.676h4.043c0.864,0,1.576,0.747,1.576,1.676v4.239   c0,0.927-0.712,1.68-1.576,1.68H58.89c-0.872,0-1.575-0.753-1.575-1.68V76.919z"/>
</g>
</svg>
