<svg fill="#000000" xmlns:dc="http://purl.org/dc/elements/1.1/" xmlns:cc="http://creativecommons.org/ns#" xmlns:rdf="http://www.w3.org/1999/02/22-rdf-syntax-ns#" xmlns:svg="http://www.w3.org/2000/svg" xmlns="http://www.w3.org/2000/svg" xmlns:sodipodi="http://sodipodi.sourceforge.net/DTD/sodipodi-0.dtd" xmlns:inkscape="http://www.inkscape.org/namespaces/inkscape" viewBox="0 0 48 48" version="1.1" x="0px" y="0px"><g transform="translate(0,-1004.3622)"><path style="color:#000000;font-style:normal;font-variant:normal;font-weight:normal;font-stretch:normal;font-size:medium;line-height:normal;font-family:sans-serif;text-indent:0;text-align:start;text-decoration:none;text-decoration-line:none;text-decoration-style:solid;text-decoration-color:#000000;letter-spacing:normal;word-spacing:normal;text-transform:none;direction:ltr;block-progression:tb;writing-mode:lr-tb;baseline-shift:baseline;text-anchor:start;white-space:normal;clip-rule:nonzero;display:inline;overflow:visible;visibility:visible;opacity:1;isolation:auto;mix-blend-mode:normal;color-interpolation:sRGB;color-interpolation-filters:linearRGB;solid-color:#000000;solid-opacity:1;fill:#000000;fill-opacity:1;fill-rule:nonzero;stroke:none;stroke-width:0.99999994;stroke-linecap:round;stroke-linejoin:round;stroke-miterlimit:4;stroke-dasharray:none;stroke-dashoffset:0;stroke-opacity:1;color-rendering:auto;image-rendering:auto;shape-rendering:auto;text-rendering:auto;enable-background:accumulate" d="m 28.138632,17.804696 c 0.545838,-0.801174 0.865234,-1.768045 0.865234,-2.810547 l 0,-0.144532 c 0.588751,-0.254924 0.99964,-0.833225 1,-1.5 -3.61e-4,-0.667077 -0.410785,-1.247241 -1,-1.501953 l 0,-0.146484 c 0.364704,-0.04098 0.728806,-0.081 1.09375,-0.13086 0.664062,-0.06771 0.5625,-1.063801 -0.101562,-0.996093 l 0,0.0039 c -0.01171,-4.12e-4 -0.02344,-4.12e-4 -0.03516,0 -0.321357,0.04387 -0.641803,0.06081 -0.962891,0.09766 4.89e-4,-0.02063 0.0059,-0.03359 0.0059,-0.05469 l 0,-1.9882815 0,-1.1699219 0,-1.4707031 0,-1 c 0,-1.6534 -1.34664,-3 -3,-3 l -3.964844,0 c -0.01172,-4.121e-4 -0.02344,-4.121e-4 -0.03516,0 l 0,0.00195 c -1.65336,0 -3,1.3466 -3,3 l 0,1 0,1.4746094 0,1.1699219 0,1.9863282 c 0,0.02948 0.0069,0.04763 0.0078,0.07617 -0.305547,-0.03479 -0.610655,-0.06617 -0.916016,-0.107422 -0.664257,-0.09221 -0.797936,0.906454 -0.132812,0.992188 0.346669,0.04686 0.69406,0.08433 1.041015,0.123046 l 0,0.134766 c -0.589531,0.254382 -0.999637,0.836245 -1,1.503906 0.0015,0.666715 0.411274,1.245816 1,1.5 l 0,0.146485 c 0,1.038994 0.316895,2.003138 0.859375,2.802734 l -8.880834,7.281292 -1.2500001,1.017578 c -1.1229798,0.9161 -1.2914932,2.579619 -0.3710938,3.699219 l 0.00781,0.0098 0.00586,0.0059 0.017578,0.01758 0,0.002 c 0.9201359,1.1193 2.5853239,1.286141 3.7089839,0.369141 l 3.902344,-3.179688 0,7.47461 0,0.5 2,0 0,10.5 c 2.8e-5,0.276131 0.223869,0.499972 0.5,0.5 l 0.01563,0 3.984375,0 0.482422,0 0.517578,0 3.982422,0 0.01758,0 c 0.276131,-2.8e-5 0.499972,-0.223869 0.5,-0.5 l 0,-10.5 1.5,0 c 0.01698,-4.39e-4 0.03393,-0.0017 0.05078,-0.0039 0.25464,-0.02602 0.448518,-0.240128 0.449218,-0.496093 l 0,-7.470703 3.902344,3.179687 c 0.173506,0.141595 0.362048,0.247494 0.556641,0.337891 -0.579304,0.458641 -0.958985,1.160203 -0.958985,1.953125 -0.0096,0.676161 1.009563,0.676161 1,0 0,-0.8397 0.660352,-1.5 1.5,-1.5 0.839649,0 1.5,0.6603 1.5,1.5 l 0,13 c -0.0096,0.676161 1.009563,0.676161 1,0 l 0,-13 c 0,-0.968445 -0.561916,-1.803935 -1.371094,-2.21875 0.173982,-0.127377 0.33955,-0.26761 0.482422,-0.441407 l 0.02344,-0.02734 0.0078,-0.0098 0,-0.002 c 0.114697,-0.139523 0.213784,-0.287492 0.294922,-0.441406 l 0,-0.002 c 0.081,-0.15388 0.145368,-0.31331 0.19336,-0.476562 l 0,-0.002 c 0.04786,-0.163234 0.08031,-0.33045 0.0957,-0.498047 l 0,-0.002 c 0.01527,-0.167586 0.01277,-0.335009 -0.0039,-0.501953 l 0,-0.002 c -0.0168,-0.166946 -0.04943,-0.332842 -0.09766,-0.494141 l 0,-0.002 c -0.0969,-0.323253 -0.25653,-0.631948 -0.476562,-0.902344 -0.110286,-0.135353 -0.236576,-0.260475 -0.376953,-0.375 l -1.085936,-0.884624 z m -6.134741,-14.8105605 4,0 c 1.116661,0 2,0.8833 2,2 l 0,1 0,1.4707032 0,1.1699218 0,0.1523438 c -2.675419,0.2489607 -5.340953,0.2533035 -8,0.011719 l 0,-0.1601562 0,-1.1699219 0,-1.4746094 0,-1 c 0,-1.1167 0.883339,-2 2,-2.0000003 z m 6,6.7949219 0,0.8339846 c 0,0.036 -0.0111,0.087 -0.01367,0.125 -2.665533,0.2469 -5.323038,0.249666 -7.972656,0.0098 -0.0029,-0.041 -0.01367,-0.09501 -0.01367,-0.132812 l 0,-0.826172 c 2.659235,0.236337 5.325938,0.233657 8,-0.00977 z m 0,2.0117186 0,3.19336 c 0,2.2246 -1.775352,4 -4,4 -2.224649,0 -4,-1.7754 -4,-4 l 0,-3.185547 c 2.65895,0.236512 5.326213,0.233354 8,-0.0078 z m -5.65039,0.892578 c -0.358834,8.58e-4 -0.649087,0.291112 -0.648438,0.648438 4.33e-4,0.356564 0.29037,0.645627 0.648438,0.646484 0.35883,2.15e-4 0.649955,-0.289162 0.65039,-0.646484 6.5e-4,-0.358085 -0.290793,-0.648653 -0.65039,-0.648438 z m 3.300781,0 c -0.359597,-2.16e-4 -0.651041,0.290353 -0.650391,0.648438 4.35e-4,0.357322 0.291561,0.646699 0.650391,0.646484 0.35883,2.15e-4 0.649956,-0.289162 0.650391,-0.646484 6.5e-4,-0.358085 -0.290794,-0.648654 -0.650391,-0.648438 z m -3.183594,3.296875 c -0.357972,0.0231 -0.575898,0.404474 -0.414062,0.72461 0.360543,0.7459 1.089437,1.289062 1.947265,1.289062 0.857828,0 1.586723,-0.543162 1.947266,-1.289062 0.296451,-0.602366 -0.612153,-1.041886 -0.900391,-0.435547 -0.218617,0.4523 -0.607175,0.724609 -1.046875,0.724609 -0.4397,0 -0.828258,-0.272309 -1.046875,-0.724609 -0.07925,-0.17061 -0.24755,-0.282306 -0.435547,-0.289063 -0.01692,-8.6e-4 -0.03387,-8.6e-4 -0.05078,0 z m 4.232422,3.201172 -2.6875,4.181641 -2.703125,-4.177735 c 0.778194,0.499542 1.698036,0.798829 2.691406,0.798829 0.996487,0 1.919512,-0.300305 2.699219,-0.802735 z m -6.373047,0.324219 2.388672,3.693359 -1.607422,-0.367187 0.326172,-0.570313 c 0.176971,-0.310094 -0.0187,-0.700404 -0.373047,-0.74414 l -1.353515,-0.16211 z m 7.34961,0.0039 0.61914,1.845703 -1.353516,0.16211 c -0.355184,0.04251 -0.552149,0.433365 -0.375,0.74414 l 0.326172,0.570313 -1.583984,0.361328 z m -8.4375,0.08789 -0.675782,2.021484 c -0.09983,0.299951 0.10025,0.616113 0.414063,0.654297 l 1.214843,0.146485 -0.287109,0.5 c -0.167186,0.291382 -0.0052,0.661447 0.322266,0.736328 l 3.265625,0.746093 0.08789,0.134766 c 0.0084,0.01478 0.01751,0.02912 0.02734,0.04297 l 0.88086,1.363281 -0.970704,2.755859 c -0.0074,0.01656 -0.01395,0.03351 -0.01953,0.05078 l -1.84375,5.234375 -3.654297,0 0,-13.361329 z m 9.523437,0 1.238281,1.02539 0,5.310547 c -7.95e-4,0.01627 -7.95e-4,0.03256 0,0.04883 l 0,8.001953 -3.65625,0 -1.833984,-5.09375 1.083984,-3.080079 -0.132812,-0.205078 -0.800782,-1.238281 3.113282,-0.710937 c 0.327486,-0.07488 0.489451,-0.444946 0.322265,-0.736328 l -0.287109,-0.5 1.214844,-0.146485 c 0.313812,-0.03818 0.51389,-0.354346 0.414062,-0.654297 z m -11.761719,1.845703 0,4.277344 -3.105468,2.53125 -1.904297,-2.722657 z m 14,0.0039 5.009766,4.085938 -1.904297,2.720703 -3.105469,-2.529297 z m -19.787109,4.71875 1.902344,2.720703 -0.244141,0.199219 -0.40625,0.328125 c -0.176368,0.143897 -0.372987,0.245909 -0.576172,0.306641 -0.101281,0.03015 -0.204968,0.05062 -0.308594,0.06055 l -0.002,0 c -0.208526,0.01974 -0.418633,-0.0021 -0.61914,-0.0625 -0.100379,-0.0303 -0.198989,-0.06928 -0.292969,-0.119141 -0.09388,-0.04978 -0.182985,-0.110615 -0.267578,-0.179687 -0.0843,-0.06883 -0.164184,-0.146754 -0.236328,-0.234376 l 0,-0.002 -0.0078,-0.0098 -0.02344,-0.02734 c -0.072,-0.0876 -0.134455,-0.17787 -0.1855472,-0.273438 l 0,-0.002 c -0.050953,-0.09553 -0.092687,-0.194263 -0.1230469,-0.294921 l 0,-0.002 c -0.030229,-0.100629 -0.048653,-0.203715 -0.058594,-0.30664 l 0,-0.002 c -0.00982,-0.102913 -0.010181,-0.206214 0,-0.308594 l 0,-0.002 c 0.010308,-0.102381 0.030523,-0.203715 0.060547,-0.302735 l 0,-0.002 c 0.030158,-0.09903 0.071488,-0.196226 0.1210938,-0.289062 0.049753,-0.09286 0.1107433,-0.181806 0.1796873,-0.265625 0.06939,-0.08419 0.147848,-0.162188 0.236328,-0.234375 z m 25.574219,0 0.851562,0.695313 c 0.707885,0.5775 0.809305,1.584862 0.230469,2.289062 l -0.01758,0.01758 -0.0059,0.0078 -0.0078,0.0078 c -0.579148,0.7046 -1.595287,0.807669 -2.302735,0.230469 l -0.65039,-0.529297 z m -13.78711,0.316407 c -0.277252,7.2e-5 -0.501968,0.223913 -0.501953,0.5 -1.5e-5,0.276087 0.224701,0.499928 0.501953,0.5 0.277252,-7.2e-5 0.501968,-0.223913 0.501953,-0.5 1.5e-5,-0.276087 -0.224701,-0.499928 -0.501953,-0.5 z m 0.984375,3.90039 1.296875,3.601563 -2.566406,0 z m -3.984375,4.601563 2.363282,0 1.136718,0 0,8.640625 c -0.478067,-0.397362 -1.086853,-0.639582 -1.748047,-0.640625 l -0.002,0 c -0.66226,0 -1.271377,0.242454 -1.75,0.640625 z m 4.5,0 1.492188,0 2.007812,0 0,8.640625 c -0.478067,-0.397362 -1.086853,-0.639582 -1.748047,-0.640625 l -0.002,0 c -0.66226,0 -1.271377,0.242454 -1.75,0.640625 z m -2.75,9 c 0.670705,0 1.158451,0.4378 1.451172,1 l -2.902344,0 c 0.292883,-0.5629 0.779711,-0.9995 1.451172,-1 z m 4.5,0 c 0.670705,0 1.158451,0.4378 1.451172,1 l -2.902344,0 c 0.292883,-0.5629 0.779711,-0.9995 1.451172,-1 z" transform="translate(0,1004.3622)"/></g></svg>