<svg fill="#000000" xmlns="http://www.w3.org/2000/svg" xmlns:xlink="http://www.w3.org/1999/xlink" version="1.1" viewBox="0 0 96 96" x="0px" y="0px"><path d="M3 49.344c-0.32 0-0.64-0.080-0.936-0.24-0.976-0.52-1.344-1.732-0.828-2.708l21.78-40.832c0.696-1.304 2.836-1.304 3.532 0l10.732 20.116c0.524 0.976 0.148 2.188-0.828 2.708-0.968 0.508-2.188 0.152-2.7-0.824l-8.972-16.812-20.016 37.532c-0.356 0.676-1.044 1.060-1.764 1.060z" fill="#000000"/><path d="M27 37.508h-12c-1.1 0-2-0.9-2-2 0-1.104 0.9-2 2-2h12c1.1 0 2 0.896 2 2 0 1.1-0.9 2-2 2z" fill="#000000"/><path d="M19 33.508h12v4h-12v-4z" fill="#000000"/><path d="M83.040 49.508h-16.040c-1.1 0-2-0.9-2-2 0-1.104 0.9-2 2-2h16.040c4.392 0 7.96-3.576 7.96-7.96 0-4.424-3.6-8.040-8.040-8.040h-8.996c-1.104 0-2-0.9-2-2 0-1.104 0.896-2 2-2h1.076c4.392 0 7.96-3.576 7.96-7.96 0-4.468-3.572-8.040-7.96-8.040h-12.040v16c0 1.1-0.9 2-2 2s-2-0.9-2-2v-18c0-1.104 0.9-2 2-2h14.040c6.592 0 11.96 5.364 11.96 11.96 0 3.108-1.168 5.94-3.084 8.076 6.196 0.488 11.084 5.684 11.084 12 0 6.6-5.368 11.964-11.96 11.964z" fill="#000000"/><path d="M67.444 91.416c-0.796 0-1.556-0.484-1.86-1.264l-11.9-30.432c-0.408-1.028 0.104-2.188 1.136-2.588 1.024-0.408 2.188 0.108 2.584 1.132l11.9 30.424c0.404 1.028-0.104 2.188-1.136 2.592-0.232 0.092-0.476 0.136-0.724 0.136z" fill="#000000"/><path d="M48.616 62.3c-8.728 0-16.424-5.256-19.608-13.396-2.048-5.24-1.928-10.96 0.324-16.112s6.388-9.116 11.62-11.164c2.46-0.96 5.044-1.448 7.664-1.448 8.74 0 16.436 5.252 19.616 13.392 4.22 10.816-1.14 23.052-11.952 27.276-2.456 0.964-5.028 1.452-7.664 1.452zM48.616 24.18c-2.116 0-4.212 0.396-6.204 1.176-4.252 1.656-7.588 4.868-9.416 9.044-1.828 4.172-1.916 8.808-0.26 13.048 2.584 6.592 8.812 10.852 15.896 10.852 2.12 0 4.212-0.396 6.208-1.176 8.756-3.416 13.092-13.336 9.68-22.092-2.592-6.6-8.82-10.852-15.904-10.852z" fill="#000000"/></svg>