<svg xmlns="http://www.w3.org/2000/svg" xmlns:xlink="http://www.w3.org/1999/xlink" version="1.1" id="Layer_1" x="0px" y="0px" width="100px" height="100px" viewBox="0 0 100 100" enable-background="new 0 0 100 100" xml:space="preserve">
<g>
	<path fill="#000000" d="M53.956,62.928c-12.419,0-22.522-5.297-22.522-11.808c0-5.25,8.117-9.521,18.094-9.521   c8.024,0,14.553,3.451,14.553,7.694c0,3.493-5.147,6.229-11.718,6.229c-5.299,0-9.45-2.223-9.45-5.06   c0-2.312,3.354-4.123,7.637-4.123c3.498,0,6.454,1.609,6.454,3.513c0,0.211-0.171,0.382-0.382,0.382s-0.382-0.171-0.382-0.382   c0-1.271-2.486-2.749-5.69-2.749c-3.726,0-6.873,1.538-6.873,3.358c0,2.328,3.978,4.296,8.687,4.296   c6.04,0,10.954-2.451,10.954-5.465c0-3.821-6.186-6.93-13.789-6.93c-9.556,0-17.33,3.929-17.33,8.757   c0,6.09,9.761,11.044,21.759,11.044c15.05,0,27.293-6.236,27.293-13.901c0-9.631-15.348-17.467-34.211-17.467   c-23.953,0-43.439,9.794-43.439,21.833c0,0.211-0.171,0.382-0.382,0.382s-0.382-0.171-0.382-0.382   c0-12.46,19.829-22.597,44.203-22.597c19.285,0,34.975,8.178,34.975,18.23C82.013,56.349,69.427,62.928,53.956,62.928z"/>
</g>
<g>
	<path fill="#000000" d="M51.84,64.542c-13.844,0-25.106-5.895-25.106-13.14c0-6.05,9.377-10.972,20.902-10.972   c9.604,0,17.416,4.114,17.416,9.172c0,4.233-6.514,7.678-14.52,7.678c-6.794,0-12.116-2.828-12.116-6.439   c0-3.032,4.446-5.407,10.122-5.407c4.826,0,8.465,1.9,8.465,4.418c0,0.211-0.171,0.382-0.382,0.382s-0.382-0.171-0.382-0.382   c0-2.016-3.455-3.655-7.701-3.655c-5.072,0-9.358,2.126-9.358,4.643c0,3.13,5.093,5.676,11.353,5.676   c7.585,0,13.756-3.102,13.756-6.914c0-4.636-7.471-8.408-16.652-8.408c-11.104,0-20.139,4.58-20.139,10.208   c0,6.824,10.921,12.376,24.343,12.376c16.215,0,29.407-6.725,29.407-14.989c0-10.001-15.93-18.138-35.509-18.138   c-23.236,0-42.14,9.859-42.14,21.978c0,0.211-0.171,0.382-0.382,0.382s-0.382-0.171-0.382-0.382   c0-12.752,18.845-22.741,42.903-22.741c20.001,0,36.272,8.479,36.272,18.901C82.011,57.476,68.477,64.542,51.84,64.542z"/>
</g>
<g>
	<path fill="#000000" d="M52.986,63.76c-13.251,0-24.032-5.604-24.032-12.493c0-5.668,8.856-10.279,19.742-10.279   c8.943,0,16.221,3.796,16.221,8.463c0,3.846-5.982,6.975-13.336,6.975c-6.049,0-10.97-2.581-10.97-5.753   c0-2.62,4.051-4.751,9.03-4.751c4.088,0,7.171,1.69,7.171,3.932c0,0.105-0.086,0.191-0.191,0.191s-0.191-0.086-0.191-0.191   c0-1.99-2.981-3.55-6.788-3.55c-4.769,0-8.648,1.96-8.648,4.369c0,2.961,4.75,5.37,10.588,5.37c7.143,0,12.953-2.957,12.953-6.592   c0-4.456-7.104-8.081-15.838-8.081c-10.675,0-19.36,4.44-19.36,9.897c0,6.678,10.609,12.11,23.65,12.11   c15.928,0,28.886-6.645,28.886-14.812c0-9.982-15.82-18.104-35.267-18.104c-23.819,0-43.198,9.945-43.198,22.168   c0,0.105-0.085,0.191-0.19,0.191s-0.191-0.086-0.191-0.191c0-12.434,19.55-22.55,43.58-22.55c19.656,0,35.649,8.292,35.649,18.486   C82.255,56.943,69.125,63.76,52.986,63.76z"/>
</g>
<g>
	<path fill="#000000" d="M52.961,69.968c-19.284,0-34.974-8.178-34.974-18.23c-0.001-3.965,2.951-7.672,8.312-10.438   c5.28-2.725,12.292-4.226,19.744-4.226c12.42,0,22.524,5.297,22.524,11.808c0,5.25-8.117,9.521-18.095,9.521   c-3.846,0-7.467-0.775-10.196-2.184c-2.81-1.449-4.357-3.406-4.356-5.51c0-3.493,5.146-6.229,11.717-6.229   c5.299,0,9.45,2.223,9.45,5.061c0,2.312-3.354,4.123-7.636,4.123c-3.499,0-6.455-1.609-6.455-3.515   c0-0.211,0.171-0.382,0.382-0.382s0.382,0.171,0.382,0.382c0,1.272,2.486,2.751,5.691,2.751c3.725,0,6.872-1.538,6.872-3.359   c0-2.329-3.978-4.297-8.687-4.297c-6.039,0-10.953,2.452-10.953,5.466c0,1.804,1.4,3.519,3.943,4.831   c2.623,1.354,6.12,2.099,9.846,2.099c9.556,0,17.331-3.929,17.331-8.757c0-6.09-9.762-11.044-21.761-11.044   c-7.332,0-14.22,1.471-19.394,4.141c-5.094,2.629-7.898,6.095-7.898,9.76c0,9.631,15.347,17.467,34.21,17.467   c23.951,0,43.438-9.794,43.44-21.832c0-0.211,0.171-0.382,0.382-0.382l0,0c0.211,0,0.382,0.171,0.382,0.382   C97.163,59.831,77.333,69.968,52.961,69.968z"/>
</g>
<g>
	<path fill="#000000" d="M54.261,70.112c-9.646,0-18.722-1.941-25.554-5.467c-6.912-3.566-10.719-8.338-10.719-13.435   c0-4.257,3.172-8.237,8.931-11.209c5.68-2.93,13.223-4.543,21.24-4.543c13.844,0,25.107,5.894,25.107,13.139   c-0.001,6.05-9.378,10.972-20.903,10.972c-9.602,0-17.415-4.114-17.416-9.172c0.001-4.233,6.515-7.677,14.52-7.677   c6.792,0,12.115,2.828,12.117,6.438c0,3.033-4.446,5.408-10.122,5.408c-4.826,0-8.466-1.9-8.466-4.42   c0-0.211,0.171-0.382,0.382-0.382s0.382,0.171,0.382,0.382c0,2.016,3.455,3.656,7.702,3.656c5.072,0,9.358-2.127,9.358-4.645   c-0.002-3.129-5.096-5.675-11.354-5.675c-7.584,0-13.755,3.101-13.756,6.913c0.001,4.636,7.472,8.408,16.652,8.408   c11.104,0,20.139-4.579,20.14-10.208c0-6.824-10.921-12.375-24.344-12.375c-7.898,0-15.316,1.583-20.89,4.459   c-5.492,2.834-8.518,6.574-8.518,10.53c0,4.797,3.66,9.327,10.306,12.756c6.726,3.471,15.677,5.382,25.203,5.382   c23.234-0.001,42.139-9.859,42.141-21.977c0-0.211,0.171-0.382,0.382-0.382l0,0c0.211,0,0.382,0.171,0.382,0.382   C97.163,60.123,78.317,70.111,54.261,70.112z"/>
</g>
<g>
	<path fill="#000000" d="M53.396,69.922c-19.658,0-35.65-8.293-35.65-18.486c0-8.377,13.129-15.194,29.268-15.195   c13.251,0.001,24.032,5.605,24.032,12.493c0,5.668-8.855,10.28-19.74,10.28c-8.944,0-16.222-3.797-16.223-8.464   c0.001-3.846,5.984-6.974,13.337-6.974c0.001,0,0.002,0,0.003,0c2.908,0,5.645,0.585,7.707,1.649   c2.103,1.084,3.261,2.542,3.261,4.103c0,2.62-4.052,4.752-9.031,4.752c-4.088-0.001-7.171-1.691-7.172-3.933   c0-0.105,0.086-0.191,0.191-0.191s0.19,0.086,0.19,0.191c0.001,1.99,2.983,3.549,6.79,3.55c4.769,0,8.648-1.96,8.648-4.369   c0-1.411-1.084-2.748-3.054-3.764c-2.008-1.036-4.683-1.607-7.531-1.607c-0.001,0-0.002,0-0.003,0   c-7.143,0-12.954,2.958-12.955,6.592c0.001,4.456,7.107,8.081,15.841,8.081c10.674,0,19.357-4.439,19.357-9.897   c0-6.677-10.609-12.11-23.649-12.111c-15.928,0.001-28.886,6.646-28.886,14.813c0,9.982,15.821,18.104,35.269,18.104   c23.816,0,43.194-9.944,43.196-22.167c0-0.105,0.086-0.191,0.191-0.191l0,0c0.105,0,0.191,0.086,0.191,0.191   C96.973,59.806,77.423,69.922,53.396,69.922z"/>
</g>
<g>
	<path fill="#000000" d="M10.194,52.778c0.011-1.902,0.605-3.798,1.56-5.422c0.952-1.637,2.234-3.043,3.649-4.257   c2.848-2.429,6.205-4.137,9.658-5.449c6.949-2.582,14.387-3.59,21.747-3.544c-7.359,0.081-14.763,1.22-21.61,3.9   c-3.399,1.359-6.686,3.109-9.418,5.524c-1.357,1.206-2.57,2.587-3.446,4.157c-0.879,1.566-1.396,3.315-1.376,5.109   c0.003,0.211-0.166,0.384-0.377,0.386c-0.211,0.003-0.384-0.167-0.387-0.378c0-0.001,0-0.003,0-0.004V52.778z"/>
</g>
<g>
	<path fill="#000000" d="M89.301,47.225c-0.011,1.902-0.604,3.798-1.56,5.422c-0.951,1.637-2.234,3.043-3.649,4.257   c-2.848,2.43-6.205,4.137-9.657,5.449c-6.95,2.582-14.387,3.59-21.748,3.544c7.359-0.08,14.763-1.22,21.61-3.9   c3.399-1.358,6.686-3.109,9.418-5.524c1.357-1.206,2.57-2.587,3.446-4.157c0.879-1.566,1.396-3.315,1.376-5.108   c-0.002-0.211,0.167-0.384,0.378-0.387c0.211-0.002,0.384,0.167,0.386,0.378c0,0.001,0,0.003,0,0.004V47.225z"/>
</g>
</svg>
