<svg xmlns="http://www.w3.org/2000/svg" xmlns:xlink="http://www.w3.org/1999/xlink" version="1.1" x="0px" y="0px" viewBox="0 0 144.083 144" enable-background="new 0 0 144.083 144" xml:space="preserve"><path d="M96.833,52.377c-2.18,0-4.337,0.383-6.402,1.108c0.039-0.824,0.102-1.668,0.196-2.512l3.904-9.086  c0.419-0.184,0.879-0.271,1.405-0.271v-6c-2.714,0-5.124,1.057-6.971,3.056c-3.454,3.738-4.365,10.206-4.545,14.771  c-2.029-0.699-4.146-1.066-6.285-1.066c-1.709,0-3.354,0.164-4.925,0.478l1.072-20.041H23.708l3.816,71.364  c0.049,3.821,3.172,6.915,7.005,6.915h28.93c2.392,0,4.501-1.206,5.764-3.039c2.75,1.955,5.758,3.131,8.912,3.131  c2.681,0,5.676-1.104,7.863-1.909c0.488-0.181,1.116-0.411,1.501-0.532c0.401,0.123,1.071,0.371,1.591,0.563  c2.148,0.793,5.091,1.879,7.742,1.879c12.995,0,23.541-19.838,23.541-32.785C120.374,65.447,113.094,52.377,96.833,52.377z   M67.953,38.814l-0.724,13.541c-2.222,0.494-3.639,1.621-4.741,2.503c-1.163,0.93-1.803,1.442-3.376,1.442s-2.213-0.512-3.376-1.442  c-1.454-1.164-3.446-2.757-7.122-2.757s-5.667,1.594-7.121,2.757c-1.161,0.93-1.801,1.442-3.371,1.442s-2.21-0.512-3.371-1.441  c-0.97-0.776-2.191-1.733-3.979-2.292l-0.734-13.753H67.953z M64.467,104.088c0,0.555-0.452,1.006-1.008,1.006H34.53  c-0.555,0-1.006-0.451-1.006-1.006l-2.373-44.426c1.441,1.151,3.415,2.639,6.971,2.639c3.676,0,5.667-1.594,7.121-2.757  c1.161-0.93,1.801-1.442,3.371-1.442c1.571,0,2.212,0.512,3.374,1.442c1.453,1.163,3.443,2.754,7.115,2.757  c-2.878,4.31-4.509,9.815-4.509,16.1c0,7.877,3.908,18.298,9.892,25.257l-0.015,0.271L64.467,104.088z M96.833,105.186  c-1.579,0-3.94-0.871-5.665-1.508c-1.609-0.594-2.672-0.986-3.685-0.986c-0.967,0-1.942,0.359-3.558,0.955  c-1.665,0.613-4.18,1.539-5.79,1.539c-8.301,0-17.541-15.966-17.541-26.785c0-9.967,5.424-20.023,17.541-20.023  c2.683,0,5.336,0.831,7.674,2.403l1.673,1.126l1.675-1.125c2.34-1.573,4.994-2.404,7.676-2.404  c12.947,0,17.541,10.787,17.541,20.023C114.374,89.22,105.133,105.186,96.833,105.186z"></path><path d="M96.833,62.515v6c6.118,0,7.402,5.376,7.402,9.886h6C110.235,68.602,105.099,62.515,96.833,62.515z"></path></svg>