<svg xmlns="http://www.w3.org/2000/svg" xmlns:xlink="http://www.w3.org/1999/xlink" version="1.1" id="Calque_1" x="0px" y="0px" width="100px" height="100px" viewBox="0 0 100 100" enable-background="new 0 0 100 100" xml:space="preserve">
<path d="M72.523,22h-7.84l0.512-8.442l0.152-2.463c0.002-0.016-0.002-0.041-0.002-0.057l0.004-0.05c0-0.014-0.007-0.029-0.007-0.043  c-0.005-0.053-0.013-0.106-0.022-0.162c-0.012-0.063-0.033-0.121-0.057-0.179c0.166-0.343,0.27-0.723,0.27-1.122  c0-1.304-1.061-2.481-2.361-2.481H57v-4.99C57,1.518,56.798,1,56.305,1H42.016C41.522,1,41,1.518,41,2.011V7h-5.851  c-1.303,0-2.363,1.178-2.363,2.519c0,0.499,0.157,0.977,0.421,1.38c-0.002,0.016-0.006,0.032-0.007,0.048  c0,0.013-0.006,0.025-0.005,0.038l0.002,0.042c0,0.018-0.003,0.039-0.002,0.057l0.168,2.68l3.166,52.198  C36.558,66.434,36.949,67,37.42,67h0.108H39v2h-6.107C32.399,69,32,69.4,32,69.895v4.53c-0.043,0.066-0.083,0.138-0.109,0.214  l-6.005,17.875c-0.09,0.271-0.047,0.709,0.114,0.945v3.225C26,97.175,26.561,98,27.053,98h7.741C35.286,98,36,97.175,36,96.684V94  h27v2.684C63,97.175,63.553,98,64.045,98h7.741C72.277,98,73,97.175,73,96.684v-3.574c0-0.01-0.012-0.02-0.025-0.027  c0.034-0.199,0.031-0.411-0.021-0.566L67,74.792v-4.897C67,69.4,66.602,69,66.107,69H60v-2h1.016h0.107  c0.473,0,0.863-0.566,0.893-1.038l0.938-15.205C62.973,50.758,62.988,51,63.012,51h9.512C74.018,51,75,49.353,75,47.656V25.064  C75,23.264,73.993,22,72.523,22z M43,3h12v4H43V3z M34.572,9.481C34.572,9.163,34.831,9,35.149,9h28.023  c0.316,0,0.575,0.163,0.575,0.519c0,0.318-0.259,0.481-0.575,0.481H35.149C34.831,10,34.572,9.837,34.572,9.481z M64.322,28h2.246  C67.188,28,68,28.474,68,29.028v13.465C68,43.313,67.514,44,66.568,44H63.33L64.322,28z M53,65h-7V12h7V65z M58,67v2H41v-2H58z   M38.367,65l-3.329-53h0.111H44v53h-4.107H38.367z M34,96h-6v-2h6V96z M71,96h-6v-2h6V96z M70.545,92H49.458h-0.077H28.294l5.382-16  h31.487L70.545,92z M65,71v3H34v-3H65z M62.564,26.977c0,0.015-0.008,0.027-0.008,0.042c0,0.008,0.004,0.014,0.004,0.022L60.178,65  h-1.07H55V12h8.172h0.334L62.564,26.977z M72.523,49h-9.465l0.162-3h4.348C69.201,46,70,45.036,70,43.493V29.028  C70,27.401,69.1,26,67.568,26h-3.137l0.145-2h7.947C73.07,24,73,24.554,73,25.064v22.592C73,48.065,73.178,49,72.523,49z"/>
<path d="M48.763,90.839c3.667,0,6.649-2.981,6.649-6.649c0-3.664-2.982-6.646-6.649-6.646c-3.667,0-6.649,2.982-6.649,6.646  C42.113,87.855,45.096,90.839,48.763,90.839z M48,79.408v3.877c0,0.492,0.507,0.895,1,0.895s1-0.4,1-0.895v-3.854  c2,0.459,3.747,2.418,3.747,4.758c0,2.683-2.304,4.863-4.984,4.863c-2.681,0-4.848-2.183-4.848-4.863  C43.915,81.779,46,79.79,48,79.408z"/>
</svg>
