<svg fill="#000000" xmlns="http://www.w3.org/2000/svg" data-name="Layer 1" viewBox="0 0 90 44.36" x="0px" y="0px"><title>14</title><path d="M22.3,33.95h0a.9.9,0,0,1-.29-.22A2.53,2.53,0,0,0,19.74,33a1.43,1.43,0,0,0-1,.55,1,1,0,0,0-.15.81c.16.6.83.93,2,1.54a3.19,3.19,0,0,1,1,.84,1.54,1.54,0,0,0,1.11.72h0a1.33,1.33,0,0,0,.95-.55A1.58,1.58,0,0,0,24,35.17,2.2,2.2,0,0,0,22.3,33.95Zm.5,2.2-.05.06L22.53,36a4.29,4.29,0,0,0-1.34-1.13,14.13,14.13,0,0,1-1.27-.68h0a1.35,1.35,0,0,1,1.2.41,1.55,1.55,0,0,0,1.07.56,1.17,1.17,0,0,1,.66.59A.39.39,0,0,1,22.8,36.15Z" transform="translate(-5 -27.82)"/><path d="M27.27,38.9a1.89,1.89,0,0,0-1.86.06,1.78,1.78,0,0,0-.55,1.86,1.16,1.16,0,0,0,1.15.82,1.84,1.84,0,0,0,1.64-.85,1.59,1.59,0,0,0-.15-1.68A.59.59,0,0,0,27.27,38.9Zm-.65,1.32a.72.72,0,0,1-.61.24h0a.62.62,0,0,1,.13-.57.32.32,0,0,1,.19,0,1.06,1.06,0,0,1,.29,0A.39.39,0,0,1,26.62,40.22Z" transform="translate(-5 -27.82)"/><path d="M14.93,30.21a.55.55,0,0,0-.27,0h-.29a2.94,2.94,0,0,0-.53,0A3.84,3.84,0,0,0,11.49,32a.59.59,0,0,0,.11.73,4.08,4.08,0,0,0,2.83,1.24l.22,0h.15a3.43,3.43,0,0,0,2.47-1.73.59.59,0,0,0-.07-.65A4.56,4.56,0,0,0,14.93,30.21Zm-1,1.11h0a2.62,2.62,0,0,0-.06.59,2.35,2.35,0,0,0,.13.81,2.67,2.67,0,0,1-1.25-.55A2.28,2.28,0,0,1,14,31.31Zm.75,1.46h0a2.23,2.23,0,0,0,.16-.87,2.72,2.72,0,0,0,0-.5A3.54,3.54,0,0,1,16,32,2.06,2.06,0,0,1,14.71,32.77Z" transform="translate(-5 -27.82)"/><path d="M44,38.83a2.32,2.32,0,0,0-2.28.06A2.19,2.19,0,0,0,41,41.15a1.36,1.36,0,0,0,1.35,1,2.26,2.26,0,0,0,2-1,1.93,1.93,0,0,0-.19-2A.59.59,0,0,0,44,38.83Zm-.6,1.68a1.14,1.14,0,0,1-1,.42c-.16,0-.2,0-.23-.15a1,1,0,0,1,.25-.95.62.62,0,0,1,.37-.1,1.66,1.66,0,0,1,.52.1A.75.75,0,0,1,43.35,40.51Z" transform="translate(-5 -27.82)"/><path d="M80.78,48.71a1.89,1.89,0,0,0-1.86.06,1.78,1.78,0,0,0-.55,1.86,1.16,1.16,0,0,0,1.15.82,1.84,1.84,0,0,0,1.64-.85A1.59,1.59,0,0,0,81,48.92.59.59,0,0,0,80.78,48.71ZM80.13,50a.72.72,0,0,1-.61.24h0a.62.62,0,0,1,.13-.57.32.32,0,0,1,.19,0,1.06,1.06,0,0,1,.29,0A.39.39,0,0,1,80.13,50Z" transform="translate(-5 -27.82)"/><path d="M30.5,46.14a1.89,1.89,0,0,0-1.86.06,1.78,1.78,0,0,0-.55,1.86,1.16,1.16,0,0,0,1.15.82A1.84,1.84,0,0,0,30.88,48a1.59,1.59,0,0,0-.15-1.68A.59.59,0,0,0,30.5,46.14Zm-.65,1.32a.72.72,0,0,1-.61.24h0a.62.62,0,0,1,.13-.57.32.32,0,0,1,.19,0,1.06,1.06,0,0,1,.29,0A.39.39,0,0,1,29.85,47.46Z" transform="translate(-5 -27.82)"/><path d="M74.45,46.09c-.93.16-2.43.58-2.43,1.57,0,0-.09.15-.16.24a1.26,1.26,0,0,0,0,1.79,2.16,2.16,0,0,1,.14,1,2,2,0,0,0,.48,1.65,1.13,1.13,0,0,0,.73.24,1.89,1.89,0,0,0,.41,0c1.24-.27,1.4-1.33,1.51-2a1.73,1.73,0,0,1,.4-1.09h0a2.17,2.17,0,0,0,.41-2.72A1.22,1.22,0,0,0,74.45,46.09Zm.27,2.45h0a2.71,2.71,0,0,0-.81,1.81c-.12.76-.19,1-.6,1.06l-.14,0a3.59,3.59,0,0,1,0-.71,2.74,2.74,0,0,0-.4-1.76l-.1-.13a1.71,1.71,0,0,1,.13-.17,1.57,1.57,0,0,0,.43-.9,4.2,4.2,0,0,1,1.5-.51l.09,0a.83.83,0,0,1,.21.49A.92.92,0,0,1,74.72,48.54Z" transform="translate(-5 -27.82)"/><path d="M90.42,53.86a1.89,1.89,0,0,0-1.86.06A1.78,1.78,0,0,0,88,55.78a1.16,1.16,0,0,0,1.15.82,1.84,1.84,0,0,0,1.64-.85,1.58,1.58,0,0,0-.15-1.68A.59.59,0,0,0,90.42,53.86Zm-.65,1.32a.72.72,0,0,1-.61.24h0a.62.62,0,0,1,.13-.57.32.32,0,0,1,.19,0,1,1,0,0,1,.29,0A.39.39,0,0,1,89.77,55.18Z" transform="translate(-5 -27.82)"/><path d="M94.73,57.27l-1.43-.92-.07-.14a11.58,11.58,0,0,0-.87-1.45l.06-1.62a.59.59,0,0,0-.41-.58l-2.5-.8a23.26,23.26,0,0,0-2.3-1.64l-.62-1.36a.59.59,0,0,0-.48-.34l-2.43-.23c-.74-.36-1.51-.71-2.36-1.08L81,46.25a.59.59,0,0,0-.48-.34l-2.66-.25-1.9-.75-.45-1a.59.59,0,0,0-.48-.34l-2.93-.28A15.28,15.28,0,0,1,69,41.55l-.34-.27-.81-2a.59.59,0,0,0-.62-.36l-1.84.22-.91-.47-1.19-1.57a.59.59,0,0,0-.69-.19l-1.14.45L60.26,37l-1.13-1.49a.59.59,0,0,0-.69-.19l-1.64.65-1.3-.32-.86-1.13a.59.59,0,0,0-.69-.19l-1.61.64-1.12-.21-1.06-1.4a.59.59,0,0,0-.69-.19L47.15,34l-1.49-.22-1.16-.88a.59.59,0,0,0-.71,0l-.81.61c-1-.06-2.13-.07-3.32,0l-1-.74a.59.59,0,0,0-.71,0l-1.15.88-1.41.1-1.84.12L33,33.35a.59.59,0,0,0-.71-.1l-1.22.68c-2.06,0-3.34-.39-4.13-1.16-3.94-3.79-6.78-5-12.07-5h-.18a9.69,9.69,0,0,0-4.49,1.12A11,11,0,0,1,7,30.13a2.48,2.48,0,0,0-1.53,4,2.15,2.15,0,0,1,.4.92,3.47,3.47,0,0,0,1.73,2.36c.7.45,1.67,1,2.69,1.52a38.82,38.82,0,0,1,4.91,2.94,29,29,0,0,1,2.87,2.7c-.47,3.36-2.06,4.76-2.31,5a16.55,16.55,0,0,1-3.06.92A2.08,2.08,0,0,0,11,51a2.55,2.55,0,0,0-.41,2.08.59.59,0,0,0,1.08.18c.26-.42.57-.44,1.28-.22a2.63,2.63,0,0,0,.79,2.15.59.59,0,0,0,1-.53,4.19,4.19,0,0,1,1-.69.6.6,0,0,0,.24-.22,2,2,0,0,1,.47-.53,12,12,0,0,1,1.93,1.64.58.58,0,0,0,.48.17.59.59,0,0,0,.43-.26,1.9,1.9,0,0,0-.09-2.17,29,29,0,0,0,4.32-3.75c1.38.7,2.84,1.33,3.14,1.46.86.56,1.72,1.44,1.72,1.89l-.11.14h0L27.1,53.89h0a65.21,65.21,0,0,0-3.8,5.49c-.8.52-2.07,1.1-2.64.86-1.61-.69-2.93,1.65-3.08,1.92a.59.59,0,0,0,.78.81,1.94,1.94,0,0,1,1.35-.15,4,4,0,0,0,1.75.11,1,1,0,0,0,.13.83.86.86,0,0,1,0,.33,1.89,1.89,0,0,0,.75,1.63.59.59,0,0,0,.93-.27,8.18,8.18,0,0,1,.54-1.26,8.28,8.28,0,0,1,2.8-1.32c.47.18.87.49.84.62a.59.59,0,0,0,1.1.4,3,3,0,0,0,.27-2.15,2.11,2.11,0,0,0-.77-1.06,3.58,3.58,0,0,1,.75-1.37l.79-.64h0c.22-.19,4.26-3.63,5-6.53,2.62-.17,8.73-.53,9.92-.4.08,0,7.53,1,10.36,3-1,2.43-2.14,5-2.32,5.44-.16.22-.34.46-.53.7l-.09,0c-.57-.12-3.47-.7-4.43-.43-1.26.36-1.3,2.23-1.3,2.44a.59.59,0,0,0,.48.59.57.57,0,0,0,.65-.36,1.62,1.62,0,0,1,.86.07c-1.22.32-2.51,1-2.36,2.7a.59.59,0,0,0,.87.46,5.2,5.2,0,0,1,2.64-.59,11.18,11.18,0,0,0,4-.95,11.62,11.62,0,0,1,1.78-.56,1.43,1.43,0,0,1,.4.26,3.67,3.67,0,0,0,2.57.92,3.58,3.58,0,0,1,2.41.82.59.59,0,0,0,1-.52,4.13,4.13,0,0,0-2.36-2.93c-.9-.36-1.36-.67-1.5-1a1.38,1.38,0,0,1,.16-1,14,14,0,0,1,1.41-2.12,17,17,0,0,0,2.32-3.76c1.34-.32,5.83-1.45,7.69-2.61A36.35,36.35,0,0,0,76.41,56c3.53,1.18,10.36,4.4,10.91,6.88.26,1.18-1.05,2.4-2.44,3.69-1.58,1.47-3.22,3-3.22,5a.59.59,0,0,0,1,.45c1.16-1,3.39-2.52,4.44-2.52s3.56-1.13,5.33-3.18a8.14,8.14,0,0,0,2-6.54L95,57.94A.59.59,0,0,0,94.73,57.27ZM18,52a.59.59,0,0,0-.25.78c-.86-.68-1.17-.68-1.3-.68A1.94,1.94,0,0,0,15,53a5.43,5.43,0,0,0-.94.61.79.79,0,0,1,.07-.63.59.59,0,0,0-.32-.86l-.26-.09a3.51,3.51,0,0,0-1.71-.28,1.06,1.06,0,0,1,.87-.21h.15a17.48,17.48,0,0,0,3.46-1l.1-.05c.09-.06,1.95-1.39,2.69-4.92a18,18,0,0,0,2.46,2.26c.23.15.51.32.81.49A23.33,23.33,0,0,1,18,52Zm11,1.93c-.09.19-.31.18-.49.12l.41-.55A.38.38,0,0,1,29,53.89Zm-.8,4.44-.14,0a.43.43,0,0,1,.61-.57.68.68,0,0,1,0,.14Zm19.74,3.2a12.69,12.69,0,0,1,3.29.34,6.79,6.79,0,0,1-.74.65.6.6,0,0,0-.22-.05,5.4,5.4,0,0,1-.74-.2,7.07,7.07,0,0,0-1.86-.41C47.73,61.68,47.82,61.55,47.93,61.52ZM91.21,59.4a1.78,1.78,0,0,0-.55,1.86,1.16,1.16,0,0,0,1.15.82,2,2,0,0,0,1.45-.57,7,7,0,0,1-1.77,4.07,8.26,8.26,0,0,1-4.43,2.77A8,8,0,0,0,83.35,70a13.86,13.86,0,0,1,2.33-2.54c1.57-1.46,3.2-3,2.79-4.81-.75-3.39-8.9-6.81-11.69-7.74A38,38,0,0,1,69.62,51a.59.59,0,0,0-.7,0c-1.28,1-6.14,2.3-7.91,2.71a.59.59,0,0,0-.43.4,14.45,14.45,0,0,1-2.25,3.73,14.3,14.3,0,0,0-1.54,2.35,2.45,2.45,0,0,0-.17,2,3.53,3.53,0,0,0,2.15,1.65,2.4,2.4,0,0,1,.83.55,5.25,5.25,0,0,0-1.44-.2,2.51,2.51,0,0,1-1.83-.66,2.21,2.21,0,0,0-.85-.49,5.52,5.52,0,0,0-2.46.6,11.48,11.48,0,0,1-3.43.89,5.36,5.36,0,0,0-2.07.22A5.06,5.06,0,0,1,49.92,64c1.51-.19,3.37-2.73,3.73-3.24l.05-.09S55,57.93,56,55.34a.75.75,0,0,0,.39.12A1.88,1.88,0,0,0,58,54.52a1.78,1.78,0,0,0-.1-1.85.59.59,0,0,0-.29-.24l-.52-.17c0-.17.09-.32.13-.46.48-1.94,5.3-4.2,7.12-4.91a.59.59,0,1,0-.43-1.1c-.73.28-7.12,2.85-7.84,5.72-.07.27-.16.59-.28,1l-.51,1.05c-3.27-2-10.21-2.92-10.53-3-1.4-.17-8.06.25-9.95.38a2.19,2.19,0,0,0-.46-1.15,18.1,18.1,0,0,1-2.57-4.49.59.59,0,0,0-1.11.4,19,19,0,0,0,2.75,4.82c1,1.26-1.48,4.43-3.79,6.58L29.57,57a.59.59,0,0,0-.24-.22,1.89,1.89,0,0,0-1.86.06,1.78,1.78,0,0,0-.55,1.86,1.17,1.17,0,0,0,.47.63,6,6,0,0,0-.56,1.52.59.59,0,0,0,.31.64,1.05,1.05,0,0,1,.59.61h0a4.06,4.06,0,0,0-.8-.38.59.59,0,0,0-.19,0c-1.31,0-3.42,1.44-3.66,1.6a.59.59,0,0,0-.16.16l-.14.23a1.37,1.37,0,0,0-.17-.49,2.07,2.07,0,0,1,.51-.61.59.59,0,0,0-.52-1,6,6,0,0,1-2.46.19,2.22,2.22,0,0,0-.64-.15c.25-.21.49-.34.68-.26,1.39.6,3.49-.77,3.89-1.05a.59.59,0,0,0,.19-.22A51.09,51.09,0,0,1,27.76,55l.06,0A1.57,1.57,0,0,0,30,54.4a1.55,1.55,0,0,0-.53-2c.18-1.44-1.86-2.83-2.29-3.11l-.09,0a43.56,43.56,0,0,1-4.89-2.44,22.64,22.64,0,0,1-2.77-2.62A35.25,35.25,0,0,0,16,40.88a39.58,39.58,0,0,0-5.07-3c-1-.54-2-1-2.62-1.47A2.32,2.32,0,0,1,7.06,34.7v0a25,25,0,0,0,2.85.73H10a.59.59,0,0,0,.08-1.17,35.25,35.25,0,0,1-3.71-1,1.25,1.25,0,0,1-.08-1.1,1.23,1.23,0,0,1,1-.81A12.15,12.15,0,0,0,10.8,30a8.51,8.51,0,0,1,3.94-1c5.1,0,7.66,1,11.42,4.63,1.35,1.29,3.43,1.47,5.1,1.49a.64.64,0,0,0,.29-.08l1-.54.38.39a.58.58,0,0,0,.45.17l2.12-.14,1.58-.11a.59.59,0,0,0,.32-.12l.94-.71.78.59a.57.57,0,0,0,.37.12c1.32,0,2.51,0,3.64,0a.59.59,0,0,0,.39-.12l.63-.48.93.7a.59.59,0,0,0,.27.11l1.79.26a.59.59,0,0,0,.31,0l2-.81.93,1.23a.59.59,0,0,0,.36.22l1.5.28a.58.58,0,0,0,.33,0L54,35.54l.72.94a.59.59,0,0,0,.33.22l1.66.42a.59.59,0,0,0,.37,0l1.4-.56,1,1.28a.59.59,0,0,0,.28.2c.53.18,1,.36,1.54.55a.59.59,0,0,0,.43,0l.93-.37,1,1.32a.59.59,0,0,0,.21.17c.38.19.77.39,1.15.6a.59.59,0,0,0,.36.07l1.58-.19.7,1.71a.59.59,0,0,0,.19.25l.45.35a16.62,16.62,0,0,0,3.41,1.95.6.6,0,0,0,.19.05l2.69.26.41.89a.59.59,0,0,0,.32.3l2.2.86.16,0,2.4.23.34.74a.59.59,0,0,0,.3.3c1,.41,1.81.8,2.61,1.19a.59.59,0,0,0,.2.06l2.19.21.55,1.21a.59.59,0,0,0,.23.26,22.08,22.08,0,0,1,2.41,1.72.59.59,0,0,0,.2.11l2.18.7-.05,1.37a.59.59,0,0,0,.11.37,10.48,10.48,0,0,1,.89,1.45l.06.14.06.12a.59.59,0,0,0,.21.24l1.19.78-.46,1.47a.59.59,0,0,0-.18-.14A1.89,1.89,0,0,0,91.21,59.4Zm1.22,1.27a.72.72,0,0,1-.61.24h0a.62.62,0,0,1,.13-.57.32.32,0,0,1,.19,0,1.06,1.06,0,0,1,.29,0A.39.39,0,0,1,92.43,60.66ZM56.31,54.12l.37-.76.32.1a.55.55,0,0,1,0,.49.68.68,0,0,1-.47.32Z" transform="translate(-5 -27.82)"/><path d="M85.14,51.23a2.2,2.2,0,0,0-1.43,1.49.9.9,0,0,1-.26.26,2.53,2.53,0,0,0-1,2.15,1.43,1.43,0,0,0,.42,1,1,1,0,0,0,.66.26h.12c.62-.08,1-.7,1.79-1.82a3.21,3.21,0,0,1,1-.85c.39-.26.8-.53.86-1a1.33,1.33,0,0,0-.42-1A1.58,1.58,0,0,0,85.14,51.23Zm.6,1.52a4.28,4.28,0,0,0-1.29,1.18,14.09,14.09,0,0,1-.84,1.17v0a1.36,1.36,0,0,1,.56-1.14,1.58,1.58,0,0,0,.7-1,1.17,1.17,0,0,1,.67-.58h.1a.43.43,0,0,1,.32.17l.05.06Z" transform="translate(-5 -27.82)"/><path d="M38.8,37.07A2.2,2.2,0,0,0,36.74,37a.9.9,0,0,1-.36,0,2.53,2.53,0,0,0-2.3.64,1.43,1.43,0,0,0-.5,1,1,1,0,0,0,.32.76c.46.41,1.21.32,2.55.16a3.2,3.2,0,0,1,1.28.17,2.93,2.93,0,0,0,.76.14,1,1,0,0,0,.57-.17,1.33,1.33,0,0,0,.49-1A1.58,1.58,0,0,0,38.8,37.07Zm-.42,1.45v.08L38,38.51a4.83,4.83,0,0,0-1.34-.22l-.4,0c-.52.06-1.11.13-1.43.13l0,0a1.35,1.35,0,0,1,1.23-.32,1.57,1.57,0,0,0,1.2-.12,1.17,1.17,0,0,1,.88.13A.39.39,0,0,1,38.37,38.52Z" transform="translate(-5 -27.82)"/><path d="M52,37.41a1.89,1.89,0,0,0-1.86.06,1.78,1.78,0,0,0-.55,1.86,1.16,1.16,0,0,0,1.15.82,1.84,1.84,0,0,0,1.64-.85,1.58,1.58,0,0,0-.15-1.68A.59.59,0,0,0,52,37.41Zm-.65,1.32a.72.72,0,0,1-.61.24h0a.62.62,0,0,1,.13-.57.32.32,0,0,1,.19,0,1,1,0,0,1,.29,0A.39.39,0,0,1,51.38,38.73Z" transform="translate(-5 -27.82)"/><path d="M66.55,41.51a2.2,2.2,0,0,0-2.06-.11.91.91,0,0,1-.36,0,2.53,2.53,0,0,0-2.3.64,1.43,1.43,0,0,0-.5,1,1,1,0,0,0,.32.76c.46.41,1.21.32,2.55.16a3.19,3.19,0,0,1,1.28.17,2.93,2.93,0,0,0,.76.14,1,1,0,0,0,.57-.17,1.33,1.33,0,0,0,.49-1h0A1.58,1.58,0,0,0,66.55,41.51ZM66.13,43V43L65.8,43a4.83,4.83,0,0,0-1.34-.22l-.4,0a13.86,13.86,0,0,1-1.43.13l0,0a1.35,1.35,0,0,1,1.23-.32,1.58,1.58,0,0,0,1.2-.12,1.17,1.17,0,0,1,.88.13A.39.39,0,0,1,66.13,43Z" transform="translate(-5 -27.82)"/><path d="M61.57,49.34a1.89,1.89,0,0,0-1.86.06,1.78,1.78,0,0,0-.55,1.86,1.16,1.16,0,0,0,1.15.82A1.84,1.84,0,0,0,62,51.23a1.59,1.59,0,0,0-.15-1.68A.59.59,0,0,0,61.57,49.34Zm-.65,1.32a.73.73,0,0,1-.61.24h0a.62.62,0,0,1,.13-.57.32.32,0,0,1,.19,0,1.06,1.06,0,0,1,.29,0A.39.39,0,0,1,60.92,50.66Z" transform="translate(-5 -27.82)"/><path d="M58.58,41.19a1.89,1.89,0,0,0-1.86.06,1.78,1.78,0,0,0-.55,1.86,1.16,1.16,0,0,0,1.15.82A1.84,1.84,0,0,0,59,43.09a1.59,1.59,0,0,0-.15-1.68A.59.59,0,0,0,58.58,41.19Zm-.65,1.32a.72.72,0,0,1-.61.24h0a.62.62,0,0,1,.13-.57.32.32,0,0,1,.19,0,1.06,1.06,0,0,1,.29,0A.39.39,0,0,1,57.93,42.51Z" transform="translate(-5 -27.82)"/></svg>