<svg xmlns="http://www.w3.org/2000/svg" xmlns:xlink="http://www.w3.org/1999/xlink" version="1.1" id="Layer_1" x="0px" y="0px" width="100px" height="100px" viewBox="0 0 100 100" enable-background="new 0 0 100 100" xml:space="preserve">
<path d="M6.093,45.572c-0.198-1.043-0.534-1.267-0.659-1.351c-0.305-0.204-0.974-0.493-1.367-0.5  c-0.503-0.041-1.184,0.36-1.391,0.491c-0.159,0.101-0.491,0.312-0.69,1.483l-0.004,2.062H1.975v6.107l0.012,0.137  c0.199,1.171,0.529,1.381,0.69,1.484c0.207,0.13,0.885,0.463,1.389,0.49c0.397-0.007,1.065-0.296,1.361-0.495  c0.128-0.084,0.468-0.308,0.666-1.354V45.572z"/>
<polygon points="19.705,40.49 19.705,59.209 72.927,59.209 72.927,40.49 33.513,40.49 33.513,46.734 28.102,46.734 28.103,40.49 "/>
<path d="M17.255,40.76c-0.129-0.285-0.305-0.573-0.556-0.834c-0.388-0.404-1.099-0.886-2.287-0.886  c-1.194,0-1.902,1.195-2.798,2.708c-0.555,0.937-1.184,1.998-1.991,2.885C9.107,45.2,8.48,45.618,7.863,45.93v7.84  c0.618,0.312,1.245,0.73,1.761,1.297c0.808,0.887,1.437,1.949,1.991,2.886c0.896,1.513,1.604,2.707,2.798,2.707  c1.188,0,1.899-0.481,2.287-0.886c0.25-0.261,0.427-0.549,0.555-0.833V40.76z"/>
<path d="M88.478,45.417c-2.519,0-5.26,0.34-7.248,1.161v-5.611l-0.092-0.177c-0.337-0.646-1.545-2.75-2.971-2.75  c-1.294,0-2.289,1.414-2.789,2.304v19.012c0.5,0.891,1.495,2.304,2.789,2.304c1.426,0,2.634-2.104,2.971-2.749l0.092-0.178v-5.741  c1.988,0.821,4.729,1.162,7.248,1.162c4.646,0,10.072-1.145,10.072-4.369C98.55,46.561,93.124,45.417,88.478,45.417z M88.478,50.886  c-3.231,0-5.469-0.61-6.425-1.101c0.956-0.492,3.193-1.102,6.425-1.102c3.23,0,5.468,0.61,6.424,1.101  C93.945,50.276,91.709,50.886,88.478,50.886z"/>
</svg>
