<svg xmlns="http://www.w3.org/2000/svg" xmlns:xlink="http://www.w3.org/1999/xlink" version="1.1" x="0px" y="0px" viewBox="0 0 100 100" enable-background="new 0 0 100 100" xml:space="preserve"><g><circle fill="#000000" cx="49.903" cy="49.95" r="3.546"></circle><path fill="#000000" d="M58.284,49.512c-0.457,0-0.909,0.192-1.229,0.565l-4.592,5.001c0-1.73-0.624-0.502-2.476-0.502H49.82   c-1.853,0-2.477-1.229-2.477,0.502l-4.59-4.905c-0.321-0.375-0.774-0.566-1.229-0.566c-0.373,0-0.745,0.128-1.05,0.388   c-0.678,0.58-0.759,1.6-0.178,2.278l5.784,6.695l-0.62,8.882h1.157v0.114l-1.18,12.635c-0.083,0.89,0.57,1.676,1.459,1.76   c0.05,0.004,0.102,0.006,0.152,0.006c0.824,0,1.528-0.628,1.607-1.465l1.142-12.231h0.214l1.142,12.231   c0.079,0.837,0.783,1.465,1.606,1.465c0.051,0,0.102-0.002,0.153-0.006c0.888-0.084,1.541-0.87,1.458-1.76l-1.18-12.635V67.85   h1.156l-0.617-8.979l5.781-6.694c0.581-0.678,0.501-1.698-0.178-2.277C59.028,49.64,58.655,49.512,58.284,49.512z"></path><path fill="#000000" d="M28.536,34.697l-1.802-1.449c0-3.114-1.124-0.903-4.457-0.903h-0.302c-3.333,0-4.457-2.211-4.457,0.903   l-1.804,1.46L5.699,46.593c-1.045,1.222-0.9,3.058,0.321,4.1c0.549,0.469,1.219,0.698,1.889,0.698c0.82,0,1.636-0.346,2.212-1.019   l4.871-5.868l-0.865,11.733h2.083v0.206l-2.124,22.742c-0.15,1.601,1.025,3.018,2.625,3.167c0.091,0.008,0.183,0.012,0.274,0.012   c1.483,0,2.75-1.131,2.892-2.638l2.055-22.016h0.386l2.055,22.016c0.142,1.507,1.409,2.638,2.893,2.638   c0.09,0,0.181-0.004,0.274-0.012c1.598-0.149,2.774-1.566,2.625-3.167l-2.124-22.743v-0.205h2.081l-0.865-11.743l5.027,5.882   c0.577,0.673,1.392,1.019,2.212,1.019c0.669,0,1.34-0.229,1.889-0.697c1.222-1.044,1.366-2.88,0.321-4.101L28.536,34.697z"></path><circle fill="#000000" cx="22.203" cy="24.018" r="6.382"></circle><path fill="#000000" d="M67.846,23.586c0,0,2.086-0.417,3.756-1.445c-0.184,0.594-0.283,1.224-0.283,1.878   c0,3.524,2.859,6.382,6.384,6.382s6.383-2.857,6.383-6.382c0-3.525-2.858-6.383-6.383-6.383c-2.077,0-3.916,0.996-5.082,2.532   c-0.978-0.709-3.008-1.709-4.803,0.492c0,0-1.494,1.896-3.865,0.209C63.952,20.869,64.52,24.288,67.846,23.586z"></path><path fill="#000000" d="M94.302,46.597L84.131,34.697l-1.803-1.449c0-3.114-1.124-0.903-4.457-0.903h-0.165h-0.008h-0.166   c-3.332,0-4.457-2.211-4.457,0.903l-1.802,1.449L61.103,46.597c-1.045,1.221-0.9,3.057,0.32,4.101   c0.55,0.469,1.22,0.697,1.889,0.697c0.82,0,1.636-0.345,2.213-1.018l5.027-5.883l-2.443,19.638h3.66v0.205l-2.125,14.849   c-0.147,1.601,1.027,3.018,2.626,3.168c0.092,0.007,0.184,0.011,0.274,0.011c1.483,0,2.751-1.131,2.893-2.638l2.056-14.122h0.206   h0.008h0.207l2.056,14.122c0.142,1.507,1.408,2.638,2.892,2.638c0.092,0,0.183-0.004,0.274-0.011   c1.599-0.15,2.774-1.567,2.626-3.168l-2.125-14.849v-0.205h3.66l-2.443-19.638l5.027,5.883c0.577,0.673,1.393,1.018,2.213,1.018   c0.669,0,1.34-0.229,1.889-0.697C95.202,49.653,95.347,47.817,94.302,46.597z"></path></g></svg>