<svg xmlns="http://www.w3.org/2000/svg" xmlns:xlink="http://www.w3.org/1999/xlink" version="1.1" baseProfile="full" width="100" height="100" viewBox="0 0 100.00 100.00" enable-background="new 0 0 100.00 100.00" xml:space="preserve">
	<path fill="#000000" fill-opacity="1" stroke-width="0.2" stroke-linejoin="round" d="M 44.3512,55.2697L 50.9803,61.8988L 39.9318,72.9473L 50.9803,83.9959L 44.3512,90.625L 33.3027,79.5764L 22.2541,90.625L 15.625,83.9958L 26.6735,72.9473L 15.625,61.8988L 22.2541,55.2697L 33.3027,66.3182L 44.3512,55.2697 Z "/>
	<path fill="#000000" fill-opacity="1" stroke-width="0.2" stroke-linejoin="round" d="M 59.375,34.375L 76.5624,34.375L 59.375,17.1876L 59.375,34.375 Z M 78.125,40.625L 53.125,40.625L 53.125,15.625L 21.875,15.625L 21.875,50L 15.625,56.25L 15.625,9.37503L 60.9375,9.37503L 84.375,32.8125L 84.375,90.625L 49.9999,90.6251L 56.2498,84.3752L 78.125,84.375L 78.125,40.625 Z "/>
</svg>
