<svg xmlns="http://www.w3.org/2000/svg" xmlns:xlink="http://www.w3.org/1999/xlink" version="1.1" x="0px" y="0px" viewBox="0 0 80 80" enable-background="new 0 0 80 80" xml:space="preserve"><g><path fill="#000000" d="M39,70c16.542,0,30-13.458,30-30S55.542,10,39,10S9,23.458,9,40S22.458,70,39,70z M39,12   c15.439,0,28,12.561,28,28S54.439,68,39,68S11,55.439,11,40S23.561,12,39,12z"></path><path fill="#000000" d="M33,32.5c0-2.481-2.019-4.5-4.5-4.5S24,30.019,24,32.5s2.019,4.5,4.5,4.5S33,34.981,33,32.5z M26,32.5   c0-1.379,1.122-2.5,2.5-2.5s2.5,1.121,2.5,2.5S29.878,35,28.5,35S26,33.879,26,32.5z"></path><path fill="#000000" d="M49.5,33c-2.481,0-4.5,2.019-4.5,4.5s2.019,4.5,4.5,4.5s4.5-2.019,4.5-4.5S51.981,33,49.5,33z M49.5,40   c-1.378,0-2.5-1.121-2.5-2.5s1.122-2.5,2.5-2.5s2.5,1.121,2.5,2.5S50.878,40,49.5,40z"></path><rect x="44.675" y="29" transform="matrix(0.9487 0.3162 -0.3162 0.9487 12.104 -14.5881)" fill="#000000" width="12.649" height="1.999"></rect><rect x="27" y="18.675" transform="matrix(0.3165 0.9486 -0.9486 0.3165 42.8521 -9.4734)" fill="#000000" width="1.999" height="12.649"></rect><path fill="#000000" d="M30.689,55.153c-0.303-0.281-0.644-0.598-1.065-0.935l-1.249,1.562c0.376,0.301,0.681,0.585,0.952,0.837   c0.795,0.739,1.553,1.444,2.978,1.444c0.262,0,0.547-0.024,0.859-0.076l-0.328-1.973C31.8,56.185,31.565,55.968,30.689,55.153z"></path></g></svg>