<svg fill="#000000" xmlns="http://www.w3.org/2000/svg" xmlns:xlink="http://www.w3.org/1999/xlink" version="1.1" x="0px" y="0px" viewBox="0 0 100 100" style="enable-background:new 0 0 100 100;" xml:space="preserve"><g><path d="M75.359,17.903c1.299,0,2.352,1.052,2.352,2.351c0,1.298-1.053,2.351-2.352,2.351c-1.297,0-2.35-1.053-2.35-2.351   C73.01,18.956,74.063,17.903,75.359,17.903z M100,34.208L89.723,44.772l-0.99-0.963l-7.025,7.159   c-0.326,2.042-1.185,7.321-1.185,7.321l1.329,1.33c4.297,5.373,1.341,9.914-0.258,11.538c-1.553,1.578-3.707,2.519-5.957,2.612   c-0.025,0.268-0.176,3.237-3.023,5.395c-2.726,2.065-5.543,1.85-5.768,1.827c-0.512,1.312-1.43,2.459-2.551,3.44   c-2.82,2.468-6.312,1.778-6.883,1.623c-1.736,3.46-4.961,4.169-6.689,4.169c-2.229,0-4.51-0.865-5.971-2.26   c-4.047,2.498-7.467,0.442-8.781-0.875c-0.867-0.869-1.472-1.931-1.785-3.071c-1.793-0.137-4.662-1.061-6.275-4.407   c-0.438,0.078-8.583,0.808-8.871-7.758c-1.116-0.362-5.193-2.312-5.193-7.171c0-4.73,4.671-7.402,5.1-7.674   c-0.396-1.555-1.276-7.17-1.586-7.562c-2.475-2.475-6.534-6.512-6.534-6.512l-1.228,1.194L0,34.228L25.114,9.776l9.599,9.92   l-0.544,0.53c0.472,0.419,2.57,2.285,5.195,4.619c0.302,0.269,3.223,1.409,3.223,1.409c0.841-0.547,3.947-2.183,6.912-2.128   c5.486,0.102,8.773,3.779,11.161,1.391l4.726-4.422l-0.776-0.755L74.886,9.776L100,34.208z M30.942,19.641l-5.883-6.068   L3.771,34.283l5.883,6.068L30.942,19.641z M45.077,78.238c-1.498-1.843-4.07-1.301-4.193-1.259   c0.039-0.101,0.582-3.008-1.355-4.944c-1.633-1.633-4.814-1.413-4.902-1.38c0.027-0.091,0.734-2.935-1.491-4.551   c-2.225-1.617-5.423-1.152-5.606-1.047c0.072-0.198,0.857-2.605-1.346-4.792c-1.016-0.971-2.954-2.828-6.041-0.846l-2.199,1.825   c-1.902,1.897-1.905,4.979-0.007,6.88c0.95,0.951,4.255,1.377,4.652,1.275c-1.334,1.896-1.237,4.617,0.538,6.231   c2.521,2.293,5.911,0.962,6.857,0.028c-0.265,1.509,0.238,3.065,1.346,4.283c1.911,2.1,4.821,1.283,5.459,0.992   c-0.44,1.461-0.254,2.932,1.069,4.269c1.893,2.095,3.995,1.335,4.792,0.724l2.149-1.909C45.061,83.786,47.219,80.872,45.077,78.238   z M79.971,61.512L67.648,49.215c-2.316,0.958-9.456,3.229-21.365-1.033l-6.695,6.166c-1.641,1.619-7.402,4.747-12.282-0.043   c-4.88-4.789-1.657-10.653-0.029-12.295l12.963-13.712c-1.022-0.365-1.955-0.84-2.65-1.458c-2.989-2.658-5.295-4.708-5.295-4.708   L13.047,41.379c0,0,3.701,3.682,6.208,6.188c1.377,1.377,1.278,4.641,2.192,8.438c3.036-0.639,5.424,0.633,6.847,2.059   c1.026,1.027,1.71,2.313,2.016,3.684c5.278,0.441,6.733,4.578,7.027,5.986c4.732,0.595,6.282,4.893,6.49,6.51   c4.344,0.983,5.422,4.933,5.416,6.791c-0.01,3.555-2.394,5.223-2.394,5.223c0.963,0.778,4.203,2.311,6.679,0.407   c2.128-1.636,2.686-4.413,1.349-6.117c0.002,0,3.188,5.443,7.743,1.808c2.111-1.686,2.412-4.338,1.322-6.151   c0,0,2.461,4.481,6.997,0.884c4.782-3.791-0.975-8.999-0.975-8.999s3.907,2.797,5.3,3.021c1.789,0.289,3.186-0.561,4.428-1.823   C82.072,66.866,81.742,63.255,79.971,61.512z M86.617,42.149L67.303,22.961c-0.285,0.254-5.827,5.344-5.827,5.344   c-1.048,0.767-2.35,1.307-5.711,0.108c-2.618-0.935-3.103-1.63-6.639-1.63c-3.57,0-6.509,3.5-6.509,3.5l-13.13,13.829l-0.02,0.021   l-0.021,0.021c-0.468,0.472-3.565,4.529,0.013,7.991c3.805,3.681,7.447,0.566,7.991,0.029l0.034-0.033l0.034-0.031l8.076-7.438   c15.163,6.212,22.428,1.117,22.428,1.117l10.297,10.297c0.939-3.834,0.109-5.613,1.501-7.005   C82.326,46.574,86.617,42.149,86.617,42.149z M96.227,34.26L74.938,13.55l-6.482,6.664L89.67,40.999L96.227,34.26z M24.637,17.927   c-1.298,0-2.35,1.052-2.35,2.35c0,1.299,1.052,2.351,2.35,2.351c1.298,0,2.351-1.052,2.351-2.351   C26.987,18.979,25.935,17.927,24.637,17.927z"/></g></svg>