<svg xmlns="http://www.w3.org/2000/svg" xmlns:xlink="http://www.w3.org/1999/xlink" version="1.1" id="Layer_1" x="0px" y="0px" width="100px" height="100px" viewBox="0 0 100 100" enable-background="new 0 0 100 100" xml:space="preserve">
<path d="M48.767,0.336c-3.707,0-6.712,3.006-6.712,6.713c0,3.706,3.005,6.712,6.712,6.712c3.707,0,6.711-3.006,6.711-6.712  C55.479,3.342,52.474,0.336,48.767,0.336"/>
<path d="M60.576,36.875l-0.311-15.747c1.229,5.099,3.47,12.892,3.47,12.892l0.679,2.708c0,0,5.605,10.844,5.606,10.847l-0.009-0.017  l0.994,2.104c0.151,0.318,0.239,0.65,0.271,0.983v0.003v-0.002c0.011,0.101,0.016,0.203,0.016,0.304  c-0.001,1.133-0.635,2.217-1.726,2.732l0.001-0.001l-0.002,0.001c-0.136,0.065-0.281,0.118-0.432,0.164l0.003-0.001h-0.001  c-0.283,0.085-0.571,0.125-0.855,0.125c-0.8,0-1.575-0.319-2.144-0.894l0.004,0.004l-0.005-0.005  c-0.22-0.221-0.409-0.479-0.555-0.773l-0.001-0.002l-4.971-9.772L60.576,36.875z"/>
<path d="M60.027,48.334H44.597v-19.5l-0.575,0.575c-1.5,1.498-2.95,2.885-4.028,3.9c-0.539,0.507-0.984,0.922-1.296,1.21  c-0.156,0.145-0.279,0.257-0.363,0.334c-0.042,0.039-0.075,0.068-0.097,0.088l-0.024,0.022l-0.005,0.005l0.048,0.054l-0.047-0.055  l0,0.001l0.048,0.054l-0.047-0.055l0.013-0.01l-0.013,0.01l0.013-0.01l0.018-0.013l-8.486,5.762l-1.909,1.336  c-0.29,0.203-0.599,0.344-0.925,0.433l-0.001,0.001c-0.265,0.074-0.537,0.11-0.808,0.11c-0.95,0-1.881-0.445-2.469-1.284  l-0.001-0.002c-0.088-0.124-0.167-0.259-0.234-0.396l0,0.001c-0.208-0.422-0.309-0.875-0.309-1.327c0-0.624,0.193-1.243,0.562-1.76  l0.001-0.002l0,0c0.178-0.253,0.4-0.481,0.668-0.679l-0.009,0.006l9.505-6.534l0.02-0.018l15.59-15.38  c0.989-0.542,2.217-0.759,3-0.84l0.002,0h0.001c0.199-0.023,0.402-0.038,0.607-0.042l0.003,0h0.005  c0.051-0.002,0.091-0.003,0.118-0.004l0.03,0h0.009c3.509,0,6.357,2.841,6.373,6.349v0.001"/>
<path d="M28.97,88.215c-0.392,0-0.752,0.062-1.118,0c-1.221-0.208-2.239-0.802-2.239-2.263c0-0.171,0.016-0.343,0.04-0.51  c0.189-1.234,1.049-2.02,2.199-2.425c0.225-0.08,1.101-0.244,1.744-0.341c0,0,0.002-20.953,0.002-20.953h0.005  c-0.019-0.542,0.085-1.08,0.323-1.58c0.158-0.335,0.376-0.65,0.652-0.928l13.714-8.993h14.993l-2.408,21.748l-0.003,23.928  c0,0.391-0.07,0.77-0.196,1.119c-0.46,1.302-1.698,2.236-3.159,2.236l-3.974,0.061c-0.392,0-0.752,0.062-1.118,0  c-1.221-0.208-2.239-0.802-2.239-2.263c0-0.172,0.016-0.343,0.041-0.511c0.189-1.234,1.049-2.02,2.199-2.425  c0.224-0.079,1.094-0.241,1.735-0.338l0.001-21.486l0.005-0.226c-0.02-0.541-0.21-3.898-0.127-4.729  c0.022-0.228-0.078-6.708-0.158-11.627h0L36.76,63.65l-0.452,21.23c0,0.391-0.07,0.77-0.197,1.119  c-0.459,1.302-1.698,2.236-3.159,2.236L28.97,88.215z"/>
<path d="M40.042,96.464c-0.521-0.149-1.052-0.355-1.575-0.637l-0.426,0.792c0.585,0.315,1.178,0.544,1.754,0.709L40.042,96.464z   M37.079,94.86c-0.4-0.353-0.784-0.768-1.141-1.256l-0.726,0.531c0.395,0.54,0.823,1.004,1.271,1.399L37.079,94.86z"/>
<path d="M42.857,97.71l-0.965,1.241l1.285-0.161l1.323-1.703l-1.703-1.322l-1.284,0.161l1.127,0.875l-0.012,0.013  c-0.28,0-0.583-0.012-0.902-0.041l-0.081,0.896c0.349,0.031,0.679,0.044,0.983,0.044c0.078,0,0.155,0,0.23-0.001L42.857,97.71z"/>
<path d="M34.604,91.029l1.268,0.742l-0.327-1.253l-1.861-1.09l-1.089,1.861l0.327,1.252l0.789-1.348l-0.001-0.001  c0.164,0.475,0.346,0.917,0.543,1.328l0.811-0.389C34.899,91.791,34.746,91.424,34.604,91.029L34.604,91.029z"/>
</svg>
