<svg xmlns="http://www.w3.org/2000/svg" data-name="Layer 22" viewBox="0 0 100 100" x="0px" y="0px"><title>Artboard 1</title><path d="M92,41.79c-.36-3.71-3.74-4.54-6.82-5.16a92.81,92.81,0,0,1-12.58-3.3c-2.24-3-5.41-4.74-9.4-6-7.1-2.31-12.54-2.44-19.23.48a10.74,10.74,0,0,0-5.41-.63c-6.14.81-15,9.36-15,9.4a2.1,2.1,0,0,0-.55,2.1c-2.23,2.2-4.55,4.64-5.81,7.35a8,8,0,0,0-.82,3.6c-3.49,5-10.51,15.1-6.48,21,5.07,7.46,17,2,24.32.11a31.3,31.3,0,0,0,12.46-2.07c3.82,2.91,7.17,1.7,11.34-.54,2.8-1.51,6.22-2.85,7.55-5.65,3.94-2.06,9.21-3.81,11.72-7.61a5.7,5.7,0,0,0,.57-1.16c1.6-1.14,3.63-1.32,5.42-2.06a27.75,27.75,0,0,0,4.48-2.39C90.11,47.63,92.26,44.86,92,41.79Zm-69.25,4a45.43,45.43,0,0,1,4.08-4.56C32.35,43.85,36,49,39.08,54.31c1.48,2.54,3.64,5.6,4.45,8.46.23.79.35,1.45.48,2-2.37.72-9.18,1.16-9.56,1.22-4.76-.56-6-5.86-8.89-9.66C22.93,52.86,19.5,50,22.72,45.77ZM13.29,65.93c0-3.56,2.65-7.85,5-11.34,1.31,1.79,3,3.5,4.36,5.45,1.83,2.66,3.07,5.69,5.1,7.84C21.37,69.64,13.23,71.21,13.29,65.93Zm45.56-3.5C55.41,64.64,50,68.17,48,62.67A62.57,62.57,0,0,0,43,52c-3.5-6-7.75-11.6-13.92-14.7C32,34.5,35.28,32,39.45,31.59c3.66-.34,7.45,2.87,10.28,5,4.68,3.48,9,7.85,10.56,13.61a48.85,48.85,0,0,1,1,7.87C61.61,60.69,60.88,61.12,58.85,62.43Zm11.93-7.86a44.21,44.21,0,0,1-4.71,2.58c1.27-15.48-16.77-26.33-17-26.47,4.28-1.13,8.25-.6,12.89,1,5.35,1.79,7.83,4.49,9.35,9.89a62.51,62.51,0,0,1,1.63,6.11C73.52,51,73.69,52.66,70.78,54.56ZM86.65,44.2c-1,1.75-4.56,3.11-6.32,3.68-.77.25-1.48.48-2.16.73A46.4,46.4,0,0,0,75.33,39c1.24.36,2.48.69,3.74,1C81.12,40.42,88.65,40.65,86.65,44.2Z"></path></svg>