<svg fill="#000000" xmlns="http://www.w3.org/2000/svg" xmlns:xlink="http://www.w3.org/1999/xlink" version="1.1" x="0px" y="0px" viewBox="0 0 100 100" enable-background="new 0 0 100 100" xml:space="preserve"><g><g><path fill="none" d="M56.59,41.876c-1.494-1.648-3.094-3.373-3.971-5.253c-0.096-0.212-0.154-0.501,0-0.704    c1.658-2.159,4.241-3.759,6.622-5.33c-1.774,0.241-3.605,0.704-5.07,0.463c-0.443-0.077-0.945,0.193-1.378-0.019    c-1.658-0.819-3.017-4.627-4.01-7.065c-0.733,2.178-0.954,4.607-1.937,6.506c-0.202,0.395-0.202,0.713-0.607,1.031    c-0.916,0.684-3.171,0.443-5.243,0.106c1.87,1.089,3.778,2.265,5.099,3.711c0.145,0.145,0.231,0.376,0.164,0.588    c-0.598,1.677-1.802,3.027-2.593,4.627c-2.641,5.292,2.757,1.224,5.079,0c0.202-0.106,0.376-0.01,0.443,0.145    c0.164-0.164,0.376-0.222,0.598-0.212c0.154-0.145,0.357-0.222,0.626-0.154C52.475,40.825,54.537,41.346,56.59,41.876z"/><path d="M93.458,50.011c-5.465,7.643-16.443,5.186-18.467-3.855c-0.164-0.713-1.157-0.781-1.513-0.193    c-3.152,5.234-8.202,11.721-14.863,6.699c-3.354-2.525-5.137-6.66-7.537-10.111c-0.154-0.231-0.318-0.463-0.482-0.684    c0.01-0.01,0.01-0.029,0.01-0.048c2.612,0.665,5.224,1.32,7.836,1.976c0.713,0.174,1.118-0.655,0.684-1.176    c-1.513-1.822-4.174-3.923-3.72-6.246c0.501-2.583,4.443-4.443,6.516-5.966c0.559-0.405,0.347-1.195-0.347-1.263    c-2.034-0.212-4.347,0.482-6.275,0.222c-3.47-0.482-4.578-4.819-5.937-7.489c-0.231-0.453-0.964-0.453-1.185,0    c-0.607,1.185-1.003,1.908-1.446,3.161c-0.222,0.598-0.8,4.453-1.147,4.8c-1.176,1.176-6.304-0.019-8.068-0.174    c-0.713-0.058-0.867,0.935-0.337,1.272c2.66,1.706,7.605,3.383,6.506,7.113c-0.588,2.005-2.014,3.981-2.689,6.034    c-0.135,0.414,0.318,0.877,0.733,0.733c2.641-0.916,4.925-2.005,7.21-3.624c-1.195,5.571-3.557,12.79-9.427,14.438    c-3.2,0.906-4.376,0.328-6.882-1.812c-0.752-0.636-1.417-1.407-2.043-2.159c-1.706-2.024-3.075-4.212-4.28-6.564    c-0.337-0.646-1.542-0.559-1.658,0.212c-0.655,4.53-1.706,10.843-6.911,12.414c-5.33,1.6-9.292-3.21-11.181-7.431    c-0.395-0.887-1.754-0.251-1.533,0.646c1.957,7.643,2.535,15.229,3.21,23.055c0.039,0.395,0.328,0.588,0.617,0.588    c0.289,0,0.578-0.193,0.607-0.588C9.872,67.89,9.082,61.615,7.81,55.572c2.246,2.708,5.32,4.617,9.108,4.125    c5.822-0.761,8.048-6.294,9.06-11.431c2.882,4.935,7.682,11.142,13.523,10.092c6.178-1.099,9.475-9.552,10.834-15.306    c2.747,5.08,5.282,11.807,11.537,12.993c5.513,1.051,9.32-3.412,12.048-7.663c3.065,8.251,13.195,10.313,19.373,4.308    c-0.251,8.077-1.706,15.981-3.325,23.904c-0.019,0.058,0,0.106,0,0.164c-0.173-0.26-0.443-0.453-0.839-0.463    c-13.388-0.347-26.785-0.684-40.173-1.031c-13.33-0.347-26.776-1.186-40.106-0.646c-0.019,0-0.039,0-0.058,0    c-0.723,0.029-0.704,1.051,0,1.118c13.311,1.263,26.814,1.166,40.164,1.561l40.173,1.166c0.713,0.019,1.06-0.549,1.031-1.108    c0.424,0.492,1.349,0.521,1.523-0.289c1.86-8.79,3.296-17.629,3.316-26.641C95,49.558,93.911,49.374,93.458,50.011z     M49.786,40.468c-0.222-0.01-0.434,0.048-0.598,0.212c-0.068-0.154-0.241-0.251-0.443-0.145c-2.323,1.224-7.72,5.292-5.079,0    c0.79-1.6,1.995-2.949,2.593-4.627c0.067-0.212-0.019-0.443-0.164-0.588c-1.32-1.446-3.229-2.622-5.099-3.711    c2.072,0.337,4.328,0.578,5.243-0.106c0.405-0.318,0.405-0.636,0.607-1.031c0.983-1.899,1.205-4.328,1.937-6.506    c0.993,2.439,2.352,6.246,4.01,7.065c0.434,0.212,0.935-0.058,1.378,0.019c1.465,0.241,3.296-0.222,5.07-0.463    c-2.381,1.571-4.964,3.171-6.622,5.33c-0.154,0.202-0.096,0.492,0,0.704c0.877,1.879,2.477,3.605,3.971,5.253    c-2.053-0.53-4.116-1.051-6.178-1.561C50.142,40.247,49.94,40.324,49.786,40.468z"/><path d="M87.52,61.461c-0.318-0.039-0.395,0.501-0.077,0.559c1.465,0.241,3.335-0.482,3.817-1.995    c0.145-0.443-0.492-0.675-0.723-0.308c-0.357,0.549-0.636,1.022-1.214,1.359C88.773,61.403,88.157,61.519,87.52,61.461z"/><path d="M88.831,57.307c-0.646,0.81-1.118,1.571-2.072,2.072c-0.983,0.52-1.995,0.598-3.084,0.492    c-0.308-0.029-0.337,0.424-0.077,0.511c2.092,0.665,5.205-0.472,5.937-2.66C89.67,57.336,89.101,56.979,88.831,57.307z"/><path d="M79.096,72.141c-0.241,0.029-0.241,0.453,0,0.482c1.793,0.26,3.72,0.26,5.523,0.251c0.636-0.01,0.636-0.974,0-0.983    C82.817,71.88,80.889,71.89,79.096,72.141z"/><path d="M77.236,74.29c2.053,0.212,4.183,0.135,6.227-0.193c0.569-0.087,0.318-0.945-0.241-0.858    c-2.005,0.289-3.961,0.434-5.986,0.453C76.841,73.692,76.86,74.252,77.236,74.29z"/><path d="M29.121,59.784c1.976,1.59,4.463,2.535,6.988,2.728c0.578,0.039,0.569-0.839,0-0.887c-2.458-0.241-4.53-1.012-6.622-2.313    C29.198,59.129,28.851,59.562,29.121,59.784z"/><path d="M35.145,58.84c-3.441,0.039-6.458-1.06-8.79-3.672c-0.164-0.183-0.414,0.077-0.27,0.26    c2.178,2.699,5.552,4.443,9.06,4.251C35.675,59.649,35.684,58.84,35.145,58.84z"/></g></g></svg>