<svg fill="#000000" xmlns="http://www.w3.org/2000/svg" xmlns:xlink="http://www.w3.org/1999/xlink" version="1.1" x="0px" y="0px" viewBox="0 0 100 100" enable-background="new 0 0 100 100" xml:space="preserve"><g><path fill="#000000" d="M83.124,61.194c-3.142-4.2-3.365-14.943-3.367-15.052c-0.001-0.038-0.004-0.076-0.009-0.113   c-1.366-10.342-5.263-18.008-11.581-22.785c-7.168-5.418-15.247-5.465-18.165-5.273c-2.917-0.192-10.996-0.148-18.166,5.273   c-6.318,4.776-10.215,12.442-11.582,22.785c-0.005,0.038-0.008,0.076-0.009,0.114c-0.002,0.108-0.225,10.851-3.367,15.051   c-3.119,4.168-3.782,8.807-1.819,12.726c1.938,3.871,6.035,6.275,10.692,6.275c0.398,0,0.759-0.236,0.917-0.602   c0.159-0.366,0.085-0.791-0.187-1.082c-0.029-0.03-2.307-2.51-1.97-5.28c1.365,2.791,4.388,6.964,10.24,6.964   c0.426,0,0.804-0.27,0.943-0.671c0.141-0.401,0.011-0.848-0.322-1.112c-0.041-0.033-4.112-3.304-4.359-6.65   c-0.044-0.592,0.044-1.145,0.253-1.67c3.813,7.445,10.676,13.363,18.714,13.363c8.22,0,14.841-5.548,18.583-12.743   c0.247,0.563,0.354,1.147,0.294,1.768c-0.302,3.073-4.151,5.875-4.19,5.903c-0.353,0.254-0.502,0.706-0.368,1.119   c0.133,0.413,0.517,0.693,0.951,0.693c6.07,0,9-4.079,10.297-6.881c0.619,3.009-1.389,5.063-1.491,5.166   c-0.271,0.266-0.369,0.66-0.253,1.021c0.116,0.36,0.426,0.624,0.801,0.682c0.495,0.076,0.987,0.113,1.474,0.113   c3.383,0,6.501-1.798,8.37-4.913C86.446,72.05,87.148,66.572,83.124,61.194z M49.98,81.455c-7.698,0-14.211-6.065-17.544-13.455   c-0.004-0.251-0.104-0.496-0.295-0.687c-1.34-3.191-2.093-6.596-2.093-9.847v-0.774c4.128-0.844,5.54-6.955,6.796-12.392   c0.844-3.65,1.716-7.423,3.192-8.695c1.086-0.935,2.146-1.356,3.149-1.24c1.527,0.171,2.535,1.512,2.542,1.521   c0.188,0.259,0.487,0.413,0.808,0.414c0.001,0,0.002,0,0.003,0c0.318,0,0.618-0.152,0.807-0.409   c0.015-0.02,1.592-2.062,3.425-1.847c1.628,0.188,3.245,2.064,4.677,5.425c1.426,3.348,2.843,6.324,4.329,8.837h-4.61   c-0.553,0-1,0.448-1,1s0.447,1,1,1h5.873c2.567,3.75,5.396,6.079,8.873,6.435v0.725c0,3.589-0.821,7.307-2.313,10.715   c-0.058,0.088-0.1,0.179-0.127,0.278C64.21,75.693,57.909,81.455,49.98,81.455z M82.731,74.354   c-1.385,2.31-3.613,3.717-6.064,3.917c1.068-1.949,1.688-4.969-0.34-8.261c-0.215-0.35-0.622-0.531-1.025-0.459   c-0.404,0.071-0.724,0.383-0.807,0.784c-0.056,0.271-1.234,5.713-6.17,7.379c1.161-1.312,2.328-3.08,2.521-5.034   c0.148-1.493-0.276-2.882-1.261-4.137c0.572-1.355,1.057-2.748,1.423-4.164c2.979-0.383,5.294-3.086,5.294-6.354v-2.018   c0-0.533-0.418-0.973-0.95-0.999l-4.341-0.213c-0.033-0.003-0.066-0.005-0.1-0.005c-4.868,0-8.688-4.515-13.625-16.105   c-1.754-4.118-3.869-6.348-6.286-6.627c-1.985-0.23-3.578,0.918-4.478,1.776c-0.67-0.593-1.726-1.293-3.088-1.453   c-1.587-0.188-3.17,0.389-4.703,1.708c-1.974,1.699-2.878,5.615-3.836,9.761c-1.186,5.128-2.528,10.94-5.848,10.94   c-0.008,0-0.014,0.004-0.021,0.004c-0.008,0.001-0.014-0.003-0.021-0.003l-5.02,0.217c-0.535,0.023-0.957,0.464-0.957,0.999v2.02   c0,3.526,2.697,6.395,6.014,6.398c0.326,1.168,0.729,2.325,1.201,3.46c-0.922,1.202-1.334,2.554-1.225,4.029   c0.167,2.233,1.533,4.317,2.812,5.808c-4.815-1.662-6.265-7.157-6.334-7.431c-0.096-0.379-0.403-0.668-0.787-0.739   c-0.376-0.067-0.773,0.086-0.999,0.405c-1.996,2.822-1.235,5.909-0.041,8.043c-3.002-0.571-5.519-2.37-6.823-4.977   c-1.611-3.217-1.016-7.093,1.633-10.633c3.436-4.592,3.743-15.17,3.765-16.156c1.299-9.751,4.925-16.945,10.776-21.38   c5.711-4.327,12.202-4.936,15.548-4.919c0.181,0.096,0.921,0.08,1.419,0.046c0.517,0.034,1.281,0.05,1.464-0.05   c3.341-0.019,9.798,0.589,15.51,4.908c5.864,4.434,9.497,11.632,10.797,21.396c0.021,0.986,0.33,11.564,3.765,16.156   C84.954,66.978,84.396,71.578,82.731,74.354z M71.479,62.227c0.285-1.588,0.433-3.186,0.433-4.76v-0.625l2.391,0.118v1.065   C74.303,59.996,73.113,61.668,71.479,62.227z M28.555,62.371c-1.981-0.27-3.525-2.104-3.525-4.344v-1.062l3.02-0.131v0.632   C28.049,59.079,28.227,60.727,28.555,62.371z"/><path fill="#000000" d="M45.034,57.37c-0.58-1.171-2.1-2.431-4.458-2.138c-2.355,0.295-3.721,1.908-3.809,3.277   c-0.027,0.414,0.286,0.771,0.699,0.797c0.017,0.001,0.033,0.002,0.05,0.002c0.392,0,0.722-0.305,0.747-0.701   c0.022-0.342,0.237-0.717,0.593-1.046c-0.168,0.347-0.271,0.729-0.271,1.14c0,1.451,1.174,2.623,2.622,2.623   s2.623-1.172,2.623-2.623c0-0.195-0.024-0.385-0.065-0.568c0.21,0.291,0.595,0.407,0.93,0.242   C45.066,58.191,45.218,57.741,45.034,57.37z"/><path fill="#000000" d="M58.991,61.035c1.447,0,2.622-1.172,2.622-2.621c0-0.41-0.103-0.794-0.271-1.14   c0.354,0.328,0.569,0.702,0.591,1.043c0.025,0.397,0.354,0.702,0.747,0.702c0.017,0,0.032,0,0.049-0.002   c0.413-0.026,0.727-0.383,0.7-0.796c-0.087-1.368-1.451-2.981-3.807-3.276c-2.35-0.291-3.879,0.965-4.459,2.136   c-0.184,0.371-0.032,0.821,0.339,1.005c0.336,0.165,0.721,0.049,0.931-0.243c-0.041,0.185-0.066,0.374-0.066,0.571   C56.367,59.863,57.543,61.035,58.991,61.035z"/><path fill="#000000" d="M37.115,50.348h6.723c0.553,0,1-0.448,1-1s-0.447-1-1-1h-6.723c-0.553,0-1,0.448-1,1   S36.563,50.348,37.115,50.348z"/><path fill="#000000" d="M61.974,61.533c-0.187-0.271-0.494-0.432-0.822-0.432s-0.636,0.161-0.822,0.432   c-0.647,0.936-3.877,5.726-3.877,8.094c0,2.724,2.108,4.939,4.699,4.939s4.698-2.216,4.698-4.939   C65.85,67.259,62.621,62.469,61.974,61.533z M61.151,72.566c-1.488,0-2.699-1.318-2.699-2.939c0-1.056,1.392-3.646,2.699-5.711   c1.308,2.063,2.698,4.654,2.698,5.711C63.85,71.248,62.64,72.566,61.151,72.566z"/><path fill="#000000" d="M38.951,61.102c-0.328,0-0.636,0.161-0.822,0.432c-0.647,0.936-3.877,5.726-3.877,8.094   c0,2.724,2.108,4.939,4.699,4.939s4.698-2.216,4.698-4.939c0-2.368-3.229-7.158-3.876-8.094   C39.587,61.263,39.279,61.102,38.951,61.102z M38.951,72.566c-1.488,0-2.699-1.318-2.699-2.939c0-1.056,1.392-3.646,2.699-5.711   c1.308,2.063,2.698,4.654,2.698,5.711C41.649,71.248,40.439,72.566,38.951,72.566z"/><path fill="#000000" d="M50.227,66.834c-2.829,0-5.131,1.965-5.131,4.379c0,0.553,0.447,1,1,1s1-0.447,1-1   c0-1.312,1.404-2.379,3.131-2.379c1.726,0,3.13,1.067,3.13,2.379c0,0.553,0.447,1,1,1s1-0.447,1-1   C55.356,68.799,53.056,66.834,50.227,66.834z"/></g></svg>