<svg fill="#000000" xmlns:dc="http://purl.org/dc/elements/1.1/" xmlns:cc="http://creativecommons.org/ns#" xmlns:rdf="http://www.w3.org/1999/02/22-rdf-syntax-ns#" xmlns:svg="http://www.w3.org/2000/svg" xmlns="http://www.w3.org/2000/svg" xmlns:sodipodi="http://sodipodi.sourceforge.net/DTD/sodipodi-0.dtd" xmlns:inkscape="http://www.inkscape.org/namespaces/inkscape" version="1.1" x="0px" y="0px" viewBox="0 0 100 100"><g transform="translate(0,-952.36218)"><path d="m 50,957.36215 c -9.3652,0 -17,7.63485 -17,17 0,9.36516 7.6348,16.99996 17,16.99996 9.3652,0 17,-7.6348 17,-16.99996 0,-9.36515 -7.6348,-17 -17,-17 z m 0,4 c 7.2034,0 13,5.79661 13,13 0,7.20339 -5.7966,12.99996 -13,12.99996 -7.2034,0 -13,-5.79657 -13,-12.99996 0,-7.20339 5.7966,-13 13,-13 z m 0,33.99996 c -8.67768,0 -16.53465,2.3443 -22.34375,6.24999 C 21.84715,1005.5179 18,1011.1219 18,1017.3622 l 0,28 c 10e-5,1.0471 0.95283,1.9999 2,2 l 60,0 c 1.0472,-10e-5 1.9999,-0.9529 2,-2 l 0,-28 c 0,-6.2403 -3.8471,-11.8443 -9.6562,-15.7501 C 66.5347,997.70641 58.6777,995.36211 50,995.36211 z m 0,4 c 0.919,0 1.8231,0.036 2.7187,0.094 l -1.3125,5.90639 -2.8125,0 -1.3125,-5.90629 c 0.8957,-0.058 1.7998,-0.094 2.7188,-0.094 z m -6.6875,0.5625 1.6875,7.50009 -2.96875,21.6562 c -0.0851,0.6085 0.12927,1.2518 0.5625,1.6875 l 5.99995,6 c 0.7394,0.731 2.0732,0.731 2.8125,0 l 6,-6 c 0.4333,-0.4357 0.6477,-1.079 0.5625,-1.6875 L 55,1007.4247 l 1.6875,-7.50009 c 5.222,0.84959 9.8681,2.63139 13.4375,5.03129 5.0359,3.3859 7.875,7.8127 7.875,12.4063 l 0,26 -56,0 0,-26 c 0,-4.5936 2.8391,-9.0204 7.875,-12.4063 3.56941,-2.3999 8.2155,-4.1817 13.4375,-5.03129 z m 5.4062,9.43759 2.5625,0 2.625,19.25 -3.9062,3.9062 -3.9063,-3.9062 z" style="text-indent:0;text-transform:none;direction:ltr;block-progression:tb;baseline-shift:baseline;color:#000000;enable-background:accumulate;" fill="#000000" fill-opacity="1" stroke="none" marker="none" visibility="visible" display="inline" overflow="visible"/></g></svg>