<svg fill="#000000" xmlns="http://www.w3.org/2000/svg" xmlns:xlink="http://www.w3.org/1999/xlink" version="1.1" x="0px" y="0px" viewBox="0 0 247.525 297.781" style="enable-background:new 0 0 247.525 297.781;" xml:space="preserve"><g><path d="M202.034,46.992c0.731-1.937-0.249-4.103-2.186-4.835c-1.937-0.729-4.099,0.249-4.831,2.185   c-2.283,6.183-8.295,11.139-13.979,14.361c-2.823,1.615-5.514,2.809-7.473,3.586c-0.981,0.389-1.781,0.675-2.321,0.859   c-0.271,0.092-0.479,0.159-0.615,0.201c-0.132,0.041-0.173,0.053-0.173,0.053c-0.436,0.13-0.82,0.342-1.164,0.598   c-0.308,0.068-0.615,0.137-0.922,0.205c1.645,8.257-0.953,27.301-1.679,22.462c-0.517-3.441-4.466-11.618-6.879-16.383   c-0.812,0.184-1.653,0.289-2.52,0.289c-2.119,0-4.099-0.59-5.803-1.599c-2.664,1.519-8.662,4.232-17.525,4.229   c-2.834,0-5.971-0.275-9.402-0.961c-2.012-0.402-3.967,0.902-4.367,2.912c-0.402,2.01,0.902,3.967,2.912,4.367   c3.91,0.781,7.541,1.107,10.857,1.107c8.935-0.005,15.51-2.341,19.44-4.278c3.265,5.691,4.796,10.777,2.437,19.326l-19.979,6.894   c-1.996,0.689-3.457,2.404-3.82,4.482c-0.365,2.078,0.426,4.188,2.068,5.514l16.086,12.992c0.73,0.591,1.564,0.959,2.425,1.144   c-1.293,5.736-2.207,12.175-2.372,19.232c-0.076,3.203,2.461,5.859,5.664,5.934c0.045,0.002,0.092,0.002,0.137,0.002   c3.141,0,5.725-2.51,5.797-5.666c0.305-13.172,3.561-23.95,6.725-31.403c1.58-3.723,3.135-6.611,4.271-8.529   c0.567-0.961,1.029-1.68,1.338-2.139c0.154-0.23,0.268-0.396,0.338-0.496c0.035-0.051,0.059-0.084,0.07-0.1   c0.345-0.466,0.606-0.968,0.794-1.487c0.355-0.502,0.638-1.087,0.796-1.749c2.969-12.375,4.982-19.853,2.65-32.094   c1.774-0.788,3.803-1.778,5.934-2.995C191.16,61.518,198.648,55.809,202.034,46.992z M149.545,110.122l9.968-3.441   c-0.53,1.113-1.073,2.303-1.618,3.587c-0.657,1.55-1.317,3.226-1.959,5.015L149.545,110.122z"/><path d="M105.708,193.999c-0.047,1.1-0.104,2.215-0.161,3.334h141.978v-3.334H105.708z"/><path d="M105.832,190.726h136.193v-33.121H104.897c0.733,6.877,1.11,14.43,1.122,22.719   C106.018,183.654,105.952,187.138,105.832,190.726z"/><path d="M100.02,180.333c-0.043-30.184-4.863-46.887-11.436-56.932c-3.285-4.986-7.129-8.184-10.678-9.955   c-3.445-1.738-6.471-2.121-8.268-2.135c-0.103-0.004-0.205-0.016-0.309-0.016h-9.012c-1.404,11.272-6.6,50.872-10.305,50.872   c-3.707,0-8.901-39.6-10.305-50.872h-9.014c-0.125,0-0.248,0.012-0.373,0.018c-1.803,0.023-4.799,0.412-8.207,2.133   c-5.381,2.666-11.18,8.502-15.238,18.84C2.771,142.665,0.014,157.671,0,180.33c0,5.857,0.189,12.229,0.598,19.162   c0.25,4.248,3.773,7.531,7.976,7.531c0.158,0,0.318-0.006,0.479-0.014c4.41-0.258,7.777-4.045,7.518-8.455   c-0.391-6.652-0.57-12.711-0.568-18.225c-0.037-24.223,3.496-37.826,6.965-44.924v33.072v18.939v98   c0,6.83,5.537,12.363,12.363,12.363c6.828,0,12.365-5.533,12.365-12.363v-90.271h4.635v90.271c0,6.83,5.537,12.363,12.363,12.363   c6.828,0,12.365-5.533,12.365-12.363v-98v-18.939v-33.02c0.592,1.215,1.189,2.609,1.779,4.234   c2.818,7.813,5.189,20.633,5.18,40.641c0.002,5.514-0.178,11.572-0.563,18.225c-0.258,4.412,3.109,8.195,7.521,8.453   c0.158,0.01,0.314,0.014,0.471,0.014c4.207,0,7.734-3.283,7.982-7.539C99.83,192.554,100.018,186.191,100.02,180.333z"/><path d="M53.671,105.296c10.686-1.748,18.841-11.019,18.841-22.199c0-12.426-10.072-22.5-22.5-22.5   c-12.426,0-22.5,10.074-22.5,22.5c0,11.181,8.156,20.451,18.841,22.199c1.191,0.195,2.413,0.301,3.659,0.301   C51.259,105.597,52.479,105.491,53.671,105.296z"/><circle cx="157.292" cy="59.131" r="10.44"/><polygon points="151.941,0 83.525,104.499 88.191,105.667 153.525,0.333  "/><polygon points="223.191,5.667 221.857,5.667 189.527,153.001 194.859,153.001  "/></g></svg>