<svg fill="#000000" xmlns="http://www.w3.org/2000/svg" xmlns:xlink="http://www.w3.org/1999/xlink" version="1.1" x="0px" y="0px" viewBox="0 0 30 30" xml:space="preserve"><g transform="translate(-90 -80)"><g xmlns="http://www.w3.org/2000/svg" xmlns:xlink="http://www.w3.org/1999/xlink"><path d="M118.35,106l-5.85-9l-2.892,4.449L102,89l-10.389,17H90v1h30v-1H118.35z M107.843,106h-15.06l1.222-2H98v-1h-3.383    l1.833-3H99v-1h-1.939l2.444-4H102v-1h-1.883L102,90.918L105.105,96H103v1h2.717l5.5,9H107.843z M112.389,106l-2.203-3.605    l2.314-3.56l4.657,7.165H112.389z"/><path d="M115,88c1.657,0,3-1.343,3-3s-1.343-3-3-3s-3,1.343-3,3S113.343,88,115,88z M115,83c1.104,0,2,0.896,2,2s-0.896,2-2,2    s-2-0.896-2-2S113.896,83,115,83z"/><rect x="100" y="99" width="2" height="1"/><rect x="103" y="103" width="3" height="1"/></g></g></svg>