<svg fill="#000000" xmlns="http://www.w3.org/2000/svg" xmlns:xlink="http://www.w3.org/1999/xlink" version="1.1" x="0px" y="0px" viewBox="0 0 30 30" xml:space="preserve"><g transform="translate(-390 -80)"><g xmlns="http://www.w3.org/2000/svg" xmlns:xlink="http://www.w3.org/1999/xlink"><path d="M403.939,89c-0.278-1.142-1.488-2-2.939-2c-1.61,0-2.914,1.059-2.986,2.387C398.912,89.143,399.901,89,401,89H403.939z"/><path d="M411.986,89.387C411.914,88.059,410.61,87,409,87c-1.451,0-2.662,0.858-2.94,2H409    C410.099,89,411.088,89.143,411.986,89.387z"/><path d="M396.5,103.109c-0.554-0.059-1.084-0.287-1.493-0.605c-0.091-0.07-0.182-0.139-0.258-0.217    c-0.214-0.211-0.376-0.443-0.509-0.689c-0.18-0.334-0.298-0.699-0.349-1.098c-0.071-0.686,0.081-1.418,0.487-2.121    c-0.71,0.404-1.202,1.234-1.268,2.121c-0.041,0.383,0.021,0.779,0.141,1.158c0.113,0.361,0.287,0.693,0.51,0.987    c0.08,0.106,0.154,0.22,0.246,0.312c0.686,0.682,1.594,1.008,2.492,0.93c0.886-0.064,1.716-0.557,2.121-1.266    C397.918,103.029,397.186,103.182,396.5,103.109z"/><path d="M418.989,100.289c0.001-0.021,0.011-0.037,0.011-0.059c0-0.947-1.076-8.139-7.199-9.857C410.964,90.139,410.037,90,409,90    h-2.94h-2.121H401c-1.037,0-1.964,0.139-2.801,0.373c-6.123,1.719-7.199,8.91-7.199,9.857c0,0.021,0.01,0.037,0.011,0.059    c-0.003,0.07-0.011,0.139-0.011,0.211c0,0.633,0.112,1.237,0.309,1.803c0.748,2.15,2.787,3.697,5.191,3.697    c2.403,0,4.441-1.545,5.189-3.693c0.112-0.32,0.194-0.654,0.245-1h6.132c0.051,0.346,0.133,0.68,0.244,1    c0.749,2.148,2.787,3.693,5.19,3.693c2.406,0,4.448-1.551,5.193-3.703c0.195-0.564,0.307-1.168,0.307-1.797    C419,100.428,418.992,100.359,418.989,100.289z M400.609,102.307c-0.219,0.498-0.52,0.968-0.928,1.375    c-1.755,1.754-4.609,1.754-6.363,0c-0.317-0.317-0.557-0.678-0.759-1.053c-0.19-0.352-0.335-0.718-0.425-1.098    c-0.344-1.467,0.042-3.072,1.184-4.213c1.754-1.754,4.609-1.754,6.364,0c1.083,1.083,1.492,2.585,1.238,3.988    C400.858,101.65,400.751,101.984,400.609,102.307z M405,100c-1.104,0-2-0.896-2-2s0.896-2,2-2c1.103,0,2,0.896,2,2    S406.103,100,405,100z M416.682,103.682c-1.754,1.755-4.609,1.754-6.363,0c-0.407-0.406-0.709-0.877-0.928-1.375    c-0.142-0.322-0.249-0.656-0.311-1c-0.255-1.404,0.155-2.906,1.238-3.988c1.754-1.754,4.607-1.754,6.363,0    c1.141,1.142,1.527,2.746,1.184,4.213c-0.09,0.381-0.236,0.748-0.427,1.1C417.236,103.006,416.998,103.365,416.682,103.682z"/><path d="M415.621,98.379c0.651,1.1,0.633,2.305,0.139,3.219c-0.133,0.246-0.293,0.475-0.492,0.67    c-0.086,0.088-0.182,0.162-0.277,0.236c-0.94,0.731-2.345,0.865-3.611,0.117c0.405,0.71,1.233,1.201,2.121,1.268    c0.888,0.086,1.827-0.27,2.475-0.914c0.099-0.1,0.177-0.217,0.262-0.33c0.227-0.299,0.4-0.631,0.511-0.986    c0.117-0.377,0.177-0.771,0.14-1.158C416.821,99.613,416.329,98.785,415.621,98.379z"/><circle cx="405" cy="98" r="1"/></g></g></svg>