<svg fill="#000000" xmlns="http://www.w3.org/2000/svg" xmlns:xlink="http://www.w3.org/1999/xlink" version="1.1" x="0px" y="0px" viewBox="0 0 100 100" style="enable-background:new 0 0 100 100;" xml:space="preserve"><g><path d="M81.8,91.5L62.2,43.9l-2.8,2.8c-0.3,0.3-8.5,8.3-19-0.2l-2.8-2.3L18.2,91.5c-0.6,1.4,0.1,2.9,1.4,3.5   c1.4,0.6,2.9-0.1,3.5-1.4l16.8-40.8c3.4,2.1,6.6,2.9,9.6,3c-0.7,1.4-1.2,3.2-1.1,5.1c0.1,2.8,1.3,5.3,3.7,7.5c3,2.8,4.7,7.1,4.3,11   c-0.2,2.4-1.3,5.9-5.4,8.5c-1.2,0.8-1.6,2.4-0.8,3.7c0.5,0.8,1.4,1.2,2.2,1.2c0.5,0,1-0.1,1.4-0.4c4.6-2.9,7.4-7.3,7.8-12.5   c0.5-5.6-1.8-11.5-6-15.4c-1.3-1.2-1.9-2.4-2-3.7c-0.1-2.6,2-5,2.1-5.1c0.3-0.3,0.5-0.7,0.6-1c1.4-0.5,2.6-1.1,3.7-1.8l16.8,40.7   c0.4,1,1.4,1.6,2.5,1.6c0.3,0,0.7-0.1,1-0.2C81.8,94.4,82.4,92.9,81.8,91.5z"/><path d="M50.2,40.9c-0.4,1.4,0.4,2.9,1.8,3.3c0.2,0.1,0.5,0.1,0.7,0.1c1.2,0,2.2-0.8,2.6-1.9c0-0.2,4.8-16.8,16.7-16.8   c1.5,0,2.7-1.2,2.7-2.7s-1.2-2.7-2.7-2.7C56.2,20.2,50.4,40,50.2,40.9z"/><path d="M29.2,29.8c7.4-1.8,10.8,5.6,11,6c0.4,1,1.4,1.6,2.4,1.6c0.4,0,0.7-0.1,1.1-0.2c1.3-0.6,2-2.2,1.4-3.5   c-1.8-4.1-7.6-11.2-17.1-9c-1.4,0.3-2.3,1.8-2,3.2C26.4,29.3,27.8,30.1,29.2,29.8z"/><path d="M49,26.7c0.2,0,0.3,0,0.5,0c1.3,0,2.4-0.9,2.6-2.2c0-0.1,1.6-8.5,8.5-15.2c1.1-1,1.1-2.7,0.1-3.8c-1-1.1-2.7-1.1-3.8-0.1   c-8.2,7.9-10,17.7-10.1,18.1C46.6,25.1,47.6,26.5,49,26.7z"/></g></svg>