<svg fill="#000000" xmlns="http://www.w3.org/2000/svg" xmlns:xlink="http://www.w3.org/1999/xlink" version="1.1" x="0px" y="0px" viewBox="0 0 50 50" enable-background="new 0 0 50 50" xml:space="preserve"><g><path d="M24.538,28.601l-3.725,0.554l1.893-4.856l4.47-0.667c0.357-0.053,0.607-0.388,0.557-0.75   c-0.051-0.325-0.326-0.562-0.654-0.562l-3.821,0.562l1.218-3.123c0.132-0.339-0.037-0.723-0.376-0.856   c-0.334-0.129-0.724,0.044-0.854,0.376l-1.218,3.124l-2.366-2.932c-0.222-0.272-0.654-0.319-0.929-0.098   c-0.283,0.229-0.327,0.646-0.098,0.928l2.841,3.518l-1.893,4.855l-2.366-2.933c-0.222-0.271-0.656-0.319-0.929-0.098   c-0.281,0.23-0.325,0.646-0.098,0.929l2.841,3.518l-0.451,1.156c-0.132,0.339,0.036,0.722,0.375,0.856   c0.077,0.029,0.156,0.044,0.238,0.044c0.275,0,0.517-0.165,0.616-0.421l0.45-1.156l4.472-0.667   c0.359-0.052,0.608-0.387,0.556-0.748C25.235,28.801,24.879,28.549,24.538,28.601z"/><path d="M38.316,25.57c0.033-0.425,0.053-0.854,0.053-1.289c0-8.842-7.191-16.035-16.035-16.035   c-8.842,0-16.036,7.193-16.036,16.035c0,8.843,7.194,16.037,16.036,16.037c2.381,0,4.64-0.526,6.675-1.461   c1.535,1.771,3.795,2.896,6.318,2.896c4.617,0,8.373-3.756,8.373-8.372C43.701,29.818,41.461,26.776,38.316,25.57z M27.098,31.888   l-6.691,0.998l-0.545,1.394c-0.328,0.845-1.279,1.262-2.123,0.933c-0.844-0.33-1.26-1.278-0.933-2.123l0.544-1.396l-4.688-5.803   c-0.834-1.037-0.672-2.552,0.361-3.388c1.035-0.835,2.553-0.674,3.387,0.36l0.062,0.074l0.124,0.139   c0.219,0.275,0.618,0.322,0.895,0.104c0.274-0.218,0.322-0.617,0.104-0.895L16.44,20.84l-1.218-1.508   c-0.835-1.035-0.673-2.551,0.361-3.387s2.551-0.674,3.387,0.361l1.058,1.309c1.27,1.479,2.23-0.633,2.23-0.633l0.747-1.902   c0.481-1.239,1.879-1.854,3.12-1.369c1.238,0.484,1.852,1.879,1.369,3.119l-0.744,1.902c0,0-0.734,2.242,1.256,1.974l1.627-0.243   c1.314-0.195,2.541,0.711,2.736,2.027s-0.711,2.541-2.027,2.736L29.5,25.354l-2.893,0.448c-0.348,0.054-0.584,0.38-0.531,0.728   c0.055,0.349,0.383,0.584,0.73,0.529l0.061-0.006l0.207-0.031c0.803-0.119,1.561,0.18,2.08,0.725   C28.113,28.886,27.383,30.308,27.098,31.888z M35.328,39.555c-3.404,0-6.174-2.77-6.174-6.173s2.77-6.173,6.174-6.173   s6.174,2.77,6.174,6.173S38.732,39.555,35.328,39.555z"/><path d="M36.051,33.559v-3.582c0-0.414-0.336-0.75-0.75-0.75s-0.75,0.336-0.75,0.75v4.35l2.586,1.859   c0.133,0.096,0.287,0.141,0.438,0.141c0.232,0,0.463-0.108,0.609-0.311c0.242-0.337,0.166-0.805-0.172-1.047L36.051,33.559z"/></g></svg>