<svg xmlns="http://www.w3.org/2000/svg" xmlns:xlink="http://www.w3.org/1999/xlink" version="1.1" id="Your_Icon" x="0px" y="0px" width="100px" height="100px" viewBox="0 0 100 100" enable-background="new 0 0 100 100" xml:space="preserve">
<g>
	<path fill="#000000" d="M0.083,87.26l37.423-37.452c0,0,7.815,5.38,24.988,0L99.916,87.26c0,0,0,12.465-49.916,12.465   C0.083,99.725,0.083,87.26,0.083,87.26z"/>
	<path fill="#000000" d="M39.862,40.361c0-0.04,0-0.078,0.001-0.117c-6.211-0.999-11.279-5.428-13.228-11.269   c-0.712,1.372-0.769,3.057,0.005,4.529c0.322,0.611,0.756,1.124,1.263,1.53c0.005,0.052,0.021,0.102,0.028,0.152   c-0.112,0.046-0.225,0.079-0.335,0.135c-2.262,1.19-3.131,3.989-1.942,6.25c0.697,1.323,1.948,2.151,3.314,2.388   c0.104,0.305,0.226,0.606,0.38,0.899c1.65,3.138,5.53,4.344,8.668,2.693c1.22-0.642,2.144-1.623,2.725-2.764   C40.178,43.422,39.862,41.928,39.862,40.361z"/>
	<path fill="#000000" d="M69.354,25.799c0.162-0.679,0.256-1.387,0.256-2.115c0-3.769-2.283-7.001-5.546-8.39   c1.141-1.562,1.82-3.481,1.82-5.563c0-5.223-4.235-9.457-9.457-9.457c-5.226,0-9.46,4.234-9.46,9.457   c0,0.197,0.019,0.39,0.029,0.584c-1.403-0.468-2.899-0.731-4.46-0.731c-7.787,0-14.1,6.313-14.1,14.1   c0,7.787,6.313,14.099,14.1,14.099c0.13,0,0.255-0.015,0.384-0.018c-0.247,0.821-0.384,1.692-0.384,2.596   c0,4.958,4.02,8.978,8.978,8.978c4.959,0,8.98-4.021,8.98-8.978c0-0.938-0.146-1.843-0.413-2.694   c0.139,0.005,0.272,0.019,0.413,0.019c5.107,0,9.248-4.14,9.248-9.248C69.742,27.521,69.604,26.637,69.354,25.799z"/>
</g>
</svg>
