<svg fill="#000000" xmlns="http://www.w3.org/2000/svg" xmlns:xlink="http://www.w3.org/1999/xlink" version="1.1" x="0px" y="0px" viewBox="0 0 50 50" enable-background="new 0 0 50 50" xml:space="preserve"><g><g><g><defs><rect id="d" x="4.667" y="6" width="37.999" height="38"/></defs><clipPath id="c"><use xlink:href="#d" overflow="visible"/></clipPath><g clip-path="url(#c)"><defs><rect id="b" x="4.667" y="6" width="37.999" height="38"/></defs><clipPath id="a"><use xlink:href="#b" overflow="visible"/></clipPath><path clip-path="url(#a)" fill-rule="evenodd" clip-rule="evenodd" fill="#000000" d="M21.075,9.631      c0.689,0.048,1.284,0.241,1.838,0.579c1.179,0.722,2.365,1.432,3.541,2.158c0.533,0.33,1.08,0.429,1.689,0.252      c0.28-0.082,0.582-0.134,0.872-0.129c0.872,0.014,1.715-0.108,2.549-0.365c0.462-0.143,0.955,0.038,1.423-0.043      c0.597-0.104,1.168-0.031,1.744,0.113c0.227,0.056,0.454,0.124,0.612,0.279c0.451,0.441,0.968,0.807,1.43,1.239      c0.542,0.506,0.912,1.115,1.371,1.668c0.513,0.618,0.779,1.273,0.357,2.062c-0.152,0.283-0.159,0.614-0.163,0.933      c-0.006,0.559-0.15,1.072-0.431,1.556c-0.125,0.215-0.22,0.448-0.326,0.674c-0.166,0.352-0.153,0.662,0.054,1.024      c0.516,0.902,0.995,1.826,1.444,2.764c0.254,0.528,0.261,1.143,0.491,1.688c0.51,1.215-0.248,2.036-0.938,2.847      c-0.854,1.001-1.729,1.987-2.799,2.773c-0.475,0.349-0.685,0.861-0.763,1.397c-0.14,0.95-0.467,1.845-0.725,2.76      c-0.105,0.377-0.276,0.715-0.531,1.017c-0.871,1.031-1.928,1.772-3.233,2.151c-0.348,0.101-0.682,0.248-1.021,0.379      c-0.462,0.18-0.9,0.151-1.27-0.196c-0.377-0.355-0.889-0.445-1.311-0.71c-0.086-0.054-0.225-0.066-0.328-0.046      c-1.223,0.239-2.431,0.463-3.492,1.23c-1.18,0.853-2.516,0.877-3.801,0.237c-0.642-0.318-1.271-0.701-1.818-1.188      c-0.306-0.271-0.637-0.511-0.856-0.868c-0.166-0.269-0.352-0.294-0.682-0.177c-0.651,0.232-1.306,0.45-2.021,0.52      c-0.771,0.074-1.218-0.258-1.602-1.079c-0.21-0.449-0.41-0.922-0.499-1.405c-0.161-0.868-0.829-1.27-1.453-1.702      c-0.406-0.281-0.88-0.467-1.323-0.693c-1.052-0.538-1.554-1.799-1.11-2.893c0.246-0.609,0.543-1.2,0.853-1.78      c0.314-0.587,0.512-1.21,0.663-1.853c0.084-0.36,0.034-0.718-0.047-1.077c-0.27-1.209-0.876-2.285-1.334-3.419      c-0.425-1.051-0.6-2.116-0.513-3.25c0.078-1.021,0.607-1.725,1.38-2.309c1.135-0.859,2.484-1.184,3.823-1.535      c0.263-0.069,0.525-0.139,0.787-0.214c0.389-0.111,0.648-0.349,0.867-0.705c0.532-0.866,1.03-1.759,1.713-2.529      c0.681-0.767,1.466-1.347,2.476-1.592C19.477,9.978,20.272,9.698,21.075,9.631 M21.903,39.085      c0.641-0.24,1.038-0.749,1.333-1.309c0.314-0.598,0.529-1.226,0.419-1.956c-0.088-0.584-0.346-1.069-0.572-1.586      c-0.521-1.187-0.148-2.105,0.839-2.575c0.205-0.098,0.421-0.18,0.609-0.303c0.418-0.271,0.659-0.678,0.797-1.149      c0.113-0.387-0.185-0.562-0.39-0.799c-0.171-0.198-0.214-0.468-0.075-0.699c0.12-0.203,0.358-0.167,0.561-0.146      c0.798,0.084,1.418,1.189,1.066,1.922c-0.427,0.889-1.094,1.546-1.992,1.962c-0.65,0.301-0.765,0.541-0.547,1.233      c0.109,0.347,0.254,0.68,0.489,0.966c0.653,0.798,0.69,1.691,0.416,2.639c-0.054,0.185-0.237,0.343-0.144,0.56      c0.028,0.016,0.049,0.036,0.066,0.034c0.089-0.012,0.181-0.02,0.265-0.047c1.086-0.358,2.188-0.305,3.294-0.135      c0.161,0.024,0.325,0.065,0.433,0.183c0.498,0.544,1.056,0.396,1.624,0.159c0.209-0.088,0.407-0.218,0.624-0.269      c0.65-0.151,1.051-0.612,1.404-1.117c0.313-0.445,0.563-0.93,0.719-1.46c0.217-0.742,0.509-1.455,0.832-2.158      c0.102-0.222,0.411-0.535,0.093-0.706c-0.253-0.135-0.419,0.251-0.571,0.46c-0.103,0.14-0.081,0.373-0.29,0.435      c-0.466,0.138-0.835,0.453-1.26,0.665c-0.889,0.442-1.774,0.348-2.61-0.095c-0.787-0.417-0.968-1.082-0.606-1.912      c0.081-0.186,0.19-0.361,0.298-0.534c0.24-0.389,0.421-0.804,0.583-1.229c0.109-0.285,0.122-0.57,0.038-0.866      c-0.186-0.646-0.375-0.739-0.976-0.459c-0.164,0.077-0.325,0.161-0.491,0.233c-0.361,0.155-0.665,0.073-0.906-0.235      c-0.112-0.143-0.232-0.281-0.326-0.435c-0.231-0.38-0.351-0.823-0.799-1.065c-0.232-0.125-0.118-0.43,0.157-0.493      c0.33-0.077,0.75,0.119,0.977,0.484c0.119,0.191,0.186,0.415,0.3,0.609c0.208,0.357,0.344,0.413,0.718,0.227      c0.38-0.189,0.766-0.269,1.184-0.236c0.244,0.02,0.446,0.114,0.56,0.332c0.403,0.771,0.622,1.558,0.211,2.406      c-0.207,0.427-0.389,0.864-0.626,1.28c-0.293,0.514-0.098,0.894,0.468,0.881c1.253-0.027,2.439-0.282,3.268-1.353      c0.273-0.354,0.635-0.602,1.051-0.477c0.505,0.151,0.832-0.046,1.153-0.349c0.807-0.762,1.618-1.521,2.404-2.304      c0.236-0.237,0.396-0.552,0.589-0.832c0.124-0.179,0.173-0.378,0.091-0.581c-0.396-0.972-0.522-2.021-0.898-2.998      c-0.057-0.146-0.098-0.319-0.201-0.426c-0.39-0.396-0.686-0.844-0.879-1.361c-0.051-0.137-0.139-0.257-0.286-0.257      c-0.468-0.003-0.602-0.359-0.737-0.692c-0.162-0.397-0.413-0.761-0.472-1.199c-0.028-0.211-0.167-0.295-0.364-0.345      c-0.591-0.151-1.053,0.065-1.335,0.637c-0.11,0.223-0.215,0.454-0.362,0.651c-0.419,0.562-1.033,0.662-1.615,0.271      c-0.3-0.2-0.561-0.464-0.962-0.46c-0.141,0.001-0.268-0.075-0.279-0.24c-0.011-0.152,0.083-0.255,0.206-0.326      c0.32-0.188,0.646-0.219,0.961,0.001c0.167,0.116,0.307,0.271,0.475,0.387c0.269,0.185,0.451,0.146,0.627-0.127      c0.072-0.112,0.115-0.245,0.167-0.371c0.323-0.784,0.964-1.128,1.755-1.193c0.377-0.032,0.771,0.042,1.146,0.117      c0.208,0.042,0.373,0.082,0.573-0.045c0.213-0.135,0.464-0.123,0.559,0.158c0.084,0.249-0.086,0.379-0.319,0.417      c-0.198,0.031-0.351,0.1-0.354,0.333c-0.003,0.312,0.15,0.565,0.324,0.805c0.061,0.084,0.173,0.081,0.233-0.004      c0.077-0.109,0.149-0.23,0.186-0.357c0.266-0.938,0.567-1.871,0.765-2.824c0.164-0.79,0.037-1.539-0.742-2.027      c-0.208-0.131-0.39-0.315-0.555-0.5c-0.602-0.671-1.327-1.136-2.144-1.522c-0.815-0.387-1.593-0.394-2.443-0.221      c-1.353,0.275-2.708,0.552-4.094,0.609c-0.194,0.008-0.413-0.04-0.55,0.244c0.612,0.341,0.926,0.883,1.058,1.562      c0.231,1.191-0.341,2.543-1.988,2.058c-0.687-0.202-1.366-0.434-2.092-0.529c-0.536-0.07-0.987,0.045-1.44,0.253      c-0.552,0.254-0.688,0.604-0.512,1.205c0.194,0.658,0.092,0.886-0.429,1.357c-0.354,0.32-0.739,0.436-1.184,0.384      c-0.53-0.062-0.862,0.187-1.091,0.63c-0.052,0.101-0.126,0.196-0.149,0.304c-0.086,0.382-0.378,0.548-0.692,0.69      c-0.365,0.166-0.584,0.067-0.635-0.311c-0.062-0.467,0.012-0.909,0.371-1.257c0.382-0.368,0.809-0.664,1.344-0.758      c0.357-0.062,0.718-0.104,1.077-0.16c0.524-0.081,0.616-0.231,0.448-0.722c-0.275-0.804-0.062-1.395,0.636-1.869      c1.043-0.71,2.148-0.716,3.31-0.366c0.517,0.156,1.017,0.408,1.581,0.359c0.472-0.041,0.597-0.161,0.608-0.638      c0.014-0.622-0.149-1.162-0.742-1.495c-0.469-0.263-0.842-0.611-0.964-1.171c-0.038-0.176-0.121-0.346-0.291-0.445      c-0.57-0.332-1.101-0.72-1.606-1.143c-0.241-0.201-0.491-0.208-0.748-0.025c-0.19,0.136-0.401,0.188-0.638,0.202      c-0.647,0.038-0.874,0.262-0.771,0.899c0.085,0.524-0.1,0.883-0.461,1.197c-0.358,0.312-0.709,0.648-1.2,0.741      c-0.158,0.03-0.328-0.001-0.409-0.171c-0.098-0.208,0.026-0.347,0.184-0.456c0.241-0.168,0.49-0.325,0.732-0.492      c0.244-0.168,0.365-0.376,0.294-0.695c-0.154-0.686,0.168-1.183,0.681-1.592c0.102-0.081,0.269-0.131,0.25-0.291      c-0.021-0.187-0.208-0.221-0.349-0.283c-0.173-0.077-0.354-0.057-0.536-0.024c-0.29,0.054-0.582,0.095-0.872,0.148      c-1.453,0.266-2.682,0.875-3.581,2.119c-0.444,0.614-0.592,1.299-0.772,1.988c-0.057,0.217,0.021,0.449,0.12,0.659      c0.194,0.408,0.293,0.457,0.729,0.303c0.516-0.184,1.03-0.353,1.592-0.291c0.333,0.037,0.645,0.127,0.78,0.455      c0.146,0.353,0.094,0.721-0.103,1.047c-0.154,0.255-0.438,0.259-0.616,0.018c-0.065-0.088-0.096-0.203-0.132-0.309      c-0.116-0.334-0.357-0.39-0.653-0.281c-0.212,0.078-0.416,0.18-0.617,0.285c-0.762,0.4-1.395,0.11-1.991-0.368      c-0.124-0.1-0.264-0.197-0.345-0.328c-0.311-0.499-0.705-0.434-1.165-0.241c-0.69,0.288-1.379,0.604-2.099,0.79      c-0.995,0.255-1.585,0.814-1.734,1.831c-0.043,0.293-0.121,0.616,0.156,0.821c0.261,0.191,0.566,0.089,0.848-0.012      c0.064-0.023,0.128-0.051,0.185-0.089c0.754-0.501,1.566-0.393,2.368-0.191c0.706,0.178,1.008,0.872,0.736,1.558      c-0.208,0.524-0.561,0.916-1.014,1.25c-0.419,0.309-0.48,0.581-0.329,1.004c0.143,0.396,0.2,0.428,0.83,0.422      c0.119-0.001,0.237,0.007,0.306,0.108c0.092,0.134,0.017,0.259-0.062,0.373c-0.379,0.552-1.073,0.598-1.504,0.06      c-0.588-0.734-0.775-1.803,0.276-2.555c0.28-0.2,0.56-0.39,0.701-0.719c0.13-0.304,0.045-0.629-0.255-0.743      c-0.47-0.179-0.974-0.315-1.449-0.048c-0.577,0.322-1.184,0.458-1.832,0.405c-0.302-0.023-0.412,0.088-0.41,0.379      c0.003,0.461,0.087,0.898,0.265,1.325c0.438,1.046,0.921,2.072,1.268,3.157c0.243,0.762,0.28,1.512,0.099,2.279      c-0.179,0.753-0.414,1.485-0.775,2.175c-0.222,0.421-0.444,0.844-0.578,1.305c-0.059,0.197-0.116,0.398,0.021,0.588      c0.334,0.457,0.622,0.978,1.146,1.234c0.518,0.253,0.93,0.642,1.402,0.942c0.805,0.511,1.213,1.251,1.495,2.108      c0.078,0.236,0.172,0.47,0.279,0.693c0.235,0.492,0.438,0.603,0.977,0.484c0.467-0.102,0.896-0.318,1.323-0.529      c0.113-0.056,0.196-0.182,0.284-0.283c0.784-0.912,0.67-2.023,0.683-3.105c0.001-0.125-0.087-0.206-0.176-0.278      c-0.161-0.134-0.229-0.298-0.091-0.472c0.16-0.2,0.379-0.247,0.609-0.118c0.815,0.456,1.355,1.284,0.945,2.196      c-0.177,0.394-0.337,0.791-0.552,1.167c-0.436,0.762-0.377,1.216,0.238,1.828c0.469,0.466,1.014,0.831,1.563,1.197      c0.547,0.365,1.114,0.552,1.814,0.496c-0.234-0.486-0.281-0.953-0.181-1.47c0.124-0.635-0.165-0.858-0.826-0.726      c-0.248,0.05-0.495,0.072-0.744,0.049c-0.469-0.044-0.58-0.221-0.436-0.685c0.095-0.304,0.203-0.602,0.303-0.903      c0.058-0.175,0.136-0.337,0.28-0.458c0.111-0.095,0.236-0.14,0.373-0.062c0.138,0.078,0.175,0.209,0.13,0.351      c-0.076,0.238-0.172,0.47-0.248,0.707c-0.067,0.208,0.032,0.312,0.236,0.288c0.179-0.021,0.353-0.084,0.53-0.119      c0.203-0.04,0.405-0.057,0.582,0.093c0.402,0.339,0.689,0.748,0.606,1.295c-0.065,0.429-0.2,0.835,0.257,1.147      C21.983,38.786,21.787,38.971,21.903,39.085"/><path clip-path="url(#a)" fill-rule="evenodd" clip-rule="evenodd" fill="#000000" d="M17.714,28.027      c0.475,0.047,0.857,0.107,1.241,0.117c0.677,0.02,0.83-0.158,0.975-0.828c0.164-0.763,0.093-1.434-0.505-1.998      c-0.161-0.152-0.27-0.36-0.405-0.541c-0.551-0.734-0.462-1.172,0.219-1.565c0.314-0.182,0.617-0.38,0.975-0.47      c0.208-0.053,0.406-0.052,0.583,0.084c0.161,0.124,0.361,0.249,0.323,0.481c-0.041,0.259-0.279,0.264-0.482,0.27      c-0.354,0.011-0.775,0.077-0.895,0.375c-0.123,0.309,0.225,0.601,0.441,0.847c0.915,1.04,1.003,2.81,0.124,3.864      c-0.45,0.54-1.131,0.489-1.76,0.46c-0.291-0.014-0.579-0.104-0.876-0.084c-0.552,0.039-0.671,0.133-0.855,0.68      c-0.015,0.043-0.023,0.089-0.04,0.131c-0.205,0.529-0.435,0.725-0.742,0.633c-0.378-0.112-0.711-0.703-0.576-1.112      c0.187-0.564,0.569-0.997,1.14-1.177C16.98,28.073,17.4,28.07,17.714,28.027"/><path clip-path="url(#a)" fill-rule="evenodd" clip-rule="evenodd" fill="#000000" d="M26.754,25.127      c-0.346-0.097-0.669,0.055-1.008,0.068c-0.729,0.031-1.131-0.223-1.293-0.824c-0.061-0.228-0.052-0.451,0.045-0.664      c0.093-0.206,0.196-0.407,0.302-0.606c0.308-0.582,0.284-0.574-0.369-0.769c-0.521-0.155-1.05-0.268-1.575-0.397      c-0.369-0.092-0.43-0.412-0.154-0.653c0.624-0.547,2.146-0.614,2.832-0.126c0.705,0.503,0.846,1.037,0.462,1.817      c-0.13,0.264-0.302,0.506-0.438,0.767c-0.201,0.387-0.091,0.567,0.33,0.524c0.269-0.027,0.531-0.113,0.8-0.15      c0.428-0.059,0.76,0.199,0.82,0.621c0.032,0.221-0.081,0.354-0.285,0.388C27.07,25.147,26.91,25.127,26.754,25.127"/><path clip-path="url(#a)" fill-rule="evenodd" clip-rule="evenodd" fill="#000000" d="M33.889,25.366      c-0.001,0.336-0.099,0.68-0.303,0.99c-0.1,0.152-0.21,0.301-0.231,0.485c-0.028,0.236,0.077,0.347,0.318,0.284      c0.086-0.021,0.174-0.057,0.25-0.103c0.253-0.155,0.524-0.361,0.801-0.111c0.365,0.33,0.766,0.66,0.758,1.229      c-0.002,0.173-0.067,0.315-0.235,0.377c-0.187,0.068-0.304-0.033-0.37-0.198c-0.202-0.494-0.554-0.492-1.002-0.36      c-1.23,0.362-1.443-0.578-1.254-1.383c0.071-0.302,0.261-0.574,0.391-0.863c0.095-0.21,0.177-0.432-0.012-0.633      c-0.174-0.185-0.375-0.091-0.567-0.023c-0.235,0.082-0.465,0.188-0.707,0.239c-0.661,0.142-1.3-0.421-1.251-1.085      c0.013-0.172,0.1-0.299,0.264-0.361c0.144-0.054,0.313-0.022,0.364,0.098c0.311,0.729,0.814,0.421,1.301,0.271      c0.652-0.203,1.147,0.009,1.396,0.581C33.872,24.97,33.881,25.149,33.889,25.366"/><path clip-path="url(#a)" fill-rule="evenodd" clip-rule="evenodd" fill="#000000" d="M15.616,34.153      c-0.006,0.256-0.02,0.46-0.116,0.646c-0.111,0.215-0.268,0.394-0.533,0.295c-0.24-0.09-0.239-0.31-0.178-0.519      c0.091-0.313,0.078-0.604-0.016-0.928c-0.214-0.735-0.744-1.047-1.427-1.183c-0.413-0.082-0.767-0.225-1.031-0.584      c-0.621-0.841-0.359-1.854,0.621-2.202c0.503-0.178,0.899-0.405,1.023-0.968c0.051-0.23,0.104-0.439-0.091-0.63      c-0.164-0.159-0.147-0.326,0.027-0.463c0.161-0.125,0.34-0.124,0.502,0.003c0.272,0.213,0.38,0.508,0.345,0.842      c-0.08,0.764-0.354,1.406-1.144,1.698c-0.105,0.039-0.208,0.09-0.311,0.138c-0.449,0.208-0.577,0.386-0.541,0.75      c0.036,0.369,0.28,0.692,0.686,0.738c0.496,0.055,0.901,0.278,1.314,0.515c0.229,0.131,0.393,0.299,0.457,0.561      C15.315,33.318,15.727,33.681,15.616,34.153"/><path clip-path="url(#a)" fill-rule="evenodd" clip-rule="evenodd" fill="#000000" d="M29.188,24.809      c0.021-0.181,0.046-0.36,0.062-0.541c0.041-0.475-0.144-0.681-0.604-0.674c-0.067,0.001-0.135,0.014-0.202,0.023      c-0.656,0.094-1.004-0.188-1.02-0.869c-0.007-0.292,0.069-0.584,0.098-0.877c0.062-0.656-0.119-0.895-0.772-1.029      c-0.266-0.054-0.578-0.062-0.578-0.44c0.001-0.249,0.312-0.384,0.709-0.332c0.8,0.105,1.257,0.562,1.372,1.368      c0.043,0.297-0.007,0.585-0.059,0.878c-0.074,0.417-0.033,0.465,0.401,0.467c0.447,0.002,0.85,0.066,1.149,0.447      c0.191,0.244,0.32,0.505,0.275,0.813c-0.071,0.493-0.165,0.984-0.255,1.476c-0.039,0.216-0.129,0.409-0.394,0.37      c-0.273-0.042-0.277-0.25-0.241-0.471c0.034-0.201,0.054-0.404,0.079-0.607C29.202,24.81,29.195,24.81,29.188,24.809"/><path clip-path="url(#a)" fill-rule="evenodd" clip-rule="evenodd" fill="#000000" d="M32.914,15.936      c0.359-0.041,0.481-0.223,0.646-0.335c0.43-0.295,0.903-0.284,1.37-0.164c0.44,0.113,0.739,1.067,0.485,1.451      c-0.13,0.195-0.4,0.221-0.592,0.053c-0.106-0.093-0.142-0.224-0.192-0.35c-0.152-0.378-0.368-0.471-0.722-0.3      c-0.181,0.088-0.332,0.234-0.51,0.332c-0.53,0.289-0.96,0.159-1.246-0.373c-0.085-0.158-0.137-0.335-0.224-0.493      c-0.298-0.54-0.449-0.551-0.798-0.062c-0.104,0.147-0.188,0.31-0.291,0.458c-0.122,0.176-0.284,0.323-0.51,0.214      c-0.267-0.129-0.233-0.384-0.134-0.589c0.21-0.43,0.488-0.821,0.901-1.079c0.508-0.317,1.042-0.182,1.396,0.329      C32.686,15.303,32.948,15.537,32.914,15.936"/><path clip-path="url(#a)" fill-rule="evenodd" clip-rule="evenodd" fill="#000000" d="M29.935,35.988      c-0.083,0.21-0.021,0.381,0.146,0.582c0.187,0.226,0.059,0.485-0.164,0.642c-0.238,0.168-0.477,0.107-0.66-0.114      c-0.217-0.262-0.231-0.569-0.203-0.897c0.03-0.34-0.053-0.41-0.375-0.3c-0.346,0.119-0.683,0.234-1.056,0.188      c-0.541-0.068-0.762-0.301-0.762-0.843c0-0.479,0.135-0.938,0.275-1.39c0.072-0.235,0.23-0.409,0.508-0.305      c0.264,0.099,0.289,0.316,0.223,0.562c-0.07,0.261-0.156,0.52-0.198,0.785c-0.069,0.437,0.054,0.54,0.486,0.394      c0.302-0.102,0.599-0.195,0.92-0.203C29.767,35.072,29.984,35.292,29.935,35.988"/><path clip-path="url(#a)" fill-rule="evenodd" clip-rule="evenodd" fill="#000000" d="M21.344,29.281      c-0.003-0.541,0.418-1.114,0.946-1.282c0.129-0.041,0.268-0.055,0.395-0.101c0.493-0.177,0.612-0.505,0.299-0.936      c-0.241-0.331-0.364-0.674-0.304-1.075c0.036-0.242,0.138-0.446,0.429-0.423c0.274,0.022,0.305,0.227,0.284,0.447      c-0.025,0.271,0.114,0.461,0.271,0.667c0.579,0.758,0.164,1.945-0.77,2.101c-0.49,0.081-0.797,0.207-0.849,0.742      c-0.02,0.197-0.196,0.299-0.409,0.255C21.424,29.634,21.346,29.483,21.344,29.281"/><path clip-path="url(#a)" fill-rule="evenodd" clip-rule="evenodd" fill="#000000" d="M15.121,25.285      c0.02-0.495,0.124-1.062,0.75-1.37c0.19-0.093,0.329-0.243,0.367-0.461c0.045-0.255,0.231-0.383,0.437-0.484      c0.206-0.104,0.401-0.06,0.547,0.122c0.243,0.306,0.145,1.319-0.337,1.426c-0.152,0.033-0.298,0.104-0.443,0.163      c-0.267,0.11-0.469,0.271-0.467,0.597c0.001,0.089-0.025,0.179-0.048,0.267c-0.066,0.261-0.19,0.489-0.503,0.438      C15.1,25.929,15.088,25.663,15.121,25.285"/><path clip-path="url(#a)" fill-rule="evenodd" clip-rule="evenodd" fill="#000000" d="M13.418,17.613      c-0.286-0.003-0.438,0.142-0.576,0.287c-0.371,0.388-0.808,0.333-1.256,0.199c-0.271-0.081-0.381-0.299-0.428-0.558      c-0.035-0.198,0.042-0.354,0.202-0.467c0.173-0.12,0.359-0.11,0.484,0.052c0.287,0.373,0.569,0.256,0.872,0.033      c0.144-0.106,0.293-0.213,0.454-0.286c0.633-0.29,0.951-0.144,1.167,0.52c0.044,0.135,0.059,0.271-0.04,0.383      c-0.104,0.116-0.244,0.101-0.375,0.049C13.735,17.752,13.552,17.67,13.418,17.613"/><path clip-path="url(#a)" fill-rule="evenodd" clip-rule="evenodd" fill="#000000" d="M35.222,24.311      c0.012-0.236,0.058-0.409,0.22-0.522c0.175-0.123,0.341-0.126,0.444,0.092c0.107,0.227,0.145,0.469,0.166,0.72      c0.045,0.533,0.106,0.604,0.645,0.672c0.275,0.035,0.531,0.072,0.735,0.282c0.138,0.141,0.198,0.296,0.16,0.489      c-0.055,0.282-0.271,0.406-0.478,0.22c-0.339-0.306-0.732-0.331-1.135-0.307c-0.378,0.023-0.546-0.169-0.609-0.489      C35.293,25.069,35.339,24.655,35.222,24.311"/><path clip-path="url(#a)" fill-rule="evenodd" clip-rule="evenodd" fill="#000000" d="M29.493,17.731      c0.21-0.004,0.418,0.07,0.543,0.29c0.103,0.18,0.203,0.352,0.39,0.46c0.127,0.074,0.209,0.191,0.141,0.34      c-0.073,0.16-0.227,0.229-0.394,0.211c-0.259-0.028-0.451-0.175-0.633-0.362c-0.306-0.315-0.49-0.29-0.738,0.076      c-0.088,0.131-0.136,0.288-0.222,0.421c-0.227,0.35-0.505,0.353-0.75,0.007c-0.078-0.109-0.136-0.236-0.191-0.359      c-0.172-0.387-0.124-0.505,0.28-0.526c0.197-0.011,0.354-0.036,0.48-0.184C28.682,17.773,29.083,17.789,29.493,17.731"/><path clip-path="url(#a)" fill-rule="evenodd" clip-rule="evenodd" fill="#000000" d="M12.776,25.472      c0.391,0.012,0.926,0.594,0.889,0.967c-0.031,0.304-0.339,0.414-0.616,0.233c-0.191-0.125-0.223-0.491-0.567-0.382      c-0.254,0.08-0.397,0.287-0.549,0.485c-0.084,0.109-0.183,0.201-0.322,0.234c-0.145,0.035-0.275,0.001-0.368-0.111      c-0.076-0.092-0.074-0.207-0.035-0.321C11.396,26.016,12.19,25.455,12.776,25.472"/><path clip-path="url(#a)" fill-rule="evenodd" clip-rule="evenodd" fill="#000000" d="M20.939,31.394      c0.062-0.005,0.195-0.021,0.33-0.023c0.14-0.002,0.277,0.028,0.319,0.188c0.05,0.182-0.05,0.298-0.199,0.383      c-0.165,0.095-0.349,0.094-0.526,0.088c-0.383-0.013-0.526,0.185-0.515,0.541c0.003,0.09-0.004,0.18-0.008,0.27      c-0.012,0.226-0.093,0.399-0.348,0.417c-0.291,0.02-0.385-0.173-0.436-0.415C19.349,31.844,19.809,31.331,20.939,31.394"/><path clip-path="url(#a)" fill-rule="evenodd" clip-rule="evenodd" fill="#000000" d="M23.237,13.747      c0.085,0.028,0.24,0.063,0.379,0.131c0.183,0.089,0.401,0.208,0.342,0.442c-0.065,0.262-0.304,0.225-0.502,0.148      c-0.294-0.113-0.41,0.031-0.483,0.287c-0.036,0.127-0.085,0.263-0.167,0.36c-0.182,0.213-0.523,0.156-0.609-0.086      C22.015,14.522,22.614,13.73,23.237,13.747"/><path clip-path="url(#a)" fill-rule="evenodd" clip-rule="evenodd" fill="#000000" d="M16.622,20.15      c0.096-0.359,0.151-0.769,0.459-1.072c0.222-0.22,0.473-0.354,0.789-0.22c0.166,0.071,0.359,0.172,0.352,0.368      c-0.007,0.193-0.212,0.197-0.369,0.211c-0.287,0.025-0.335,0.269-0.424,0.468c-0.072,0.163-0.067,0.355-0.187,0.503      c-0.122,0.151-0.274,0.242-0.471,0.171C16.58,20.511,16.596,20.343,16.622,20.15"/><path clip-path="url(#a)" fill-rule="evenodd" clip-rule="evenodd" fill="#000000" d="M37.431,27.038      c-0.175,0.46-0.254,0.935-0.504,1.345c-0.094,0.154-0.194,0.307-0.357,0.398c-0.151,0.086-0.3,0.096-0.436-0.031      c-0.112-0.104-0.14-0.245-0.07-0.37c0.283-0.512,0.574-1.019,0.875-1.52c0.069-0.115,0.2-0.193,0.349-0.147      C37.463,26.769,37.411,26.925,37.431,27.038"/><path clip-path="url(#a)" fill-rule="evenodd" clip-rule="evenodd" fill="#000000" d="M18.318,12.702      c-0.196,0.385-0.079,0.713,0.312,0.993c0.131,0.094,0.021,0.252-0.12,0.312c-0.429,0.18-1.015-0.185-1.055-0.66      c-0.025-0.3,0.058-0.585,0.159-0.863c0.073-0.2,0.188-0.385,0.443-0.322C18.308,12.222,18.328,12.435,18.318,12.702"/><path clip-path="url(#a)" fill-rule="evenodd" clip-rule="evenodd" fill="#000000" d="M20.936,34.579      c0.252,0.028,0.525-0.022,0.668,0.247c0.056,0.104,0.023,0.222-0.042,0.32c-0.179,0.269-0.44,0.192-0.673,0.131      c-0.244-0.064-0.637-0.061-0.607-0.396C20.31,34.554,20.686,34.606,20.936,34.579"/><path clip-path="url(#a)" fill-rule="evenodd" clip-rule="evenodd" fill="#000000" d="M31.166,31.92      c-0.101,0.012-0.168,0.028-0.234,0.025c-0.145-0.006-0.273-0.058-0.304-0.213c-0.037-0.188,0.077-0.345,0.243-0.336      c0.361,0.018,0.723,0.082,1.079,0.155c0.105,0.021,0.164,0.152,0.138,0.278c-0.033,0.162-0.149,0.208-0.301,0.202      C31.563,32.023,31.374,31.82,31.166,31.92"/><path clip-path="url(#a)" fill-rule="evenodd" clip-rule="evenodd" fill="#000000" d="M34.508,22.333      c0.03-0.202,0.173-0.322,0.407-0.307c0.188,0.012,0.49,0.391,0.478,0.585c-0.014,0.213-0.145,0.322-0.348,0.334      C34.775,22.961,34.491,22.65,34.508,22.333"/><path clip-path="url(#a)" fill-rule="evenodd" clip-rule="evenodd" fill="#000000" d="M10.695,22.062      c-0.02,0.252-0.032,0.517-0.332,0.518c-0.274,0.001-0.369-0.233-0.373-0.475c-0.004-0.253,0.117-0.448,0.393-0.451      C10.66,21.651,10.68,21.875,10.695,22.062"/><path clip-path="url(#a)" fill-rule="evenodd" clip-rule="evenodd" fill="#000000" d="M36.566,16.836      c0.155-0.013,0.256,0.07,0.322,0.198c0.055,0.106-0.133,0.792-0.237,0.866c-0.077,0.056-0.17,0.066-0.247,0.001      c-0.109-0.094-0.192-0.772-0.115-0.898C36.353,16.9,36.446,16.847,36.566,16.836"/><path clip-path="url(#a)" fill-rule="evenodd" clip-rule="evenodd" fill="#000000" d="M18.724,18.672      c-0.012-0.257,0.229-0.536,0.442-0.524c0.206,0.011,0.34,0.14,0.344,0.337c0.006,0.259-0.16,0.408-0.41,0.438      C18.901,18.947,18.755,18.865,18.724,18.672"/><path clip-path="url(#a)" fill-rule="evenodd" clip-rule="evenodd" fill="#000000" d="M30.459,34.781      c0.092,0.015,0.17,0.055,0.213,0.139c0.069,0.137,0.118,0.287,0.205,0.412c0.093,0.136,0.206,0.267,0.023,0.392      c-0.152,0.105-0.299,0.026-0.407-0.104c-0.111-0.135-0.273-0.23-0.323-0.414C30.109,34.983,30.257,34.768,30.459,34.781"/><path clip-path="url(#a)" fill-rule="evenodd" clip-rule="evenodd" fill="#000000" d="M10.757,23.212      c0.184,0.026,0.333,0.349,0.276,0.612c-0.034,0.162-0.111,0.303-0.301,0.309c-0.198,0.005-0.36-0.302-0.319-0.583      C10.445,23.337,10.595,23.188,10.757,23.212"/><path clip-path="url(#a)" fill-rule="evenodd" clip-rule="evenodd" fill="#000000" d="M31.829,35.837      c0.165,0.019,0.263,0.13,0.228,0.275c-0.06,0.248,0,0.593-0.346,0.668c-0.211,0.046-0.332-0.113-0.332-0.331      C31.379,36.182,31.632,35.843,31.829,35.837"/><path clip-path="url(#a)" fill-rule="evenodd" clip-rule="evenodd" fill="#000000" d="M15.515,21.634      c0.042-0.229,0.21-0.284,0.4-0.274c0.187,0.01,0.38,0.068,0.385,0.296c0.006,0.244-0.168,0.373-0.394,0.366      S15.539,21.87,15.515,21.634"/><path clip-path="url(#a)" fill-rule="evenodd" clip-rule="evenodd" fill="#000000" d="M32.364,30.57      c0.019-0.146,0.086-0.284,0.246-0.265c0.286,0.035,0.46,0.265,0.616,0.474c0.076,0.103-0.059,0.209-0.171,0.237      C32.834,31.073,32.392,30.781,32.364,30.57"/><path clip-path="url(#a)" fill-rule="evenodd" clip-rule="evenodd" fill="#000000" d="M22.474,36.572      c0.185-0.002,0.312,0.083,0.323,0.271c0.015,0.229-0.091,0.415-0.33,0.431c-0.21,0.015-0.325-0.137-0.326-0.35      C22.141,36.708,22.264,36.596,22.474,36.572"/><path clip-path="url(#a)" fill-rule="evenodd" clip-rule="evenodd" fill="#000000" d="M9.921,30.863      c0.008-0.227,0.136-0.337,0.342-0.347c0.186-0.009,0.3,0.099,0.311,0.283c0.012,0.206-0.078,0.359-0.298,0.376      C10.062,31.191,9.939,31.074,9.921,30.863"/><path clip-path="url(#a)" fill-rule="evenodd" clip-rule="evenodd" fill="#000000" d="M31.488,29.073      c-0.008,0.202-0.141,0.278-0.311,0.283c-0.218,0.007-0.412-0.069-0.441-0.315c-0.023-0.196,0.13-0.285,0.298-0.286      C31.25,28.753,31.425,28.845,31.488,29.073"/><path clip-path="url(#a)" fill-rule="evenodd" clip-rule="evenodd" fill="#000000" d="M10.878,29.677      c-0.01,0.212-0.104,0.353-0.32,0.358c-0.159,0.004-0.345-0.033-0.366-0.218c-0.029-0.245,0.167-0.352,0.37-0.393      C10.747,29.387,10.853,29.496,10.878,29.677"/><path clip-path="url(#a)" fill-rule="evenodd" clip-rule="evenodd" fill="#000000" d="M36.585,15.784      c-0.015,0.189-0.143,0.256-0.312,0.266c-0.17,0.009-0.322-0.06-0.342-0.236c-0.025-0.227,0.146-0.301,0.339-0.304      C36.443,15.507,36.56,15.597,36.585,15.784"/><path clip-path="url(#a)" fill-rule="evenodd" clip-rule="evenodd" fill="#000000" d="M32.445,35.315      c-0.041,0.187-0.175,0.24-0.342,0.231c-0.152-0.009-0.25-0.091-0.224-0.252c0.028-0.178,0.151-0.262,0.329-0.239      C32.354,35.074,32.445,35.157,32.445,35.315"/><path clip-path="url(#a)" fill-rule="evenodd" clip-rule="evenodd" fill="#000000" d="M10.01,31.887      c0.002-0.204,0.11-0.309,0.282-0.342c0.158-0.03,0.27,0.041,0.284,0.207c0.018,0.19-0.098,0.3-0.27,0.332      C10.151,32.113,10.059,32.015,10.01,31.887"/><path clip-path="url(#a)" fill-rule="evenodd" clip-rule="evenodd" fill="#000000" d="M20.104,17.351      c-0.019,0.142-0.104,0.201-0.227,0.203c-0.175,0.004-0.312-0.062-0.318-0.258c-0.005-0.132,0.095-0.194,0.218-0.198      C19.954,17.093,20.07,17.178,20.104,17.351"/><path clip-path="url(#a)" fill-rule="evenodd" clip-rule="evenodd" fill="#000000" d="M10.999,20.95      c0.012-0.172,0.114-0.281,0.289-0.304c0.139-0.019,0.204,0.075,0.203,0.205c-0.002,0.176-0.066,0.316-0.268,0.316      C11.103,21.168,11.018,21.094,10.999,20.95"/><path clip-path="url(#a)" fill-rule="evenodd" clip-rule="evenodd" fill="#000000" d="M32.771,34.121      c0.121,0.027,0.221,0.085,0.195,0.223c-0.027,0.154-0.146,0.218-0.295,0.202c-0.098-0.011-0.162-0.089-0.161-0.184      C32.513,34.198,32.621,34.131,32.771,34.121"/></g></g></g></g></svg>