<svg xmlns="http://www.w3.org/2000/svg" xmlns:xlink="http://www.w3.org/1999/xlink" version="1.1" id="Your_Icon" x="0px" y="0px" width="100px" height="100px" viewBox="0 0 100 100" enable-background="new 0 0 100 100" xml:space="preserve">
<rect x="27.747" y="66.607" fill="#000000" width="2.531" height="0.381"/>
<rect x="27.747" y="71.669" fill="#000000" width="2.531" height="0.381"/>
<polygon fill="#000000" points="30.227,69.138 30.227,69.519 32.05,69.519 32.758,69.519 32.758,69.138 32.05,69.138 "/>
<rect x="35.289" y="69.138" fill="#000000" width="2.531" height="0.381"/>
<polygon fill="#000000" points="35.339,66.607 34.631,66.607 32.809,66.607 32.809,66.988 34.631,66.988 35.339,66.988 "/>
<rect x="25.166" y="74.199" fill="#000000" width="2.531" height="0.381"/>
<rect x="22.686" y="71.669" fill="#000000" width="2.531" height="0.381"/>
<rect x="22.686" y="56.485" fill="#000000" width="2.531" height="0.381"/>
<rect x="22.686" y="61.546" fill="#000000" width="2.531" height="0.381"/>
<rect x="25.166" y="69.138" fill="#000000" width="2.531" height="0.381"/>
<rect x="22.686" y="66.607" fill="#000000" width="2.531" height="0.381"/>
<rect x="25.166" y="64.077" fill="#000000" width="2.531" height="0.381"/>
<rect x="15.043" y="59.015" fill="#000000" width="2.531" height="0.381"/>
<rect x="20.105" y="69.138" fill="#000000" width="2.531" height="0.381"/>
<rect x="9.982" y="64.077" fill="#000000" width="2.531" height="0.381"/>
<rect x="15.043" y="48.893" fill="#000000" width="2.531" height="0.381"/>
<rect x="12.563" y="51.423" fill="#000000" width="2.531" height="0.381"/>
<rect x="12.563" y="61.546" fill="#000000" width="2.531" height="0.381"/>
<rect x="12.563" y="56.485" fill="#000000" width="2.531" height="0.381"/>
<rect x="4.921" y="59.015" fill="#000000" width="2.531" height="0.381"/>
<rect x="7.502" y="61.546" fill="#000000" width="2.531" height="0.381"/>
<rect x="15.043" y="64.077" fill="#000000" width="2.531" height="0.381"/>
<rect x="9.982" y="53.954" fill="#000000" width="2.531" height="0.381"/>
<rect x="7.502" y="56.485" fill="#000000" width="2.531" height="0.381"/>
<rect x="9.982" y="59.015" fill="#000000" width="2.531" height="0.381"/>
<rect x="15.043" y="53.954" fill="#000000" width="2.531" height="0.381"/>
<rect x="17.625" y="61.546" fill="#000000" width="2.531" height="0.381"/>
<rect x="17.625" y="56.485" fill="#000000" width="2.531" height="0.381"/>
<rect x="20.105" y="59.015" fill="#000000" width="2.531" height="0.381"/>
<rect x="17.625" y="66.607" fill="#000000" width="2.531" height="0.381"/>
<rect x="20.105" y="64.077" fill="#000000" width="2.531" height="0.381"/>
<rect x="17.625" y="46.362" fill="#000000" width="2.531" height="0.381"/>
<rect x="20.105" y="53.954" fill="#000000" width="2.531" height="0.381"/>
<rect x="15.043" y="69.138" fill="#000000" width="2.531" height="0.381"/>
<rect x="12.563" y="66.607" fill="#000000" width="2.531" height="0.381"/>
<rect x="17.625" y="51.423" fill="#000000" width="2.531" height="0.381"/>
<rect x="20.105" y="48.893" fill="#000000" width="2.531" height="0.381"/>
<path fill="#000000" d="M79.575,24.724c-0.771,0-1.545,0.046-2.337,0.141c-2.856-5.03-8.231-8.208-14.071-8.208  c-5.49,0-10.607,2.839-13.567,7.384c-1.398-0.723-2.957-1.11-4.549-1.11c-5.465,0-9.913,4.447-9.913,9.913  c0,0.46,0.033,0.92,0.099,1.377c-3.643,1.298-6.627,3.783-8.565,6.951c-1.553-0.625-3.221-0.965-4.942-0.965  c-4.644,0-8.881,2.389-11.298,6.301C4.668,47.254,0.295,52.135,0.295,58.063c0,4.822,2.902,9.032,7.247,10.794  c-0.011,0.163-0.017,0.326-0.017,0.491c0,3.976,3.236,7.211,7.214,7.211c0.966,0,1.917-0.195,2.795-0.566  c2.115,2.922,5.547,4.726,9.216,4.726c3.959,0,7.617-2.081,9.67-5.402c3.384,0.295,6.542-0.63,9.127-2.359  c2.96,1.839,6.417,2.868,10.054,2.868c4.298,0,8.389-1.419,11.73-4.034c2.203,2.531,5.422,4.034,8.833,4.034  c6.395,0,11.608-5.153,11.708-11.523c7.455-3.273,12.37-10.702,12.37-18.911C100.243,33.996,90.972,24.724,79.575,24.724z   M37.629,71.575c-0.614,0-1.241-0.061-1.915-0.184l-1.457-0.267l-0.248,0.545h-1.201v0.381h1.028l-0.193,0.424  c-0.288,0.633-0.663,1.208-1.098,1.726H32.05h-1.823v0.381h1.823h0.142c-1.037,1.078-2.371,1.828-3.841,2.15h-0.604v0.12  c-0.328,0.044-0.66,0.073-0.997,0.073c-0.522,0-1.032-0.073-1.533-0.179V76.73h-0.064c-1.467-0.323-2.805-1.072-3.844-2.15h1.326  v-0.381h-1.673c-0.413-0.491-0.776-1.031-1.058-1.626l-0.248-0.524h0.498v-0.381h-0.678l-0.634-1.342l-1.888,1.615  c-0.629,0.536-1.394,0.82-2.216,0.82c-0.779,0-1.49-0.272-2.066-0.713h2.42v-0.381h-2.531v0.29c-0.71-0.592-1.174-1.458-1.224-2.44  h1.174v-0.381H11.34c0.02-0.312,0.074-0.625,0.185-0.934l0.714-2.003l-2.071-0.483c-1.025-0.239-1.946-0.684-2.76-1.26h0.043v-0.381  H6.908c-1.738-1.452-2.817-3.614-2.817-6.014c0-1.351,0.339-2.619,0.935-3.728h2.425v-0.381H5.25  c0.576-0.94,1.342-1.749,2.251-2.372v0.222h2.531v-0.381H7.751c1.136-0.716,2.468-1.157,3.912-1.211l1.111-0.041l0.508-0.99  c1.384-2.699,3.916-4.518,6.823-5.022v0.052h2.531v-0.164c0.844,0.079,1.659,0.283,2.439,0.58c-0.186,0.565-0.336,1.145-0.462,1.734  h-1.926v0.381h1.851c-0.191,1.013-0.302,2.054-0.302,3.119c0,0.527,0.026,1.048,0.073,1.562h-1.623v0.381h1.674  c0.306,2.646,1.227,5.097,2.622,7.211h-1.816v0.381h2.077c0.538,0.768,1.139,1.486,1.797,2.15h-1.292v0.381h1.67  c0.861,0.815,1.811,1.534,2.833,2.15h-0.2h-1.823v0.381h1.823h0.708v-0.091c1.922,1.068,4.076,1.781,6.386,2.016  c0.045,0.077,0.096,0.149,0.142,0.225H37.87v0.381h1.655c0.482,0.759,1.011,1.477,1.585,2.15h-0.76v0.381h1.086  c0.287,0.32,0.584,0.627,0.89,0.925C40.912,71.16,39.322,71.575,37.629,71.575z M85.272,61.256l-1.405,0.505l0.161,1.484  c0.031,0.287,0.051,0.577,0.051,0.872c0,4.363-3.55,7.912-7.913,7.912c-2.824,0-5.453-1.529-6.864-3.988l-1.223-2.134l-1.753,1.725  c-2.882,2.835-6.689,4.397-10.722,4.397c-5.756,0-10.969-3.193-13.604-8.335l-0.508-0.989l-1.111-0.042  c-6.925-0.257-12.348-5.881-12.348-12.803c0-5.989,4.075-11.123,9.909-12.483l2.069-0.483l-0.712-2.002  c-0.24-0.674-0.361-1.364-0.361-2.05c0-3.373,2.744-6.117,6.117-6.117c1.451,0,2.861,0.522,3.969,1.47l1.888,1.614l1.061-2.246  c2.041-4.321,6.437-7.113,11.196-7.113c4.841,0,9.266,2.857,11.276,7.278l0.613,1.349l1.458-0.268  c1.07-0.196,2.072-0.292,3.061-0.292c9.303,0,16.872,7.569,16.872,16.872C96.447,52.477,91.957,58.852,85.272,61.256z"/>
</svg>
