<svg fill="#000000" xmlns="http://www.w3.org/2000/svg" xmlns:xlink="http://www.w3.org/1999/xlink" version="1.1" x="0px" y="0px" viewBox="0 0 100 100" style="enable-background:new 0 0 100 100;" xml:space="preserve"><path d="M65.9,37.7H35.2c-0.6,0-1-0.4-1-1s0.4-1,1-1h30.8c0.6,0,1,0.4,1,1S66.5,37.7,65.9,37.7z"/><path d="M65.9,42.8H35.2c-0.6,0-1-0.4-1-1s0.4-1,1-1h30.8c0.6,0,1,0.4,1,1S66.5,42.8,65.9,42.8z"/><path d="M84,79.1C84,79.1,84,79,84,79.1l0-39.7c0,0,0,0,0-0.1c0,0,0-0.1,0-0.1c0,0,0-0.1,0-0.1c0,0,0-0.1,0-0.1c0,0,0,0,0-0.1  c0,0,0,0,0,0c0,0-0.1-0.1-0.1-0.1c0,0-0.1-0.1-0.1-0.1c0,0-0.1-0.1-0.1-0.1c0,0,0,0,0,0l-9.3-5.6v-3.6c0-0.6-0.4-1-1-1h-7.1  l-14.5-8.8c-0.3-0.2-0.7-0.2-1,0l-14.7,8.8h-7.6c-0.6,0-1,0.4-1,1v3.9l-8.6,5.3c0,0,0,0,0,0c0,0-0.1,0-0.1,0.1c0,0-0.1,0.1-0.1,0.1  c0,0-0.1,0.1-0.1,0.1c0,0,0,0,0,0c0,0,0,0,0,0.1c0,0,0,0.1,0,0.1c0,0,0,0.1,0,0.1c0,0,0,0.1,0,0.1c0,0,0,0,0,0.1V79c0,0,0,0.1,0,0.1  c0,0.1,0,0.1,0,0.2c0,0.1,0,0.1,0.1,0.2c0,0,0,0.1,0,0.1c0,0,0.1,0.1,0.1,0.1c0,0,0,0,0,0c0.1,0.1,0.2,0.1,0.3,0.2c0,0,0,0,0.1,0  c0.1,0,0.2,0.1,0.3,0.1c0,0,0,0,0,0H83c0,0,0.1,0,0.1,0c0.1,0,0.1,0,0.2,0c0.1,0,0.1,0,0.2-0.1c0.1,0,0.1-0.1,0.2-0.1  c0.1,0,0.1-0.1,0.1-0.1c0,0,0,0,0.1-0.1c0,0,0-0.1,0-0.1c0-0.1,0.1-0.1,0.1-0.2C84,79.2,84,79.2,84,79.1z M82,41.1v36L53.1,57.4  L82,41.1z M49.3,57.4L20.2,77.1v-36L49.3,57.4z M79.8,78H22.5l28.7-19.5L79.8,78z M27.3,35.6v7.2l-6.1-3.4L27.3,35.6z M62.4,28.3  H39.8l11.3-6.8L62.4,28.3z M72.3,30.3v14L51.2,56.2L29.3,43.9V30.3H72.3z M74.3,35.2l6.8,4.1l-6.8,3.8V35.2z"/><path d="M50,48.3l0.8-1.9c0,0,0.1-0.1,0.1-0.1c0.1,0,0.1,0,0.1,0.1l1,1.8l2,0.2c0,0,0.1,0,0.1,0.1c0,0,0,0.1,0,0.1l-1.4,1.5l0.4,2  c0,0,0,0.1,0,0.1s-0.1,0-0.1,0l-1.8-0.9l-1.7,1c0,0,0,0-0.1,0c0,0,0,0-0.1,0c0,0-0.1-0.1-0.1-0.1l0.2-2L48,48.9c0,0-0.1-0.1,0-0.1  s0.1-0.1,0.1-0.1L50,48.3z"/></svg>