<svg fill="#000000" xmlns="http://www.w3.org/2000/svg" xmlns:xlink="http://www.w3.org/1999/xlink" version="1.1" x="0px" y="0px" viewBox="0 0 100 100" style="enable-background:new 0 0 100 100;" xml:space="preserve"><style type="text/css">
	.st0{display:none;}
	.st1{display:inline;fill:#000000;}
	.st2{display:inline;fill:#000000;}
	.st3{display:inline;fill:#000000;}
	.st4{fill:#000000;}
	.st5{fill:#000000;}
	.st6{fill:#000000;}
	.st7{clip-path:url(#SVGID_2_);fill:#000000;}
	.st8{fill:#000000;}
	.st9{clip-path:url(#SVGID_4_);fill:#000000;}
	.st10{clip-path:url(#SVGID_6_);fill:#000000;}
	.st11{fill:none;stroke:#000000;stroke-width:3;stroke-linecap:round;stroke-miterlimit:10;}
</style><g class="st0"><rect x="-155" y="-517" class="st1" width="1253" height="1253"/></g><g><path d="M35.3,46.5c-0.3,0.9,0,1.8,0.8,2.3l6.6,4.8l-2.5,7.8c-0.3,0.9,0,1.8,0.8,2.3c0.7,0.5,1.7,0.5,2.5,0l6.6-4.8l6.6,4.8   c0.4,0.3,0.8,0.4,1.2,0.4c0.4,0,0.9-0.1,1.2-0.4c0.7-0.5,1-1.5,0.7-2.3l-2.5-7.8l6.6-4.8c0.7-0.5,1-1.5,0.7-2.3   c-0.3-0.9-1.1-1.4-2-1.4h-8.2L52,37.3c-0.3-0.9-1.1-1.4-2-1.4c-0.9,0-1.7,0.6-2,1.4l-2.5,7.8h-8.2C36.4,45.1,35.6,45.7,35.3,46.5z    M46.2,48.2c0.9,0,1.7-0.6,2-1.4l1.8-5.5l1.8,5.5c0.3,0.9,1.1,1.4,2,1.4h5.7l-4.6,3.3c-0.7,0.5-1,1.5-0.7,2.3l1.8,5.4L51.2,56   c-0.4-0.3-0.8-0.4-1.2-0.4c-0.4,0-0.9,0.1-1.2,0.4l-4.6,3.4l1.8-5.4c0.3-0.9,0-1.8-0.8-2.3l-4.6-3.3H46.2z M11.4,60.2   c1.8,1.6,4.2,2.4,6.5,2.4c1,0,2.1-0.2,3.1-0.5c3.4,0.5,6.9-0.8,9.1-3.5c2.3-2.7,3-6.5,1.8-9.8c-0.2-0.5-0.6-0.9-1.2-1   c-3.5-0.6-7.1,0.7-9.4,3.4c-0.4,0.5-0.8,1-1.1,1.6c-0.4-0.5-0.8-1-1.3-1.4c-2.7-2.3-6.5-3-9.8-1.8c-0.5,0.2-0.9,0.7-1,1.2   C7.4,54.3,8.7,57.9,11.4,60.2z M22.1,57c0.1-1.4,0.7-2.7,1.6-3.8c1.4-1.6,3.4-2.5,5.5-2.4c0.4,2.1-0.1,4.2-1.5,5.8   c-1.4,1.6-3.5,2.5-5.6,2.4c-0.2-0.4-0.6-0.6-1-0.7C21.6,58.1,22,57.6,22.1,57z M16.8,53.7c1.1,0.9,1.8,2.1,2.2,3.5   c0.2,0.6,0.7,1,1.2,1.1c-0.4,0.2-0.7,0.5-0.9,0.9c-2.1,0.4-4.3-0.1-5.9-1.5c-1.6-1.4-2.5-3.4-2.4-5.5C13,51.8,15.2,52.4,16.8,53.7z    M19.3,46.6c1,0.4,2.1,0.6,3.2,0.6c1.8,0,3.5-0.5,5-1.6c2.4-1.8,3.8-4.7,3.5-7.7c-0.1-0.6-0.4-1.1-0.9-1.3c-2.8-1.2-6-0.9-8.4,0.9   c-0.3,0.2-0.7,0.5-1,0.8c-0.2-0.4-0.4-0.7-0.6-1c-1.8-2.4-4.7-3.8-7.7-3.5c-0.6,0.1-1.1,0.4-1.3,0.9c-1.2,2.8-0.9,6,0.9,8.4   C13.6,45.4,16.4,46.7,19.3,46.6z M21.5,42.6c0.4-1,1-1.9,1.9-2.6c1.3-0.9,2.9-1.2,4.4-0.9c-0.1,1.5-1,3-2.2,3.9   c-1.3,0.9-3,1.2-4.5,0.8l-0.3-0.4C21.1,43.3,21.4,43,21.5,42.6z M13.6,36.8c1.6,0.1,3,0.9,3.9,2.2c0.6,0.9,1,1.9,1,3   c0,0.4,0.1,0.8,0.4,1l-0.4,0.3c-1.6-0.1-3.1-0.9-4-2.2C13.5,40,13.2,38.3,13.6,36.8z M22.3,32.4c1.6,1.5,3.7,2.3,5.9,2.3   c0.7,0,1.4-0.1,2.1-0.3c2.9-0.7,5.2-3,6.1-5.9c0.1-0.5,0-1.1-0.4-1.5c-2.1-2.1-5.2-3-8.1-2.3c-0.4,0.1-0.8,0.2-1.2,0.4   c0-0.4-0.1-0.8-0.2-1.2c-0.7-2.9-3-5.2-5.9-6.1c-0.5-0.2-1.1,0-1.5,0.4c-2.1,2.1-3,5.2-2.3,8.1C17.4,29.3,19.6,31.5,22.3,32.4z    M25.9,29.5c0.7-0.8,1.6-1.4,2.7-1.7c1.5-0.4,3.1-0.1,4.4,0.8c-0.7,1.4-1.9,2.4-3.5,2.8c-1.6,0.4-3.2,0.1-4.5-0.9l-0.1-0.5   C25.2,30,25.6,29.8,25.9,29.5z M20.6,21.3c1.4,0.7,2.4,2,2.8,3.5c0.2,1.1,0.2,2.2-0.2,3.2c-0.1,0.4-0.1,0.8,0,1.1l-0.5,0.2   c-1.5-0.7-2.5-2-2.9-3.5C19.4,24.2,19.7,22.6,20.6,21.3z M27.8,23.7c0.9,0.4,1.8,0.5,2.8,0.5c1.6,0,3.2-0.5,4.5-1.5   c2-1.6,3.1-4.2,2.8-6.7c-0.1-0.6-0.4-1-1-1.3c-2.4-1-5.2-0.6-7.2,1c-2.1,1.6-3.1,4.2-2.8,6.7C26.9,23,27.3,23.5,27.8,23.7z    M31.6,18.2L31.6,18.2c0.9-0.7,2.1-1,3.2-0.8c-0.1,1.1-0.7,2.2-1.6,2.9c-0.9,0.7-2.1,1-3.2,0.8C30.1,19.9,30.6,18.9,31.6,18.2z    M32,70.5c1.4-2.6,1.3-5.9-0.2-8.5c-0.3-0.5-0.8-0.8-1.4-0.7c-3,0.1-5.7,1.8-7.2,4.5c-0.2,0.4-0.4,0.7-0.5,1.1   c-0.3-0.2-0.7-0.5-1-0.7c-2.6-1.4-5.9-1.3-8.4,0.2c-0.5,0.3-0.8,0.8-0.7,1.4c0.1,3,1.8,5.8,4.5,7.2c1.3,0.7,2.6,1,4,1   c1.5,0,2.9-0.4,4.2-1.1C28,74.7,30.6,73.1,32,70.5z M23,72.5c-1.5,0.6-3.1,0.6-4.6-0.2c-1.4-0.7-2.4-2.1-2.7-3.6   c1.5-0.6,3.1-0.5,4.5,0.3c1,0.5,1.7,1.3,2.2,2.3c0.2,0.4,0.5,0.6,0.8,0.7L23,72.5z M25.9,67.3c0.7-1.4,2.1-2.4,3.6-2.7   c0.5,1.4,0.4,3.1-0.3,4.5c-0.7,1.4-2.1,2.4-3.7,2.7l-0.4-0.3c0.2-0.3,0.3-0.7,0.3-1.1C25.2,69.3,25.4,68.2,25.9,67.3z M35.4,70.8   c-0.5-0.3-1.1-0.3-1.6,0c-2.3,1.4-3.7,4-3.7,6.7c0,0.3,0,0.6,0.1,0.9c-0.3,0-0.6,0-0.9,0c-2.7,0.1-5.2,1.6-6.5,3.9   c-0.3,0.5-0.3,1.1,0,1.6c1.4,2.3,3.9,3.6,6.5,3.6h0.2c2.6-0.1,5-1.4,6.4-3.7c2.2-1.5,3.4-3.9,3.4-6.5   C39.3,74.6,37.8,72.1,35.4,70.8z M29.5,84.7h-0.1c-1.2,0-2.4-0.7-3.3-1.6c0.8-0.9,2-1.6,3.3-1.6c0.9,0,1.8,0.2,2.6,0.7   c0.3,0.2,0.6,0.3,0.9,0.3l0,0.3C32.1,83.9,30.9,84.7,29.5,84.7z M34.7,80.8l-0.2,0c0-0.3-0.1-0.6-0.3-0.9c-0.5-0.8-0.8-1.6-0.9-2.6   c0-1.3,0.5-2.5,1.4-3.4c1,0.8,1.5,2,1.5,3.3C36.2,78.7,35.7,80,34.7,80.8z M81.2,52.2c-0.5,0.4-1,0.8-1.4,1.3   c-0.3-0.6-0.6-1.1-1-1.6c-2.2-2.8-5.7-4.3-9.2-3.9c-0.6,0.1-1,0.4-1.3,1c-1.3,3.3-0.8,7.1,1.3,9.9c2.1,2.7,5.5,4.2,8.9,3.9   c1.1,0.4,2.3,0.6,3.5,0.6c2.2,0,4.3-0.7,6.1-2.1c2.8-2.2,4.3-5.7,3.9-9.2c-0.1-0.6-0.4-1-1-1.3C87.9,49.6,84.1,50.1,81.2,52.2z    M77.6,59.7c-2.1,0-4.2-1-5.5-2.7c-1.3-1.7-1.7-3.9-1.2-5.9c2.1,0,4.1,1,5.4,2.7c0.9,1.1,1.3,2.5,1.4,3.9c0,0.6,0.4,1.1,0.9,1.4   C78.2,59.1,77.9,59.4,77.6,59.7z M89.1,53.5c0,2.1-1,4.1-2.7,5.4c-1.7,1.3-3.9,1.7-6,1.2c-0.1-0.4-0.4-0.7-0.8-0.9   c0.6-0.1,1.1-0.5,1.3-1.1c0.4-1.4,1.3-2.5,2.4-3.4C84.8,53.4,87,53,89.1,53.5z M80.7,38c-0.2,0.3-0.5,0.7-0.7,1   c-0.3-0.3-0.6-0.6-0.9-0.8c-2.3-1.9-5.5-2.4-8.4-1.3c-0.5,0.2-0.9,0.7-1,1.2c-0.4,3,0.8,6,3.1,7.9c1.5,1.2,3.4,1.8,5.3,1.8   c0.9,0,1.9-0.2,2.8-0.5c2.9,0.3,5.7-0.9,7.5-3.2c1.9-2.3,2.4-5.5,1.3-8.4c-0.2-0.5-0.7-0.9-1.2-1C85.6,34.5,82.6,35.7,80.7,38z    M79.3,44.6c-1.6,0.3-3.2,0-4.5-1c-1.2-1-1.9-2.5-2-4c1.5-0.3,3.1,0.1,4.3,1.1c0.8,0.7,1.5,1.6,1.8,2.7c0.1,0.4,0.4,0.7,0.7,0.9   L79.3,44.6z M82,43c0.1-1.1,0.4-2.1,1.1-3c1-1.2,2.5-2,4-2c0.3,1.5-0.1,3.1-1.1,4.3c-1,1.3-2.5,2-4.1,2L81.5,44   C81.8,43.7,82,43.4,82,43z M73.5,25.3c-2.9-0.9-6-0.2-8.2,1.9c-0.4,0.4-0.6,1-0.5,1.5c0.7,2.9,2.9,5.3,5.8,6.2   c0.8,0.2,1.6,0.4,2.5,0.4c2,0,4-0.7,5.5-2c2.8-0.8,5-2.9,5.9-5.7c0.9-2.9,0.2-6-1.9-8.2c-0.4-0.4-1-0.6-1.5-0.5   c-2.9,0.7-5.3,2.9-6.2,5.8c-0.1,0.4-0.2,0.8-0.3,1.2C74.2,25.5,73.8,25.4,73.5,25.3z M77.9,25.4c0.4-1.5,1.6-2.7,3-3.3   c0.8,1.3,1,2.9,0.6,4.4c-0.4,1.5-1.6,2.8-3.1,3.4l-0.5-0.2c0.1-0.3,0.2-0.7,0.1-1.1C77.6,27.6,77.6,26.5,77.9,25.4z M75.2,30.1   c0.3,0.3,0.6,0.5,1,0.6L76,31.2c-1.3,0.9-3,1.1-4.5,0.7c-1.5-0.5-2.7-1.6-3.4-3c1.3-0.8,2.9-1.1,4.4-0.6   C73.6,28.6,74.5,29.2,75.2,30.1z M66.3,22.8c1.3,1.1,3,1.7,4.8,1.7c0.8,0,1.6-0.1,2.4-0.4c0.5-0.2,0.9-0.7,1-1.2   c0.4-2.6-0.5-5.2-2.5-6.9c-2-1.7-4.7-2.2-7.2-1.3c-0.5,0.2-0.9,0.6-1,1.2C63.4,18.5,64.3,21.1,66.3,22.8z M70,18.4   c0.9,0.8,1.4,1.8,1.5,3c-1.1,0.1-2.3-0.2-3.2-1c-0.9-0.8-1.4-1.8-1.5-3C67.9,17.3,69.1,17.7,70,18.4z M86.1,67.6   c-2.5-1.7-5.7-1.9-8.4-0.6c-0.4,0.2-0.7,0.4-1.1,0.6c-0.1-0.4-0.3-0.8-0.4-1.1c-1.3-2.7-4-4.6-6.9-4.8c-0.6,0-1.1,0.2-1.4,0.7   c-1.7,2.5-1.9,5.7-0.6,8.4c1.2,2.6,3.8,4.4,6.6,4.8c1.4,0.9,2.9,1.3,4.5,1.3c1.3,0,2.5-0.3,3.7-0.8c2.7-1.3,4.6-3.9,4.8-6.9   C86.9,68.5,86.6,67.9,86.1,67.6z M73.6,72.3c-1.6-0.4-2.8-1.4-3.6-2.9c-0.7-1.4-0.7-3.1-0.1-4.5c1.5,0.4,2.8,1.5,3.4,2.9   c0.4,1,0.6,2.1,0.4,3.2c-0.1,0.4,0,0.8,0.2,1.1L73.6,72.3z M80.7,73.2c-1.5,0.7-3.2,0.7-4.6,0l-0.2-0.5c0.4-0.1,0.7-0.4,0.9-0.7   c0.6-1,1.4-1.7,2.3-2.2c1.4-0.7,3.1-0.7,4.5-0.1C83.1,71.2,82.1,72.5,80.7,73.2z M69.5,78.7c-0.3,0-0.6,0-0.9,0   c0.1-0.3,0.1-0.6,0.1-0.9c0.2-2.7-1.1-5.3-3.3-6.9c-0.5-0.3-1.1-0.4-1.6-0.1c-2.4,1.2-4.1,3.6-4.3,6.3c-0.2,2.6,1,5.1,3.1,6.7   c1.3,2.3,3.6,3.8,6.2,4l0.5,0c2.5,0,4.9-1.2,6.3-3.3c0.3-0.5,0.4-1.1,0.1-1.6C74.6,80.5,72.2,78.9,69.5,78.7z M64.6,80.1   c-0.2,0.2-0.3,0.5-0.3,0.8l-0.2,0c-1-0.9-1.5-2.2-1.4-3.6c0.1-1.3,0.7-2.4,1.7-3.2c0.8,0.9,1.3,2.1,1.2,3.4   C65.5,78.5,65.2,79.4,64.6,80.1z M69.1,84.7c-1.3-0.1-2.6-0.8-3.4-1.8l0-0.2c0.3,0,0.6-0.1,0.9-0.2c0.8-0.5,1.7-0.7,2.6-0.6   c1.3,0.1,2.5,0.7,3.2,1.7C71.6,84.3,70.3,84.8,69.1,84.7z"/></g></svg>