<svg fill="#000000" xmlns="http://www.w3.org/2000/svg" xmlns:xlink="http://www.w3.org/1999/xlink" viewBox="0 0 60 60" version="1.1" x="0px" y="0px"><title>22 -Recycle Electricity- (Outline)</title><desc>Created with Sketch.</desc><g stroke="none" stroke-width="1" fill="none" fill-rule="evenodd"><g transform="translate(-240.000000, -590.000000)" fill="#000000"><g transform="translate(240.000000, 590.000000)"><path d="M10.6901617,9.75445522 C15.8676457,4.81660505 22.7193042,2.0118 30,2.0118 C45.4383648,2.0118 58,14.5737343 58,30.0118 C58,30.5640847 58.4477153,31.0118 59,31.0118 C59.5522847,31.0118 60,30.5640847 60,30.0118 C60,13.4691754 46.5429449,0.0118 30,0.0118 C22.199652,0.0118 14.8553984,3.01825453 9.30983833,8.30714478 C8.91017459,8.68831055 8.89517902,9.32129793 9.27634478,9.72096167 C9.65751055,10.1206254 10.2904979,10.135621 10.6901617,9.75445522 Z"/><path d="M11,8.012 L11,1.012 C11,0.45971525 10.5522847,0.012 10,0.012 C9.44771525,0.012 9,0.45971525 9,1.012 L9,10.012 L18,10.012 C18.5522847,10.012 19,9.56428475 19,9.012 C19,8.45971525 18.5522847,8.012 18,8.012 L11,8.012 Z"/><path d="M0.02,31.1717 C2.84702817e-14,30.6117 0.43,30.1517 0.98,30.1317 C1.53,30.1117 2,30.5417 2.02,31.0917 C2.04,31.6417 1.61,32.1117 1.06,32.1317 L1.02,32.1317 C0.48,32.1317 0.04,31.7017 0.02,31.1717 L0.02,31.1717 Z M58.74,34.0017 C58.19,33.9417 57.8,33.4517 57.85,32.9017 C57.91,32.3517 58.4,31.9517 58.95,32.0117 C59.5,32.0617 59.9,32.5617 59.84,33.1117 C59.79,33.6217 59.35,34.0017 58.85,34.0017 L58.74,34.0017 Z M0.3,34.2517 L0.3,34.2517 C0.22,33.7117 0.6,33.2017 1.15,33.1217 C1.69,33.0517 2.2,33.4317 2.28,33.9717 C2.36,34.5217 1.98,35.0317 1.43,35.1017 C1.38,35.1117 1.33,35.1117 1.29,35.1117 C0.8,35.1117 0.37,34.7517 0.3,34.2517 L0.3,34.2517 Z M58.18,36.9417 C57.64,36.8317 57.29,36.3017 57.41,35.7617 C57.52,35.2217 58.05,34.8717 58.59,34.9917 C59.13,35.1017 59.48,35.6317 59.36,36.1717 C59.27,36.6417 58.85,36.9717 58.39,36.9717 C58.32,36.9717 58.25,36.9617 58.18,36.9417 L58.18,36.9417 Z M0.9,37.3017 C0.76,36.7617 1.09,36.2217 1.62,36.0917 C2.16,35.9517 2.7,36.2817 2.84,36.8117 C2.97,37.3517 2.64,37.8917 2.11,38.0317 C2.03,38.0517 1.94,38.0617 1.86,38.0617 C1.42,38.0617 1.01,37.7517 0.9,37.3017 L0.9,37.3017 Z M57.31,39.8217 C56.79,39.6517 56.5,39.0817 56.67,38.5617 C56.83,38.0317 57.4,37.7417 57.92,37.9117 C58.45,38.0817 58.74,38.6417 58.57,39.1717 C58.43,39.5917 58.04,39.8617 57.62,39.8617 C57.52,39.8617 57.41,39.8517 57.31,39.8217 L57.31,39.8217 Z M1.8,40.2617 C1.61,39.7517 1.88,39.1717 2.4,38.9817 C2.92,38.7917 3.5,39.0617 3.68,39.5817 C3.87,40.1017 3.6,40.6717 3.09,40.8617 C2.97,40.9017 2.86,40.9217 2.74,40.9217 C2.33,40.9217 1.95,40.6717 1.8,40.2617 L1.8,40.2617 Z M56.15,42.5817 C55.64,42.3617 55.42,41.7717 55.64,41.2617 C55.86,40.7617 56.45,40.5317 56.96,40.7517 C57.46,40.9717 57.69,41.5717 57.47,42.0717 C57.3,42.4417 56.94,42.6717 56.55,42.6717 C56.42,42.6717 56.28,42.6417 56.15,42.5817 L56.15,42.5817 Z M3.02,43.1217 C2.78,42.6217 2.98,42.0217 3.48,41.7817 C3.98,41.5417 4.57,41.7417 4.82,42.2417 C5.06,42.7417 4.85,43.3417 4.36,43.5817 C4.21,43.6517 4.07,43.6817 3.92,43.6817 C3.55,43.6817 3.19,43.4717 3.02,43.1217 L3.02,43.1217 Z M54.71,45.2117 C54.23,44.9417 54.06,44.3317 54.34,43.8517 C54.61,43.3717 55.22,43.2017 55.7,43.4717 C56.18,43.7517 56.35,44.3617 56.07,44.8417 C55.89,45.1617 55.55,45.3417 55.2,45.3417 C55.03,45.3417 54.86,45.3017 54.71,45.2117 L54.71,45.2117 Z M4.52,45.8317 C4.23,45.3617 4.37,44.7517 4.84,44.4517 C5.31,44.1617 5.93,44.3117 6.22,44.7717 C6.51,45.2417 6.37,45.8617 5.9,46.1517 C5.73,46.2517 5.55,46.3017 5.37,46.3017 C5.03,46.3017 4.71,46.1417 4.52,45.8317 L4.52,45.8317 Z M53,47.6817 C52.55,47.3617 52.45,46.7317 52.77,46.2917 C53.09,45.8417 53.72,45.7317 54.17,46.0617 C54.62,46.3817 54.72,47.0017 54.4,47.4517 C54.2,47.7217 53.9,47.8717 53.58,47.8717 C53.38,47.8717 53.18,47.8117 53,47.6817 L53,47.6817 Z M6.29,48.3817 C5.95,47.9417 6.03,47.3117 6.47,46.9717 C6.91,46.6317 7.53,46.7117 7.87,47.1517 C8.21,47.5917 8.13,48.2117 7.7,48.5517 C7.51,48.6917 7.3,48.7617 7.08,48.7617 C6.79,48.7617 6.49,48.6317 6.29,48.3817 L6.29,48.3817 Z M51.05,49.9617 C50.64,49.5917 50.6,48.9617 50.97,48.5517 L50.96,48.5517 C51.33,48.1317 51.96,48.1017 52.38,48.4617 C52.79,48.8317 52.83,49.4617 52.46,49.8717 C52.26,50.1017 51.99,50.2117 51.71,50.2117 C51.48,50.2117 51.24,50.1317 51.05,49.9617 L51.05,49.9617 Z M8.32,50.7217 L8.32,50.7217 C7.94,50.3217 7.95,49.6917 8.35,49.3117 C8.75,48.9317 9.38,48.9417 9.76,49.3417 C10.14,49.7417 10.13,50.3717 9.73,50.7617 C9.54,50.9417 9.29,51.0317 9.04,51.0317 C8.78,51.0317 8.51,50.9317 8.32,50.7217 L8.32,50.7217 Z M48.88,52.0317 C48.51,51.6217 48.53,50.9917 48.94,50.6217 C49.34,50.2417 49.98,50.2717 50.35,50.6817 C50.73,51.0817 50.7,51.7117 50.29,52.0917 C50.1,52.2717 49.86,52.3517 49.62,52.3517 C49.35,52.3517 49.08,52.2417 48.88,52.0317 L48.88,52.0317 Z M10.57,52.8517 C10.15,52.5017 10.1,51.8617 10.46,51.4417 C10.82,51.0217 11.45,50.9717 11.87,51.3317 C12.29,51.6917 12.34,52.3217 11.98,52.7417 C11.78,52.9717 11.5,53.0917 11.22,53.0917 C10.99,53.0917 10.76,53.0117 10.57,52.8517 L10.57,52.8517 Z M46.51,53.8617 C46.18,53.4217 46.27,52.7917 46.71,52.4617 C47.15,52.1317 47.78,52.2217 48.11,52.6717 C48.44,53.1117 48.35,53.7417 47.91,54.0717 C47.73,54.2017 47.52,54.2717 47.31,54.2717 C47,54.2717 46.7,54.1317 46.51,53.8617 L46.51,53.8617 Z M13.03,54.7417 C12.58,54.4317 12.46,53.8017 12.78,53.3517 C13.09,52.8917 13.71,52.7817 14.17,53.0917 C14.62,53.4117 14.74,54.0317 14.42,54.4817 C14.23,54.7617 13.92,54.9217 13.6,54.9217 C13.4,54.9217 13.21,54.8617 13.03,54.7417 L13.03,54.7417 Z M43.96,55.4517 C43.67,54.9717 43.83,54.3617 44.3,54.0717 C44.78,53.7917 45.39,53.9517 45.67,54.4217 C45.96,54.8917 45.8,55.5117 45.33,55.7917 C45.17,55.8917 44.99,55.9317 44.82,55.9317 C44.48,55.9317 44.14,55.7617 43.96,55.4517 L43.96,55.4517 Z M15.67,56.3617 C15.19,56.1017 15.01,55.4917 15.28,55.0117 C15.54,54.5217 16.15,54.3417 16.63,54.6117 C17.12,54.8717 17.3,55.4817 17.03,55.9717 C16.85,56.3017 16.51,56.4917 16.15,56.4917 C15.99,56.4917 15.83,56.4517 15.67,56.3617 L15.67,56.3617 Z M41.26,56.7517 C41.02,56.2517 41.24,55.6617 41.74,55.4317 C42.25,55.1917 42.84,55.4117 43.07,55.9117 C43.31,56.4117 43.09,57.0117 42.59,57.2417 C42.45,57.3017 42.31,57.3317 42.17,57.3317 C41.79,57.3317 41.43,57.1217 41.26,56.7517 L41.26,56.7517 Z M18.47,57.7117 C17.96,57.4917 17.72,56.9117 17.93,56.4017 C18.15,55.8917 18.73,55.6517 19.24,55.8617 C19.75,56.0717 19.99,56.6617 19.78,57.1717 C19.62,57.5517 19.25,57.7817 18.85,57.7817 C18.73,57.7817 18.6,57.7617 18.47,57.7117 L18.47,57.7117 Z M38.44,57.7817 C38.26,57.2517 38.54,56.6917 39.06,56.5117 C39.58,56.3317 40.15,56.6117 40.33,57.1317 C40.51,57.6517 40.23,58.2217 39.71,58.4017 C39.6,58.4417 39.49,58.4517 39.38,58.4517 C38.97,58.4517 38.58,58.1917 38.44,57.7817 L38.44,57.7817 Z M21.39,58.7517 C20.86,58.5917 20.56,58.0417 20.72,57.5117 C20.88,56.9817 21.44,56.6817 21.97,56.8417 C22.5,56.9917 22.8,57.5517 22.64,58.0817 C22.51,58.5117 22.11,58.7917 21.68,58.7917 C21.59,58.7917 21.49,58.7817 21.39,58.7517 L21.39,58.7517 Z M35.53,58.5017 C35.4,57.9617 35.74,57.4317 36.28,57.3017 C36.82,57.1817 37.35,57.5117 37.48,58.0517 C37.6,58.5917 37.26,59.1317 36.73,59.2517 C36.65,59.2717 36.58,59.2817 36.5,59.2817 C36.05,59.2817 35.63,58.9617 35.53,58.5017 L35.53,58.5017 Z M24.41,59.4917 L24.41,59.4917 C23.86,59.3817 23.51,58.8617 23.61,58.3217 C23.71,57.7817 24.24,57.4217 24.78,57.5217 C25.32,57.6317 25.68,58.1517 25.58,58.6917 C25.49,59.1717 25.07,59.5017 24.6,59.5017 C24.53,59.5017 24.47,59.5017 24.41,59.4917 L24.41,59.4917 Z M32.56,58.9217 C32.49,58.3717 32.88,57.8717 33.43,57.8017 C33.98,57.7317 34.48,58.1217 34.54,58.6717 C34.61,59.2217 34.22,59.7217 33.67,59.7917 L33.55,59.7917 C33.05,59.7917 32.62,59.4217 32.56,58.9217 L32.56,58.9217 Z M27.48,59.9117 C26.93,59.8617 26.52,59.3817 26.57,58.8317 C26.61,58.2817 27.1,57.8717 27.65,57.9117 C28.2,57.9617 28.61,58.4417 28.56,58.9917 C28.52,59.5217 28.08,59.9117 27.56,59.9117 L27.48,59.9117 Z M29.56,59.0217 C29.55,58.4717 29.99,58.0217 30.54,58.0017 L30.54,58.0117 C31.09,57.9917 31.55,58.4317 31.56,58.9917 C31.57,59.5417 31.13,59.9917 30.58,60.0017 L30.58,60.0117 L30.56,60.0117 C30.02,60.0117 29.57,59.5717 29.56,59.0217 L29.56,59.0217 Z"/><path d="M21.1055728,34.5647864 C20.7731223,35.2296875 21.256618,36.012 22,36.012 L24.5809951,36.012 L20.0582581,48.6756636 C19.6759947,49.7460012 21.0915775,50.5230796 21.7893522,49.6259406 L35.7893522,31.6259406 C36.3002418,30.9690826 35.8321482,30.012 35,30.012 L33.6845422,30.012 L38.8778956,20.4908521 C39.2413727,19.8244775 38.7590591,19.012 38,19.012 L36.7231797,19.012 L39.8682431,13.5081389 C40.2491899,12.8414822 39.7678227,12.012 39,12.012 L30,12.012 C29.6443329,12.012 29.3154314,12.2009113 29.1362211,12.508129 L22.1362211,24.508129 C21.7473381,25.1747856 22.2282092,26.012 23,26.012 L25.381966,26.012 L21.1055728,34.5647864 Z M37.2768203,14.012 L34.1317569,19.5158611 C33.7508101,20.1825178 34.2321773,21.012 35,21.012 L36.3154578,21.012 L31.1221044,30.5331479 C30.7586273,31.1995225 31.2409409,32.012 32,32.012 L32.9553606,32.012 L24.0390802,43.4757891 L26.9417419,35.3483364 C27.1743292,34.697092 26.6915317,34.012 26,34.012 L23.618034,34.012 L27.8944272,25.4592136 C28.2268777,24.7943125 27.743382,24.012 27,24.012 L24.741037,24.012 L30.5743703,14.012 L37.2768203,14.012 Z"/></g></g></g></svg>