<svg xmlns="http://www.w3.org/2000/svg" xmlns:xlink="http://www.w3.org/1999/xlink" version="1.1" x="0px" y="0px" width="100px" height="100px" viewBox="0 0 100 100" enable-background="new 0 0 100 100" xml:space="preserve">
<g id="Captions">
</g>
<g id="Your_Icon">
	<path fill-rule="evenodd" clip-rule="evenodd" d="M29.451,18.385C30.581,7.643,40.203-0.149,50.945,0.979   c10.74,1.13,18.533,10.752,17.403,21.494c-1.128,10.741-10.751,18.534-21.493,17.404C36.115,38.749,28.322,29.127,29.451,18.385z    M49.921,22.323c0.07,0.045,0.039,0.282-0.231,0.636c-0.122,0.158-0.328,0.291-0.568,0.412c-0.164,0.082-0.38,0.134-0.61,0.169   c-0.232,0.003-0.45-0.019-0.668-0.065c-0.263-0.09-0.532-0.2-0.777-0.377c-0.341-0.246-0.647-0.578-0.957-0.972   c-0.15-0.264-0.267-0.532-0.354-0.827c-0.052-0.307-0.068-0.644-0.05-0.945c0.081-0.438,0.213-0.851,0.378-1.227   c0.293-0.507,0.653-0.988,1.093-1.455c0.315-0.279,0.696-0.553,1.11-0.777c0.392-0.155,0.768-0.26,1.169-0.328   c0.488-0.024,0.96,0.004,1.43,0.082c0.619,0.179,1.199,0.422,1.753,0.725c0.644,0.453,1.221,0.962,1.752,1.551   c0.317,0.452,0.569,0.9,0.78,1.393c0.167,0.555,0.267,1.105,0.31,1.665c-0.03,0.713-0.146,1.418-0.333,2.088   c-0.331,0.81-0.742,1.558-1.234,2.257c-0.543,0.623-1.146,1.19-1.83,1.698c-0.598,0.341-1.254,0.623-1.915,0.824   c-0.742,0.134-1.471,0.183-2.201,0.154c-0.938-0.148-1.805-0.393-2.642-0.73c-0.914-0.495-1.788-1.107-2.57-1.798   c-0.616-0.671-1.158-1.403-1.635-2.244c-0.307-0.738-0.535-1.505-0.682-2.292c-0.067-0.94-0.029-1.855,0.107-2.763   c0.281-1.053,0.669-2.041,1.16-2.983c0.645-0.964,1.391-1.851,2.25-2.673c0.716-0.553,1.532-1.058,2.375-1.461   c0.92-0.319,1.899-0.539,2.868-0.647c1.143,0.006,2.277,0.146,3.333,0.396c1.262,0.458,2.41,1.035,3.485,1.738   c0.598,0.471,1.163,0.978,1.675,1.499c0.361,0.411,0.721,0.863,1.021,1.286c0.566,0.95,1.021,1.957,1.368,3.038   c0.229,1.194,0.313,2.348,0.272,3.504c-0.184,1.237-0.51,2.474-0.956,3.642c-0.677,1.311-1.482,2.509-2.419,3.608   c-0.934,0.887-1.954,1.671-3.082,2.348c-1.092,0.492-2.259,0.867-3.431,1.106c-1.294,0.116-2.564,0.088-3.823-0.073   c-1.454-0.355-2.854-0.877-4.14-1.522c-1.29-0.838-2.479-1.813-3.516-2.871c-0.843-1.062-1.537-2.161-2.13-3.379   c-0.432-1.217-0.729-2.474-0.891-3.755c-0.021-1.503,0.134-2.997,0.446-4.439c0.523-1.546,1.22-3.02,2.045-4.363   c1.044-1.339,2.232-2.551,3.53-3.602c1.201-0.763,2.48-1.389,3.843-1.878c1.473-0.344,2.947-0.514,4.432-0.523   c1.616,0.172,3.177,0.518,4.69,1.027c1.604,0.746,3.112,1.669,4.47,2.723c1.243,1.203,2.361,2.553,3.31,4.024   c0.659,1.348,1.168,2.759,1.525,4.237c0.202,1.598,0.228,3.185,0.086,4.763c-0.375,1.819-0.958,3.58-1.717,5.222   c-1.002,1.649-2.157,3.137-3.471,4.485c-1.251,1.039-2.601,1.943-4.039,2.693c-1.607,0.617-3.253,1.04-4.954,1.278   c-1.81,0.041-3.63-0.127-5.399-0.489c-1.903-0.625-3.686-1.448-5.362-2.465c-1.512-1.163-2.889-2.479-4.117-3.936   c-0.954-1.423-1.75-2.941-2.38-4.551c-0.463-1.742-0.725-3.506-0.791-5.286c0.145-1.927,0.501-3.808,1.057-5.637   c0.842-1.943,1.886-3.748,3.126-5.422c1.44-1.541,2.941-2.974,4.606-3.96c1.809-1.07,3.755-1.795,5.59-2.138   c2.037-0.382,4.05-0.408,5.811-0.126c2.15,0.345,4.034,0.988,5.494,1.808c2.083,1.17,3.508,2.455,4.318,3.356   c0.75,0.832,1.066,1.365,1.02,1.404c-0.048,0.039-0.457-0.414-1.276-1.148c-0.886-0.796-2.332-1.927-4.388-2.944   c-1.426-0.706-3.259-1.24-5.29-1.483c-1.663-0.2-3.553-0.108-5.438,0.31c-1.698,0.376-3.47,1.099-5.107,2.132   c-1.513,0.956-2.848,2.3-4.143,3.759c-1.104,1.569-2.021,3.254-2.728,5.003c-0.467,1.668-0.751,3.376-0.842,5.087   c0.094,1.587,0.359,3.153,0.793,4.661c0.57,1.38,1.295,2.701,2.155,3.936c1.114,1.273,2.356,2.418,3.713,3.421   c1.504,0.873,3.095,1.571,4.716,2.068c1.546,0.291,3.094,0.407,4.662,0.348c1.418-0.223,2.82-0.606,4.149-1.142   c1.206-0.654,2.333-1.436,3.373-2.329c1.115-1.182,2.09-2.481,2.889-3.842c0.645-1.451,1.104-2.922,1.392-4.436   c0.099-1.309,0.059-2.619-0.122-3.892c-0.294-1.159-0.72-2.3-1.266-3.386c-0.782-1.184-1.697-2.264-2.742-3.254   c-1.177-0.89-2.402-1.616-3.7-2.2c-1.235-0.4-2.507-0.667-3.772-0.787c-1.181,0.02-2.352,0.169-3.472,0.443   c-1.021,0.376-2.016,0.874-2.948,1.479c-1.043,0.868-1.963,1.828-2.77,2.885c-0.673,1.125-1.194,2.269-1.585,3.463   c-0.232,1.129-0.338,2.248-0.314,3.371c0.127,0.955,0.355,1.891,0.685,2.795c0.431,0.869,0.985,1.729,1.596,2.48   c0.85,0.852,1.745,1.568,2.711,2.186c1.038,0.511,2.072,0.883,3.143,1.136c0.921,0.112,1.851,0.125,2.746,0.04   c0.835-0.175,1.619-0.431,2.395-0.784c0.781-0.472,1.522-1.05,2.202-1.7c0.706-0.838,1.312-1.752,1.794-2.703   c0.315-0.842,0.534-1.685,0.663-2.574c0.026-0.805-0.038-1.607-0.181-2.339c-0.219-0.689-0.526-1.376-0.911-2.023   c-0.233-0.325-0.449-0.591-0.694-0.87c-0.386-0.396-0.776-0.746-1.187-1.072c-0.779-0.513-1.61-0.935-2.431-1.236   c-0.769-0.188-1.497-0.281-2.23-0.29c-0.622,0.063-1.206,0.188-1.801,0.387c-0.531,0.247-1.011,0.534-1.504,0.904   c-0.578,0.533-1.116,1.149-1.584,1.822c-0.347,0.636-0.625,1.306-0.818,1.977c-0.101,0.576-0.138,1.159-0.111,1.717   c0.074,0.467,0.197,0.926,0.369,1.368c0.248,0.475,0.585,0.96,0.973,1.408c0.528,0.498,1.09,0.923,1.72,1.292   c0.543,0.242,1.111,0.424,1.648,0.528c0.432,0.035,0.865,0.025,1.273-0.031c0.387-0.098,0.739-0.229,1.098-0.41   c0.432-0.292,0.849-0.646,1.229-1.042c0.36-0.458,0.669-0.953,0.909-1.463c0.141-0.41,0.232-0.812,0.275-1.225   c-0.004-0.309-0.04-0.616-0.104-0.899c-0.096-0.275-0.23-0.557-0.372-0.789c-0.318-0.409-0.694-0.795-1.1-1.128   c-0.342-0.227-0.707-0.418-1.077-0.559c-0.257-0.069-0.521-0.11-0.774-0.122c-0.207,0.014-0.43,0.052-0.616,0.105   c-0.229,0.096-0.447,0.219-0.688,0.395c-0.328,0.282-0.621,0.595-0.856,0.906c-0.141,0.236-0.246,0.463-0.321,0.69   c-0.035,0.173-0.051,0.313-0.047,0.481c0.019,0.144,0.058,0.295,0.11,0.432c0.163,0.285,0.344,0.559,0.54,0.768   c0.133,0.141,0.286,0.244,0.424,0.329c0.112,0.055,0.232,0.097,0.345,0.123c0.135,0.013,0.263,0.021,0.386,0   c0.196-0.034,0.371-0.075,0.491-0.142C49.684,22.407,49.852,22.277,49.921,22.323z"/>
	<line stroke="#000000" stroke-width="3" stroke-miterlimit="3.8636" x1="48.675" y1="40.069" x2="45.488" y2="100"/>
</g>
</svg>
