<svg xmlns="http://www.w3.org/2000/svg" xmlns:xlink="http://www.w3.org/1999/xlink" version="1.1" x="0px" y="0px" viewBox="0 0 48 48" enable-background="new 0 0 48 48" xml:space="preserve"><g><path fill="none" stroke="#000000" stroke-width="2" stroke-linecap="round" stroke-linejoin="round" stroke-miterlimit="10" d="   M34.002,7.822l4.177-0.436c0,0,2.145-4.938-1.493-6.387L6.3,1.772"></path><path fill="none" stroke="#000000" stroke-width="2" stroke-linecap="round" stroke-linejoin="round" stroke-miterlimit="10" d="   M36.113,14.048c-1.434-3.544-2.374-6.124-2.374-6.124L9.232,10.087c0,0,3.083-6.268-1.544-8.106   C4.065,0.542,2.175,5.832,2.88,9.498c1.282,6.669,13.461,27.712,13.461,31.646S13.195,47,13.195,47l29.721-5.77   c0,0,4.981-4.196,0.438-11.801c-0.729-1.222-1.473-2.603-2.205-4.063"></path><g><path fill="none" stroke="#000000" stroke-width="2" stroke-linecap="round" stroke-linejoin="round" stroke-miterlimit="10" d="    M34.682,27.313c3.353,0.837,6.761-1.236,7.606-4.629c0.849-3.393-1.186-6.821-4.538-7.658c-3.354-0.836-6.759,1.236-7.606,4.63    C29.297,23.049,31.327,26.477,34.682,27.313z"></path><polyline fill="none" stroke="#000000" stroke-width="2" stroke-linecap="round" stroke-linejoin="round" stroke-miterlimit="10" points="    34.044,27.837 34.355,36.868 37.016,34.319 40.625,36.093 37.891,28.113   "></polyline><polyline fill="none" stroke="#000000" stroke-width="2" stroke-linecap="round" stroke-linejoin="round" stroke-miterlimit="10" points="    31.022,26.401 26.244,30.405 29.056,31.582 29.332,35.614 33.658,29.381   "></polyline></g></g></svg>