<svg fill="#000000" xmlns="http://www.w3.org/2000/svg" xmlns:xlink="http://www.w3.org/1999/xlink" version="1.1" x="0px" y="0px" viewBox="0 0 100 100" enable-background="new 0 0 100 100" xml:space="preserve"><path fill="#000000" d="M20.302,20.302c16.376-16.376,43.021-16.376,59.397,0s16.376,43.021,0,59.397s-43.021,16.376-59.397,0  S3.926,36.677,20.302,20.302z M76.87,76.87c14.816-14.816,14.816-38.924,0-53.74s-38.924-14.816-53.74,0s-14.816,38.924,0,53.74  S62.054,91.686,76.87,76.87z"/><path fill="#000000" d="M34.62,30.024c0.107-0.107,0.23-0.204,0.363-0.287c0.788-0.487,1.809-0.369,2.465,0.287l12.728,12.728  l12.728-12.728c0.656-0.656,1.677-0.774,2.465-0.287c0.789,0.488,1.14,1.454,0.846,2.334L52.074,74.498  c-0.273,0.819-1.038,1.368-1.898,1.368c-0.86,0-1.626-0.551-1.898-1.368L34.136,32.071C33.894,31.34,34.094,30.551,34.62,30.024z   M59.743,38.843l-8.152,8.152c-0.781,0.781-2.048,0.781-2.828,0l-8.152-8.152l9.566,28.697L59.743,38.843z"/></svg>