<svg fill="#000000" xmlns="http://www.w3.org/2000/svg" xmlns:xlink="http://www.w3.org/1999/xlink" version="1.0" x="0px" y="0px" viewBox="0 0 100 100" enable-background="new 0 0 100 100" xml:space="preserve"><path d="M95.9,60.3c-0.4-0.4-1-0.9-2.1-0.9c-0.7-1-1.4-2-2.4-2.9c0.1-0.2,0.1-0.5,0.1-0.7c0-0.2,0-0.5,0.1-0.9  c0-0.3,0.1-0.7,0.1-1.2c0.2,0,0.3,0.1,0.5,0.1c0,0,0,0,0,0c0.7,0,1.4-0.3,2.2-0.9C96.8,51.3,98,45,97.3,41c-0.3-1.4-0.8-2.6-1.5-3.5  c0.1-3.1-0.1-6.8-0.2-11.1L95.4,23h0c0-2-1.3-5.5-4-8.4C84.4,6.9,67.7,2.5,66.1,2.3l-0.2,0l-0.2,0c-9.1,1-9.5,3.1-9.7,3.8  c-0.1,0.6-0.5,2.1-0.6,2.4c-0.9,3.5-1,12.5,2.3,13.8c0.7,0.3,1.9,0.5,4.1,0.9c2.9,0.5,7.3,1.4,11.4,2.6c-2.1,0.3-4.4,0.5-7.2,0.5  c-8.6,0-19.3-1.6-27.6-2.9C29.3,22,22.8,17.9,19,15.4c-1.9-1.2-3.2-2-4.2-2.2c-0.3-0.1-0.6-0.1-0.9-0.1c-1.3,0-5.5,0.6-7.3,2.1  c-0.1,0-0.2,0.1-0.4,0.2c-0.5,0.3-1.9,1.2-1.7,11.1c0.1,2.9,0.4,9.8,1.9,12.1c0.3,0.5,1.1,1.1,2.3,2C8,42.7,8.1,44.8,9,46.6  c1.2,2.3,2.6,3.4,4.5,3.4c0.6,0,1.2-0.1,1.7-0.3c0.4-0.1,0.9-0.2,1-0.1c0.3,0.1,0.7,0.5,1.2,0.9c1,0.9,2.5,2.2,5,2.2c0,0,0,0,0,0  c0.3,0,0.5,0,0.8,0c0.4,0,0.9-0.2,1.3-0.6c1.1,2.2,2.4,3.3,4.2,3.3c0.6,0,1.2-0.1,1.6-0.3c0.3-0.1,0.6-0.2,0.8-0.2h0  c0.3,0,0.6,0.5,1,0.8c1,0.9,2.3,2.2,4.6,2.2c0,0,0,0,0,0c0.2,0,0.5,0,0.8,0c0.7-0.1,1.5-0.7,2.1-1.5c1.8,4.1,6.5,5.8,6.7,5.8  l0.5,0.2l0.5-0.2c0.1-0.1,2.6-1,4.3-3.1c2,1.7,5.6,1.9,9.1,1.9c0.5,0,0.9,0,1.2,0l0.1,0c0,0,0,0,0,0c0.5,0,1-0.2,1.4-0.6  c0.1,0.1,0.2,0.2,0.3,0.3c0.1,0.1,0.2,0.1,0.3,0.2c0.4,0.7,0.8,1.2,1.4,1.4c0.6,0.2,1.4,0.4,2.5,0.7c1.1,0.3,2.6,0.7,4.2,1.2  c-0.9,0.1-1.5,0.3-1.6,0.3l-0.7,0.1l-0.3,0.6c0,0.1-0.1,0.2-0.1,0.2c-0.1-0.1-0.2-0.2-0.2-0.2c-0.8-0.6-2.2-0.9-4.2-0.9  c-2.9,0-6.4,0.6-6.5,0.7l-0.6,0.1l-0.4,0.5c-0.2,0.3-0.3,0.6-0.5,0.9c-1.5-1.2-3.7-2.7-4-3l-0.4-0.3l-0.5,0c-2.3,0.1-3.8,1-4.7,2.1  c-0.7-0.8-1.6-1.2-2.6-1.2c-0.5,0-1,0.1-1.4,0.2c-0.2,0-0.4,0.1-0.5,0.1c-0.2-0.1-0.5-0.3-0.7-0.6c-0.8-0.8-2.1-1.9-4.6-1.7  c-0.2,0-0.4,0.1-0.5,0.2c-0.1-0.2-0.1-0.4-0.2-0.6c-1-2.1-2.3-3.1-3.9-3.1c-0.6,0-1.1,0.1-1.5,0.2c-0.2,0.1-0.5,0.1-0.6,0.1  c-0.2-0.1-0.5-0.4-0.9-0.7c-0.9-0.9-2.3-2.3-5-2c-0.4,0-0.7,0.2-1.1,0.5c-1-1.8-2.3-2.7-3.9-2.7c-0.6,0-1.2,0.3-1.6,0.4  c-0.3,0.1-0.6,0.4-0.8,0.4c0,0,0,0,0,0c-0.3-1-0.6-0.7-1-1c-1.1-1-2.5-2.7-5.4-2.3c-1.2,0.1-2.4,1.6-3.3,3.5  c-0.5-0.2-1.1-0.1-1.5,0.2c-0.5,0.3-1.9,1.2-1.7,11.1c0.1,2.9,0.4,9.8,1.9,12.1c2.2,3.3,28.7,17.2,57.4,17.2c7.6,0,15.4-1,22.9-3.4  c8.6-2.8,9.5-7.2,9.2-19c0.4-0.5,0.8-1.1,1-2C98.2,67.7,97.2,61.7,95.9,60.3z M88.6,54.6c0,0.3,0,0.6-0.1,0.9  c-0.7,0.8-4.1,2.5-6.7,2.5c-0.7,0-1.1-0.1-1.5-0.3c0-0.2,0-0.4,0-0.6c-0.1-1.4-0.2-2.8-0.3-4c-0.2-2.6-0.3-4.9-0.7-6.9  c0.3-1.8,0.8-3.4,1.7-4.5c0.6-0.7,1.2-1.1,1.9-1.1c0.2,0,0.3,0,0.4,0c1.3,0,2.4,0.4,3.2,1.3C89.3,44.9,88.8,52,88.6,54.6z   M77.1,53.3c0.1,1.3,0.2,2.6,0.3,4.1c0,0.3-0.1,0.5-0.3,0.7c-0.8,0.9-3.2,1.5-6,1.5c-2.7,0-4.9-0.6-5.6-1.2  c-0.3-0.3-0.6-1.1-0.7-2.2c0.1-1.4,0.1-3.1-0.1-4.8c0.1-1.7,0.5-3.6,1.1-5.3c1.1-2.8,2.6-4.2,4.5-4.2c0.1,0,0.1,0,0.2,0  C76.2,42.3,76.5,44.6,77.1,53.3z M79,60.4c0.8,0.4,1.7,0.6,2.8,0.6c0,0,0,0,0,0c1.8,0,4-0.6,6.1-1.6c0.5-0.2,0.9-0.5,1.3-0.7  c0.5,0.5,0.9,1,1.3,1.6c-1,0.5-1.7,1-2,1.2l-0.3,0.2L88.1,62c-0.1,0.1-0.1,0.3-0.2,0.4c-0.2,0-0.5-0.1-0.7-0.1  c-2.5,0-6.2,1.7-7.2,2.2c-1.6-1-3.3-1.7-4.9-2.3C76.6,61.9,78,61.3,79,60.4z M81.6,67.5c0-0.1,0.1-0.3,0.1-0.4  c1.6-0.7,4.2-1.7,5.5-1.7c0.1,0,0.2,0,0.3,0c0.6,0.8,1.7,4.6,0.9,7.7c-0.5,1.7-1.4,2.8-2.9,3.2c-0.3,0.1-0.5,0.1-0.7,0.1  c-0.7,0-1.4-0.5-2-1.5c-0.2-0.4-0.4-0.7-0.5-1.2C82.5,71.6,82.2,69.2,81.6,67.5z M90.4,64.6c0.1-0.4,0.2-0.7,0.3-1  c0.9-0.6,2.2-1.2,3-1.3c0.6,1.1,1.4,5.7,0.3,8.4c-0.5,1.2-1.1,1.4-1.6,1.5c-0.1,0-0.2,0-0.3,0c-0.1,0-0.3,0-0.5-0.1  C91.9,69.5,91.3,66.5,90.4,64.6z M92.8,50.3c0,0-0.1,0.1-0.1,0.1c-0.1-0.3-0.2-0.5-0.2-0.8c-0.2-0.6-0.4-1.4-0.7-2.3  c-0.1-0.2-0.1-0.3-0.2-0.5c-0.1-0.8-0.2-1.6-0.5-2.3c-0.2-2.2,0-4.4,0.7-5.4c0.2-0.3,0.3-0.3,0.4-0.3c0.1,0,0.1,0,0.2,0  c0.9,0.2,1.6,1,1.9,2.5C95.1,44.9,93.6,49.7,92.8,50.3z M62.5,20.4c-1.5-0.3-3-0.6-3.5-0.7c-0.3-0.4-1-2.1-1.1-5.4  c-0.1-2.1,0.2-3.7,0.4-4.7c1.1,0.5,2.6,1,4.7,1.6c2.2,0.7,5.3,1.7,9.3,3.1c8.9,3.1,9.6,6,9.6,6.8c0,1.2-1.4,2.6-3.6,3.6  C73.2,22.4,66.8,21.2,62.5,20.4z M13.8,16.1c0.1,0,0.2,0,0.3,0c0.5,0.1,1.9,1,3.2,1.8c4.1,2.6,10.8,7,20.7,8.6  c8.5,1.4,19.3,3,28.1,3c5.3,0,9.3-0.5,12.4-1.7c4.1-1.5,6.5-4,6.4-6.8c0-2.5-2.1-6.3-11.7-9.6C69.2,10,66.2,9,63.9,8.3  c-2-0.6-3.6-1.2-4.5-1.5c1.2-0.5,3.8-1.1,6.4-1.4c2.7,0.5,17.6,5,23.3,11.4c1.7,1.9,3.7,4.8,3.2,7.5c-0.4,2.2-2.4,4.2-5.9,5.9  c-3.4,1.7-9.7,2.6-18.1,2.6c-9,0-19.9-1.1-29.7-2.9c-16.2-3-26.7-9.7-29.4-12.7C10.3,16.7,12.4,16.1,13.8,16.1z M22.8,49.7  c-0.1,0-0.2,0-0.4,0c0,0,0,0,0,0c-1.4,0-2.1-0.6-3-1.4c-0.7-0.6-1.3-1.2-2.3-1.5c-0.3-0.1-0.7-0.2-1.1-0.2c-0.6,0-1.1,0.1-1.6,0.2  c-0.4,0.1-0.8,0.2-1.1,0.2c-0.3,0-0.9,0-1.8-1.8c-0.7-1.4-0.5-3.5,0.6-5.3c1.1-1.9,3.5-3.9,6.5-3.6c3.6,0.4,5.8,1.9,6.3,4.6  C25.9,44.6,23.7,49,22.8,49.7z M36.9,55c-0.1,0-0.2,0-0.2,0c0,0,0,0,0,0c-1.1,0-1.7-0.5-2.5-1.3c-0.6-0.5-1.2-1.2-2.1-1.5  c-0.3-0.1-0.7-0.2-1-0.2c-0.5,0-1,0.1-1.5,0.2c-0.3,0.1-0.6,0.2-0.9,0.2c-0.2,0-0.7,0-1.5-1.6c-0.3-0.6-0.4-1.2-0.4-1.9  c0.5-1,0.9-2.2,1.1-3.4c1.3-2.1,3.4-3.2,5.5-3c3.1,0.3,4.9,1.7,5.5,4C39.7,49.9,37.8,54.2,36.9,55z M46.7,59.2  c-1.1-0.5-3.8-2-4.6-4.5c-0.7-2.3,0.4-7,2.3-9.6c0.7-0.9,1.4-1.5,1.9-1.5c0,0,0.1,0,0.1,0c3.3,0.4,4,3.7,3.9,7.9  c-0.2,1.2-0.3,2.4-0.3,3.6C49.8,57.4,47.7,58.7,46.7,59.2z M61.4,58c-0.2,0-0.5,0-0.7,0c-1.9,0-6,0-7.3-1.2  c-0.2-0.2-0.3-0.8-0.3-1.6c0.1-1,0.2-2.2,0.3-3.6c0.2-1.2,0.6-2.5,1.1-3.6c0.5-1.1,1.5-2.4,2.7-2.4c0.2,0,0.3,0,0.5,0.1  c1.6,0.4,2.7,1.6,3.5,3.7C62.4,52.8,61.9,56.8,61.4,58z M58.4,42.8c-0.4-0.1-0.8-0.2-1.2-0.2c-1.8,0-3.4,1-4.6,2.8  c-0.9-2.4-2.6-4.4-5.8-4.8c-0.2,0-0.3,0-0.5,0c-1.1,0-2.7,0.5-4.4,2.7c-0.2,0.3-0.5,0.7-0.7,1c-1.2-2.7-3.8-4.4-7.5-4.8  c-2-0.2-3.9,0.3-5.6,1.5c-0.6-4.3-3.8-7.1-9.1-7.6c-0.3,0-0.6-0.1-1-0.1c-3.1,0-6.2,1.7-8.1,4.5c-0.6-0.4-1-0.7-1.2-1  c-1.2-1.9-1.7-12.2-1.2-17c1.8,1.7,4.7,3.7,8.3,5.5c4.5,2.3,12,5.5,22.1,7.4c10,1.9,21.1,3,30.3,3c6.2,0,14.6-0.5,19.4-2.9  c1.6-0.8,3-1.7,4.1-2.7c0,0,0,0.1,0,0.1c0,0.1,0,0.1,0,0.2c0.3-0.3,0.5-0.5,0.7-0.8c0.1,2.3,0.1,4.4,0.1,6.1  c-1.4-0.2-2.6,0.3-3.5,1.5c-0.4,0.6-0.7,1.4-1,2.2c-1.5-1.3-3.3-1.9-5.6-1.8c-1.6,0.1-3,0.9-4.1,2.2c-0.4,0.5-0.8,1.2-1.1,1.9  c-1.3-1.7-3.4-2.7-6.8-2.9c-3.5-0.2-6.2,2.1-7.8,6.4c-0.1,0.2-0.1,0.4-0.2,0.6C61.8,44.5,60.4,43.3,58.4,42.8z M71.8,67.4  c1-0.2,2.9-0.5,4.4-0.5c1.5,0,1.9,0.3,1.9,0.3c0.6,0.7,1.8,5.1,0.7,8.1c-0.6,1.8-1.8,2.2-2.6,2.3c-0.2,0-0.3,0-0.5,0  c-0.4,0-1.7,0-2.8-2C71.5,73,71.4,69.1,71.8,67.4z M59.6,67.9c1.1-0.2,3.4-0.5,5.3-0.5c1.9,0,2.4,0.3,2.4,0.3  c0.6,0.5,1.8,4.3,0.9,7.2c-0.5,1.6-1.6,2.5-3.2,2.7c-0.2,0-0.4,0-0.6,0c-1.6,0-2.9-0.9-3.8-2.6C59.2,72.6,59.1,69.4,59.6,67.9z   M51.6,66.4c1.1,0.8,3.2,2.3,4,3c0.3,1,0.1,4.9-1.4,7.2c-0.7,1.1-1.3,1.1-1.5,1.1c-0.1,0-0.2,0-0.4,0c-1.2-0.2-2.1-0.9-2.8-2.1  c-0.7-1.1-1-2.5-1.2-3.6c0.4-1.1,0.5-2.2,0.4-3.3C49.1,67.6,49.8,66.7,51.6,66.4z M38,65.3c0.8,0,1.3,0.3,2,0.9  c0.5,0.4,1,0.9,1.8,1.2c0.7,0.2,1.5,0.1,2.1,0c0.3-0.1,0.5-0.1,0.7-0.1c0.3,0,0.6,0.4,1,1.1c0.5,0.9,0.3,2.3-0.5,3.5  c-0.7,1.2-2.1,2.4-3.9,2.4h0c-0.1,0-0.3,0-0.4,0c-2.4-0.3-3.8-1.2-4.2-2.8C35.9,69,37.3,66,38,65.3z M25.3,59.4  c1-0.1,1.5,0.4,2.4,1.2c0.5,0.5,1.1,1.1,1.9,1.4c0.7,0.3,1.7,0.1,2.3,0c0.3-0.1,0.6-0.1,0.8-0.1c0.4,0,0.8,0.5,1.2,1.4  c0.6,1.2,0.3,3.1-0.6,4.7c-1.2,1.9-3,2.9-4.9,2.7c-2.7-0.3-4.3-1.5-4.9-3.5c-0.2-0.6-0.2-1.3-0.2-2c0.8-1.5,1.2-3.1,1.2-4.6  C24.8,60,25.1,59.6,25.3,59.4z M11.5,54.6c1.2-0.1,1.8,0.4,2.7,1.3c0.6,0.5,1.2,1.2,2.1,1.5c0.8,0.3,1.8,0.1,2.5-0.1  c0.3-0.1,0.6-0.2,0.9-0.2c0.2,0,0.7,0,1.5,1.6c0.7,1.4,0.4,3.5-0.7,5.2c-1.2,1.9-3.1,3.1-5,3.1c0,0,0,0,0,0c-0.2,0-0.4,0-0.5,0  c-3.1-0.3-4.9-1.7-5.5-4C8.7,59.7,10.6,55.4,11.5,54.6z M85.8,89.6c-7.3,2.3-14.8,3.3-22.1,3.3c-27.9,0-53.1-13.6-54.8-15.9  C8.1,75.7,7.6,70.6,7.5,66c1.3,2.2,3.8,3.6,7.1,4c0.3,0,0.6,0,0.9,0c0,0,0,0,0,0c1.9,0,3.7-0.7,5.2-1.9c0.9,3,3.5,4.9,7.3,5.3  c0.3,0,0.5,0,0.8,0c0,0,0,0,0,0c1.7,0,3.3-0.6,4.7-1.6c0.7,3,3.1,4.9,6.8,5.3c0.2,0,0.5,0,0.7,0c0,0,0,0,0,0c1.8,0,3.5-0.7,4.9-2  c0.2,0.6,0.5,1.3,0.9,1.9c1.1,1.8,2.8,3,4.7,3.4c0.3,0.1,0.7,0.1,1,0.1c1.2,0,3.5-0.5,5-4.2c0.1-0.1,0.1-0.3,0.1-0.4  c0,0.1,0.1,0.2,0.1,0.3c1.5,2.7,3.8,4.2,6.5,4.2c0,0,0,0,0,0c0.3,0,0.6,0,1-0.1c2.3-0.3,4.1-1.5,5.1-3.4c1.3,2.2,3.2,3.4,5.4,3.4h0  c0.3,0,0.6,0,0.9-0.1c1.9-0.3,3.4-1.3,4.3-2.9c1.3,1.4,2.7,1.8,3.7,1.8c0.5,0,1.1-0.1,1.6-0.3c2.1-0.6,3.6-2,4.4-4  c0.4,0.1,0.8,0.2,1.2,0.2c0,0,0,0,0,0c0.3,0,0.6,0,0.9-0.1C93.1,85.3,92,87.6,85.8,89.6z"/></svg>