<svg fill="#000000" xmlns="http://www.w3.org/2000/svg" xmlns:xlink="http://www.w3.org/1999/xlink" version="1.1" x="0px" y="0px" viewBox="0 0 100 100" enable-background="new 0 0 100 100" xml:space="preserve"><path d="M52.024,18.695c0.143,0.023,0.283,0.034,0.421,0.034c3.205,0,4.653-5.875,4.808-6.545c0.033-0.144,0.001-0.294-0.088-0.413  c-0.088-0.118-0.225-0.191-0.372-0.199c-4.245-0.236-6.832-5.415-6.857-5.467c-0.09-0.183-0.274-0.296-0.485-0.279  c-2.04,0.145-2.169,5.672-2.124,8.117C48.115,18.576,51.699,18.693,52.024,18.695z M49.273,6.986  c0.732,1.293,3.115,4.965,6.863,5.523c-0.543,1.929-1.929,5.529-3.952,5.198c-0.026-0.004-0.083-0.006-0.109-0.006  c-0.317,0-3.113-0.11-3.755-3.851C48.268,10.669,48.702,7.703,49.273,6.986z M64.403,48.664L62.12,26.66  c0.136-2.435-1.78-4.149-3.806-5.277c1.425-2.635,1.747-7.786,1.76-8.06c-0.23-4.526-1.552-7.732-3.925-9.527  c-2.85-2.154-6.126-1.438-6.234-1.412C49.812,2.4,47.374,2.83,45.813,5.053c-1.18,1.68-1.527,3.9-1.03,6.611  c0.003,0.017,0.328,1.655-0.713,2.79c-0.927,1.01-2.652,1.374-5.124,1.081c-0.042-0.005-0.087-0.005-0.13,0.001  c-0.085,0.012-2.088,0.313-2.909,1.64c-0.393,0.636-0.452,1.378-0.176,2.206c0.084,0.254,0.354,0.396,0.611,0.323l1.775-0.507  c-0.704,2.542-0.805,6.578,2.74,8.249l-2.209,21.356c-0.014,0.141,0.031,0.281,0.126,0.386c0.095,0.105,0.229,0.165,0.371,0.165  h0.256c0.553,0.814,1.273,2.125,1.203,2.765c-0.005,0.044-0.382,4.37,1.209,4.991c0.261,0.102,0.485,0.123,0.678,0.105  c0.033,0.075,0.089,0.138,0.153,0.188l-1.827,34.332c-0.005,0.101,0.02,0.201,0.073,0.287c0.023,0.038,0.314,0.505,0.817,0.964  l-1.143,3.961c-0.044,0.155-0.012,0.322,0.088,0.449c0.095,0.12,0.24,0.189,0.392,0.189c0.008,0,0.016,0,0.024-0.001  c0.137-0.006,3.368-0.185,4.382-2.2c0.426-0.848,0.514-1.538,0.26-2.053c-0.02-0.039-0.047-0.062-0.069-0.097  c0.559-0.418,1.101-1.031,1.621-1.843c0.021-0.033,0.039-0.068,0.052-0.105c0.059-0.171,0.08-0.556,0.221-4.115  c1.134-28.515,2.662-34.842,3.759-35.116c0.146,0.078,0.339,0.066,0.487-0.012c1.082,0.285,2.61,6.609,3.747,35.123  c0.142,3.564,0.163,3.949,0.222,4.12c0.014,0.037,0.03,0.072,0.052,0.105c0.46,0.717,0.937,1.271,1.427,1.683  c-0.073,0.108-0.141,0.235-0.191,0.386c-0.199,0.587-0.097,1.291,0.306,2.091c1.013,2.016,4.244,2.194,4.381,2.2  c0.009,0.001,0.017,0.001,0.024,0.001c0.153,0,0.299-0.07,0.394-0.191c0.1-0.127,0.132-0.296,0.086-0.451l-1.155-3.895  c0.674-0.52,1.075-1.148,1.103-1.193c0.053-0.087,0.078-0.187,0.072-0.287l-1.827-34.332c0.063-0.051,0.119-0.112,0.152-0.188  c0.189,0.019,0.417-0.003,0.679-0.105c1.592-0.621,1.214-4.947,1.209-4.99c-0.071-0.641,0.65-1.951,1.203-2.766h0.256  c0.007,0.001,0.015,0,0.02,0c0.276,0,0.5-0.224,0.5-0.5C64.439,48.786,64.427,48.722,64.403,48.664z M39.353,18.638  c0.069-0.177,0.031-0.377-0.097-0.518c-0.127-0.14-0.323-0.193-0.506-0.144l-2.178,0.622c-0.038-0.337,0.023-0.632,0.185-0.895  c0.455-0.739,1.645-1.083,2.141-1.168c2.78,0.319,4.771-0.158,5.917-1.415c1.385-1.521,0.964-3.577,0.948-3.649  c-0.443-2.417-0.154-4.379,0.86-5.831c1.313-1.881,3.436-2.266,3.485-2.275c0.029-0.006,2.956-0.647,5.438,1.229  c2.127,1.609,3.314,4.563,3.53,8.726c-0.003,0.052-0.321,5.17-1.649,7.604c-1.797-0.854-3.456-1.253-3.609-1.29  c-0.166-0.038-0.336,0.008-0.459,0.125c-0.122,0.116-0.178,0.286-0.147,0.451c0.019,0.104,1.827,10.368-1.636,13.593  c-0.015,0.014-0.029,0.029-0.043,0.044c-0.013-0.016-0.027-0.03-0.042-0.044c-3.46-3.223-1.655-13.489-1.637-13.593  c0.03-0.166-0.026-0.335-0.148-0.452c-0.122-0.115-0.293-0.161-0.458-0.124c-0.345,0.081-8.3,2.012-8.289,6.724  C37.245,24.246,39.262,18.873,39.353,18.638z M57.489,37.943c-0.028-0.072-0.072-0.136-0.13-0.188  c-0.569-0.518,0.171-2.234,1.084-3.7l1.104,11.681c-0.015-0.007-0.021-0.023-0.037-0.029c-0.18-0.072-0.387-0.035-0.528,0.098  c-0.025,0.023-2.699,2.46-7.303,2.286v0.003c-0.031-0.004-0.047,0.004-0.092-0.007l-0.055,0.498l-0.094-0.499  c-0.037-0.001-0.078,0-0.116,0.006c-4.572,0.145-7.214-2.265-7.239-2.289c-0.142-0.132-0.348-0.168-0.528-0.097  c-0.016,0.006-0.023,0.022-0.038,0.03l1.104-11.684c0.914,1.465,1.655,3.182,1.083,3.701c-0.057,0.052-0.101,0.116-0.129,0.188  c-0.396,1.012-2.343,6.129-1.787,7.519c0.052,0.131,0.158,0.234,0.29,0.283c0.12,0.044,2.986,1.095,7.319,1.189v-0.011  c0.05,0.01,0.094,0.012,0.146,0.015l-0.01-0.431l0.12,0.434c0.037,0,0.066-0.003,0.1-0.009c4.284-0.106,7.113-1.143,7.232-1.187  c0.132-0.049,0.237-0.152,0.289-0.283C59.832,44.072,57.885,38.955,57.489,37.943z M41.943,26.604  c-0.187-3.359,4.875-5.213,6.802-5.795c-0.365,2.526-1.208,10.404,1.913,13.578l0.5,11.541c-3.31-0.104-5.725-0.793-6.481-1.035  c-0.078-0.972,0.817-3.977,1.792-6.487c1.46-1.567-1.249-5.323-1.817-6.073c-0.125-0.165-0.337-0.235-0.535-0.179  c-0.198,0.057-0.342,0.229-0.361,0.434l-1.49,15.765H39.7L41.943,26.604z M42.55,56.14c-0.092,0.069-0.159,0.121-0.374,0.037  c-0.447-0.175-0.76-2.314-0.578-3.949c0.096-0.863-0.527-2.077-1.011-2.875h2.134c0.143,0,0.268-0.063,0.36-0.161l-0.366,6.872  C42.66,56.088,42.606,56.097,42.55,56.14z M44.557,94.935c-0.51,1.015-1.945,1.411-2.822,1.563l0.839-2.909  c0.368,0.186,0.784,0.313,1.249,0.313c0.319,0,0.635-0.063,0.946-0.179c0.018,0.018,0.037,0.031,0.05,0.062  C44.854,93.863,44.938,94.179,44.557,94.935z M58.236,95.102c-0.427-0.848-0.309-1.278-0.169-1.481  c0.385,0.181,0.776,0.281,1.175,0.281c0.34,0,0.646-0.08,0.936-0.188l0.875,2.95C60.175,96.512,58.745,96.113,58.236,95.102z   M61.241,91.619c-0.245,0.338-1.016,1.282-1.999,1.282c-0.832,0-1.687-0.659-2.54-1.961c-0.037-0.386-0.098-1.915-0.174-3.814  c-1.194-29.946-2.759-36.082-4.74-36.082c-0.087,0-0.173,0.011-0.258,0.034c-0.085-0.023-0.171-0.034-0.258-0.034  c-1.981,0-3.544,6.137-4.736,36.087c-0.078,1.954-0.14,3.517-0.164,3.796c-0.856,1.311-1.714,1.975-2.55,1.975  c-0.989,0-1.754-0.941-1.998-1.281l2.367-44.479c1.186,0.797,3.666,2.08,7.232,1.949c0.013,0,0.026-0.001,0.039-0.003l0.01,0h0.06  c0.087,0,0.063,0,0.071,0c0.013,0.001,0.025,0.002,0.038,0.003c3.586,0.138,6.047-1.151,7.231-1.949L61.241,91.619z M61.467,52.229  c0.182,1.634-0.132,3.774-0.578,3.948c-0.216,0.084-0.282,0.033-0.374-0.037c-0.056-0.043-0.11-0.052-0.165-0.076l-0.366-6.872  c0.092,0.097,0.218,0.161,0.36,0.161h2.135C61.994,50.15,61.372,51.365,61.467,52.229z M60.799,48.353L59.31,32.587  c-0.02-0.206-0.163-0.377-0.361-0.434c-0.196-0.056-0.411,0.015-0.535,0.179c-0.568,0.75-3.277,4.506-1.817,6.073  c0.976,2.51,1.87,5.516,1.792,6.487c-0.734,0.236-3.039,0.896-6.227,1.026l0.25-11.536c3.115-3.176,2.273-11.048,1.908-13.573  c1.927,0.583,6.99,2.446,6.805,5.875l2.241,21.669H60.799z"/></svg>