<svg xmlns="http://www.w3.org/2000/svg" xmlns:xlink="http://www.w3.org/1999/xlink" version="1.1" id="Layer_1" x="0px" y="0px" width="100px" height="100px" viewBox="0 0 100 100" enable-background="new 0 0 100 100" xml:space="preserve">
<g id="Captions">
</g>
<g>
	<g>
		<path fill="#000000" d="M27.942,82.697C27.942,82.697,27.942,82.697,27.942,82.697c-7.829,1.178-13.913-3.516-14.168-3.716    c-0.31-0.245-0.365-0.691-0.125-1.003c3.473-4.505,7.571-7.142,12.18-7.836c7.822-1.178,14.247,3.625,14.515,3.83    c0.157,0.119,0.258,0.297,0.279,0.493s-0.038,0.392-0.164,0.542C36.751,79.416,32.54,82.004,27.942,82.697z M14.666,78.346    c1.738,1.143,6.924,4.085,13.082,3.158c0,0,0.001,0,0.001,0c4.228-0.637,8.145-2.963,11.654-6.914    c-1.84-1.182-7.267-4.203-13.421-3.275C21.757,71.953,17.953,74.316,14.666,78.346z"/>
		<path fill="#000000" d="M7.976,84.332c-0.162,0.025-0.332-0.006-0.478-0.096c-0.265-0.158-0.397-0.471-0.329-0.771    c0.94-4.137-1.291-8.582-1.313-8.627c-0.142-0.277-0.087-0.615,0.135-0.836c0.221-0.219,0.56-0.27,0.836-0.124l7.484,3.903    c0.211,0.109,0.354,0.316,0.381,0.554s-0.066,0.473-0.248,0.626l-6.11,5.209C8.23,84.26,8.105,84.314,7.976,84.332z M7.689,75.847    c0.536,1.56,1.112,3.851,0.999,6.282l4.195-3.574L7.689,75.847z"/>
	</g>
	<circle fill="#000000" cx="33.024" cy="74.481" r="0.972"/>
</g>
<path fill="#000000" d="M58.06,69.486c-0.735,0-1.329-0.6-1.329-1.328c0-0.738,0.594-1.331,1.329-1.331  c0.733,0,1.329,0.593,1.329,1.331C59.389,68.887,58.793,69.486,58.06,69.486z"/>
<path d="M60.949,74.449c-3.324,0-6.828-1.701-10.713-5.202l-0.338-0.305l0.187-0.416c1.718-3.817,4.189-8.559,8.075-11.348  c2.975-2.135,4.683-3.026,5.356-3.342c0.626-3.194,2.492-5.79,5.283-7.334l1.579-0.874l-0.7,1.663  c-0.421,0.999-0.529,1.554-0.529,2.704c0,0.586,0.088,1.194,0.263,1.813l1.295-0.28c4.36-0.719,7.899-3.436,9.743-7.461  c0.872-2.009,1.388-4.369,1.449-6.635c0-1.48-0.688-2.814-1.89-3.704c-1.466-1.033-2.889-1.498-4.602-1.498  c-1.377,0-2.766,0.39-4.016,1.128L69.73,34.34l0.771-1.769c1.309-3.003,4.279-4.943,7.569-4.943c1.356,0,2.687,0.333,3.879,0.966  c1.635-2.028,4.121-3.224,6.76-3.224c1.937,0,3.495,0.501,5.052,1.625l1.567,1.132h-1.934c-1.475,0-2.507,0.261-3.811,0.964  c-1.458,0.807-2.332,2.29-2.332,3.964c0,0.082,0,0.184,0.025,0.258l0.033,0.182l0.176,5.673l-0.176,7.376  c-0.51,5.273-1.538,8.503-4.157,12.912c1.778,0.784,3.144,2.214,3.723,3.937c0.313,1.068,0.32,1.177,0.32,2.278v2.552l-1.157-1.875  c-0.823-1.334-2.246-2.131-3.808-2.131c-1.158,0-2.223,0.376-2.997,1.059c-5.811,5.131-8.362,6.573-11.883,7.865  C63.955,74.386,62.706,74.449,60.949,74.449z M51.414,68.622c3.505,3.079,6.628,4.577,9.535,4.577c1.668,0,2.768-0.058,5.973-1.233  c3.435-1.261,5.789-2.599,11.485-7.629c1.004-0.884,2.361-1.371,3.824-1.371c1.331,0,2.584,0.452,3.584,1.259  c-0.034-0.125-0.078-0.272-0.132-0.458c-0.522-1.554-1.888-2.833-3.644-3.399l-0.757-0.243l0.415-0.678  c2.794-4.561,3.855-7.714,4.365-12.978l0.173-7.296l-0.173-5.557c-0.062-0.231-0.062-0.441-0.062-0.56  c0-2.135,1.115-4.027,2.982-5.062c0.826-0.445,1.573-0.74,2.361-0.914c-0.811-0.313-1.668-0.459-2.637-0.459  c-2.425,0-4.698,1.177-6.081,3.149l-0.34,0.485l-0.502-0.313c-1.117-0.695-2.401-1.063-3.716-1.063  c-2.131,0-4.104,0.958-5.412,2.545c0.896-0.292,1.824-0.442,2.749-0.442c1.961,0,3.655,0.551,5.334,1.735  c1.534,1.137,2.407,2.837,2.407,4.672c-0.065,2.5-0.619,5.025-1.558,7.188c-2.024,4.421-5.904,7.398-10.65,8.179l-2.356,0.513  l-0.185-0.519c-0.332-0.935-0.501-1.861-0.501-2.754c0-0.565,0.025-1.02,0.094-1.445c-1.754,1.434-2.908,3.453-3.305,5.828  l-0.059,0.355l-0.338,0.127c-0.015,0.006-1.675,0.657-5.403,3.333C55.381,60.712,53.058,65.025,51.414,68.622z"/>
<path fill="#000000" d="M48.09,65.731l-2.059,3.237c-0.799,1.254-2.365,2.272-3.729,2.162c-1.679-0.139-3.023-1.693-3.702-2.592  c-0.009-0.01-0.015-0.015-0.02-0.024c-2.162-2.635-3.462-5.982-3.462-9.676c0-2.314,0.636-4.629,1.908-6.533l6.597-10.063  c1.443-2.2,1.89-5.519,1.324-8.117c-1.126-5.177-3.028-14.288-4.066-16.316L42.327,17c1.214,2.258,2.927,10.842,4.298,17.125  c0.628,2.878,0.06,6.554-1.559,9.041l-6.595,10.063c-1.1,1.674-1.674,3.645-1.674,5.609c0,3.296,1.172,6.481,3.354,8.948  c0.028,0.039,0.072,0.082,0.114,0.13c0.388,0.401,1.302,1.175,2.321,1.259c0.846,0.072,1.506-0.292,2.031-1.11l-0.865-0.474  L48.09,65.731z"/>
<path d="M67.538,72.69l-1.244-0.123c0.969-9.77-7.677-14.139-8.046-14.319l0.55-1.123C58.896,57.173,68.594,62.045,67.538,72.69z"/>
</svg>
