<svg xmlns="http://www.w3.org/2000/svg" xmlns:xlink="http://www.w3.org/1999/xlink" version="1.1" x="0px" y="0px" viewBox="0 0 100 100" enable-background="new 0 0 100 100" xml:space="preserve"><path d="M88.769,80.31C87.968,79.45,86.237,78,83.737,78c-1.619,0-3.061,0.7-4.58,1.44c-1.58,0.77-3.209,1.56-5.119,1.56  c-1.93,0-3.221-0.49-4.041-1.03c-0.979-0.62-1.32-1.319-1.34-1.37c-0.049-0.119-0.119-0.22-0.209-0.3  c1.85-6.069,0.479-13.27,0.398-13.63c-0.078-0.42-0.379-0.76-0.789-0.91l-10.43-3.62l10.459-44.12l2.371,0.79  c0.119,0.04,0.25,0.07,0.379,0.07c0.271,0,0.531-0.1,0.75-0.27l6.051-4.83c0.34-0.28,0.51-0.72,0.43-1.16  c-0.08-0.43-0.391-0.79-0.811-0.93l-14.5-4.84c-0.398-0.13-0.84-0.04-1.16,0.23c-0.328,0.28-0.479,0.7-0.408,1.12l1.209,7.25  c0.07,0.44,0.381,0.8,0.811,0.95l2.58,0.86L55.337,59.35l-11.639-4.04c-0.37-0.13-0.78-0.069-1.1,0.15c-0.31,0.23-0.5,0.6-0.5,0.99  c0,0.09-0.01,9.18-2.55,14.26c-1.86,3.71-7.01,6.76-8.63,7.65c-0.71-0.4-1.56-0.71-2.61-0.891c-0.64-0.12-1.37-0.18-2.18-0.18  c-13.14,0-13.29,13.16-13.29,13.29c0,0.67,0.54,1.21,1.2,1.21c0.01,0,0.01,0,0.01,0c0.66,0,1.2-0.54,1.21-1.2  c0-0.45,0.17-10.88,10.87-10.88c1.18,0,2.07,0.14,2.8,0.41c1.41,0.49,2.19,1.41,3.14,2.53c0.02,0.02,0.04,0.05,0.06,0.069  c0.78,0.91,1.66,1.94,3,2.83c3.88,2.59,8.91,2.62,9.13,2.62h6.03c0.25,0,6.049,0.08,6.049,4.83c0,0.67,0.541,1.21,1.211,1.21  c0.66,0,1.199-0.54,1.199-1.21c0-0.2-0.01-0.4-0.029-0.59l0.5-0.3c0.209-0.13,4.49-2.771,7.91-7.181c0,0,2.199-1.979,5.75-1.979  h0.109c0.33,0.04,0.68,0.05,1.051,0.05c2.369,0,4.299-0.94,5.99-1.76c1.369-0.67,2.549-1.24,3.709-1.24c1.75,0,2.99,1.05,3.57,1.68  c0.381,0.4,1.01,0.42,1.41,0.051C89.128,81.35,89.147,80.72,88.769,80.31z M64.657,12.33l-0.549-3.29l9.16,3.14l-2.672,2.13  L64.657,12.33z M64.968,80.29c-2.76,4.62-7.5,7.7-8.01,8.02c-0.51-0.529-1.09-0.96-1.711-1.29c-1.67-0.939-3.59-1.27-4.949-1.27  h-6.04c-0.05,0-4.53-0.04-7.79-2.21c-0.9-0.61-1.55-1.29-2.18-2.01c-0.12-0.15-0.25-0.3-0.38-0.45c-0.31-0.37-0.62-0.73-0.96-1.09  c2.34-1.37,6.86-4.391,8.76-8.2c2.12-4.24,2.64-10.63,2.76-13.66l22.119,7.68C66.938,68.09,67.788,75.59,64.968,80.29z"></path><path d="M20.75,60.771c-1.884,0-3.417-1.533-3.417-3.417s1.533-3.416,3.417-3.416s3.417,1.532,3.417,3.416  S22.634,60.771,20.75,60.771z M20.75,55.938c-0.781,0-1.417,0.635-1.417,1.416s0.635,1.417,1.417,1.417s1.417-0.636,1.417-1.417  S21.532,55.938,20.75,55.938z"></path><path d="M36.573,45.063c-2.55,0-4.625-2.075-4.625-4.625s2.075-4.625,4.625-4.625s4.625,2.075,4.625,4.625  S39.123,45.063,36.573,45.063z M36.573,37.813c-1.447,0-2.625,1.178-2.625,2.625s1.178,2.625,2.625,2.625s2.625-1.178,2.625-2.625  S38.02,37.813,36.573,37.813z"></path><path d="M26.792,26.938c-2.55,0-4.625-2.075-4.625-4.625s2.075-4.625,4.625-4.625s4.625,2.075,4.625,4.625  S29.342,26.938,26.792,26.938z M26.792,19.688c-1.447,0-2.625,1.178-2.625,2.625s1.178,2.625,2.625,2.625s2.625-1.178,2.625-2.625  S28.239,19.688,26.792,19.688z"></path></svg>