<svg fill="#000000" xmlns="http://www.w3.org/2000/svg" xmlns:xlink="http://www.w3.org/1999/xlink" version="1.1" x="0px" y="0px" viewBox="0 0 90 90" enable-background="new 0 0 90 90" xml:space="preserve"><g><path fill-rule="evenodd" clip-rule="evenodd" d="M49.008,73.426c0.477-1.209,1.248-2.541,2.31-3.991   c1.373-1.882,1.936-3.493,1.69-4.834c-0.507-1.097-1.66-2.042-3.461-2.834L49.008,73.426z M42.143,61.856   c-1.688,0.774-2.775,1.689-3.263,2.744c-0.247,1.341,0.317,2.952,1.692,4.834c0.906,1.238,1.6,2.39,2.083,3.453L42.143,61.856z    M38.856,52.296c-0.003-0.003-0.006-0.005-0.008-0.005c-0.197-0.088-0.391-0.182-0.583-0.279c-0.008-0.004-0.015-0.009-0.023-0.012   c-0.173-0.095-0.345-0.188-0.516-0.282c0.278,1.568,0.858,2.941,1.74,4.12c0.013,0.019,0.026,0.036,0.039,0.055   c0.305-0.142,0.621-0.28,0.949-0.417c0.286-0.12,0.572-0.121,0.858-0.004c0.283,0.118,0.486,0.32,0.606,0.606   c0.118,0.285,0.118,0.572,0,0.859c-0.118,0.282-0.319,0.485-0.602,0.605c-3.603,1.498-5.699,3.39-6.287,5.677   c-0.008,0.029-0.015,0.058-0.023,0.085c-0.611,2.187,0.211,4.74,2.468,7.661c1.989,2.577,2.731,4.606,2.228,6.09   c-0.021,0.065-0.046,0.131-0.074,0.196c-0.554,1.352-2.208,2.229-4.964,2.633c-0.014,0-0.027,0.004-0.04,0.01   c0.055,0.052,0.125,0.099,0.208,0.141l0.004,0.004c0.065,0.031,0.132,0.056,0.201,0.074l0.008,0.004   c0.123,0.032,0.249,0.039,0.377,0.024h-0.007c3.033-0.398,4.861-1.305,5.483-2.721c0.013-0.039,0.029-0.078,0.047-0.113   c0.625-1.528-0.103-3.711-2.181-6.55c-1.91-2.611-2.59-4.872-2.039-6.779c0.011-0.041,0.023-0.083,0.04-0.125   c0.668-1.935,2.686-3.493,6.05-4.678c0.226-0.081,0.453-0.086,0.681-0.021c0.229,0.067,0.419,0.194,0.571,0.383   c0.147,0.188,0.226,0.402,0.235,0.642l0.978,20.93c0.158,0.071,0.348,0.107,0.562,0.107c0.216,0,0.405-0.036,0.567-0.107   l0.973-21.004c0.01-0.244,0.094-0.462,0.249-0.654c0.153-0.188,0.349-0.314,0.586-0.377c0.235-0.063,0.47-0.048,0.7,0.042   c0.01,0.007,0.021,0.011,0.031,0.013c0.005,0.003,0.01,0.006,0.016,0.008c3.428,1.188,5.481,2.762,6.161,4.717   c0.012,0.042,0.025,0.084,0.039,0.125c0.548,1.907-0.131,4.168-2.039,6.779c-2.079,2.842-2.806,5.025-2.181,6.55   c0.016,0.039,0.031,0.077,0.046,0.113c0.62,1.416,2.448,2.322,5.484,2.721c0.123,0.015,0.245,0.008,0.367-0.024l0.011-0.004   c0.065-0.019,0.132-0.043,0.196-0.074l0.004-0.004c0.085-0.042,0.155-0.089,0.213-0.141c-0.015-0.006-0.029-0.01-0.043-0.01   c-2.756-0.403-4.408-1.281-4.96-2.633c-0.031-0.065-0.056-0.131-0.074-0.196c-0.507-1.483,0.234-3.513,2.224-6.09   c2.257-2.921,3.081-5.475,2.473-7.661c-0.012-0.027-0.019-0.056-0.024-0.085c-0.638-2.457-3.012-4.461-7.125-6.016h-0.007   c-0.012-0.005-0.02-0.009-0.028-0.012c-0.297-0.091-0.518-0.273-0.661-0.547c-0.147-0.275-0.173-0.561-0.078-0.854   c0.089-0.294,0.271-0.513,0.547-0.657c0.273-0.147,0.556-0.174,0.85-0.084c0.056,0.019,0.112,0.039,0.17,0.06l0.004,0.005   c0.367,0.14,0.722,0.281,1.062,0.425c0.003-0.173,0.05-0.341,0.139-0.503c0.307-0.57,0.55-1.164,0.729-1.779   c-0.21,0.075-0.425,0.146-0.646,0.212H51.81c-1.414,0.418-3.049,0.604-4.905,0.562h-0.007C43.861,53.94,41.18,53.36,38.856,52.296z    M52.376,16.81c-1.3-1.745-2.931-3.834-4.889-6.267c3.771,9.904,6.187,16.381,7.244,19.43c0,0.005,0.001,0.009,0.004,0.012   c0.414,1.157,0.777,2.275,1.09,3.354c0.003,0.002,0.004,0.006,0.004,0.012c0.023,0.074,0.045,0.147,0.066,0.22   c0.608-1.461,1.433-2.743,2.468-3.846l0.005-0.008c0.858-0.9,1.224-1.766,1.099-2.598c-0.208-0.834-0.859-1.978-1.957-3.429   l-0.003-0.003C56.27,22.03,54.561,19.738,52.376,16.81z M35.718,20.946l-0.004,0.004c-2.929,3.065-5.011,5.241-6.247,6.527   c-0.903,0.932-1.278,1.808-1.126,2.629l-0.003-0.008c0.228,0.759,0.832,1.693,1.811,2.803c1.44,1.487,2.456,2.611,3.047,3.37   l0.004,0.008c0.016,0.018,0.031,0.039,0.047,0.063c1.016-4.585,2.925-8.946,5.728-13.085c0.173-0.257,0.411-0.415,0.712-0.472   c0.301-0.06,0.582-0.002,0.838,0.173c0.257,0.173,0.415,0.411,0.473,0.712s0.001,0.582-0.17,0.842   c-3.062,4.522-4.993,9.325-5.794,14.411v-0.004c-0.351,2.293-0.328,4.269,0.071,5.925c0.37,1.537,1.064,2.8,2.082,3.789   c0.006,0.007,0.011,0.011,0.016,0.017c0.365,0.32,0.759,0.608,1.185,0.866c0.302,0.176,0.606,0.347,0.914,0.511   c0.155,0.079,0.312,0.154,0.472,0.226h0.004c2.078,0.941,4.473,1.454,7.18,1.539c0.003,0,0.005,0,0.009,0   c1.593,0.034,2.997-0.123,4.212-0.469c0.002-0.002,0.005-0.005,0.008-0.005c0.32-0.096,0.628-0.205,0.925-0.326   c0.42-0.173,0.809-0.374,1.165-0.606l0.023-0.015c0.004-0.002,0.007-0.006,0.012-0.008l0.036-0.02   c0.593-0.386,1.097-0.856,1.511-1.414v0.004c0.625-0.929,0.937-2.291,0.934-4.089c-0.008-1.867-0.354-4.201-1.039-7.003   c-0.019-0.053-0.032-0.106-0.04-0.162c-0.288-1.16-0.632-2.391-1.027-3.692l-0.004-0.012c-0.305-1.044-0.657-2.127-1.059-3.247   l-0.004-0.012c-1.184-3.419-4.086-11.178-8.707-23.275C41.097,13.663,38.366,18.165,35.718,20.946z M34.092,19.403v0.004   c2.834-3.023,5.783-8.135,8.846-15.337l0.008-0.019c0.002-0.01,0.006-0.02,0.012-0.028c0.01-0.023,0.02-0.044,0.031-0.063L43,3.937   c0.121-0.215,0.298-0.374,0.532-0.476c0.063-0.029,0.128-0.051,0.197-0.066c0.068-0.017,0.137-0.026,0.208-0.028   c0.113-0.005,0.227,0.009,0.343,0.043c0.145,0.04,0.274,0.106,0.394,0.201c0.078,0.06,0.146,0.131,0.204,0.213   c4.018,4.839,7.116,8.721,9.294,11.647c2.184,2.929,3.893,5.22,5.129,6.873l-0.004-0.003c1.365,1.805,2.15,3.238,2.358,4.299v0.003   c0.383,1.509-0.17,3.047-1.658,4.613c-0.002,0.002-0.004,0.005-0.007,0.008c-1.052,1.128-1.837,2.482-2.354,4.062v-0.011   c-0.263,0.821-0.482,1.558-0.661,2.208c1.309,5.437,1.412,9.342,0.307,11.714c-0.178,0.385-0.387,0.726-0.625,1.028l-0.004,0.004   c-0.473,0.635-1.028,1.188-1.665,1.661c-0.157,1.488-0.587,2.879-1.287,4.173c-0.069,0.123-0.15,0.229-0.245,0.314   c1.619,0.857,2.896,1.815,3.826,2.873c0.916,1.037,1.502,2.17,1.756,3.397c0.779,2.386,0.194,5.087-1.756,8.105   c-0.328,0.504-0.693,1.018-1.098,1.542c-1.333,1.73-1.95,3.07-1.851,4.021c0.444,0.598,1.427,1.021,2.948,1.271   c0.088,0.017,0.175,0.029,0.265,0.044h0.004c0.787,0.115,1.353,0.451,1.696,1.007l0.004,0.005c0.426,0.608,0.473,1.28,0.145,2.016   c-0.235,0.568-0.685,1.018-1.346,1.346h-0.004c-0.207,0.102-0.417,0.183-0.629,0.24l0.007-0.004   c-0.047,0.01-0.094,0.022-0.142,0.035c-0.356,0.079-0.721,0.097-1.09,0.051l-0.008-0.004c-4.137-0.543-6.563-1.917-7.278-4.122   c-0.042-0.072-0.079-0.147-0.11-0.223l-0.161,3.424c0.025,0.641-0.332,1.173-1.075,1.599l-0.007,0.004   c-0.479,0.272-1.048,0.41-1.71,0.412c-0.666-0.002-1.235-0.141-1.708-0.416H44.13c-0.745-0.426-1.104-0.958-1.078-1.599   l-0.138-2.999c-0.797,2.089-3.2,3.395-7.208,3.92l-0.007,0.004c-0.423,0.05-0.834,0.021-1.236-0.086l0.012,0.004   c-0.215-0.058-0.426-0.139-0.633-0.24h-0.004c-0.191-0.098-0.366-0.204-0.523-0.32c-0.381-0.279-0.655-0.622-0.823-1.025   c-0.328-0.735-0.278-1.407,0.149-2.016v-0.005c0.17-0.275,0.395-0.497,0.673-0.664c0.286-0.172,0.628-0.286,1.027-0.343   c1.672-0.244,2.744-0.683,3.217-1.314c0.097-0.95-0.522-2.29-1.855-4.021c-1.063-1.375-1.859-2.688-2.389-3.939   c-0.877-2.071-1.03-3.973-0.46-5.708c0.1-0.487,0.252-0.962,0.46-1.421c0.732-1.63,2.128-3.068,4.188-4.314   c-1.137-1.59-1.834-3.458-2.094-5.604v-0.004c-0.058-0.479-0.091-0.947-0.103-1.406c-0.868-0.876-1.532-1.918-1.991-3.125   c-0.625-1.645-0.873-3.598-0.744-5.857c-0.131-0.223-0.176-0.466-0.134-0.728c0.071-0.751-0.265-1.61-1.008-2.578   c-0.562-0.718-1.524-1.78-2.89-3.189c-0.01-0.013-0.022-0.025-0.035-0.035c-1.297-1.467-2.072-2.714-2.327-3.74l-0.004-0.012   c-0.467-1.527,0.093-3.111,1.681-4.751l0.004-0.003C29.091,24.635,31.169,22.463,34.092,19.403z"/></g></svg>