<svg xmlns="http://www.w3.org/2000/svg" xmlns:xlink="http://www.w3.org/1999/xlink" version="1.1" x="0px" y="0px" viewBox="0 0 100 100" enable-background="new 0 0 100 100" xml:space="preserve"><path d="M91.021,60.764h-0.444c-0.263-3.235-0.996-10.465-1.005-10.552c-0.089-0.836-0.502-2.525-1.108-3.494  c-0.432-0.692-1.748-2.799-15.284-3.978c-0.058-0.005-0.115-0.007-0.173-0.007c-0.628,0-1.669-0.582-2.146-1.175  c0,0-8.12-20.914-8.196-21.03c-1.159-1.777-3.565-3.117-5.596-3.117H31.211c-2.13,0-4.494,1.599-5.381,3.639  c-0.043,0.099-0.078,0.2-0.104,0.304l-5.173,20.313c-0.304,0.536-0.876,0.818-1.658,1.066c-0.09,0.029-5.093,0.707-5.093,0.707  c-2.646,0.513-4.396,1.998-4.396,4.432v12.892H8.979c-1.902,0-3.449,1.547-3.449,3.449v4.11c0,1.902,1.547,3.449,3.449,3.449h1.177  c0.574,0.83,1.69,1.762,3.806,1.762h6.271c0.945,5.143,5.453,9.056,10.865,9.056c5.412,0,9.92-3.912,10.865-9.056h16.283  c0.945,5.143,5.453,9.056,10.865,9.056c5.412,0,9.92-3.912,10.865-9.056h6.072c1.4,0,2.72-0.669,3.573-1.762h1.4  c1.902,0,3.449-1.547,3.449-3.449v-4.11C94.47,62.311,92.923,60.764,91.021,60.764z M12.579,67.771H9.53v-3.007h3.049V67.771z   M31.271,78.309c-3.735,0-6.774-3.039-6.774-6.775c0-3.735,3.039-6.774,6.774-6.774s6.774,3.039,6.774,6.774  C38.046,75.27,35.007,78.309,31.271,78.309z M69.125,78.309c-3.736,0-6.775-3.039-6.775-6.775c0-3.735,3.039-6.774,6.775-6.774  c3.735,0,6.774,3.039,6.774,6.774C75.9,75.27,72.861,78.309,69.125,78.309z M83.421,64.213c0,0-0.259,4.633-0.327,5.321h-4.927  c-0.169,0-0.331,0.027-0.488,0.067c-0.884-3.91-4.379-6.841-8.553-6.841c-4.176,0-7.674,2.935-8.555,6.848  c-0.164-0.043-20.646-0.058-20.755-0.04c-0.896-3.893-4.383-6.808-8.544-6.808c-4.193,0-7.704,2.958-8.567,6.896  c-0.208-0.073-0.429-0.121-0.662-0.121h-5.104l-0.359-5.321c0-1.809-1.399-3.296-3.172-3.438V47.872  c0-0.318,0.333-0.434,0.556-0.434c0.095,0,8.881-0.469,10.313-4.283c0.038-0.101,5.277-20.619,5.277-20.619  c0.213-0.661,0.744-1.125,1.658-1.125h25.857c1.025,0,1.557,0.246,2.147,1.167l8.006,20.66c0.05,0.129,0.113,0.253,0.189,0.37  c1.143,1.753,3.489,3.082,5.496,3.125c4.97,0.437,11.232,1.063,12.231,2.239c0.59,0.695,1.181,8.9,1.428,11.806  C84.807,60.931,83.421,62.414,83.421,64.213z M90.47,67.771h-3.049v-3.007h3.049V67.771z M57.597,24.438  c-0.134-0.411-0.518-0.689-0.95-0.689H32.214c-0.466,0-0.871,0.322-0.975,0.776l-4.561,19.891c-0.068,0.297,0.003,0.608,0.192,0.847  c0.19,0.238,0.478,0.377,0.782,0.377h35.509c0.32,0,0.622-0.154,0.81-0.413c0.188-0.26,0.241-0.594,0.141-0.898L57.597,24.438z   M42.578,43.64h-13.67l4.103-17.891h9.567V43.64z M44.578,43.64V25.75h11.344l5.86,17.891H44.578z"></path></svg>