<svg fill="#000000" xmlns="http://www.w3.org/2000/svg" xmlns:xlink="http://www.w3.org/1999/xlink" version="1.1" x="0px" y="0px" viewBox="0 0 323.977 307" style="enable-background:new 0 0 323.977 307;" xml:space="preserve"><g><polygon points="0,307 323.977,307 323.977,245 167,245 167,227 141,227 141,245 0,245  "/><ellipse transform="matrix(0.4953 -0.8687 0.8687 0.4953 -28.4616 124.0134)" cx="92.501" cy="86.502" rx="22.495" ry="22.495"/><path d="M199.674,112.694c-14.543-16.991-25.172-24.841-44.597-33.556c-14.163-6.254-25.974-0.323-30.214,7.386   c-0.795,1.445-1.223,3.002-1.332,4.606c-0.377,0.98-0.567,2.049-0.526,3.163h-0.001c0,0.015,0.002,0.065,0.002,0.156   c-0.002,0.525-0.047,2.633-0.649,6.342c7.619-7.751,11.373-13.413,11.447-13.528c1.865-2.878,5.005-4.584,8.414-4.584   c1.928,0,3.806,0.556,5.43,1.609c4.624,2.994,5.952,9.198,2.958,13.828l-0.074,0.112c-1.289,1.921-4.901,7.016-11.029,13.61   c9.093,5.536,20.444,12.347,29.79,20.672c-0.295,0.658-0.59,1.33-0.886,2.029c-3.985,9.464-8.047,22.735-8.063,38.326   c-0.101,18.864,6.398,41.186,25.254,61.406c2.463,2.66,5.814,4.007,9.174,4.007c3.039,0,6.084-1.101,8.489-3.327   c5.068-4.691,5.37-12.6,0.681-17.665c-14.589-15.898-18.493-30.859-18.597-44.421c-0.011-8.163,1.604-15.798,3.683-22.162   c3.481,3.464,7.766,6.879,12.991,9.642c6.495,3.447,14.499,5.775,23.495,5.76c14.898-0.011,31.7-6.145,50.512-20.433   c5.499-4.173,6.576-12.013,2.403-17.513c-4.173-5.499-12.015-6.576-17.514-2.403c-16.014,12.133-27.581,15.357-35.401,15.349   c-4.804-0.018-8.509-1.14-11.826-2.869c-3.843-2.005-7.096-5.053-9.585-8.09C205.41,125.264,204.664,119.513,199.674,112.694z"/><path d="M102.95,152.507c-2.051,3.915-0.54,8.749,3.375,10.8c1.185,0.62,2.454,0.915,3.705,0.915c2.882,0,5.665-1.561,7.095-4.29   c9.662-18.442,15.075-32.969,18.1-43.675c-6.185,6.137-14.253,13.114-24.351,19.9C108.66,141.148,106.045,146.595,102.95,152.507z"/><path d="M146.562,85.967c-3.709-2.404-8.663-1.344-11.065,2.364v-0.002l-0.005,0.008c-0.562,0.881-17.077,25.34-51.105,42.524   c-3.944,1.994-5.522,6.807-3.525,10.75c1.408,2.784,4.223,4.39,7.144,4.39c1.215,0,2.448-0.277,3.606-0.863   c38.818-19.683,56.832-47.406,57.313-48.107C151.325,93.322,150.268,88.367,146.562,85.967z"/><path d="M126.442,200.719c0.45-0.197,0.775-0.603,0.87-1.084l3.321-16.905l7.545,16.112c0.214,0.459,0.651,0.78,1.153,0.85   c0.503,0.069,1.008-0.122,1.342-0.505l8.855-10.249l0.08,11.584c0.006,0.828,0.683,1.496,1.511,1.49   c0.828-0.005,1.495-0.681,1.489-1.509v-0.002l-0.107-15.571c-0.005-0.626-0.394-1.182-0.98-1.396   c-0.586-0.218-1.245-0.049-1.654,0.424l-9.951,11.516l-8.511-18.173c-0.276-0.587-0.898-0.932-1.542-0.852   c-0.643,0.078-1.164,0.563-1.289,1.198l-3.79,19.292l-15.071-9.221c-0.538-0.329-1.226-0.285-1.718,0.106   c-0.492,0.393-0.687,1.054-0.485,1.652l6.021,17.916L96.7,205.66c-0.642-0.067-1.248,0.279-1.517,0.862   c-0.269,0.585-0.138,1.271,0.327,1.715l15.484,14.75l-10.883,6.886c-0.518,0.325-0.781,0.93-0.674,1.531   c0.107,0.602,0.566,1.076,1.164,1.205l14.287,3.038c0.105,0.022,0.211,0.033,0.314,0.033c0.691,0,1.314-0.483,1.465-1.188   c0.171-0.811-0.345-1.607-1.154-1.778l-10.687-2.275l9.397-5.943c0.387-0.247,0.645-0.662,0.689-1.12   c0.046-0.458-0.125-0.917-0.457-1.233l-13.699-13.051l14.783,1.523c0.508,0.054,1.006-0.154,1.325-0.553   c0.319-0.399,0.412-0.933,0.249-1.416l-5.449-16.216l13.39,8.195C125.477,200.881,125.992,200.917,126.442,200.719z"/><polygon points="107,2 115,39 125,38 122,0  "/><ellipse cx="122.5" cy="49" rx="6.5" ry="5"/></g></svg>