<?xml version="1.0" encoding="utf-8"?>
<!-- Generator: Adobe Illustrator 16.0.0, SVG Export Plug-In . SVG Version: 6.00 Build 0)  -->
<!DOCTYPE svg PUBLIC "-//W3C//DTD SVG 1.1//EN" "http://www.w3.org/Graphics/SVG/1.1/DTD/svg11.dtd">
<svg version="1.1" id="Layer_1" xmlns="http://www.w3.org/2000/svg" xmlns:xlink="http://www.w3.org/1999/xlink" x="0px" y="0px"
	 width="77.534px" height="100px" viewBox="-21.319 0.216 77.534 100" enable-background="new -21.319 0.216 77.534 100"
	 xml:space="preserve">
<g id="Layer_1_1_">
	<circle cx="36.554" cy="8.01" r="7.794"/>
	<path d="M46.381,17.527H7.104c-1.095,3.208-3.255,5.917-6.063,7.714h25.059l0.02,70.325c0,2.563,2.082,4.65,4.649,4.65
		c2.568,0,4.65-2.087,4.65-4.65L35.404,56.56h2.611l0.003,39.006c0,2.563,2.082,4.65,4.651,4.65c2.566,0,4.651-2.087,4.651-4.65
		l-0.012-66.597h2.366v27.209c0,4.952,6.539,4.952,6.539,0v-27.89C56.214,22.315,52.252,17.527,46.381,17.527z"/>
</g>
<g id="Layer_2">
	<circle cx="-6.913" cy="12.757" r="12.541"/>
	<path d="M10.371,55.848c0-3.822-3.095-6.918-6.916-6.918c-3.079,0-5.663,2.032-6.553,4.822l-0.418-0.895L-4.52,35.574
		c0-1.381-1.226-2.505-2.734-2.505c-1.509,0-2.734,1.124-2.734,2.505v19.12c0,0.183,0.03,0.348,0.068,0.513
		c-1.929,0.926-6.427,4.014-8.928,9.298c-6.938,14.648,2.933,32.258,2.933,32.258c0.375,1.063,1.448,1.735,2.602,1.735
		c0.278,0,0.561-0.045,0.843-0.124c1.434-0.428,2.059-1.763,1.757-3.155l-3.304-13.68l10.753,10.862
		c0.531,0.49,1.232,0.735,1.93,0.735c0.701,0,1.399-0.245,1.933-0.735c1.067-0.978,0.947-2.449,0-3.544
		c0,0-5.458-5.984-6.313-10.838c-1.013-5.756,2.121-10.922,2.121-10.922L1.996,77.37c0.663,1.246,2.301,1.758,3.658,1.151
		c1.357-0.6,1.919-2.103,1.258-3.344L0.873,62.25c0.799,0.324,1.668,0.511,2.583,0.511C7.275,62.761,10.371,59.661,10.371,55.848z"
		/>
</g>
</svg>
