<svg xmlns="http://www.w3.org/2000/svg" xmlns:xlink="http://www.w3.org/1999/xlink" version="1.1" id="Capa_1" x="0px" y="0px" width="100px" height="100px" viewBox="0 0 100 100" enable-background="new 0 0 100 100" xml:space="preserve">
<g id="Capa_33" display="none">
</g>
<g id="Capa_31">
	<g>
		<path d="M54.359,22.611l-3.176-1.24l-3.287,5.031l-9.508-5.147L43.553,1.89L38.711,0l-7.112,18.211l-7.749-2.122l-0.474,1.212    c-0.837-0.028-1.802-0.005-1.9,0.249c-0.098,0.251,0.596,0.924,1.229,1.47l-0.446,1.139l7.139,3.691l-7.114,18.213l4.842,1.89    l9.328-17.739l10.479,2.66l-0.993,5.927l3.174,1.24l2.35-6.017l1.474,0.375l0.41-1.048l-1.338-0.724L54.359,22.611z"/>
		<g>
			<g>
				<path d="M80.034,73.684c3.103-2.375,3.688-6.824,1.31-9.925c-2.39-3.11-6.836-3.692-9.936-1.31      c-3.104,2.383-3.688,6.82-1.299,9.929C72.49,75.48,76.934,76.064,80.034,73.684z"/>
				<path d="M90.116,79.596l-13.692,1.53l-7.613-5.132c0.512-3.826-3.035-7.828-5.17-10.951l1.92,6.936      c-0.047-0.041-0.088-0.09-0.138-0.129l-3.819-9.556l5.271-15.393l-3.887-1.576L55.602,61.16      c-0.291,0.717-0.295,1.52-0.008,2.236l3.17,7.933c-0.002,0.003-0.008,0.004-0.012,0.006l-9.126,5.188l7.817-5.849l-2.948-6.839      c-0.042-0.104-0.062-0.209-0.093-0.313c-3.962,1.392-8.59,4.068-12.811,6.824c-5.44,3.553-5.431,8.93-4.734,12.315l-9.501,2.993      L12.344,75.53l-3.196,4.155L15,84.73l15.526,6.043l8.06-2.926l-7.984,4.227l-16.35-6.361l-2.209,4.754l17.089,9.184      c0.501,0.232,1.04,0.351,1.578,0.351c0.604,0,1.205-0.146,1.752-0.437l15.482-8.303l-0.005-0.009      c0.052-0.026,0.107-0.049,0.161-0.078l16.575-9.423c0.347-0.195,0.664-0.426,0.953-0.678l8.455,5.697      c0.498,0.336,1.08,0.512,1.673,0.512c0.176,0,0.352-0.016,0.527-0.047l14.568-3.514L90.116,79.596z"/>
			</g>
			<path d="M46.366,46.089c0.322,0.754,0.704,1.493,0.983,2.276c0.299,0.772,0.606,1.541,0.835,2.32     c0.261,0.77,0.486,1.535,0.655,2.287c0.092,0.373,0.185,0.74,0.274,1.1c0.064,0.363,0.126,0.72,0.187,1.066     c0.12,0.691,0.248,1.34,0.28,1.951c0.056,0.605,0.105,1.161,0.15,1.652c0,0.492,0.001,0.922,0.002,1.273     c0.001,0.42,0.002,0.715,0.002,0.9l2.214-1.538c-0.025-0.257-0.052-0.532-0.079-0.837c-0.094-0.521-0.199-1.113-0.314-1.757     c-0.095-0.646-0.287-1.325-0.479-2.045c-0.096-0.358-0.195-0.728-0.295-1.104c-0.127-0.367-0.258-0.744-0.389-1.127     c-0.247-0.769-0.551-1.544-0.891-2.317c-0.309-0.786-0.694-1.55-1.073-2.316c-0.356-0.775-0.812-1.499-1.208-2.237     c-0.428-0.72-0.863-1.418-1.295-2.084c-0.886-1.322-1.754-2.521-2.556-3.503c-1.58-1.984-2.803-3.147-2.803-3.147     s1.116,1.267,2.504,3.366c0.706,1.04,1.458,2.3,2.211,3.669C45.648,44.632,46.012,45.353,46.366,46.089z"/>
			<path d="M44.714,60.405c0.055,0.604,0.105,1.159,0.15,1.653c0,0.491,0.001,0.92,0.002,1.273c0.001,0.477,0.002,0.798,0.002,0.968     l2.218-1.541c-0.025-0.276-0.053-0.569-0.083-0.901c-0.094-0.523-0.199-1.113-0.314-1.756c-0.095-0.646-0.29-1.326-0.481-2.045     c-0.095-0.359-0.194-0.729-0.295-1.104c-0.127-0.368-0.257-0.745-0.388-1.127c-0.248-0.771-0.55-1.544-0.892-2.318     c-0.309-0.784-0.695-1.55-1.072-2.315c-0.356-0.774-0.814-1.499-1.208-2.236c-0.429-0.72-0.863-1.419-1.297-2.085     c-0.885-1.321-1.753-2.521-2.556-3.504c-1.578-1.982-2.802-3.146-2.802-3.146s1.115,1.267,2.503,3.366     c0.708,1.04,1.459,2.299,2.211,3.669c0.368,0.69,0.731,1.412,1.087,2.149c0.321,0.754,0.703,1.493,0.981,2.276     c0.3,0.772,0.608,1.541,0.837,2.32c0.26,0.771,0.486,1.535,0.654,2.288c0.093,0.372,0.184,0.739,0.273,1.099     c0.065,0.363,0.126,0.721,0.188,1.065C44.555,59.145,44.681,59.795,44.714,60.405z"/>
		</g>
	</g>
</g>
</svg>
