<svg xmlns="http://www.w3.org/2000/svg" xmlns:xlink="http://www.w3.org/1999/xlink" version="1.1" id="Layer_1" x="0px" y="0px" width="50px" height="50px" viewBox="0 0 50 50" enable-background="new 0 0 50 50" xml:space="preserve">
<path d="M22.461,3.889"/>
<path fill="#000000" d="M22.175,41.404"/>
<path fill="#000000" d="M27.825,41.404"/>
<path fill="#000000" d="M22.461,3.889"/>
<polygon points="25.084,33.786 24.718,34.418 25.084,34.418 "/>
<g>
	<g>
		<path d="M35.178,38.415c-0.034-0.793-0.626-1.427-1.348-1.427h-3.068v-32.6c0-0.827-0.605-1.5-1.351-1.5H20.66    c-0.745,0-1.35,0.673-1.35,1.5v32.6h-2.422c-0.723,0-1.314,0.634-1.348,1.427l-1.786,7.306l-0.016,0.131    c0,0.827,0.605,1.5,1.35,1.5h20.541c0.745,0,1.351-0.673,1.351-1.5L35.178,38.415z M29.411,3.889c0.248,0,0.45,0.224,0.45,0.5    v36.516c0,0.275-0.202,0.5-0.45,0.5h-1.833c0.275-0.351,0.496-0.873,0.496-1.375V5.514c0-0.669-0.296-1.261-0.75-1.624    L29.411,3.889z M24.838,7.113V6.625c0-0.09,0.072-0.163,0.162-0.163c0.088,0,0.16,0.073,0.16,0.163v0.488v0.489    c0,0.089-0.072,0.163-0.16,0.163c-0.09,0-0.162-0.073-0.162-0.163V7.113z M24.193,7.027c0.118-0.142,0.232-0.21,0.243-0.217    c0.076-0.045,0.175-0.02,0.22,0.058c0.045,0.078,0.02,0.177-0.058,0.222v0v0c-0.002,0.002-0.005,0.002-0.009,0.006    c-0.008,0.005-0.021,0.014-0.036,0.026c-0.031,0.024-0.072,0.062-0.114,0.112c-0.083,0.103-0.163,0.246-0.163,0.447    c0,0.203,0.08,0.385,0.211,0.518C24.62,8.333,24.799,8.416,25,8.416c0.199,0,0.38-0.082,0.512-0.215    c0.131-0.133,0.211-0.315,0.211-0.518c0-0.194-0.074-0.335-0.154-0.437c-0.077-0.096-0.16-0.149-0.168-0.155c0,0,0,0,0,0v0    c-0.076-0.045-0.102-0.144-0.057-0.222c0.045-0.078,0.143-0.104,0.22-0.058c0.011,0.006,0.125,0.075,0.243,0.217    c0.117,0.141,0.238,0.362,0.238,0.655c0,0.584-0.467,1.059-1.044,1.059c-0.578,0-1.047-0.474-1.047-1.059    C23.954,7.39,24.075,7.168,24.193,7.027z M23.902,11.447c0.604-0.605,1.591-0.605,2.196,0c0.055,0.055,0.055,0.144,0,0.2    c-0.029,0.027-0.064,0.041-0.099,0.041c-0.037,0-0.073-0.014-0.1-0.041c-0.496-0.496-1.302-0.496-1.798,0    c-0.054,0.055-0.144,0.055-0.199,0C23.847,11.591,23.847,11.502,23.902,11.447z M24.701,12.246c-0.056,0.055-0.145,0.055-0.2,0    c-0.055-0.056-0.055-0.145,0-0.2c0.275-0.275,0.723-0.275,0.998,0c0.055,0.055,0.055,0.144,0,0.2    c-0.027,0.027-0.063,0.041-0.1,0.041s-0.072-0.014-0.1-0.041C25.134,12.081,24.866,12.081,24.701,12.246z M25.16,12.705    c-0.044,0.042-0.099,0.066-0.159,0.066s-0.117-0.023-0.16-0.066c-0.088-0.088-0.088-0.232,0-0.32    c0.043-0.043,0.1-0.066,0.16-0.066s0.115,0.023,0.159,0.066C25.248,12.473,25.248,12.616,25.16,12.705z M25,17.021    c0.414,0,0.75,0.336,0.75,0.75s-0.336,0.75-0.75,0.75s-0.75-0.336-0.75-0.75S24.585,17.021,25,17.021z M25,29.896    c-0.414,0-0.75-0.336-0.75-0.75s0.336-0.75,0.75-0.75s0.75,0.336,0.75,0.75S25.414,29.896,25,29.896z M25.75,35.021    c0,0.414-0.336,0.75-0.75,0.75s-0.75-0.336-0.75-0.75s0.336-0.75,0.75-0.75S25.75,34.607,25.75,35.021z M25,24.146    c-0.414,0-0.75-0.336-0.75-0.75s0.336-0.75,0.75-0.75s0.75,0.336,0.75,0.75S25.414,24.146,25,24.146z M25.598,11.946    c-0.16-0.16-0.372-0.248-0.598-0.248c-0.228,0-0.439,0.088-0.6,0.248c-0.027,0.028-0.062,0.041-0.1,0.041    c-0.036,0-0.072-0.013-0.1-0.041c-0.055-0.055-0.055-0.145,0-0.199c0.213-0.214,0.496-0.331,0.799-0.331    c0.301,0,0.584,0.117,0.797,0.331c0.057,0.054,0.057,0.144,0,0.199C25.743,12.001,25.654,12.001,25.598,11.946z M20.21,4.389    c0-0.276,0.202-0.5,0.45-0.5l2.09-0.001c-0.455,0.363-0.751,0.956-0.751,1.626v34.516c0,0.492,0.23,1.026,0.495,1.375H20.66    c-0.249,0-0.45-0.225-0.45-0.5V4.389z M35.629,46.352H15.088c-0.231,0-0.422-0.195-0.448-0.444l1.782-7.288l0.016-0.131    c0-0.275,0.202-0.5,0.45-0.5h2.422v2.916c0,0.827,0.605,1.5,1.35,1.5h8.751c0.745,0,1.351-0.673,1.351-1.5v-2.916h3.068    c0.247,0,0.449,0.225,0.449,0.5l1.797,7.419C36.053,46.156,35.861,46.352,35.629,46.352z"/>
	</g>
</g>
</svg>
