<svg fill="#000000" xmlns="http://www.w3.org/2000/svg" xmlns:xlink="http://www.w3.org/1999/xlink" version="1.1" x="0px" y="0px" viewBox="0 0 85.781 67.317" enable-background="new 0 0 85.781 67.317" xml:space="preserve"><g><g><path d="M23.896,33.658c0-5.391,4.37-9.761,9.761-9.762l0,0c5.393,0.001,9.763,4.371,9.763,9.762l0,0    c0,5.391-4.37,9.761-9.763,9.761l0,0C28.267,43.419,23.896,39.049,23.896,33.658L23.896,33.658z M25.522,33.658    c0.009,4.491,3.644,8.126,8.135,8.133l0,0c4.492-0.007,8.126-3.642,8.133-8.133l0,0c-0.007-4.491-3.641-8.126-8.133-8.134l0,0    C29.166,25.532,25.531,29.167,25.522,33.658L25.522,33.658z"/></g><g><path d="M32.023,33.656c0-0.901,0.731-1.633,1.634-1.633l0,0c0.902,0,1.634,0.731,1.634,1.633l0,0    c0,0.905-0.731,1.635-1.634,1.637l0,0C32.755,35.291,32.023,34.562,32.023,33.656L32.023,33.656z M33.651,33.656l0.006,0.008    l0.006-0.008l-0.006-0.005L33.651,33.656L33.651,33.656z"/></g><g><path d="M12.144,33.656c0-11.88,9.632-21.513,21.514-21.513l0,0c11.881,0,21.515,9.633,21.515,21.513l0,0l0,0    c0,11.884-9.634,21.517-21.515,21.517l0,0C21.775,55.172,12.144,45.54,12.144,33.656L12.144,33.656z M19.595,19.595    c-3.599,3.604-5.824,8.569-5.824,14.062l0,0c0,5.495,2.226,10.462,5.824,14.064l0,0c3.603,3.6,8.569,5.822,14.062,5.825l0,0    c5.495-0.003,10.462-2.226,14.062-5.825l0,0c3.601-3.603,5.825-8.569,5.825-14.064l0,0c0-5.492-2.225-10.458-5.825-14.062l0,0    c-3.6-3.599-8.566-5.823-14.062-5.823l0,0C28.164,13.771,23.197,15.996,19.595,19.595L19.595,19.595z"/></g><g><polygon points="76.348,37.094 74.9,37.989 74.9,37.99 77.581,36.332   "/><g><polygon fill="none" points="77.581,36.332 76.348,37.094 74.9,37.989 74.9,37.99 77.891,39.448 82.412,36.651 79.424,35.193         "/><polygon fill="none" points="78.6,30.482 74.076,33.281 74.045,36.606 78.567,33.808    "/><g><path fill="none" d="M56.155,49.439c-0.273,0-0.54-0.136-0.693-0.386c-0.237-0.382-0.118-0.883,0.265-1.121l8.698-5.378      c0.816-2.824,1.263-5.807,1.263-8.896c0-8.846-3.583-16.849-9.382-22.649c-5.8-5.796-13.802-9.379-22.648-9.38      c-8.848,0.001-16.85,3.584-22.648,9.38C5.211,16.81,1.628,24.812,1.628,33.658c0,8.848,3.583,16.85,9.381,22.647      c5.799,5.799,13.801,9.382,22.648,9.382c8.847,0,16.849-3.583,22.648-9.382c3.189-3.188,5.702-7.048,7.324-11.346l-7.048,4.357      C56.449,49.399,56.302,49.439,56.155,49.439z"/><polygon fill="none" points="78.6,30.482 74.076,33.281 74.045,36.606 78.567,33.808     "/><polygon fill="none" points="77.581,36.332 76.348,37.094 74.9,37.989 74.9,37.99 77.891,39.448 82.412,36.651 79.424,35.193           "/><path d="M84.453,35.835l-4.258-2.077l0.059-6.214l-1.255,0.778l-6.542,4.046l-0.052,5.25l-0.873,0.54l-5.102,3.158      c0.572-2.462,0.884-5.023,0.886-7.658C67.314,15.069,52.246,0,33.657,0C15.067,0.001,0,15.069,0,33.658      c0,18.588,15.067,33.658,33.657,33.659c15.125-0.001,27.919-9.979,32.162-23.711l7.444-4.603l4.72,2.3l7.798-4.821      L84.453,35.835z M56.306,56.306c-5.8,5.799-13.802,9.382-22.648,9.382c-8.848,0-16.85-3.583-22.648-9.382      c-5.798-5.798-9.381-13.8-9.381-22.647c0-8.846,3.583-16.849,9.381-22.649c5.799-5.796,13.801-9.379,22.648-9.38      c8.847,0.001,16.849,3.584,22.648,9.38c5.799,5.801,9.382,13.804,9.382,22.649c0,3.09-0.446,6.072-1.263,8.896l-8.698,5.378      c-0.383,0.238-0.502,0.739-0.265,1.121c0.153,0.25,0.42,0.386,0.693,0.386c0.146,0,0.294-0.04,0.427-0.122l7.048-4.357      C62.008,49.258,59.495,53.117,56.306,56.306z M74.076,33.281l4.523-2.799l-0.032,3.325l-4.522,2.799L74.076,33.281z       M77.891,39.448L74.9,37.99v-0.001l1.447-0.896l1.233-0.762l1.843-1.139l2.988,1.458L77.891,39.448z"/></g></g></g></g></svg>