<svg xmlns="http://www.w3.org/2000/svg" xmlns:xlink="http://www.w3.org/1999/xlink" version="1.1" x="0px" y="0px" viewBox="0 0 90 90" enable-background="new 0 0 90 90" xml:space="preserve"><g><path fill="none" stroke="#000000" stroke-width="1.2527" stroke-linecap="round" stroke-linejoin="round" stroke-miterlimit="10" d="   M68.6,10.3c0,0-10.9-9.4-15.7,4.6c0,0,1.5,12.3-3.5,15c0,0-7.3,0.4-14.8,8.8c0,0-8.3,6.7-12.4,7.7c-0.6,0.2-1.2,0.2-1.6,0   c-2.9-1.3-7.7,1.9-9.4,2.7c0,0,4.4,1.7,6.5,1.7c0,0-3.6,3.6-5.9,4c-0.2,0-0.4,0.1-0.6,0c-2.3-0.1,4.4,3.5,6.2,3.5l-5,3.3   c0,0,6.4,1.9,11.6,5.7c0,0,16.3,11,25.3,1.3c0,0,3.6-7.2,6-9c0,0,3.5-2.8,5.4-9.6c0,0,2.9-2.2,2.5-11.1c0,0-0.6-4.9-3.9-9.9   c0,0-0.8-5.8,2.5-8.6c0,0,2.1-1.1,4.5-2.6c0,0,7.9-0.4,9.2-1.4c0,0,1.4-0.6-1.1-1.3C74.4,15.2,71.1,13.6,68.6,10.3z"></path><circle cx="63.4" cy="10.4" r="0.8"></circle><g><path d="M19.7,46.6c1.2,1.2,2.4,2.2,4.1,2.8c0.5,0.2,4.3,0.9,4.3,1c0.2,0.3-4.9,5.6-5.6,6.5c-0.2,0.2,0.1,0.3,0.2,0.4    c3.8,0.9,8.1,0.8,11.4-1.4c-0.5,0-1,0-1.4,0c-0.6,2.2-3.3,6.7-1,8.6c1.8,1.5,4.8-0.2,6.3-1.2c3.4-2.2,6.7-4.6,10-6.9    c3.8-2.7,7.4-5.9,8.4-10.7c0.1-0.5-1.5-0.3-1.6,0.2c-1.4,7.4-8.7,10.3-14.2,14.2c-1.7,1.2-6,6.1-8,2.6c-0.9-1.5,1.3-5.4,1.8-7    c0.2-0.6-1.3-0.1-1.4,0c-1,0.7-8,2.9-8,0.1c0-1.5,4.8-5,5.5-5.4c0.3-0.2,0.5-0.5,0-0.6c-3.7-0.5-6.4-1.1-9.2-3.8    C20.9,45.7,19.4,46.3,19.7,46.6L19.7,46.6z"></path></g><path fill="none" stroke="#000000" stroke-width="1.2527" stroke-miterlimit="10" d="M68.6,10.3c0,0-3.6,1.2-2.4,7.4"></path><path fill="none" stroke="#000000" stroke-width="1.2527" stroke-linecap="round" stroke-linejoin="round" stroke-miterlimit="10" d="   M40.4,72.7c0,0,3.5,5.3,0,8.9c0,0,1.7-1.9,4,0c0,0,6,1.8,9,0.7c0,0-6.7-0.4-9-4.6c0,0-2.1-4.1-1.1-5.4"></path><path fill="none" stroke="#000000" stroke-width="1.2527" stroke-linecap="round" stroke-linejoin="round" stroke-miterlimit="10" d="   M29.4,70.4c0,0-1.1,5.2-3.5,5.9c0,0,2.7-0.7,3.5,0c0,0,1.7,2.3,3.1,3.5c0,0,4.3,2.1,5.5,1.4c0,0-9.6-6.6-6.1-9.8"></path><g><path d="M70.8,15.1c0.2,0.3,0.4,0.6,0.6,0.8c0.3,0.3,1-0.1,0.7-0.4c-0.3-0.3-0.5-0.5-0.6-0.8C71.3,14.4,70.6,14.7,70.8,15.1    L70.8,15.1z"></path></g></g></svg>