<svg fill="#000000" xmlns="http://www.w3.org/2000/svg" xmlns:xlink="http://www.w3.org/1999/xlink" version="1.1" x="0px" y="0px" viewBox="0 0 100 100" enable-background="new 0 0 100 100" xml:space="preserve"><g><path fill="#000000" d="M82.382,60.194c-3.142-4.2-3.365-14.943-3.367-15.052c-0.001-0.038-0.004-0.076-0.009-0.113   c-1.366-10.342-5.263-18.008-11.581-22.785c-7.168-5.419-15.246-5.465-18.165-5.273c-2.916-0.192-10.996-0.148-18.166,5.273   c-6.318,4.776-10.215,12.442-11.582,22.785c-0.005,0.038-0.008,0.076-0.009,0.114c-0.002,0.108-0.225,10.851-3.367,15.051   c-3.119,4.168-3.782,8.807-1.819,12.726c1.938,3.871,6.035,6.275,10.692,6.275c0.398,0,0.759-0.236,0.917-0.602   c0.159-0.366,0.085-0.791-0.187-1.082c-0.029-0.03-2.307-2.51-1.97-5.28c1.365,2.791,4.388,6.964,10.24,6.964   c0.426,0,0.804-0.27,0.943-0.671c0.141-0.401,0.011-0.848-0.322-1.112c-0.041-0.033-4.112-3.304-4.359-6.65   c-0.044-0.592,0.044-1.145,0.253-1.67c3.813,7.445,10.676,13.363,18.714,13.363c8.22,0,14.841-5.548,18.583-12.743   c0.247,0.563,0.354,1.147,0.294,1.768c-0.302,3.073-4.151,5.875-4.19,5.903c-0.353,0.254-0.502,0.706-0.368,1.119   c0.133,0.413,0.517,0.693,0.951,0.693c6.07,0,9-4.079,10.297-6.881c0.619,3.009-1.389,5.063-1.491,5.166   c-0.271,0.266-0.369,0.66-0.253,1.021c0.116,0.36,0.426,0.624,0.801,0.682c0.495,0.076,0.987,0.113,1.474,0.113   c3.383,0,6.501-1.798,8.37-4.913C85.704,71.05,86.406,65.572,82.382,60.194z M49.238,80.455c-7.698,0-14.211-6.065-17.544-13.455   c-0.004-0.251-0.104-0.496-0.295-0.687c-1.34-3.191-2.093-6.596-2.093-9.847v-0.774c4.128-0.844,5.54-6.955,6.796-12.392   c0.844-3.65,1.716-7.423,3.192-8.695c1.086-0.935,2.144-1.356,3.149-1.24c1.527,0.171,2.535,1.512,2.542,1.521   c0.188,0.259,0.487,0.413,0.808,0.414c0.001,0,0.002,0,0.003,0c0.318,0,0.618-0.152,0.807-0.409   c0.015-0.02,1.589-2.062,3.425-1.847c1.628,0.188,3.245,2.064,4.677,5.425c1.426,3.348,2.843,6.324,4.329,8.837h-4.61   c-0.553,0-1,0.448-1,1s0.447,1,1,1h5.873c2.567,3.75,5.396,6.079,8.873,6.435v0.725c0,3.589-0.821,7.307-2.313,10.715   c-0.058,0.088-0.1,0.179-0.127,0.278C63.468,74.693,57.167,80.455,49.238,80.455z M81.989,73.354   c-1.385,2.31-3.613,3.717-6.064,3.917c1.068-1.949,1.688-4.969-0.34-8.261c-0.215-0.35-0.623-0.531-1.025-0.459   c-0.404,0.071-0.724,0.383-0.807,0.784c-0.056,0.271-1.234,5.713-6.17,7.379c1.161-1.312,2.328-3.08,2.521-5.034   c0.148-1.493-0.276-2.882-1.261-4.137c0.572-1.355,1.057-2.748,1.423-4.164c2.979-0.383,5.294-3.086,5.294-6.354v-2.018   c0-0.533-0.418-0.973-0.95-0.999l-4.341-0.213c-0.033-0.003-0.066-0.005-0.1-0.005c-4.868,0-8.688-4.515-13.625-16.105   c-1.754-4.118-3.869-6.348-6.286-6.627c-1.983-0.23-3.578,0.918-4.478,1.776c-0.67-0.593-1.726-1.293-3.088-1.453   c-1.585-0.188-3.169,0.389-4.703,1.708c-1.974,1.699-2.878,5.615-3.836,9.761c-1.186,5.128-2.528,10.94-5.848,10.94   c-0.008,0-0.014,0.004-0.021,0.004c-0.008,0.001-0.014-0.003-0.021-0.003l-5.02,0.217c-0.535,0.023-0.957,0.464-0.957,0.999v2.02   c0,3.526,2.697,6.395,6.014,6.398c0.326,1.168,0.729,2.325,1.201,3.46c-0.922,1.202-1.334,2.554-1.225,4.029   c0.167,2.233,1.533,4.317,2.812,5.808c-4.815-1.662-6.265-7.157-6.334-7.431c-0.096-0.379-0.403-0.668-0.787-0.739   c-0.375-0.067-0.773,0.086-0.999,0.405c-1.996,2.822-1.235,5.909-0.041,8.043c-3.002-0.571-5.519-2.37-6.823-4.977   c-1.611-3.217-1.016-7.093,1.633-10.633c3.436-4.592,3.743-15.17,3.765-16.156c1.299-9.751,4.925-16.945,10.776-21.38   c5.711-4.328,12.204-4.936,15.549-4.919c0.181,0.096,2.247,0.119,2.263,0.122c0.228,0.033,10.402-0.183,16.129,4.782   c5.555,4.816,9.497,11.632,10.797,21.396c0.021,0.986,0.33,11.564,3.765,16.156C84.212,65.978,83.654,70.578,81.989,73.354z    M70.737,61.227c0.285-1.588,0.433-3.186,0.433-4.76v-0.625l2.391,0.118v1.065C73.561,58.996,72.371,60.668,70.737,61.227z    M27.813,61.371c-1.981-0.27-3.525-2.104-3.525-4.344v-1.062l3.02-0.131v0.632C27.307,58.079,27.484,59.727,27.813,61.371z"/><circle fill="#000000" cx="40.581" cy="57.701" r="2.623"/><path fill="#000000" d="M39.949,52.779c-2.355,0.295-3.721,1.908-3.809,3.277c-0.027,0.414,0.286,0.771,0.699,0.797   c0.017,0.001,0.033,0.002,0.05,0.002c0.392,0,0.722-0.305,0.747-0.701c0.05-0.764,1.019-1.701,2.498-1.887   c1.595-0.2,2.567,0.585,2.929,1.315c0.184,0.37,0.631,0.521,1.005,0.339c0.371-0.184,0.522-0.634,0.339-1.005   C43.827,53.745,42.305,52.487,39.949,52.779z"/><circle fill="#000000" cx="58.364" cy="57.413" r="2.622"/><path fill="#000000" d="M58.996,52.492c-2.351-0.294-3.879,0.965-4.459,2.136c-0.184,0.371-0.032,0.821,0.339,1.005   c0.375,0.183,0.821,0.031,1.005-0.339c0.361-0.729,1.338-1.517,2.93-1.313c1.479,0.186,2.447,1.122,2.496,1.884   c0.025,0.397,0.354,0.702,0.747,0.702c0.017,0,0.032,0,0.049-0.002c0.413-0.026,0.727-0.383,0.7-0.796   C62.716,54.4,61.352,52.787,58.996,52.492z"/><path fill="#000000" d="M43.096,49.348c0.553,0,1-0.448,1-1s-0.447-1-1-1h-6.723c-0.553,0-1,0.448-1,1s0.447,1,1,1H43.096z"/><path fill="#000000" d="M49.472,64.148c-2.416,0-4.381,1.965-4.381,4.38v3.24c0,2.415,1.965,4.38,4.381,4.38   c2.415,0,4.38-1.965,4.38-4.38v-3.24C53.852,66.113,51.887,64.148,49.472,64.148z M51.852,71.769c0,1.313-1.067,2.38-2.38,2.38   s-2.381-1.067-2.381-2.38v-3.24c0-1.313,1.068-2.38,2.381-2.38s2.38,1.067,2.38,2.38V71.769z"/></g></svg>