<svg fill="#000000" xmlns:dc="http://purl.org/dc/elements/1.1/" xmlns:cc="http://creativecommons.org/ns#" xmlns:rdf="http://www.w3.org/1999/02/22-rdf-syntax-ns#" xmlns:svg="http://www.w3.org/2000/svg" xmlns="http://www.w3.org/2000/svg" xmlns:sodipodi="http://sodipodi.sourceforge.net/DTD/sodipodi-0.dtd" xmlns:inkscape="http://www.inkscape.org/namespaces/inkscape" version="1.1" x="0px" y="0px" viewBox="0 0 100 100"><g transform="translate(0,-952.36218)"><path style="font-size:medium;font-style:normal;font-variant:normal;font-weight:normal;font-stretch:normal;text-indent:0;text-align:start;text-decoration:none;line-height:normal;letter-spacing:normal;word-spacing:normal;text-transform:none;direction:ltr;block-progression:tb;writing-mode:lr-tb;text-anchor:start;baseline-shift:baseline;opacity:1;color:#000000;fill:#000000;fill-opacity:1;stroke:none;stroke-width:2.64705872999999990;marker:none;visibility:visible;display:inline;overflow:visible;enable-background:accumulate;font-family:Sans;-inkscape-font-specification:Sans" d="M 50 14.03125 C 30.141432 14.03125 14.03125 30.14142 14.03125 50 C 14.03125 69.8585 30.141432 85.96875 50 85.96875 C 69.858569 85.96875 85.96875 69.8585 85.96875 50 C 85.96875 30.14142 69.858569 14.03125 50 14.03125 z M 48 18.0625 L 48 50 A 2.0002 2.0002 0 0 0 50 52 L 81.9375 52 C 80.909147 68.7655 67.026668 82.03125 50 82.03125 C 32.303197 82.03125 17.96875 67.6968 17.96875 50 C 17.96875 32.973317 31.2345 19.090853 48 18.0625 z M 52 18.0625 C 53.017017 18.124881 54.010988 18.22006 55 18.375 L 55 48 L 52 48 L 52 18.0625 z M 59 19.25 C 60.024558 19.548944 61.020896 19.916792 62 20.3125 L 62 48 L 59 48 L 59 19.25 z M 66 22.28125 C 67.035184 22.879534 68.042394 23.512057 69 24.21875 L 69 48 L 66 48 L 66 22.28125 z M 73 27.71875 C 74.085883 28.839261 75.086142 30.042951 76 31.3125 L 76 48 L 73 48 L 73 27.71875 z M 80 38.84375 C 81.072365 41.728182 81.740595 44.789798 81.9375 48 L 80 48 L 80 38.84375 z " transform="translate(0,952.36218)"/></g></svg>