<svg xmlns="http://www.w3.org/2000/svg" xmlns:xlink="http://www.w3.org/1999/xlink" version="1.1" x="0px" y="0px" viewBox="0 0 100 100" enable-background="new 0 0 100 100" xml:space="preserve"><g><path fill="#000000" d="M49.3,21.7c0.9,0,1.6-0.7,1.6-1.6c0-0.9-0.7-1.6-1.6-1.6c-0.9,0-1.6,0.7-1.6,1.6   C47.7,21,48.4,21.7,49.3,21.7z M49.3,19.4c0.4,0,0.7,0.3,0.7,0.7s-0.3,0.7-0.7,0.7c-0.4,0-0.7-0.3-0.7-0.7S48.9,19.4,49.3,19.4z"></path><path fill="#000000" d="M39.7,15.3c-1.3,0-2.4,1.1-2.4,2.4s1.1,2.4,2.4,2.4c1.3,0,2.4-1.1,2.4-2.4S41,15.3,39.7,15.3z M39.7,19.2   c-0.8,0-1.4-0.7-1.4-1.4s0.7-1.4,1.4-1.4c0.8,0,1.4,0.7,1.4,1.4S40.5,19.2,39.7,19.2z"></path><path fill="#000000" d="M30.1,11.3c-1.6,0-2.9,1.3-2.9,2.9s1.3,2.9,2.9,2.9c1.6,0,2.9-1.3,2.9-2.9S31.7,11.3,30.1,11.3z M30.1,16.2   c-1.1,0-1.9-0.9-1.9-1.9s0.9-1.9,1.9-1.9s1.9,0.9,1.9,1.9S31.2,16.2,30.1,16.2z"></path><path fill="#000000" d="M20.5,5c-2.1,0-3.8,1.7-3.8,3.8s1.7,3.8,3.8,3.8s3.8-1.7,3.8-3.8S22.6,5,20.5,5z M20.5,11.6   c-1.6,0-2.8-1.3-2.8-2.8C17.7,7.2,19,6,20.5,6c1.6,0,2.8,1.3,2.8,2.8C23.3,10.3,22.1,11.6,20.5,11.6z"></path><path fill="#000000" d="M49.3,34.7c0.9,0,1.6-0.7,1.6-1.6s-0.7-1.6-1.6-1.6c-0.9,0-1.6,0.7-1.6,1.6S48.4,34.7,49.3,34.7z    M49.3,32.3c0.4,0,0.7,0.3,0.7,0.7c0,0.4-0.3,0.7-0.7,0.7c-0.4,0-0.7-0.3-0.7-0.7C48.6,32.6,48.9,32.3,49.3,32.3z"></path><path fill="#000000" d="M39.7,33c-1.3,0-2.4,1.1-2.4,2.4c0,1.3,1.1,2.4,2.4,2.4c1.3,0,2.4-1.1,2.4-2.4C42.1,34,41,33,39.7,33z    M39.7,36.8c-0.8,0-1.4-0.7-1.4-1.4s0.7-1.4,1.4-1.4c0.8,0,1.4,0.7,1.4,1.4S40.5,36.8,39.7,36.8z"></path><path fill="#000000" d="M30.1,36c-1.6,0-2.9,1.3-2.9,2.9c0,1.6,1.3,2.9,2.9,2.9c1.6,0,2.9-1.3,2.9-2.9C33,37.3,31.7,36,30.1,36z    M30.1,40.8c-1.1,0-1.9-0.9-1.9-1.9s0.9-1.9,1.9-1.9s1.9,0.9,1.9,1.9S31.2,40.8,30.1,40.8z"></path><path fill="#000000" d="M20.5,40.6c-2.1,0-3.8,1.7-3.8,3.8c0,2.1,1.7,3.8,3.8,3.8s3.8-1.7,3.8-3.8C24.3,42.2,22.6,40.6,20.5,40.6z    M20.5,47.1c-1.6,0-2.8-1.3-2.8-2.8c0-1.6,1.3-2.8,2.8-2.8c1.6,0,2.8,1.3,2.8,2.8C23.3,45.9,22.1,47.1,20.5,47.1z"></path><path fill="#000000" d="M49.3,28.2c0.9,0,1.6-0.7,1.6-1.6c0-0.9-0.7-1.6-1.6-1.6c-0.9,0-1.6,0.7-1.6,1.6   C47.7,27.4,48.4,28.2,49.3,28.2z M49.3,25.8c0.4,0,0.7,0.3,0.7,0.7s-0.3,0.7-0.7,0.7c-0.4,0-0.7-0.3-0.7-0.7S48.9,25.8,49.3,25.8z"></path><path fill="#000000" d="M39.7,24.1c-1.3,0-2.4,1.1-2.4,2.4s1.1,2.4,2.4,2.4c1.3,0,2.4-1.1,2.4-2.4S41,24.1,39.7,24.1z M39.7,28   c-0.8,0-1.4-0.7-1.4-1.4c0-0.8,0.7-1.4,1.4-1.4c0.8,0,1.4,0.7,1.4,1.4C41.2,27.3,40.5,28,39.7,28z"></path><path fill="#000000" d="M30.1,23.6c-1.6,0-2.9,1.3-2.9,2.9c0,1.6,1.3,2.9,2.9,2.9c1.6,0,2.9-1.3,2.9-2.9   C33,24.9,31.7,23.6,30.1,23.6z M30.1,28.4c-1.1,0-1.9-0.9-1.9-1.9s0.9-1.9,1.9-1.9s1.9,0.9,1.9,1.9S31.2,28.4,30.1,28.4z"></path><path fill="#000000" d="M20.5,22.7c-2.1,0-3.8,1.7-3.8,3.8s1.7,3.8,3.8,3.8s3.8-1.7,3.8-3.8S22.6,22.7,20.5,22.7z M20.5,29.3   c-1.6,0-2.8-1.3-2.8-2.8c0-1.6,1.3-2.8,2.8-2.8c1.6,0,2.8,1.3,2.8,2.8C23.3,28.1,22.1,29.3,20.5,29.3z"></path><path fill="#000000" d="M80.9,88.4L82.3,50h0.2l-0.2-0.6c-1.9-7-5.4-11.5-7.3-13.6c-0.9-1-2.3-1.6-3.7-1.6H59.1   c-1.4,0-2.8,0.6-3.7,1.6c-5.3,5.8-7.3,13.3-7.4,13.6L47.9,50H48l1.8,38.6c-1.1,0.6-1.8,1.7-1.8,3c0,1.9,1.5,3.4,3.4,3.4h28.4   c1.9,0,3.4-1.5,3.4-3.4C83.3,90.1,82.3,88.8,80.9,88.4z M56.1,36.4c0.8-0.8,1.8-1.3,3-1.3h12.2c1.1,0,2.2,0.5,3,1.3   c1.8,2,5.1,6.2,7,12.6H49.1C49.7,47.2,51.8,41.2,56.1,36.4z M49,50h32.4l-1.4,38.2c0,0,0,0,0,0H51.4c-0.2,0-0.4,0-0.7,0.1L49,50z    M79.9,94H51.4c-1.3,0-2.4-1.1-2.4-2.4s1.1-2.4,2.4-2.4h28.4c1.3,0,2.4,1.1,2.4,2.4S81.2,94,79.9,94z"></path><path fill="#000000" d="M60.7,24.3c-1,0-1.8,0.8-1.8,1.8s0.8,1.8,1.8,1.8s1.8-0.8,1.8-1.8S61.7,24.3,60.7,24.3z M60.7,27   c-0.5,0-0.9-0.4-0.9-0.9c0-0.5,0.4-0.9,0.9-0.9c0.5,0,0.9,0.4,0.9,0.9C61.6,26.6,61.2,27,60.7,27z"></path><path fill="#000000" d="M73.6,22c0-2.2-1.8-3.9-3.9-3.9h-9.1c-2.2,0-3.9,1.8-3.9,3.9v10.2h16.9V22z M72.7,31.3h-15V22   c0-1.6,1.3-2.9,2.9-2.9h9.1c1.6,0,2.9,1.3,2.9,2.9V31.3z"></path></g></svg>