<svg fill="#000000" xmlns="http://www.w3.org/2000/svg" data-name="Layer 1" viewBox="0 0 100 100" x="0px" y="0px"><title>Artboard 20</title><path d="M28.35,93.09,22.44,99,1.35,78.45l15.11-15A23,23,0,0,1,40.31,58l3.32,1.16H64a6.43,6.43,0,0,1,6.43,6.63,6.61,6.61,0,0,1-6.7,6.23H51.51a2.5,2.5,0,1,0,0,5H63.77A11.65,11.65,0,0,0,75.46,66c0-.05,0-.1,0-.16L86.8,53.07a6.86,6.86,0,0,1,9.43-.92A6.68,6.68,0,0,1,97,61.69l-22.64,26a15.88,15.88,0,0,1-12,5.44ZM75.1,36.56a4.75,4.75,0,0,0-4.75-4.75h-7v-7a4.75,4.75,0,0,0-9.49,0v7h-7a4.75,4.75,0,1,0,0,9.49h7v7a4.75,4.75,0,0,0,9.49,0v-7h7A4.75,4.75,0,0,0,75.1,36.56ZM29.56,10.24V15.4H24.41a3.49,3.49,0,0,0,0,7h5.16v5.16a3.49,3.49,0,0,0,7,0V22.38H41.7a3.49,3.49,0,0,0,0-7H36.54V10.24a3.49,3.49,0,1,0-7,0ZM73.71,1a3,3,0,0,0-3,3V8.44H66.27a3,3,0,0,0,0,6h4.44v4.44a3,3,0,0,0,6,0V14.44h4.44a3,3,0,1,0,0-6H76.71V4A3,3,0,0,0,73.71,1Z"/></svg>