<svg xmlns="http://www.w3.org/2000/svg" xmlns:xlink="http://www.w3.org/1999/xlink" version="1.1" x="0px" y="0px" viewBox="0 0 52.922 100" enable-background="new 0 0 52.922 100" xml:space="preserve"><path d="M30.738,20.599c-0.893,0-1.757-0.384-2.454-1.108c-0.911-0.943-1.572-2.585-0.695-4.362  c0.179-0.362,0.618-0.512,0.979-0.333c0.363,0.179,0.512,0.618,0.333,0.98c-0.679,1.379,0.162,2.414,0.437,2.699  c0.687,0.712,1.373,0.723,1.827,0.605c0.563-0.145,0.953-0.535,1.033-0.828c0.206-0.773-0.246-1.554-1.033-1.777  c-0.157-0.046-0.288-0.015-0.395,0.088c-0.089,0.086-0.134,0.209-0.111,0.297c0.025,0.103,0.173,0.199,0.392,0.258  c0.39,0.106,0.621,0.509,0.514,0.899c-0.105,0.391-0.508,0.614-0.899,0.514c-0.742-0.203-1.262-0.678-1.423-1.304  c-0.156-0.6,0.038-1.256,0.505-1.712c0.48-0.467,1.159-0.637,1.817-0.449c1.539,0.437,2.458,2.036,2.046,3.565  c-0.229,0.855-1.066,1.606-2.08,1.867C31.265,20.565,31,20.599,30.738,20.599z"></path><path d="M7.623,11.81c-0.31,0-0.625-0.051-0.932-0.157c-0.837-0.29-1.526-1.176-1.716-2.207C4.758,8.268,5.207,7.113,6.207,6.277  c1.008-0.842,2.693-1.383,4.4-0.387c0.35,0.204,0.467,0.652,0.263,1.001c-0.203,0.35-0.651,0.47-1.001,0.263  C8.542,6.381,7.45,7.147,7.146,7.401C6.388,8.035,6.33,8.719,6.415,9.182c0.105,0.574,0.467,0.988,0.754,1.087  c0.758,0.263,1.566-0.137,1.845-0.905c0.055-0.153,0.035-0.288-0.061-0.4c-0.08-0.095-0.201-0.154-0.288-0.131  C8.561,8.851,8.453,8.99,8.378,9.204C8.246,9.585,7.83,9.79,7.446,9.653C7.064,9.52,6.863,9.102,6.997,8.721  c0.254-0.727,0.765-1.211,1.4-1.33c0.61-0.113,1.25,0.127,1.673,0.625c0.434,0.511,0.554,1.201,0.321,1.845  C9.958,11.057,8.822,11.81,7.623,11.81z"></path><g><path d="M30.311,4.292c-0.053-0.401-0.422-0.683-0.822-0.629L28.538,3.79l-0.096-0.712c-0.053-0.401-0.42-0.682-0.821-0.628   c-0.401,0.053-0.683,0.421-0.629,0.822l0.095,0.712L26.134,4.11c-0.401,0.053-0.682,0.421-0.629,0.822   c0.054,0.401,0.421,0.683,0.822,0.629l0.5-0.067l-0.358,0.854c-0.157,0.373,0.018,0.802,0.391,0.958   c0.125,0.053,0.254,0.069,0.38,0.052c0.249-0.033,0.474-0.194,0.578-0.443l0.298-0.71l0.585,0.641   c0.168,0.184,0.408,0.263,0.638,0.232c0.142-0.019,0.282-0.08,0.396-0.185c0.298-0.272,0.32-0.735,0.049-1.034l-0.618-0.676   l0.515-0.068C30.083,5.061,30.364,4.693,30.311,4.292z"></path></g><g><path d="M25.438,21.324c-0.505-3.795-4.004-6.47-7.798-5.965c-3.794,0.506-6.47,4.004-5.964,7.799   c0.505,3.795,4.005,6.47,7.799,5.965C23.268,28.618,25.944,25.119,25.438,21.324z M16.207,22.453l-0.516,0.068l0.616,0.676   c0.272,0.299,0.25,0.762-0.048,1.034c-0.114,0.105-0.254,0.166-0.396,0.185c-0.23,0.031-0.471-0.048-0.638-0.232l-0.584-0.641   l-0.299,0.711c-0.103,0.248-0.329,0.409-0.578,0.442c-0.125,0.017-0.256,0.001-0.38-0.051c-0.374-0.157-0.548-0.586-0.391-0.959   l0.359-0.853l-0.5,0.066c-0.401,0.053-0.769-0.228-0.822-0.629c-0.054-0.402,0.228-0.77,0.628-0.823l0.952-0.126l-0.094-0.711   c-0.054-0.401,0.228-0.77,0.629-0.823c0.401-0.053,0.769,0.229,0.822,0.63l0.095,0.71l0.95-0.126   c0.401-0.053,0.769,0.228,0.823,0.629C16.89,22.031,16.608,22.399,16.207,22.453z M21.023,18.621   c-0.257,0.336-0.63,0.552-1.049,0.608c-0.07,0.009-0.141,0.014-0.21,0.014c-0.789,0-1.463-0.591-1.568-1.375   c-0.115-0.865,0.496-1.662,1.361-1.778c0.875-0.123,1.665,0.508,1.779,1.359C21.391,17.869,21.28,18.285,21.023,18.621z"></path></g><circle cx="19.925" cy="1.217" r="1.217"></circle><path d="M1.374,14.21c-0.865,0.116-1.475,0.913-1.36,1.778c0.104,0.784,0.779,1.375,1.568,1.375c0.069,0,0.14-0.004,0.211-0.014  c0.865-0.116,1.476-0.914,1.36-1.78C3.039,14.718,2.256,14.099,1.374,14.21z"></path><path d="M21.727,9.882c-0.419,0.056-0.791,0.272-1.048,0.608c-0.257,0.335-0.368,0.751-0.311,1.17  c0.104,0.784,0.778,1.375,1.566,1.375c0.069,0,0.14-0.004,0.21-0.014c0.42-0.056,0.792-0.271,1.049-0.608  c0.257-0.335,0.368-0.751,0.312-1.171C23.394,10.391,22.617,9.767,21.727,9.882z"></path><path d="M17.073,5.432c-0.516,0.069-0.975,0.334-1.292,0.748c-0.316,0.413-0.453,0.925-0.384,1.442  c0.129,0.965,0.959,1.692,1.931,1.692c0.085,0,0.172-0.006,0.259-0.017c1.065-0.143,1.817-1.125,1.675-2.191  C19.123,6.057,18.142,5.29,17.073,5.432z"></path><path d="M5.644,21.527c-0.517,0.068-0.975,0.334-1.292,0.748C4.037,22.688,3.9,23.2,3.969,23.717  c0.129,0.964,0.959,1.692,1.931,1.692c0.085,0,0.171-0.006,0.259-0.017c1.065-0.143,1.817-1.125,1.675-2.191  C7.694,22.151,6.713,21.383,5.644,21.527z"></path><path d="M52.869,92.087c-0.016-0.103-1.625-10.349-2.276-15.263c-1.167-8.765-10.588-17.188-14.014-19.99l-6.105-19.118  c3.212-0.188,7.838,0.489,11.998,4.679c0.857,0.865,1.987,1.299,3.117,1.299c1.118,0,2.238-0.425,3.095-1.276  c1.722-1.709,1.731-4.49,0.022-6.212c-10.797-10.88-23.732-6.55-25.37-5.938l-4.982,1.691c-0.013,0.004-0.024,0.012-0.037,0.016  c-0.137,0.048-0.267,0.12-0.4,0.183c-0.139,0.064-0.283,0.122-0.411,0.199c-0.014,0.008-0.029,0.012-0.043,0.021  C17.29,32.485,0.294,43.229,10.2,61.355c0.798,1.46,2.304,2.288,3.858,2.288c0.712,0,1.435-0.175,2.103-0.539  c2.129-1.164,2.912-3.832,1.748-5.962c-3.062-5.604-1.992-9.943-0.156-12.882l5.778,18.099c0.02,0.062,0.051,0.117,0.073,0.178  c0.016,0.043,0.021,0.087,0.038,0.13c2.52,6.248,5.179,14.246,5.122,16.174c-0.162,2.308-3.48,9.368-6.461,14.588  c-1.203,2.106-0.471,4.79,1.635,5.993c0.688,0.393,1.436,0.579,2.176,0.579c1.524,0,3.005-0.795,3.818-2.214  c1.201-2.101,7.212-12.86,7.597-18.329c0.192-2.741-1.3-7.906-2.909-12.553c3.228,3.196,6.787,7.51,7.264,11.079  c0.665,5.014,2.239,15.044,2.305,15.468c0.341,2.166,2.21,3.711,4.335,3.711c0.228,0,0.456-0.017,0.688-0.053  C51.607,96.734,53.245,94.486,52.869,92.087z"></path></svg>