<svg fill="#000000" xmlns="http://www.w3.org/2000/svg" xmlns:xlink="http://www.w3.org/1999/xlink" viewBox="0 0 48 88" version="1.1" x="0px" y="0px"><title>Shape</title><desc>Created with Sketch.</desc><g stroke="none" stroke-width="1" fill="none" fill-rule="evenodd"><g transform="translate(-260.000000, -2282.000000)" fill="#000000"><path d="M293.65,2368.70473 L289.91,2369.62473 C288.8,2369.89473 287.4,2370.06473 286.73,2369.05473 C286.479743,2368.59956 286.336131,2368.0935 286.31,2367.57473 L285,2357.21473 L284.09,2365.98473 C283.98,2366.98473 283.79,2368.20473 282.98,2368.74473 C281.2,2369.94473 278.45,2366.91473 276.98,2368.58473 C276.092045,2369.42917 274.697955,2369.42917 273.81,2368.58473 C272.932887,2367.71071 272.274973,2366.6416 271.89,2365.46473 C270.1,2361.16473 268.3,2356.85473 266.82,2352.46473 C265.89,2349.67473 265.07,2346.70473 265.47,2343.76473 C265.72,2341.95473 266.41,2340.25473 266.77,2338.46473 C267.67,2333.90473 266.28,2329.19473 264.57,2324.92473 C262.86,2320.65473 260.78,2316.40473 260.19,2311.78473 C259.54,2306.78473 260.71,2301.70473 261.87,2296.78473 L264.22,2286.78473 C264.328907,2285.86043 264.786781,2285.01264 265.5,2284.41473 C265.931734,2284.20132 266.408501,2284.09499 266.89,2284.10473 L297.44,2282.32473 C298.69,2282.32473 300.09,2282.27473 301,2283.23473 C301.461913,2283.85219 301.776593,2284.56706 301.92,2285.32473 L305.92,2299.27473 C306.763351,2301.80324 307.264467,2304.43325 307.41,2307.09473 C307.48,2313.56473 303.51,2319.09473 300.48,2324.67473 C299.29,2326.85473 298.21,2329.52473 299.18,2331.82473 C300.67,2335.34473 302.18,2339.01473 302.11,2342.88473 C302.008613,2344.76269 301.717123,2346.62555 301.24,2348.44473 L297.47,2365.14473 C297.361356,2365.80194 297.137952,2366.43492 296.81,2367.01473 C296.020341,2367.96674 294.897405,2368.58185 293.67,2368.73473 L293.65,2368.70473 Z M285.12,2301.32473 C285.868882,2302.42894 286.221392,2303.75438 286.12,2305.08473 C286.18,2310.01473 284.9,2315.03473 286.03,2319.80473 C286.66,2322.48473 288.03,2324.88473 289.03,2327.40473 C290.03,2329.92473 290.8,2332.78473 290.1,2335.40473 C289.626223,2336.79511 289.05824,2338.15158 288.4,2339.46473 C286.28,2344.60473 287.17,2350.55473 288.11,2356.09473 L289.35,2363.32473 C289.397014,2364.31391 289.8022,2365.25224 290.49,2365.96473 C291.541281,2366.58249 292.891372,2366.28101 293.58,2365.27473 C294.277614,2364.24058 294.729154,2363.06042 294.9,2361.82473 L297.4,2350.39473 C298.31,2346.22473 299.22,2341.76473 297.9,2337.72473 C297.29,2335.86473 296.25,2334.20473 295.57,2332.37473 C294.765972,2330.5563 294.765972,2328.48315 295.57,2326.66473 C297.57,2323.00473 299.57,2319.33473 301.3,2315.51473 C302.445604,2313.20603 303.224929,2310.7331 303.61,2308.18473 C304.41,2301.18473 300.23,2294.65473 299.28,2287.65473 C299.095816,2286.67244 298.384097,2285.87223 297.43,2285.57473 C296.524342,2285.33078 295.578634,2285.27295 294.65,2285.40473 L271.66,2287.11473 C270.29,2287.21473 268.74,2287.42473 267.94,2288.63473 C267.615254,2289.19718 267.395035,2289.8138 267.29,2290.45473 C266.343333,2294.63473 265.463333,2298.83806 264.65,2303.06473 C264.055117,2305.52763 263.835974,2308.06631 264,2310.59473 C264.268164,2312.40795 264.737734,2314.1856 265.4,2315.89473 C266.98,2320.41473 268.646667,2324.90139 270.4,2329.35473 C270.894753,2330.47116 271.253979,2331.64284 271.47,2332.84473 C272,2336.68473 269.6,2340.32473 269.35,2344.17473 C269.292244,2346.0086 269.535468,2347.83953 270.07,2349.59473 C271.242215,2353.56863 272.709631,2357.44943 274.46,2361.20473 C274.93758,2362.5772 275.732479,2363.81752 276.78,2364.82473 C277.828914,2365.81776 279.471086,2365.81776 280.52,2364.82473 C281.073862,2363.98307 281.356549,2362.99192 281.33,2361.98473 L281.83,2355.43473 C282.224985,2352.07481 282.201472,2348.67885 281.76,2345.32473 C281.07,2341.32473 279.2,2337.64473 278.85,2333.61473 C278.32,2327.32473 281.48,2321.32473 281,2315.01473 C280.84,2312.66473 280.17,2310.39473 279.9,2308.01473 C279.63,2305.63473 279.82,2303.12473 281.16,2301.27473 C282.354355,2302.0409 283.885645,2302.0409 285.08,2301.27473 L285.12,2301.32473 Z M284.38,2340.42473 C284.557192,2339.55709 284.839264,2338.71424 285.22,2337.91473 C286.20879,2335.86853 286.533922,2333.56464 286.15,2331.32473 C285.730795,2329.07074 285.007524,2326.88411 284,2324.82473 C283.89,2324.57473 283.68,2324.27473 283.44,2324.38473 L282.7,2329.52473 C282.547438,2330.42388 282.460542,2331.33295 282.44,2332.24473 C282.471774,2333.51957 282.659846,2334.78569 283,2336.01473 C283.396394,2337.52808 283.870353,2339.02005 284.42,2340.48473 L284.38,2340.42473 Z"/></g></g></svg>