<svg fill="#000000" xmlns="http://www.w3.org/2000/svg" data-name="Layer 1" viewBox="0 0 100 100" x="0px" y="0px"><title>Artboard 20</title><path d="M93.62,56.37A8.41,8.41,0,0,1,91.18,63l-23,23a17.63,17.63,0,0,1-12.55,5.2H27.13l-7.18,7.18a2.5,2.5,0,0,1-3.54-3.54L24.33,87a2.5,2.5,0,0,1,1.77-.73H55.61a12.66,12.66,0,0,0,9-3.73l23-23a3.43,3.43,0,0,0-4.85-4.85l-18,18.29L64.7,73a8.35,8.35,0,0,1-6,2.49H41.13a2.5,2.5,0,0,1,0-5h17.6a3.39,3.39,0,1,0,0-6.78H28.36a10.53,10.53,0,0,0-7.5,3.11L16.44,71.2a2.5,2.5,0,0,1-3.54-3.54l4.43-4.43a15.5,15.5,0,0,1,11-4.57H58.73a8.34,8.34,0,0,1,7.75,5.2L79.26,51.09a8.43,8.43,0,0,1,14.36,5.29ZM6.65,47a6.11,6.11,0,0,0,3.22,3.64l7.54,3.51a2.5,2.5,0,0,0,2.11-4.53L12,46.14a1.09,1.09,0,0,1-.49-1.52l4-7.28a2.5,2.5,0,0,0,0-2.43l-4-7.28A1.09,1.09,0,0,1,12,26.13l7.54-3.51a2.5,2.5,0,0,0,1.43-2l1-8.26a1.09,1.09,0,0,1,1.29-.94L31.42,13a2.51,2.51,0,0,0,2.31-.75L39.4,6.21a1.09,1.09,0,0,1,1.6,0l5.67,6.09A2.51,2.51,0,0,0,49,13l8.17-1.59a1.09,1.09,0,0,1,1.29.94l1,8.26a2.5,2.5,0,0,0,1.43,2l7.54,3.51a1.09,1.09,0,0,1,.49,1.52l-4,7.28a2.5,2.5,0,0,0,0,2.43l4,7.27a1.09,1.09,0,0,1-.49,1.52l-7.55,3.51A2.5,2.5,0,1,0,63,54.19l7.54-3.51a6.09,6.09,0,0,0,2.75-8.48l-3.37-6.06,3.37-6.06a6.09,6.09,0,0,0-2.75-8.48l-6.29-2.93-.84-6.88a6.09,6.09,0,0,0-7.21-5.24L49.38,7.88,44.66,2.8a6.09,6.09,0,0,0-8.91,0L31,7.88,24.21,6.55A6.09,6.09,0,0,0,17,11.79l-.84,6.88L9.87,21.6a6.09,6.09,0,0,0-2.75,8.48l3.37,6.06L7.12,42.2A6.11,6.11,0,0,0,6.65,47Zm23.1,2.23a2.5,2.5,0,0,0,3.5-.47L51.11,25.45a2.5,2.5,0,1,0-4-3L29.29,45.76A2.5,2.5,0,0,0,29.75,49.26ZM42.25,44V42.64a7.14,7.14,0,0,1,14.28,0V44a7.14,7.14,0,1,1-14.28,0Zm5,0a2.14,2.14,0,1,0,4.28,0V42.64a2.14,2.14,0,0,0-4.28,0ZM31,35.71a7.15,7.15,0,0,1-7.14-7.14V27.17a7.14,7.14,0,1,1,14.28,0v1.41A7.15,7.15,0,0,1,31,35.71Zm0-5a2.14,2.14,0,0,0,2.14-2.14V27.17a2.14,2.14,0,1,0-4.28,0v1.41A2.14,2.14,0,0,0,31,30.71Z"/></svg>