<svg fill="#000000" xmlns="http://www.w3.org/2000/svg" xmlns:xlink="http://www.w3.org/1999/xlink" version="1.1" x="0px" y="0px" viewBox="0 0 100 100" enable-background="new 0 0 100 100" xml:space="preserve"><g><path d="M82.826,44.49c0,0,3.207-4.01,1.736-8.021c0,0-3.608,0.467-5.347,7.217c0,0-2.673,8.554-25.863,8.554   c-6.55,0-18.847-7.083-28.872-6.816C14.882,45.68,4.189,46.839,6.818,60.901c3.609,2.95,11.176,5.548,21.916,7.425   c8.287,1.448,17.986,2.402,28.536,2.837c13.148-3.171,21.309-11.576,24.643-19.545c0,0,0.444-1.315,1.714-1.716   c1.27-0.401,8.688-0.602,9.958-9.557C93.585,40.345,88.306,38.474,82.826,44.49z M18.697,52.475c-0.762,0-1.38-0.618-1.38-1.38   c0-0.763,0.618-1.38,1.38-1.38s1.379,0.617,1.379,1.38C20.076,51.856,19.459,52.475,18.697,52.475z"/></g><g><path d="M7.201,62.677c0.014,0.056,0.023,0.107,0.037,0.162c0.291,1.156,0.705,2.201,1.223,3.15   c4.031,2.473,10.957,4.644,20.273,6.271c3.387,0.592,7.01,1.101,10.83,1.526c4.4-0.445,8.675-1.088,12.402-1.649   c-8.578-0.51-16.505-1.375-23.445-2.589C18.569,67.811,11.336,65.455,7.201,62.677z"/></g><g><path d="M28.521,73.483c-7.986-1.396-14.223-3.188-18.512-5.277c4.711,5.37,13.869,6.466,23.352,6.044   C31.701,74.012,30.084,73.757,28.521,73.483z"/></g><g><path d="M28.432,44.829c-0.344,0-0.621-0.278-0.621-0.621V33.25c0-4.181,3.401-7.582,7.582-7.582c3.414,0,6.191,2.776,6.191,6.189   c0,2.799-2.277,5.077-5.076,5.077c-0.344,0-0.621-0.278-0.621-0.621c0-0.343,0.277-0.62,0.621-0.62   c2.113,0,3.834-1.721,3.834-3.836c0-2.728-2.22-4.948-4.949-4.948c-3.496,0-6.341,2.845-6.341,6.341v10.958   C29.052,44.551,28.773,44.829,28.432,44.829z"/></g><g><path d="M25.748,44.842c-0.342,0-0.621-0.277-0.621-0.62v-6.819c0-3.497-2.844-6.342-6.341-6.342c-2.729,0-4.949,2.22-4.949,4.949   c0,2.115,1.721,3.835,3.835,3.835c0.344,0,0.621,0.278,0.621,0.621c0,0.343-0.277,0.62-0.621,0.62   c-2.799,0-5.076-2.277-5.076-5.076c0-3.414,2.777-6.19,6.19-6.19c4.182,0,7.583,3.401,7.583,7.583v6.819   C26.369,44.565,26.092,44.842,25.748,44.842z"/></g></svg>