<svg fill="#000000" xmlns="http://www.w3.org/2000/svg" xmlns:xlink="http://www.w3.org/1999/xlink" version="1.1" x="0px" y="0px" viewBox="0 0 100 100" enable-background="new 0 0 100 100" xml:space="preserve"><g><path fill="#000000" d="M35.72,14c-1.44,0-2.58,1.2-2.58,2.64v3.42c0,1.44,1.14,2.64,2.58,2.64h1.26v21.96H20.72   c-3.24,0-5.88,2.64-5.88,5.88v29.58c0,3.24,2.64,5.88,5.88,5.88H38.3c0.42,0,0.78-0.36,0.78-0.78v-14.7   c0-6,4.86-10.859,10.86-10.859h0.12c6,0,10.86,4.859,10.86,10.859v14.7c0,0.42,0.36,0.78,0.78,0.78h17.58   c3.239,0,5.88-2.64,5.88-5.88V50.54c0-3.24-2.641-5.88-5.88-5.88H63.02V22.7h1.261c1.439,0,2.58-1.2,2.58-2.64v-3.42   c0-1.44-1.141-2.64-2.58-2.64H35.72L35.72,14z M35.72,15.62H64.28c0.54,0,1.02,0.42,1.02,1.02v3.42c0,0.6-0.479,1.02-1.02,1.02   H35.72c-0.54,0-1.02-0.42-1.02-1.02v-3.42C34.7,16.04,35.18,15.62,35.72,15.62L35.72,15.62z M38.6,22.7h22.8v22.74   c0,0.48,0.359,0.78,0.779,0.84H79.28c2.399,0,4.26,1.86,4.26,4.26v29.58c0,2.399-1.86,4.26-4.26,4.26H62.479V70.52   c0-6.84-5.52-12.479-12.419-12.479h-0.12c-6.9,0-12.42,5.64-12.42,12.479v13.86h-16.8c-2.4,0-4.26-1.86-4.26-4.26V50.54   c0-2.4,1.86-4.26,4.26-4.26h17.1c0.42-0.06,0.78-0.36,0.78-0.84V22.7L38.6,22.7z M50,26.9c-1.92,0-3.9,0.72-5.4,2.22   c-2.94,2.94-2.94,7.74,0,10.74c3,2.94,7.8,2.94,10.74,0l0,0c3-3,3-7.8,0-10.74C53.9,27.62,51.92,26.9,50,26.9L50,26.9z M50,28.46   c1.5,0,3.06,0.6,4.26,1.8c2.34,2.34,2.34,6.12,0,8.46l0,0c-2.399,2.34-6.18,2.34-8.52,0c-2.34-2.34-2.34-6.12,0-8.46   C46.94,29.06,48.44,28.46,50,28.46L50,28.46z M50,29.6c-0.48,0-0.84,0.36-0.78,0.78v4.02c0,0.12,0,0.24,0.06,0.36   c0.06,0.12,0.12,0.24,0.24,0.36l2.76,2.82c0.779,0.78,1.92-0.42,1.14-1.14l-2.64-2.64v-3.78C50.78,29.96,50.42,29.6,50,29.6   L50,29.6z M24.98,53.84c-0.48,0.061-0.78,0.42-0.78,0.84V57.2h-4.14c-1.08-0.061-1.08,1.62,0,1.56h4.92   c0.42,0,0.78-0.359,0.78-0.779V54.68C25.76,54.2,25.4,53.84,24.98,53.84L24.98,53.84z M34.16,53.84   c-0.42,0.061-0.78,0.42-0.78,0.84V57.2h-4.14c-1.08-0.061-1.08,1.62,0,1.56h4.92c0.48,0,0.84-0.359,0.84-0.779V54.68   C35,54.2,34.64,53.84,34.16,53.84L34.16,53.84z M70.76,53.84c-0.479,0.061-0.84,0.42-0.84,0.84V57.2h-4.14   c-1.08-0.061-1.08,1.62,0,1.56h4.979c0.42,0,0.78-0.359,0.78-0.779V54.68C71.54,54.2,71.18,53.84,70.76,53.84L70.76,53.84z    M79.939,53.84c-0.42,0.061-0.779,0.42-0.779,0.84V57.2H75.02c-1.08-0.061-1.08,1.62,0,1.56h4.92c0.48,0,0.841-0.359,0.841-0.779   V54.68C80.78,54.2,80.42,53.84,79.939,53.84L79.939,53.84z M24.98,61.76c-0.48,0-0.78,0.36-0.78,0.78v2.52h-4.14   c-1.08,0-1.08,1.62,0,1.62h4.92c0.42,0,0.78-0.359,0.78-0.84v-3.3C25.76,62.12,25.4,61.76,24.98,61.76L24.98,61.76z M34.16,61.76   c-0.42,0-0.78,0.36-0.78,0.78v2.52h-4.14c-1.08,0-1.08,1.62,0,1.62h4.92c0.48,0,0.84-0.359,0.84-0.84v-3.3   C35,62.12,34.64,61.76,34.16,61.76L34.16,61.76z M70.76,61.76c-0.479,0-0.84,0.36-0.84,0.78v2.52h-4.14c-1.08,0-1.08,1.62,0,1.62   h4.979c0.42,0,0.78-0.359,0.78-0.84v-3.3C71.54,62.12,71.18,61.76,70.76,61.76L70.76,61.76z M79.939,61.76   c-0.42,0-0.779,0.36-0.779,0.78v2.52H75.02c-1.08,0-1.08,1.62,0,1.62h4.92c0.48,0,0.841-0.359,0.841-0.84v-3.3   C80.78,62.12,80.42,61.76,79.939,61.76L79.939,61.76z M24.98,69.62c-0.48,0-0.78,0.36-0.78,0.84v2.46h-4.14   c-1.08,0-1.08,1.62,0,1.62h4.92c0.42,0,0.78-0.36,0.78-0.78v-3.3C25.76,69.98,25.4,69.62,24.98,69.62L24.98,69.62z M34.16,69.62   c-0.42,0-0.78,0.36-0.78,0.84v2.46h-4.14c-1.08,0-1.08,1.62,0,1.62h4.92c0.48,0,0.84-0.36,0.84-0.78v-3.3   C35,69.98,34.64,69.62,34.16,69.62L34.16,69.62z M70.76,69.62c-0.479,0-0.84,0.36-0.84,0.84v2.46h-4.14c-1.08,0-1.08,1.62,0,1.62   h4.979c0.42,0,0.78-0.36,0.78-0.78v-3.3C71.54,69.98,71.18,69.62,70.76,69.62L70.76,69.62z M79.939,69.62   c-0.42,0-0.779,0.36-0.779,0.84v2.46H75.02c-1.08,0-1.08,1.62,0,1.62h4.92c0.48,0,0.841-0.36,0.841-0.78v-3.3   C80.78,69.98,80.42,69.62,79.939,69.62L79.939,69.62z"/></g></svg>