<svg xmlns="http://www.w3.org/2000/svg" xmlns:xlink="http://www.w3.org/1999/xlink" version="1.1" x="0px" y="0px" viewBox="0 0 100 100" enable-background="new 0 0 100 100" xml:space="preserve"><g><path fill="#000000" d="M83,17h-1c-10.598,0-17.499-2.624-28.4-10.8C52.533,5.4,51.267,5,50,5s-2.533,0.4-3.6,1.2   C35.499,14.376,28.598,17,18,17h-1c-3.314,0-6,2.686-6,6v27c0,13.336,6.514,25.342,18.838,34.721   c8.914,6.784,17.808,9.836,18.183,9.963C48.644,94.895,49.293,95,49.943,95c0.647,0,1.295-0.105,1.917-0.314   c0.375-0.127,9.296-3.177,18.238-9.959C82.464,75.348,89,63.34,89,50V23C89,19.686,86.314,17,83,17z M17,50h33V11c12,9,20,12,32,12   c0.552,0,1,0.448,1,1c0,3.998,0,14.048,0,26H50v38.98C49.977,88.988,49.943,89,49.943,89S17,77.857,17,50z"></path></g></svg>