<svg fill="#000000" xmlns="http://www.w3.org/2000/svg" data-name="Layer 1" viewBox="0 0 100 100" x="0px" y="0px"><title>Finance</title><path d="M65.13,78a1.5,1.5,0,0,0-1.5-1.5H22v-7h6a1.5,1.5,0,0,0,0-3H22V57.41h6a1.5,1.5,0,0,0,0-3H22V45.29h6a1.5,1.5,0,0,0,0-3H22V33.16h6a1.5,1.5,0,0,0,0-3H22V21h6a1.5,1.5,0,0,0,0-3H22V14a1.5,1.5,0,0,0-3,0V78a1.5,1.5,0,0,0,1.5,1.5H63.63A1.5,1.5,0,0,0,65.13,78Z"/><path d="M39.38,70.74a2.87,2.87,0,0,0,1.1.22,3,3,0,0,0,2.79-2L52.6,44,65.36,57.4a2.91,2.91,0,0,0,2.49.9,3,3,0,0,0,2.21-1.52L89,23.19,89.8,30a1.53,1.53,0,0,0,1.49,1.39h.18a1.56,1.56,0,0,0,1.31-1.76l-1.5-13.16A1.54,1.54,0,0,0,90,15.13a1.42,1.42,0,0,0-.93,0l-13.2,4.21a1.6,1.6,0,0,0-1,2,1.51,1.51,0,0,0,1.44,1.12,1.43,1.43,0,0,0,.44-.07l7-2.23L66.87,50.06l-13.27-14a2.9,2.9,0,0,0-2.73-.86,3,3,0,0,0-2.18,1.94l-11,29.48A3.22,3.22,0,0,0,39.38,70.74Z"/><path d="M33.64,13.46A6.12,6.12,0,0,1,34.09,11a4.37,4.37,0,0,1,1.26-1.68,5.47,5.47,0,0,1,1.92-1A8.8,8.8,0,0,1,39.72,8a9.76,9.76,0,0,1,2.44.29,5.07,5.07,0,0,1,1.94.95,4.34,4.34,0,0,1,1.26,1.7,6.33,6.33,0,0,1,.45,2.52A6.3,6.3,0,0,1,45.36,16a4.35,4.35,0,0,1-1.26,1.68,5.07,5.07,0,0,1-1.94.95,10.5,10.5,0,0,1-4.89,0,5.07,5.07,0,0,1-1.92-.95A4.35,4.35,0,0,1,34.09,16,6.3,6.3,0,0,1,33.64,13.46ZM55.39,7.82l2.53,2.47-20,21-2.44-2.47ZM37.71,13.46a3.62,3.62,0,0,0,.45,2,1.71,1.71,0,0,0,1.57.7,1.79,1.79,0,0,0,1.54-.61,3.55,3.55,0,0,0,.45-2.05,3.56,3.56,0,0,0-.45-2.05,1.79,1.79,0,0,0-1.54-.61,1.83,1.83,0,0,0-1.55.61A3.45,3.45,0,0,0,37.71,13.46ZM47.77,25.38a6.12,6.12,0,0,1,.45-2.47,4.36,4.36,0,0,1,1.26-1.68,5.47,5.47,0,0,1,1.92-1,8.8,8.8,0,0,1,2.45-.32,9.76,9.76,0,0,1,2.44.29,5.07,5.07,0,0,1,1.94.95,4.34,4.34,0,0,1,1.26,1.7,6.33,6.33,0,0,1,.45,2.51,6.3,6.3,0,0,1-.45,2.53,4.36,4.36,0,0,1-1.26,1.68,5.07,5.07,0,0,1-1.94.95,10.5,10.5,0,0,1-4.89,0,5.07,5.07,0,0,1-1.92-.95,4.36,4.36,0,0,1-1.26-1.68A6.3,6.3,0,0,1,47.77,25.38Zm4.07,0a3.62,3.62,0,0,0,.45,2,1.71,1.71,0,0,0,1.57.71,1.79,1.79,0,0,0,1.54-.61,3.56,3.56,0,0,0,.45-2.05,3.56,3.56,0,0,0-.45-2.05,1.79,1.79,0,0,0-1.54-.61,1.83,1.83,0,0,0-1.55.61A3.45,3.45,0,0,0,51.84,25.38Z"/></svg>