<svg xmlns="http://www.w3.org/2000/svg" data-name="Layer 1" viewBox="0 0 100 100" x="0px" y="0px"><title>Artboard 39</title><path d="M78.17,71H47.24a1.5,1.5,0,0,0,0,3H78.17a1.5,1.5,0,0,0,0-3Z"></path><path d="M90.58,64.6c-1.71-4-4.44-6.51-7.59-6.51H61.54l6.75-8.71L69.62,48a5.06,5.06,0,0,0,0-7.15L38.91,10.19a4.27,4.27,0,1,0-6,6L55,38.37,43.71,47.15a4.7,4.7,0,0,0-1,6.29l.24.33a1.5,1.5,0,0,0,.18.26,33.85,33.85,0,0,0,3.3,4h-30a6.09,6.09,0,0,0-3,.84,1.48,1.48,0,0,0-.39.24c-3.56,2.33-6,8.21-6,15.29,0,9.18,4.15,16.38,9.46,16.38H83c5.3,0,9.46-7.19,9.46-16.37a25.34,25.34,0,0,0-1.8-9.68A1.5,1.5,0,0,0,90.58,64.6ZM61.21,36.72,67.5,43a2.06,2.06,0,0,1,0,2.91l-.34.34-7.74-7.74ZM35,14.1a1.26,1.26,0,0,1,0-1.79h0a1.26,1.26,0,0,1,1.79,0l22.3,22.3L57.3,36.39ZM57.17,40.51l8,8-5.56,7.17A26.12,26.12,0,0,1,50,46.07Zm-12,11.27a1.67,1.67,0,0,1,.35-2.25l2.06-1.6A29,29,0,0,0,57.75,58.07h-7C50,57.44,49.28,56.75,48.6,56l.82.26a1.5,1.5,0,1,0,.92-2.85ZM16.38,61.08h.79l-.79,4.39-.77-4.27A2.78,2.78,0,0,1,16.38,61.08Zm0,26.75c-3.05,0-6.46-5.49-6.46-13.37,0-4.87,1.3-8.83,3-11.14l2,10.86v0a1.49,1.49,0,0,0,.16.44l0,.07a1.5,1.5,0,0,0,.29.34l.06,0a1.48,1.48,0,0,0,.39.22l.06,0,.21.06.26,0h0l.26,0,.21-.06.06,0a1.48,1.48,0,0,0,.39-.22l.06,0a1.5,1.5,0,0,0,.29-.34l0-.07a1.49,1.49,0,0,0,.16-.44v0l2-10.9c1.84,2.45,3,6.63,3,11.19C22.83,82.34,19.43,87.83,16.38,87.83ZM89.2,78h-16a1.5,1.5,0,0,0,0,3H88.58c-1.21,4.22-3.48,6.84-5.59,6.84H21.88a18.15,18.15,0,0,0,3.41-7.88,1.49,1.49,0,0,0,.35,0h21a1.5,1.5,0,1,0,0-3H25.71c.07-.83.12-1.67.12-2.54A27.29,27.29,0,0,0,25,67.61H50.35a1.5,1.5,0,0,0,0-3H24a14.89,14.89,0,0,0-2.07-3.52H83c1.28,0,2.63,1,3.75,2.69H74.33a1.5,1.5,0,0,0,0,3H88.21a23,23,0,0,1,1.24,7.69A25.58,25.58,0,0,1,89.2,78Z"></path><path d="M68.17,82.5H52.63a1.5,1.5,0,0,0,0,3H68.17a1.5,1.5,0,0,0,0-3Z"></path></svg>