<svg fill="#000000" xmlns="http://www.w3.org/2000/svg" xmlns:xlink="http://www.w3.org/1999/xlink" version="1.1" x="0px" y="0px" viewBox="0 0 91 91" style="enable-background:new 0 0 91 91;" xml:space="preserve"><g><path d="M16.9,67.2c0,8.1,6.6,14.8,14.8,14.8s14.8-6.6,14.8-14.8c0-1.3-0.2-2.5-0.5-3.7l36.3-36.3c0.8-0.8,0.8-2,0-2.8   c-0.8-0.8-2-0.8-2.8,0L44.3,59.5c-2.6-4.3-7.3-7.1-12.6-7.1C23.5,52.4,16.9,59,16.9,67.2z M41.3,62.5l-6.2,6.2   c-0.8,0.8-0.8,2,0,2.8c0.4,0.4,0.9,0.6,1.4,0.6s1-0.2,1.4-0.6l4.5-4.5c0,0,0,0.1,0,0.1c0,5.9-4.8,10.8-10.8,10.8   s-10.8-4.8-10.8-10.8c0-5.9,4.8-10.8,10.8-10.8C35.9,56.4,39.6,58.9,41.3,62.5z"/><path d="M49.3,82.6l38.8-38.8c0.8-0.8,0.8-2,0-2.8c-0.8-0.8-2-0.8-2.8,0L54.7,71.6c0.3-1.4,0.4-2.9,0.4-4.4c0-1.1-0.9-2-2-2   s-2,0.9-2,2c0,4.9-1.8,9.4-4.8,12.8l-1.9,1.9c-3.4,3-7.9,4.8-12.8,4.8c-10.8,0-19.5-8.7-19.5-19.5c0-4.3,1.4-8.3,3.8-11.6l4.1-4.1   c3.2-2.4,7.2-3.8,11.6-3.8c1.1,0,2-0.9,2-2c0-1.1-0.9-2-2-2c-1.4,0-2.8,0.1-4.1,0.4l13.9-13.9c0.8-0.8,0.8-2,0-2.8   c-0.8-0.8-2-0.8-2.8,0l-21,21c-1.8,1.4-3.4,3-4.8,4.8c-0.1,0.1-0.1,0.1-0.1,0.2C9.8,57.3,8.1,62,8.1,67.2c0,13,10.5,23.5,23.5,23.5   c5.3,0,10.3-1.8,14.2-4.8c0.2-0.1,0.5-0.2,0.6-0.4l0.5-0.5C47.9,84.2,48.6,83.4,49.3,82.6z"/><path d="M45.1,45.5c0.5,0,1-0.2,1.4-0.6L85.4,6c0.8-0.8,0.8-2,0-2.8c-0.8-0.8-2-0.8-2.8,0L43.7,42.1c-0.8,0.8-0.8,2,0,2.8   C44.1,45.3,44.6,45.5,45.1,45.5z"/><path d="M47.1,24.2c0.5,0,1-0.2,1.4-0.6l7.5-7.5c0.8-0.8,0.8-2,0-2.8c-0.8-0.8-2-0.8-2.8,0l-7.5,7.5c-0.8,0.8-0.8,2,0,2.8   C46.1,24,46.6,24.2,47.1,24.2z"/><path d="M85.9,17.9l-2.2,2.2c-0.8,0.8-0.8,2,0,2.8c0.4,0.4,0.9,0.6,1.4,0.6s1-0.2,1.4-0.6l2.2-2.2c0.8-0.8,0.8-2,0-2.8   S86.7,17.1,85.9,17.9z"/><path d="M79.5,65.1v2.3c0,1.1,0.9,2,2,2s2-0.9,2-2v-2.3c0-1.1-0.9-2-2-2S79.5,64,79.5,65.1z"/><path d="M81.5,72.1c-1.1,0-2,0.9-2,2v2.3c0,1.1,0.9,2,2,2s2-0.9,2-2v-2.3C83.5,73,82.6,72.1,81.5,72.1z"/><path d="M80.2,70.7c0-1.1-0.9-2-2-2h-2.3c-1.1,0-2,0.9-2,2s0.9,2,2,2h2.3C79.3,72.7,80.2,71.9,80.2,70.7z"/><path d="M87.2,68.7h-2.3c-1.1,0-2,0.9-2,2s0.9,2,2,2h2.3c1.1,0,2-0.9,2-2S88.3,68.7,87.2,68.7z"/><path d="M31.6,7.3c1.1,0,2-0.9,2-2V3c0-1.1-0.9-2-2-2c-1.1,0-2,0.9-2,2v2.3C29.6,6.4,30.5,7.3,31.6,7.3z"/><path d="M31.6,10c-1.1,0-2,0.9-2,2v2.3c0,1.1,0.9,2,2,2c1.1,0,2-0.9,2-2V12C33.6,10.9,32.7,10,31.6,10z"/><path d="M26,10.7h2.3c1.1,0,2-0.9,2-2s-0.9-2-2-2H26c-1.1,0-2,0.9-2,2S24.9,10.7,26,10.7z"/><path d="M33,8.7c0,1.1,0.9,2,2,2h2.3c1.1,0,2-0.9,2-2s-0.9-2-2-2H35C33.9,6.7,33,7.6,33,8.7z"/><path d="M9.3,29.8c1.1,0,2-0.9,2-2v-2.3c0-1.1-0.9-2-2-2s-2,0.9-2,2v2.3C7.3,28.9,8.2,29.8,9.3,29.8z"/><path d="M11.3,36.8v-2.3c0-1.1-0.9-2-2-2s-2,0.9-2,2v2.3c0,1.1,0.9,2,2,2S11.3,37.9,11.3,36.8z"/><path d="M8,31.1c0-1.1-0.9-2-2-2H3.7c-1.1,0-2,0.9-2,2c0,1.1,0.9,2,2,2H6C7.1,33.1,8,32.2,8,31.1z"/><path d="M10.7,31.1c0,1.1,0.9,2,2,2H15c1.1,0,2-0.9,2-2c0-1.1-0.9-2-2-2h-2.3C11.6,29.1,10.7,30,10.7,31.1z"/><path d="M29.3,61.2c-1.6,0-3,1.3-3,3c0,1.6,1.3,3,3,3s3-1.3,3-3C32.2,62.5,30.9,61.2,29.3,61.2z"/></g></svg>