<svg fill="#000000" xmlns:dc="http://purl.org/dc/elements/1.1/" xmlns:cc="http://creativecommons.org/ns#" xmlns:rdf="http://www.w3.org/1999/02/22-rdf-syntax-ns#" xmlns:svg="http://www.w3.org/2000/svg" xmlns="http://www.w3.org/2000/svg" xmlns:sodipodi="http://sodipodi.sourceforge.net/DTD/sodipodi-0.dtd" xmlns:inkscape="http://www.inkscape.org/namespaces/inkscape" viewBox="0 0 441.18561 520.50584" version="1.1" x="0px" y="0px"><g transform="translate(-1537.2498,-706.39405)"><path style="" d="m 1797.8924,706.39405 c -40.601,0 -73.6289,33.02709 -73.6289,73.62109 0,12.776 3.2813,24.80211 9.0293,35.28711 l -31.4727,23.50977 c -17.455,-17.621 -41.635,-28.56641 -68.332,-28.56641 -53.069,0 -96.2383,43.17338 -96.2383,96.23438 0,53.068 43.1693,96.23241 96.2383,96.23241 24.648,0 47.0909,-9.38972 64.1309,-24.67772 l 30.3164,29.26372 c -16.574,22.818 -26.3907,50.8591 -26.3907,81.1601 0,49.801 26.4417,93.5319 66.0157,117.9239 8.305,5.116 17.1902,9.3742 26.5312,12.6582 14.371,5.076 29.8145,7.8593 45.8985,7.8593 16.084,0 31.5274,-2.7833 45.8964,-7.8593 10.412,-3.667 20.2446,-8.5427 29.3516,-14.4727 37.995,-24.707 63.1973,-67.5094 63.1973,-116.1094 0,-76.337 -62.0994,-138.44726 -138.4434,-138.44726 -33.877,0 -64.9393,12.25297 -89.0273,32.54297 l -32.3809,-31.25196 c 7.086,-13.405 11.1406,-28.64026 11.1406,-44.82226 0,-14.209 -3.1755,-27.6635 -8.7265,-39.8125 l 35.0254,-26.1543 c 11.899,8.253 26.3151,13.12695 41.8691,13.12695 40.596,0 73.6191,-33.024 73.6191,-73.625 0,-40.594 -33.0231,-73.62109 -73.6191,-73.62109 z m 0,16.06055 c 31.736,0 57.5606,25.82054 57.5606,57.56054 0,31.74 -25.8236,57.56055 -57.5606,57.56055 -31.737,0 -57.5644,-25.82055 -57.5644,-57.56055 0,-31.74 25.8274,-57.56054 57.5644,-57.56054 z m 0.627,5.95117 c -0.8992,-0.0183 -1.7984,0.0145 -2.6954,0.0977 -9.268,0.861 -17.7304,7.3619 -20.6464,16.2539 -2.965,8.175 -1.0042,17.92135 4.9238,24.27735 5.212,5.93 13.4785,8.98684 21.2715,7.83984 10.035,-1.146 18.7844,-9.31772 20.6484,-19.26172 1.673,-7.84 -0.9097,-16.39342 -6.5937,-21.98242 -4.3934,-4.5185 -10.6145,-7.09649 -16.9082,-7.22461 z m -14.4981,59.65625 c -8.842,1.718 -17.6386,3.48569 -26.4336,5.30469 -0.012,6.464 -0.012,12.92857 -0.012,19.39257 3.944,4.266 8.5492,7.91244 13.6582,10.77344 3.009,1.684 6.1936,3.08746 9.5176,4.18946 5.469,1.819 11.3183,2.8125 17.4023,2.8125 6.114,0 11.9883,-1.00485 17.4863,-2.83985 3.32,-1.106 6.4989,-2.51508 9.5059,-4.20508 5.089,-2.857 9.6765,-6.50181 13.6055,-10.75781 -0.01,-6.484 -0.019,-12.97198 -0.049,-19.45898 -8.7941,-1.631 -17.4952,-3.53994 -26.2872,-5.21094 -4.874,7.167 -23.6605,7.312 -28.3945,0 z m -150.5312,43.18945 c 41.481,0 75.2343,33.74952 75.2343,75.22852 0,41.484 -33.7533,75.23633 -75.2343,75.23633 -41.489,0 -75.2383,-33.75233 -75.2383,-75.23633 0,-41.479 33.7493,-75.22852 75.2383,-75.22852 z m -0.041,10.60352 c -1.1259,-0.0226 -2.2538,0.0184 -3.3769,0.12305 -11.621,1.07899 -22.221,9.22818 -25.875,20.36718 -3.715,10.243 -1.2561,22.45683 6.1699,30.42383 6.529,7.43 16.8923,11.26313 26.6543,9.82813 12.578,-1.441 23.54,-11.68354 25.875,-24.14454 2.098,-9.818 -1.1396,-20.54387 -8.2676,-27.54687 -5.5037,-5.66213 -13.2978,-8.89254 -21.1797,-9.05078 z m -18.1679,74.75586 c -11.081,2.151 -22.1031,4.37043 -33.1231,6.64843 -0.02,8.09901 -0.02,16.19879 -0.021,24.30079 4.941,5.348 10.7133,9.92 17.1133,13.5 3.773,2.111 7.7609,3.87295 11.9239,5.25195 6.857,2.275 14.1865,3.52539 21.8105,3.52539 7.663,0 15.0241,-1.26064 21.9121,-3.55664 4.162,-1.389 8.147,-3.15644 11.916,-5.27344 6.379,-3.58 12.1268,-8.14647 17.0528,-13.48047 -0.01,-8.128 -0.027,-16.25572 -0.066,-24.38672 -11.021,-2.037 -21.9235,-4.43329 -32.9395,-6.52929 -6.11,8.985 -29.6481,9.163 -35.5781,0 z m 224.7109,63.61328 c 59.679,0 108.2344,48.55137 108.2344,108.23437 0,30.439 -12.6813,57.941 -32.9863,77.629 -19.497,18.9049 -46.0161,30.5996 -75.2481,30.5996 -27.866,0 -53.2217,-10.6761 -72.4297,-28.0411 -21.922,-19.823 -35.8027,-48.3805 -35.8027,-80.1875 0,-59.684 48.5584,-108.23437 108.2324,-108.23437 z m 0.8145,12.5918 c -1.6805,-0.0336 -3.3647,0.0254 -5.0411,0.18164 -17.3409,1.61 -33.1622,13.76353 -38.6152,30.39253 -5.541,15.2891 -1.875,33.5183 9.207,45.4083 9.744,11.085 25.2055,16.8061 39.7735,14.6601 18.771,-2.147 35.1332,-17.4314 38.6172,-36.0234 3.13,-14.659 -1.699,-30.6572 -12.334,-41.1192 -8.2154,-8.44722 -19.8442,-13.26482 -31.6074,-13.49997 z m -27.1211,111.55867 c -16.537,3.214 -32.9826,6.5258 -49.4336,9.9218 -0.026,12.092 -0.022,24.1786 -0.025,36.2696 7.376,7.98 15.99,14.8055 25.541,20.1465 5.629,3.15 11.5819,5.7749 17.7969,7.8359 10.236,3.398 21.1699,5.2637 32.5469,5.2637 11.434,0 22.4201,-1.8865 32.7011,-5.3125 6.21,-2.074 12.1533,-4.7112 17.7813,-7.8672 9.519,-5.345 18.0942,-12.1552 25.4472,-20.1192 -0.016,-12.125 -0.039,-24.2655 -0.098,-36.3965 -16.446,-3.039 -32.7162,-6.6131 -49.1602,-9.7421 -9.118,13.406 -44.2476,13.678 -53.0976,0 z" fill="#000000"/></g></svg>