<svg xmlns="http://www.w3.org/2000/svg" xmlns:xlink="http://www.w3.org/1999/xlink" version="1.1" x="0px" y="0px" viewBox="0 0 100 100" enable-background="new 0 0 100 100" xml:space="preserve"><path d="M35.389,85.861c-0.956,0.531-1.912,0.531-2.868,0l0.425-16.682c-3.188-0.319-4.782-1.913-4.782-6.694  c0-5.419,2.018-7.438,6.057-7.438c4.25,0,5.738,2.02,5.738,7.438c0,5.101-1.275,6.481-4.888,6.694L35.389,85.861z M46.865,57.598  c0.106,9.456,0.106,18.913-0.106,28.37c-1.7,0.638-3.507,0.638-5.207,0c0.106-11.901,0.212-23.695,0.319-35.489l-2.443-2.338v-0.638  l2.443,2.125l0.318-15.407c-7.013-0.425-9.775-3.4-9.775-13.707C32.415,9.25,35.708,5,44.209,5c8.925,0,11.9,4.25,11.9,15.514  c0,10.307-2.443,13.282-9.669,13.707c0.106,7.544,0.319,15.089,0.425,22.526l2.231-1.912v0.638L46.865,57.598z M43.996,86.924  c0,5.845-0.106,8.076-5.524,8.076c-5.525,0-5.632-2.444-5.632-7.332c0.744,0.531,1.487,0.426,2.444,0  c-0.106,4.038,0.212,5.312,3.188,5.312c3.4,0,3.293-2.231,3.188-6.057C42.402,87.349,43.252,87.349,43.996,86.924z M34.114,70.029  h-0.531L33.158,84.48l1.062-0.426L34.114,70.029z M46.334,61.104c0-1.17-2.125-2.657-2.125-4.357c0,1.7-2.232,3.188-2.232,4.357  c0,1.274,2.232,3.081,2.232,4.568C44.209,64.186,46.334,62.379,46.334,61.104z M45.803,64.929c-0.319,1.062-0.85,1.807-1.594,2.231  c-0.533-0.425-1.17-1.169-1.382-2.231c-0.319,6.589-0.319,13.07-0.212,19.445c1.062,0.638,2.126,0.426,3.188-0.319  C46.016,77.68,46.122,71.305,45.803,64.929z M44.315,59.723c0.957,0,1.594,0.743,1.594,1.594c0,0.85-0.637,1.594-1.594,1.594  c-0.851,0-1.701-0.744-1.701-1.594C42.615,60.466,43.464,59.723,44.315,59.723z M45.378,35.071c-0.85,0.105-1.595,0.212-2.445,0  c-0.425,7.438-0.318,14.557-0.106,21.676c0.212-0.744,0.637-1.274,1.382-1.594c0.85,0.319,1.168,0.85,1.487,1.487  C46.122,49.415,46.122,42.296,45.378,35.071z M43.89,61.316c0,0.318,0.106,0.531,0.426,0.531c0.425,0,0.531-0.213,0.531-0.531  s-0.106-0.425-0.531-0.425C43.996,60.892,43.89,60.998,43.89,61.316z M55.472,87.03c0,4.251,0,7.97-5.525,7.97  c-5.524,0-5.631-2.444-5.631-8.076c0.744,0.425,1.594,0.638,2.337,0c0,3.082,0,5.525,2.975,5.525c2.87,0,3.507-2.019,3.401-5.419  C54.197,87.562,54.622,87.562,55.472,87.03z M58.023,85.968c-1.595,0.531-3.188,0.531-4.782,0l0.425-17.744l-1.594-1.488v-0.638  l1.594,1.382l0.318-13.069c-3.294-0.426-4.994-2.338-4.994-7.651c0-6.269,2.338-8.606,7.013-8.606c4.995,0,6.694,2.338,6.694,8.606  c0,5.632-1.381,7.332-5.207,7.651L58.023,85.968z M53.878,69.604c0,1.062,1.062,2.338,1.806,2.338c0.637,0,1.806-1.275,1.806-2.338  c0-0.956-1.168-1.807-1.806-1.807C55.153,67.798,53.878,68.648,53.878,69.604z M57.384,71.198c-0.212,1.062-0.956,1.7-1.594,1.7  c-0.85,0-1.487-0.319-1.806-1.381c0,6.375,0,6.588,0.212,12.963c1.062,0.744,2.125,0.956,3.188,0.319  C57.49,78.424,56.853,77.786,57.384,71.198z M56.853,54.941c-0.744,0.212-1.487,0.212-2.231,0c-0.212,4.25-0.425,8.394-0.425,12.645  c0.85-0.639,1.913-0.851,2.975-0.106C57.278,63.229,57.065,59.085,56.853,54.941z M55.685,71.092c-0.85,0-1.381-0.531-1.381-1.275  c0-0.743,0.531-1.274,1.381-1.274c0.637,0,1.381,0.531,1.381,1.274C57.065,70.561,56.322,71.092,55.685,71.092z M55.685,70.241  c0.212,0,0.318-0.212,0.318-0.425c0-0.318-0.106-0.318-0.318-0.318c-0.319,0-0.425,0-0.425,0.318  C55.259,70.029,55.366,70.241,55.685,70.241z M66.842,87.03c0,4.889,0,7.97-6.27,7.97c-4.675,0-4.888-2.869-4.888-7.97  c0.744,0.531,1.593,0.531,2.338,0c-0.106,2.551,0.425,6.376,3.399,6.376c2.869,0,3.082-2.338,2.975-6.376  C65.354,87.668,66.204,87.562,66.842,87.03z M66.948,69.392l0.106,4.675l1.806-1.593v0.637l-1.806,1.701l0.212,11.263  c-1.062,0.318-2.019,0.425-2.87,0l0.426-16.683c-3.188-0.318-4.782-1.912-4.782-6.694c0-5.418,2.019-7.438,6.057-7.438  c4.25,0,5.738,2.02,5.738,7.438C71.836,67.798,70.56,69.18,66.948,69.392z M66.629,69.604c-0.531,0.106-0.956,0-1.487-0.106  c0,0.638-0.106,1.169-0.106,1.807c0.106-0.213,0.319-0.531,0.744-0.425s0.638,0.212,0.85,0.531  C66.735,70.773,66.735,70.241,66.629,69.604z M66.629,72.049c0-0.319-0.319-0.638-0.744-0.638c-0.319,0-0.744,0.318-0.744,0.638  c0,0.425,0.425,0.743,0.744,0.743C66.311,72.792,66.629,72.474,66.629,72.049z M66.204,73.217c-0.212,0.213-0.531,0.319-0.956-0.212  c0,5.95-0.106,6.588,0.106,12.432c0.212,0.106,0.637,0.213,0.85-0.106C66.311,79.38,66.204,78.317,66.204,73.217z M66.098,72.049  c0,0.105,0,0.318-0.212,0.318c-0.106,0-0.212-0.213-0.212-0.318c0-0.106,0.106-0.106,0.212-0.106  C66.098,71.942,66.098,71.942,66.098,72.049z"></path></svg>