<svg fill="#000000" xmlns="http://www.w3.org/2000/svg" xmlns:xlink="http://www.w3.org/1999/xlink" version="1.1" x="0px" y="0px" viewBox="0 0 91 91" style="enable-background:new 0 0 91 91;" xml:space="preserve"><g><path d="M45.8,8.5C25.2,8.5,8.5,25.3,8.5,45.9s16.7,37.3,37.3,37.3s37.3-16.7,37.3-37.3S66.4,8.5,45.8,8.5z M45.8,79.2   c-18.4,0-33.3-14.9-33.3-33.3c0-18.4,14.9-33.3,33.3-33.3c18.4,0,33.3,14.9,33.3,33.3C79.1,64.2,64.2,79.2,45.8,79.2z"/><path d="M60.6,51.5C60.6,51.5,60.5,51.5,60.6,51.5c-2.3,0-4.8,0.8-6.9,2.3c-2.1,1.5-3.7,3.6-4.4,5.7c-0.8,2.4-0.5,4.8,0.7,6.6   c1.4,1.9,3.6,2.8,6,2.8c2.2,0,4.6-0.8,6.9-2.4c2.1-1.5,3.7-3.6,4.4-5.7c0.8-2.4,0.5-4.8-0.7-6.6C65.3,52.6,63.1,51.5,60.6,51.5z    M63.5,59.6c-0.5,1.4-1.6,2.8-3,3.8c-2.7,1.9-6.1,2.1-7.3,0.4c-0.7-1-0.4-2.3-0.2-3c0.5-1.4,1.6-2.8,3-3.8c1.4-1,3.1-1.6,4.5-1.6   c0,0,0,0,0,0c0.7,0,2,0.2,2.7,1.2S63.7,59,63.5,59.6z"/><path d="M58.4,37.1c3.3,0,6.1-1.3,7.2-3.7c1-2.1,0.6-4.6-1-7c-1.4-2.1-3.7-4-6.5-5.3c-2.7-1.3-5.6-1.9-8.2-1.6   c-2.9,0.3-5.1,1.6-6,3.7c-1,2.1-0.6,4.6,1,7c1.4,2.1,3.7,4,6.5,5.3C53.8,36.5,56.3,37.1,58.4,37.1z M48.3,27.9   c-0.8-1.2-1.1-2.3-0.7-3c0.4-0.8,1.4-1.3,2.8-1.4c0.2,0,0.5,0,0.8,0c1.6,0,3.5,0.5,5.3,1.3c2.1,1,3.8,2.4,4.9,3.9   c0.8,1.2,1.1,2.3,0.7,3c-0.8,1.7-4.8,2.1-8.9,0.1C51.1,30.8,49.3,29.4,48.3,27.9z"/><path d="M31.4,34c-7.8,0-14.1,6.3-14.1,14.1c0,7.8,6.3,14.1,14.1,14.1s14.1-6.3,14.1-14.1C45.5,40.3,39.2,34,31.4,34z M31.4,58.2   c-5.6,0-10.1-4.5-10.1-10.1S25.8,38,31.4,38s10.1,4.5,10.1,10.1S37,58.2,31.4,58.2z"/><path d="M65.3,44.1c0,2.8,2.2,5,5,5s5-2.2,5-5s-2.2-5-5-5S65.3,41.3,65.3,44.1z M70.3,43.1c0.6,0,1,0.4,1,1c0,0.6-0.4,1-1,1   s-1-0.4-1-1C69.3,43.5,69.7,43.1,70.3,43.1z"/><path d="M30.4,30.6c0,0,0.1,0,0.1,0c1.4,0,2.8-0.5,4.1-1.4c1.3-0.8,2.4-2,3-3.2c0.7-1.5,0.7-3.1-0.1-4.3c-1.4-2.2-5-2.4-8-0.5   c-3.1,2-4.3,5.3-2.9,7.5C27.4,30,28.7,30.6,30.4,30.6z M31.7,24.6c1.1-0.7,2.1-0.8,2.5-0.7c-0.1,0.4-0.5,1.2-1.7,2   c-1.1,0.7-2.1,0.8-2.5,0.7C30.1,26.2,30.6,25.4,31.7,24.6z"/><path d="M41.1,66.2c-1.9,0-3.5,1.6-3.5,3.5s1.6,3.5,3.5,3.5s3.5-1.6,3.5-3.5S43,66.2,41.1,66.2z M41.1,70.2c-0.3,0-0.5-0.2-0.5-0.5   s0.2-0.5,0.5-0.5s0.5,0.2,0.5,0.5S41.3,70.2,41.1,70.2z"/></g></svg>