<svg fill="#000000" xmlns="http://www.w3.org/2000/svg" xmlns:xlink="http://www.w3.org/1999/xlink" version="1.1" x="0px" y="0px" viewBox="0 0 90 90" enable-background="new 0 0 90 90" xml:space="preserve"><g><path d="M85.4,58.2c0-1-0.4-1.7-0.8-1.7l-1.9,0C86.5,34.8,69.1,28.1,68.9,28l-0.3-0.1c-3-0.3-5.9-0.4-8.8-0.4   c-10,0-18,1.7-24.4,4.3c0-0.3,0-0.5-0.1-0.8l-0.2-0.4c-0.4-0.8-1.4-1.2-2.2-0.8l-5.7,2.7c-0.8,0.4-1.2,1.4-0.8,2.2l0.2,0.4   c0.2,0.4,0.5,0.7,0.9,0.8c-12.2,7.9-16.1,18.9-17.1,22.3H8.8c-0.6,0-1,0.4-1.2,0.9l-4.4,5c0,0-0.1,0.1-0.1,0.2   c0,0.1-0.1,0.1-0.1,0.2c0,0.1,0,0.2-0.1,0.3c0,0.1,0,0.1,0,0.2c0,0,0,0,0,0c0,0.1,0,0.2,0.1,0.3c0,0.1,0,0.1,0.1,0.2   c0,0.1,0.1,0.1,0.1,0.2c0.1,0.1,0.1,0.1,0.2,0.2c0,0,0,0,0,0C3.4,66,3.5,66,3.5,66c0.1,0,0.1,0.1,0.2,0.1c0.1,0.1,0.3,0.1,0.5,0.1   c0,0,0,0,0,0s0,0,0,0h75.9c0.6,0,1.1-0.4,1.2-1c0.4-0.8,0.7-2.2,0.7-4.8l2.7,0c0.4,0,0.8-0.8,0.8-1.7L85.4,58.2z M79.9,63.7h-0.5   c0.1-0.1,0.3-0.1,0.5-0.1V63.7z M79.1,63.7H6.9l2.6-2.9h0.3h5.3h64.4C79.4,62.2,79.3,63.2,79.1,63.7z M59.8,30   c2.7,0,5.5,0.1,8.4,0.4c1.8,0.7,16.5,7.3,11.6,27.8H15.1h-2.1C14.8,52.2,24.2,30,59.8,30z"/><path d="M33.6,43.4c0.1,0,0.2,0,0.2,0c0.2,0,18.9-3.5,28.5-3.5c1.4,0,2.6,0.1,3.4,0.2c0.5,0.1,0.9-0.1,1.2-0.5   c0.1-0.1,2.2-2.9-2-6.7c-0.2-0.2-0.5-0.3-0.8-0.3c0,0-0.5,0-1.3,0c-3.3,0-12,0.2-21,2.4c0,0-0.1,0-0.1,0c-0.2,0.1-5.4,1.9-9.1,6.4   c-0.3,0.4-0.4,1-0.1,1.4C32.7,43.2,33.1,43.4,33.6,43.4z M42.4,37.4c8.8-2.1,17.1-2.3,20.4-2.3c0.3,0,0.6,0,0.8,0   c1,1,1.4,1.8,1.5,2.4c-0.8-0.1-1.7-0.1-2.7-0.1c-7.1,0-18.7,1.8-24.9,2.8C39.8,38.4,42.1,37.5,42.4,37.4z"/></g></svg>