<svg xmlns="http://www.w3.org/2000/svg" xmlns:xlink="http://www.w3.org/1999/xlink" version="1.1" id="Your_Icon" x="0px" y="0px" width="100px" height="100px" viewBox="0 0 100 100" enable-background="new 0 0 100 100" xml:space="preserve">
<g>
	<g>
		<g>
			<path d="M80.978,85H69.559c-1.397,0-2.529-1.133-2.529-2.529c0-1.397,1.133-2.529,2.529-2.529h7.126L52.361,36.04L27.839,79.941     h7.381c1.397,0,2.529,1.133,2.529,2.529c0,1.397-1.133,2.529-2.529,2.529H23.529c-0.897,0-1.728-0.475-2.181-1.249     c-0.454-0.774-0.464-1.73-0.027-2.513l28.84-51.634c0.447-0.8,1.292-1.296,2.208-1.296c0.001,0,0.002,0,0.005,0     c0.918,0.002,1.762,0.5,2.207,1.304L83.19,81.245c0.435,0.784,0.422,1.738-0.032,2.51C82.702,84.526,81.873,85,80.978,85z"/>
		</g>
		<g>
			<path d="M48.552,25.963c-0.893,0-1.759-0.474-2.219-1.312l-2.721-4.952c-0.673-1.224-0.226-2.762,0.999-3.435     c1.228-0.673,2.763-0.224,3.435,0.999l2.721,4.952c0.673,1.224,0.226,2.762-0.999,3.435     C49.381,25.862,48.963,25.963,48.552,25.963z"/>
		</g>
		<g>
			<path d="M60.916,84.857c-1.397,0-2.529-1.133-2.529-2.529c0-3.382-2.752-6.133-6.133-6.133c-3.382,0-6.133,2.751-6.133,6.133     c0,1.397-1.133,2.529-2.529,2.529s-2.529-1.133-2.529-2.529c0-6.171,5.02-11.192,11.192-11.192s11.192,5.02,11.192,11.192     C63.445,83.724,62.313,84.857,60.916,84.857z"/>
		</g>
	</g>
	<g>
		<path d="M57.207,25.963c-0.411,0-0.829-0.101-1.215-0.313c-1.225-0.673-1.672-2.211-0.999-3.435l2.721-4.952    c0.672-1.225,2.207-1.675,3.435-0.999c1.225,0.673,1.672,2.211,0.999,3.435l-2.721,4.952C58.966,25.488,58.1,25.963,57.207,25.963    z"/>
	</g>
</g>
</svg>
