<svg fill="#000000" xmlns:dc="http://purl.org/dc/elements/1.1/" xmlns:cc="http://creativecommons.org/ns#" xmlns:rdf="http://www.w3.org/1999/02/22-rdf-syntax-ns#" xmlns:svg="http://www.w3.org/2000/svg" xmlns="http://www.w3.org/2000/svg" xmlns:sodipodi="http://sodipodi.sourceforge.net/DTD/sodipodi-0.dtd" xmlns:inkscape="http://www.inkscape.org/namespaces/inkscape" version="1.1" x="0px" y="0px" viewBox="0 0 100 100"><g transform="translate(0,-952.36218)"><path d="m 45.999935,960.36224 40.00003,0 c 1.0471,10e-5 1.9999,0.95283 2,2 l 0,79.99996 c -1e-4,1.0472 -0.9529,1.9999 -2,2 l -40.00003,0 c -1.0472,-10e-5 -1.9999,-0.9528 -2,-2 l 0,-13.9572 c -0.015,-1.0567 0.9432,-2.0285 2,-2.0285 1.0567,0 2.0149,0.9718 2,2.0285 l 0,11.9572 36.00003,0 0,-75.99996 -36.00003,0 0,11.95727 c 0.015,1.05663 -0.9433,2.02848 -2,2.02848 -1.0568,0 -2.015,-0.97185 -2,-2.02848 l 0,-13.95727 c 0,-1.0939 1.0639,-1.99886 2,-2 z" style="text-indent:0;text-transform:none;direction:ltr;block-progression:tb;baseline-shift:baseline;color:#000000;enable-background:accumulate;" fill="#000000" fill-opacity="1" fill-rule="nonzero" stroke="none" marker="none" visibility="visible" display="inline" overflow="visible"/><path d="m 12.000035,1002.3622 c 0,-0.4628 0.2799,-1.0773 0.5639,-1.3755 l 15.9997,-17.00028 c 0.747,-0.7723 1.9572,-0.8618 2.8281,-0.078 0.7786,0.7007 0.798,2.0673 0.078,2.8282 l -12.8435,13.62518 53.37343,0 c 1.1046,0 2,0.8954 2,2 0,1.1046 -0.8954,2.0001 -2,2.0001 l -53.37343,0 12.8435,13.6252 c 0.7199,0.7608 0.6688,2.0938 -0.078,2.8281 -0.7885,0.7752 -2.0925,0.7062 -2.8281,-0.078 l -15.9997,-17.0002 c -0.4701,-0.4611 -0.556,-0.9052 -0.5639,-1.3748 z" style="text-indent:0;text-transform:none;direction:ltr;block-progression:tb;baseline-shift:baseline;color:#000000;enable-background:accumulate;" fill="#000000" fill-opacity="1" fill-rule="nonzero" stroke="none" marker="none" visibility="visible" display="inline" overflow="visible"/></g></svg>