<?xml version="1.0" encoding="utf-8"?>
<!-- Generator: Adobe Illustrator 15.1.0, SVG Export Plug-In . SVG Version: 6.00 Build 0)  -->
<!DOCTYPE svg PUBLIC "-//W3C//DTD SVG 1.1//EN" "http://www.w3.org/Graphics/SVG/1.1/DTD/svg11.dtd">
<svg version="1.1" id="Layer_1" xmlns="http://www.w3.org/2000/svg" xmlns:xlink="http://www.w3.org/1999/xlink" x="0px" y="0px"
	 width="100px" height="61.038px" viewBox="0 0 100 61.038" enable-background="new 0 0 100 61.038" xml:space="preserve">
<g>
	<path d="M0,9.708v38.841c0.008,5.357,4.349,9.697,9.708,9.706h0.507v2.215c0,0.314,0.253,0.567,0.567,0.567h6.394
		c0.312,0,0.564-0.253,0.564-0.567v-2.215h61.677V0H9.708C4.349,0.013,0.008,4.349,0,9.708z M75.219,9.708v38.841
		c-0.005,2.338-1.902,4.24-4.245,4.24H9.708c-2.341,0-4.242-1.899-4.243-4.24V9.708c0.001-2.34,1.902-4.242,4.243-4.242
		l61.267-0.005C73.317,5.465,75.214,7.368,75.219,9.708z"/>
	<path d="M7.653,9.708v38.841c0,1.133,0.92,2.057,2.055,2.057h61.267c1.133,0,2.055-0.924,2.055-2.057V9.708
		c0-1.13-0.922-2.054-2.055-2.059L9.708,7.655C8.573,7.655,7.653,8.578,7.653,9.708z M13.251,13.252h54.181v31.752H13.251V13.252z"
		/>
	<path d="M90.296,0h-8.689v58.253h3.327v2.214c0,0.317,0.255,0.567,0.565,0.567h6.388c0.317,0,0.572-0.25,0.572-0.567V58
		c4.317-0.988,7.536-4.837,7.54-9.451V9.708C99.996,4.349,95.663,0.013,90.296,0z M90.85,5.453h3.795v3.796H90.85V5.453z
		 M90.85,11.31h3.795v3.792H90.85V11.31z M85.011,5.453h3.795v3.796h-3.795V5.453z M85.011,11.31h3.795v3.792h-3.795V11.31z
		 M88.942,50.824c0,1.112-0.902,2.019-2.02,2.019c-1.112,0-2.021-0.906-2.021-2.019V38.728c0-1.115,0.909-2.02,2.021-2.02
		c1.117,0,2.02,0.904,2.02,2.02V50.824z M92.969,52.845c-1.117,0-2.021-0.907-2.021-2.02c0-1.119,0.904-2.023,2.021-2.023
		c1.115,0,2.017,0.904,2.017,2.023C94.986,51.938,94.084,52.845,92.969,52.845z M89.786,29.961c-3.351,0-6.062-2.713-6.062-6.06
		c0-3.345,2.711-6.061,6.062-6.061c3.343,0,6.059,2.716,6.059,6.061C95.841,27.248,93.128,29.961,89.786,29.961z"/>
	<path d="M89.786,20.026c-2.141,0.004-3.87,1.737-3.874,3.875c0.004,2.139,1.733,3.869,3.874,3.872
		c2.135-0.002,3.866-1.732,3.87-3.872C93.652,21.763,91.92,20.031,89.786,20.026z"/>
</g>
</svg>
