<svg xmlns="http://www.w3.org/2000/svg" xmlns:xlink="http://www.w3.org/1999/xlink" version="1.1" x="0px" y="0px" width="100px" height="100px" viewBox="0 0 100 100" enable-background="new 0 0 100 100" xml:space="preserve">
<g id="Layer_1" display="none">
	<path display="inline" d="M89.418,57.51l-4.75-8.164c-0.145-0.236-0.359-0.437-0.605-0.588c0.059-0.583,0.09-1.167,0.09-1.75   c0-7.873-5.141-14.279-11.458-14.279c-5.781,0-10.573,5.364-11.347,12.307C60.574,38.093,55.781,32.729,50,32.729   c-5.782,0-10.574,5.365-11.347,12.308c-0.772-6.943-5.565-12.308-11.347-12.308c-6.317,0-11.457,6.406-11.457,14.279   c0,0.585,0.031,1.171,0.089,1.752c-0.249,0.155-0.467,0.361-0.619,0.607l-4.736,8.142c-0.43,0.368-0.658,0.95-0.562,1.521   l0.136,0.818c0.107,0.643,0.619,1.219,1.244,1.399l4.954,1.44c0.002,0.002,0.005,0.004,0.007,0.005l3.329,5.708   c0.31,0.531,0.957,0.901,1.571,0.901h11.116c0.755,0,1.433-0.558,1.577-1.298c0.301-1.528,1.67-5.893,3.931-5.893   c2.293,0,3.867,4.4,4.237,5.939c0.173,0.727,0.839,1.251,1.584,1.251h12.582c0.744,0,1.41-0.524,1.584-1.25   c0.367-1.541,1.934-5.94,4.238-5.94c2.262,0,3.631,4.364,3.93,5.893c0.145,0.74,0.824,1.298,1.578,1.298h11.115   c0.615,0,1.26-0.369,1.572-0.901l3.328-5.708c0.002-0.001,0.006-0.003,0.009-0.005l4.953-1.44c0.625-0.181,1.136-0.758,1.243-1.399   l0.137-0.818C90.074,58.46,89.846,57.878,89.418,57.51z M72.694,34.967c5.083,0,9.22,5.402,9.22,12.042   c0,0.486-0.023,0.974-0.068,1.46h-3.029h-1.32l-0.18,0.901c-0.008,0.04-0.016,0.081-0.023,0.121   c-0.023,0.055-0.049,0.109-0.066,0.167c-0.402,1.363-2.02,5.258-4.098,5.258c-2.039,0-3.477-3.86-3.82-5.21   c-0.016-0.058-0.039-0.112-0.059-0.167c-0.006-0.041-0.014-0.082-0.02-0.122l-0.148-0.947h-1.359h-4.182   c-0.045-0.484-0.068-0.973-0.068-1.46C63.473,40.369,67.609,34.967,72.694,34.967z M50,34.967c5.083,0,9.222,5.402,9.222,12.042   c0,0.486-0.023,0.975-0.07,1.46h-3.07h-1.32l-0.18,0.901c-0.008,0.04-0.016,0.082-0.025,0.122   c-0.023,0.055-0.047,0.108-0.064,0.165c-0.404,1.365-2.029,5.259-4.098,5.259h-0.099c-0.172-0.012-0.417-0.012-0.59,0h-0.1   c-2.068,0-3.692-3.895-4.096-5.257c-0.017-0.057-0.042-0.109-0.063-0.164c-0.009-0.042-0.018-0.082-0.026-0.125l-0.179-0.901   h-1.321h-3.072c-0.045-0.485-0.068-0.974-0.068-1.46C40.779,40.369,44.916,34.967,50,34.967z M27.306,34.967   c5.084,0,9.221,5.402,9.221,12.042c0,0.486-0.023,0.975-0.068,1.46h-4.181h-1.361l-0.147,0.947   c-0.007,0.041-0.015,0.082-0.02,0.123c-0.021,0.055-0.044,0.109-0.058,0.167c-0.34,1.352-1.773,5.21-3.821,5.21   c-2.069,0-3.693-3.895-4.099-5.258c-0.017-0.057-0.041-0.111-0.063-0.166c-0.008-0.041-0.018-0.083-0.025-0.123l-0.179-0.901   h-1.321h-3.028c-0.045-0.484-0.068-0.972-0.068-1.46C18.085,40.369,22.222,34.967,27.306,34.967z M31.872,67.067H21.503   l-2.354-4.038c2.379,0.005,4.766,0.007,7.156,0.007c2.374,0,4.745-0.002,7.109-0.007C32.549,64.543,32.076,66.208,31.872,67.067z    M55.82,67.067H44.179c-0.234-0.839-0.776-2.516-1.708-4.039c5.019,0.003,10.035,0.007,15.055,0.008   C56.596,64.558,56.055,66.229,55.82,67.067z M78.496,67.067H68.129c-0.203-0.858-0.678-2.521-1.539-4.032   c4.752-0.001,9.508-0.004,14.262-0.007L78.496,67.067z M87.684,59.185l-4.71,1.368c-0.172,0.051-0.347,0.133-0.511,0.237   c-5.909,0.004-11.818,0.008-17.729,0.008c-0.73-0.563-1.598-0.924-2.621-0.924c-1.02,0-1.898,0.36-2.648,0.925   c-6.312-0.001-12.627-0.005-18.941-0.009c-0.749-0.559-1.623-0.916-2.636-0.916c-1.019,0-1.882,0.357-2.61,0.916   c-5.889,0.012-11.851,0.012-17.737,0c-0.166-0.104-0.339-0.187-0.512-0.238l-4.713-1.367l-0.026-0.157l4.841-8.321h3.56   c0.998,3.991,3.037,6.244,5.813,6.428c0.12,0.012,0.243,0.019,0.368,0.019c0.125,0,0.248-0.007,0.369-0.019   c2.781-0.184,4.734-2.436,5.569-6.428h5.596h0.499h4.523c0.996,3.991,3.035,6.244,5.812,6.428c0.121,0.012,0.242,0.019,0.367,0.019   h0.789c0.125,0,0.247-0.007,0.368-0.019c2.776-0.184,4.814-2.437,5.812-6.428h4.523h0.5h5.594c0.834,3.992,2.787,6.244,5.57,6.428   c0.12,0.012,0.242,0.019,0.367,0.019s0.248-0.007,0.367-0.019c2.779-0.184,4.818-2.437,5.812-6.428h3.562l4.84,8.321L87.684,59.185   z"/>
</g>
<g id="Layer_2">
	<g>
		<path fill="#000000" d="M84.66,47.507l-7.938-8.559l-0.016-3.3c-0.004-0.8-0.34-1.541-0.926-2.033    c-0.584-0.492-1.373-0.698-2.162-0.565l-16.535,2.792c-1.504,0.255-2.682,1.649-2.682,3.175v3.006    c-0.178,0.074-0.348,0.157-0.486,0.245l-1.197,0.763v-1.859c0-0.537-0.246-1.163-0.613-1.555l-7.289-7.801l-0.012-2.846    c-0.004-0.799-0.341-1.54-0.925-2.033c-0.585-0.493-1.374-0.7-2.161-0.567l-10.893,1.827l-8.653-3.578    c-0.198-0.081-0.408-0.123-0.623-0.123c-0.625,0-1.208,0.36-1.484,0.915l-3.127,6.298c-0.157,0.317-0.312,0.801-0.368,1.149    l-1.218,7.645c-0.014,0.084-0.025,0.181-0.037,0.284c-0.027,0.127-0.046,0.256-0.046,0.385v21.69c0,0.752,0.521,1.465,1.238,1.693    l15.401,4.914c0.298,0.096,0.606,0.115,0.812,0.115c0.172,0,0.431-0.014,0.687-0.084l11.55-3.172v6.443    c0,0.752,0.52,1.465,1.235,1.693l16.725,5.377c0.299,0.096,0.607,0.117,0.814,0.117c0.174,0,0.434-0.016,0.689-0.086l19.562-5.41    c0.746-0.205,1.287-0.916,1.287-1.691V49.061C85.27,48.524,85.025,47.9,84.66,47.507z M22.393,27.289l5.794,2.396h-5.965    L22.393,27.289z M18.922,33.233c0.018-0.113,0.098-0.361,0.149-0.465l0.637-1.283l-0.026,0.367h0v0.003l-0.015,0.21h0.033    l0.273,3.336l-1.636,1.512L18.922,33.233z M31.496,66.84l-13.845-4.418V41.543c0-0.172,0.025-0.495,0.052-0.665l0.026-0.164    l3.251-3.003l10.639,7.262L31.496,66.84z M31.625,42.094l-9.232-6.301l-0.305-3.727h9.537V42.094z M56.783,39.018    c0-0.364,0.34-0.766,0.699-0.826l16.533-2.793c0.1-0.017,0.184-0.003,0.232,0.039s0.078,0.121,0.078,0.221l0.012,2.761    l-17.555,3.087V39.018z M49.334,40.141l-15.327,2.864v-7.827l9.191-1.604L49.334,40.141z M42.111,28.72    c0.1-0.017,0.183-0.003,0.233,0.039c0.049,0.043,0.078,0.122,0.078,0.222l0.01,2.309l-8.425,1.47v-2.021    c0-0.22-0.047-0.436-0.125-0.639L42.111,28.72z M45.87,47.397c-0.546,0.347-0.914,1.016-0.914,1.664v14.801l-11.079,3.041    l0.122-21.474l16.337-3.053v2.174L45.87,47.397z M62.648,77.256l-15.31-4.922V49.285l7.796-4.969l7.5,8.381    c0.004,0.01,0.01,0.021,0.014,0.033V77.256z M64.439,51.143l-6.623-7.4l17.285-3.04l6.809,7.34l-17.34,3.264    C64.529,51.248,64.486,51.193,64.439,51.143z M82.889,72.297l-17.859,4.939V53.645l17.859-3.362V72.297z"/>
	</g>
</g>
</svg>
