<svg fill="#000000" xmlns="http://www.w3.org/2000/svg" xmlns:xlink="http://www.w3.org/1999/xlink" version="1.0" x="0px" y="0px" viewBox="0 0 100 100" enable-background="new 0 0 100 100" xml:space="preserve"><rect x="44.252" y="10.813" transform="matrix(-0.707 -0.7072 0.7072 -0.707 67.112 113.6179)" fill="none" stroke="#000000" stroke-linecap="round" stroke-linejoin="round" stroke-miterlimit="10" width="25.677" height="64.189"/><path fill="none" stroke="#000000" stroke-linecap="round" stroke-linejoin="round" stroke-miterlimit="10" d="M66.172,24.753  c2.496-2.497,6.579-2.497,9.075,0c2.496,2.496,2.496,6.579,0,9.079L48.014,61.065c-2.496,2.496-6.579,2.496-9.079,0  c-2.496-2.5-2.496-6.583,0-9.079L66.172,24.753z"/><rect x="71.858" y="16.104" transform="matrix(-0.7071 -0.7071 0.7071 -0.7071 126.0209 89.2188)" fill="none" stroke="#000000" stroke-linecap="round" stroke-linejoin="round" stroke-miterlimit="10" width="19.26" height="4.813"/><path fill="none" stroke="#000000" stroke-linecap="round" stroke-linejoin="round" stroke-miterlimit="10" d="M43.474,74.681  c-7.563,0-14.414,3.066-19.375,8.023l-6.808-6.808c5.351-5.351,8.028-12.358,8.028-19.37L43.474,74.681z"/><polygon fill="none" stroke="#000000" stroke-linecap="round" stroke-linejoin="round" stroke-miterlimit="10" points="  18.997,77.598 22.398,81.004 16.808,86.595 10,86.595 "/><path fill="none" stroke="#000000" stroke-linecap="round" stroke-linejoin="round" stroke-miterlimit="10" d="M23.332,90H90H23.332  z"/></svg>