<svg xmlns="http://www.w3.org/2000/svg" xmlns:xlink="http://www.w3.org/1999/xlink" version="1.1" x="0px" y="0px" viewBox="0 0 100 100" enable-background="new 0 0 100 100" xml:space="preserve"><path d="M93.65,73.238c2.362,0.675,1.35,3.964-0.928,3.29L58.646,66.49l-0.421,1.349l-7.085-2.109  c3.121-10.711-3.037-22.015-13.665-25.136c-10.88-3.205-22.014,2.952-25.135,13.665L5,52.066l8.604-28.932l53.223,15.773  l-7.169,24.208L93.65,73.238z M49.621,59.236c0,9.785-7.591,17.629-17.544,17.629c-9.7,0-17.628-7.76-17.628-17.629  c0-9.7,7.929-17.713,17.628-17.713S49.621,49.536,49.621,59.236z M20.942,49.114c-2.446,2.615-3.964,6.242-3.964,10.122  c0,1.097,0.169,2.278,0.337,3.29l11.134-3.458c0-0.59,0.084-1.096,0.337-1.519L20.942,49.114z M17.737,63.875  c1.519,4.639,5.229,8.266,9.953,9.7l2.446-11.218c-0.422-0.337-0.844-0.675-1.181-1.181L17.737,63.875z M21.955,48.102l8.435,7.844  c0.168-0.084,0.506-0.168,0.759-0.253c0.253-0.084,0.506-0.168,0.759-0.168l3.374-10.965c-1.012-0.253-2.024-0.337-3.121-0.337  C28.281,44.222,24.654,45.74,21.955,48.102z M28.871,73.913c1.097,0.253,2.193,0.337,3.29,0.337c3.88,0,7.422-1.518,10.122-3.964  l-8.519-7.845c-0.253,0.084-0.422,0.169-0.759,0.337c-0.253,0-0.506,0.084-0.759,0.084L28.871,73.913z M32.076,60.333  c0.591,0,1.097-0.506,1.097-1.097s-0.506-1.181-1.097-1.181c-0.674,0-1.181,0.59-1.181,1.181S31.402,60.333,32.076,60.333z   M31.908,60.67c-0.253,0-0.422-0.084-0.59-0.168l-0.169,0.506c0.169,0.253,0.337,0.253,0.59,0.253L31.908,60.67z M32.076,57.887  c0.253,0,0.422,0,0.675,0.168l0.168-0.591c-0.253-0.168-0.422-0.253-0.675-0.168L32.076,57.887z M46.416,54.597  c-1.519-4.639-5.23-8.266-9.869-9.7l-2.53,11.218c0.506,0.253,0.843,0.675,1.181,1.096L46.416,54.597z M43.21,69.358  c2.446-2.699,3.88-6.242,3.88-10.122c0-1.096-0.084-2.193-0.337-3.29l-11.05,3.458c0,0.506-0.168,1.012-0.422,1.519L43.21,69.358z"></path></svg>