<?xml version="1.0" encoding="utf-8"?>
<!-- Generator: Adobe Illustrator 16.0.0, SVG Export Plug-In . SVG Version: 6.00 Build 0)  -->
<!DOCTYPE svg PUBLIC "-//W3C//DTD SVG 1.1//EN" "http://www.w3.org/Graphics/SVG/1.1/DTD/svg11.dtd">
<svg version="1.1" id="Layer_1" xmlns="http://www.w3.org/2000/svg" xmlns:xlink="http://www.w3.org/1999/xlink" x="0px" y="0px"
	 width="59.717px" height="100px" viewBox="19.982 -0.172 59.717 100" enable-background="new 19.982 -0.172 59.717 100"
	 xml:space="preserve">
<path d="M59.178,41.607c-0.086-0.034-0.18-0.051-0.276-0.051c-0.427,0-0.772,0.346-0.772,0.771l-0.003-0.005l-0.003,6.025
	c0,0.32,0.195,0.588,0.476,0.705c8.172,3.425,13.916,11.496,13.916,20.914c0,12.524-10.151,22.675-22.673,22.675
	c-12.524,0-22.674-10.15-22.674-22.675c0-11.407,8.42-20.838,19.384-22.432l-0.008,18.932c-0.924,0.873-1.508,2.104-1.514,3.476
	c-0.004,0.95,0.271,1.837,0.743,2.584l-5.981,6.871h-3.276c-0.267,0-0.483,0.218-0.483,0.483v2.725c0,0.269,0.216,0.486,0.484,0.486
	l7.529-0.001c0.267,0,0.484-0.217,0.483-0.485v-2.725c0-0.266-0.216-0.483-0.483-0.484h-0.597l4.412-5.048
	c0.598,0.272,1.261,0.427,1.96,0.431c2.658,0.014,4.824-2.131,4.837-4.788c0.004-0.951-0.271-1.837-0.742-2.586l6.039-7.043h3.277
	c0.268,0,0.484-0.218,0.484-0.483v-2.726c0-0.267-0.217-0.483-0.484-0.483h-7.53c-0.267,0-0.483,0.217-0.483,0.485v2.724
	c0,0.266,0.217,0.483,0.483,0.485h0.597l-3.218,3.764l0.024-53.055c5.47-1.035,10.125-3.572,13.09-6.985
	c0.163-0.19,0.241-0.448,0.241-0.72c0-0.281-0.1-0.537-0.265-0.737l-1.611-1.958c-0.425-0.515-1.069-0.844-1.79-0.844
	c-0.549,0-1.053,0.192-1.452,0.511c-2.956,2.407-7.997,3.992-13.714,3.992c-1.927,0-3.771-0.186-5.49-0.515
	c-2.983-0.611-4.646-1.92-5.043-2.225C36.667,1.281,36.169,1.08,35.62,1.08c-1.281,0-2.318,1.038-2.318,2.318L33.3,7.052
	c0,0.445,0.25,0.831,0.619,1.024c3.508,2.048,7.878,3.327,12.648,3.489l-0.012,28.729C31.61,41.931,19.982,54.586,19.982,69.969
	c0,16.495,13.368,29.859,29.859,29.859c16.489,0,29.857-13.364,29.857-29.859C79.701,56.737,71.095,45.527,59.178,41.607z"/>
</svg>
