<svg fill="#000000" xmlns="http://www.w3.org/2000/svg" xmlns:xlink="http://www.w3.org/1999/xlink" version="1.1" x="0px" y="0px" viewBox="-255 378.9 85 85" style="enable-background:new -255 378.9 85 85;" xml:space="preserve"><style type="text/css">
	.st0{fill:none;stroke:#000000;stroke-width:1.625;stroke-linecap:round;stroke-linejoin:round;stroke-miterlimit:10;}
	.st1{fill:#000000;}
	.st2{fill:none;stroke:#000000;stroke-width:1.625;stroke-linejoin:round;stroke-miterlimit:10;}
	.st3{fill:none;stroke:#000000;stroke-width:1.625;stroke-linecap:round;stroke-linejoin:round;stroke-miterlimit:10;}
	.st4{fill:none;stroke:#000000;stroke-width:1.901;stroke-linecap:round;stroke-linejoin:round;stroke-miterlimit:10;}
</style><g><path class="st0" d="M-469,796.9v-4.6 M-464,799.7c0,0-0.7,2-3.5,2c-2.7,0-3.3-2-3.3-2 M-454,789.3   c0,0,2.8-0.6,3.2,2.6c0.3,2.4-3.8,6.9-3.8,6.9 M-481,789.3c0,0-2.8-0.6-3.2,2.6c-0.3,2.4,3.8,6.9,3.8,6.9"/><path d="M-461.6,793.5c0,0.7,0.6,1.2,1.2,1.2c0.7,0,1.2-0.6,1.2-1.2c0-0.7-0.6-1.2-1.2-1.2   C-461.1,792.3-461.6,792.9-461.6,793.5"/><path d="M-475.4,793.5c0,0.7,0.5,1.2,1.2,1.2c0.7,0,1.2-0.5,1.2-1.2s-0.5-1.2-1.2-1.2   C-474.8,792.3-475.4,792.9-475.4,793.5"/><path class="st0" d="M-454.7,820l0.1-37.1 M-480.2,782.8v37.1 M-470.8,827.7c0,0,0-18.9,0-19.6   c0-1.3,1.5-3.2,3.3-3.2s3.3,1.7,3.3,3.3v19.5 M-457.5,789.2h-5.4c-0.5,0-0.7-0.3-0.7-0.5v-0.9 M-477.2,789.2h5.6   c0.4,0,0.7-0.3,0.7-0.5v-0.9 M-457.7,799.7v22.8 M-477.1,799.8l-0.1,22.7 M-467.5,808.4v22 M-461.1,825.2v-17.1   c0-3.6-2.5-6.4-6.1-6.4c-4.5,0-6.7,3.7-6.7,7.1v16.3"/><polygon class="st1" points="-480.2,770.1 -473.9,776.2 -467.3,770.1 -461.1,776.3 -454.6,770.1 -454.6,783.3    -480.2,783.3  "/><polygon class="st2" points="-480.2,770.1 -473.9,776.2 -467.3,770.1 -461.1,776.3 -454.6,770.1 -454.6,783.3    -480.2,783.3  "/></g><path class="st3" d="M-227.3,410.9"/><path class="st3" d="M-223.9,406.2c1.6-1.6,4.1-3.3,7.4-3.3c6.7,0,9.9,6.2,16.4,3.1"/><path class="st3" d="M-221.7,410.2c1.6-1.3,3.8-2.5,6.6-2.5c1.9,0,3.5,0.5,5,1.2"/><polyline class="st4" points="-205.3,402.4 -205.2,392.7 -208.9,397.2 -212.8,392.7 -216.5,397.2 -220.3,392.7   -220.3,399.5 "/><path class="st3" d="M-222.2,422.5c0.4-0.9,1.3-1.5,2.3-1.5c0.9,0,1.7,0.5,2.2,1.3 M-208.6,422.5c0.4-0.9,1.3-1.5,2.3-1.5  c0.9,0,1.7,0.5,2.2,1.3 M-203.5,418c-0.8-0.8-2.5-2.1-4.5-2.3 M-222.9,418c0.8-0.8,2.5-2.1,4.5-2.3 M-226.8,406.3  c0,4,2.3,7.1,9.1,7.1c8.4,0,19.7-2.4,21.9-9 M-197.9,401.8c-5.7,7.4-15.5-8.3-26.5,0.1c-1.9,1.5-2.4,4.4-2.4,4.4  c-3.6,0.5-3.9,8.6-0.4,9.6 M-198.9,409.6c0,0.1,0,2.2,0,2.3c0,5.3,0,15.4,0,15.4c0,5.1-9,13.6-14.8,13.6c-5.5,0-13.6-8.6-13.6-13.4  c0-4.7,0-11.6,0-11.6 M-218.8,432.1c3,3,9,2.7,11.4-0.4 M-215.6,427.1c0.6,1.3,4.1,1.3,5,0 M-197.8,415.8c2.2-0.4,2.6,1.4,2.4,2.9  c-0.2,1.5-0.9,4.2-2.6,5.8 M-227.7,424.4c-1.6-1.6-2.3-4.2-2.6-5.8c-0.2-1.5,0.2-3.3,2.4-2.9"/><path class="st3" d="M-225.7,410.4c0.4,1.4-0.1,5.3-2,5.7"/></svg>