<svg fill="#000000" xmlns="http://www.w3.org/2000/svg" xmlns:xlink="http://www.w3.org/1999/xlink" version="1.1" x="0px" y="0px" viewBox="0 0 100 100" enable-background="new 0 0 100 100" xml:space="preserve"><path d="M19.771,66.531l-2.655,10.487c-0.148,0.587,0.084,1.205,0.581,1.55c0.248,0.172,0.537,0.258,0.826,0.258  c0.29,0,0.58-0.086,0.828-0.259l13.804-9.584c3.87-0.047,7.499-0.689,10.77-1.826c5.015,2.616,11.024,4.136,17.624,4.203  l16.661,11.57c0.249,0.173,0.539,0.259,0.828,0.259c0.007,0,0.014,0,0.019,0c0.803,0,1.452-0.65,1.452-1.451  c0-0.206-0.043-0.402-0.12-0.58L77.193,68.53C88.214,64.052,95,54.79,95,44.088c0-15.551-14.184-27.277-32.993-27.277  c-8.841,0-16.659,2.592-22.464,6.952c-2.176-0.426-4.466-0.653-6.846-0.653C16.907,23.109,5,32.971,5,46.049  C5,54.99,10.624,62.734,19.771,66.531z M92.097,44.088c0,9.842-6.563,18.344-17.129,22.189c-0.735,0.268-1.123,1.067-0.882,1.812  c0.001,0.001,0.001,0.002,0.002,0.003l2.591,10.24l-13.844-9.614c-0.243-0.168-0.532-0.259-0.828-0.259  c-17.154,0-30.092-10.477-30.092-24.371c0-13.896,12.938-24.374,30.092-24.374S92.097,30.192,92.097,44.088z M32.697,26.013  c1.354,0,2.676,0.081,3.96,0.233c0,0,0.001,0,0.001-0.001c-4.81,4.717-7.646,10.896-7.646,17.843c0,8.656,4.397,16.126,11.54,21.049  c-0.002-0.002-0.005-0.003-0.008-0.005c-2.447,0.616-5.079,0.951-7.847,0.951c-0.296,0-0.585,0.091-0.828,0.259L20.884,73.97  l1.979-7.823c0.01-0.024,0.018-0.049,0.025-0.075c0.227-0.738-0.166-1.525-0.892-1.789C13.304,61.118,7.903,54.131,7.903,46.049  C7.903,34.626,18.563,26.013,32.697,26.013z M38.131,24.899c-0.061,0.052-0.121,0.105-0.182,0.158  C38.01,25.005,38.07,24.952,38.131,24.899z M42.283,66.24c-0.049-0.028-0.098-0.057-0.146-0.086  C42.186,66.184,42.234,66.211,42.283,66.24z"/><circle cx="47.604" cy="45.199" r="2.16"/><circle cx="62.007" cy="45.199" r="2.16"/><circle cx="76.411" cy="45.199" r="2.16"/></svg>