<svg fill="#000000" xmlns="http://www.w3.org/2000/svg" xmlns:xlink="http://www.w3.org/1999/xlink" version="1.1" x="0px" y="0px" viewBox="0 0 100 100" style="enable-background:new 0 0 100 100;" xml:space="preserve"><g><path d="M44.231,57.355c-2.383-0.542-4.678-1.42-6.82-2.611c-0.482-0.268-1.092-0.093-1.359,0.388   c-0.269,0.483-0.095,1.092,0.389,1.36c2.308,1.283,4.78,2.229,7.348,2.813c0.074,0.017,0.149,0.025,0.223,0.025   c0.456,0,0.868-0.314,0.975-0.778C45.107,58.013,44.771,57.478,44.231,57.355z"/><path d="M24.846,38.589c-0.141-0.534-0.689-0.854-1.222-0.714c-0.534,0.14-0.854,0.687-0.714,1.221   c1.525,5.816,4.979,11.092,9.725,14.854c0.184,0.146,0.402,0.216,0.62,0.216c0.295,0,0.587-0.13,0.784-0.379   c0.344-0.433,0.271-1.062-0.162-1.405C29.469,48.888,26.261,43.989,24.846,38.589z"/><path d="M87.223,31H82H70.501c2.514-2.272,5.168-4.704,6.219-5.755l0.159-0.159c2.648-2.646,7.062-7.056,4.509-9.918   c-0.021-0.029-0.045-0.058-0.07-0.084c-0.012-0.013-0.023-0.025-0.037-0.038c-0.044-0.047-0.092-0.089-0.143-0.126   c-2.864-2.544-7.271,1.869-9.918,4.517l-0.154,0.155c-1.606,1.606-6.75,7.282-10.397,11.409H18h-5.223c-0.553,0-1,0.448-1,1   s0.447,1,1,1h4.248C17.42,46.153,25.54,57.396,37,62.327V68c0,0.552,0.447,1,1,1h24c0.553,0,1-0.448,1-1v-5.673   C74.46,57.396,82.58,46.153,82.975,33h4.248c0.553,0,1-0.448,1-1S87.775,31,87.223,31z M72.479,21.005l0.155-0.156   c1.729-1.729,5.771-5.779,7.218-4.395c0.002,0.002,0.005,0.004,0.007,0.006c1.374,1.447-2.668,5.486-4.395,7.211l-0.159,0.16   c-1.044,1.044-4.088,3.843-7.794,7.169h-4.168C66.823,27.088,71.105,22.38,72.479,21.005z M61,67H39v-3.892   C42.443,64.329,46.144,65,50,65s7.557-0.671,11-1.892V67z M50,63c-16.759,0-30.454-13.368-30.984-30h48.877   c0.001,0,0.002,0,0.002,0c0.001,0,0.002,0,0.003,0h13.087C80.454,49.632,66.759,63,50,63z"/><path d="M58.184,22v4.388c0,0.552,0.447,1,1,1s1-0.448,1-1V22c0-0.552-0.447-1-1-1S58.184,21.448,58.184,22z"/><path d="M49.925,24.936c-0.391,0.391-0.391,1.024,0,1.414l3.104,3.103c0.195,0.195,0.451,0.293,0.707,0.293   s0.512-0.098,0.707-0.293c0.391-0.391,0.391-1.024,0-1.414l-3.104-3.103C50.948,24.545,50.315,24.545,49.925,24.936z"/></g></svg>