<svg xmlns="http://www.w3.org/2000/svg" xmlns:xlink="http://www.w3.org/1999/xlink" version="1.1" x="0px" y="0px" viewBox="0 0 100 100" enable-background="new 0 0 100 100" xml:space="preserve"><path d="M93.04,14.177c-0.039-1.075-0.922-1.927-1.999-1.927H8.795c-1.082,0-1.967,0.859-1.999,1.94L6.033,39.755  c-0.016,0.526,0.177,1.038,0.536,1.423c10.844,11.638,25.43,31.645,33.207,45.548c0.354,0.632,1.021,1.023,1.746,1.023h17.122  c0.777,0,1.484-0.45,1.813-1.155c4.404-9.446,24.403-37.131,32.921-45.574c0.397-0.394,0.611-0.935,0.591-1.494L93.04,14.177z   M56.688,83.75H43.475c-0.424-9.667-3.867-21.092-10.049-30.003c1.396-1.639,9.081-11.382,9.719-27.938h13.847  c0.654,16.077,7.955,25.894,9.61,27.922C60.503,62.667,57.106,74.084,56.688,83.75z M10.451,25.809h30.692  c-0.594,14.71-7.12,23.961-8.935,26.262C26.702,44.842,19.26,39.602,10.06,38.901L10.451,25.809z M58.994,25.809h30.469  l0.471,12.881c-9.198,0.713-16.631,6.027-22.117,13.343C65.837,49.434,59.605,40.163,58.994,25.809z M89.113,16.25l0.276,7.559  H10.511l0.226-7.559H89.113z M11.922,41.124C29.454,43.886,39.728,64.668,41.3,81.37C33.647,68.457,21.838,52.277,11.922,41.124z   M58.893,81.016c1.664-16.679,11.819-37.232,29.066-40.077C79.38,50.499,65.09,70.232,58.893,81.016z"></path></svg>