<svg fill="#000000" xmlns="http://www.w3.org/2000/svg" xmlns:xlink="http://www.w3.org/1999/xlink" version="1.1" x="0px" y="0px" viewBox="0 0 64 64" enable-background="new 0 0 64 64" xml:space="preserve"><g><path d="M56,15c-0.553,0-1,0.448-1,1c0,2.757-2.243,5-5,5H38.669c-0.438-2.611-1.393-4.436-3.288-5.34C36.37,14.746,37,13.45,37,12   c0-4.533-0.468-5-5-5c-2.415,0-4.434,1.721-4.899,4H26c-0.265,0-0.52,0.105-0.707,0.293l-2,2c-0.391,0.391-0.391,1.023,0,1.414   C23.488,14.902,23.744,15,24,15s0.512-0.098,0.707-0.293L26.414,13h0.687c0.213,1.045,0.763,1.962,1.518,2.66   c-1.896,0.904-2.851,2.729-3.288,5.34H14c-2.757,0-5-2.243-5-5c0-0.552-0.448-1-1-1s-1,0.448-1,1v30c0,0.553,0.448,1,1,1   s1-0.447,1-1V20.895c1.05,1.072,2.445,1.801,4,2.025V42c0,0.553,0.448,1,1,1s1-0.447,1-1V23h4v15c0,0.553,0.448,1,1,1s1-0.447,1-1   V23h4.1c-0.067,0.931-0.1,1.926-0.1,3c0,4.729,0.689,9.706,1.891,13.769L17.531,51H14c-0.552,0-1,0.447-1,1s0.448,1,1,1h3v3   c0,0.553,0.448,1,1,1s1-0.447,1-1v-3.638l7.512-9.014l-1.501,10.51c-0.056,0.391,0.123,0.777,0.457,0.987   c0.334,0.212,0.76,0.207,1.088-0.014L32,51.202l5.445,3.63C37.613,54.944,37.807,55,38,55c0.185,0,0.37-0.051,0.533-0.154   c0.334-0.21,0.513-0.597,0.457-0.987l-1.502-10.51L45,52.363V56c0,0.553,0.447,1,1,1s1-0.447,1-1v-3h3c0.553,0,1-0.447,1-1   s-0.447-1-1-1h-3.531l-9.359-11.231C38.312,35.703,39,30.727,39,26c0-1.074-0.032-2.069-0.1-3H43v15c0,0.553,0.447,1,1,1   s1-0.447,1-1V23h4v19c0,0.553,0.447,1,1,1s1-0.447,1-1V22.92c1.556-0.224,2.949-0.953,4-2.025V46c0,0.553,0.447,1,1,1s1-0.447,1-1   V16C57,15.448,56.553,15,56,15z M29,12c0-1.654,1.346-3,3-3c1.271,0,2.586,0,2.793,0.207S35,10.729,35,12c0,1.654-1.346,3-3,3   S29,13.654,29,12z M32.555,49.168C32.387,49.056,32.193,49,32,49s-0.387,0.056-0.555,0.168l-4.139,2.76l1.684-11.786   c0.005-0.032-0.009-0.064-0.008-0.097c0.004-0.086-0.002-0.168-0.02-0.252c-0.006-0.03,0.002-0.062-0.007-0.092   C27.73,35.791,27,30.669,27,26c0-7.701,1.542-9,5-9c3.458,0,5,1.299,5,9c0,4.668-0.73,9.79-1.954,13.701   c-0.009,0.028-0.001,0.06-0.007,0.089c-0.019,0.085-0.025,0.168-0.021,0.255c0.002,0.032-0.013,0.064-0.008,0.097l1.684,11.786   L32.555,49.168z"/></g></svg>