<svg fill="#000000" xmlns="http://www.w3.org/2000/svg" xmlns:xlink="http://www.w3.org/1999/xlink" xmlns:sketch="http://www.bohemiancoding.com/sketch/ns" viewBox="0 0 30 30" version="1.1" x="0px" y="0px"><title>action_014-edit-pen-pencial-write-compose-study-learn</title><desc>Created with Sketch.</desc><g stroke="none" stroke-width="1" fill="none" fill-rule="evenodd" sketch:type="MSPage"><g sketch:type="MSArtboardGroup" transform="translate(-180.000000, -90.000000)" fill="#000000"><path d="M208,97.4958372 L207.995189,112.495837 L194.995189,120 L182,112.504163 L182.004811,97.5041628 L195.004811,90 L208,97.4958372 Z M207,98.0661534 L206.995559,111.926153 L194.995559,118.859999 L183,111.933846 L183.004441,98.0738463 L195.004441,91.14 L207,98.0661534 Z M190.050253,107.12132 L187.928932,112.071068 L192.87868,109.949747 L202.778175,100.050253 L202.778175,98.636039 L201.363961,97.2218254 L199.949747,97.2218254 L190.050253,107.12132 Z M199.242641,99.3431458 L200.656854,100.757359 L201.788225,99.6259882 L201.788229,99.0603074 L200.939693,98.2117706 L200.374012,98.2117746 L199.242641,99.3431458 Z M192.87868,108.535534 L199.949747,101.464466 L198.535534,100.050253 L191.464466,107.12132 L192.87868,108.535534 Z M192.115006,109.186073 L190.813929,107.884997 L189.798382,110.201621 L192.115006,109.186073 Z" sketch:type="MSShapeGroup"/></g></g></svg>