<svg xmlns:dc="http://purl.org/dc/elements/1.1/" xmlns:cc="http://creativecommons.org/ns#" xmlns:rdf="http://www.w3.org/1999/02/22-rdf-syntax-ns#" xmlns:svg="http://www.w3.org/2000/svg" xmlns="http://www.w3.org/2000/svg" xmlns:sodipodi="http://sodipodi.sourceforge.net/DTD/sodipodi-0.dtd" xmlns:inkscape="http://www.inkscape.org/namespaces/inkscape" viewBox="0 0 100 100" version="1.1" x="0px" y="0px"><g style="display:inline;opacity:1"><g style="display:inline;opacity:1" transform="translate(-15.654621,15.65501)"><path style="color:#000000;font-style:normal;font-variant:normal;font-weight:normal;font-stretch:normal;font-size:medium;line-height:normal;font-family:sans-serif;text-indent:0;text-align:start;text-decoration:none;text-decoration-line:none;text-decoration-style:solid;text-decoration-color:#000000;letter-spacing:normal;word-spacing:normal;text-transform:none;direction:ltr;block-progression:tb;writing-mode:lr-tb;baseline-shift:baseline;text-anchor:start;white-space:normal;clip-rule:nonzero;display:inline;overflow:visible;visibility:visible;opacity:1;isolation:auto;mix-blend-mode:normal;color-interpolation:sRGB;color-interpolation-filters:linearRGB;solid-color:#000000;solid-opacity:1;fill:#000000;fill-opacity:1;fill-rule:nonzero;stroke:none;stroke-width:4;stroke-linecap:round;stroke-linejoin:round;stroke-miterlimit:4;stroke-dasharray:none;stroke-dashoffset:0;stroke-opacity:1;color-rendering:auto;image-rendering:auto;shape-rendering:auto;text-rendering:auto;enable-background:accumulate" d="M 29.835938 10.695312 A 2.0002 2.0002 0 0 0 28.826172 10.945312 L 13.398438 19.480469 A 2.0002 2.0002 0 0 0 12.371094 21.376953 L 13.355469 34.671875 A 2.0002 2.0002 0 0 0 13.814453 35.804688 L 23.662109 47.623047 A 2.0002 2.0002 0 0 0 24.199219 48.074219 L 46.287109 60.835938 L 57.304688 68.451172 L 82.673828 89.728516 A 2.0002 2.0002 0 0 0 85.537109 89.423828 L 90.132812 83.515625 A 2.0002 2.0002 0 0 0 89.953125 80.859375 L 74.46875 65.699219 L 58.505859 44.523438 L 50.476562 32.640625 L 46.294922 20.417969 A 2.0002 2.0002 0 0 0 45.396484 19.330078 L 30.789062 10.958984 A 2.0002 2.0002 0 0 0 29.835938 10.695312 z M 29.777344 14.990234 L 37.677734 19.517578 C 37.46005 20.024592 37.236829 20.571352 37.025391 21.121094 C 36.538723 22.386429 36.121094 23.574219 36.121094 23.574219 A 2.0002 2.0002 0 1 0 39.894531 24.900391 C 39.894531 24.900391 40.297462 23.753552 40.757812 22.556641 C 40.900541 22.185548 41.037203 21.864391 41.177734 21.523438 L 42.753906 22.425781 L 46.777344 34.1875 A 2.0002 2.0002 0 0 0 47.013672 34.660156 L 55.21875 46.804688 A 2.0002 2.0002 0 0 0 55.279297 46.890625 L 71.365234 68.226562 A 2.0002 2.0002 0 0 0 71.5625 68.453125 L 85.880859 82.46875 L 83.654297 85.330078 L 59.802734 65.326172 A 2.0002 2.0002 0 0 0 59.65625 65.214844 L 48.494141 57.5 A 2.0002 2.0002 0 0 0 48.357422 57.414062 L 26.507812 44.789062 L 24.724609 42.648438 L 26.869141 40.962891 A 2.0002 2.0002 0 0 0 25.634766 37.373047 A 2.0002 2.0002 0 0 0 24.396484 37.818359 L 22.162109 39.574219 L 17.298828 33.736328 L 16.638672 24.837891 L 19.976562 26.423828 A 2.0002 2.0002 0 1 0 21.693359 22.810547 L 18.4375 21.263672 L 29.777344 14.990234 z " transform="translate(15.654621,-15.65501)"></path></g></g></svg>