<svg xmlns="http://www.w3.org/2000/svg" xmlns:xlink="http://www.w3.org/1999/xlink" version="1.1" x="0px" y="0px" viewBox="0 0 100 100" enable-background="new 0 0 100 100" xml:space="preserve"><g><path d="M32.091,41.749c-0.004-0.015-0.008-0.03-0.012-0.046c-0.046,0.017-0.093,0.033-0.139,0.049   c0.002,0.008,0.004,0.015,0.006,0.022C31.995,41.766,32.043,41.758,32.091,41.749z"></path><path d="M95,44.471c0.009-0.084-0.002-0.262-0.206-0.365c-0.134-0.201-0.32-0.371-0.565-0.5c-0.133-0.07-0.29-0.129-0.479-0.177   c-0.277-0.072-0.556-0.141-0.834-0.21c-0.197-0.048-0.395-0.096-0.591-0.146c-0.391-0.099-0.779-0.199-1.169-0.3l-1.015-0.262   c-0.049-0.016-0.089-0.023-0.119-0.03c-0.012-0.003-0.022-0.005-0.036-0.009l-0.054-0.014c-0.046-0.013-0.093-0.027-0.139-0.04   c-0.09-0.026-0.179-0.053-0.27-0.073c-0.08-0.018-0.161-0.035-0.241-0.054l-0.82-0.183l-0.057-0.011   c-0.516-0.114-1.031-0.228-1.545-0.349c-0.412-0.096-0.831-0.207-1.235-0.314c-0.197-0.052-0.395-0.105-0.592-0.156   c-0.632-0.163-1.129-0.244-1.612-0.263c-0.346-0.013-0.689-0.031-1.034-0.049c-0.774-0.044-1.55-0.088-2.325-0.134   c-0.039-0.002-0.077-0.005-0.117-0.009c-0.012-0.989-0.024-2.01-0.193-3.021c-0.068-0.4-0.068-0.753-0.003-1.08   c0.045-0.221,0.06-0.474,0.043-0.748c-0.026-0.425-0.067-0.844-0.122-1.243c-0.05-0.353-0.125-0.7-0.198-1.027   c-0.096-0.429-0.398-0.701-0.829-0.749c-0.053-0.006-0.119-0.025-0.188-0.046l-0.033-0.01c-0.746-0.221-1.522-0.335-2.372-0.349   c-0.525-0.008-1.049-0.02-1.574-0.031l-0.165-0.004c-2.007-0.044-4.013-0.089-6.019-0.135c-0.457-0.01-0.914-0.021-1.371-0.032   c-0.825-0.021-1.651-0.041-2.477-0.056c-1.282-0.024-2.566-0.039-3.849-0.053c-0.033,0-0.065-0.003-0.099-0.005   c-0.17-0.013-0.338-0.007-0.478,0.047l-0.028-0.005c-0.051-0.01-0.104-0.019-0.157-0.021c-0.256-0.009-0.511-0.016-0.767-0.024   l-0.635-0.021c-0.162-0.005-0.323-0.014-0.485-0.024c-0.303-0.018-0.617-0.036-0.935-0.029c-0.651,0.016-1.315-0.002-1.958-0.02   l-0.422-0.011c-0.379-0.01-0.757-0.028-1.135-0.045l-0.673-0.032c-0.2-0.011-0.417-0.012-0.64-0.015   c-0.089-0.001-0.179-0.002-0.267-0.002c-0.165,0-0.383,0.003-0.608,0.028c-0.327,0.035-0.591,0.14-0.788,0.315   c-0.231-0.227-0.508-0.299-0.74-0.36c-0.311-0.082-0.612-0.092-0.865-0.092h-0.107c-0.565,0.006-1.13,0.012-1.695,0.019   l-1.178,0.012c-0.16,0.001-0.32,0.005-0.479,0.01c-0.31,0.008-0.62,0.015-0.929,0.005c-0.356-0.012-0.71-0.032-1.065-0.051   c-0.692-0.039-1.411-0.079-2.123-0.056c-0.184,0.005-0.37-0.011-0.569-0.027c-0.108-0.01-0.216-0.019-0.325-0.025   c-0.115-0.007-0.229-0.015-0.344-0.021c-0.299-0.02-0.608-0.04-0.917-0.042c-1.076-0.006-2.151-0.006-3.226-0.006l-1.62-0.001   c-0.369,0-0.737,0-1.105-0.003c-0.46-0.003-0.919-0.007-1.379-0.012l-1.055-0.011c-0.196-0.003-0.392-0.006-0.587,0l-0.254,0.008   c-0.293,0.011-0.586,0.021-0.88,0.021c-0.378,0-0.689-0.018-0.98-0.054c-0.372-0.046-0.769-0.067-1.249-0.067   c-0.264,0-0.528,0.005-0.793,0.013c-0.165,0.004-0.33,0.013-0.494,0.021c-0.238,0.011-0.484,0.023-0.723,0.023   c-0.25,0-0.468-0.013-0.666-0.041c-0.587-0.083-1.083-0.042-1.556,0.127c-0.116,0.042-0.273,0.099-0.409,0.211   c-0.105,0.088-0.189,0.181-0.271,0.272c-0.034,0.037-0.067,0.076-0.103,0.112c-0.279,0.289-0.429,0.644-0.444,1.053   c-0.009,0.244-0.01,0.487-0.012,0.73l0,0.096c0,0.101,0.001,0.2,0.004,0.3c0.004,0.192,0.009,0.374-0.01,0.546   c-0.023,0.214-0.06,0.557,0.161,0.87c-0.093,0.147-0.135,0.299-0.159,0.442c-0.206,0.174-0.284,0.393-0.333,0.584   c-0.117,0.456-0.178,0.953-0.187,1.518c-0.003,0.233-0.02,0.466-0.039,0.712l-0.003,0.055c-0.02,0.257-0.043,0.514-0.066,0.771   l-0.012,0.122c-0.002,0.029-0.006,0.06-0.009,0.091c-0.029,0.021-0.045,0.057-0.038,0.094c0.004,0.017,0.014,0.029,0.024,0.041   c-0.004,0.048-0.009,0.096-0.014,0.145c-0.007-0.001-0.016-0.001-0.023-0.001l-0.455-0.01c-0.571-0.014-1.163-0.028-1.758-0.031   c-0.239,0-0.468,0.032-0.691,0.063l-0.086,0.012c-0.267,0.036-0.532,0.079-0.798,0.122l-0.228,0.038   c-0.111,0.017-0.36,0.057-0.5,0.315c-0.021,0.01-0.047,0.02-0.077,0.034c-0.023,0.01-0.075,0.02-0.122,0.027l-0.064,0.012   c-0.174,0.034-0.325,0.108-0.463,0.223c-0.01,0.008-0.047,0.026-0.09,0.03c-0.221,0.024-0.443,0.034-0.678,0.046l-0.138,0.005   c-0.119-0.052-0.246-0.079-0.385-0.079c-0.116,0-0.223,0.019-0.303,0.034c-0.519,0.101-1.037,0.208-1.554,0.316   c-0.197,0.041-0.394,0.085-0.591,0.129c-0.332,0.074-0.675,0.15-1.012,0.214c-0.255,0.047-0.5,0.114-0.738,0.181   c-0.292,0.081-0.567,0.158-0.849,0.195c-0.346,0.046-0.684,0.127-1.01,0.206l-0.204,0.05c-0.469,0.074-0.993,0.319-1.457,0.537   c-0.151,0.072-0.296,0.14-0.429,0.197c-0.053,0.022-0.131,0.033-0.186,0.041c-0.327,0.041-0.588,0.256-0.692,0.559   c-0.003,0.006-0.005,0.013-0.007,0.02c-0.002,0.008-0.006,0.014-0.008,0.022c-0.099,0.341-0.138,0.665-0.12,0.991l0.005,0.098   c0.062,1.101,0.125,2.238,0.176,3.356c0.042,0.901,0.077,1.804,0.112,2.706c0.024,0.605,0.048,1.211,0.074,1.815   c0.073,1.734,0.148,3.468,0.225,5.201c0.042,0.959,0.085,1.915,0.131,2.874l0.01,0.204c0.032,0.665,0.063,1.329,0.104,1.992   c0.059,0.966,0.113,1.757,0.172,2.489c0.045,0.563,0.272,0.846,0.808,0.985c0.007,0.021,0.014,0.04,0.022,0.06l0.181,0.496   c0.178,0.489,0.357,0.978,0.534,1.466c0.04,0.111,0.162,0.446,0.587,0.448c1.638,0.012,3.303,0.027,5.106,0.051   c0.291,0,0.538-0.106,0.736-0.315l0.167-0.176c0.146-0.152,0.291-0.305,0.429-0.464c0.12-0.138,0.175-0.305,0.201-0.42   c0.038-0.172,0.069-0.345,0.101-0.519c0.018-0.096,0.035-0.192,0.054-0.29c0.026-0.133,0.053-0.266,0.081-0.401h0.324   c0.118,0,0.235,0,0.352-0.001c0.456-0.006,0.911-0.012,1.366-0.019c0.87-0.014,1.77-0.026,2.653-0.026h0.253   c0.71,0.002,1.434,0.026,2.134,0.051c0.357,0.011,0.714,0.022,1.07,0.032l0.337,0.009c0.816,0.021,1.632,0.042,2.449,0.058   l0.621,0.011c1.362,0.023,2.771,0.05,4.158,0.059l0.17,0.002c0.163,0,0.327-0.002,0.491-0.004c0.161-0.001,0.323-0.002,0.484-0.002   c0.34,0,0.601,0.007,0.847,0.021l0.231,0.015c0.712,0.043,1.449,0.087,2.177,0.103c0.857,0.021,1.729,0.027,2.57,0.034   c0.382,0.004,0.764,0.007,1.146,0.011l3.915,0.045c0.721,0.009,1.441,0.013,2.162,0.016c1.61,0.008,3.275,0.017,4.909,0.082   c0.279,0.012,0.56-0.005,0.828-0.021c0.182-0.011,0.363-0.022,0.546-0.023c0.682-0.006,1.363-0.008,2.046-0.008l1.955,0.002   c2.075,0.002,4.15,0.003,6.226,0.01c1.097,0.004,2.195,0.013,3.294,0.021l1.684,0.012c0.031,0,0.063,0.004,0.096,0.006   c0.162,0.009,0.312,0.005,0.435-0.039c0.233-0.086,0.472-0.089,0.835-0.007c0.221,0.049,0.487,0.042,0.749,0.02   c0.102-0.008,0.201-0.017,0.3-0.017l1.764-0.003c0.794-0.002,1.586-0.003,2.381-0.003h0.677c2.992,0.004,5.987,0.012,8.98,0.02   l2.071,0.004c0.039,0.197,0.075,0.384,0.102,0.571c0.036,0.265,0.145,0.485,0.329,0.678c0.171,0.179,0.372,0.393,0.564,0.619   c0.181,0.214,0.404,0.313,0.697,0.297c0.146-0.009,0.294-0.017,0.44-0.017h0.072c0.955,0.021,1.909,0.04,2.864,0.061l1.321,0.028   c0.073,0.001,0.147,0.001,0.223,0.003c0.091,0.001,0.181,0.001,0.271,0.004h0.024c0.282,0,0.503-0.162,0.587-0.433   c0.009-0.031,0.021-0.06,0.031-0.089c0.012-0.033,0.023-0.066,0.035-0.098l0.158-0.476c0.158-0.472,0.316-0.943,0.469-1.417   c0.001-0.003,0.002-0.006,0.003-0.01c0.481-0.1,0.764-0.439,0.802-0.978c0.006-0.036,0.013-0.071,0.016-0.11l0.047-0.586   c0.063-0.806,0.123-1.61,0.185-2.416c0.044-0.578,0.087-1.157,0.13-1.736l0.074-1.019c0.038-0.52,0.076-1.038,0.112-1.558   c0.058-0.835,0.113-1.671,0.168-2.508c0.052-0.775,0.102-1.551,0.149-2.327c0.054-0.866,0.107-1.732,0.16-2.598l0.039-0.635   c0.042-0.664,0.083-1.326,0.116-1.99c0.039-0.739,0.07-1.48,0.103-2.221l0.032-0.75c0.008-0.186,0.017-0.371,0.015-0.555   c-0.001-0.119-0.017-0.229-0.04-0.336C94.988,44.53,94.995,44.503,95,44.471z M82.348,41.694c0.349,0.021,0.697,0.037,1.046,0.05   c0.43,0.018,0.88,0.092,1.458,0.24c0.197,0.051,0.392,0.104,0.587,0.155c0.41,0.108,0.834,0.222,1.257,0.319   c0.557,0.132,1.115,0.255,1.675,0.377c0.331,0.073,0.663,0.146,0.994,0.22c0.075,0.018,0.149,0.04,0.224,0.062   c0.092,0.027,0.184,0.055,0.278,0.076c0.019,0.004,0.032,0.008,0.042,0.01l0.193,0.075l0.334,0.072   c0.087,0.058,0.201,0.11,0.35,0.11c0.095,0,0.092,0.06,0.188,0.015l0.084,0.024c0.363,0.094,0.726,0.188,1.09,0.279   c0.198,0.051,0.396,0.099,0.595,0.148c0.138,0.032,0.272,0.067,0.408,0.102c-1.921-0.081-5.019-0.205-6.659,0.012   c-0.027,0.005-0.053,0.012-0.077,0.02c-0.186-0.125-0.366-0.18-0.43-0.197l-5.9-1.898c-0.016-0.147-0.032-0.283-0.049-0.403   C80.805,41.606,81.577,41.652,82.348,41.694z M49.77,50.521c0.001,0.02,0.007,0.389-0.391,0.865   c-0.309,0.368-1.052,0.336-1.316,0.291c-0.767-0.125-9.265-0.385-10.38-0.419c-0.001-1.341,0.854-2.246,0.987-2.376   c7.424-1.427,10.268,0.15,11.029,0.739L49.77,50.521z M31.341,58.724c-1.078,0.093-10.555-0.227-14.603-0.364   c-1.286-0.042-1.857-0.063-1.938-0.063c-0.063,0-0.124,0.009-0.183,0.021c-0.041-0.255-0.094-0.603-0.149-1.002   c0.73,0.028,2.099,0.067,2.42-0.024c0.411-0.117,4.605-0.115,5.61,0.003c0.8,0.095,6.041,0.226,6.265-0.117   c0.361-0.217,6.95,0.058,8.792,0.221c1.542,0.137,6.972,0.325,7.545,0.261c0.228-0.025,0.892-0.002,1.595,0.022   c0.599,0.021,1.086,0.036,1.447,0.036c0.382,0,0.623-0.018,0.707-0.064c0.243-0.133,0.545-0.299,0.665-0.613   c0.018-0.047-0.006-0.099-0.053-0.117c-0.047-0.018-0.099,0.006-0.118,0.054c-0.095,0.251-0.354,0.393-0.593,0.524   c-0.132,0.064-1.24,0.025-2.048-0.002c-0.71-0.024-1.381-0.047-1.622-0.021c-0.516,0.058-5.841-0.114-7.509-0.262   c-0.749-0.067-8.698-0.526-8.939-0.161c-0.284,0.216-4.981,0.191-6.112,0.059c-1.051-0.124-5.246-0.121-5.681,0.004   c-0.28,0.078-1.579,0.047-2.396,0.014c-0.205-1.55-0.415-3.816-0.121-5.158c0.057,0.004,0.111,0.011,0.174,0.011   c0.254,0,0.839-0.024,1.65-0.059c2.289-0.093,7.65-0.315,8.468,0.03c0.049,0.021,0.102,0.03,0.157,0.028   c0.098-0.005,9.833-0.419,12.741-0.003c0.013,0.001,0.027,0.003,0.04,0.003c2.678,0.08,9.766,0.309,10.39,0.411   c0.021,0.004,0.209,0.036,0.473,0.036c0.269,0,0.614-0.036,0.935-0.166c0.232,2.797,0.281,5.799-0.021,6.47   C47.126,58.695,32.765,58.6,31.341,58.724z M20.3,47.79c-1.246,0.45-4.776,1.744-6.077,2.478c-0.058-1.862-0.334-4.578-0.607-5.676   l6.939-2.387C20.425,43.863,20.234,46.629,20.3,47.79z M26.532,48.735c0.01-0.003,1.021-0.18,1.311-0.151c0.001,0,0.004,0,0.005,0   c0.002,0,0.003,0.001,0.003,0.001c0.001,0,0.003,0,0.004,0s0.003-0.001,0.004-0.001c0.002,0,0.004,0,0.006,0   c0.067-0.012,6.723-1.02,10.594,0.253c-0.271,0.292-0.958,1.16-0.96,2.407c-2.91-0.376-11.286-0.049-12.596,0.005   C24.902,51.211,24.873,48.965,26.532,48.735z M40.862,40.16c-0.081,0.593-0.535,4.188-0.164,6.592   c-0.154,0.002-0.278,0.006-0.362,0.008c-1.351-0.313-7.902-0.092-9.905-0.016c-0.421-1.426,0.09-6.29,0.172-7.053   C31.399,39.688,38.354,39.667,40.862,40.16z M50.484,48.129c0.174-0.461,0.353-0.936,0.273-1.285   c-0.047-0.205-0.011-1.01,0.017-1.658c0.032-0.723,0.062-1.405,0.018-1.746c-0.04-0.313-0.026-1.34-0.01-2.375   c1.068-0.109,5.895-0.572,9.56-0.362c0.002,0.001,0.004,0.001,0.005,0.001h0.002c0.001,0,0.003,0,0.004,0   c0.003,0,0.025-0.002,0.056-0.003c0.389,1.413,0.042,5.337-0.063,6.415c-0.246,0.006-0.423,0.01-0.5,0.012   c-3.571-0.561-7.885,0.646-9.409,1.131C50.453,48.213,50.47,48.168,50.484,48.129z M70.349,40.688   c0.108,0.514,0.912,4.587-0.561,6.427c-2.438-0.143-7.397-0.047-9.258-0.004c0.109-1.109,0.446-4.927,0.062-6.422   C61.93,40.609,68.551,40.242,70.349,40.688z M38.633,48.703c-3.631-1.254-9.809-0.439-10.687-0.315   c0.044-0.47,0.516-0.763,0.709-0.862c0.497-0.029,0.934-0.042,1.276-0.033c2.176-0.089,7.548-0.254,9.595-0.104   c-0.217,0.137-0.604,0.494-0.509,1.244C38.889,48.657,38.764,48.678,38.633,48.703z M39.195,48.602   c-0.104-0.866,0.503-1.105,0.53-1.115c0.033-0.012,0.055-0.043,0.058-0.076c0.179,0.019,0.321,0.041,0.416,0.066   c0.035,0.009,0.071,0.016,0.108,0.012c3.158-0.093,8.371,0.202,9.308,1.384c0.005,0.013,0.008,0.026,0.014,0.04   c0.005,0.008,0.012,0.018,0.017,0.025l0.034,0.434C48.749,48.703,45.95,47.401,39.195,48.602z M61.151,48.777   c0.147,0.109,0.936,0.792,0.992,2.762c-0.319-0.032-1.334,0.02-3.328,0.135c-1.424,0.082-2.896,0.169-3.349,0.149   c-0.652-0.027-1.571-0.019-2.542-0.01c-0.484,0.004-0.976,0.009-1.439,0.009c-0.594,0-0.82-0.088-0.893-0.129l-0.096-1.217   c0-0.002,0-0.004,0-0.005v-0.001l-0.053-0.67c0.659-0.35,5.086-2.525,10.557-1.006c0.014,0.003,0.027,0.004,0.041,0   C61.048,48.795,61.086,48.787,61.151,48.777z M62.327,51.554c-0.044-1.749-0.641-2.532-0.939-2.815   c1.558-0.251,8.023-1.184,11.384,0.023c0.013,0.006,0.027,0.006,0.041,0.004c0.008-0.001,0.194-0.021,0.492-0.051   c0.797,0.107,1.37,2.049,1.592,3.097c-1.135-0.112-5.246-0.158-8.584-0.195C64.604,51.597,62.847,51.576,62.327,51.554z    M73.32,48.529l-1.538-0.535c1.07,0.066,2.797,0.188,4.421,0.383C75.14,48.37,73.979,48.465,73.32,48.529z M70.688,47.932   c0.014,0.004,0.029,0.004,0.045,0.006c0.01,0,0.151,0.006,0.387,0.02l1.778,0.615c-0.037,0.005-0.066,0.008-0.085,0.011   c-3.494-1.242-10.229-0.228-11.565-0.007c-0.07-0.256-0.365-0.554-0.574-0.74C62.95,47.786,69.179,47.676,70.688,47.932z    M59.764,47.852c0.023,0.004,0.047,0.006,0.068,0.004c0.013,0,0.221-0.005,0.564-0.013c0.252,0.2,0.598,0.538,0.67,0.765   c-0.013,0.002-0.027,0.004-0.036,0.006c-5.354-1.479-9.724,0.539-10.601,0.99l-0.044-0.563   C51.523,48.668,56.139,47.27,59.764,47.852z M50.07,43.531c0.036,0.279,0.004,0.992-0.024,1.623   c-0.042,0.965-0.063,1.572,0.002,1.854c0.029,0.137-0.149,0.61-0.245,0.865c-0.022,0.057-0.042,0.111-0.062,0.164   c-1.894-1.256-7.011-1.311-8.86-1.288c-0.37-2.347,0.069-5.88,0.157-6.54c0.014,0.005,0.029,0.01,0.045,0.009   c2.718-0.214,7.819,0.328,8.977,0.458c-0.001,0.064-0.002,0.129-0.003,0.194C50.038,42.092,50.021,43.148,50.07,43.531z    M30.245,46.751c-0.142,0.005-0.253,0.01-0.32,0.013c-2.074-0.06-7.413,0.654-8.904,0.861c-0.052-1.408,0.236-5.162,0.366-6.65   l0.025-0.254c0.014-0.145,0.027-0.284,0.041-0.423c1.401-0.239,4.89-0.737,8.968-0.608C30.336,40.454,29.833,45.193,30.245,46.751z    M28.275,47.549c-0.234,0.178-0.489,0.461-0.512,0.852c-0.383,0.002-1.224,0.148-1.26,0.155c-0.088,0.012-0.17,0.03-0.25,0.052   c-0.714-0.428-2.992-0.415-4.38-0.362C23.421,48.04,26.237,47.688,28.275,47.549z M50.762,52.498   c0.204,0.035,0.443,0.053,0.723,0.053c0.466,0,0.959-0.004,1.446-0.009c0.962-0.009,1.871-0.018,2.504,0.009   c0.49,0.021,1.913-0.063,3.422-0.15c1.328-0.076,2.981-0.172,3.212-0.138c0.197,0.033,1.38,0.05,4.234,0.081   c3.303,0.037,7.827,0.088,8.643,0.206c0.363,0.053,1.183,0.071,2.22,0.071c1.283,0,2.901-0.028,4.408-0.055   c1.727-0.029,3.511-0.062,3.721-0.027c0.162,0.047,0.328,0.089,0.482,0.073c0.051,1.35,0.014,3.144-0.195,4.53   c-0.866,0.03-1.927,0.045-2.183-0.026c-0.444-0.123-4.733-0.126-5.809-0.002c-1.159,0.134-5.966,0.157-6.247-0.052   c-0.254-0.373-8.384,0.088-9.148,0.154c-1.707,0.147-7.152,0.318-7.682,0.262c-0.245-0.026-0.932-0.004-1.657,0.021   c-0.828,0.027-1.963,0.066-2.109-0.005c-0.119-0.064-0.246-0.133-0.354-0.218C50.358,56.015,50.508,54.198,50.762,52.498z    M80.374,48.496c-0.036-1.74-0.103-4.118-0.223-5.744l5.62,1.809c0.012,0.004,0.022,0.007,0.033,0.01   c0.002,0,0.192,0.051,0.297,0.18c0.037,0.045,0.086,0.122,0.068,0.271c-0.063,0.537-0.266,4.42-0.358,6.262   C85.009,50.421,83.121,49.117,80.374,48.496z M79.867,49.119c0,0.001,0.001,0.001,0.002,0.001c0.017,0.007,0.032,0.012,0.05,0.017   c0.008,0.002,0.015,0.006,0.022,0.006c0.001,0,0.001,0.002,0.002,0.002c2.916,0.594,4.781,2.029,5.388,2.67   c-0.375-0.029-1.329-0.019-3.769,0.024c-2.525,0.044-5.656,0.099-6.476-0.005c-0.145-0.7-0.605-2.611-1.395-3.154   c1.117-0.098,3.026-0.215,4.052,0.004c0.051,0.01,0.098-0.021,0.107-0.07c0.002-0.001,0-0.002,0-0.003   C78.704,48.753,79.427,48.922,79.867,49.119z M70.786,47.211c-0.196-0.033-0.463-0.06-0.778-0.082   c1.405-1.914,0.674-5.746,0.528-6.434c0.878-0.066,7.115-0.481,8.788,0.94c0.021,0.16,0.043,0.371,0.063,0.623   c0,0.01,0.001,0.019,0.002,0.027c0.112,1.378,0.205,3.927,0.251,5.979C77.184,47.516,71.272,47.232,70.786,47.211z M74.459,33.25   c0.526,0.012,1.053,0.023,1.579,0.032c0.781,0.012,1.494,0.116,2.177,0.318l0.029,0.009c0.094,0.028,0.2,0.061,0.319,0.073   c0.123,0.013,0.169,0.056,0.197,0.183c0.07,0.312,0.142,0.643,0.188,0.969c0.053,0.38,0.092,0.78,0.117,1.187   c0.013,0.21,0.002,0.398-0.029,0.557c-0.085,0.417-0.086,0.857-0.004,1.347c0.162,0.962,0.174,1.964,0.185,2.932l0.001,0.474   c-2.003-1.284-7.77-0.89-8.685-0.819c0.595-3.535-0.115-6.302-0.463-7.361c1.408,0.032,2.816,0.063,4.224,0.095L74.459,33.25z    M60.272,32.968c0.004-0.002,0.016-0.009,0.063-0.009c0.036,0,0.071,0.002,0.106,0.005c0.048,0.003,0.097,0.006,0.145,0.008   c1.281,0.014,2.563,0.028,3.845,0.051c0.824,0.016,1.647,0.035,2.472,0.056c0.457,0.011,0.915,0.022,1.372,0.033   c0.534,0.012,1.069,0.024,1.603,0.035c0.332,0.989,1.081,3.771,0.474,7.354c-1.929-0.45-8.595-0.067-9.812,0.007   c-0.02-0.054-0.04-0.104-0.062-0.149c0.107-1.32-0.241-6.063-0.339-7.337l0.046-0.002L60.272,32.968z M51.416,34.733   c-0.053-0.072-0.129-0.123-0.215-0.141c-0.121-0.188-0.228-0.917-0.236-1.626c0.064-0.08,0.178-0.152,0.423-0.178   c0.189-0.021,0.384-0.023,0.53-0.023c0.086,0,0.173,0.001,0.258,0.002c0.184,0.001,0.395,0.002,0.607,0.014l0.679,0.032   c0.384,0.018,0.768,0.036,1.151,0.045l0.421,0.011c0.651,0.019,1.328,0.036,1.994,0.021c0.291-0.007,0.574,0.009,0.875,0.026   c0.169,0.01,0.336,0.02,0.505,0.025l1.398,0.045c0.014,0.001,0.029,0.004,0.044,0.008c0.021,0.004,0.046,0.009,0.067,0.013   c0.01,0.002,0.024,0.005,0.038,0.007c0.19,2.457,0.468,6.735,0.322,7.503c-3.635-0.202-8.382,0.249-9.493,0.363   c0.015-0.923,0.03-1.876,0.011-2.465c-0.038-1.214,0.663-3.332,0.67-3.353C51.504,34.951,51.484,34.829,51.416,34.733z    M43.421,32.647c0.36,0.021,0.721,0.041,1.082,0.053c0.324,0.011,0.647,0.002,0.972-0.005c0.156-0.004,0.313-0.008,0.469-0.01   l1.177-0.012c0.565-0.005,1.131-0.011,1.696-0.018l0.099-0.001c0.207,0,0.449,0.009,0.689,0.071   c0.196,0.051,0.321,0.087,0.408,0.176c0.072,0.072,0.148,0.122,0.223,0.166c0.012,0.603,0.085,1.646,0.45,2.044   c-0.198,0.645-0.651,2.25-0.618,3.327c0.015,0.492,0.006,1.264-0.006,2.055c-1.196-0.134-6.275-0.67-8.994-0.458   c-0.007,0.001-0.014,0.004-0.02,0.006c-0.39-2.544,0.248-6.267,0.475-7.451C42.156,32.579,42.797,32.612,43.421,32.647z    M33.227,32.469c0.371,0.002,0.741,0.002,1.111,0.003h1.62c1.074,0,2.148,0,3.222,0.006c0.288,0.002,0.586,0.021,0.875,0.04   c0.117,0.008,0.233,0.016,0.351,0.021c0.101,0.006,0.202,0.015,0.302,0.024c0.204,0.018,0.416,0.035,0.631,0.03   c-0.23,1.214-0.842,4.837-0.482,7.38c-2.56-0.489-9.461-0.468-10.252-0.463c-0.334-2.724,0.526-6.152,0.774-7.059l0.468,0.004   C32.307,32.461,32.767,32.466,33.227,32.469z M21.538,39.324l0.004-0.055c0.018-0.246,0.037-0.5,0.041-0.756   c0.008-0.506,0.062-0.947,0.165-1.347c0.035-0.136,0.065-0.182,0.103-0.212c0.138-0.112,0.217-0.239,0.235-0.378   c0.019-0.148,0.044-0.216,0.1-0.271c0.208-0.203,0.12-0.574-0.029-0.732c-0.074-0.078-0.085-0.157-0.059-0.407   c0.023-0.219,0.018-0.433,0.013-0.64c-0.002-0.092-0.004-0.186-0.004-0.277l0-0.097c0.001-0.235,0.003-0.471,0.012-0.707   c0.008-0.228,0.087-0.417,0.24-0.575c0.041-0.043,0.081-0.085,0.12-0.129c0.067-0.076,0.131-0.146,0.195-0.2   c0.037-0.031,0.129-0.063,0.189-0.085c0.359-0.128,0.741-0.158,1.208-0.092c0.232,0.032,0.483,0.048,0.768,0.048   c0.256,0,0.511-0.013,0.758-0.024c0.16-0.009,0.318-0.017,0.478-0.021c0.258-0.006,0.516-0.013,0.773-0.013   c0.45,0,0.818,0.02,1.159,0.063c0.322,0.04,0.662,0.058,1.07,0.058c0.301,0,0.603-0.01,0.904-0.02l0.252-0.009   c0.184-0.005,0.368-0.003,0.552,0l0.403,0.004c-0.266,0.982-1.099,4.366-0.767,7.057c-4.045-0.126-7.513,0.361-8.953,0.604v-0.002   C21.494,39.847,21.519,39.586,21.538,39.324z M20.692,48.424c0.014,0.039,0.05,0.066,0.091,0.062   c0.043-0.003,4.036-0.284,5.231,0.206c-1.237,0.538-1.291,2.293-1.293,2.535c-1.152-0.303-4.87-0.182-8.604-0.027   c-0.771,0.032-1.38,0.056-1.62,0.056c-0.137,0-0.216-0.014-0.258-0.027c0.019-0.057,0.061-0.128,0.093-0.172   C14.711,50.696,17.824,49.451,20.692,48.424z M8.005,43.381l0.25-0.059c0.322-0.078,0.627-0.151,0.935-0.191   c0.333-0.045,0.646-0.132,0.949-0.217c0.232-0.064,0.452-0.125,0.675-0.166c0.349-0.064,0.699-0.143,1.037-0.219   c0.195-0.043,0.389-0.086,0.583-0.127c0.514-0.108,1.028-0.213,1.543-0.314c0.085-0.017,0.2-0.031,0.26-0.001   c0.083,0.04,0.179,0.06,0.288,0.06l0.174-0.007c0.234-0.011,0.477-0.022,0.72-0.048c0.18-0.02,0.356-0.09,0.481-0.197   c0.044-0.037,0.082-0.055,0.136-0.065l0.052-0.01c0.082-0.015,0.184-0.032,0.304-0.085c0.108-0.049,0.283-0.125,0.378-0.29   c0.005,0,0.011-0.001,0.016-0.002l0.216-0.035c0.259-0.042,0.519-0.084,0.778-0.12l0.089-0.012c0.207-0.029,0.402-0.056,0.6-0.056   h0c0.576,0.003,1.164,0.017,1.732,0.031l0.428,0.01c-0.004,0.048-0.009,0.101-0.013,0.158c-0.016,0.003-0.032,0.007-0.047,0.012   l-7.417,2.55c-0.503-0.135-1.921-0.26-6.2-0.223C7.317,43.591,7.699,43.428,8.005,43.381z M14.3,66.467   c-0.034,0.166-0.067,0.325-0.098,0.484c-0.019,0.101-0.037,0.2-0.055,0.3c-0.03,0.164-0.059,0.328-0.095,0.491   c-0.012,0.054-0.032,0.09-0.04,0.099c-0.13,0.15-0.268,0.294-0.406,0.438l-0.171,0.181c-0.061,0.063-0.114,0.087-0.211,0.087l0,0   c-1.759-0.023-3.399-0.04-5.014-0.051c-0.174-0.479-0.349-0.957-0.523-1.437l-0.184-0.502c-0.013-0.033-0.025-0.067-0.038-0.103   c-0.069-0.208-0.22-0.345-0.437-0.394c-0.276-0.064-0.291-0.08-0.312-0.35c-0.058-0.729-0.113-1.517-0.171-2.477   c-0.04-0.661-0.072-1.322-0.103-1.983l-0.01-0.204c-0.045-0.957-0.089-1.913-0.131-2.87c-0.076-1.733-0.152-3.468-0.225-5.2   c-0.025-0.604-0.049-1.209-0.073-1.813c-0.036-0.903-0.072-1.808-0.113-2.711c-0.05-1.122-0.115-2.261-0.176-3.364L5.708,44.99   C5.7,44.83,5.712,44.668,5.742,44.5c3.119-0.042,6.463,0,7.143,0.143c0.225,0.727,0.667,4.42,0.619,6.566   c0,0.01,0.001,0.017,0.002,0.025c-0.01,0.206,0.063,0.354,0.137,0.446c-0.511,2.061,0.143,6.115,0.307,7.058   c-0.061,0.066-0.102,0.12-0.113,0.137l-0.061,0.085l-0.006,0.104c-0.062,1.026-0.313,6.001,0.543,7.345L14.3,66.467z    M31.369,66.132c-0.161,0.001-0.323,0.002-0.484,0.002H30.72c-1.382-0.01-2.789-0.035-4.149-0.06l-0.621-0.012   c-0.814-0.014-1.628-0.035-2.443-0.057l-0.337-0.008c-0.355-0.01-0.71-0.022-1.065-0.034c-0.706-0.022-1.436-0.047-2.156-0.049   l-0.256-0.002c-0.889,0-1.792,0.015-2.664,0.026c-0.454,0.007-0.909,0.015-1.363,0.019c-0.114,0.003-0.229,0.003-0.344,0.003   l-0.44-0.001c-0.491-0.826-0.531-4.318-0.393-6.734c0.087-0.093,0.219-0.199,0.311-0.199c0.071,0,0.884,0.027,1.914,0.063   c6.476,0.218,13.214,0.432,14.563,0.368c-0.016,1.064-0.063,5.379,0.203,6.674C31.443,66.132,31.406,66.132,31.369,66.132z    M42.754,66.357l-3.915-0.046c-0.383-0.005-0.766-0.008-1.149-0.01c-0.839-0.008-1.707-0.015-2.559-0.034   c-0.715-0.017-1.445-0.061-2.15-0.103l-0.232-0.014c-0.26-0.017-0.536-0.023-0.89-0.023c-0.066,0-0.132,0.002-0.197,0.002   c-0.237-1.045-0.231-4.916-0.203-6.685c1.646-0.111,16.119-0.021,17.957,0.021c-0.029,1.086-0.138,5.441-0.036,6.974   c-1.496-0.05-3.005-0.06-4.469-0.066C44.192,66.368,43.473,66.365,42.754,66.357z M66.68,66.455c-0.001,0-0.077,0.002-0.143-0.002   c-0.046-0.004-0.092-0.006-0.138-0.006l-1.683-0.013c-1.1-0.009-2.198-0.018-3.298-0.021c-2.075-0.006-4.151-0.009-6.227-0.01   l-1.956-0.002c-0.685,0-1.368,0.002-2.054,0.008c-0.193,0.002-0.387,0.013-0.582,0.025c-0.263,0.015-0.507,0.029-0.755,0.021   c-0.094-0.005-0.189-0.007-0.284-0.01c-0.101-1.481,0.008-5.903,0.036-6.976c0.776,0.015,3.596,0.003,6.85-0.014   c4.478-0.021,10.61-0.05,11.056,0.009c0.012,0.002,0.032,0.003,0.051,0.005c0.05,1.008,0.235,5.002,0.047,6.898   C67.25,66.324,66.963,66.354,66.68,66.455z M84.702,66.428l-2.091-0.006c-2.993-0.006-5.987-0.014-8.98-0.02h-0.678   c-0.795,0-1.589,0.002-2.383,0.003l-1.762,0.004c-0.12,0-0.239,0.01-0.358,0.02c-0.188,0.016-0.39,0.026-0.532-0.006   c-0.048-0.011-0.091-0.015-0.137-0.022c0.194-1.913,0.01-5.867-0.044-6.919c0.7,0.029,2.749,0.042,6.013,0.062   c3.952,0.022,9.764,0.056,11.057,0.161C84.86,60.823,85.024,64.836,84.702,66.428z M85.011,59.001   c-0.808-0.097-3.348-0.142-11.256-0.187c-3.019-0.018-5.869-0.034-6.156-0.071c-0.457-0.061-4.911-0.045-11.154-0.015   c-2.381,0.011-4.529,0.021-5.81,0.02c-0.131-0.214-0.206-0.657-0.234-1.244c0.09,0.059,0.184,0.109,0.273,0.157   c0.077,0.041,0.309,0.057,0.68,0.057c0.371,0,0.88-0.016,1.51-0.036c0.719-0.024,1.398-0.048,1.631-0.022   c0.588,0.063,6.14-0.124,7.718-0.261c1.885-0.164,8.629-0.438,8.981-0.233c0.242,0.356,5.601,0.225,6.419,0.13   c1.026-0.118,5.318-0.12,5.739-0.003c0.292,0.082,1.425,0.06,2.2,0.034C85.428,58.063,85.254,58.671,85.011,59.001z M91.591,69.035   l-0.003-0.364c0.002,0,0.002,0,0.003,0l0,0V69.035z M94.279,45.414l-0.033,0.752c-0.031,0.738-0.063,1.478-0.102,2.215   c-0.034,0.661-0.074,1.321-0.115,1.982l-0.039,0.636c-0.053,0.864-0.106,1.73-0.16,2.597c-0.05,0.775-0.099,1.55-0.149,2.325   c-0.055,0.835-0.11,1.67-0.167,2.505c-0.037,0.519-0.075,1.035-0.113,1.554l-0.074,1.019c-0.043,0.579-0.085,1.158-0.13,1.735   c-0.061,0.805-0.123,1.609-0.186,2.414l-0.044,0.581l-0.005,0.023c-0.009,0.04-0.016,0.08-0.018,0.121   c-0.015,0.217-0.087,0.268-0.233,0.295c-0.264,0.048-0.443,0.215-0.534,0.496c-0.15,0.472-0.308,0.94-0.465,1.409l-0.16,0.477   c-0.007,0.025-0.018,0.051-0.026,0.076c-0.005,0.014-0.011,0.028-0.015,0.043c-0.071-0.002-0.142-0.002-0.212-0.002   c-0.07-0.001-0.141-0.001-0.212-0.003l-1.319-0.027c-0.956-0.021-1.911-0.042-2.868-0.061l-0.085-0.001   c-0.161,0-0.323,0.009-0.502,0.019c-0.034,0-0.047-0.002-0.08-0.041c-0.205-0.242-0.416-0.466-0.595-0.653   c-0.078-0.081-0.118-0.163-0.133-0.273c-0.03-0.212-0.071-0.421-0.112-0.625c-0.011-0.061-0.023-0.123-0.035-0.185   c0.437-1.635,0.217-6.369,0.169-7.294c0.382-0.467,0.621-1.293,0.771-2.228h0.001c0.051-0.002,0.089-0.045,0.087-0.095   c-0.002-0.037-0.027-0.062-0.063-0.075c0.293-1.999,0.191-4.413,0.169-4.869c0.02-0.382,0.325-6.499,0.401-7.148   c0.016-0.133,0.006-0.258-0.019-0.375c1.688-0.166,4.701-0.041,6.364,0.029c0.416,0.018,0.764,0.031,1.007,0.038   c0.013,0.001,0.023,0.001,0.035,0.001c0.004,0.033,0.013,0.063,0.013,0.099C94.295,45.07,94.287,45.242,94.279,45.414z"></path></g></svg>