<svg xmlns="http://www.w3.org/2000/svg" xmlns:xlink="http://www.w3.org/1999/xlink" version="1.1" x="0px" y="0px" viewBox="0 0 100 100" enable-background="new 0 0 100 100" xml:space="preserve"><path d="M27.166,27.833h40.667c1.381,0,2.5-1.119,2.5-2.5s-1.119-2.5-2.5-2.5H27.166c-1.381,0-2.5,1.119-2.5,2.5  S25.785,27.833,27.166,27.833z"></path><path d="M27.166,19.833h5.745c1.381,0,2.5-1.119,2.5-2.5s-1.119-2.5-2.5-2.5h-5.745c-1.381,0-2.5,1.119-2.5,2.5  S25.785,19.833,27.166,19.833z"></path><path d="M64.961,19.833h2.871c1.381,0,2.5-1.119,2.5-2.5s-1.119-2.5-2.5-2.5h-2.871c-1.381,0-2.5,1.119-2.5,2.5  S63.58,19.833,64.961,19.833z"></path><path d="M85.597,9.064L78.858,4.73c-0.046-0.029-0.096-0.047-0.144-0.073c-0.09-0.05-0.18-0.102-0.276-0.141  c-0.071-0.028-0.144-0.045-0.216-0.066c-0.084-0.025-0.166-0.054-0.253-0.07c-0.092-0.018-0.184-0.021-0.276-0.028  c-0.062-0.005-0.123-0.019-0.188-0.019H18.087c-1.381,0-2.5,1.119-2.5,2.5v80.665c0,0.165,0.017,0.331,0.049,0.495  c0.018,0.087,0.05,0.168,0.076,0.251c0.022,0.072,0.037,0.146,0.067,0.217c0.065,0.156,0.145,0.305,0.238,0.442l4.486,6.66  c0.464,0.69,1.242,1.104,2.073,1.104h61.667c1.381,0,2.5-1.119,2.5-2.5v-83C86.744,10.316,86.312,9.524,85.597,9.064z M75.006,9.333  v68.763c-3.902-7.333-9.896-11.564-13.666-13.647c2.611-3.109,4.191-7.113,4.191-11.482c0-9.861-8.022-17.883-17.883-17.883  s-17.883,8.022-17.883,17.883c0,4.422,1.622,8.466,4.291,11.591c-3.779,2.121-9.633,6.333-13.468,13.535V9.333H75.006z   M47.648,65.85c-2.591,0-5.002-0.775-7.024-2.098c-0.316-0.462-0.772-0.793-1.289-0.961c-2.791-2.364-4.569-5.889-4.569-9.825  c0-7.104,5.779-12.883,12.883-12.883c7.104,0,12.883,5.779,12.883,12.883C60.531,60.07,54.752,65.85,47.648,65.85z M38.119,68.072  c2.762,1.749,6.024,2.777,9.529,2.777c3.559,0,6.87-1.057,9.659-2.855c3.148,1.464,11.839,6.364,15.182,17.007H23.103  C26.39,74.533,34.844,69.625,38.119,68.072z M81.744,91.667H23.908l-1.122-1.666h54.72c1.381,0,2.5-1.119,2.5-2.5V11.413  l1.738,1.118V91.667z"></path></svg>