<svg fill="#000000" xmlns="http://www.w3.org/2000/svg" xmlns:xlink="http://www.w3.org/1999/xlink" version="1.1" x="0px" y="0px" viewBox="0 0 64 64" style="enable-background:new 0 0 64 64;" xml:space="preserve"><path d="M42,40.473V29c0-0.395-0.233-0.753-0.594-0.914l-9-4c-0.259-0.115-0.554-0.115-0.812,0l-9,4C22.233,28.247,22,28.605,22,29  v11.473c0,2.276,5.984,5.626,9.551,7.42C31.692,47.964,31.846,48,32,48s0.308-0.036,0.449-0.106C36.016,46.099,42,42.75,42,40.473z   M24,40.473V29.65l8-3.556l8,3.556v10.789c-0.274,0.88-3.871,3.319-8,5.439C27.844,43.744,24.229,41.29,24,40.473z"/><path d="M30.811,38.698l-3.276-2.07l-1.068,1.69l4,2.527C30.631,40.95,30.816,41,31,41c0.28,0,0.557-0.118,0.753-0.341l7-8  l-1.505-1.317L30.811,38.698z"/><path d="M61,2H3C2.448,2,2,2.448,2,3v50c0,0.552,0.448,1,1,1h12.817l-1.718,3.566c-0.162,0.335-0.124,0.733,0.099,1.032  c0.224,0.299,0.594,0.449,0.961,0.389l5.598-0.904l2.638,3.517c0.19,0.253,0.487,0.4,0.8,0.4c0.042,0,0.084-0.002,0.127-0.008  c0.357-0.045,0.662-0.28,0.798-0.613l3.565-8.709C29.758,52.883,30.865,53,32,53s2.242-0.117,3.315-0.33l3.565,8.709  c0.136,0.333,0.441,0.567,0.798,0.613C39.721,61.998,39.763,62,39.805,62c0.312,0,0.61-0.146,0.8-0.4l2.638-3.517l5.598,0.904  c0.372,0.061,0.738-0.09,0.961-0.389s0.261-0.697,0.099-1.032L48.183,54H61c0.552,0,1-0.448,1-1V3C62,2.448,61.552,2,61,2z   M23.937,58.99l-1.942-2.59c-0.19-0.254-0.488-0.4-0.8-0.4c-0.053,0-0.106,0.004-0.159,0.013l-4.303,0.695l3.898-8.09  c0.048,0.043,0.101,0.079,0.15,0.121c0.338,0.298,0.689,0.581,1.05,0.852c0.1,0.075,0.198,0.151,0.299,0.224  c0.396,0.284,0.805,0.547,1.225,0.797c0.07,0.041,0.137,0.086,0.207,0.126c1,0.575,2.059,1.054,3.173,1.418L23.937,58.99z   M28.31,50.522c-0.987-0.25-1.938-0.602-2.845-1.041c-0.068-0.033-0.138-0.065-0.206-0.099c-0.263-0.132-0.521-0.273-0.775-0.421  c-0.098-0.057-0.194-0.118-0.291-0.177c-0.763-0.466-1.483-1.001-2.155-1.6c-0.111-0.099-0.222-0.197-0.329-0.299  c-0.19-0.18-0.376-0.363-0.557-0.553c-0.074-0.077-0.144-0.158-0.216-0.237c-0.254-0.278-0.5-0.563-0.731-0.857  c-0.067-0.086-0.131-0.175-0.196-0.262c-0.216-0.288-0.425-0.58-0.618-0.88c-0.071-0.11-0.137-0.225-0.205-0.337  c-0.174-0.286-0.344-0.576-0.498-0.872c-0.072-0.139-0.136-0.282-0.204-0.423c-0.135-0.281-0.268-0.562-0.385-0.851  c-0.068-0.168-0.126-0.342-0.188-0.513c-0.099-0.271-0.198-0.542-0.281-0.819c-0.061-0.205-0.108-0.415-0.161-0.623  c-0.064-0.252-0.132-0.503-0.183-0.759c-0.052-0.266-0.086-0.538-0.124-0.809c-0.029-0.206-0.068-0.411-0.088-0.619  C17.027,36.986,17,36.496,17,36c0-8.271,6.729-15,15-15s15,6.729,15,15c0,0.496-0.027,0.986-0.074,1.47  c-0.021,0.208-0.059,0.412-0.088,0.619c-0.038,0.271-0.071,0.543-0.124,0.809c-0.051,0.256-0.119,0.507-0.183,0.759  c-0.052,0.208-0.1,0.418-0.161,0.623c-0.083,0.277-0.182,0.548-0.281,0.819c-0.062,0.171-0.12,0.345-0.188,0.513  c-0.117,0.288-0.25,0.57-0.385,0.851c-0.068,0.141-0.132,0.284-0.204,0.423c-0.154,0.296-0.323,0.586-0.498,0.872  c-0.068,0.112-0.134,0.227-0.205,0.337c-0.194,0.3-0.402,0.593-0.618,0.88c-0.066,0.087-0.129,0.176-0.196,0.262  c-0.231,0.294-0.477,0.578-0.731,0.857c-0.072,0.079-0.142,0.16-0.216,0.237c-0.181,0.19-0.367,0.374-0.557,0.553  c-0.108,0.102-0.219,0.201-0.329,0.299c-0.672,0.599-1.392,1.134-2.155,1.6c-0.097,0.059-0.193,0.12-0.291,0.177  c-0.254,0.148-0.513,0.288-0.775,0.421c-0.068,0.034-0.137,0.066-0.206,0.099c-0.906,0.439-1.857,0.791-2.845,1.041  C34.507,50.823,33.275,51,32,51S29.493,50.823,28.31,50.522z M42.964,56.013c-0.367-0.058-0.736,0.09-0.959,0.387l-1.942,2.59  l-2.798-6.834c1.114-0.364,2.173-0.843,3.173-1.418c0.07-0.04,0.137-0.085,0.207-0.126c0.42-0.249,0.829-0.513,1.225-0.797  c0.101-0.073,0.199-0.149,0.299-0.224c0.361-0.271,0.712-0.554,1.05-0.852c0.048-0.043,0.102-0.078,0.15-0.121l3.898,8.09  L42.964,56.013z M60,52H47.219l-2.362-4.902c0.018-0.02,0.032-0.042,0.05-0.063c0.24-0.28,0.464-0.572,0.686-0.867  c0.097-0.129,0.197-0.257,0.291-0.388c0.192-0.272,0.371-0.551,0.547-0.834c0.106-0.17,0.212-0.339,0.311-0.512  c0.152-0.264,0.294-0.534,0.432-0.807c0.103-0.204,0.202-0.408,0.297-0.616c0.118-0.26,0.23-0.522,0.335-0.788  c0.093-0.234,0.178-0.471,0.26-0.71c0.087-0.253,0.172-0.506,0.247-0.764c0.079-0.269,0.145-0.542,0.21-0.815  c0.057-0.239,0.117-0.476,0.164-0.719c0.063-0.325,0.107-0.654,0.151-0.983c0.026-0.201,0.062-0.398,0.081-0.601  C48.969,37.091,49,36.547,49,36c0-9.374-7.626-17-17-17s-17,7.626-17,17c0,0.547,0.031,1.091,0.083,1.63  c0.019,0.203,0.055,0.4,0.081,0.601c0.044,0.329,0.088,0.658,0.151,0.983c0.047,0.243,0.107,0.48,0.164,0.719  c0.065,0.273,0.131,0.546,0.21,0.815c0.075,0.258,0.16,0.511,0.247,0.764c0.082,0.238,0.167,0.475,0.26,0.71  c0.105,0.266,0.217,0.529,0.335,0.788c0.095,0.207,0.194,0.412,0.297,0.616c0.138,0.273,0.28,0.543,0.432,0.807  c0.099,0.173,0.205,0.342,0.311,0.512c0.176,0.283,0.355,0.563,0.547,0.834c0.093,0.132,0.193,0.259,0.291,0.388  c0.221,0.295,0.446,0.587,0.686,0.867c0.018,0.02,0.032,0.043,0.05,0.063L16.781,52H4V4h56V52z"/><rect x="23" y="14" width="18" height="2"/><rect x="13" y="9" width="38" height="2"/></svg>