<svg xmlns="http://www.w3.org/2000/svg" xmlns:xlink="http://www.w3.org/1999/xlink" version="1.1" x="0px" y="0px" viewBox="0 0 512 512" enable-background="new 0 0 512 512" xml:space="preserve"><g><path d="M256,117.2c18.1,0,32.7-14.7,32.7-32.7S274.1,51.7,256,51.7s-32.7,14.7-32.7,32.7S237.9,117.2,256,117.2z M256,68.1   c9,0,16.4,7.3,16.4,16.4s-7.3,16.4-16.4,16.4s-16.4-7.3-16.4-16.4S247,68.1,256,68.1z"></path><path d="M476.9,460.9v-32.7h-24.5v-40.9H436V190.9h16.4v-40.9h49.1V76.3h-62.2L256,2L74.4,76.3H10.5v73.6h49.1v40.9H76v196.4H59.6   v40.9H35.1v32.7H2.3V510h507.3v-49.1H476.9z M436,428.2h-65.5v-24.5H436V428.2z M157.8,149.9h49.1v40.9h16.4v196.4h-16.4v40.9   h-49.1v-40.9h-16.4V190.9h16.4V149.9z M272.4,387.3h-32.7V190.9h32.7V387.3z M223.3,174.5v-24.5h65.5v24.5H223.3z M223.3,403.6   h65.5v24.5h-65.5V403.6z M288.7,387.3V190.9h16.4v-40.9h49.1v40.9h16.4v196.4h-16.4v40.9h-49.1v-40.9H288.7z M419.7,387.3h-32.7   V190.9h32.7V387.3z M436,174.5h-65.5v-24.5H436V174.5z M26.9,133.6V92.7h50.7l178.4-73l180,73h49.1v40.9H26.9z M76,149.9h65.5v24.5   H76V149.9z M92.3,190.9h32.7v196.4H92.3V190.9z M76,403.6h65.5v24.5H76V403.6z M51.4,444.5h409.2v16.4H51.4V444.5z M493.3,493.6   H18.7v-16.4h474.6V493.6z"></path></g></svg>