<svg xmlns="http://www.w3.org/2000/svg" xmlns:xlink="http://www.w3.org/1999/xlink" version="1.1" id="Layer_1" x="0px" y="0px" width="100px" height="100px" viewBox="0 0 100 100" enable-background="new 0 0 100 100" xml:space="preserve">
<g>
	<path fill="#000000" d="M35.25,90.535l0.09,0.021c0.01-0.07,0.03-0.131,0.05-0.19C35.34,90.415,35.29,90.476,35.25,90.535z"/>
	<path fill="#000000" d="M79.6,10.825c-0.09,0.53-0.55,0.91-1.07,0.91c-0.059,0-0.119,0-0.18-0.01c-0.6-0.1-1-0.67-0.899-1.26   l-1.89-0.32c-0.09,0.53-0.551,0.91-1.08,0.91c-0.061,0-0.121-0.01-0.181-0.02c-0.59-0.1-0.989-0.66-0.89-1.26l-1.891-0.32   c-0.09,0.54-0.56,0.92-1.08,0.92c-0.06,0-0.119-0.01-0.18-0.02c-0.59-0.1-1-0.67-0.89-1.26l-1.89-0.32   c-0.48,2.82-2.59,4.95-5.19,5.59v-4.55h-1.17c0,0.6-0.49,1.09-1.091,1.09c-0.6,0-1.09-0.49-1.09-1.09h-1.91   c0,0.6-0.5,1.09-1.09,1.09c-0.609,0-1.1-0.49-1.1-1.09H54c-0.35-1.05-0.46-2.2-0.26-3.37l-1.881-0.32   c-0.09,0.54-0.56,0.92-1.08,0.92c-0.059,0-0.119-0.01-0.18-0.02c-0.6-0.1-1-0.67-0.899-1.26l-1.88-0.32   c-0.09,0.53-0.561,0.91-1.08,0.91c-0.06,0-0.12,0-0.18-0.01c-0.6-0.11-1-0.67-0.9-1.27l-1.88-0.32c-0.09,0.54-0.55,0.92-1.08,0.92   c-0.06,0-0.12-0.01-0.19-0.02c-0.59-0.1-0.99-0.67-0.89-1.26l-1.21-0.21l-1.98,11.7c-2.11-1.19-3.54-3.47-3.54-6.07h-1.91   c0,0.6-0.48,1.09-1.09,1.09c-0.61,0-1.09-0.49-1.09-1.09h-1.91c0,0.6-0.49,1.09-1.1,1.09c-0.6,0-1.09-0.49-1.09-1.09h-1.91   c0,0.6-0.49,1.09-1.1,1.09c-0.6,0-1.09-0.49-1.09-1.09h-1.23v86h1.23c0-0.6,0.49-1.09,1.09-1.09c0.61,0,1.1,0.479,1.1,1.09h1.91   c0-0.61,0.49-1.09,1.09-1.09c0.61,0,1.1,0.479,1.1,1.09h1.91c0-0.61,0.48-1.09,1.09-1.09c0.61,0,1.09,0.479,1.09,1.09h1.91   c0-2.18,1-4.131,2.57-5.41c0.05,0.16,0.07,0.34,0.04,0.52l1.88,0.311c0.13-0.78,0.39-1.51,0.76-2.17   c0.55-0.15,1.13-0.221,1.72-0.221c3.85,0,6.97,3.121,6.97,6.971h1.91c0-0.6,0.49-1.09,1.1-1.09c0.6,0,1.09,0.479,1.09,1.09h1.91   c0-0.6,0.49-1.09,1.1-1.09c0.59,0,1.09,0.479,1.09,1.09h1.91c0-0.6,0.49-1.09,1.09-1.09c0.601,0,1.091,0.479,1.091,1.09h1.17v-0.7   l0.8,0.14c0.09-0.529,0.551-0.91,1.08-0.91c0.061,0,0.12,0.01,0.18,0.021c0.59,0.101,1,0.66,0.9,1.25l1.141,0.2l14.359-84.8   L79.6,10.825z M55.939,12.405c0.83,0,1.57-0.39,2.041-1c0.479,0.61,1.22,1,2.049,1c0.271,0,0.521-0.04,0.761-0.11v2.27   c-0.06,0.01-0.11,0.01-0.17,0.01c-0.39,0-0.78-0.03-1.17-0.1c-1.57-0.26-2.921-1.03-3.921-2.11   C55.66,12.395,55.8,12.405,55.939,12.405z M35.34,90.556l-0.09-0.021c-0.78,0.97-1.34,2.11-1.63,3.351   c-0.46-0.41-1.07-0.66-1.73-0.66c-0.83,0-1.57,0.39-2.05,1c-0.47-0.61-1.22-1-2.05-1s-1.57,0.39-2.05,1c-0.47-0.61-1.21-1-2.05-1   c-0.28,0-0.56,0.039-0.82,0.129V12.275c0.26,0.09,0.54,0.13,0.82,0.13c0.84,0,1.58-0.39,2.05-1c0.48,0.61,1.22,1,2.05,1   s1.58-0.39,2.05-1c0.48,0.61,1.22,1,2.05,1c0.66,0,1.27-0.25,1.73-0.66c0.58,2.5,2.28,4.59,4.55,5.69l-12.12,71.55l1.21,0.199   c0.09-0.529,0.55-0.909,1.08-0.909c0.06,0,0.12,0.01,0.18,0.021c0.6,0.1,1,0.659,0.9,1.26l1.88,0.319   c0.09-0.54,0.55-0.909,1.08-0.909c0.06,0,0.12,0,0.18,0.01c0.6,0.109,1,0.67,0.9,1.26l1.79,0.3c0.04-0.06,0.09-0.12,0.14-0.17   C35.37,90.425,35.35,90.485,35.34,90.556z M53.88,94.226c-0.21-0.271-0.46-0.49-0.76-0.66c-0.37-0.221-0.81-0.34-1.28-0.34   c-0.67,0-1.27,0.25-1.73,0.66c-0.879-3.74-4.239-6.541-8.25-6.541c-0.14,0-0.28,0-0.41,0.021c1.27-1.21,2.97-1.931,4.79-1.931   c0.39,0,0.78,0.031,1.18,0.101c3.79,0.64,6.34,4.229,5.7,8.03l1.229,0.21C54.17,93.896,54.02,94.056,53.88,94.226z"/>
</g>
</svg>
