<svg fill="#000000" xmlns="http://www.w3.org/2000/svg" xmlns:xlink="http://www.w3.org/1999/xlink" version="1.1" x="0px" y="0px" viewBox="0 0 48 48" enable-background="new 0 0 48 48" xml:space="preserve"><g><path d="M47.7,39.7l-4-4c-2.3-2.3-3.8-5.3-4.2-8.4c-0.2-1.6-1.1-3-2.4-4c-1.9-1.4-4.7-1.5-6.7-0.2c-0.2-1.3-0.8-2.6-1.8-3.6   c-1-1-2.2-1.6-3.6-1.8c1.3-2,1.2-4.7-0.2-6.7c-1-1.3-2.4-2.2-4-2.4c-3.1-0.4-6.1-1.9-8.4-4.2l-4-4c-0.4-0.4-1-0.4-1.4,0L0.3,6.9   C0.1,7,0,7.3,0,7.6c0,0.3,0.1,0.5,0.3,0.7l4,4c2.3,2.3,3.8,5.3,4.2,8.4c0.2,1.6,1.1,3,2.4,4c1,0.7,2.3,1.1,3.5,1.1h0   c1.1,0,2.2-0.3,3.2-0.9c0.2,1.3,0.8,2.6,1.8,3.6c1,1,2.2,1.6,3.6,1.8c-1.3,2-1.2,4.7,0.2,6.7c1,1.3,2.4,2.2,4,2.4   c3.1,0.4,6.1,1.9,8.4,4.2l4,4c0.2,0.2,0.4,0.3,0.7,0.3s0.5-0.1,0.7-0.3l6.6-6.6C48.1,40.8,48.1,40.1,47.7,39.7z M17.9,21.9   c-0.3,0.5-0.7,0.9-1.1,1.3c-1.3,1-3.3,1-4.7,0c-0.9-0.7-1.5-1.6-1.6-2.7c-0.5-3.6-2.2-6.9-4.8-9.6L2.4,7.6l5.1-5.1l3.3,3.3   c2.6,2.6,6,4.3,9.6,4.8c1.1,0.1,2,0.7,2.7,1.6c1,1.4,1,3.3,0,4.7c-0.3,0.5-0.8,0.9-1.2,1.1C21,18.2,18.8,19.3,17.9,21.9z    M20.9,27.1c-2.3-2.4-0.9-4.9-0.8-5c2.6-4.4,6.3-2.1,7.1-1.3c2.3,2.5,0.9,4.9,0.8,5C27.6,26.8,24.6,30.4,20.9,27.1z M40.4,45.6   l-3.3-3.3c-2.6-2.6-6-4.3-9.6-4.8c-1.1-0.1-2-0.7-2.7-1.6c-1-1.4-1-3.3,0-4.7c0.3-0.5,0.8-0.9,1.2-1.1c3.3-1.6,3.6-3.1,4-3.9   c0.3-0.5,0.7-0.9,1.1-1.3c0.7-0.5,2.5-1.4,4.7,0c0.9,0.7,1.5,1.6,1.6,2.7c0.5,3.6,2.2,6.9,4.8,9.6l3.3,3.3L40.4,45.6z"/></g></svg>