<svg xmlns="http://www.w3.org/2000/svg" xmlns:xlink="http://www.w3.org/1999/xlink" version="1.1" x="0px" y="0px" viewBox="0 0 100 100" enable-background="new 0 0 100 100" xml:space="preserve"><g><g><path d="M63.959,69.583c-0.078-0.073-0.151-0.141-0.215-0.204c-0.454-0.442-0.775-0.891-1.004-1.295h0.136    c0.393,0,0.712-0.319,0.712-0.712c0-0.224-0.106-0.421-0.267-0.551c0.161-0.131,0.267-0.328,0.267-0.551    c0-0.393-0.319-0.712-0.712-0.712h-0.249v-22.05c0-0.472-0.383-0.854-0.854-0.854c-0.471,0-0.854,0.382-0.854,0.854v22.05H60.67    c-0.393,0-0.712,0.319-0.712,0.712c0,0.224,0.105,0.421,0.267,0.551c-0.162,0.13-0.267,0.328-0.267,0.551    c0,0.393,0.319,0.712,0.712,0.712h0.139c-0.229,0.403-0.55,0.851-1.007,1.295c-0.065,0.063-0.137,0.131-0.215,0.204    c-0.985,0.919-3.035,2.832-2.76,7.67c0.2,3.527,1.711,5.69,2.614,6.983c0.324,0.464,0.659,0.944,0.659,1.142v1.708    c0,0.246,0.163,0.818,1.672,0.818s1.673-0.572,1.673-0.818v-1.708c0-0.197,0.335-0.677,0.659-1.142    c0.903-1.293,2.414-3.456,2.614-6.983C66.994,72.415,64.944,70.503,63.959,69.583z"></path><path d="M53.199,81.056c0-0.257-0.087-0.489-0.227-0.651c-0.143-0.161-0.341-0.25-0.551-0.242c0.418-0.009,0.757-0.44,0.707-0.928    c-0.038-0.496-0.437-0.831-0.853-0.778c0.422-0.052,0.713-0.481,0.639-0.946c-0.075-0.464-0.481-0.766-0.896-0.689    c0.418-0.077,0.683-0.502,0.594-0.948c-0.093-0.439-0.504-0.719-0.917-0.624c0.413-0.09,0.67-0.516,0.572-0.941    c-0.099-0.424-0.513-0.684-0.924-0.585c0.412-0.095,0.664-0.518,0.567-0.926c-0.099-0.411-0.508-0.659-0.92-0.563    c0.412-0.096,0.666-0.506,0.577-0.903c-0.093-0.4-0.493-0.644-0.908-0.558c0.413-0.09,0.678-0.483,0.602-0.87    c-0.08-0.389-0.468-0.637-0.887-0.565c0.414-0.077,0.697-0.449,0.638-0.826c-0.058-0.377-0.434-0.636-0.856-0.586    c0.418-0.044,0.72-0.423,0.671-0.84c-0.048-0.417-0.428-0.715-0.848-0.666c0.42-0.049,0.721-0.427,0.673-0.843    c-0.048-0.417-0.428-0.717-0.849-0.67c0.419-0.047,0.724-0.424,0.68-0.842c-0.044-0.418-0.421-0.721-0.842-0.676    c0.42-0.045,0.725-0.421,0.681-0.839c-0.044-0.418-0.422-0.722-0.842-0.679c0.422-0.043,0.724-0.417,0.684-0.836    c-0.04-0.419-0.415-0.725-0.836-0.684c0.421-0.042,0.729-0.415,0.688-0.834c-0.041-0.419-0.415-0.726-0.836-0.686    c0.421-0.04,0.73-0.412,0.688-0.831c-0.04-0.419-0.409-0.728-0.831-0.689c0.421-0.038,0.732-0.41,0.695-0.829    c-0.037-0.419-0.408-0.729-0.829-0.692c0.421-0.037,0.733-0.407,0.696-0.826c-0.037-0.419-0.409-0.73-0.83-0.695    c0.421-0.036,0.736-0.404,0.704-0.822c-0.033-0.419-0.401-0.732-0.823-0.699c0.422-0.033,0.737-0.4,0.704-0.818    c-0.033-0.418-0.401-0.733-0.823-0.702c0.424-0.031,0.734-0.397,0.709-0.814c-0.027-0.417-0.391-0.733-0.813-0.705    c0.422-0.029,0.742-0.391,0.714-0.808c-0.027-0.418-0.392-0.735-0.814-0.71c0.422-0.026,0.741-0.386,0.716-0.802    c-0.02-0.415-0.378-0.734-0.801-0.712c0.422-0.022,0.749-0.376,0.729-0.791c-0.02-0.414-0.379-0.737-0.801-0.72    c0.424-0.016,0.744-0.371,0.734-0.779c-0.008-0.406-0.358-0.727-0.78-0.719c0.423-0.01,0.759-0.348,0.75-0.753    c-0.008-0.405-0.358-0.735-0.781-0.736h-4.1c-0.423-0.001-0.758,0.357-0.75,0.799c0.009,0.442,0.359,0.792,0.782,0.782    c-0.423,0.009-0.758,0.374-0.749,0.816c0.012,0.44,0.377,0.771,0.798,0.755c-0.422,0.017-0.748,0.381-0.728,0.813    c0.021,0.432,0.38,0.765,0.802,0.743c-0.423,0.021-0.748,0.389-0.727,0.822c0.026,0.429,0.392,0.755,0.814,0.729    c-0.422,0.025-0.741,0.393-0.713,0.822c0.028,0.428,0.393,0.752,0.815,0.724c-0.422,0.028-0.741,0.399-0.713,0.827    c0.026,0.429,0.4,0.748,0.82,0.717c-0.422,0.03-0.737,0.401-0.704,0.828c0.033,0.426,0.402,0.746,0.824,0.712    c-0.422,0.033-0.736,0.405-0.703,0.832c0.033,0.426,0.402,0.744,0.823,0.708c-0.422,0.035-0.733,0.408-0.695,0.834    c0.037,0.425,0.409,0.74,0.83,0.703c-0.421,0.037-0.732,0.412-0.695,0.837c0.038,0.426,0.409,0.739,0.83,0.701    c-0.42,0.038-0.734,0.415-0.693,0.84c0.041,0.425,0.416,0.737,0.837,0.697c-0.421,0.04-0.729,0.417-0.688,0.842    c0.041,0.425,0.416,0.736,0.837,0.694c-0.421,0.041-0.729,0.42-0.687,0.845c0.04,0.425,0.42,0.734,0.84,0.691    c-0.421,0.043-0.725,0.423-0.68,0.847c0.045,0.425,0.422,0.733,0.843,0.688c-0.42,0.045-0.725,0.426-0.68,0.851    c0.045,0.425,0.422,0.731,0.844,0.684c-0.42,0.046-0.721,0.429-0.672,0.855c0.049,0.425,0.43,0.73,0.85,0.681    c-0.42,0.049-0.721,0.434-0.671,0.859c0.049,0.424,0.43,0.729,0.852,0.684c-0.418,0.05-0.713,0.473-0.641,0.934    c0.072,0.46,0.473,0.766,0.892,0.688c-0.416,0.071-0.691,0.502-0.601,0.943c0.088,0.444,0.5,0.723,0.913,0.633    c-0.413,0.086-0.674,0.516-0.576,0.941c0.097,0.43,0.511,0.689,0.923,0.593c-0.412,0.096-0.666,0.518-0.567,0.931    c0.099,0.416,0.51,0.663,0.922,0.567c-0.411,0.099-0.666,0.509-0.573,0.91c0.093,0.401,0.497,0.646,0.912,0.557    c-0.411,0.094-0.678,0.486-0.595,0.876c0.076,0.385,0.476,0.635,0.89,0.558c-0.417,0.078-0.695,0.452-0.635,0.824    c0.059,0.372,0.437,0.625,0.855,0.574c-0.422,0.054-0.715,0.399-0.69,0.749c0.038,0.356,0.378,0.614,0.806,0.604    c-0.212,0.008-0.397,0.091-0.533,0.207c-0.138,0.116-0.224,0.267-0.223,0.434c-0.013,0.321,0.318,0.609,0.735,0.646    c-0.428-0.032-0.779,0.203-0.83,0.493c-0.039,0.297,0.227,0.599,0.64,0.707c-0.206-0.049-0.407-0.031-0.561,0.03    c-0.163,0.057-0.284,0.154-0.324,0.29c-0.097,0.256,0.139,0.608,0.516,0.783c-0.194-0.085-0.397-0.107-0.563-0.081    c-0.169,0.025-0.289,0.103-0.366,0.221c-0.129,0.24,0.016,0.622,0.36,0.867c-0.354-0.234-0.757-0.233-0.947-0.014    c-0.087,0.117-0.115,0.273-0.086,0.44c0.032,0.168,0.124,0.35,0.276,0.497c-0.153-0.147-0.336-0.23-0.503-0.253    c-0.177-0.027-0.34,0.007-0.455,0.114c-0.227,0.213-0.239,0.64,0.025,0.978c-0.131-0.166-0.305-0.272-0.473-0.313    c-0.173-0.045-0.347-0.029-0.48,0.068c-0.265,0.188-0.315,0.61-0.097,0.978c-0.222-0.353-0.628-0.522-0.902-0.368    c-0.28,0.133-0.372,0.561-0.21,0.945c-0.174-0.392-0.541-0.595-0.825-0.502c-0.282,0.104-0.433,0.488-0.331,0.901    C42.112,88.19,42,88.022,41.87,87.914c-0.132-0.114-0.28-0.173-0.426-0.142c-0.286,0.045-0.491,0.417-0.458,0.834    c-0.02-0.21-0.103-0.397-0.211-0.528c-0.054-0.065-0.116-0.117-0.181-0.15c-0.065-0.039-0.135-0.06-0.208-0.059    c-0.145,0.006-0.278,0.085-0.383,0.216c-0.105,0.134-0.184,0.322-0.201,0.532c0.025-0.419-0.182-0.785-0.461-0.828    c-0.28-0.043-0.59,0.224-0.702,0.634c0.052-0.206,0.036-0.404-0.02-0.563c-0.056-0.165-0.155-0.283-0.292-0.327    c-0.134-0.054-0.288-0.017-0.434,0.073c-0.143,0.086-0.28,0.235-0.368,0.427c0.167-0.387,0.092-0.795-0.158-0.933    c-0.247-0.142-0.639,0.014-0.878,0.357c0.232-0.357,0.222-0.767-0.001-0.95c-0.223-0.182-0.636-0.094-0.929,0.206    c0.145-0.153,0.231-0.339,0.258-0.507c0.024-0.166-0.005-0.321-0.101-0.433c-0.196-0.212-0.608-0.204-0.954,0.05    c0.336-0.262,0.462-0.658,0.309-0.904c-0.161-0.242-0.565-0.303-0.947-0.109c0.368-0.2,0.565-0.575,0.448-0.841    c-0.052-0.139-0.188-0.23-0.35-0.28c-0.161-0.049-0.364-0.051-0.565,0.015c0.201-0.067,0.362-0.19,0.462-0.325    c0.101-0.136,0.161-0.278,0.124-0.412c-0.064-0.289-0.449-0.512-0.869-0.442c0.416-0.072,0.715-0.411,0.666-0.762    c-0.037-0.369-0.411-0.641-0.832-0.606c0.421-0.038,0.74-0.381,0.712-0.763c-0.022-0.389-0.377-0.696-0.801-0.679    c0.421-0.018,0.75-0.353,0.741-0.754c-0.013-0.397-0.356-0.724-0.779-0.719c0.424-0.007,0.76-0.337,0.76-0.743    c0.002-0.407-0.339-0.741-0.762-0.746c0.422,0.004,0.77-0.325,0.777-0.735c0.006-0.409-0.324-0.753-0.748-0.765    c0.423,0.011,0.774-0.313,0.787-0.725c0.016-0.413-0.313-0.762-0.736-0.78c0.422,0.017,0.778-0.304,0.799-0.718    c0.019-0.414-0.305-0.769-0.727-0.791c0.423,0.022,0.783-0.297,0.806-0.711c0.025-0.415-0.295-0.774-0.718-0.801    c0.423,0.026,0.783-0.289,0.813-0.705c0.029-0.416-0.29-0.778-0.712-0.809c0.422,0.03,0.789-0.283,0.82-0.699    c0.031-0.416-0.282-0.782-0.704-0.816c0.422,0.033,0.789-0.277,0.824-0.694c0.035-0.416-0.277-0.784-0.699-0.821    c0.421,0.036,0.793-0.272,0.83-0.689c0.037-0.417-0.271-0.787-0.693-0.827c0.421,0.039,0.793-0.267,0.834-0.684    c0.04-0.417-0.267-0.789-0.688-0.832c0.421,0.042,0.796-0.262,0.839-0.678c0.043-0.417-0.262-0.791-0.682-0.836    c0.421,0.044,0.797-0.258,0.843-0.673c0.045-0.416-0.257-0.791-0.677-0.839c0.42,0.047,0.799-0.251,0.847-0.665    c0.048-0.414-0.251-0.788-0.671-0.836l-1.184-0.148c0.184-0.919,1.964-10.014,1.895-16.306c-0.005-0.472-0.402-0.853-0.863-0.845    c-0.472,0.005-0.85,0.392-0.845,0.863c0.069,6.31-1.854,15.916-1.874,16.012c-0.004,0.021-0.003,0.042-0.006,0.064l-1.19-0.149    c-0.42-0.047-0.804,0.261-0.854,0.689c-0.05,0.428,0.252,0.813,0.672,0.86c-0.42-0.048-0.8,0.26-0.847,0.686    c-0.047,0.427,0.258,0.809,0.678,0.853c-0.42-0.045-0.798,0.264-0.842,0.691c-0.044,0.427,0.263,0.807,0.684,0.849    c-0.421-0.042-0.797,0.27-0.838,0.697c-0.042,0.427,0.268,0.805,0.689,0.845c-0.421-0.04-0.796,0.274-0.834,0.702    c-0.038,0.428,0.272,0.804,0.694,0.84c-0.421-0.037-0.792,0.28-0.828,0.709c-0.036,0.428,0.279,0.803,0.7,0.836    c-0.421-0.034-0.793,0.286-0.824,0.715c-0.032,0.429,0.284,0.801,0.706,0.832c-0.422-0.031-0.788,0.293-0.818,0.723    c-0.03,0.43,0.292,0.801,0.713,0.827c-0.422-0.027-0.787,0.3-0.812,0.732c-0.024,0.431,0.299,0.799,0.721,0.822    c-0.423-0.023-0.784,0.309-0.804,0.742c-0.021,0.433,0.307,0.798,0.73,0.816c-0.422-0.018-0.779,0.319-0.795,0.754    c-0.014,0.435,0.319,0.798,0.742,0.809c-0.422-0.012-0.778,0.331-0.784,0.769c-0.008,0.438,0.329,0.797,0.753,0.801    c-0.423-0.005-0.767,0.348-0.77,0.789c0,0.442,0.35,0.799,0.771,0.792c-0.422,0.005-0.765,0.366-0.75,0.816    c0.01,0.447,0.368,0.799,0.792,0.781c-0.422,0.017-0.75,0.397-0.724,0.855c0.033,0.463,0.403,0.806,0.824,0.768    c-0.421,0.034-0.725,0.447-0.675,0.921c0.066,0.49,0.463,0.83,0.88,0.758c-0.414,0.069-0.69,0.525-0.568,1.063    c0.071,0.275,0.216,0.509,0.401,0.637c0.188,0.128,0.403,0.169,0.603,0.102c-0.405,0.128-0.594,0.66-0.378,1.173    c0.221,0.511,0.73,0.749,1.105,0.545c-0.373,0.188-0.483,0.751-0.179,1.219c0.297,0.472,0.846,0.619,1.177,0.362    c-0.336,0.245-0.35,0.817,0.025,1.231c0.182,0.208,0.418,0.331,0.644,0.355c0.224,0.027,0.432-0.037,0.578-0.191    c-0.298,0.304-0.207,0.861,0.228,1.213c0.435,0.353,1.007,0.311,1.236-0.041c-0.244,0.35-0.061,0.885,0.428,1.162    c0.493,0.272,1.047,0.141,1.215-0.249c-0.087,0.193-0.068,0.412,0.042,0.612c0.112,0.196,0.318,0.365,0.58,0.463    c0.264,0.089,0.534,0.08,0.742-0.001c0.211-0.085,0.364-0.248,0.415-0.452c-0.11,0.405,0.241,0.861,0.8,0.95    c0.558,0.088,1.036-0.215,1.062-0.641c-0.017,0.21,0.076,0.408,0.248,0.556c0.172,0.15,0.423,0.247,0.701,0.239    c0.139-0.001,0.272-0.025,0.39-0.066c0.118-0.047,0.222-0.11,0.306-0.186c0.169-0.152,0.258-0.351,0.237-0.561    c0.034,0.426,0.513,0.72,1.063,0.629c0.27-0.054,0.498-0.187,0.638-0.36c0.138-0.18,0.192-0.392,0.138-0.597    c0.1,0.408,0.621,0.638,1.137,0.454c0.519-0.175,0.776-0.675,0.606-1.055c0.166,0.395,0.695,0.527,1.177,0.289    c0.468-0.255,0.661-0.761,0.433-1.125c0.212,0.361,0.76,0.44,1.187,0.139c0.21-0.15,0.351-0.356,0.401-0.565    c0.047-0.215,0.008-0.43-0.124-0.595c0.256,0.328,0.805,0.354,1.2-0.009c0.196-0.181,0.314-0.408,0.341-0.623    c0.023-0.225-0.043-0.435-0.195-0.581c0.152,0.147,0.362,0.203,0.584,0.169c0.223-0.032,0.454-0.157,0.626-0.378    c0.36-0.426,0.326-1.007-0.025-1.24c0.345,0.245,0.894,0.071,1.172-0.434c0.147-0.243,0.176-0.52,0.131-0.743    c-0.046-0.225-0.175-0.401-0.368-0.487c0.389,0.181,0.88-0.108,1.072-0.647c0.085-0.269,0.077-0.539-0.006-0.748    c-0.092-0.21-0.254-0.359-0.46-0.408c0.405,0.106,0.86-0.255,0.938-0.799c0.091-0.545-0.232-1-0.647-1.031    C52.816,81.98,53.183,81.582,53.199,81.056z"></path></g><path d="M67.016,6.5H32.761c-0.629,0-1.139,0.51-1.139,1.139v34.73c0,0.629,0.51,1.139,1.139,1.139h34.255   c0.629,0,1.139-0.51,1.139-1.139V7.639C68.155,7.01,67.645,6.5,67.016,6.5z M49.889,39c-7.73,0-13.996-6.267-13.996-13.996   c0-7.73,6.266-13.997,13.996-13.997s13.996,6.266,13.996,13.997C63.885,32.734,57.618,39,49.889,39z"></path><path d="M51.668,25.004c0-0.983-0.797-1.779-1.779-1.779c-0.982,0-1.779,0.797-1.779,1.779c0,0.703,0.409,1.31,1.002,1.598   c0.001,0.117,0.002,0.236,0.003,0.362c0.007,0.588,0.003,1.275,0.022,2.01c0.02,0.736,0.031,1.52,0.061,2.304   c0.034,0.785,0.056,1.569,0.102,2.304c0.037,0.735,0.083,1.422,0.127,2.01c0.044,0.588,0.087,1.078,0.121,1.422   c0.036,0.343,0.056,0.539,0.056,0.539c0.014,0.132,0.118,0.241,0.255,0.255c0.157,0.016,0.298-0.098,0.314-0.255   c0,0,0.021-0.196,0.056-0.539c0.034-0.343,0.077-0.833,0.121-1.422c0.044-0.588,0.09-1.275,0.127-2.01   c0.046-0.735,0.068-1.52,0.102-2.304c0.03-0.784,0.041-1.568,0.061-2.304c0.019-0.735,0.015-1.421,0.022-2.01   c0.001-0.126,0.002-0.245,0.003-0.362C51.258,26.313,51.668,25.707,51.668,25.004z"></path></g></svg>