<svg xmlns="http://www.w3.org/2000/svg" xmlns:xlink="http://www.w3.org/1999/xlink" version="1.1" id="Layer_1" x="0px" y="0px" width="100px" height="100px" viewBox="0 0 100 100" enable-background="new 0 0 100 100" xml:space="preserve">
<path d="M97.559,39.094c-0.897-1.451-3.016-2.283-5.814-2.283H75.806c-2.501,0-5.527,0.948-8.049,2.377  c-3.857-6.77-8.972-12.734-13.787-15.032l2.862-1.908l-1.664-2.496L51.5,22.197V18h-3v4.197l-3.668-2.445l-1.664,2.496l2.862,1.908  c-4.815,2.298-9.93,8.262-13.787,15.032c-2.522-1.428-5.548-2.377-8.049-2.377H8.256c-2.798,0-4.917,0.832-5.814,2.283  c-0.552,0.894-0.588,1.969-0.097,2.95c0.939,1.878,3.064,3.875,5.153,3.875c0.472,0,1.756,0.834,2.437,2.197  c1.087,2.173,3.683,3.875,5.912,3.875c1.098,0,2.621,1.047,3.196,2.197c1.024,2.048,4.053,3.323,6.977,3.728  c-0.003,0.145-0.014,0.296-0.014,0.439c0,6.46,2.57,12.327,6.736,16.645l-1.833,2.5H24v3h4.707l-1.916,2.613l2.419,1.773  l2.323-3.168l2.088,4.872l2.758-1.182l-2.786-6.5l1.372-1.872c4.117,3.32,9.346,5.313,15.034,5.313  c5.688,0,10.917-1.993,15.034-5.313l1.373,1.872l-2.786,6.5l2.758,1.182l2.088-4.872l2.323,3.168l2.419-1.773L71.293,80.5H76v-3  h-6.907L67.26,75c4.166-4.318,6.736-10.185,6.736-16.645c0-0.143-0.011-0.293-0.014-0.439c2.924-0.406,5.953-1.68,6.977-3.728  c0.575-1.15,2.098-2.197,3.196-2.197c2.228,0,4.825-1.702,5.912-3.875c0.681-1.363,1.965-2.197,2.437-2.197  c2.088,0,4.213-1.997,5.153-3.875C98.146,41.063,98.111,39.988,97.559,39.094z M21.757,52.83c-0.145-0.29-0.32-0.569-0.514-0.839  c0,0,2.84,0,3.236,0c0.396,0,0.082-0.313,0.082-0.313l-3.403-2.723h-5.313c-1.098,0-2.621-1.047-3.196-2.197  c-0.14-0.28-0.309-0.561-0.497-0.839h13.015c0,0,0.375-0.169-0.084-0.544c-0.458-0.375-3.166-2.492-3.166-2.492H7.497  c-0.468,0-1.735-0.82-2.447-2.231c0.202-0.253,1.186-0.805,3.206-0.805h15.939c1.987,0,4.531,0.83,6.608,2.018  c-2.229,4.411-3.86,8.993-4.498,13.019C23.952,54.539,22.121,53.558,21.757,52.83z M65.424,72.497l-3.215-4.384l-2.419,1.773  l3.447,4.701c-3.612,2.951-8.22,4.727-13.238,4.727c-5.017,0-9.625-1.776-13.238-4.727l3.447-4.701l-2.419-1.773l-3.215,4.384  c-3.425-3.732-5.535-8.689-5.535-14.142c0-11.618,12.247-30.807,20.143-32.097L50,26.803l0.817-0.545  c7.896,1.29,20.143,20.479,20.143,32.097C70.96,63.808,68.849,68.765,65.424,72.497z M94.94,40.686  c-0.681,1.363-1.965,2.197-2.437,2.197c0,0-13.462,0-13.92,0c-0.458,0-0.73,0.183-0.73,0.183s-3.024,2.268-3.095,2.476  c-0.071,0.208-0.092,0.377,0.491,0.377s12.598,0,12.598,0c-0.188,0.278-0.357,0.56-0.497,0.839c-0.575,1.15-2.098,2.197-3.196,2.197  c0,0-4.311,0-4.905,0c-0.593,0-0.906,0.295-0.906,0.295l-2.888,2.413c0,0-0.248,0.327,0.377,0.327s2.923,0,2.923,0  c-0.194,0.27-0.369,0.549-0.514,0.839c-0.364,0.729-2.195,1.709-4.548,2.055c-0.638-4.026-2.269-8.608-4.498-13.019  c2.077-1.188,4.621-2.018,6.608-2.018h15.939c2.049,0,3.033,0.568,3.214,0.816C94.954,40.664,94.948,40.67,94.94,40.686z"/>
<rect x="41.838" y="39" transform="matrix(0.9487 0.3162 -0.3162 0.9487 14.9584 -12.1776)" width="6.325" height="1.999"/>
<rect x="51.838" y="39" transform="matrix(-0.9487 0.3162 -0.3162 -0.9487 119.8267 60.5548)" width="6.325" height="1.999"/>
<path d="M50,63.5l6-5l-6-5l-6,5L50,63.5z M53,58h-6l3-2L53,58z"/>
<path d="M42,48.5c0-1.933,1.567-3.5,3.5-3.5c0.898,0,1.709,0.348,2.329,0.905C47.35,44.232,45.827,43,44,43c-2.209,0-4,1.791-4,4  c0,1.827,1.232,3.35,2.905,3.829C42.348,50.209,42,49.398,42,48.5z"/>
<circle cx="45.5" cy="48.5" r="1.5"/>
<path d="M52,45.905C52.62,45.348,53.431,45,54.329,45c1.933,0,3.5,1.567,3.5,3.5c0,0.898-0.348,1.709-0.905,2.329  c1.673-0.479,2.905-2.002,2.905-3.829c0-2.209-1.791-4-4-4C54.002,43,52.479,44.232,52,45.905z"/>
<circle cx="54.329" cy="48.5" r="1.5"/>
<polygon points="53.438,73.589 50.037,70.643 47.062,73.543 44.295,70.346 42.782,71.654 46.938,76.457 50.117,73.357 53.64,76.411   57.756,71.654 56.244,70.346 "/>
</svg>
