<svg fill="#000000" xmlns="http://www.w3.org/2000/svg" xmlns:xlink="http://www.w3.org/1999/xlink" version="1.1" x="0px" y="0px" viewBox="0 0 100 100" style="enable-background:new 0 0 100 100;" xml:space="preserve"><path d="M47.1,15.9l-10.6-0.1l-0.1-1c-0.2-2.1-1.7-3.9-3.6-4.3c-1.3-0.3-2.6,0-3.7,0.8c-1.1,0.8-1.7,2-1.9,3.2l-0.1,1.2l-11.2-0.1  c0,0,0,0,0,0c-0.5,0-1,0.4-1,1l-0.1,4.4c0,1.4,0.9,2.7,2.3,3.2l9.1,2.2l-0.4,2.5c-5.1,0.5-8.9,4.7-8.9,9.9v37.2  c0,2.7,1.2,5.2,3.3,6.9l7.2,5.8c1.2,1,2.8,1.5,4.3,1.5c1.6,0,3.2-0.5,4.4-1.6l6.7-5.7c2-1.7,3.1-4.1,3.1-6.7V38.6  c0-4.9-3.6-9.1-8.4-9.8l-0.3-2.1l8.4-2.3c1.4-0.4,2.3-1.7,2.3-3.1l0.1-4.4c0-0.3-0.1-0.5-0.3-0.7S47.4,15.9,47.1,15.9z M44,70H19  v-6.3h25V70z M41.6,81.2l-6.7,5.7c-1.8,1.5-4.3,1.5-6.2,0.1l-7.2-5.8c-1.6-1.3-2.5-3.2-2.5-5.3V72h25V76C44,78,43.1,79.9,41.6,81.2z   M46.1,21.3c0,0.6-0.4,1.1-0.9,1.2L36,25c-0.5,0.1-0.8,0.6-0.7,1.1l0.5,3.8c0.1,0.5,0.4,0.8,0.9,0.9c4.1,0.3,7.4,3.8,7.4,8v23.1H19  V38.6c0-4.4,3.4-7.9,7.8-8c0.5,0,0.9-0.4,1-0.8l0.6-4.2c0.1-0.5-0.3-1-0.8-1.1l-9.9-2.4c-0.5-0.2-0.9-0.7-0.9-1.2l0-3.4L28,17.7  c0.5,0,1-0.4,1-0.9l0.2-2.1c0.1-0.7,0.5-1.4,1.1-1.8c0.6-0.4,1.4-0.6,2.1-0.4c1.1,0.2,1.9,1.3,2,2.5l0.2,2c0,0.5,0.5,0.9,1,0.9  l10.5,0.1L46.1,21.3z"/><path d="M32.4,40.6c-0.2-0.3-0.5-0.6-0.9-0.6c0,0,0,0,0,0c-0.4,0-0.7,0.2-0.9,0.6l-1.8,3.7l-4.1,0.6c-0.4,0.1-0.7,0.3-0.8,0.7  c-0.1,0.4,0,0.8,0.3,1l2.9,2.9l-0.7,4c-0.1,0.4,0.1,0.8,0.4,1c0.3,0.2,0.7,0.3,1.1,0.1l3.6-1.9l3.6,1.9c0.1,0.1,0.3,0.1,0.5,0.1  c0.2,0,0.4-0.1,0.6-0.2c0.3-0.2,0.5-0.6,0.4-1l-0.7-4l2.9-2.9c0.3-0.3,0.4-0.7,0.3-1c-0.1-0.4-0.4-0.6-0.8-0.7l-4.1-0.6L32.4,40.6z   M34.1,48.4c-0.2,0.2-0.3,0.6-0.3,0.9l0.4,2.6l-2.3-1.2c-0.1-0.1-0.3-0.1-0.5-0.1c-0.2,0-0.3,0-0.5,0.1l-2.3,1.2l0.4-2.6  c0.1-0.3-0.1-0.7-0.3-0.9L27,46.5l2.6-0.4c0.3,0,0.6-0.3,0.8-0.5l1.2-2.3l1.1,2.3c0.1,0.3,0.4,0.5,0.8,0.5l2.6,0.4L34.1,48.4z"/><path d="M83.8,15.9l-10.6-0.1l-0.1-1c-0.2-2.1-1.7-3.9-3.6-4.3c-1.3-0.3-2.6,0-3.7,0.8c-1.1,0.8-1.7,2-1.9,3.2l-0.1,1.2l-11.2-0.1  c0,0,0,0,0,0c-0.5,0-1,0.4-1,1l-0.1,4.4c0,1.4,0.9,2.7,2.3,3.2l9.1,2.2l-0.4,2.5c-5.1,0.5-8.9,4.7-8.9,9.9v37.2  c0,2.7,1.2,5.2,3.3,6.9l7.2,5.8c1.2,1,2.8,1.5,4.3,1.5c1.6,0,3.2-0.5,4.4-1.6l6.7-5.7c2-1.7,3.1-4.1,3.1-6.7V38.6  c0-4.9-3.6-9.1-8.4-9.8L74,26.7l8.4-2.3c1.4-0.4,2.3-1.7,2.3-3.1l0.1-4.4c0-0.3-0.1-0.5-0.3-0.7S84.1,15.9,83.8,15.9z M80.6,70h-25  v-6.3h25V70z M78.2,81.2l-6.7,5.7c-1.8,1.5-4.3,1.5-6.2,0.1l-7.2-5.8c-1.6-1.3-2.5-3.2-2.5-5.3V72h25V76  C80.6,78,79.8,79.9,78.2,81.2z M82.7,21.3c0,0.6-0.4,1.1-0.9,1.2L72.6,25c-0.5,0.1-0.8,0.6-0.7,1.1l0.5,3.8c0.1,0.5,0.4,0.8,0.9,0.9  c4.1,0.3,7.4,3.8,7.4,8v23.1h-25V38.6c0-4.4,3.4-7.9,7.8-8c0.5,0,0.9-0.4,1-0.8l0.6-4.2c0.1-0.5-0.3-1-0.8-1.1l-9.9-2.4  c-0.5-0.2-0.9-0.7-0.9-1.2l0-3.4l11.1,0.1c0,0,0,0,0,0c0.5,0,0.9-0.4,1-0.9l0.2-2.1c0.1-0.7,0.5-1.4,1.1-1.8  c0.6-0.4,1.4-0.6,2.1-0.4c1.1,0.2,1.9,1.3,2,2.5l0.2,2c0,0.5,0.5,0.9,1,0.9l10.5,0.1L82.7,21.3z"/><path d="M69.1,40.6c-0.2-0.3-0.5-0.6-0.9-0.6c0,0,0,0,0,0c-0.4,0-0.7,0.2-0.9,0.6l-1.8,3.7l-4.1,0.6c-0.4,0.1-0.7,0.3-0.8,0.7  c-0.1,0.4,0,0.8,0.3,1l2.9,2.9l-0.7,4c-0.1,0.4,0.1,0.8,0.4,1c0.3,0.2,0.7,0.3,1.1,0.1l3.6-1.9l3.6,1.9c0.1,0.1,0.3,0.1,0.5,0.1  c0.2,0,0.4-0.1,0.6-0.2c0.3-0.2,0.5-0.6,0.4-1l-0.7-4l2.9-2.9c0.3-0.3,0.4-0.7,0.3-1c-0.1-0.4-0.4-0.6-0.8-0.7l-4.1-0.6L69.1,40.6z   M70.8,48.4c-0.2,0.2-0.3,0.6-0.3,0.9l0.4,2.6l-2.3-1.2c-0.1-0.1-0.3-0.1-0.5-0.1c-0.2,0-0.3,0-0.5,0.1l-2.3,1.2l0.4-2.6  c0.1-0.3-0.1-0.7-0.3-0.9l-1.9-1.8l2.6-0.4c0.3,0,0.6-0.3,0.8-0.5l1.2-2.3l1.1,2.3c0.1,0.3,0.4,0.5,0.8,0.5l2.6,0.4L70.8,48.4z"/></svg>