<svg fill="#000000" xmlns="http://www.w3.org/2000/svg" xmlns:xlink="http://www.w3.org/1999/xlink" version="1.1" x="0px" y="0px" viewBox="0 0 100 100" enable-background="new 0 0 100 100" xml:space="preserve"><g><path d="M85,22H15c-1.65,0-3,1.35-3,3v50c0,1.65,1.35,3,3,3h70c1.65,0,3-1.35,3-3V25C88,23.35,86.65,22,85,22z M85,75H15V25h70V75z   "/><path d="M33,47h1c0.55,0,1-0.45,1-1v-1c0-0.55-0.45-1-1-1h-1c-0.55,0-1,0.45-1,1v1C32,46.55,32.45,47,33,47z"/><path d="M82,72V40V28H18v7.45v34.1V72h3H82z M37,52.44l-2.07,0.92C34.97,53.25,35,53.13,35,53v-1c0-0.55-0.45-1-1-1h-1   c-0.55,0-1,0.45-1,1v1c0,0.55,0.45,1,1,1h0.5L30,55.56V42h7V52.44z M74,69h-9v-7l5-2V43l4-2V69z M46,61l4-8h16L46,61z M21,31h58   v7.12L74,35l-10,9h3v6H50c-1.31-3.27-3.03-6-5.5-6c-2.64,0-4.37,3.44-5.5,7v-9l-7.5-8L27,36l-6-2V31z M21,46v-9l5.69,2.02   c0.11,0.06,0.29,0.89,0.31,0.98v5h-5C21.45,45,21,45.45,21,46s0.45,1,1,1h5v9.28l-5.32,1.77c-0.52,0.17-0.81,0.74-0.63,1.26   C21.19,59.74,21.58,60,22,60c0.1,0,0.21-0.02,0.32-0.05L27,58.39V65c0,0.13-0.19,0.88-0.28,0.92L21,68V46z"/></g></svg>