<svg fill="#000000" xmlns="http://www.w3.org/2000/svg" xmlns:xlink="http://www.w3.org/1999/xlink" version="1.1" x="0px" y="0px" viewBox="0 0 512 512" enable-background="new 0 0 512 512" xml:space="preserve"><path d="M264.2,18.6V2h-16.4v16.6C115.3,22.9,8.9,132,8.9,265.5c0,36.7,5.9,58.5,5.9,58.5s29.9-60.3,82-60.3  c49.9,0,79.7,58.4,79.7,58.4s27-57.8,71.5-57.8v196.5c0,18.1-14.7,32.8-32.8,32.8s-32.8-14.7-32.8-32.8v-24.6h-16.4v24.6  c0,27.1,22.1,49.2,49.2,49.2s49.2-22.1,49.2-49.2V264.3c43.2,0,71.5,57.8,71.5,57.8s28.9-58.4,79.7-58.4c51.4,0,82,60.3,82,60.3  s5.9-21.2,5.9-58.5C503.1,132,396.7,22.9,264.2,18.6z M163.9,264l1.2,11.5c-18-17.7-42.3-28.2-68.4-28.2  c-27.1,0-52.8,11.4-71.1,30.8c-0.2-4.2-0.4-8.5-0.4-12.7c0-120.6,93.1-219.9,211.1-229.9C181.5,98.4,155.2,180.5,163.9,264z   M247.8,247.9c-25.7,2.1-49,14.2-65.6,33.4l-2-18.9c-8.2-78.5,16.4-155.7,67.6-214.8V247.9z M330,262.4l-1.8,16.9  c-16.5-18.1-39.2-29.3-64-31.4V49.6C314.2,108.5,338.1,184.7,330,262.4z M486.4,278.2c-18.3-19.4-44-30.8-71.1-30.8  c-27.1,0-52.3,11.2-70.4,30.1l1.4-13.5c8.7-83.7-17.7-165.8-72.6-228.5c119,9.1,213,108.7,213,230  C486.8,269.7,486.6,273.9,486.4,278.2z"/></svg>