<svg fill="#000000" xmlns="http://www.w3.org/2000/svg" xmlns:xlink="http://www.w3.org/1999/xlink" version="1.1" x="0px" y="0px" viewBox="0 0 96 96" enable-background="new 0 0 96 96" xml:space="preserve"><g><path fill="#000000" d="M61.599,42.541H34.4c-0.828,0-1.5,0.671-1.5,1.5v21.69c0,0.828,0.672,1.5,1.5,1.5h27.198   c0.828,0,1.5-0.672,1.5-1.5v-21.69C63.099,43.212,62.427,42.541,61.599,42.541z M60.099,64.231H35.9v-18.69h24.198V64.231z"/><path fill="#000000" d="M89.143,14.654H6.857c-0.828,0-1.5,0.671-1.5,1.5v8.491c0,0.829,0.672,1.5,1.5,1.5h8.656v2.571   c-5.797,1.247-10.156,6.407-10.156,12.57v27.198c0,7.092,5.77,12.861,12.862,12.861H77.78c7.093,0,12.862-5.77,12.862-12.861   V41.287c0-6.164-4.36-11.324-10.157-12.571v-2.571h8.657c0.828,0,1.5-0.671,1.5-1.5v-8.491   C90.643,15.326,89.971,14.654,89.143,14.654z M77.485,28.425H18.514v-2.279h58.972V28.425z M59.828,23.146v-5.491h7.328v5.491   H59.828z M56.828,23.146h-7.329v-5.491h7.329V23.146z M46.499,23.146h-7.328v-5.491h7.328V23.146z M36.171,23.146h-7.328v-5.491   h7.328V23.146z M25.843,23.146h-7.329v-5.491h7.329V23.146z M77.485,23.146h-7.329v-5.491h7.329V23.146z M8.357,17.654h7.156v5.491   H8.357V17.654z M87.643,41.287v27.198c0,5.438-4.424,9.861-9.862,9.861H18.22c-5.438,0-9.862-4.424-9.862-9.861V41.287   c0-5.438,4.424-9.862,9.862-9.862H77.78C83.219,31.425,87.643,35.849,87.643,41.287z M87.643,23.146h-7.157v-5.491h7.157V23.146z"/></g></svg>