<svg xmlns="http://www.w3.org/2000/svg" xmlns:xlink="http://www.w3.org/1999/xlink" version="1.1" id="Layer_1" x="0px" y="0px" width="100px" height="100px" viewBox="0 0 100 100" enable-background="new 0 0 100 100" xml:space="preserve">
<g>
	<path d="M5.75,53.5"/>
</g>
<g>
	<path d="M96.75,78H3.25V25.125h93.5V78z M9.25,72h81.5V31.125H9.25V72z"/>
</g>
<path d="M32.812,37.5c-0.005,0-0.011,0.001-0.017,0.001c-7.759,0.009-14.046,6.3-14.046,14.061c0,0.029,0.004,0.057,0.004,0.086  c0.046,7.721,6.312,13.967,14.042,13.976v-0.001c0.005,0,0.011,0.002,0.017,0.002c7.767,0,14.062-6.296,14.062-14.062  C46.875,43.796,40.579,37.5,32.812,37.5z M32.888,63.599V51.536H44.95C44.95,58.198,39.55,63.599,32.888,63.599z"/>
<g>
	<rect x="53.125" y="37.625" width="28.125" height="6"/>
</g>
<g>
	<rect x="53.125" y="49" width="28.125" height="2"/>
</g>
<g>
	<rect x="53.125" y="55.25" width="28.125" height="2"/>
</g>
<g>
	<rect x="53.125" y="61.5" width="28.125" height="2"/>
</g>
</svg>
