<svg xmlns="http://www.w3.org/2000/svg" xmlns:xlink="http://www.w3.org/1999/xlink" version="1.1" x="0px" y="0px" width="100px" height="100px" viewBox="0 0 100 100" enable-background="new 0 0 100 100" xml:space="preserve">
<g id="Captions">
</g>
<g id="Your_Icon">
	<g>
		<path d="M78.19,97c-0.17,0-0.341-0.047-0.511-0.092l-32.057-8.473c-0.475-0.125-0.887-0.427-1.158-0.837l-1.896-2.873    c-0.205-0.309-0.319-0.67-0.331-1.041l-0.084-2.664l-1.504-1.156c-0.726-0.558-0.98-1.537-0.618-2.378l0.215-0.498l-0.778-0.794    l-0.436,0.061c-0.66,0.091-1.317-0.151-1.763-0.645l-5.688-6.332c-0.456-0.508-0.621-1.213-0.439-1.871l0.891-3.215    c0.15-0.542,0.522-0.996,1.024-1.25l1.07-0.542l-1.188-0.803c-0.906-0.613-1.152-1.84-0.552-2.754l1.024-1.562l-0.875-2.97    c-0.156-0.528-0.087-1.098,0.19-1.573c-0.64-0.196-1.155-0.708-1.341-1.384l-1.581-5.788c-0.193-0.709,0.018-1.467,0.55-1.975    l2.515-2.396l-0.146-4.109l-5.087-4.727C27.231,31.981,27,31.451,27,30.895V14.598l-4.049-2.719    c-0.531-0.357-0.86-0.947-0.884-1.587l-0.062-1.69L20.7,7.485c-0.444-0.38-0.7-0.936-0.7-1.52V2.552    c0-0.698,0.363-1.345,0.959-1.708c0.596-0.364,1.339-0.391,1.958-0.069c0.202,0.104,20.337,10.484,26.92,13.293    c6.57,2.802,24.973,8.83,25.158,8.891c1.045,0.342,1.618,1.464,1.282,2.512l-11.19,34.895l1.841,6.646    C66.976,67.186,67,67.365,67,67.546v1.703l2.242,1.775c0.25,0.198,0.449,0.453,0.581,0.744l4.779,10.59l1.563,1.122    C76.689,83.856,77,84.461,77,85.105v2.479l2.897,6.289c0.198,0.311,0.312,0.705,0.312,1.102c0,1.104-0.895,2.025-2,2.025    C78.209,97,78.197,97,78.19,97z M47.382,84.75l27.217,7.182l-1.415-3.072C73.062,88.597,73,88.312,73,88.022v-1.891l-1.166-0.837    c-0.286-0.205-0.513-0.481-0.657-0.802l-4.8-10.636l-2.619-2.074C63.279,71.404,63,70.827,63,70.216v-2.398l-1.928-6.96    c-0.104-0.376-0.096-0.773,0.023-1.145l10.767-33.575c-4.93-1.632-18.065-6.033-23.596-8.391    c-4.777-2.039-16.094-7.75-22.526-11.031c0.14,0.264,0.22,0.559,0.231,0.863l0.057,1.548l4.087,2.745    C30.668,12.244,31,12.866,31,13.532v16.491l5.057,4.698c0.39,0.362,0.619,0.864,0.638,1.395l0.206,5.837    c0.02,0.572-0.205,1.124-0.619,1.519l-2.301,2.193l0.836,3.062l1.439-0.093c0.745-0.05,1.459,0.325,1.844,0.966    s0.38,1.445-0.014,2.082l-1.459,2.356l0.885,3c0.167,0.563,0.076,1.171-0.246,1.662l-0.451,0.688l2.372,1.603    c0.587,0.397,0.921,1.075,0.876,1.783c-0.045,0.707-0.46,1.338-1.093,1.658l-3.317,1.68L35.29,67.42l4.247,4.727l0.381-0.053    c0.63-0.09,1.26,0.13,1.703,0.582l2.423,2.473c0.568,0.58,0.729,1.445,0.408,2.191l-0.13,0.301l1.021,0.784    c0.475,0.365,0.762,0.924,0.78,1.523l0.096,3.042L47.382,84.75z"/>
	</g>
	<g>
		<path d="M22.88,46.05l-0.99,5.141C21.8,51.66,21.39,52,20.91,52H19v2.17c0,0.1-0.02,0.2-0.04,0.3l-0.29,0.92    c-0.13,0.42-0.52,0.7-0.96,0.7c-0.04,0-0.09,0-0.13-0.01c-0.49-0.061-0.85-0.47-0.87-0.96l-0.19-6.05    c0-0.21,0.061-0.41,0.171-0.59l0.35-0.53l-0.4-3.18c-0.02-0.13-0.01-0.27,0.03-0.4l0.88-3.09c0.101-0.36,0.4-0.63,0.771-0.7    c0.37-0.07,0.739,0.06,0.979,0.36l3.38,4.3C22.86,45.47,22.94,45.76,22.88,46.05z"/>
	</g>
	<g>
		<path d="M29.05,51.42l-0.84,1.48c-0.15,0.26-0.4,0.439-0.69,0.489c-0.06,0.021-0.119,0.021-0.18,0.021    c-0.229,0-0.46-0.08-0.64-0.23l-1.83-1.54c-0.39-0.319-0.47-0.89-0.2-1.31l0.94-1.43c0.159-0.24,0.409-0.41,0.699-0.45    s0.57,0.05,0.79,0.23l1.73,1.49C29.2,50.48,29.29,51,29.05,51.42z"/>
	</g>
	<g>
		<path d="M29.54,59.62l-1.36,2.18c-0.18,0.3-0.51,0.47-0.85,0.47c-0.08,0-0.17-0.01-0.26-0.039l-3.34-0.921    C23.3,61.19,23,60.79,23,60.35v-2.38c0-0.479,0.34-0.89,0.81-0.979l2.49-0.49c0.271-0.06,0.561,0.01,0.78,0.17l2.2,1.61    C29.7,58.59,29.82,59.18,29.54,59.62z"/>
	</g>
	<g>
		<path d="M39.979,95.323c-0.389,0-0.78-0.112-1.123-0.346L34.475,92h-0.728c-0.557,0-1.089-0.232-1.468-0.641l-6.747-7.287    C25.19,83.703,25,83.218,25,82.714v-1.48l-1.857-6.842C22.9,73.5,23.3,72.56,24.108,72.114l2.593-1.426    c0.436-0.238,0.941-0.308,1.425-0.193l1.862,0.441c0.348,0.083,0.667,0.257,0.925,0.504l6.892,6.622    c0.325,0.313,0.536,0.728,0.597,1.175l0.454,3.367l3.021,3.802c0.2,0.253,0.337,0.55,0.397,0.865l0.824,4.276    c0.113,0.587-0.042,1.192-0.422,1.652l-1.153,1.396C41.129,95.073,40.558,95.323,39.979,95.323z M37.638,89.312l1.1,0.748    l-0.299-1.55l-3.058-3.85c-0.224-0.282-0.367-0.619-0.416-0.977l-0.435-3.221l-5.995-5.761l-0.582-0.138l-0.538,0.296l1.515,5.581    C28.977,80.613,29,80.79,29,80.967v0.963L34.621,88h1.138C36.619,88,37.356,88.544,37.638,89.312z"/>
	</g>
</g>
<g id="Layer_3">
</g>
</svg>
