<?xml version="1.0" encoding="utf-8"?>
<!-- Generator: Adobe Illustrator 15.1.0, SVG Export Plug-In . SVG Version: 6.00 Build 0)  -->
<!DOCTYPE svg PUBLIC "-//W3C//DTD SVG 1.1//EN" "http://www.w3.org/Graphics/SVG/1.1/DTD/svg11.dtd">
<svg version="1.1"
	 id="svg2876" sodipodi:docname="tuning_fork2.svg" xmlns:inkscape="http://www.inkscape.org/namespaces/inkscape" xmlns:sodipodi="http://sodipodi.sourceforge.net/DTD/sodipodi-0.dtd" xmlns:dc="http://purl.org/dc/elements/1.1/" inkscape:version="0.48.2 r9819" xmlns:svg="http://www.w3.org/2000/svg" xmlns:cc="http://creativecommons.org/ns#" xmlns:rdf="http://www.w3.org/1999/02/22-rdf-syntax-ns#"
	 xmlns="http://www.w3.org/2000/svg" xmlns:xlink="http://www.w3.org/1999/xlink" x="0px" y="0px" width="96.667px" height="100px"
	 viewBox="1.667 0 96.667 100" enable-background="new 1.667 0 96.667 100" xml:space="preserve">
<sodipodi:namedview  inkscape:zoom="2.6641777" bordercolor="#666666" id="namedview2888" inkscape:pageopacity="0" inkscape:window-height="738" objecttolerance="10" inkscape:pageshadow="2" guidetolerance="10" pagecolor="#ffffff" inkscape:window-y="-8" inkscape:cx="49.296839" showgrid="false" inkscape:window-width="1280" gridtolerance="10" borderopacity="1" inkscape:window-maximized="1" inkscape:cy="44.29134" inkscape:current-layer="g3015" inkscape:window-x="-8">
	</sodipodi:namedview>
<defs>
	
	
		<inkscape:perspective  id="perspective2892" inkscape:vp_x="0 : 44.29134 : 1" sodipodi:type="inkscape:persp3d" inkscape:persp3d-origin="44.29134 : 29.52756 : 1" inkscape:vp_z="88.58268 : 44.29134 : 1" inkscape:vp_y="0 : 1000 : 0">
		</inkscape:perspective>
	
		<inkscape:perspective  id="perspective3682" inkscape:vp_x="0 : 50 : 1" sodipodi:type="inkscape:persp3d" inkscape:persp3d-origin="45 : 33.333333 : 1" inkscape:vp_z="90 : 50 : 1" inkscape:vp_y="0 : 1000 : 0">
		</inkscape:perspective>
	
		<inkscape:perspective  id="perspective3743" inkscape:vp_x="0 : 44.29134 : 1" sodipodi:type="inkscape:persp3d" inkscape:persp3d-origin="44.29134 : 29.52756 : 1" inkscape:vp_z="88.58268 : 44.29134 : 1" inkscape:vp_y="0 : 1000 : 0">
		</inkscape:perspective>
	
		<inkscape:perspective  id="perspective3769" inkscape:vp_x="0 : 44.29134 : 1" sodipodi:type="inkscape:persp3d" inkscape:persp3d-origin="44.29134 : 29.52756 : 1" inkscape:vp_z="88.58268 : 44.29134 : 1" inkscape:vp_y="0 : 1000 : 0">
		</inkscape:perspective>
</defs>
<g id="g3015" transform="matrix(1.0293389,0,0,1.0293389,-61.574911,3.3832216)">
	<path id="path3008" inkscape:connector-curvature="0" d="M68.889,13.878l54.079,54.078c16.191,16.193,19.43,21.505,19.43,25.907
		c3.238-3.238,9.714-9.716,12.953-12.954c-5.683,0-9.715-3.239-25.907-19.43l-3.238-3.238c-1.789,1.788-4.69,1.788-6.476,0
		c-1.789-1.787-1.789-4.688,0-6.477l-1.62-1.618c-1.787,1.788-4.688,1.788-6.477,0c-1.788-1.789-1.788-4.689,0-6.477l-1.62-1.619
		c-1.787,1.788-4.688,1.788-6.476,0c-1.788-1.788-1.788-4.688,0-6.476l-1.619-1.619c-1.788,1.788-4.689,1.788-6.477,0
		c-1.788-1.788-1.788-4.689,0-6.476L82.488,14.523l-1.619,1.619l-4.857-4.858l1.619-1.619L64.677-3.287l-3.238,3.238
		C66.372,4.884,69.219,10.435,68.889,13.878L68.889,13.878z"/>
</g>
</svg>
