<svg xmlns="http://www.w3.org/2000/svg" xmlns:xlink="http://www.w3.org/1999/xlink" version="1.0" x="0px" y="0px" viewBox="0 0 68.7 114.2" enable-background="new 0 0 68.7 114.2" xml:space="preserve"><title>can05</title><path d="M56.9,22.3c0-0.1-0.1-0.1-0.1-0.2c-0.9-1.5-1.6-3.1-1.9-4.9c0.2-0.4,0.4-0.8,0.4-1.3c0.1-1.6-1.1-3.1-2.7-3.2  C47.7,12.2,41.2,12,34.5,12s-13,0.2-17.7,0.7c-1.6,0.2-2.9,1.6-2.7,3.3c0.1,0.6,0.3,1.1,0.7,1.6c-0.2,1-0.7,2-1.5,2.7  c-0.4,0.4-0.7,0.9-1,1.4c-1.5,2.1-2.2,4.6-2.3,7.2v61.4c0,2.3,1.2,4.4,3.1,5.6c0.6,0.6,1.1,1,1.5,1.4c0.4,0.3,0.7,0.7,0.9,1.2  c0.7,1.9,2.7,3.8,17.3,3.8h3c15.3,0,17.3-1.8,18.1-3.8L54,98c0.2-0.7,0.6-1.3,1.2-1.8l0.4-0.4c2-1.2,3.1-3.3,3.2-5.6V28.8  C58.7,26.5,58.1,24.3,56.9,22.3z M53.7,67.8L15,76.7v-1.9l38.7-8.9V67.8z M53.7,62.8L15,71.7V57.3l38.7-8.9V62.8z M53.7,45.3  L15,54.2v-1.9l38.7-8.9V45.3z M16.4,24.4l0.1-0.2c0.2-0.2,0.3-0.4,0.5-0.6c1.6-1.7,2.5-3.8,2.7-6.1C23.9,17.2,29,17,34.4,17  c5.6,0,11,0.2,15.4,0.5c0.3,2.6,1.2,5,2.6,7.2l0.1,0.1c0.1,0.2,0.2,0.4,0.3,0.5c-8.2-0.5-27.9-0.4-36.9,0C16,25,16.2,24.7,16.4,24.4  z M53.6,28.4c0,0.2,0,0.4,0,0.5v11.4L15,49.2V28.8L53.6,28.4z M50.2,96.6l-0.1,0.2c-1,0.8-7.8,1.4-16,1.3c-7.5,0.1-14-0.5-15-1.3  c-0.2-0.7-0.6-1.3-1.1-1.9c3.1,0.3,10.6,0.9,16.7,0.9c6.3,0,13.7-0.6,16.3-0.9C50.7,95.5,50.4,96,50.2,96.6L50.2,96.6z M52.1,91.8  h-0.3c-0.1,0-9.4,1-17.1,1s-17.7-1-17.8-1h-0.3c-0.9,0-1.6-0.7-1.6-1.6V79.8l38.7-8.9v19.4C53.7,91.1,52.9,91.8,52.1,91.8z"></path></svg>