<svg xmlns="http://www.w3.org/2000/svg" xmlns:xlink="http://www.w3.org/1999/xlink" version="1.1" x="0px" y="0px" width="100px" height="100px" viewBox="0 0 100 100" enable-background="new 0 0 100 100" xml:space="preserve">
<g id="Captions">
</g>
<g id="Your_Icon">
	<path fill="#000000" d="M89.839,49.601l8.132-8.132c2.538-2.538,2.538-6.654,0-9.192c-2.539-2.538-6.654-2.538-9.192,0   l-8.132,8.132l-7.778-7.778c-2.538-2.538-6.654-2.538-9.192,0s-2.538,6.654,0,9.192l7.778,7.778l-8.132,8.132   c-2.538,2.538-2.538,6.654,0,9.192s6.654,2.538,9.192,0l8.132-8.132l8.485,8.485c2.538,2.538,6.654,2.538,9.192,0   s2.538-6.654,0-9.192L89.839,49.601z"/>
	<path fill="#000000" d="M6.977,78h14.185l25.425,20.93c1.091,0.723,2.349,0.818,3.611,0.818c1.061,0,2.258-0.257,3.225-0.777   C55.543,97.832,57,95.618,57,93.211V6.215c0-2.544-1.609-4.646-3.916-5.718C50.775-0.576,47.924,0,45.979,1.643L20.739,24H6.977   C3.366,24,0,26.082,0,29.692v41.231C0,74.533,3.366,78,6.977,78z M12,37h11.13c1.544,0,3.207-0.932,4.387-1.928L44,20.29v60.746   L26.911,65.781C25.841,65.072,24.414,65,23.13,65H12V37z"/>
</g>
</svg>
