<svg fill="#000000" xmlns="http://www.w3.org/2000/svg" xmlns:xlink="http://www.w3.org/1999/xlink" version="1.1" x="0px" y="0px" viewBox="0 0 100 100" enable-background="new 0 0 100 100" xml:space="preserve"><g><g><path fill="#000000" d="M66,5h-2H36h-2H5v29v2v28v2v29h29h2h28h2h29V66v-2V36v-2V5H66z M64,7v27H36V7H64z M64,36v28H36V36H64z     M7,7h27v27H7V7z M7,36h27v28H7V36z M7,93V66h27v27H7z M36,93V66h28v27H36z M93,93H66V66h27V93z M93,64H66V36h27V64z M66,34V7h27    v27H66z"/><polygon fill="#000000" points="24.75,20 20,11.773 15.25,20 10.5,28.227 20,28.227 29.5,28.227   "/><circle fill="#000000" cx="50" cy="80" r="9.5"/><rect x="68" y="9" fill="#000000" width="6" height="3"/><rect x="77" y="9" fill="#000000" width="6" height="3"/><rect x="85" y="9" fill="#000000" width="6" height="3"/></g></g></svg>