<svg xmlns="http://www.w3.org/2000/svg" xmlns:xlink="http://www.w3.org/1999/xlink" xml:space="preserve" width="100px" height="100px" style="shape-rendering:geometricPrecision; text-rendering:geometricPrecision; image-rendering:optimizeQuality; fill-rule:evenodd; clip-rule:evenodd" viewBox="0 0 100 100">
 <defs>
  <style type="text/css">
   
    .fil0 {fill:none}
    .fil1 {fill:black}
    .fil2 {fill:#868686}
   
  </style>
 </defs>
 <g id="Layer_x0020_1">
  <metadata id="CorelCorpID_0Corel-Layer"/>
  <rect class="fil0" width="100" height="100"/>
  <path class="fil1" d="M58.3717 83.9428c0.44646,-0.105119 0.274018,-0.343703 0.91418,-0.343703 1.04765,0 2.4012,1.11615 2.4012,2.11419 -0.55276,0.129922 -0.448822,0.168899 -1.08544,0.114568 -0.938984,-0.0803156 -1.65356,-0.558666 -2.04096,-1.38899 -0.0826778,-0.179529 -0.112206,-0.337798 -0.188978,-0.496067zm6.05792 -1.94411c0,-0.100394 0.874023,-0.465358 1.08662,-0.570477l0.81851 -0.438192c0.152363,-0.0885834 0.140552,-0.1063 0.266931,-0.19134 1.28387,0.298821 1.08544,2.95278 1.08544,4.00043 -1.1315,0 -2.40829,0.768904 -2.98821,-0.897645 -0.177167,-0.505516 -0.269293,-1.24135 -0.269293,-1.90277zm5.77209 -1.88505l0 -1.02875 0.285829 0 0 0.857487c0,0.188978 -0.102757,0.166537 -0.285829,0.171261zm-16.5167 -0.857487c0.206695,-0.30827 0.61654,-0.604729 0.948433,-0.824416 1.7386,-1.15158 3.04254,0.219687 3.7772,1.69962 0.250396,0.503154 0.334255,0.948433 0.418114,1.12442 -0.745281,0.0625989 -2.84175,0.891739 -3.39688,0.54213 -0.498429,-0.314176 -1.45041,-1.98309 -1.74686,-2.54175zm7.31581 -0.91418c0,-1.213 0.424019,-1.64883 1.38544,-2.61498 2.1012,-2.1071 3.92956,-1.71734 3.92956,1.98545l0 0.972055c-0.484256,0.01063 -1.08426,0.474807 -1.41733,0.696856 -0.931897,0.621265 -2.09884,1.05119 -3.15475,0.388586 -0.395672,-0.249215 -0.742919,-0.785439 -0.742919,-1.42796zm7.71502 -7.02998c0.00708667,0.0129922 0.0153545,0.0188978 0.0177167,0.0389767 0.00236222,0.0200789 0.0141733,0.0307089 0.0177167,0.0401578 0.408665,0.98859 1.05001,2.1697 1.05001,3.06498 0,0.386224 -0.419295,1.19883 -0.686226,1.19883l-0.45709 0c-0.00708667,-0.3189 -0.132285,-0.838589 -0.194883,-1.17521l-0.335436 -1.72915c-0.0496067,-0.229136 -0.00708667,-0.266931 0.109843,-0.486618 0.153545,-0.289372 0.405121,-0.635438 0.47835,-0.951976zm-17.2584 -0.342522c1.14804,0 2.07876,0.737014 2.59608,1.40434 0.501972,0.644887 1.28977,1.87088 1.28977,2.76734 0,0.12756 -1.05828,0.514965 -1.24962,0.578745 -1.79765,0.597643 -2.12482,0.374412 -3.43703,-0.635438 -0.806699,-0.622446 -2.5512,-2.39648 -1.44214,-3.50081 0.470082,-0.470082 1.58623,-0.614178 2.24293,-0.614178zm5.60083 -0.799613l1.3134 -0.686226c0.24449,-0.120473 0.405121,-0.231498 0.667328,-0.362601 0.249215,-0.124017 0.473626,-0.207876 0.705124,-0.322443 0.617721,-0.303546 2.19451,-1.02284 2.9705,-1.08662 0.628351,0.937803 1.56379,2.36695 1.66891,3.47601 0.0460634,0.481894 -0.172442,0.887015 -0.481894,1.19647 -0.298821,0.301183 -0.557485,0.550398 -0.923629,0.791345 -1.80474,1.19174 -1.92167,1.22245 -3.97798,1.22245l-1.02875 -2.05632c-0.152363,-0.30827 -0.881109,-1.92049 -0.912999,-2.17206zm-11.5442 -4.22956c0.458271,-0.1063 2.40829,-1.20001 3.42759,-1.20001 0.590556,0 1.24017,0.438192 1.64411,0.812605 0.921267,0.855125 0.757093,1.50356 0.757093,2.90199 -0.702761,0.0153545 -3.71223,0.774809 -4.10909,0.62717 -0.353152,-0.129922 -0.685045,-0.565752 -0.933078,-0.842133 -0.100394,-0.111024 -0.187797,-0.243309 -0.272837,-0.356696 -0.594099,-0.790164 -0.513784,-0.630714 -0.513784,-1.94293zm21.488 3.54333c-0.0578745,-0.242128 -0.242128,-0.518508 -0.335436,-0.751187 -0.316538,-0.780715 -0.682683,-1.44568 -0.973236,-2.34096 -0.198427,-0.611816 -0.0543311,-1.02284 0.360239,-1.57088 0.257482,-0.34016 0.753549,-0.937803 1.32875,-0.856306 0.708667,0.0992134 0.740557,0.890558 0.842133,1.32521l0.589375 2.71774c0.00236222,0.2126 -0.301183,0.487799 -0.448822,0.611816 -0.303546,0.25512 -0.88229,0.853944 -1.363,0.864574zm-13.2592 -5.3717c0.486618,-0.257482 1.32875,-1.15985 3.48782,-2.11301 0.816148,-0.36142 1.81419,-0.732289 2.60789,-1.1067 0.324806,-0.153545 0.530319,-0.370869 1.11379,0.353152 0.610635,0.755911 0.849219,1.74096 0.849219,3.03782 0,0.66969 -0.431106,1.0382 -0.832684,1.34056 -0.835046,0.628351 -3.78546,1.74568 -4.76815,1.74568 -0.869298,0 -0.641344,0.239766 -1.35237,-1.16339l-1.10552 -2.09411zm-6.34375 -5.25831c0.0649611,0.279923 0.282286,0.562209 0.419295,0.838589 0.253939,0.509059 1.14922,2.38703 1.18111,2.76144 -0.220868,0.0590556 -1.13269,0.972055 -2.34214,0.972055 -1.46812,0 -3.37089,-0.0980323 -3.95436,-1.53308 -0.347247,-0.851582 -0.222049,-1.24017 0.105119,-1.91576 0.141733,-0.291735 0.07441,-0.324806 0.392129,-0.407484 0.46772,-0.120473 0.898826,-0.204332 1.34174,-0.315357 1.42206,-0.355515 1.34883,-0.400397 2.85711,-0.400397zm18.1738 -2.85711c0.683864,0 1.1256,0.998039 1.44686,1.6382 0.225592,0.44646 0.838589,1.73623 0.838589,2.24766 0,0.600005 -0.419295,1.37481 -0.785439,1.78702 -1.01694,1.13977 -2.61616,1.39371 -3.26459,-0.30827 -0.131103,-0.343703 -0.185435,-0.647249 -0.246852,-1.06772 -0.161812,-1.12678 -0.171261,-2.25829 0.524414,-3.15475 0.193702,-0.249215 0.379137,-0.491342 0.628351,-0.685045 0.19134,-0.14882 0.54213,-0.45709 0.858668,-0.45709zm-12.2304 5.59965c-0.370869,0 -0.500791,0.0366145 -0.86103,-0.565752 -0.330711,-0.555122 -0.909456,-2.02561 -0.909456,-2.63388 0,-0.614178 0.654336,-1.21655 1.02757,-1.48584 1.30277,-0.940165 2.91616,-1.35119 4.40082,-1.94293 0.295278,-0.11693 0.70158,-0.2126 0.970874,-0.342522 0.426381,0.888196 1.56852,3.42759 1.71497,4.05712 -0.465358,0.312995 -0.677958,0.568115 -1.35119,0.934259 -1.31103,0.713391 -1.67364,0.938984 -3.12286,1.5071 -0.454728,0.178348 -1.28623,0.472445 -1.8697,0.472445zm-12.743 -6.05674c0,-0.407484 0.0460634,-0.766541 0.283467,-1.08662 0.103938,-0.139371 0.173623,-0.137009 0.387405,-0.184253 0.128741,-0.0295278 0.325987,-0.0661423 0.471264,-0.100394 0.59528,-0.141733 1.24135,-0.274018 1.83309,-0.396854 0.949614,-0.197246 1.25316,-0.0519689 2.03033,0.532681 0.338979,0.25512 0.413389,0.862212 0.422838,1.29214 -0.207876,0.0496067 -1.09135,0.419295 -1.40434,0.538587 -0.448822,0.172442 -0.990953,0.385042 -1.45631,0.486618 -0.912999,0.203151 -2.56774,0.0519689 -2.56774,-1.0819zm20.4013 -2.80042c0,-0.664966 0.47835,-1.07363 0.905913,-1.60867 0.237403,-0.29764 0.922448,-0.888196 1.30631,-1.0382 0.644887,-0.253939 0.894102,0.316538 1.15985,0.989772 0.144096,0.360239 0.513784,1.38308 0.513784,1.82836 0,1.11143 -0.300002,2.31025 -1.23544,2.76498 -0.380318,0.184253 -0.731108,0.263388 -1.22127,0.263388 -0.354333,0 -1.42915,-2.90199 -1.42915,-3.19963zm-9.25755 1.82954l-2.22994 0c-0.0141733,-0.660241 -0.949614,-1.63112 0.686226,-2.51577 0.863393,-0.465358 4.09373,-2.34214 4.85791,-2.34214 0.386224,0 0.820873,0.302365 1.04292,0.49961 0.667328,0.59528 0.614178,0.70158 0.614178,1.50001 0,0.18071 -0.219687,0.227955 -0.546855,0.4252 -0.380318,0.230317 -4.05948,2.43309 -4.42444,2.43309zm-9.43 -6.68745c0.771266,0 1.31458,1.36537 1.31458,1.54371l0 1.42796c-1.36773,0 -4.20594,1.73387 -4.9087,-0.119292 -0.229136,-0.602367 -0.226773,-1.36537 0.1063,-1.82482 0.611816,-0.846857 2.02915,-1.02757 3.48782,-1.02757zm6.80084 1.82954c-0.954338,0 -2.126,-0.277561 -2.32088,-1.33702 -0.0566934,-0.309451 -0.0897645,-0.504335 0,-0.753549 0.0708667,-0.197246 0.227955,-0.424019 0.36142,-0.555122 0.995677,-0.98859 5.17681,-2.62325 6.41698,-2.72601 0.0484256,0.581107 1.7256,3.19491 0.113387,4.11263 -0.458271,0.259845 -0.853944,0.390948 -1.37836,0.565752 -0.747644,0.249215 -2.34923,0.693313 -3.19254,0.693313zm11.0871 -0.229136c-0.833865,0 -1.54371,-1.39844 -1.54371,-1.60041 0,-0.611816 1.5319,-2.40002 2.28663,-2.40002 0.889377,0 1.14213,0.589375 1.14213,1.37127 0,0.890558 -0.790164,2.62915 -1.88505,2.62915zm-23.2596 -6.57171c0.179529,-0.0862212 0.498429,-0.124017 0.732289,-0.183072 2.23584,-0.555122 3.83979,-1.43269 3.83979,2.63978 0,0.168899 -0.225592,0.240947 -0.486618,0.37205 -1.01576,0.506697 -1.6323,0.419295 -2.74727,0.232679 -0.359058,-0.0602367 -0.856306,-0.197246 -1.16694,-0.204332l-0.0566934 -1.60041c-0.01063,-0.412208 -0.114568,-0.819691 -0.114568,-1.2567zm19.3159 -0.857487c0,-1.21655 3.7146,-3.86932 3.7146,0.45709 0,0.617721 -0.103938,1.03229 -0.603548,1.45395 -0.532681,0.450004 -0.693313,0.603548 -1.39726,0.603548 -1.04174,0 -1.71379,-1.75868 -1.71379,-2.51459zm-9.42881 2.0575c-1.69726,0 -2.0008,-1.27324 -2.0008,-2.68585 0,-0.533862 0.492524,-0.98859 0.832684,-1.22481 0.48898,-0.338979 3.58231,-1.76222 4.25318,-1.91813 0.321262,0.479531 0.858668,0.982685 1.24017,1.61694 0.380318,0.634257 0.740557,1.10552 0.931897,1.92521 -0.409846,0.218506 -0.80788,0.454728 -1.20237,0.683864 -1.03347,0.598824 -2.95396,1.60277 -4.05476,1.60277zm-11.6588 -7.48707c1.06064,-0.561028 1.38663,-0.742919 2.80042,-0.742919 0.657879,0 1.11143,0.374412 1.35474,0.81851 0.422838,0.774809 0.930716,3.63901 -1.29804,3.63901 -1.05591,0 -1.8508,-0.186616 -2.36813,-1.11615 -0.37205,-0.667328 -0.48898,-1.5886 -0.48898,-2.59845zm18.1159 -0.342522c0,-1.10316 0.335436,-2.05632 1.60041,-2.05632 1.08072,0 2.02679,1.81773 2.36104,2.66695 0.285829,0.724021 0.0566934,1.17284 -0.48898,1.7197 -0.256301,0.256301 -1.10552,0.985047 -1.52954,0.985047 -1.05591,0 -1.94293,-2.80868 -1.94293,-3.31538zm-5.88666 -3.6579c0.0732289,0.13819 0.108662,0.256301 0.172442,0.399216l0.571658 1.25788c0.59528,1.32521 1.19056,2.1071 -0.114568,3.03073 -0.514965,0.363782 -1.90395,0.912999 -2.62915,0.912999 -1.05001,0 -2.08348,-0.0708667 -2.63152,-1.14095 -0.383861,-0.748825 -0.387405,-1.79411 0.214962,-2.41774 0.927173,-0.957882 2.45789,-1.46694 3.73822,-1.86379 0.217325,-0.0673234 0.427562,-0.157088 0.677958,-0.178348zm-11.8288 -2.79923c0.714573,0 1.0004,0.451185 1.37127,1.19883 0.589375,1.1882 0.628351,1.11379 0.628351,2.34451 -1.18938,0 -2.32915,1.18111 -3.03191,0.288191 -0.81851,-1.04056 -1.82246,-3.83153 1.03229,-3.83153zm14.458 0.513784c0,-0.700399 1.44214,-1.6571 1.77167,-1.6571 0.54213,0 0.951976,0.577564 1.21891,1.00985 0.381499,0.618903 1.18111,2.00198 1.18111,2.70475 0,1.37127 -2.20632,1.43387 -2.81105,0.982685 -0.270475,-0.20197 -0.292916,-0.331892 -0.429925,-0.655517 -0.2126,-0.49961 -0.930716,-2.03624 -0.930716,-2.38466zm-9.65795 -1.99962c0.132285,-0.0354333 0.577564,-0.366145 0.731108,-0.468901 0.556304,-0.373231 1.83663,-1.1693 2.41183,-1.30395 0.137009,0.0933078 0.240947,0.197246 0.356696,0.32953 0.0838589,0.09567 0.0791345,0.107481 0.14882,0.193702 0.07441,0.0921267 0.115749,0.119292 0.193702,0.206695l0.624808 0.804337c1.03702,1.4067 1.44568,2.77561 -0.248033,3.88586 -0.49961,0.327168 -1.53072,0.819691 -2.32088,0.62717 -1.15513,-0.282286 -1.39607,-2.13663 -1.6134,-3.01774 -0.0720478,-0.295278 -0.18071,-1.04056 -0.284648,-1.2567zm6.57171 -4.00043c0,-1.22836 1.09371,-2.16734 2.66459,0.193702 0.399216,0.601186 0.869298,1.3134 1.05001,2.09175 -1.27324,0.852763 -1.48584,1.7256 -2.34333,0.513784 -0.298821,-0.422838 -1.37127,-2.4449 -1.37127,-2.79923zm-12.2292 3.60003c-0.685045,0 -0.848038,-0.171261 -1.37245,-0.171261 0,-0.383861 -0.152363,-1.13505 -0.22323,-1.49174l-0.398035 -2.1638c0.0295278,-0.32953 1.01221,-1.08898 1.65001,-0.745281 0.812605,0.438192 1.39962,3.32129 1.36773,3.82326 -0.0330711,0.507878 -0.471264,0.748825 -1.02402,0.748825zm7.77171 -3.14294c-0.664966,0.154726 -2.04569,0.975598 -2.68585,1.3134 -0.646068,-0.432287 -1.14332,-1.09725 -1.20001,-2.11301 -0.04252,-0.761817 -0.13819,-1.98427 0.780715,-2.4201 0.383861,-0.18071 0.964968,-0.168899 1.35355,-0.00118111 0.15945,0.0685045 0.354333,0.213781 0.479531,0.321262 0.859849,0.737014 1.17993,2.70711 1.27206,2.89963zm-9.54338 -3.37207c-0.304727,0 -0.612997,-0.197246 -0.787801,-0.355515 -0.341341,-0.30827 -0.242128,-0.36142 -0.240947,-0.959063 0.00118111,-0.799613 0,-1.60041 0,-2.40002 0.708667,0.0590556 1.49883,1.03938 1.80946,1.6193 0.34016,0.629533 0.405121,1.49883 -0.0826778,1.87915 -0.132285,0.103938 -0.485437,0.216143 -0.698037,0.216143zm11.7154 -2.28545c0.647249,0 0.439374,0.0153545 1.18465,0.813786 0.681501,0.728746 0.587012,1.05001 0.587012,1.92876 -0.986228,0 -1.29214,0.155907 -1.84608,-1.1256 -0.335436,-0.778353 -0.256301,-0.663785 -0.134647,-1.25434 0.0437011,-0.2126 -0.00236222,-0.362601 0.209057,-0.362601zm-7.65833 -3.08743c1.78112,1.1941 1.6571,2.14017 2.40002,3.54452 -0.418114,0 -0.529138,0.171261 -0.970874,0.171261 -0.91418,0 -1.11497,-0.703943 -1.37954,-1.363 -0.419295,-1.04056 -0.0496067,-1.07363 -0.0496067,-2.35277zm5.42957 0.514965c0.211419,-0.0566934 0.0732289,-0.0578745 0.285829,-0.114568 0.0732289,0.317719 0.25512,0.323625 0.284648,0.686226 -0.301183,0 -0.08504,0 -0.171261,0.0566934 -0.0980323,-0.0720478 -0.264569,-0.317719 -0.320081,-0.421657 -0.0614178,-0.113387 -0.0496067,-0.139371 -0.0791345,-0.206695zm36.3452 11.4875c-0.388586,0.259845 -0.714573,0.571658 -1.04174,0.898826l-1.0004 1.00158c-1.34529,1.33229 -2.48033,2.84884 -3.47601,4.46696 -2.24057,3.63901 -3.22798,7.79061 -3.93428,12.0095 -0.0779534,0.45709 -0.161812,1.37954 -0.320081,1.68072 -0.451185,0.853944 -0.695675,0.800794 -1.19883,0.800794 -0.317719,-0.597643 -0.540949,-1.23662 -0.819691,-1.86616l-1.25788 -2.74254c-0.0838589,-0.175986 -0.129922,-0.3189 -0.207876,-0.47835 -0.07441,-0.152363 -0.152363,-0.303546 -0.229136,-0.455909 -0.526776,-1.05001 -1.00394,-2.1449 -1.56143,-3.18191l-2.1201 -3.93783c-0.355515,-0.59528 -0.640163,-1.16221 -0.993315,-1.74923 -0.677958,-1.1315 -1.3134,-2.25002 -2.02206,-3.34963 -3.4205,-5.29847 -5.12248,-7.6477 -9.02606,-12.5765 -0.548036,-0.692131 -1.24253,-1.57088 -1.86616,-2.19332l-0.641344 -0.728746c-0.363782,-0.477169 -0.910637,-0.927173 -1.29804,-1.38899l-2.65986 -2.71065c-0.302365,-0.303546 -1.15867,-1.13505 -1.41379,-1.32993l-2.12954 -1.87088c-0.715754,-0.636619 -1.47993,-1.23426 -2.24647,-1.81064 -1.3004,-0.981504 -2.63978,-1.88978 -3.96854,-2.83349 -0.262207,-0.186616 -0.543311,-0.364964 -0.80788,-0.562209l-1.18111 -0.820873c-0.343703,-0.227955 -0.516146,-0.461815 -0.925992,-0.218506 -0.0472445,0.0271656 -0.146458,0.100394 -0.194883,0.14882 -0.0496067,0.0472445 -0.112206,0.122836 -0.164175,0.179529 -0.23386,0.259845 -0.353152,0.539768 -0.498429,0.87166 -0.876385,1.98899 -1.36537,6.86462 -1.48466,9.31779 -0.0129922,0.252758 -0.0555122,0.274018 -0.0590556,0.569296l-0.0578745 5.31855c0.00472445,0.30827 0.05315,0.336617 0.0625989,0.624808 0.00590556,0.22323 -0.0153545,0.466539 -0.00354333,0.687407l0.139371 1.91931c0.0661423,0.450004 0.0507878,0.812605 0.0992134,1.27206 0.732289,7.02525 2.04096,13.8072 3.81972,20.5265 0.750006,2.83112 1.54135,5.59256 2.40711,8.39298 0.641344,2.07285 1.22245,4.14334 1.91458,6.20084 0.23386,0.693313 0.271656,0.89292 -0.375594,1.24135 -0.433468,0.230317 -0.791345,-0.206695 -1.28505,-0.496067 -3.05081,-1.79293 -6.27997,-3.21853 -9.87764,-3.66617 -0.415751,-0.0519689 -0.888196,-0.06378 -1.2567,-0.114568 -0.400397,-0.0543311 -2.07167,-0.100394 -2.38466,0.327168 0.336617,0.0779534 0.726384,0.246852 1.0441,0.383861 0.968512,0.418114 1.98663,0.851582 2.88782,1.39962 0.889377,0.540949 1.80592,1.03229 2.67404,1.61104 1.4197,0.947252 2.79333,1.9512 4.11972,3.02365 0.972055,0.78662 2.19805,1.77875 3.08979,2.68349 0.153545,0.155907 0.200789,0.187797 0.366145,0.320081 0.394491,0.314176 0.720478,0.738195 1.09017,1.08072 0.48898,0.451185 1.00394,0.905913 1.45867,1.39844l0.685045 0.742919c0.475988,0.475988 0.993315,0.959063 1.39489,1.4634l3.3142 3.82916c0.866936,1.06536 1.71261,2.13191 2.53821,3.23388l4.80831 6.62013c0.422838,0.561028 0.792526,1.09371 1.20946,1.64883 1.43859,1.91576 2.79687,3.89294 4.30279,5.75674 1.04765,1.29804 2.25829,2.59136 3.70751,3.43467 0.869298,0.505516 4.28271,1.19292 5.58666,1.55671 1.55789,0.434649 3.09451,1.12324 4.37248,2.08584 0.150001,0.113387 0.266931,0.256301 0.440555,0.302365 -0.294097,-0.611816 0.00118111,-1.59568 0.837408,-1.51891 0.295278,0.0271656 0.798431,0.184253 1.05946,0.250396 1.10788,0.278742 2.33978,0.0968512 2.21695,-1.47403 -0.0401578,-0.519689 -0.771266,-1.21655 -1.02875,-1.60041l1.05355 -1.46222c0.354333,-0.52087 0.681501,-1.04292 0.966149,-1.60513 0.151182,-0.296459 0.291735,-0.525595 0.438192,-0.81851 1.83545,-3.67444 2.47797,-7.2225 1.94883,-11.778 -0.550398,-4.71854 -2.32443,-12.1962 -3.63901,-16.8202 -0.188978,-0.666147 -0.351971,-1.33584 -0.494886,-2.0197 -0.142915,-0.674415 -0.3189,-1.36537 -0.46772,-2.10474 -0.13819,-0.686226 -0.295278,-1.45985 -0.370869,-2.14254 -0.0448822,-0.399216 -0.0826778,-0.711029 -0.129922,-1.12796 -0.128741,-1.13387 -0.238585,-2.58663 -0.0708667,-3.69216 0.109843,-0.727565 0.00472445,-1.7197 0.0897645,-2.48152 0.173623,-1.54962 0.271656,-3.0768 0.529138,-4.6146 0.498429,-2.97404 1.22009,-5.55595 2.15789,-8.0729 0.458271,-1.23308 0.975598,-2.37994 1.55198,-3.5327 0.428744,-0.855125 0.852763,-1.676 1.34292,-2.48742 0.121655,-0.203151 0.419295,-0.6378 0.466539,-0.845676z"/>
  <polygon class="fil2" points="49.9717,50.0331 50.0295,50.0331 49.9823,49.9669 "/>
 </g>
</svg>
