<svg fill="#000000" xmlns="http://www.w3.org/2000/svg" xmlns:xlink="http://www.w3.org/1999/xlink" version="1.0" x="0px" y="0px" viewBox="0 0 50 50" enable-background="new 0 0 50 50" xml:space="preserve"><g><path fill="#000000" d="M25.368,42.548l-1.225-4.07c0.458-0.138,1.059-0.305,1.764-0.501c12.541-3.49,15.349-5.98,15.496-7.453   c0.132-1.316-0.107-1.861-0.252-1.965c-1.4-1.01-7.693,1.836-10.719,3.202c-2.949,1.332-5.497,2.483-7.306,2.673   c-3.224,0.342-6.766-1.026-9.067-3.403c-0.403,0.054-0.797,0.089-1.178,0.106c-3.504,0.158-6.179-1.1-7.514-3.557   c-1.332-2.447-1.41-5.362-0.227-8.428C7.29,13.581,13.239,8.425,16.39,7.323l1.402,4.012c-1.794,0.628-6.936,4.81-8.687,9.347   c-0.73,1.894-0.731,3.531-0.004,4.869c0.433,0.795,1.313,1.242,2.625,1.333c-0.429-1.802-0.233-3.702,0.605-5.502   c2.114-4.535,6.932-5.655,10.365-4.118c2.979,1.334,4.194,4.284,2.953,7.175c-0.875,2.039-3.47,3.897-6.406,5.14   c1.096,0.507,2.314,0.748,3.438,0.629c1.128-0.119,3.606-1.238,6.001-2.32c5.681-2.564,11.556-5.218,14.947-2.78   c1.601,1.15,2.274,3.115,2.002,5.84c-0.565,5.649-9.891,8.704-18.587,11.124C26.375,42.258,25.804,42.416,25.368,42.548z    M19.581,20.865c-1.188,0-2.583,0.566-3.396,2.312c-0.498,1.067-0.57,2.106-0.22,3.101c2.896-0.906,5.379-2.58,5.78-3.516   c0.137-0.318,0.457-1.063-0.784-1.618C20.586,20.976,20.104,20.865,19.581,20.865z"/><path fill="#000000" d="M18.85,11.721c-1.631,0-2.991-0.879-3.463-2.241c-0.632-1.825,0.568-3.905,2.676-4.637l12.564-4.36   c0.494-0.171,1.002-0.258,1.51-0.258c1.633,0,2.992,0.88,3.463,2.241c0.316,0.909,0.195,1.9-0.34,2.79   c-0.509,0.845-1.338,1.501-2.334,1.847l-12.566,4.36C19.866,11.634,19.358,11.721,18.85,11.721z M32.136,1.774   c-0.335,0-0.672,0.059-1.002,0.173L18.57,6.308c-1.3,0.451-2.072,1.646-1.719,2.664c0.34,0.982,1.725,1.471,3,1.026l12.566-4.36   c0.654-0.227,1.191-0.646,1.513-1.181c0.294-0.489,0.367-1.016,0.204-1.482C33.882,2.245,33.098,1.774,32.136,1.774z"/><path fill="#000000" d="M9.072,49.775c-1.632,0-2.991-0.881-3.464-2.242c-0.632-1.824,0.568-3.904,2.675-4.637l12.565-4.36   c0.493-0.171,1.001-0.258,1.509-0.258c1.631,0,2.991,0.88,3.464,2.241c0.314,0.909,0.193,1.9-0.342,2.791   c-0.508,0.844-1.337,1.5-2.334,1.846l-12.564,4.361C10.088,49.688,9.58,49.775,9.072,49.775z M22.357,39.828   c-0.335,0-0.672,0.059-1.001,0.173l-12.565,4.36c-1.3,0.451-2.071,1.646-1.719,2.664c0.34,0.982,1.726,1.469,3,1.027l12.564-4.361   c0.655-0.227,1.192-0.646,1.514-1.181c0.294-0.489,0.367-1.016,0.205-1.483C24.104,40.299,23.319,39.828,22.357,39.828z"/></g></svg>