<svg fill="#000000" xmlns="http://www.w3.org/2000/svg" xmlns:xlink="http://www.w3.org/1999/xlink" version="1.1" x="0px" y="0px" viewBox="0 0 100 100" style="enable-background:new 0 0 100 100;" xml:space="preserve"><path d="M50,5C25.2,5,5,25.2,5,50c0,24.8,20.2,45,45,45c24.8,0,45-20.2,45-45C95,25.2,74.8,5,50,5z M18.2,50  c0-17.6,14.3-31.8,31.8-31.8c6.4,0,12.4,1.9,17.4,5.2l-44,44C20.1,62.4,18.2,56.4,18.2,50z M50,81.8c-6.4,0-12.4-1.9-17.4-5.2l44-44  c3.3,5,5.2,11,5.2,17.4C81.8,67.6,67.6,81.8,50,81.8z"/></svg>