<svg xmlns="http://www.w3.org/2000/svg" xmlns:xlink="http://www.w3.org/1999/xlink" version="1.1" id="Your_Icon" x="0px" y="0px" width="100px" height="100px" viewBox="0 0 100 100" enable-background="new 0 0 100 100" xml:space="preserve">
<g>
	<path fill="#000000" d="M82.97,12.891c0.699-0.191,1.507-0.087,2.071,0.392c3.309,2.806,6.205,6.106,8.5,9.789   c5.739,9.067,7.769,20.369,5.625,30.874c-1.391,6.882-4.533,13.398-9.059,18.77c-0.424,0.592-1.147,0.973-1.879,0.928   c-1.195,0.066-2.252-1.065-2.189-2.239c-0.025-0.528,0.204-1.029,0.529-1.431c3.682-4.332,6.383-9.501,7.773-15.014   c2.227-8.503,1.312-17.778-2.491-25.702c-2.274-4.808-5.618-9.097-9.668-12.539c-0.946-0.768-1.038-2.321-0.204-3.204   C82.242,13.22,82.588,13,82.97,12.891z"/>
	<g>
		<path fill="#000000" d="M28.587,18.566c1.432-0.088,2.871-0.15,4.307-0.085c6.191,0.245,12.299,2.396,17.291,6.078    c3.453,2.547,6.399,5.789,8.56,9.499c2.303,3.921,3.744,8.352,4.146,12.882c0.118,0.399,0.092,0.815,0.107,1.228    c0.264,4.387-0.408,8.829-1.965,12.94c-2.805,7.542-8.649,13.89-15.919,17.335c-2.947,1.409-6.115,2.355-9.353,2.778    c-0.22,0.007-0.439,0.021-0.646,0.102c-5.646,0.593-11.463-0.246-16.639-2.623c-4.052-1.833-7.696-4.55-10.632-7.889    c-3.84-4.346-6.436-9.773-7.405-15.487c-0.165-0.94-0.241-1.895-0.37-2.841c-0.122-2.435-0.12-4.888,0.287-7.297    c0.687-4.575,2.417-8.986,5.009-12.816c4.91-7.349,13.043-12.487,21.823-13.607C27.644,18.609,28.129,18.691,28.587,18.566z     M36.167,26.489c-1.229,0.197-2.439,0.518-3.587,1.003c-2.834,1.184-5.248,3.271-6.987,5.79    c-3.029,4.375-4.139,9.883-3.656,15.135c0.207,1.247,0.293,2.521,0.639,3.743c0.968,3.955,2.86,7.714,5.62,10.724    c2.218,2.408,5.019,4.348,8.175,5.291c1.854,0.595,3.827,0.768,5.764,0.633c0.799-0.064,1.571-0.287,2.359-0.429    c3.529-0.941,6.619-3.254,8.717-6.224c2.718-3.807,3.946-8.542,3.922-13.184c-0.008-1.731-0.27-3.448-0.579-5.147    c-1.132-5.359-3.987-10.454-8.347-13.84c-2.25-1.739-4.903-2.985-7.718-3.439C39.062,26.306,37.602,26.347,36.167,26.489z"/>
	</g>
	<path fill="#000000" d="M76.535,20.503c0.664-0.193,1.414-0.069,1.965,0.356c4.738,3.959,8.298,9.322,10.077,15.233   c2.172,7.051,1.839,14.853-0.989,21.67c-1.106,2.742-2.62,5.317-4.439,7.649c-0.357,0.444-0.691,0.914-1.119,1.295   c-0.85,0.697-2.209,0.63-2.97-0.168c-0.713-0.686-0.845-1.856-0.357-2.706c0.117-0.186,0.257-0.354,0.397-0.521   c4.203-5.024,6.559-11.575,6.414-18.133c-0.015-3.657-0.816-7.308-2.264-10.664c-1.67-3.892-4.263-7.375-7.488-10.118   c-0.521-0.422-0.859-1.083-0.815-1.762C74.901,21.665,75.617,20.766,76.535,20.503z"/>
	<path fill="#000000" d="M70.318,28.084c0.59-0.104,1.217,0.058,1.703,0.401c3.357,2.782,5.848,6.59,7.059,10.779   c1.803,5.988,0.89,12.725-2.443,18.02c-0.56,0.915-1.199,1.779-1.887,2.604c-0.434,0.539-1.133,0.868-1.827,0.82   c-0.854,0.011-1.638-0.582-1.978-1.348c-0.35-0.789-0.172-1.769,0.418-2.396c2.164-2.574,3.584-5.77,4.017-9.105   c0.381-3.102-0.022-6.307-1.233-9.191c-0.92-2.173-2.262-4.174-3.959-5.816c-0.393-0.417-0.861-0.75-1.246-1.172   c-0.477-0.561-0.58-1.346-0.396-2.042C68.787,28.846,69.488,28.2,70.318,28.084z"/>
	<g>
		<path fill="#000000" d="M37.881,28.549c4.011-0.203,7.934,1.562,10.824,4.275c2.35,2.148,4.081,4.914,5.234,7.867    c0.887,2.354,1.412,4.852,1.506,7.364c0.057,0.689,0.053,1.387-0.025,2.074c-0.02,1.707-0.375,3.394-0.822,5.035    c-0.547,1.736-1.27,3.428-2.283,4.946c-1.78,2.723-4.438,4.923-7.559,5.903c-3.052,0.998-6.445,0.729-9.375-0.544    c-3.697-1.582-6.677-4.569-8.619-8.058c-3.223-5.73-3.872-12.909-1.485-19.062c1.162-2.897,3.033-5.568,5.605-7.377    C32.919,29.522,35.375,28.631,37.881,28.549z M37.32,32.369c-2.16,0.396-4.225,1.377-5.82,2.899    c-2.408,2.211-3.824,5.335-4.361,8.523c-0.522,3.071-0.204,6.267,0.809,9.208c1.249,3.624,3.638,6.946,6.972,8.912    c2.754,1.635,6.215,2.197,9.276,1.136c3.671-1.21,6.436-4.408,7.668-8.005c1.189-3.174,1.273-6.692,0.6-9.991    c-0.754-3.408-2.417-6.654-4.947-9.083c-1.471-1.396-3.219-2.539-5.168-3.136C40.742,32.275,39.001,32.143,37.32,32.369z"/>
	</g>
	<path fill="#000000" d="M38.917,40.729c1.235-0.237,2.547,0.024,3.622,0.673c1.48,0.841,2.538,2.285,3.154,3.849   c0.621,1.653,0.758,3.498,0.311,5.212c-0.44,1.738-1.553,3.38-3.208,4.156c-0.545,0.236-1.122,0.439-1.723,0.438   c-1.599,0.142-3.157-0.597-4.3-1.674c-2.194-2.13-3.001-5.511-2.138-8.426C35.207,42.951,36.793,41.107,38.917,40.729z"/>
</g>
</svg>
