<svg xmlns="http://www.w3.org/2000/svg" xmlns:xlink="http://www.w3.org/1999/xlink" version="1.1" x="0px" y="0px" viewBox="0 0 100 100" enable-background="new 0 0 100 100" xml:space="preserve"><g><path fill="#000000" d="M50,24.508c-3.914,0-7.213,2.808-7.213,6.394c0,0.417,0.392,0.778,0.811,0.778   c0.419,0,0.783-0.361,0.783-0.778c0-2.613,2.46-4.837,5.62-4.837s5.62,2.224,5.62,4.837c0,3.447-1.37,4.726-2.992,6.422   c-1.565,1.64-3.327,3.614-3.411,7.506c-3.551,0.139-6.654,2.141-8.5,5.004c-0.447,0.75-0.755,1.584-1.174,2.279   c-0.419,0.5-1.258,1.195-2.572,1.891c-2.069,1.14-5.088,2.279-8.164,3.503c-3.104,1.195-6.319,2.502-9.086,4.559   c-2.796,2.058-5.229,5.338-5.229,9.508c0,2.085,1.733,3.92,3.831,3.92h33.663h0.643h29.05c2.097,0,3.83-1.835,3.83-3.92   c0-4.17-2.433-7.45-5.229-9.508c-2.768-2.057-5.983-3.363-9.087-4.559c-3.075-1.224-6.095-2.363-8.164-3.503   c-1.313-0.695-2.152-1.391-2.571-1.891c-0.42-0.695-0.728-1.529-1.175-2.279c-1.342-2.085-3.354-3.67-5.731-4.476   c-0.923-0.334-1.789-0.445-2.74-0.528c0.084-3.419,1.398-4.781,2.964-6.422c1.594-1.668,3.438-3.614,3.438-7.506   C57.213,27.315,53.914,24.508,50,24.508L50,24.508z M49.832,46.33c1.901,0.028,3.439,0.528,4.977,1.279   c1.343,0.667,2.404,1.835,3.188,3.169c0.392,0.667,0.587,1.39,1.007,2.057c0.531,0.89,1.621,1.696,3.243,2.586   c2.265,1.223,5.284,2.307,8.359,3.53c3.075,1.195,6.207,2.475,8.751,4.364c2.488,1.863,4.586,4.698,4.586,8.257   c0,1.195-1.175,2.363-2.265,2.363h-29.05h-0.643H18.323c-1.091,0-2.265-1.168-2.265-2.363c0-3.559,2.097-6.394,4.585-8.257   c2.544-1.89,5.676-3.169,8.751-4.364c3.076-1.224,6.095-2.308,8.36-3.53c1.622-0.89,2.712-1.696,3.243-2.586   c0.419-0.667,0.615-1.39,1.007-2.057c0.783-1.334,1.873-2.475,3.187-3.169C46.673,46.858,48.267,46.414,49.832,46.33L49.832,46.33z    M50,51.084c-2.292,0-3.802,1.057-4.501,2.669c-1.146,2.668-3.215,4.476-5.704,5.838c-2.712,1.445-5.871,2.558-8.863,3.753   c-2.992,1.167-5.788,2.418-7.689,3.809c-0.419,0.306-0.559,0.556-0.699,0.694c-0.503,0.417-0.14,1.362,0.503,1.362h28.938h0.643   h24.324c0.644,0,1.007-0.945,0.504-1.362c-0.141-0.139-0.28-0.389-0.699-0.694c-1.901-1.391-4.697-2.642-7.688-3.809   c-2.992-1.195-6.151-2.308-8.863-3.753c-2.488-1.362-4.418-3.253-5.704-5.838C53.522,51.834,52.013,51.084,50,51.084L50,51.084z    M50.112,52.558c1.538,0.25,2.489,0.75,2.936,1.807c1.369,3.113,3.774,5.171,6.402,6.589c2.852,1.557,6.067,2.696,9.03,3.836   c2.321,0.917,4.362,1.891,5.983,2.863H52.628h-0.643H25.536c1.622-0.973,3.663-1.946,5.983-2.863   c2.964-1.14,6.179-2.279,9.031-3.836c2.628-1.418,5.229-3.392,6.403-6.589C47.624,53.058,48.854,52.558,50.112,52.558   L50.112,52.558z"></path></g></svg>