<svg xmlns="http://www.w3.org/2000/svg" xmlns:xlink="http://www.w3.org/1999/xlink" version="1.1" x="0px" y="0px" viewBox="0 0 100 100" enable-background="new 0 0 100 100" xml:space="preserve"><path d="M5.604,81.356c-0.805,0-0.805-2.29,0-2.29h7.058V79.5c0,1.237-0.619,1.856-1.857,1.856H5.604z M92.709,77.58v0.867h-5.695  c0.062-5.015-3.962-9.101-9.101-9.101c-5.015,0-9.101,4.086-9.101,9.101H31.295c0-5.015-4.086-9.101-9.1-9.101  c-5.139,0-9.163,4.086-9.101,9.101H7.708v-1.486H5.356V66.685h2.353V58.76l3.467-17.582c0.186-1.114,0.867-1.671,1.981-1.671h10.834  v-2.353h-4.706v-1.672H55.44v1.672h-3.529v2.476h7.553l6.314,0.248c0.99,0.062,1.672,0.434,2.167,1.3l6.81,11.887l16.406,0.495  c1.114,0.062,1.547,0.991,1.547,2.105v11.639H95V77.58H92.709z M30.615,42.911c0-1.176-0.619-1.856-1.857-1.856H15.199  c-1.176,0-1.857,0.557-2.043,1.671l-1.548,8.729c-0.248,1.238,0.372,1.98,1.672,1.98h15.477c1.176,0,1.857-0.681,1.857-1.857V42.911  z M30.12,83.152c0,4.334-3.467,7.924-7.924,7.924c-4.333,0-7.924-3.467-7.924-7.924c0-4.396,3.591-7.986,7.924-7.986  S30.12,78.757,30.12,83.152z M16.5,27.062c0-4.396,3.591-7.985,7.924-7.985c1.238,0,2.353,0.309,3.405,0.804l2.848-4.209L30.12,14  l1.548-0.186l0.433,1.362l12.939-1.425l-0.248-0.928l2.105-0.558l1.177,4.396l-2.167,0.558l-7.986,8.357  c0.372,0.434,0.619,1.053,0.619,1.672c0,1.485-1.114,2.6-2.6,2.6c-1.238,0-2.291-0.805-2.539-1.981h-1.114  c-0.371,3.963-3.714,7.12-7.862,7.12C20.09,34.987,16.5,31.521,16.5,27.062z M27.024,83.152c0-2.725-2.229-4.829-4.891-4.829  c-2.601,0-4.705,2.104-4.705,4.829c0,2.6,2.104,4.767,4.705,4.767C24.795,87.919,27.024,85.752,27.024,83.152z M18.295,27.062  c0,3.344,2.786,6.129,6.191,6.129c3.033,0,5.572-2.29,6.005-5.262l-6.996,0.248l-0.248-1.548l3.591-5.263  c-0.743-0.31-1.548-0.495-2.353-0.495C21.081,20.872,18.295,23.658,18.295,27.062z M23.743,74.237c-1.053-0.434-2.105-0.434-3.034,0  v-3.715c0.991-0.495,2.043-0.433,3.034,0V74.237z M30.553,26.63c-0.124-1.92-1.114-3.591-2.6-4.644l-3.467,4.829L30.553,26.63z   M49.001,37.154H26.9v2.414l22.102,0.062V37.154z M28.077,13.566c-0.62-0.619-0.558-1.176,0-1.795c2.167-0.248,4.333-0.186,6.624,0  c0.557,0.372,0.433,0.681,0,1.053L28.077,13.566z M29.005,20.562c1.857,1.361,3.158,3.529,3.281,6.005H33.4  c0.124-0.433,0.31-0.743,0.558-1.053l-2.663-8.048L29.005,20.562z M35.381,24.71c0.186-0.062,0.372-0.062,0.558-0.062  c0.248,0,0.433,0,0.681,0.062l8.854-9.286l-0.062-0.247L32.72,16.848L35.381,24.71z M52.778,42.911c0-1.176-0.619-1.856-1.857-1.856  H35.258c-1.176,0-1.857,0.618-1.857,1.856v8.667c0,1.177,0.681,1.857,1.857,1.857H50.92c1.177,0,1.857-0.619,1.857-1.857V42.911z   M48.506,19.2c0.433-0.062,0.867-0.123,1.362-0.123c4.396,0,7.924,3.59,7.924,7.985c0,4.458-3.529,7.925-7.924,7.925  c-4.519,0-7.986-3.591-7.986-7.925c0-3.343,2.104-6.252,5.014-7.429l-0.371-1.485l1.609-0.372L48.506,19.2z M49.745,20.872  c-0.248,0-0.558,0-0.805,0.062l1.733,6.811l-1.547,0.434l-1.733-6.811c-2.167,0.929-3.653,3.157-3.653,5.695  c0,3.405,2.662,6.129,6.005,6.129c3.405,0,6.191-2.724,6.191-6.129C55.936,23.658,53.149,20.872,49.745,20.872z M49.249,10.967  l-4.643,1.362v-1.425l4.148-1.176c0.124-0.495,0.619-0.867,1.114-0.867c0.619,0,1.114,0.558,1.114,1.177s-0.495,1.114-1.114,1.114  C49.621,11.152,49.435,11.091,49.249,10.967z M69.184,53.498c1.176,0,2.414-0.805,1.857-1.857l-4.581-8.667  c-0.805-1.486-1.176-1.857-2.415-1.857H57.05c-1.176,0-1.857,0.619-1.857,1.857v8.667c0,1.176,0.681,1.857,1.857,1.857H69.184z   M85.837,83.214c0,4.458-3.529,7.925-7.924,7.925c-4.52,0-7.986-3.591-7.986-7.925c0-4.396,3.591-7.986,7.986-7.986  S85.837,78.818,85.837,83.214z M82.68,83.214c0-2.724-2.229-4.829-4.891-4.829c-2.6,0-4.705,2.105-4.705,4.829  c0,2.601,2.104,4.768,4.705,4.768C80.451,87.981,82.68,85.814,82.68,83.214z M79.461,74.237c-1.053-0.434-2.105-0.434-3.034,0  v-3.715c0.991-0.495,2.043-0.433,3.034,0V74.237z"></path></svg>