<svg xmlns="http://www.w3.org/2000/svg" xmlns:xlink="http://www.w3.org/1999/xlink" version="1.1" x="0px" y="0px" viewBox="0 0 90 90" enable-background="new 0 0 90 90" xml:space="preserve"><g><path fill-rule="evenodd" clip-rule="evenodd" d="M65.093,8.223c0.198,0.022,0.357,0.107,0.478,0.255l16.182,18.016   c0.12,0.148,0.181,0.321,0.181,0.52c0,0.169-0.074,0.329-0.223,0.477l-3.67,3.68c-0.099,0.091-0.208,0.162-0.328,0.211   c-0.149,0.029-0.285,0.018-0.414-0.031c-0.12-0.049-0.229-0.109-0.328-0.18L60.427,12.783c-0.099-0.127-0.148-0.25-0.148-0.371   c-0.049-0.148-0.049-0.283,0-0.403c0.05-0.121,0.136-0.219,0.256-0.298l4.05-3.308C64.726,8.254,64.896,8.195,65.093,8.223z    M57.193,14.691c0.148-0.148,0.317-0.209,0.509-0.18c0.178,0.021,0.336,0.105,0.478,0.254l16.584,18.016   c0.12,0.12,0.181,0.279,0.181,0.477s-0.061,0.372-0.181,0.52L60.13,48.994C59.176,56.306,55.868,61.306,50.205,64   c-6.25,2.968-8.995,6.437-8.239,10.402c1.032,4.955,0.336,7.776-2.088,8.462c-0.05,0.021-0.099,0.032-0.148,0.032   c-2.722,0.366-4.843-0.379-6.363-2.237c-3.754-4.489-3.839-9.516-0.255-15.079c0.021-0.021,0.042-0.047,0.064-0.075   c3.167-3.507,3.977-6.164,2.428-7.974H15.711c-0.042,0-0.078,0-0.106,0c-2.425-0.396-4.043-1.329-4.856-2.799   c-0.855-1.442-0.905-3.404-0.149-5.886l7.54-22.353c0-0.021,0.014-0.046,0.042-0.074c2.623-5.762,5.748-8.262,9.374-7.498h24.304   L57.193,14.691z"></path></g></svg>