<svg xmlns="http://www.w3.org/2000/svg" xmlns:xlink="http://www.w3.org/1999/xlink" version="1.1" x="0px" y="0px" viewBox="0 0 100 100" enable-background="new 0 0 100 100" xml:space="preserve"><g><rect x="-744" y="-414" width="185" height="99"></rect><rect x="-552" y="-450" width="100" height="30"></rect><text transform="matrix(1 0 0 1 -486 -433.5)" fill="#000000" font-family="'Helvetica'" font-size="2.4">http://thenounproject.com</text><text transform="matrix(1 0 0 1 -544.834 -438.5)"><tspan x="0" y="0" fill="#000000" font-family="'Helvetica-Bold'" font-size="6.1578">The Noun Project</tspan><tspan x="1.12" y="4.8" fill="#000000" font-family="'Helvetica-Bold'" font-size="4">Icon Template</tspan></text><text transform="matrix(1 0 0 1 -730.5 -403.5)" fill="#000000" font-family="'Helvetica-Bold'" font-size="6.1578">Reminders</text><line fill="#000000" stroke="#FFFFFF" stroke-miterlimit="10" x1="-544" y1="-428.5" x2="-534" y2="-428.5"></line><line fill="#000000" stroke="#FFFFFF" stroke-miterlimit="10" x1="-731" y1="-397.5" x2="-714" y2="-397.5"></line><g><g><g><rect x="-722.802" y="-382.682" fill="#000000" width="8.721" height="8.642"></rect><path fill="#000000" d="M-716.455-371.688h4.747v-4.703h-4.747V-371.688z M-711.266-371.251h-5.63v-5.579h5.63V-371.251      L-711.266-371.251z M-718.221-369.938h8.279v-8.203h-8.279V-369.938L-718.221-369.938z M-709.5-369.5h-9.163v-9.079h9.163      V-369.5L-709.5-369.5z"></path><polygon fill="#000000" points="-718.149,-369.867 -718.292,-370.009 -710.013,-378.213 -709.871,-378.071     "></polygon></g></g></g><rect x="-731" y="-356" fill="none" width="35" height="32.5"></rect><text transform="matrix(1 0 0 1 -731 -353.8428)"><tspan x="0" y="0" fill="#000000" font-family="'Helvetica-Bold'" font-size="3">Strokes</tspan><tspan x="0" y="5" fill="#000000" font-family="'Helvetica'" font-size="2.4">Try to keep strokes at 4px</tspan><tspan x="0" y="10" fill="#000000" font-family="'Helvetica'" font-size="2.4">Minimum stroke weight is 2px</tspan><tspan x="0" y="14.5" fill="#000000" font-family="'Helvetica'" font-size="2.4">For thicker strokes use even </tspan><tspan x="0" y="17.5" fill="#000000" font-family="'Helvetica'" font-size="2.4">numbers: 6px, 8px etc.</tspan><tspan x="0" y="22" fill="#000000" font-family="'Helvetica-Bold'" font-size="2.4">Remember to expand strokes </tspan><tspan x="0" y="25" fill="#000000" font-family="'Helvetica-Bold'" font-size="2.4">before saving as an SVG </tspan></text><rect x="-688.5" y="-356" fill="none" width="35" height="32.5"></rect><text transform="matrix(1 0 0 1 -688.5 -353.8428)"><tspan x="0" y="0" fill="#000000" font-family="'Helvetica-Bold'" font-size="3">Size</tspan><tspan x="0" y="5" fill="#000000" font-family="'Helvetica'" font-size="2.4">Cannot be wider or taller than </tspan><tspan x="0" y="8.5" fill="#000000" font-family="'Helvetica'" font-size="2.4">100px (artboard size)</tspan><tspan x="0" y="13.5" fill="#000000" font-family="'Helvetica'" font-size="2.4">Scale your icon to fill as much of </tspan><tspan x="0" y="16.5" fill="#000000" font-family="'Helvetica'" font-size="2.4">the artboard as possible</tspan></text><rect x="-646" y="-356" fill="none" width="35" height="32.5"></rect><text transform="matrix(1 0 0 1 -646 -353.8428)"><tspan x="0" y="0" fill="#000000" font-family="'Helvetica-Bold'" font-size="3">Ungroup</tspan><tspan x="0" y="5" fill="#000000" font-family="'Helvetica'" font-size="2.4">If your design has more than one </tspan><tspan x="0" y="8" fill="#000000" font-family="'Helvetica'" font-size="2.4">shape, make sure to ungroup</tspan></text><rect x="-602" y="-356" fill="none" width="35" height="32.5"></rect><text transform="matrix(1 0 0 1 -602 -353.8428)"><tspan x="0" y="0" fill="#000000" font-family="'Helvetica-Bold'" font-size="3">Save as</tspan><tspan x="0" y="5" fill="#000000" font-family="'Helvetica'" font-size="2.4">Save as .SVG and make sure </tspan><tspan x="0" y="8" fill="#000000" font-family="'Helvetica'" font-size="2.4">“Use Artboards” is checked</tspan></text><text transform="matrix(1.0074 0 0 1 -677.542 -383.4067)" fill="#000000" font-family="'Helvetica'" font-size="2.5731">100px</text><text transform="matrix(1.0074 0 0 1 -593 -375)" fill="#000000" font-family="'Helvetica-Bold'" font-size="5.1462">.SVG</text><rect x="-678.514" y="-379.185" fill="#000000" width="10.261" height="10.185"></rect><rect x="-678.477" y="-382.234" fill="#000000" width="0.522" height="2.337"></rect><rect x="-668.812" y="-382.234" fill="#000000" width="0.523" height="2.337"></rect><rect x="-679" y="-381.663" fill="#000000" width="11.233" height="0.572"></rect><g><rect x="-635.805" y="-380.156" fill="#000000" width="10.305" height="10.156"></rect><rect x="-628.809" y="-385.293" fill="#000000" width="3.308" height="3.261"></rect></g><rect x="-730.5" y="-391.5" fill="#000000" stroke="#FFFFFF" stroke-miterlimit="10" width="30" height="30"></rect><rect x="-688.5" y="-391.5" fill="#000000" stroke="#FFFFFF" stroke-miterlimit="10" width="30" height="30"></rect><rect x="-645.5" y="-391.5" fill="#000000" stroke="#FFFFFF" stroke-miterlimit="10" width="30" height="30"></rect><rect x="-601.5" y="-391.5" fill="#000000" stroke="#FFFFFF" stroke-miterlimit="10" width="30" height="30"></rect></g><g><path d="M-379.086-333.323h30.168c3.967,0,7.21-3.244,7.21-7.211v-61.452c0-2.786-1.615-5.186-3.939-6.386v-3.464   c0-1.189-0.974-2.163-2.163-2.163h-1.279c-1.189,0-2.163,0.974-2.163,2.163v2.641h-27.833c-3.967,0-7.21,3.243-7.21,7.21v61.452   C-386.296-336.567-383.053-333.323-379.086-333.323z M-376.646-339.76h-0.627c-1.98,0-3.604-1.447-3.604-3.216   c0-1.768,1.624-3.216,3.604-3.216h0.627c1.98,0,3.604,1.448,3.604,3.216C-373.043-341.207-374.666-339.76-376.646-339.76z    M-376.646-350.709h-0.627c-1.98,0-3.604-1.447-3.604-3.216s1.624-3.216,3.604-3.216h0.627c1.98,0,3.604,1.447,3.604,3.216   S-374.666-350.709-376.646-350.709z M-376.646-361.654h-0.627c-1.98,0-3.604-1.448-3.604-3.216c0-1.768,1.624-3.215,3.604-3.215   h0.627c1.98,0,3.604,1.447,3.604,3.215C-373.043-363.102-374.666-361.654-376.646-361.654z M-363.688-339.76h-0.625   c-1.982,0-3.605-1.447-3.605-3.216c0-1.768,1.623-3.216,3.605-3.216h0.625c1.982,0,3.605,1.448,3.605,3.216   C-360.082-341.207-361.705-339.76-363.688-339.76z M-363.688-350.709h-0.625c-1.982,0-3.605-1.447-3.605-3.216   s1.623-3.216,3.605-3.216h0.625c1.982,0,3.605,1.447,3.605,3.216S-361.705-350.709-363.688-350.709z M-363.688-361.654h-0.625   c-1.982,0-3.605-1.448-3.605-3.216c0-1.768,1.623-3.215,3.605-3.215h0.625c1.982,0,3.605,1.447,3.605,3.215   C-360.082-363.102-361.705-361.654-363.688-361.654z M-350.727-339.76h-0.626c-1.981,0-3.605-1.447-3.605-3.216   c0-1.768,1.624-3.216,3.605-3.216h0.626c1.981,0,3.604,1.448,3.604,3.216C-347.122-341.207-348.745-339.76-350.727-339.76z    M-350.727-350.709h-0.626c-1.981,0-3.605-1.447-3.605-3.216s1.624-3.216,3.605-3.216h0.626c1.981,0,3.604,1.447,3.604,3.216   S-348.745-350.709-350.727-350.709z M-350.727-361.654h-0.626c-1.981,0-3.605-1.448-3.605-3.216c0-1.768,1.624-3.215,3.605-3.215   h0.626c1.981,0,3.604,1.447,3.604,3.215C-347.122-363.102-348.745-361.654-350.727-361.654z M-381.145-399.655   c0-1.983,1.624-3.606,3.607-3.606h27.074c1.983,0,3.604,1.624,3.604,3.606v19.157c0,1.983-1.621,3.605-3.604,3.605h-27.074   c-1.983,0-3.607-1.622-3.607-3.605V-399.655z M-337.702-361.377v20.843c0,6.185-5.031,11.217-11.216,11.217h-30.168   c-6.186,0-11.216-5.032-11.216-11.217v-20.843c-5.218,1.979-8.942,7.014-8.942,12.913v20.644c0,7.62,6.2,13.82,13.82,13.82h42.848   c7.62,0,13.82-6.2,13.82-13.82v-20.644C-328.756-354.365-332.483-359.401-337.702-361.377z M-340.479-320.498   c-1.537,0-2.783-1.247-2.783-2.785c0-1.537,1.246-2.785,2.783-2.785s2.785,1.248,2.785,2.785   C-337.694-321.745-338.942-320.498-340.479-320.498z"></path><path d="M-178.051-387.062c-1.877-4.161-5.93-9.584-14.553-11.801c-10.086-2.594-18.223-0.386-24.758,1.391   c-4.867,1.321-9.074,2.465-12.869,1.382c-0.221-0.064-0.445-0.094-0.668-0.104c-0.24-0.2-0.486-0.401-0.705-0.604   c-6.322-5.885-16.082-8.969-24.848-7.847c-7.08,0.902-12.93,4.457-16.467,10.009c-3.955,6.198-4.113,14.095-0.424,20.606   c3.742,6.598,10.561,10.528,18.414,10.771v31.393l0.877,0.876c4.939,4.94,15.373,7.862,28.012,7.862   c0.26,0,0.525-0.002,0.791-0.004c9.891-0.096,22.473-2.209,28.119-7.858l0.877-0.876v-25.074c0.375,0.018,0.752,0.066,1.125,0.066   c1.717,0,3.42-0.179,5.074-0.576c5.188-1.247,9.252-4.508,11.756-9.436C-175.828-371.74-174.793-379.863-178.051-387.062z    M-183.631-369.598c-1.734,3.413-4.291,5.481-7.818,6.329c-6.854,1.646-15.787-1.884-21.596-6.114   c-12.924-9.409-24.609-12.424-31.258-8.072c-1.383,0.907-1.77,2.762-0.863,4.145c0.906,1.38,2.76,1.767,4.143,0.861   c4.281-2.807,14.107,0.37,24.457,7.904c3.695,2.69,8.852,5.348,14.33,6.715v23.369c-4.086,3.136-13.084,5.248-23.07,5.345   c-10.34,0.098-19.357-1.971-23.637-5.333v-28.737c7.381,0.302,11.035,2.055,14.402,4.84c0.559,0.462,1.234,0.686,1.906,0.686   c0.861,0,1.713-0.368,2.307-1.083c1.053-1.273,0.875-3.159-0.398-4.213c-4.961-4.104-10.521-6.568-22.889-6.231   c-6.24,0.178-11.656-2.738-14.52-7.792c-2.637-4.649-2.539-10.047,0.262-14.438c3.291-5.162,8.438-6.813,12.178-7.291   c7.08-0.905,14.938,1.564,20.018,6.294c5.291,4.924,18.271,10.17,23.559,9.521c1.639-0.205,2.805-1.699,2.602-3.339   c-0.203-1.641-1.693-2.802-3.338-2.603c-1.221,0.167-4.133-0.519-7.404-1.72c1.475-0.338,2.959-0.734,4.467-1.144   c6.463-1.754,13.145-3.569,21.699-1.372c5.078,1.308,8.641,4.157,10.594,8.47C-181.078-379.235-181.869-373.061-183.631-369.598z    M-244.799-353.301c-1.102,0-1.994,0.892-1.994,1.994v14.629c0,1.101,0.893,1.995,1.994,1.995c1.104,0,1.996-0.895,1.996-1.995   v-14.629C-242.803-352.409-243.695-353.301-244.799-353.301z M-237.113-351.307c-1.102,0-1.994,0.893-1.994,1.995v14.629   c0,1.101,0.893,1.994,1.994,1.994c1.1,0,1.994-0.894,1.994-1.994v-14.629C-235.119-350.414-236.014-351.307-237.113-351.307z    M-231.424-348.003v14.629c0,1.101,0.893,1.995,1.994,1.995s1.996-0.895,1.996-1.995v-14.629c0-1.103-0.895-1.995-1.996-1.995   S-231.424-349.105-231.424-348.003z M-221.746-331.379c1.102,0,1.994-0.895,1.994-1.995v-14.629c0-1.103-0.893-1.995-1.994-1.995   s-1.994,0.893-1.994,1.995v14.629C-223.74-332.273-222.848-331.379-221.746-331.379z M-214.062-332.688   c1.102,0,1.996-0.894,1.996-1.994v-14.629c0-1.103-0.895-1.995-1.996-1.995c-1.1,0-1.994,0.893-1.994,1.995v14.629   C-216.057-333.582-215.162-332.688-214.062-332.688z M-206.377-334.683c1.102,0,1.994-0.895,1.994-1.995v-14.629   c0-1.103-0.893-1.994-1.994-1.994c-1.104,0-1.994,0.892-1.994,1.994v14.629C-208.371-335.577-207.48-334.683-206.377-334.683z"></path><path d="M-478.652-390.179c-0.152,0-0.298,0.019-0.447,0.027c0.01-0.265,0.032-0.525,0.032-0.793   c0-13.143-9.86-23.055-22.931-23.055c-12.909,0-22.668,9.672-22.909,22.571c-0.147-0.01-0.291-0.03-0.44-0.03   c-4.475,0-8.114,3.762-8.114,8.389c0,4.625,3.64,8.388,8.114,8.388c0.538,0,1.067-0.073,1.59-0.185   c1.761,6.115,4.785,16.522,7.887,26.848C-505.649-314-504.873-314-502.569-314c2.281,0,3.051,0,13.861-33.982   c3.091-9.717,6.111-19.505,8.016-25.724c0.663,0.182,1.339,0.305,2.04,0.305c4.475,0,8.114-3.764,8.114-8.387   C-470.538-386.416-474.178-390.179-478.652-390.179z M-520.055-390.945c0-10.535,7.594-18.181,18.057-18.181   c10.462,0,18.056,7.646,18.056,18.181c0,1.033-0.092,2.042-0.234,3.032c-0.286,0.279-0.562,0.574-0.808,0.898   c-0.946-0.394-1.963-0.6-3.007-0.6c-2.458,0-4.713,1.146-6.217,3.024c-2.497-1.079-5.575-0.727-7.792,0.888   c-2.115-1.542-5.013-1.953-7.462-1.014c-1.488-2.12-3.889-3.448-6.547-3.448c-0.887,0-1.76,0.152-2.59,0.448   c-0.385-0.6-0.847-1.139-1.361-1.614C-520.001-389.865-520.055-390.398-520.055-390.945z M-515.923-365.344l1.252-1.341   l3.035,3.248l-2.836,3.035C-514.96-362.061-515.444-363.707-515.923-365.344z M-517.06-369.242l1.276,1.366l-0.67,0.719   C-516.657-367.859-516.857-368.548-517.06-369.242z M-511.474-370.106c0.961,0.737,2.078,1.249,3.287,1.486l0.698,0.746   l-3.037,3.246l-3.033-3.248L-511.474-370.106z M-496.369-368.519c1.302-0.16,2.515-0.65,3.567-1.391l1.9,2.034l-3.037,3.248   l-3.033-3.246L-496.369-368.519z M-495.049-363.437l-3.035,3.25l-3.035-3.249l3.035-3.247L-495.049-363.437z M-502.23-344.492   l3.034,3.25l-3.035,3.248l-3.035-3.248L-502.23-344.492z M-506.378-342.434l-3.036-3.248l3.036-3.25l3.035,3.25L-506.378-342.434z    M-501.119-345.682l3.035-3.25l3.035,3.25l-3.035,3.248L-501.119-345.682z M-502.23-346.873l-3.036-3.248l3.036-3.248l3.034,3.248   L-502.23-346.873z M-506.378-357.809l3.035,3.248l-3.035,3.25l-3.035-3.248L-506.378-357.809z M-510.525-355.748l-3.033-3.25   l3.033-3.25l3.037,3.25L-510.525-355.748z M-501.119-354.561l3.035-3.248l3.035,3.25l-3.035,3.248L-501.119-354.561z    M-496.972-358.998l3.033-3.25l3.037,3.25l-3.037,3.25L-496.972-358.998z M-499.196-358.998l-3.034,3.25l-3.036-3.25l3.036-3.25   L-499.196-358.998z M-506.378-360.188l-3.035-3.25l3.035-3.246l3.035,3.247L-506.378-360.188z M-513.256-356.295l1.62,1.736   l-0.838,0.895C-512.733-354.539-512.994-355.414-513.256-356.295z M-510.525-353.369l3.035,3.248l-2.965,3.176   c-0.489-1.619-0.982-3.256-1.479-4.916L-510.525-353.369z M-509.317-343.199l1.827,1.957l-0.925,0.99   C-508.712-341.219-509.013-342.201-509.317-343.199z M-506.378-340.053l3.035,3.25l-2.997,3.207   c-0.491-1.555-0.998-3.172-1.522-4.867L-506.378-340.053z M-505.146-329.857l1.804,1.93l-0.867,0.93   C-504.51-327.898-504.822-328.854-505.146-329.857z M-505.267-332.365l3.036-3.248l3.034,3.248l-3.034,3.248L-505.267-332.365z    M-500.027-329.096c-0.203,0.594-0.397,1.148-0.591,1.707l-0.501-0.539L-500.027-329.096z M-498.406-333.9l-2.713-2.902l3.035-3.25   l1.263,1.35C-497.365-337.039-497.896-335.432-498.406-333.9z M-496.972-341.242l1.498-1.605c-0.261,0.803-0.518,1.602-0.771,2.383   L-496.972-341.242z M-494.117-347.066l-2.854-3.055l3.033-3.248l1.365,1.457C-493.093-350.273-493.608-348.662-494.117-347.066z    M-492.826-354.559l1.643-1.758c-0.276,0.879-0.552,1.752-0.828,2.627L-492.826-354.559z M-489.926-360.332l-2.9-3.105l3.035-3.248   l1.384,1.48C-488.908-363.589-489.414-361.965-489.926-360.332z M-488.68-367.875l1.641-1.756c-0.27,0.874-0.54,1.755-0.815,2.64   L-488.68-367.875z M-489.791-369.064l-1.78-1.907c0.156-0.165,0.313-0.331,0.457-0.511c0.937,0.406,1.95,0.614,2.993,0.632   L-489.791-369.064z M-502-369.99c0.522,0.381,1.093,0.672,1.684,0.917l1.12,1.199l-3.034,3.248l-3.036-3.248l0.874-0.937   C-503.537-369.068-502.727-369.46-502-369.99z M-513.216-371.907c0.171,0.244,0.355,0.475,0.55,0.696l-2.005,2.146l-2.224-2.381   c0.292,0.033,0.586,0.059,0.886,0.059C-515.047-371.386-514.104-371.564-513.216-371.907z M-503.625-325.246l1.395-1.492   l1.007,1.08c-0.474,1.332-0.914,2.553-1.303,3.578C-502.856-322.996-503.229-324.082-503.625-325.246z M-478.652-378.276   c-0.812,0-1.593-0.336-2.199-0.948c-0.607-0.616-1.497-0.86-2.334-0.647c-0.838,0.212-1.499,0.854-1.738,1.685   c-0.427,1.48-1.662,2.476-3.067,2.476c-0.828,0-1.618-0.345-2.225-0.97c-0.598-0.614-1.473-0.871-2.311-0.675   c-0.834,0.197-1.504,0.819-1.763,1.638c-0.452,1.428-1.674,2.387-3.041,2.387c-1.04,0-2.023-0.553-2.634-1.479   c-0.451-0.686-1.216-1.099-2.034-1.099l0,0c-0.819,0-1.584,0.413-2.034,1.095c-0.612,0.929-1.6,1.482-2.638,1.482   c-1.471,0-2.754-1.089-3.122-2.648c-0.2-0.854-0.845-1.534-1.687-1.78c-0.843-0.249-1.752-0.021-2.382,0.589   c-0.429,0.416-1.148,0.911-2.148,0.911c-1.539,0-2.872-1.19-3.17-2.831c-0.162-0.878-0.787-1.598-1.636-1.877   c-0.848-0.279-1.78-0.071-2.431,0.538c-0.424,0.399-1.134,0.872-2.103,0.872c-1.787,0-3.24-1.575-3.24-3.513   c0-1.938,1.453-3.514,3.24-3.514c1.539,0,2.872,1.188,3.17,2.829c0.162,0.878,0.787,1.598,1.635,1.877   c0.849,0.278,1.779,0.073,2.431-0.538c0.425-0.397,1.134-0.872,2.104-0.872c1.471,0,2.755,1.088,3.123,2.648   c0.199,0.854,0.844,1.534,1.688,1.781c0.841,0.246,1.752,0.02,2.38-0.592c0.429-0.414,1.146-0.909,2.148-0.909   c1.038,0,2.025,0.556,2.636,1.482c0.452,0.684,1.216,1.095,2.036,1.095l0,0c0.818,0,1.583-0.413,2.034-1.097   c1.098-1.666,3.493-1.917,4.858-0.509c0.596,0.615,1.471,0.867,2.31,0.672c0.835-0.196,1.504-0.818,1.763-1.637   c0.452-1.427,1.674-2.387,3.042-2.387c0.812,0,1.593,0.338,2.199,0.949c0.607,0.615,1.498,0.861,2.334,0.647   c0.838-0.213,1.499-0.854,1.739-1.686c0.427-1.479,1.659-2.475,3.066-2.475c1.787,0,3.24,1.577,3.24,3.516   C-475.412-379.853-476.865-378.276-478.652-378.276z"></path><path d="M-452.171-193.806l-25.011-74.606c-0.497-1.483-1.957-2.431-3.503-2.294l-68.237,6.023   c-0.911,0.077-1.889,0.604-2.412,1.36c-0.597,0.779-0.811,1.889-0.568,2.838l19.377,76.649c0.37,1.457,1.771,2.554,3.276,2.554l0,0   c0.048,0,0.099-0.003,0.149-0.005l71.289-3.117c2.21-0.097,3.76-2.355,3.058-4.454l-0.178-0.53   C-452.861-189.665-451.501-191.81-452.171-193.806z M-517.691-189.328c-0.748-12.661,1.385-21.137,6.697-26.028   c7.584,5.06,17.878,3.707,23.485-3.614c9.018,3.672,14.446,13.385,18.693,24.304L-517.691-189.328z M-506.49-245.543   c7.274-2.431,14.711,2.324,17.302,9.151c2.747,7.241-0.147,16.412-7.898,19.001c-7.232,2.413-14.718-2.373-17.307-9.162   C-517.149-233.787-514.226-242.959-506.49-245.543z M-509.852-249.028l0.553-3.333l1.752,2.45   C-508.342-249.669-509.099-249.387-509.852-249.028z M-464.164-195.173c-3.315-8.942-9.146-22.488-21.051-27.706   c2.615-6.047,1.902-12.991-1.513-18.565c2.257-0.356,6.684-1.827,5.916-4.856l-1.057-4.16c-0.265-1.055-1.33-1.792-2.4-1.674   l-4.385,0.498c-2.27,0.253-1.185,3.48,0.827,3.256l2.594-0.293l0.616,2.448c-1.171,1.169-3.016,1.594-4.618,1.434   c-1.479-1.565-3.184-2.864-5.051-3.84c-0.134-0.319-0.255-0.649-0.343-0.999l-0.014-0.049c-0.795-3.126,1.206-5.902,4.442-5.955   c1.588-0.024,3.736,1.583,5.169,0.898c1.52-0.731,0.89-2.708-0.339-3.342c-5.957-2.901-14.45,0.286-13.438,7.837   c-1.708-0.374-3.338-0.484-5.077-0.346l-3.809-5.129c-0.66-0.883-1.554-1.363-2.598-1.244l-0.225,0.026   c-1.048,0.119-1.673,0.767-1.862,1.743l-1.682,8.996c-1.42,1.308-2.617,2.877-3.573,4.645l-3.08-12.121   c-0.269-1.053-1.329-1.79-2.395-1.669l-0.428,0.049c-0.771,0.086-1.241,0.467-1.475,1.146l-2.77,7.968l-6.521-6.896   c-0.492-0.523-1.171-0.876-1.994-0.783l-0.423,0.048c-1.074,0.119-1.708,1.048-1.439,2.101l3.47,13.664   c0.555,2.217,4.402,2.067,3.765-0.425l-2.167-8.52l4.593,4.646c1.009,1.004,2.606,1.109,3.188-0.359l2.069-5.471l2.171,8.544   c0.229,0.892,1.06,1.544,1.957,1.636c-2.067,6.82-0.213,14.402,4.586,19.629c-4.865,4.911-8.588,13.69-7.644,29.523l-4.521,0.496   l-17.683-69.95l61.626-5.442l22.829,68.099L-464.164-195.173z M-504.823-229.569c2.283-0.762,1.013-4.562-1.272-3.8   S-507.106-228.805-504.823-229.569z M-497.569-229.943c2.285-0.762,1.013-4.562-1.272-3.8S-499.854-229.18-497.569-229.943z    M-500.971-220.332c3.595,0,6.98-1.815,9.032-4.755c0.428-0.607,1.141-1.464,0.67-2.245c-0.445-0.731-1.55-0.705-1.955,0.048   c-0.965,1.774-2.501,3.226-4.368,4.016c-1.657,0.7-3.514,0.858-5.271,0.476c-0.894-0.193-1.757-0.523-2.554-0.964   c-0.708-0.39-1.492-1.334-2.285-1.481c-0.832-0.154-1.545,0.671-1.272,1.473c0.263,0.772,1.436,1.373,2.088,1.763   C-505.107-220.933-503.051-220.332-500.971-220.332z"></path><path d="M-364.377-248.865c-12.607,0-22.865,10.258-22.865,22.865s10.258,22.865,22.865,22.865   c12.608,0,22.865-10.258,22.865-22.865S-351.769-248.865-364.377-248.865z M-364.377-206.432c-10.792,0-19.568-8.778-19.568-19.568   s8.776-19.568,19.568-19.568c10.789,0,19.568,8.778,19.568,19.568S-353.588-206.432-364.377-206.432z M-364.377-261.117   c-19.365,0-35.119,15.753-35.119,35.117s15.754,35.117,35.119,35.117c19.362,0,35.116-15.753,35.116-35.117   S-345.015-261.117-364.377-261.117z M-364.377-195.828c-16.639,0-30.174-13.535-30.174-30.172s13.535-30.172,30.174-30.172   c16.636,0,30.171,13.535,30.171,30.172S-347.741-195.828-364.377-195.828z M-407.11-256.442c-3.806,0-6.89,5.999-6.89,12.491   c0,5.366,1.304,8.333,4.585,9.212c-1.38,9.557-2.321,25.82-2.321,29.529c0,5.332,1.942,9.652,4.34,9.652   c2.396,0,4.34-4.32,4.34-9.652c0-3.688-0.931-19.789-2.296-29.368c3.709-0.673,5.132-3.703,5.132-9.373   C-400.221-250.443-403.308-256.442-407.11-256.442z M-314-244.24c0-4.069-1.999-10.499-3.178-10.499   c-1.175,0-0.393,10.323-0.393,10.323c0,0.662-0.367,1.199-1.03,1.199c-0.66,0-1.201-0.537-1.201-1.199   c0,0-0.467-9.908-0.467-10.658s-0.569-1.079-1.114-1.079c-0.541,0-1.113,0.361-1.113,1.079c0,0.721-0.467,10.658-0.467,10.658   c0,0.662-0.538,1.199-1.198,1.199c-0.663,0-1.03-0.537-1.03-1.199c0,0,0.995-10.323-0.393-10.323s-3.178,6.43-3.178,10.499   c0,5.367,1.581,8.332,4.987,9.211c-1.433,9.558-2.408,25.821-2.408,29.53c0,5.331,2.019,9.652,4.504,9.652   c2.488,0,4.508-4.321,4.508-9.652c0-3.687-0.966-19.789-2.386-29.369C-315.703-235.544-314-238.571-314-244.24z"></path><path d="M-196.876-248.669c-0.187,0-0.368,0.021-0.555,0.031c0.013-0.328,0.036-0.655,0.036-0.989   c0-15.775-11.496-26.373-28.605-26.373c-16.888,0-28.285,10.332-28.578,25.767c-0.182-0.008-0.363-0.035-0.55-0.035   c-5.578,0-10.118,4.695-10.118,10.467c0,5.768,4.54,10.463,10.118,10.463c0.293,0,0.582-0.048,0.871-0.075l1.132,14.611   c0.075,0.981,0.622,1.868,1.469,2.375c0.852,0.507,1.877,0.954,3.021,1.362l1.089,26.526c0.031,0.701,0.301,1.37,0.768,1.896   c4.358,4.896,13.931,6.643,21.44,6.643c9.354,0,17.149-2.482,20.851-6.643c0.463-0.526,0.736-1.195,0.764-1.896l1.089-26.491   c1.112-0.41,2.138-0.869,3.024-1.397c0.847-0.507,1.394-1.394,1.469-2.375l1.001-12.965c0.092,0.004,0.179,0.027,0.266,0.027   c5.582,0,10.122-4.694,10.122-10.464C-186.754-243.975-191.294-248.669-196.876-248.669z M-248.524-249.627   c0-14.96,11.634-20.293,22.524-20.293c10.887,0,22.524,5.333,22.524,20.293c0,1.302-0.13,2.564-0.316,3.812   c-0.349,0.341-0.681,0.697-0.981,1.091c-1.18-0.489-2.45-0.746-3.753-0.746c-3.064,0-5.875,1.429-7.751,3.772   c-3.119-1.348-6.96-0.906-9.723,1.108c-2.637-1.924-6.255-2.44-9.311-1.267c-1.853-2.645-4.85-4.299-8.167-4.299   c-1.104,0-2.193,0.189-3.227,0.556c-0.486-0.754-1.064-1.427-1.714-2.024C-248.47-248.285-248.524-248.948-248.524-249.627z    M-225.252-214.205c-9.18,0-17.774-1.12-21.946-2.797l-0.721-9.309c1.354,0.685,2.858,1.082,4.441,1.082   c1.203,0,2.379-0.222,3.483-0.646c1.856,2.645,4.854,4.303,8.167,4.303c2.118,0,4.145-0.685,5.827-1.912   c1.683,1.228,3.709,1.912,5.823,1.912c3.068,0,5.879-1.429,7.755-3.772c1.22,0.526,2.538,0.804,3.896,0.804   c1.872,0,3.634-0.534,5.154-1.469l-0.697,9.021C-208.189-215.276-216.19-214.205-225.252-214.205z M-209.75-185.996   c-2.866,2.403-8.804,3.916-15.589,3.916c-6.892,0-13.293-1.584-16.183-3.928l-0.963-23.494c5.389,0.978,11.746,1.377,17.232,1.377   c3.527,0,10.316-0.174,16.464-1.298L-209.75-185.996z M-196.876-233.82c-1.014,0-1.987-0.422-2.739-1.184   c-0.765-0.769-1.873-1.077-2.914-0.808c-1.045,0.266-1.868,1.064-2.169,2.102c-0.534,1.845-2.07,3.088-3.828,3.088   c-1.033,0-2.015-0.432-2.775-1.211c-0.744-0.769-1.841-1.085-2.878-0.839c-1.041,0.245-1.876,1.021-2.201,2.042   c-0.562,1.779-2.09,2.978-3.796,2.978c-1.295,0-2.521-0.691-3.282-1.847c-0.562-0.854-1.516-1.368-2.537-1.368   c-0.004,0-0.004,0-0.004,0c-1.021,0-1.976,0.513-2.537,1.366c-0.765,1.155-1.991,1.849-3.29,1.849c-1.833,0-3.437-1.36-3.892-3.306   c-0.253-1.065-1.057-1.912-2.105-2.221c-1.058-0.31-2.186-0.028-2.97,0.736c-0.534,0.517-1.433,1.134-2.684,1.134   c-1.916,0-3.579-1.484-3.955-3.529c-0.197-1.097-0.981-1.995-2.038-2.344c-1.054-0.344-2.217-0.089-3.032,0.674   c-0.531,0.496-1.414,1.088-2.625,1.088c-2.225,0-4.038-1.967-4.038-4.382c0-2.419,1.813-4.387,4.038-4.387   c1.92,0,3.587,1.485,3.959,3.529c0.197,1.095,0.981,1.993,2.038,2.342c1.058,0.349,2.221,0.091,3.032-0.669   c0.527-0.499,1.414-1.089,2.621-1.089c1.837,0,3.44,1.358,3.896,3.302c0.253,1.066,1.057,1.916,2.105,2.223   c1.054,0.307,2.186,0.025,2.974-0.738c0.53-0.515,1.429-1.132,2.676-1.132c1.299,0,2.525,0.69,3.29,1.849   c0.562,0.851,1.516,1.365,2.537,1.365c0,0,0,0,0.004,0c1.021,0,1.976-0.515,2.537-1.369c1.366-2.078,4.347-2.396,6.062-0.636   c0.744,0.771,1.845,1.087,2.878,0.841c1.045-0.245,1.88-1.021,2.201-2.042c0.562-1.781,2.086-2.978,3.792-2.978   c1.014,0,1.991,0.42,2.743,1.184c0.76,0.765,1.868,1.073,2.914,0.808c1.045-0.265,1.872-1.066,2.169-2.102   c0.534-1.847,2.07-3.088,3.824-3.088c2.229,0,4.042,1.968,4.042,4.385C-192.834-235.788-194.647-233.82-196.876-233.82z"></path><path d="M-38.578-330.219l-12.724-25.84c-0.021-0.042-0.038-0.077-0.062-0.116c0.211-0.606,0.363-1.249,0.363-1.926v-40.538   c0-3.268-2.686-6.361-5.954-6.361h-62.092c-3.271,0-5.954,3.093-5.954,6.361v40.538c0,0.677,0.152,1.319,0.363,1.928   c-0.023,0.04-0.046,0.072-0.065,0.114l-12.723,25.84c-0.794,1.613-0.769,3.53,0.071,4.879c0.841,1.351,2.354,2.34,4.154,2.34   h90.398c1.8,0,3.312-0.989,4.152-2.34C-37.809-326.688-37.784-328.605-38.578-330.219z M-56.889-351c0.991,0,1.796,0.508,1.796,1.5   s-0.805,1.5-1.796,1.5h-3.555c-0.991,0-1.796-0.508-1.796-1.5s0.805-1.5,1.796-1.5H-56.889z M-118-396.051   c0-0.993,0.604-1.949,1.596-1.949h56.822c0.993,0,1.582,0.956,1.582,1.949v33.049c0,0.991-0.589,2.002-1.582,2.002h-56.822   c-0.991,0-1.596-1.011-1.596-2.002V-396.051z M-64.871-349.5c0,0.992-0.805,1.5-1.796,1.5h-3.556c-0.991,0-1.797-0.508-1.797-1.5   s0.806-1.5,1.797-1.5h3.556C-65.676-351-64.871-350.492-64.871-349.5z M-79.497-343h4.243c0.993,0,1.796,0.509,1.796,1.5   c0,0.993-0.803,1.5-1.796,1.5h-4.243c-0.991,0-1.797-0.507-1.797-1.5C-81.294-342.491-80.488-343-79.497-343z M-81.795-349.5   c0-0.992,0.805-1.5,1.796-1.5h3.554c0.991,0,1.797,0.508,1.797,1.5s-0.806,1.5-1.797,1.5h-3.554   C-80.99-348-81.795-348.508-81.795-349.5z M-90.123-343h4.246c0.992,0,1.796,0.509,1.796,1.5c0,0.993-0.804,1.5-1.796,1.5h-4.246   c-0.992,0-1.796-0.507-1.796-1.5C-91.919-342.491-91.115-343-90.123-343z M-91.575-349.5c0-0.992,0.806-1.5,1.797-1.5h3.557   c0.991,0,1.797,0.508,1.797,1.5s-0.806,1.5-1.797,1.5h-3.557C-90.77-348-91.575-348.508-91.575-349.5z M-96.001-348h-3.554   c-0.991,0-1.797-0.508-1.797-1.5s0.806-1.5,1.797-1.5h3.554c0.991,0,1.796,0.508,1.796,1.5S-95.01-348-96.001-348z M-94.706-341.5   c0,0.993-0.806,1.5-1.797,1.5h-4.243c-0.993,0-1.796-0.507-1.796-1.5c0-0.991,0.803-1.5,1.796-1.5h4.243   C-95.512-343-94.706-342.491-94.706-341.5z M-103.98-349.5c0,0.992-0.806,1.5-1.797,1.5h-3.556c-0.991,0-1.796-0.508-1.796-1.5   s0.805-1.5,1.796-1.5h3.556C-104.786-351-103.98-350.492-103.98-349.5z M-119.13-351h3.556c0.991,0,1.796,0.508,1.796,1.5   s-0.805,1.5-1.796,1.5h-3.556c-0.991,0-1.797-0.508-1.797-1.5S-120.121-351-119.13-351z M-121.436-331h-5.041   c-0.991,0-1.797-1.006-1.797-2c0-0.992,0.806-2,1.797-2h5.041c0.991,0,1.797,1.008,1.797,2   C-119.639-332.006-120.444-331-121.436-331z M-121.995-340c-0.991,0-1.796-0.507-1.796-1.5c0-0.991,0.805-1.5,1.796-1.5h4.243   c0.993,0,1.797,0.509,1.797,1.5c0,0.993-0.804,1.5-1.797,1.5H-121.995z M-109.45-331h-5.04c-0.991,0-1.797-1.006-1.797-2   c0-0.992,0.806-2,1.797-2h5.04c0.992,0,1.796,1.008,1.796,2C-107.654-332.006-108.458-331-109.45-331z M-107.126-340h-4.244   c-0.992,0-1.796-0.507-1.796-1.5c0-0.991,0.804-1.5,1.796-1.5h4.244c0.991,0,1.796,0.509,1.796,1.5   C-105.33-340.507-106.135-340-107.126-340z M-73.494-331h-29.012c-0.991,0-1.796-1.006-1.796-2c0-0.992,0.805-2,1.796-2h29.012   c0.991,0,1.796,1.008,1.796,2C-71.698-332.006-72.503-331-73.494-331z M-70.67-341.5c0-0.991,0.805-1.5,1.796-1.5h4.244   c0.992,0,1.796,0.509,1.796,1.5c0,0.993-0.804,1.5-1.796,1.5h-4.244C-69.865-340-70.67-340.507-70.67-341.5z M-61.51-331h-5.04   c-0.992,0-1.796-1.006-1.796-2c0-0.992,0.804-2,1.796-2h5.04c0.991,0,1.797,1.008,1.797,2C-59.713-332.006-60.519-331-61.51-331z    M-60.045-341.5c0-0.991,0.804-1.5,1.797-1.5h4.243c0.991,0,1.796,0.509,1.796,1.5c0,0.993-0.805,1.5-1.796,1.5h-4.243   C-59.241-340-60.045-340.507-60.045-341.5z M-49.523-331h-5.041c-0.991,0-1.797-1.006-1.797-2c0-0.992,0.806-2,1.797-2h5.041   c0.991,0,1.797,1.008,1.797,2C-47.727-332.006-48.532-331-49.523-331z"></path><path d="M91.145-383.99c-0.305-4.03-3.711-7.187-7.752-7.187h-7.707C73.056-403.372,66.151-414,49.999-414   c-16.147,0-23.057,10.628-25.686,22.823h-7.708c-4.041,0-7.443,3.157-7.752,7.187l-4.716,62.291   c-0.154,1.999,0.529,3.976,1.866,5.423c1.341,1.447,3.26,2.276,5.268,2.276h77.455c2.008,0,3.927-0.829,5.268-2.274   c1.342-1.444,2.021-3.421,1.871-5.425L91.145-383.99z M49.999-407.223c6.803,0,15.402,1.95,18.825,16.046h-37.65   C34.597-405.273,43.2-407.223,49.999-407.223z M16.605-384.4h6.657c-0.132,1.328-0.225,2.653-0.282,3.971   c-1.001,0.904-1.641,2.201-1.641,3.655c0,2.731,2.214,4.945,4.945,4.945c2.73,0,4.945-2.214,4.945-4.945   c0-1.381-0.568-2.627-1.482-3.523c0.066-1.443,0.164-2.811,0.296-4.103h39.914c0.128,1.262,0.221,2.601,0.287,4.006   c-0.979,0.902-1.602,2.184-1.602,3.62c0,2.731,2.215,4.945,4.946,4.945c2.73,0,4.945-2.214,4.945-4.945   c0-1.396-0.582-2.652-1.514-3.55c-0.057-1.352-0.149-2.713-0.286-4.076h6.657c0.468,0,0.962,0.457,0.997,0.922l3.494,46.138h-75.77   l3.498-46.138C15.648-383.942,16.138-384.4,16.605-384.4z M89.022-320.883c-0.066,0.071-0.163,0.106-0.296,0.106H11.271   c-0.133,0-0.229-0.035-0.296-0.106c-0.066-0.07-0.093-0.172-0.084-0.304l0.883-11.637h76.454l0.878,11.637   C89.119-321.055,89.089-320.953,89.022-320.883z"></path><path d="M-505.903,26.559c-10.471,0-18.96,8.489-18.96,18.96s8.489,18.96,18.96,18.96c10.47,0,18.96-8.489,18.96-18.96   S-495.433,26.559-505.903,26.559z M-498.087,49.025c0,3.583-2.262,5.503-5.445,6.034v3.074c0,0.99-0.803,1.795-1.795,1.795   c-0.993,0-1.795-0.805-1.795-1.795v-3.026c-1.86-0.251-3.771-0.914-5.558-2.067c-0.571-0.357-1.038-1.003-1.038-1.862   c0-1.22,0.933-2.152,2.151-2.152c0.395,0,0.788,0.108,1.075,0.287c1.83,1.146,3.657,1.722,5.2,1.722   c1.578,0,2.295-0.575,2.295-1.434v-0.074c0-1.182-1.866-1.576-3.982-2.223c-2.689-0.787-5.736-2.043-5.736-5.772v-0.073   c0-3.41,2.405-5.509,5.593-5.989v-2.566c0-0.991,0.803-1.796,1.795-1.796c0.992,0,1.795,0.805,1.795,1.796v2.681   c1.304,0.234,2.595,0.65,3.798,1.252c0.789,0.395,1.29,1.109,1.29,2.044c0,1.219-0.968,2.151-2.188,2.151   c-0.393,0-0.645-0.072-1.002-0.253c-1.543-0.754-3.012-1.218-4.159-1.218c-1.327,0-2.009,0.573-2.009,1.327v0.071   c0,1.075,1.83,1.576,3.91,2.294c2.689,0.896,5.807,2.189,5.807,5.703V49.025z M-459.806,56.897V24.432   c0-5.048-4.106-9.157-9.155-9.157h-73.883c-5.05,0-9.156,4.109-9.156,9.157v42.172c0,5.05,4.106,9.157,9.156,9.157h62.456   c2.263,5.271,7.497,8.965,13.595,8.965c8.17,0,14.794-6.624,14.794-14.793C-452,64.293-455.159,59.391-459.806,56.897z    M-481.585,69.933c0,0.149,0.018,0.293,0.022,0.442h-58.171c0.095-0.408,0.158-0.828,0.158-1.265c0-3.071-2.49-5.562-5.562-5.562   c-0.516,0-1.003,0.093-1.476,0.223V27.267c0.473,0.13,0.96,0.223,1.476,0.223c3.072,0,5.562-2.491,5.562-5.562   c0-0.437-0.063-0.857-0.158-1.267h67.663c-0.095,0.409-0.158,0.83-0.158,1.267c0,3.071,2.49,5.562,5.563,5.562   c0.514,0,1.003-0.093,1.475-0.223v27.965c-0.526-0.058-1.06-0.091-1.603-0.091C-474.961,55.141-481.585,61.765-481.585,69.933z    M-461.734,74.639c-0.845,0.736-1.81,1.238-3.095,1.433v2.025c0,0.743-0.603,1.346-1.346,1.346c-0.744,0-1.347-0.603-1.347-1.346   v-2.103c-2.817-0.639-4.781-3.086-4.781-6.084v-0.035c0-2.949,1.904-5.426,4.781-6.098v-2.006c0-0.743,0.603-1.347,1.347-1.347   c0.743,0,1.346,0.604,1.346,1.347v1.89c1.226,0.162,2.155,0.575,2.938,1.157c0.278,0.207,0.522,0.59,0.522,1.06   c0,0.73-0.593,1.304-1.322,1.304c-0.365,0-0.606-0.14-0.8-0.261c-0.715-0.531-1.466-0.833-2.365-0.859   c-0.104,0.026-0.205,0.065-0.318,0.065c-0.062,0-0.116-0.028-0.176-0.035c-1.85,0.196-3.154,1.795-3.154,3.748v0.035   c0,2.087,1.441,3.826,3.527,3.826c1.13,0,1.88-0.348,2.643-0.958c0.209-0.173,0.487-0.294,0.802-0.294   c0.676,0,1.251,0.556,1.251,1.234C-461.282,74.099-461.492,74.431-461.734,74.639z M-475.978,38.16   c-4.058,0-7.358,3.302-7.358,7.358c0,4.058,3.301,7.358,7.358,7.358c4.057,0,7.356-3.301,7.356-7.358   C-468.621,41.462-471.921,38.16-475.978,38.16z M-475.978,49.286c-2.078,0-3.769-1.689-3.769-3.768c0-2.077,1.69-3.768,3.769-3.768   c2.075,0,3.766,1.69,3.766,3.768C-472.212,47.597-473.902,49.286-475.978,49.286z M-535.828,38.16   c-4.057,0-7.357,3.302-7.357,7.358c0,4.058,3.3,7.358,7.357,7.358s7.36-3.301,7.36-7.358   C-528.467,41.462-531.771,38.16-535.828,38.16z M-535.828,49.286c-2.076,0-3.766-1.689-3.766-3.768c0-2.077,1.69-3.768,3.766-3.768   c2.079,0,3.77,1.69,3.77,3.768C-532.058,47.597-533.749,49.286-535.828,49.286z"></path><path d="M-176.032,32.049c0.064-0.48,0.008-0.964-0.143-1.416c-0.831-5.039-5.188-8.908-10.463-8.908h-15.9   C-203.461,10.088-210.624,5.061-226,5.061s-22.539,5.027-23.464,16.664h-15.9c-5.272,0-9.63,3.869-10.461,8.908   c-0.15,0.452-0.207,0.936-0.143,1.416c-0.004,0.105-0.032,0.203-0.032,0.312v51.946c0,5.862,4.773,10.633,10.636,10.633h78.727   c5.864,0,10.638-4.771,10.638-10.633V32.36C-176,32.252-176.028,32.154-176.032,32.049z M-226,13.4   c12.912,0,14.871,3.505,15.172,8.324h-30.344C-240.873,16.905-238.912,13.4-226,13.4z M-265.364,27.98h78.727   c1.987,0,3.649,1.337,4.185,3.151l-8.486,14.768c-1.514,2.631-5.502,4.939-8.534,4.939h-15.765v-1.637   c0-3.792-3.087-6.879-6.879-6.879h-7.766c-3.792,0-6.879,3.087-6.879,6.879v1.637h-15.763c-3.036,0-7.022-2.309-8.536-4.939   l-8.486-14.768C-269.012,29.317-267.35,27.98-265.364,27.98z M-221.494,49.202v11.582c0,0.338-0.285,0.623-0.623,0.623h-7.766   c-0.338,0-0.623-0.285-0.623-0.623V49.202c0-0.338,0.285-0.623,0.623-0.623h7.766C-221.779,48.579-221.494,48.864-221.494,49.202z    M-186.638,88.685h-78.727c-2.415,0-4.381-1.963-4.381-4.378V43.344l3.263,5.673c2.603,4.528,8.735,8.078,13.958,8.078h15.763   v3.689c0,3.791,3.087,6.878,6.879,6.878h7.766c3.792,0,6.879-3.087,6.879-6.878v-3.689h15.765c5.221,0,11.352-3.548,13.956-8.078   l3.263-5.673v40.963C-182.255,86.722-184.223,88.685-186.638,88.685z"></path><path d="M-86.031,16.524c0.854-0.651,1.017-1.872,0.365-2.725c-0.653-0.853-1.871-1.016-2.728-0.362l-14.846,11.348   c-0.853,0.651-1.016,1.873-0.362,2.726c0.381,0.499,0.961,0.763,1.545,0.763c0.41,0,0.828-0.131,1.18-0.4L-86.031,16.524z    M-74.548,17.972c-0.657-0.849-1.876-1.006-2.729-0.348l-23.88,18.487c-0.849,0.656-1.005,1.88-0.346,2.729   c0.382,0.495,0.957,0.754,1.538,0.754c0.414,0,0.836-0.133,1.189-0.406l23.879-18.488C-74.046,20.042-73.891,18.82-74.548,17.972z    M-72.379,31.761c0.853-0.651,1.016-1.873,0.364-2.726c-0.653-0.854-1.872-1.016-2.727-0.364L-89.59,40.019   c-0.853,0.653-1.016,1.873-0.364,2.728c0.384,0.499,0.963,0.764,1.548,0.764c0.412,0,0.826-0.132,1.179-0.401L-72.379,31.761z    M-74.562,54.121c9.09-4.831,15.3-14.391,15.3-25.384C-59.263,12.891-72.155,0-88,0s-28.737,12.891-28.737,28.737   c0,10.993,6.21,20.553,15.3,25.384c-9.09,3.575-15.3,10.649-15.3,18.782c0,0.462,0.056,0.912,0.093,1.365   c-0.037,0.515-0.093,1.027-0.093,1.552c0,13.333,12.893,24.18,28.737,24.18s28.737-10.847,28.737-24.18   c0-0.524-0.056-1.037-0.093-1.552c0.037-0.453,0.093-0.903,0.093-1.365C-59.263,64.771-65.473,57.696-74.562,54.121z    M-110.903,28.737c0-12.63,10.275-22.903,22.903-22.903s22.903,10.273,22.903,22.903S-75.372,51.641-88,51.641   S-110.903,41.367-110.903,28.737z M-88,88.333c-11.962,0-21.797-6.214-22.803-14.099c1.006-9.373,10.841-16.76,22.803-16.76   c11.96,0,21.795,7.387,22.803,16.76C-66.205,82.119-76.04,88.333-88,88.333z M-88,61.857c-8.92,0-16.148,4.946-16.148,11.046   S-96.92,83.948-88,83.948c8.922,0,16.148-4.945,16.148-11.045S-79.078,61.857-88,61.857z"></path><path d="M99.478,38.391c0-2.723-0.235-5.501-0.699-8.259c-0.277-1.653-1.837-2.763-3.492-2.486   c-1.649,0.276-2.762,1.839-2.485,3.492c0.227,1.346,0.377,2.695,0.478,4.041h-5.049C86.588,15.512,70.085,0,50,0   S13.412,15.512,11.771,35.179H6.722c0.101-1.346,0.251-2.695,0.478-4.041c0.276-1.653-0.836-3.216-2.485-3.492   c-1.666-0.276-3.217,0.833-3.492,2.486c-0.464,2.758-0.699,5.536-0.699,8.259c0,17.074,8.691,32.152,21.883,41.047l-8.233,14.529   c-1.099,1.941-0.418,4.407,1.523,5.509C16.324,99.83,17.01,100,17.684,100c1.409,0,2.776-0.734,3.521-2.048l8.255-14.568   C35.72,86.256,42.672,87.87,50,87.87c6.866,0,13.408-1.409,19.357-3.95l7.951,14.032c0.743,1.313,2.111,2.048,3.52,2.048   c0.675,0,1.359-0.17,1.989-0.524c1.941-1.102,2.622-3.567,1.522-5.509L76.504,80.14C90.301,71.348,99.478,55.927,99.478,38.391z    M50,6.062c17.826,0,32.33,14.501,32.33,32.329S67.826,70.721,50,70.721s-32.33-14.502-32.33-32.33S32.174,6.062,50,6.062z    M50,81.809c-22.978,0-41.792-17.958-43.272-40.568h5.025C13.221,61.08,29.794,76.781,50,76.781S86.779,61.08,88.247,41.24h5.025   C91.792,63.851,72.978,81.809,50,81.809z M30.911,53.409c0.398,0.513,0.996,0.781,1.601,0.781c0.432,0,0.865-0.138,1.234-0.422   l34.676-26.845c0.882-0.683,1.044-1.949,0.361-2.833c-0.683-0.88-1.951-1.042-2.835-0.359L31.272,50.576   C30.391,51.259,30.229,52.525,30.911,53.409z M31.354,39.978c0.428,0,0.857-0.135,1.225-0.415l21.558-16.479   c0.886-0.679,1.056-1.945,0.379-2.833c-0.679-0.884-1.943-1.054-2.834-0.379L30.124,36.351c-0.886,0.679-1.056,1.945-0.379,2.833   C30.144,39.705,30.745,39.978,31.354,39.978z M46.188,54.202c-0.886,0.675-1.056,1.945-0.379,2.83c0.398,0.521,1,0.793,1.607,0.793   c0.429,0,0.858-0.135,1.226-0.415l21.557-16.479c0.887-0.675,1.056-1.945,0.379-2.829c-0.679-0.888-1.945-1.058-2.833-0.379   L46.188,54.202z"></path></g><g><path d="M-38.019-235.084c-1.515-8.148-6.654-11.052-10.96-11.052c-0.275,0-0.552,0.013-0.825,0.035   c-2.547,0.212-4.741,1.008-6.549,1.973c-5.036-7.386-17.303-12.604-31.648-12.604c-14.345,0-26.611,5.218-31.647,12.604   c-1.808-0.965-4.001-1.761-6.548-1.973c-0.273-0.022-0.55-0.035-0.825-0.035c-4.305,0-9.443,2.903-10.96,11.052   c-0.096,0.517,0.19,1.028,0.681,1.215c0.492,0.188,1.047-0.003,1.317-0.452c1.986-3.278,5.235-5.657,7.729-5.657   c0.457,0,0.878,0.084,1.249,0.25c1.174,0.523,2.798,2.724,4.231,4.664c0.353,0.479,0.704,0.951,1.053,1.411   c0.021,0.083,0.048,0.166,0.07,0.249c-0.498-0.046-1.061-0.079-1.693-0.079c-2.375,0-5.867,0.461-9.013,2.654   c-3.38,2.358-5.785,7.852-1.442,15.567c0.19,0.338,0.543,0.533,0.913,0.533c0.006,0,0.012,0,0.018,0   c0.574-0.003,1.04-0.471,1.04-1.046c0-0.117-0.02-0.229-0.055-0.334c-0.74-4.423,0.599-8.77,2.901-9.348   c0.217-0.055,0.494-0.082,0.824-0.082c1.361,0,3.323,0.465,5.222,0.914c2.009,0.477,3.907,0.927,5.376,0.927   c0.001,0,0.001,0,0.001,0c0.45,0,0.833-0.058,1.182-0.146c-2.418,1.753-4.919,4.313-5.541,7.66   c-0.628,3.371,0.172,7.913,3.576,10.121c0.199,0.555,0.434,1.113,0.736,1.677c2.265,4.205,8.062,9.116,16.948,9.116h0.001   c0.436,0,0.878-0.012,1.328-0.035c0.367-0.021,0.688-0.258,0.812-0.605c0.125-0.347,0.029-0.734-0.241-0.984   c-3.618-3.327-6.438-7.193-5.916-8.111c1.015-1.785,6.792-4.257,10.196-5.396c0.336-0.112,0.578-0.41,0.619-0.763   c0.042-0.353-0.124-0.697-0.426-0.885c-3.528-2.194-9.034-3.611-14.027-3.611c-2.848,0-5.223,0.443-6.997,1.274   c-0.378-0.733-0.588-1.434-0.503-1.954c0.302-1.874,3.404-3.938,5.76-5.003c5.946,2.972,13.64,4.769,22.05,4.769   s16.104-1.796,22.05-4.768c2.357,1.063,5.458,3.128,5.76,5.002c0.084,0.521-0.124,1.221-0.502,1.954   c-1.775-0.831-4.149-1.274-6.997-1.274c-4.994,0-10.499,1.417-14.026,3.612c-0.302,0.187-0.468,0.531-0.426,0.884   c0.041,0.353,0.283,0.65,0.619,0.763c3.404,1.139,9.181,3.61,10.196,5.395c0.522,0.919-2.299,4.785-5.917,8.112   c-0.271,0.249-0.367,0.638-0.243,0.984c0.126,0.348,0.446,0.585,0.814,0.605c0.45,0.023,0.892,0.035,1.328,0.035   c8.887,0,14.685-4.911,16.949-9.116c0.304-0.563,0.538-1.123,0.737-1.679c3.404-2.208,4.203-6.749,3.574-10.119   c-0.622-3.347-3.123-5.908-5.541-7.661c0.35,0.088,0.732,0.146,1.183,0.146c1.469,0,3.368-0.45,5.377-0.927   c1.896-0.449,3.858-0.914,5.22-0.914c0.331,0,0.607,0.027,0.826,0.082c2.328,0.585,3.671,5.023,2.875,9.498   c-0.09,0.502,0.196,0.996,0.677,1.168c0.116,0.042,0.235,0.062,0.353,0.062c0.37,0,0.723-0.195,0.912-0.533   c4.342-7.716,1.938-13.208-1.441-15.568c-3.146-2.192-6.637-2.653-9.012-2.653c-0.634,0-1.197,0.033-1.694,0.079   c0.022-0.083,0.05-0.166,0.069-0.249c0.35-0.461,0.7-0.934,1.055-1.413c1.433-1.939,3.057-4.139,4.229-4.662   c0.372-0.166,0.792-0.25,1.25-0.25c2.492,0,5.744,2.379,7.731,5.657c0.272,0.449,0.825,0.64,1.317,0.452   C-38.209-234.056-37.923-234.567-38.019-235.084z M-88.001-222.857c-14.758,0-26.719-7.365-26.719-12.238   c0-3.805,7.661,0.612,18.282,2.53c-0.193,0.452-0.311,0.978-0.311,1.545c0,1.657,0.946,3.002,2.112,3.002   c1.172,0,2.116-1.345,2.116-3.002c0-0.353-0.051-0.685-0.129-0.998c1.51,0.16,3.061,0.259,4.647,0.259   c1.586,0,3.138-0.099,4.648-0.259c-0.078,0.313-0.129,0.646-0.129,0.998c0,1.657,0.945,3.002,2.117,3.002   c1.164,0,2.112-1.345,2.112-3.002c0-0.567-0.117-1.093-0.311-1.545c10.62-1.918,18.277-6.335,18.277-2.53   C-61.285-230.701-73.241-222.857-88.001-222.857z"></path><path d="M99.987-230.314c-0.076-0.625-0.474-1.166-1.049-1.424c-5.072-2.274-21.864-10.213-23.352-10.957   c-0.322-0.16-0.691-0.242-1.097-0.242c-1.843,0-5.949,1.963-13.895,6.087c-1.685,0.875-3.14,1.631-4.056,2.066   c-1.071,0.511-2.554,0.78-4.288,0.78c-3.021,0-6.32-0.834-8.407-2.126l-0.934-0.578c-12.562-7.798-18.236-10.894-20.243-11.037   c-0.059-0.004-0.121-0.006-0.186-0.006c-0.653,0-2.39,0-12.091,6.598c-1.546,1.052-9.304,6.374-10.131,7.821   c-0.348,0.609-0.348,1.329-0.001,1.927c0.613,1.057,1.839,1.144,3.147,1.144c3.85,0,13.356-1.285,17.448-2.209   c1.122,0.844,2.622,1.827,4.121,2.771c-1.531,0.391-3.14,1.066-4.617,2.198c-3.048,2.334-4.675,5.925-4.839,10.673   c-0.106,3.073,0.361,5.041,1.473,6.191c0.671,0.694,1.55,1.061,2.543,1.061c2.146,0,4.417-1.717,6.613-3.377   c0.347-0.263,0.686-0.519,1.007-0.754c3.704,3.354,11.77,6.942,17.88,7.024l0.166,0.002c4.309,0,9.766-2.234,13.287-5.338   c2.47,1.447,6.15,3.797,8.712,5.431c1.671,1.065,2.878,1.836,3.343,2.103c0.276,0.157,0.585,0.236,0.892,0.236   c0.312,0,0.623-0.08,0.901-0.242c0.555-0.321,0.895-0.913,0.895-1.554c0-1.21,0.472-2.398,0.867-3.181   c0.591,0.067,1.343,0.126,2.167,0.126c1.476,0,2.8-0.186,3.938-0.552c0.667-0.214,1.147-0.797,1.232-1.492   s-0.242-1.376-0.838-1.744c-1.796-1.111-4.53-3.959-7.176-6.712c-1.636-1.702-3.215-3.347-4.633-4.65   c1.447-0.746,2.741-1.6,3.866-2.342c0.756-0.499,1.77-1.168,2.213-1.336c0.556,0.142,1.958,0.676,3.104,1.112   c2.769,1.055,5.905,2.249,7.974,2.467c4.546,0.476,9.057-0.984,13.36-4.334C99.805-229.069,100.062-229.688,99.987-230.314z    M22.711-219.222c-3.06-0.383-4.995-1.316-4.111-4.065c0.553-1.721,1.824-2.262,4.812-2.137c1.757,0.073,6.582,1.058,6.582,3.073   C29.993-219.405,25.771-218.839,22.711-219.222z M25.956-224.089c-0.709,0-1.282,0.813-1.282,1.818s0.573,1.819,1.282,1.819   c0.705,0,1.28-0.814,1.28-1.819S26.661-224.089,25.956-224.089z M21.338-224.089c-0.705,0-1.28,0.813-1.28,1.818   s0.575,1.819,1.28,1.819c0.708,0,1.282-0.814,1.282-1.819S22.046-224.089,21.338-224.089z"></path><path d="M-471.332-102.766c-0.289-6.586-2.153-13.613-7.174-18.201c3.14-1.276,5.331-4.39,5.904-7.678   c0.578-3.321-0.617-7.088-3.783-8.67c-3.033-1.513-6.582-0.368-8.85,1.949c-2.533,2.591-3.713,6.601-2.567,10.091   c-7.306-0.946-14.324,2.844-19.765,7.383c-5.711,4.764-10.332,10.788-14.061,17.192c-2.167,3.722-4.005,7.618-5.673,11.585   c-1.505,3.582-2.855,7.238-3.87,10.991c-1.642,6.073-2.508,12.734-0.546,18.842c1.2,3.737,3.471,7.01,6.466,9.532   c-1.716,3.892-1.068,9.438,3.305,11.251c4.165,1.728,8.462-1.299,10.246-4.982c6.651,1.122,12.98-1.064,18.046-5.387   c5.032-4.294,8.711-10.021,11.81-15.801C-475.612-76.291-470.749-89.381-471.332-102.766   C-471.353-103.25-470.925-93.432-471.332-102.766z M-495.581-119.783c2.714-0.972,5.629-1.345,8.458-0.684l-0.219,0.474   c-0.532,1.151-0.076,2.563,1.032,3.183c1.238,0.691,2.849,0.17,3.443-1.117l0.213-0.461c5.323,4.014,6.766,11.371,6.754,17.648   c-0.014,7.857-1.984,15.719-4.885,22.981c-2.834,1.248-5.912,1.883-9.007,1.883c-6.871,0-13.873-2.813-19.493-6.643   c-4.643-3.161-8.317-7.546-9.936-12.981c3.001-5.676,6.686-11.058,11.182-15.657C-504.57-114.705-500.361-118.19-495.581-119.783   C-495.286-119.889-495.587-119.781-495.581-119.783z M-483.082-130.463c0.713-1.543,2.682-3.629,4.588-2.752   c1.9,0.879,1.587,3.745,0.881,5.275c-0.713,1.543-2.683,3.629-4.588,2.751C-484.103-126.066-483.788-128.934-483.082-130.463   C-482.284-132.19-483.609-129.318-483.082-130.463z M-519.481-42.623c-2.179,0-2.271-2.931-1.857-4.415   c1.611,0.92,3.29,1.702,5.036,2.332C-517.253-43.288-518.546-42.623-519.481-42.623z"></path><path d="M-336.441-102.546c-0.616-15.359-5.09-31.635-16.138-34.974c-3.323-1.005-6.571-0.427-9.397,1.672   c-1.913,1.421-3.539,3.467-4.901,5.838c-0.738-0.369-1.507-0.681-2.31-0.924c-3.461-1.049-6.846-0.446-9.79,1.737   c-6.272,4.653-9.621,15.705-10.727,23.672c-1.196,0.562-1.959,1.391-2.421,2.143c-0.672,1.093-0.999,2.405-0.999,4.01v42.795   c0,3.531,2.629,7.155,5.987,8.251l30.841,10.054c0.548,0.181,1.142,0.272,1.761,0.272c1.687,0,3.289-0.678,4.226-1.312   c0.689-0.467,10.241-7.082,10.648-7.363c1.312-0.915,2.521-2.354,3.409-4.053s1.376-3.515,1.376-5.109v-42.217   C-334.876-99.744-335.419-101.29-336.441-102.546z M-359.212-132.125c1.668-1.239,3.349-1.544,5.292-0.956   c5.283,1.597,8.29,7.706,9.882,12.552c1.409,4.285,2.359,9.482,2.784,15.061l-13.024-4.247c-1.705-7.248-4.532-13.635-8.784-17.607   C-361.959-129.339-360.677-131.037-359.212-132.125z M-365.087-122.769c2.406,2.763,4.023,6.453,5.066,9.634   c0.183,0.557,0.354,1.132,0.522,1.717l-7.272-2.372h-0.001c-0.123-0.04-0.246-0.081-0.371-0.122   c-0.076-0.025-0.159-0.052-0.237-0.077C-366.908-116.765-366.142-119.867-365.087-122.769z M-376.215-125.474   c1.768-1.311,3.626-1.645,5.683-1.022c0.569,0.173,1.109,0.406,1.63,0.672c-1.516,3.721-2.532,7.763-3.104,11.297   c-0.805,0.172-1.553,0.499-2.22,1.01c-1.03,0.79-1.849,1.947-2.504,3.537c-1.133,2.753-2.307,4.243-5.26,4.243   c-0.641,0-1.356-0.072-2.125-0.215c-0.275-0.051-0.538-0.081-0.803-0.115C-383.751-113.049-380.811-122.063-376.215-125.474z    M-385.438-101.662c0.002-0.03,0.005-0.063,0.007-0.095c0.073,0.018,0.15,0.035,0.242,0.06c0,0,4.863,1.252,8.123-0.994   c2.859-1.969,4.88-6.417,4.88-6.417c0.379-0.836,1.403-1.283,2.274-0.994l11.643,3.861c0.834,4.325,1.327,9.113,1.435,14.067   l-28.387-9.414C-385.304-101.614-385.371-101.639-385.438-101.662z M-352.95-46.73c0,0.64-0.519,1.159-1.159,1.159   s-1.159-0.52-1.159-1.159v-32.167c0-0.641,0.519-1.159,1.159-1.159s1.159,0.519,1.159,1.159V-46.73z M-345.271-92.154   c-2.303,1.587-5.326,1.443-6.907,1.222c-0.038-4.509-0.382-9.167-1.096-13.652l11.802,3.914c0.171,0.055,0.32,0.14,0.457,0.234   c0.01,0.55,0.016,1.101,0.016,1.653c0,0.348,0.082,0.675,0.22,0.972C-341.425-96.558-343.072-93.67-345.271-92.154z"></path><path d="M-181.787-93.609c-1.8-5.603-9.706-6.448-17.351-7.266c-5.106-0.546-10.387-1.11-12.049-3.139   c-1.671-2.037-1.735-8.854-1.79-14.868c-0.091-9.832-0.175-19.118-5.815-19.118l-0.141,0.002   c-5.725,0.177-9.388,10.486-12.621,19.582c-1.338,3.766-3.003,8.451-3.823,8.986c-0.003,0.001-0.079,0.021-0.284,0.021l0,0   c-1.7-0.001-6.062-1.208-10.68-2.486c-6.741-1.866-14.381-3.981-19.066-3.981c-2.32,0-3.824,0.532-4.599,1.628   c-2.154,3.044,2.619,7.882,9.227,14.579c5.449,5.522,12.231,12.396,12.348,16.526c0.106,3.766-4.73,11.08-8.998,17.534   c-5.946,8.99-11.08,16.755-7.776,20.246c0.694,0.733,1.65,1.105,2.839,1.105c0.002,0,0.002,0,0.002,0   c3.649-0.002,9.392-3.576,16.043-7.715c6.783-4.222,14.47-9.007,19.026-9.007c0.658,0,1.23,0.104,1.702,0.311   c2.087,0.914,4.804,4.717,7.681,8.742c4.665,6.527,9.952,13.927,15.97,13.926c0.516,0,1.035-0.056,1.54-0.165   c1.452-0.313,2.522-1.077,3.182-2.27c2.014-3.651-0.52-10.59-3.199-17.936c-2.164-5.932-4.619-12.655-3.502-15.548   c1.147-2.978,6.014-5.297,10.719-7.541C-186.671-84.573-179.917-87.793-181.787-93.609z M-207.894-89.916   c-0.696,5.059-8.198,7.573-18.477,6.159c-10.273-1.41-16.871-5.479-16.123-10.914c0.746-5.438,7.443-3.43,17.717-2.018   C-214.496-95.276-207.198-94.978-207.894-89.916z M-215.131-92.462c-1.319-0.181-2.595,1.188-2.854,3.057   c-0.256,1.869,0.601,3.529,1.922,3.712c1.312,0.181,2.591-1.188,2.847-3.056C-212.96-90.621-213.819-92.28-215.131-92.462z    M-228.575-94.517c-1.31-0.183-2.585,1.186-2.845,3.058c-0.256,1.866,0.608,3.529,1.916,3.709c1.321,0.183,2.596-1.188,2.853-3.055   C-226.394-92.675-227.253-94.336-228.575-94.517z"></path><path d="M-39.328-104.268c-0.765-1.071-1.887-2.171-3.43-3.36c-3.56-2.743-6.281-4.485-8.824-5.649   c-2.73-1.25-5.29-1.832-8.055-1.832c-2.381,0-4.762,0.459-7.281,1.405c-2.141,0.804-4.112,1.839-6.199,2.935   c-2.846,1.494-5.787,3.038-9.264,3.987c-3.343,0.911-7.095,1.658-10.723,2.38c-6.034,1.201-11.734,2.336-15.322,4.175   c-2.036,1.045-3.69,2.562-5.056,4.636c-1.109,1.686-1.865,3.476-2.597,5.207c-0.645,1.525-1.254,2.967-2.029,4.14   c-2.041,3.087-6.45,4.671-9.67,5.826c-0.744,0.268-1.453,0.521-2.084,0.776c-0.063,0.016-0.14,0.034-0.212,0.051   c-0.734,0.177-2.264,0.544-3.614,0.97c-0.853,0.269-1.519,0.523-2.036,0.779c-0.45,0.222-0.816,0.459-1.12,0.725   c-0.846,0.74-1.26,1.769-1.135,2.821c0.068,0.572,0.418,1.979,2.19,2.674c0.472,0.185,1.035,0.317,1.771,0.416   c1.218,0.163,2.979,0.243,5.384,0.243c2.771,0,7.36-0.183,10.637-0.324c1.052,0.07,2.261,0.159,3.651,0.261   c5.303,0.391,12.566,0.925,18.883,0.925c2.26,0,4.233-0.066,5.946-0.203c-0.002,0.135-0.003,0.27-0.001,0.405   c0.037,3.532,1.405,5.232,2.546,6.037c1.368,0.966,3.358,1.684,4.423,2.024c1.105,0.354,3.237,0.948,5.092,0.948   c0.324,0,0.636-0.019,0.928-0.055c0.798-0.1,1.935-0.525,2.815-1.982c0.32-0.529,0.599-1.171,0.878-2.018   c0.424-1.287,0.783-2.874,1.132-4.41c0.235-1.039,0.533-2.354,0.801-3.254c0.353-0.163,0.712-0.329,1.082-0.499   c1.999-0.918,4.06-1.865,5.954-2.991c1.031,0.016,2.669,0.233,4.254,0.444c1.737,0.23,3.532,0.469,5.034,0.523l0.205,0.008   c1.47,0.055,2.857,0.105,4.016,0.105c1.129,0,1.956-0.049,2.604-0.155c0.55-0.091,1.012-0.229,1.415-0.422   c0.937-0.45,1.587-1.221,1.833-2.168c0.196-0.757,0.282-2.238-1.348-3.651c-0.518-0.449-1.222-0.916-2.215-1.468   c-1.994-1.108-4.097-2.14-5.901-2.989c1.698-1.518,3.748-3.09,6.302-4.963c1.071-0.786,2.199-1.489,3.289-2.169   c1.426-0.889,2.772-1.729,3.85-2.668c1.614-1.407,2.438-2.903,2.521-4.574C-37.94-101.594-38.385-102.947-39.328-104.268z    M-53.054-101.674c-3.811,0.652-8.509,1.94-9.106-1.195c-0.691-3.622,1.473-6.651,7.018-7.018c2.799-0.184,6.292-0.014,8.262,2.355   c0.438,0.527,0.802,1.268,0.928,1.986C-45.587-103.467-48.172-102.511-53.054-101.674z M-55.175-107.182   c-0.711,0-1.291,0.82-1.291,1.833c0,1.014,0.58,1.835,1.291,1.835c0.714,0,1.293-0.821,1.293-1.835   C-53.882-106.361-54.461-107.182-55.175-107.182z M-50.189-108.062c-0.714,0-1.293,0.82-1.293,1.834s0.579,1.834,1.293,1.834   c0.711,0,1.291-0.82,1.291-1.834S-49.479-108.062-50.189-108.062z"></path><path d="M79.869-61.605c-1.978-0.995-4.218-2.125-4.689-4.603c-0.396-2.087,0.062-4.982,0.504-7.783   c0.465-2.939,0.958-6.091,0.46-8.629c6.022-5.888,9.722-13.795,9.722-22.486c0-18.138-16.088-32.894-35.863-32.894   c-19.777,0-35.867,14.756-35.867,32.894c0,10.195,5.084,19.323,13.049,25.361c-0.053,2.145,0.422,4.605,0.895,7.031   c0.682,3.496,1.386,7.111,0.448,9.413c-0.825,2.027-2.062,2.931-4.009,2.931l0,0c-1.31,0-2.706-0.404-3.939-0.761   c-1.011-0.291-1.884-0.543-2.612-0.543c-1.015,0-1.748,0.531-1.96,1.425c-0.155,0.656-0.146,1.683,0.778,2.853   c1.715,2.167,5.846,3.803,9.607,3.802c5.034,0,8.463-2.687,9.408-7.373c0.379-1.88,0.972-3.663,1.625-5.343   c0.192,1.656,0.436,3.256,0.657,4.703c0.076,0.505,0.15,0.992,0.22,1.457c0.74,5.02-1.639,7.879-3.375,9.967   c-1.145,1.378-2.57,3.091-0.99,4.596c0.784,0.744,1.781,1.138,2.883,1.138c1.653,0,3.401-0.878,4.922-2.471   c2.964-3.107,4.508-8.213,4.235-14.007c-0.188-3.997,1.644-6.672,3.426-8.989c0.836,2.138,1.56,4.566,1.02,7.613   c-2.252,12.719-2.22,20.246,0.099,23.013C51.229-38.446,52.17-38,53.243-38h0.001c0.117,0,0.237-0.005,0.359-0.016   c0.877-0.077,1.637-0.473,2.196-1.143c1.847-2.21,1.397-7.164,0.876-12.901c-0.395-4.327-0.801-8.805-0.094-11.663   c0.542-2.195,1.327-3.868,2.177-5.229c0.433,1.582,0.676,3.443,0.292,5.901c-0.743,4.784,0.483,9.591,3.284,12.86   c1.707,1.994,3.77,3.137,5.66,3.138h0.001c0.823,0,1.576-0.216,2.236-0.638c0.638-0.409,0.852-0.935,0.918-1.304   c0.198-1.09-0.547-2.084-1.576-3.459c-1.565-2.092-3.708-4.957-3.093-8.962c0.235-1.53,0.726-3.305,1.243-5.182   c0.148-0.541,0.302-1.095,0.451-1.658c0.107,0.608,0.2,1.247,0.26,1.958c0.657,7.799,5.747,10.565,9.905,10.565   c0.001,0,0.001,0,0.001,0c2.286,0,4.044-0.845,4.48-2.154C83.458-59.797,81.551-60.758,79.869-61.605z M49.998-79.276   c-9.952,0-16.757-0.582-16.757-7.186c0-6.608,6.805-7.199,16.757-7.199c9.955,0,16.758,0.591,16.758,7.199   C66.756-79.858,59.953-79.276,49.998-79.276z M57.231-89.513c-1.157,0-2.091,1.328-2.091,2.967c0,1.64,0.934,2.967,2.091,2.967   c1.15,0,2.087-1.327,2.087-2.967C59.318-88.185,58.382-89.513,57.231-89.513z M42.768-89.513c-1.149,0-2.088,1.328-2.088,2.967   c0,1.64,0.938,2.967,2.088,2.967c1.158,0,2.092-1.327,2.092-2.967C44.859-88.185,43.926-89.513,42.768-89.513z"></path><path d="M-324.583,36.305c0.18-1.034-0.144-2.146-0.953-2.877l-11.045-9.943c-1.193-1.071-3.198-1.139-4.459-0.146l-1.392,1.098   l0.55-7.6c0.116-1.6-1.102-2.907-2.705-2.907h-4.241V7.292c0-4.011-3.28-7.292-7.292-7.292h-40.061   c-4.011,0-7.292,3.281-7.292,7.292V92.71c0,4.009,3.281,7.29,7.292,7.29h40.061c4.012,0,7.292-3.281,7.292-7.29V70.482h0.241   c1.604,0,2.915-1.312,2.915-2.916v-1.449c1.66,0.897,3.29,2.75,3.75,6.534c0.553,4.566-0.074,8.193-0.579,11.107   c-0.301,1.734-0.56,3.231-0.56,4.679c0,6.78,4.317,10.439,8.38,10.439c2.228,0,4.346-1.059,5.812-2.9   c1.49-1.877,2.278-4.481,2.278-7.539c0-5.536-0.67-10.292-1.318-14.894c-0.787-5.587-1.537-10.905-1.138-17.48   c1.454-0.025,2.705-1.127,2.854-2.608l1.653-16.373C-324.512,36.812-324.536,36.554-324.583,36.305z M-386.992,35.317   c-1.512,0-2.738-1.227-2.738-2.737c0-1.515,1.227-2.738,2.738-2.738c1.513,0,2.738,1.224,2.738,2.738   C-384.254,34.091-385.479,35.317-386.992,35.317z M-376.149,35.317c-1.511,0-2.737-1.227-2.737-2.737   c0-1.515,1.227-2.738,2.737-2.738c1.514,0,2.739,1.224,2.739,2.738C-373.41,34.091-374.636,35.317-376.149,35.317z    M-365.306,35.317c-1.512,0-2.737-1.227-2.737-2.737c0-1.515,1.226-2.738,2.737-2.738c1.513,0,2.739,1.224,2.739,2.738   C-362.566,34.091-363.793,35.317-365.306,35.317z M-354.742,19.937c0,1.604-1.313,2.916-2.917,2.916h-36.981   c-1.604,0-2.916-1.312-2.916-2.916v-9.825c0-1.604,1.312-2.916,2.916-2.916h36.981c1.604,0,2.917,1.312,2.917,2.916V19.937z    M-332.833,92.824c-1.734,2.182-5.164,0.629-5.164-4.387c0-1.012,0.226-2.311,0.485-3.813c0.531-3.07,1.259-7.277,0.616-12.583   c-0.829-6.815-4.753-10.178-8.776-11.322v-1.161c0-1.604-1.312-2.916-2.915-2.916h-0.241v-13.07h2.096   c1.604,0,3.011-1.308,3.127-2.907l0.331-4.587l7.198,3.511l-0.065,12.875c-0.008,1.316,0.871,2.512,2.067,2.993   c-0.468,7.242,0.35,13.108,1.15,18.797c0.653,4.629,1.27,9.003,1.27,14.185C-331.654,90.31-332.073,91.868-332.833,92.824z"></path></g></svg>