<svg xmlns="http://www.w3.org/2000/svg" xmlns:xlink="http://www.w3.org/1999/xlink" version="1.1" x="0px" y="0px" width="100px" height="100px" viewBox="0 0 100 100" enable-background="new 0 0 100 100" xml:space="preserve">
<g id="Captions">
</g>
<g id="Your_Icon">
	<path d="M25.278,78.999"/>
	<path d="M60.021,78.645v-0.041h25.356c-0.008-6.117-2.852-6.128-11.359-14.839c-4.699-4.81-11.143-6.889-12.562-18.841   c-0.441-3.727-0.717-11.623-1.438-19.732v53.453H60.021z"/>
	<path d="M41.395,25.779c-0.6,7.311-0.871,14.468-1.217,18.74c-1.014,12.56-4.57,12.66-13.574,20.865   C17.598,73.59,16.271,76.123,16,78.594l25.369,0.01v0.041h0.025V25.779z"/>
	<polygon points="58.85,94.301 58.85,79.404 51.515,79.404 51.515,93.633 50.3,93.633 50.3,79.404 42.479,79.404 42.479,94.301    42.479,94.301 43.463,100 50.203,100 50.203,96.69 51.399,96.69 51.399,99.979 57.758,99.979  "/>
	<polyline points="58.883,64.738 42.512,64.738 42.512,78.645 50.333,78.645 50.333,67.486 51.548,67.486 51.548,78.645    58.883,78.645  "/>
	<polyline points="58.883,51.443 42.512,51.443 42.512,63.715 58.883,63.715  "/>
	<rect x="42.512" y="38.069" width="16.371" height="12.272"/>
	<rect x="42.512" y="25.055" width="16.371" height="11.916"/>
	<path d="M58.883,23.729c-0.718-7.696-1.86-14.93-3.95-19.36c0,0-1.941-4.353-4.345-4.353S46.25,4.368,46.25,4.368   c-1.965,4.425-3.052,11.614-3.738,19.36H58.883z M47.974,19c-0.893,1.566-1.999,2.617-2.475,2.349   c-0.475-0.271-0.134-1.759,0.758-3.327c0.894-1.568,1.999-2.621,2.475-2.35C49.206,15.941,48.867,17.431,47.974,19z M56.025,21.349   c-0.475,0.269-1.581-0.782-2.475-2.349c-0.893-1.569-1.231-3.059-0.757-3.328c0.475-0.271,1.581,0.781,2.473,2.35   C56.16,19.59,56.5,21.078,56.025,21.349z"/>
</g>
</svg>
