<svg xmlns="http://www.w3.org/2000/svg" xmlns:xlink="http://www.w3.org/1999/xlink" version="1.1" x="0px" y="0px" viewBox="0 0 90 95" enable-background="new 0 0 90 95" xml:space="preserve"><path d="M73.2-0.6H16.8C7.5-0.6-0.1,7-0.1,16.3v56.4c0,8.6,6.4,15.7,14.7,16.8v5.2h0.1l5-5h0.3l5,5h0.1v-5h48  c9.3,0,16.9-7.6,16.9-16.9V16.3C90.1,7,82.5-0.6,73.2-0.6z M25.2,19.9h15.1V9.5h10v10.4h15.1v7.5H50.3V56h-10V27.4H25.2V19.9z   M87.4,71.3c0,8.4-6.8,15.3-15.2,15.4v0h-47v-7.8h2.1v-0.6h-2.1H14.6h-2.3v0.6h2.3v7.7c-4.6-0.3-8.3-4.2-8.3-8.9  c0-4.9,4-8.9,8.9-8.9c0,0,0,0,0,0v0L71,68.8c7.9,0,14.5-5.4,16.4-12.8V71.3z"></path></svg>