<svg fill="#000000" xmlns="http://www.w3.org/2000/svg" data-name="Layer 1" viewBox="0 0 100 100" x="0px" y="0px"><title>Calculator Symbols</title><path d="M62.21,58.18l-6.47-6.47a2.42,2.42,0,0,1,0-3.42l6.47-6.47a2.94,2.94,0,0,0,.22-4,2.83,2.83,0,0,0-4.11-.11l-6.58,6.58a2.42,2.42,0,0,1-3.42,0l-6.47-6.47a2.94,2.94,0,0,0-4-.22,2.83,2.83,0,0,0-.11,4.11l6.58,6.58a2.42,2.42,0,0,1,0,3.42l-6.47,6.47a2.94,2.94,0,0,0-.22,4,2.83,2.83,0,0,0,4.11.11l6.58-6.58a2.42,2.42,0,0,1,3.42,0l6.58,6.58a2.83,2.83,0,0,0,4.11-.11A2.94,2.94,0,0,0,62.21,58.18Z"/></svg>