<svg xmlns="http://www.w3.org/2000/svg" xmlns:xlink="http://www.w3.org/1999/xlink" version="1.1" x="0px" y="0px" width="100px" height="100px" viewBox="0 0 100 100" enable-background="new 0 0 100 100" xml:space="preserve">
<g id="Background">
</g>
<g id="Pictograms">
	<g>
		<path d="M81.67,3.27H18.33c-2.75,0-5,2.24-5,5v83.46c0,2.76,2.25,5,5,5h63.34c2.75,0,5-2.24,5-5V8.27    C86.67,5.51,84.42,3.27,81.67,3.27z M84.67,91.73c0,1.66-1.35,3-3,3H18.33c-1.65,0-3-1.34-3-3V8.27c0-1.66,1.35-3,3-3h63.34    c1.65,0,3,1.34,3,3V91.73z"/>
		<path d="M78.34,15.7v13.81c0,0.55-0.44,1-1,1H21.71c-0.56,0-1-0.45-1-1V15.7c0-0.55,0.44-1,1-1h55.63    C77.9,14.7,78.34,15.15,78.34,15.7z"/>
		<path d="M32.768,48.087H21.706c-0.552,0-1-0.448-1-1V37.32c0-0.552,0.448-1,1-1h11.062c0.552,0,1,0.448,1,1v9.767    C33.768,47.639,33.32,48.087,32.768,48.087z M22.706,46.087h9.062V38.32h-9.062V46.087z"/>
		<path d="M47.626,48.087H36.564c-0.552,0-1-0.448-1-1V37.32c0-0.552,0.448-1,1-1h11.062c0.552,0,1,0.448,1,1v9.767    C48.626,47.639,48.179,48.087,47.626,48.087z M37.564,46.087h9.062V38.32h-9.062V46.087z"/>
		<path d="M62.485,48.087H51.423c-0.552,0-1-0.448-1-1V37.32c0-0.552,0.448-1,1-1h11.062c0.552,0,1,0.448,1,1v9.767    C63.485,47.639,63.037,48.087,62.485,48.087z M52.423,46.087h9.062V38.32h-9.062V46.087z"/>
		<path d="M77.343,48.087H66.281c-0.552,0-1-0.448-1-1V37.32c0-0.552,0.448-1,1-1h11.062c0.552,0,1,0.448,1,1v9.767    C78.343,47.639,77.895,48.087,77.343,48.087z M67.281,46.087h9.062V38.32h-9.062V46.087z"/>
		<path d="M32.768,61.691H21.706c-0.552,0-1-0.448-1-1v-9.767c0-0.552,0.448-1,1-1h11.062c0.552,0,1,0.448,1,1v9.767    C33.768,61.244,33.32,61.691,32.768,61.691z M22.706,59.691h9.062v-7.767h-9.062V59.691z"/>
		<path d="M47.626,61.691H36.564c-0.552,0-1-0.448-1-1v-9.767c0-0.552,0.448-1,1-1h11.062c0.552,0,1,0.448,1,1v9.767    C48.626,61.244,48.179,61.691,47.626,61.691z M37.564,59.691h9.062v-7.767h-9.062V59.691z"/>
		<path d="M62.485,61.691H51.423c-0.552,0-1-0.448-1-1v-9.767c0-0.552,0.448-1,1-1h11.062c0.552,0,1,0.448,1,1v9.767    C63.485,61.244,63.037,61.691,62.485,61.691z M52.423,59.691h9.062v-7.767h-9.062V59.691z"/>
		<path d="M77.343,61.691H66.281c-0.552,0-1-0.448-1-1v-9.767c0-0.552,0.448-1,1-1h11.062c0.552,0,1,0.448,1,1v9.767    C78.343,61.244,77.895,61.691,77.343,61.691z M67.281,59.691h9.062v-7.767h-9.062V59.691z"/>
		<path d="M32.768,75.296H21.706c-0.552,0-1-0.448-1-1v-9.767c0-0.552,0.448-1,1-1h11.062c0.552,0,1,0.448,1,1v9.767    C33.768,74.848,33.32,75.296,32.768,75.296z M22.706,73.296h9.062v-7.767h-9.062V73.296z"/>
		<path d="M47.626,75.296H36.564c-0.552,0-1-0.448-1-1v-9.767c0-0.552,0.448-1,1-1h11.062c0.552,0,1,0.448,1,1v9.767    C48.626,74.848,48.179,75.296,47.626,75.296z M37.564,73.296h9.062v-7.767h-9.062V73.296z"/>
		<path d="M62.485,75.296H51.423c-0.552,0-1-0.448-1-1v-9.767c0-0.552,0.448-1,1-1h11.062c0.552,0,1,0.448,1,1v9.767    C63.485,74.848,63.037,75.296,62.485,75.296z M52.423,73.296h9.062v-7.767h-9.062V73.296z"/>
		<path d="M32.768,88.901H21.706c-0.552,0-1-0.448-1-1v-9.767c0-0.552,0.448-1,1-1h11.062c0.552,0,1,0.448,1,1v9.767    C33.768,88.453,33.32,88.901,32.768,88.901z M22.706,86.901h9.062v-7.767h-9.062V86.901z"/>
		<path d="M47.626,88.901H36.564c-0.552,0-1-0.448-1-1v-9.767c0-0.552,0.448-1,1-1h11.062c0.552,0,1,0.448,1,1v9.767    C48.626,88.453,48.179,88.901,47.626,88.901z M37.564,86.901h9.062v-7.767h-9.062V86.901z"/>
		<path d="M62.485,88.901H51.423c-0.552,0-1-0.448-1-1v-9.767c0-0.552,0.448-1,1-1h11.062c0.552,0,1,0.448,1,1v9.767    C63.485,88.453,63.037,88.901,62.485,88.901z M52.423,86.901h9.062v-7.767h-9.062V86.901z"/>
		<path d="M77.343,88.901H66.281c-0.552,0-1-0.448-1-1V64.529c0-0.552,0.448-1,1-1h11.062c0.552,0,1,0.448,1,1v23.372    C78.343,88.453,77.895,88.901,77.343,88.901z M67.281,86.901h9.062V65.529h-9.062V86.901z"/>
	</g>
</g>
<g id="Guides">
</g>
</svg>
