<?xml version="1.0" encoding="utf-8"?>
<!-- Generator: Adobe Illustrator 16.0.0, SVG Export Plug-In . SVG Version: 6.00 Build 0)  -->
<!DOCTYPE svg PUBLIC "-//W3C//DTD SVG 1.1//EN" "http://www.w3.org/Graphics/SVG/1.1/DTD/svg11.dtd">
<svg version="1.1" id="Layer_1" xmlns="http://www.w3.org/2000/svg" xmlns:xlink="http://www.w3.org/1999/xlink" x="0px" y="0px"
	 width="100px" height="66.833px" viewBox="0 0 100 66.833" enable-background="new 0 0 100 66.833" xml:space="preserve">
<path fill="#010101" d="M96.14,11.012C84.707-9.05,64.714,7.674,64.714,7.674S53.73,4.226,49.604,4.086V4.078v0.006
	c-4.248-0.008-14.396,3.049-14.396,3.049s-18.723-17.43-30.88,2.2c-15.768,25.459,16.624,37.608,16.526,25.795
	c-0.253,7.51,1.129,11.739,3.89,17.249c2.941,5.874,12.271,9.133,14.702,11.073c2.363,1.888,7.974,3.271,10.158,3.371
	c0,0.002,0,0.011,0,0.011c0-0.003,0-0.005,0-0.006c2.063-0.035,7.508-1.208,9.939-3.007c2.498-1.852,11.668-4.773,14.823-10.535
	c2.958-5.404,4.418-9.585,4.438-17.096C78.274,47.99,110.965,37.031,96.14,11.012z M36.464,40.165l-2.176-1.195
	c0,0,0.613-1.747,1.838-2.506c1.529-0.947,4.049,1.656,4.049,1.656L36.464,40.165z M56.683,55.015
	c-0.063,3.599-3.222,6.461-7.05,6.394c-3.828-0.073-6.878-3.048-6.812-6.648l0.186-10.158c0.066-3.602,3.224-6.463,7.051-6.394
	c3.829,0.07,6.879,3.047,6.813,6.646L56.683,55.015z M62.997,40.65l-3.632-2.177c0,0,2.612-2.512,4.105-1.508
	c1.196,0.801,1.746,2.571,1.746,2.571L62.997,40.65z"/>
</svg>
