<svg fill="#000000" xmlns="http://www.w3.org/2000/svg" xmlns:xlink="http://www.w3.org/1999/xlink" version="1.1" x="0px" y="0px" viewBox="0 0 100 100" enable-background="new 0 0 100 100" xml:space="preserve"><g><path d="M26.138,83.592h5.519l0.001,0l0.001,0h36.68l0.001,0l0.001,0h5.52c0.382,0,0.756-0.155,1.026-0.425   s0.425-0.644,0.425-1.026V17.86c0-0.382-0.155-0.756-0.425-1.026s-0.644-0.425-1.026-0.425H26.138   c-0.382,0-0.756,0.155-1.026,0.425c-0.27,0.27-0.425,0.644-0.425,1.026v64.28c0,0.382,0.155,0.756,0.425,1.026   C25.382,83.437,25.756,83.592,26.138,83.592z M33.378,80.689l2.876-15.316h27.223l3.146,15.316H33.378z M72.41,80.689h-2.823   l-3.504-17.06c-0.139-0.674-0.734-1.159-1.422-1.159H35.05c-0.697,0-1.298,0.499-1.427,1.184l-3.199,17.036H27.59l0-61.377h44.82   V80.689z"/><path d="M14.075,88.282l6.39,6.245c0.269,0.263,0.638,0.413,1.015,0.413h0.292c0.121,0,0.221-0.012,0.34-0.04l8.972-2.159   l8.973,2.159c0.118,0.028,0.218,0.04,0.34,0.04h0.292c0.121,0,0.221-0.012,0.34-0.04L50,92.742l8.973,2.159   c0.118,0.028,0.218,0.04,0.34,0.04h0.292c0.121,0,0.221-0.012,0.34-0.04l8.972-2.159l8.973,2.159c0.118,0.028,0.218,0.04,0.34,0.04   h0.292c0.377,0,0.745-0.15,1.015-0.413l6.39-6.245c0.381-0.372,0.527-0.922,0.382-1.434l-2.528-8.915l2.528-8.915   c0.073-0.259,0.073-0.533,0-0.792l-2.528-8.915l2.528-8.915c0.037-0.131,0.055-0.26,0.055-0.396v0c0-0.136-0.018-0.265-0.055-0.396   l-2.528-8.915l2.528-8.915c0.073-0.259,0.073-0.533,0-0.792l-2.528-8.915l2.528-8.915c0.145-0.512-0.001-1.062-0.382-1.434   l-6.39-6.245c-0.269-0.263-0.638-0.413-1.015-0.413h-0.292c-0.121,0-0.222,0.012-0.34,0.04l-8.973,2.159L59.944,5.1   c-0.118-0.028-0.218-0.04-0.34-0.04h-0.292c-0.121,0-0.222,0.012-0.34,0.04L50,7.259L41.028,5.1c-0.118-0.028-0.218-0.04-0.34-0.04   h-0.292c-0.122,0-0.222,0.012-0.34,0.04l-8.973,2.159L22.111,5.1c-0.118-0.028-0.218-0.04-0.34-0.04H21.48   c-0.377,0-0.745,0.15-1.015,0.413l-6.39,6.245c-0.381,0.372-0.527,0.922-0.382,1.434l2.528,8.915l-2.528,8.915   c-0.073,0.258-0.073,0.533,0,0.792l2.528,8.915l-2.528,8.915c-0.073,0.258-0.073,0.533,0,0.792l2.528,8.915l-2.528,8.915   c-0.073,0.258-0.073,0.533,0,0.792l2.528,8.915l-2.528,8.915C13.548,87.36,13.694,87.91,14.075,88.282z M19.126,58.915L16.599,50   l2.528-8.915c0.073-0.259,0.073-0.533,0-0.792l-2.528-8.915l2.528-8.915c0.073-0.259,0.073-0.533,0-0.792l-2.405-8.48l5.256-5.137   l8.62,2.074c0.118,0.028,0.218,0.04,0.34,0.04h0.292c0.121,0,0.221-0.012,0.34-0.04l8.972-2.159l8.973,2.159   c0.118,0.028,0.218,0.04,0.34,0.04h0.292c0.121,0,0.221-0.012,0.34-0.04l8.972-2.159l8.973,2.159c0.118,0.028,0.218,0.04,0.34,0.04   h0.292c0.121,0,0.221-0.012,0.34-0.04l8.62-2.074l5.256,5.137l-2.404,8.48c-0.073,0.258-0.073,0.533,0,0.792l2.528,8.915   l-2.528,8.915c-0.073,0.258-0.073,0.533,0,0.792L83.401,50l-2.528,8.915c-0.073,0.258-0.073,0.533,0,0.792l2.528,8.915   l-2.528,8.915c-0.073,0.258-0.073,0.533,0,0.792l2.405,8.48l-5.256,5.137l-8.62-2.074c-0.118-0.028-0.218-0.04-0.34-0.04H68.77   c-0.121,0-0.222,0.012-0.34,0.04l-8.973,2.159l-8.972-2.159c-0.118-0.028-0.218-0.04-0.34-0.04h-0.292   c-0.121,0-0.222,0.012-0.34,0.04l-8.972,2.159l-8.972-2.159c-0.118-0.028-0.218-0.04-0.34-0.04h-0.292   c-0.121,0-0.222,0.012-0.34,0.04l-8.62,2.074l-5.256-5.137l2.405-8.48c0.073-0.259,0.073-0.533,0-0.792l-2.528-8.915l2.528-8.915   C19.199,59.448,19.2,59.174,19.126,58.915z"/><path d="M50.05,57.274c5.88-0.001,10.644-4.765,10.645-10.645c-0.001-5.88-4.765-10.644-10.645-10.645   c-5.88,0.001-10.644,4.765-10.645,10.645C39.405,52.509,44.17,57.273,50.05,57.274z M44.575,41.155   c1.406-1.403,3.332-2.267,5.474-2.268c2.142,0.001,4.069,0.864,5.474,2.268c1.403,1.406,2.267,3.332,2.268,5.474   c-0.001,2.142-0.864,4.069-2.268,5.474c-1.406,1.403-3.332,2.267-5.474,2.268c-2.143-0.001-4.069-0.864-5.474-2.268   c-1.403-1.406-2.267-3.332-2.268-5.474C42.308,44.487,43.172,42.56,44.575,41.155z"/></g></svg>