<svg xmlns="http://www.w3.org/2000/svg" xmlns:xlink="http://www.w3.org/1999/xlink" version="1.1" x="0px" y="0px" viewBox="0 0 90 90" enable-background="new 0 0 90 90" xml:space="preserve"><rect x="22.196" y="35.414" fill="#000000" width="45.607" height="28.273"></rect><path fill="#000000" d="M68.987,15.699c0.581-0.757,0.94-1.692,0.94-2.722c0-1.662-0.906-3.102-2.241-3.895  c0.604-0.183,1.048-0.737,1.048-1.402V3.383c0-0.813-0.659-1.471-1.472-1.471H22.735c-0.812,0-1.47,0.659-1.47,1.471V7.68  c0,0.665,0.443,1.22,1.047,1.402c-1.335,0.793-2.24,2.233-2.24,3.895c0,1.029,0.358,1.964,0.939,2.722  c-3.517,5.555-5.386,14.015-5.386,17.695v31.976c0,5.656,4.494,22.719,12.672,22.719h33.403c8.179,0,12.673-17.063,12.673-22.719  V33.394C74.374,29.714,72.505,21.252,68.987,15.699z M66.394,12.977c0,0.557-0.453,1.01-1.01,1.01H24.615  c-0.557,0-1.01-0.453-1.01-1.01s0.453-1.01,1.01-1.01h40.769C65.94,11.967,66.394,12.42,66.394,12.977z M70.841,65.369  c0,5.873-4.685,19.186-9.14,19.186H28.298c-4.455,0-9.138-13.313-9.138-19.186V33.394c0-4.034,2.16-11.535,4.94-15.936  c0.344-0.542,0.698-1.016,1.058-1.452h39.683c0.36,0.436,0.715,0.91,1.06,1.454c2.78,4.402,4.94,11.9,4.94,15.934V65.369z"></path></svg>