<svg xmlns="http://www.w3.org/2000/svg" xmlns:xlink="http://www.w3.org/1999/xlink" version="1.1" id="Your_Icon" x="0px" y="0px" width="64px" height="41px" viewBox="0 0 64 41" enable-background="new 0 0 64 41" xml:space="preserve">
<g>
	<path d="M50,19c-4.418,0-8,3.582-8,8c0,4.42,3.582,8,8,8c4.419,0,8-3.58,8-8C58,22.582,54.419,19,50,19L50,19z M8,31   c-1.657,0-3,1.344-3,3c0,1.658,1.343,3,3,3c1.657,0,3-1.342,3-3C11,32.344,9.657,31,8,31L8,31z M53,0h3v12h7v3l-2.973,2.229   C62.485,19.753,64,23.201,64,27c0,7.732-6.268,14-14,14s-14-6.268-14-14H20.75L19,30h-5.254C14.537,31.135,15,32.514,15,34   c0,3.867-3.134,7-7,7s-7-3.133-7-7c0-2.199,1.014-4.16,2.6-5.443L0.155,16.103C0.055,15.752,0,15.384,0,15   c0-1.825,1.226-3.365,2.897-3.845C3.249,11.055,3.617,11,4,11h22l1-2h8l-6,12h8.5v-7c0-1.104,0.896-2,2-2H53V0L53,0z"/>
</g>
</svg>
