<svg fill="#000000" xmlns="http://www.w3.org/2000/svg" xmlns:xlink="http://www.w3.org/1999/xlink" version="1.1" x="0px" y="0px" viewBox="0 0 100 100" style="enable-background:new 0 0 100 100;" xml:space="preserve"><path d="M78.1,54.4c0.2-1.1,0-2.3-0.6-3.2s-1.6-1.6-2.8-1.8c-2.3-0.5-4.6,1.1-5.1,3.4c-0.2,1.1,0,2.3,0.6,3.2s1.6,1.6,2.8,1.8  c0.3,0.1,0.6,0.1,0.9,0.1C75.9,57.8,77.7,56.4,78.1,54.4z M76.1,54c-0.1,0.6-0.5,1.1-1,1.5c-0.5,0.3-1.1,0.5-1.7,0.3  c-0.6-0.1-1.1-0.5-1.5-1c-0.3-0.5-0.5-1.1-0.3-1.7c0.2-1.1,1.2-1.9,2.3-1.9c0.2,0,0.3,0,0.5,0c0.6,0.1,1.1,0.5,1.5,1  C76.1,52.7,76.3,53.4,76.1,54z"/><path d="M66.8,52.1c0.2-1.1,0-2.3-0.6-3.2s-1.6-1.6-2.8-1.8c-1.1-0.2-2.3,0-3.2,0.6c-1,0.6-1.6,1.6-1.8,2.8c-0.2,1.1,0,2.3,0.6,3.2  s1.6,1.6,2.8,1.8c0.3,0.1,0.6,0.1,0.9,0.1C64.6,55.6,66.4,54.1,66.8,52.1z M64.8,51.7c-0.1,0.6-0.5,1.1-1,1.5  c-0.5,0.3-1.1,0.5-1.7,0.3c-0.6-0.1-1.1-0.5-1.5-1c-0.3-0.5-0.5-1.1-0.3-1.7s0.5-1.1,1-1.5c0.4-0.3,0.8-0.4,1.3-0.4  c0.2,0,0.3,0,0.5,0c0.6,0.1,1.1,0.5,1.5,1C64.8,50.5,65,51.1,64.8,51.7z"/><path d="M55.5,49.8c0.5-2.3-1.1-4.6-3.4-5.1c-2.3-0.5-4.6,1.1-5.1,3.4c-0.5,2.3,1.1,4.6,3.4,5.1c0.3,0.1,0.6,0.1,0.9,0.1  c0.8,0,1.7-0.2,2.4-0.7C54.6,51.9,55.3,51,55.5,49.8z M53.5,49.4c-0.1,0.6-0.5,1.1-1,1.5c-0.5,0.3-1.1,0.5-1.7,0.3  c-1.3-0.3-2.1-1.5-1.8-2.7c0.3-1.3,1.5-2.1,2.7-1.8C53,46.9,53.8,48.2,53.5,49.4z"/><path d="M13.9,64.4c2.8,10.9,9.5,17.3,17.7,17.3c1.4,0,2.8-0.2,4.2-0.5c3.7-0.9,6.7-2.9,8.8-5.6c3,3,6.9,5,11.4,5.9  c1.8,0.4,3.6,0.6,5.3,0.6c14,0,21.8-12.7,24.5-25.6c1.6-8,0.9-16.7-2-23.8c-3.1-7.6-8.3-12.5-14.5-13.7  c-11.5-2.4-24.7,8.4-29.6,23.8c-4.2-4.3-9.5-6.8-14.7-5.5C16.1,39.4,10.8,52.4,13.9,64.4z M84.3,43.1l-39.1-8  c5.2-8.7,13.2-14.5,20.8-14.5c1,0,1.9,0.1,2.9,0.3C74.4,22,79,26.4,81.9,33.4C83.1,36.4,83.9,39.7,84.3,43.1z M83.8,56  c-0.8,3.8-1.9,7.2-3.3,10.2L48,59.5c-0.2-1.1-0.4-2.2-0.7-3.4c-1.1-4.3-3.2-8.5-6.1-11.8c0.8-2.6,1.8-5.1,3-7.4l40.3,8.3  C84.7,48.8,84.5,52.5,83.8,56z M46,74.1c2-3.4,2.7-7.6,2.3-12.5l31.3,6.4c-5.1,9.3-13.2,13.5-23.2,11.5C52.3,78.7,48.7,76.8,46,74.1  z M16.3,65.5C16.3,65.5,16.3,65.5,16.3,65.5c0.7-0.3,1.2-0.1,2.1,0.4c0.7,0.3,1.4,0.7,2.3,0.7c0.4,0,0.9-0.1,1.4-0.3  c1.6-0.7,2.1-1.9,2.4-2.9c0.3-0.9,0.5-1.4,1.3-1.7c0.7-0.3,1.2-0.1,2.1,0.4c0.9,0.5,2.1,1.1,3.8,0.4c1.6-0.7,2.1-2,2.4-2.9  c0.3-0.9,0.5-1.4,1.3-1.7c0.7-0.3,1.2-0.1,2.1,0.4c0.9,0.5,2.1,1.1,3.8,0.4c1.6-0.7,2.1-2,2.4-2.9c0.2-0.7,0.4-1.1,0.8-1.4  c0.2,0.7,0.5,1.4,0.7,2.2c1.6,6.2,1.4,11.6-0.6,15.6c-1.8,3.6-5,6.1-9.2,7.1C26.7,81.4,19.5,76.2,16.3,65.5z M25.4,39.1  c0.8-0.2,1.6-0.3,2.4-0.3c4,0,8.2,2.4,11.6,6.3c0,0,0,0.1,0.1,0.1c0.2,0.2,0.3,0.4,0.5,0.6c1.5,1.9,2.8,4.1,3.8,6.5  c-1.2,0.7-1.6,1.8-1.9,2.7c-0.3,0.9-0.5,1.4-1.3,1.7c-0.7,0.3-1.2,0.1-2.1-0.4c-0.9-0.5-2.1-1.1-3.8-0.4c-1.6,0.7-2.1,2-2.4,2.9  c-0.3,0.9-0.5,1.4-1.3,1.7c-0.7,0.3-1.2,0.1-2.1-0.4c-0.9-0.5-2.1-1.1-3.8-0.4c-1.6,0.7-2.1,1.9-2.4,2.9c-0.3,0.9-0.5,1.4-1.3,1.7  c-0.7,0.3-1.2,0.1-2.1-0.4c-0.9-0.5-2-1-3.5-0.5C13.1,52.7,17.6,41.1,25.4,39.1z"/><ellipse transform="matrix(0.1997 -0.9799 0.9799 0.1997 24.6754 107.7699)" cx="78.3" cy="38.8" rx="1.3" ry="1.3"/><ellipse transform="matrix(0.1997 -0.9799 0.9799 0.1997 21.9835 102.6446)" cx="73.8" cy="37.9" rx="1.3" ry="1.3"/><ellipse transform="matrix(0.1997 -0.9799 0.9799 0.1997 19.2891 97.5171)" cx="69.3" cy="37" rx="1.3" ry="1.3"/><ellipse transform="matrix(0.1997 -0.9799 0.9799 0.1997 16.5918 92.3872)" cx="64.9" cy="36" rx="1.3" ry="1.3"/><ellipse transform="matrix(0.1997 -0.9799 0.9799 0.1997 13.8973 87.2597)" cx="60.4" cy="35.1" rx="1.3" ry="1.3"/><ellipse transform="matrix(0.1997 -0.9799 0.9799 0.1997 11.205 82.1343)" cx="55.9" cy="34.2" rx="1.3" ry="1.3"/><ellipse transform="matrix(0.1997 -0.9799 0.9799 0.1997 8.5103 77.0066)" cx="51.4" cy="33.3" rx="1.3" ry="1.3"/><ellipse transform="matrix(0.1997 -0.9799 0.9799 0.1997 -9.5932 128.4365)" cx="73.8" cy="70.1" rx="1.3" ry="1.3"/><ellipse transform="matrix(0.1997 -0.9799 0.9799 0.1997 -12.2879 123.3089)" cx="69.3" cy="69.2" rx="1.3" ry="1.3"/><ellipse transform="matrix(0.1997 -0.9799 0.9799 0.1997 -14.985 118.1775)" cx="64.9" cy="68.3" rx="1.3" ry="1.3"/><ellipse transform="matrix(0.1997 -0.9799 0.9799 0.1997 -17.6797 113.0496)" cx="60.4" cy="67.3" rx="1.3" ry="1.3"/><ellipse transform="matrix(0.1997 -0.9799 0.9799 0.1997 -20.372 107.926)" cx="55.9" cy="66.4" rx="1.3" ry="1.3"/><ellipse transform="matrix(0.1997 -0.9799 0.9799 0.1997 -23.0668 102.7983)" cx="51.4" cy="65.5" rx="1.3" ry="1.3"/></svg>