<svg xmlns="http://www.w3.org/2000/svg" xmlns:xlink="http://www.w3.org/1999/xlink" version="1.1" x="0px" y="0px" width="100px" height="100px" viewBox="0 0 100 100" enable-background="new 0 0 100 100" xml:space="preserve">
<g id="Captions">
	<rect x="-192" width="185" height="99"/>
	<rect y="-36" width="100" height="30"/>
	<text transform="matrix(1 0 0 1 66 -19.5)" fill="#000000" font-family="'Helvetica'" font-size="2.4">http://thenounproject.com</text>
	<text transform="matrix(1 0 0 1 7.166 -24.5)"><tspan x="0" y="0" fill="#000000" font-family="'Helvetica-Bold'" font-size="6.1578">The Noun Project</tspan><tspan x="1.12" y="4.8" fill="#000000" font-family="'Helvetica-Bold'" font-size="4">Icon Template</tspan></text>
	<text transform="matrix(1 0 0 1 -178.5 10.5)" fill="#000000" font-family="'Helvetica-Bold'" font-size="6.1578">Reminders</text>
	<line fill="#000000" stroke="#FFFFFF" stroke-miterlimit="10" x1="8" y1="-14.5" x2="18" y2="-14.5"/>
	<line fill="#000000" stroke="#FFFFFF" stroke-miterlimit="10" x1="-179" y1="16.5" x2="-162" y2="16.5"/>
	<g>
		<g>
			<g>
				<rect x="-170.802" y="31.318" fill="#000000" width="8.721" height="8.642"/>
				<path fill="#000000" d="M-164.455,42.312h4.747v-4.703h-4.747V42.312z M-159.266,42.749h-5.63V37.17h5.63V42.749      L-159.266,42.749z M-166.221,44.062h8.279v-8.203h-8.279V44.062L-166.221,44.062z M-157.5,44.5h-9.163v-9.079h9.163V44.5      L-157.5,44.5z"/>
				<polygon fill="#000000" points="-166.149,44.133 -166.292,43.991 -158.013,35.787 -157.871,35.929     "/>
			</g>
		</g>
	</g>
	<rect x="-179" y="58" fill="none" width="35" height="32.5"/>
	<text transform="matrix(1 0 0 1 -179 60.1572)"><tspan x="0" y="0" fill="#000000" font-family="'Helvetica-Bold'" font-size="3">Strokes</tspan><tspan x="0" y="5" fill="#000000" font-family="'Helvetica'" font-size="2.4">Try to keep strokes at 4px</tspan><tspan x="0" y="10" fill="#000000" font-family="'Helvetica'" font-size="2.4">Minimum stroke weight is 2px</tspan><tspan x="0" y="14.5" fill="#000000" font-family="'Helvetica'" font-size="2.4">For thicker strokes use even </tspan><tspan x="0" y="17.5" fill="#000000" font-family="'Helvetica'" font-size="2.4">numbers: 6px, 8px etc.</tspan><tspan x="0" y="22" fill="#000000" font-family="'Helvetica-Bold'" font-size="2.4">Remember to expand strokes </tspan><tspan x="0" y="25" fill="#000000" font-family="'Helvetica-Bold'" font-size="2.4">before saving as an SVG </tspan></text>
	<rect x="-136.5" y="58" fill="none" width="35" height="32.5"/>
	<text transform="matrix(1 0 0 1 -136.5 60.1572)"><tspan x="0" y="0" fill="#000000" font-family="'Helvetica-Bold'" font-size="3">Size</tspan><tspan x="0" y="5" fill="#000000" font-family="'Helvetica'" font-size="2.4">Cannot be wider or taller than </tspan><tspan x="0" y="8.5" fill="#000000" font-family="'Helvetica'" font-size="2.4">100px (artboard size)</tspan><tspan x="0" y="13.5" fill="#000000" font-family="'Helvetica'" font-size="2.4">Scale your icon to fill as much of </tspan><tspan x="0" y="16.5" fill="#000000" font-family="'Helvetica'" font-size="2.4">the artboard as possible</tspan></text>
	<rect x="-94" y="58" fill="none" width="35" height="32.5"/>
	<text transform="matrix(1 0 0 1 -94 60.1572)"><tspan x="0" y="0" fill="#000000" font-family="'Helvetica-Bold'" font-size="3">Ungroup</tspan><tspan x="0" y="5" fill="#000000" font-family="'Helvetica'" font-size="2.4">If your design has more than one </tspan><tspan x="0" y="8" fill="#000000" font-family="'Helvetica'" font-size="2.4">shape, make sure to ungroup</tspan></text>
	<rect x="-50" y="58" fill="none" width="35" height="32.5"/>
	<text transform="matrix(1 0 0 1 -50 60.1572)"><tspan x="0" y="0" fill="#000000" font-family="'Helvetica-Bold'" font-size="3">Save as</tspan><tspan x="0" y="5" fill="#000000" font-family="'Helvetica'" font-size="2.4">Save as .SVG and make sure </tspan><tspan x="0" y="8" fill="#000000" font-family="'Helvetica'" font-size="2.4">&#8220;Use Artboards&#8221; is checked</tspan></text>
	<text transform="matrix(1.0074 0 0 1 -125.542 30.5933)" fill="#000000" font-family="'Helvetica'" font-size="2.5731">100px</text>
	<text transform="matrix(1.0074 0 0 1 -41 39)" fill="#000000" font-family="'Helvetica-Bold'" font-size="5.1462">.SVG</text>
	<rect x="-126.514" y="34.815" fill="#000000" width="10.261" height="10.185"/>
	<rect x="-126.477" y="31.766" fill="#000000" width="0.522" height="2.337"/>
	<rect x="-116.812" y="31.766" fill="#000000" width="0.523" height="2.337"/>
	<rect x="-127" y="32.337" fill="#000000" width="11.233" height="0.572"/>
	<g>
		<rect x="-83.805" y="33.844" fill="#000000" width="10.305" height="10.156"/>
		<rect x="-76.809" y="28.707" fill="#000000" width="3.308" height="3.261"/>
	</g>
	<rect x="-178.5" y="22.5" fill="#000000" stroke="#FFFFFF" stroke-miterlimit="10" width="30" height="30"/>
	<rect x="-136.5" y="22.5" fill="#000000" stroke="#FFFFFF" stroke-miterlimit="10" width="30" height="30"/>
	<rect x="-93.5" y="22.5" fill="#000000" stroke="#FFFFFF" stroke-miterlimit="10" width="30" height="30"/>
	<rect x="-49.5" y="22.5" fill="#000000" stroke="#FFFFFF" stroke-miterlimit="10" width="30" height="30"/>
</g>
<g id="Your_Icon">
	<g>
		<path d="M26.531,68.018c3.26,0,5.913-2.651,5.913-5.911c0-3.262-2.652-5.914-5.913-5.914c-3.261,0-5.914,2.652-5.914,5.914    C20.618,65.366,23.271,68.018,26.531,68.018z M26.531,58.54c1.965,0,3.564,1.6,3.564,3.566c0,1.965-1.599,3.564-3.564,3.564    c-1.966,0-3.565-1.6-3.565-3.564C22.966,60.14,24.565,58.54,26.531,58.54z"/>
		<path d="M30.586,38.663c2.885,0,5.231-2.348,5.231-5.234c0-2.883-2.347-5.229-5.231-5.229c-2.883,0-5.229,2.346-5.229,5.229    C25.357,36.315,27.703,38.663,30.586,38.663z M30.586,30.548c1.59,0,2.883,1.292,2.883,2.88c0,1.591-1.293,2.886-2.883,2.886    c-1.588,0-2.881-1.295-2.881-2.886C27.705,31.84,28.998,30.548,30.586,30.548z"/>
		<path d="M55.397,71.093c0,4.096,3.328,7.428,7.422,7.428c4.095,0,7.426-3.332,7.426-7.428c0-4.094-3.331-7.425-7.426-7.425    C58.726,63.668,55.397,66.999,55.397,71.093z M62.819,66.016c2.8,0,5.078,2.277,5.078,5.077c0,2.802-2.278,5.08-5.078,5.08    c-2.798,0-5.074-2.278-5.074-5.08C57.745,68.293,60.021,66.016,62.819,66.016z"/>
		<path d="M49.791,57.357c4.728,0,8.573-3.844,8.573-8.572c0-4.728-3.845-8.574-8.573-8.574c-4.726,0-8.571,3.846-8.571,8.574    C41.219,53.514,45.064,57.357,49.791,57.357z M49.791,42.56c3.433,0,6.225,2.792,6.225,6.225s-2.792,6.226-6.225,6.226    c-3.431,0-6.223-2.793-6.223-6.226S46.359,42.56,49.791,42.56z"/>
		<path d="M85.994,52.021c-0.03-0.025-3.042-2.527-2.672-6.713c0.336-3.8,2.84-4.829,3.088-4.92l1.668-0.549l-0.385-11.835    l0.051-0.054l-0.055-0.05l-0.008-0.258l-0.261,0.008l-18.771-17.4l-0.742-0.097C36.39,6.038,17.82,11.931,9.556,15.812    l0.086,0.183H9.506v59.856l78.243,15.396l-0.89-38.544L85.994,52.021z M55.396,24.471c-0.016,3.513-2.82,6.372-6.25,6.372    c-3.448,0-6.253-2.871-6.253-6.4c0-0.679,0.113-1.37,0.334-2.053c0.713-2.13,5.36-2.462,8.276-2.014    c2.993,0.463,3.714,1.926,3.893,4.042V24.471z M40.67,23.004c-0.027,0.161-0.044,0.321-0.062,0.482    c-0.009,0.079-0.022,0.159-0.029,0.238c-0.02,0.239-0.03,0.479-0.03,0.717c0,4.822,3.856,8.745,8.597,8.745    c4.261,0,7.819-3.186,8.484-7.341l25.442,4.331l0.199,6.104c-0.08,0.003-0.156,0.007-0.241,0.011    c-0.2,0.011-0.419,0.024-0.67,0.024c-4.654,0-10.064,4.01-10.064,9.18c0,4.874,5.168,8.828,9.704,9.154    c0.075,0.083,0.149,0.164,0.22,0.237l0.707,30.631L14.195,71.994V18.911c0.261-0.105,0.526-0.21,0.802-0.315l25.678,4.372    C40.673,22.979,40.672,22.992,40.67,23.004z M78.651,44.895c-0.252,2.852,0.465,5.193,1.392,6.96    c-2.819-1.017-5.402-3.528-5.402-6.358c0-3.312,3.232-6.06,6.383-6.696C79.894,40.171,78.896,42.125,78.651,44.895z M66.56,14.707    l13.589,12.595l-22.512-3.833c-0.343-2.197-1.488-4.748-5.777-5.411c-2.908-0.445-8.458-0.37-10.399,2.664l-21.772-3.706    C29.276,14.181,44.518,11.921,66.56,14.707z"/>
	</g>
</g>
</svg>
