<?xml version="1.0" encoding="utf-8"?>
<!-- Generator: Adobe Illustrator 16.0.0, SVG Export Plug-In . SVG Version: 6.00 Build 0)  -->
<!DOCTYPE svg PUBLIC "-//W3C//DTD SVG 1.1//EN" "http://www.w3.org/Graphics/SVG/1.1/DTD/svg11.dtd">
<svg version="1.1"
	 id="svg30967" xmlns:rdf="http://www.w3.org/1999/02/22-rdf-syntax-ns#" xmlns:dc="http://purl.org/dc/elements/1.1/" xmlns:cc="http://creativecommons.org/ns#" xmlns:svg="http://www.w3.org/2000/svg" xmlns:sodipodi="http://sodipodi.sourceforge.net/DTD/sodipodi-0.dtd" xmlns:inkscape="http://www.inkscape.org/namespaces/inkscape" sodipodi:docname="touch.svg" inkscape:version="0.48.3.1 r9886"
	 xmlns="http://www.w3.org/2000/svg" xmlns:xlink="http://www.w3.org/1999/xlink" x="0px" y="0px" width="100px" height="96.44px"
	 viewBox="-0.728 0.689 100 96.44" enable-background="new -0.728 0.689 100 96.44" xml:space="preserve">
<path id="path3986" inkscape:connector-curvature="0" sodipodi:nodetypes="ccccccccscccssccscccccssssssssccsccccccccccc" d="
	M76.431,0.689l-5.781,8.564c-2.812-0.933-20.103,10.732-24.868,19.233c-3.081,5.186-3.53,4.966-0.859,12.456
	c-9.668,19.341-18.955,34.067-23.247,41.733c-1.689,2.363,4.199,10.332,9.829,4.326l3.647-5.742c1.865,0.371,3.555,0.82,5.005,1.338
	c1.919,0.693,3.428,1.504,4.312,2.246c0.85,0.703,1.055,1.338,1.079,1.67v0.059c-0.039,0.312-0.254,0.762-1.021,1.416
	c-0.859,0.742-2.339,1.572-4.258,2.275c-3.838,1.396-9.409,2.324-15.576,2.324S12.93,91.661,9.092,90.265
	c-1.919-0.703-3.398-1.533-4.258-2.275c-0.864-0.742-1.021-1.211-1.021-1.533c0-0.312,0.156-0.82,1.021-1.553
	c0.859-0.742,2.339-1.582,4.258-2.275c2.612-0.947,6.045-1.689,9.912-2.061c0.142-0.381,0.332-0.723,0.566-0.986
	c0.615-1.104,1.343-2.363,2.148-3.75c-5.425,0.244-10.317,1.143-14.165,2.539c-2.266,0.83-4.189,1.797-5.674,3.066
	c-1.479,1.27-2.607,3.018-2.607,5.02c0,2.012,1.128,3.721,2.607,5c1.484,1.27,3.408,2.236,5.674,3.057
	c4.536,1.65,10.527,2.617,17.139,2.617c6.616,0,12.603-0.967,17.139-2.617c2.266-0.82,4.165-1.787,5.649-3.057
	c1.46-1.26,2.578-2.939,2.607-4.912v-0.088c-0.107-1.953-1.25-3.877-2.725-5.107c-1.489-1.24-3.408-2.217-5.674-3.027
	c-1.216-0.439-2.534-0.82-3.94-1.152l8.076-12.729c3.057,5.278,6.738,1.528,9.004,3.11c2.358,1.641,4.17,4.082,9.053,3.115
	c4.072,2.432,7.129,4.844,10.605,2.334c15.332-19.087,15.986-19.453,16.23-23.423l7.49-13.95c3.057-4.229-2.246-10.996-3.818-16.631
	l4.883-7.402L76.431,0.689z"/>
</svg>
