<svg xmlns="http://www.w3.org/2000/svg" xmlns:xlink="http://www.w3.org/1999/xlink" version="1.1" id="Your_Icon" x="0px" y="0px" width="100px" height="100px" viewBox="0 0 100 100" enable-background="new 0 0 100 100" xml:space="preserve">
<path d="M79.376,17.525c-0.497-0.547-1.205-0.906-2.003-0.944l-40.299-1.935c-0.797-0.039-1.536,0.252-2.084,0.75  c-0.547,0.497-0.906,1.204-0.944,2.003l-0.277,5.777c-0.038,0.796,0.252,1.535,0.749,2.083c0.297,0.327,0.676,0.575,1.098,0.739  H28.77c-0.798,0-1.522,0.326-2.047,0.85c-0.525,0.524-0.85,1.249-0.85,2.047v5.784c0,0.798,0.326,1.523,0.85,2.047  s1.249,0.85,2.047,0.85h11.64c-0.01,0.095-0.029,0.187-0.029,0.284v5.783c0,0.097,0.019,0.189,0.029,0.284H28.77  c-0.797,0-1.522,0.325-2.047,0.85v0.005c-0.525,0.524-0.85,1.247-0.85,2.042v5.783c0,0.586,0.18,1.133,0.484,1.591  c-0.304,0.457-0.484,1.004-0.484,1.591v5.784c0,0.587,0.179,1.133,0.483,1.59c-0.304,0.457-0.483,1.003-0.483,1.59v2.932v2.851  c0,0.586,0.18,1.133,0.484,1.591c-0.304,0.457-0.484,1.004-0.484,1.591v2.933v2.852c0,0.794,0.326,1.517,0.85,2.041l0.005,0.005  c0.525,0.524,1.247,0.85,2.041,0.85c0,0,38.387,0,38.387,0h1.958c0.795,0,1.518-0.326,2.042-0.85h0.005  c0.524-0.525,0.85-1.25,0.85-2.047v-2.851v-2.934c0-0.587-0.178-1.133-0.48-1.59c0.302-0.457,0.48-1.003,0.48-1.591v-2.851v-2.933  c0-0.587-0.178-1.133-0.48-1.59c0.302-0.457,0.48-1.003,0.48-1.59v-5.784c0-0.587-0.178-1.133-0.48-1.59  c0.302-0.457,0.48-1.003,0.48-1.591v-5.783c0-0.798-0.325-1.523-0.85-2.048c-0.524-0.524-1.249-0.85-2.048-0.85h-11.64  c0.009-0.095,0.029-0.187,0.029-0.284v-5.783c0-0.097-0.019-0.189-0.029-0.284h11.64c0.798,0,1.523-0.326,2.048-0.85  c0.524-0.524,0.85-1.249,0.85-2.047v-5.784c0-0.351-0.072-0.684-0.188-0.996l4.995,0.24l0.061,0.005h0.001V28.14  c0.773,0.021,1.488-0.267,2.022-0.752c0.547-0.497,0.906-1.204,0.944-2.002l0.005-0.062h0.001l0.274-5.715  C80.163,18.813,79.874,18.074,79.376,17.525z M28.488,55.789c0-0.078,0.032-0.15,0.082-0.201l0.003,0.002  c0.052-0.051,0.122-0.085,0.198-0.085h11.328c0.077-0.001,0.148,0.033,0.2,0.084c0.052,0.052,0.084,0.122,0.084,0.199v5.784  c0,0.076-0.032,0.147-0.084,0.199l0.002,0.003c-0.051,0.05-0.123,0.082-0.201,0.082H28.771c-0.077,0-0.148-0.031-0.199-0.079  l-0.005-0.005c-0.048-0.052-0.079-0.122-0.079-0.199V55.789z M69.317,61.774c-0.052,0.05-0.123,0.082-0.202,0.082H57.789  c-0.078,0-0.148-0.031-0.199-0.079l-0.005-0.005c-0.049-0.052-0.079-0.122-0.079-0.199v-5.784c0-0.078,0.031-0.15,0.082-0.201  l0.002,0.002c0.051-0.051,0.122-0.085,0.199-0.085h11.328c0.076-0.001,0.147,0.033,0.198,0.084c0.052,0.052,0.085,0.122,0.085,0.199  v5.784c0,0.076-0.033,0.147-0.085,0.199L69.317,61.774z M54.891,61.572c0,0.076-0.032,0.147-0.084,0.199l0.003,0.003  c-0.052,0.05-0.123,0.082-0.202,0.082H43.28c-0.078,0-0.148-0.031-0.199-0.079l-0.005-0.005c-0.048-0.052-0.079-0.122-0.079-0.199  v-5.784c0-0.078,0.031-0.15,0.082-0.201l0.002,0.002c0.052-0.051,0.123-0.085,0.199-0.085h11.328  c0.077-0.001,0.147,0.033,0.199,0.084c0.052,0.052,0.084,0.122,0.084,0.199V61.572z M28.771,79.785  c-0.077,0-0.148-0.031-0.199-0.079l-0.005-0.005c-0.048-0.052-0.079-0.122-0.079-0.199v-5.784c0-0.078,0.032-0.15,0.082-0.201  l0.003,0.002c0.052-0.051,0.122-0.085,0.198-0.085h11.328c0.077-0.001,0.148,0.033,0.2,0.084c0.052,0.052,0.084,0.122,0.084,0.199  v5.784c0,0.076-0.032,0.147-0.084,0.199l0.002,0.003c-0.051,0.05-0.123,0.082-0.201,0.082H28.771z M43.28,79.785  c-0.078,0-0.148-0.031-0.199-0.079l-0.005-0.005c-0.048-0.052-0.079-0.122-0.079-0.199v-5.784c0-0.078,0.031-0.15,0.082-0.201  l0.002,0.002c0.052-0.051,0.123-0.085,0.199-0.085h11.328c0.077-0.001,0.147,0.033,0.199,0.084c0.052,0.052,0.084,0.122,0.084,0.199  v5.784c0,0.076-0.032,0.147-0.084,0.199l0.003,0.003c-0.052,0.05-0.123,0.082-0.202,0.082H43.28z M69.4,79.502  c0,0.076-0.033,0.147-0.085,0.198l0.002,0.003c-0.052,0.05-0.123,0.082-0.202,0.082H57.789c-0.078,0-0.148-0.031-0.199-0.079  l-0.005-0.005c-0.049-0.052-0.079-0.122-0.079-0.199v-5.784c0-0.078,0.031-0.15,0.082-0.201l0.002,0.002  c0.051-0.051,0.122-0.085,0.199-0.085h11.328c0.076-0.001,0.147,0.033,0.198,0.084c0.052,0.052,0.085,0.122,0.085,0.199  l-0.001,5.785H69.4z M69.4,70.536c0,0.077-0.033,0.148-0.085,0.199l0.002,0.003c-0.052,0.05-0.123,0.081-0.202,0.081H57.789h-3.18  H43.28H40.1H28.771c-0.077,0-0.148-0.031-0.199-0.079l-0.005-0.005c-0.048-0.052-0.079-0.122-0.079-0.2v-2.85v-2.933  c0-0.078,0.032-0.15,0.082-0.201l0.003,0.002c0.052-0.052,0.122-0.084,0.198-0.084h11.328h3.18h11.328h3.18h11.328  c0.077,0,0.148,0.032,0.199,0.084c0.052,0.051,0.085,0.122,0.085,0.199v2.933H69.4V70.536z M69.117,46.54  c0.076,0.001,0.147,0.034,0.198,0.085c0.052,0.051,0.085,0.122,0.085,0.199v5.783c0,0.077-0.033,0.148-0.085,0.199l0.002,0.003  c-0.052,0.05-0.123,0.081-0.202,0.081H57.789h-3.18H43.28H40.1H28.771c-0.077,0-0.148-0.031-0.199-0.079l-0.005-0.005  c-0.048-0.052-0.079-0.122-0.079-0.2v-5.782c0-0.078,0.032-0.15,0.082-0.202l0.003,0.003c0.052-0.052,0.122-0.085,0.198-0.085H43.28  h11.328H69.117z M54.81,43.845c-0.052,0.05-0.124,0.082-0.202,0.082H43.28c-0.078,0-0.148-0.031-0.199-0.079l-0.005-0.005  c-0.049-0.051-0.079-0.122-0.079-0.2V37.86c0-0.079,0.031-0.151,0.082-0.202l0.002,0.003c0.052-0.052,0.123-0.084,0.199-0.084  h11.328c0.077,0,0.147,0.032,0.199,0.084s0.084,0.122,0.084,0.199v5.783c0,0.077-0.032,0.148-0.084,0.199L54.81,43.845z   M69.4,34.679c0,0.076-0.033,0.147-0.085,0.199c-0.051,0.051-0.122,0.084-0.199,0.084H28.771c-0.076,0-0.147-0.032-0.198-0.084  c-0.052-0.052-0.085-0.123-0.085-0.199v-5.784c0-0.076,0.032-0.147,0.085-0.199c0.052-0.052,0.122-0.084,0.198-0.084h40.345  c0.077,0,0.148,0.032,0.199,0.084c0.052,0.052,0.085,0.123,0.085,0.199V34.679z M77.244,25.264l-0.001,0.018  c-0.009,0.069-0.044,0.131-0.095,0.178c-0.055,0.05-0.128,0.079-0.204,0.075l-0.062-0.005h-0.001v0.002l-40.236-1.933  c-0.075-0.003-0.145-0.041-0.196-0.097c-0.05-0.055-0.079-0.128-0.075-0.205l0.278-5.777c0.003-0.075,0.04-0.145,0.096-0.195  c0.055-0.05,0.129-0.08,0.205-0.076l40.298,1.936c0.075,0.003,0.145,0.041,0.196,0.097c0.05,0.054,0.079,0.127,0.075,0.204  L77.244,25.264z"/>
</svg>
