<svg xmlns="http://www.w3.org/2000/svg" xmlns:xlink="http://www.w3.org/1999/xlink" version="1.1" id="Your_Icon" x="0px" y="0px" width="100px" height="100px" viewBox="0 0 100 100" enable-background="new 0 0 100 100" xml:space="preserve">
<path d="M83.204,66.29l-13.011-3.156c-1.195,2.376-2.769,4.609-4.754,6.594c-9.979,9.98-26.166,9.98-36.149,0  c-9.983-9.984-9.983-26.17,0-36.152c8.601-8.604,21.805-9.771,31.681-3.545l-8.409,8.41l32.525,6.983l-6.986-32.523L70.404,20.6  c-15.153-11.268-36.655-10.07-50.41,3.68c-15.115,15.116-15.115,39.625,0,54.741c15.116,15.116,39.628,15.116,54.744,0.002  C78.495,75.262,81.316,70.92,83.204,66.29z"/>
</svg>
