<svg fill="#000000" xmlns="http://www.w3.org/2000/svg" xmlns:xlink="http://www.w3.org/1999/xlink" version="1.1" x="0px" y="0px" viewBox="0 0 100 100" style="enable-background:new 0 0 100 100;" xml:space="preserve"><path d="M36.5,87.2c1-0.4,1.6-1.5,1.2-2.6l-6.1-16.8c2.9,0.1,7.4-0.2,12.3-2c4.2-1.5,8.9-4.2,13.1-8.6c11.1-11.6,24.6-9.3,25.2-9.2  l3.4,0.6L72.8,13.2L71.7,13c-0.7-0.1-16.1-2.8-28.8,10.4c-9.4,9.8-20.6,9.7-24.1,9.4l-0.6-1.7c-0.4-1-1.5-1.6-2.6-1.2  c-0.9,0.3-1.4,1.2-1.3,2.1l-0.1,0l0.2,0.5l12.7,34.9L34,86C34.3,87,35.5,87.6,36.5,87.2z M33,34.7c4.9,1.2,10.5,1.7,15.6,0.4  c10.5-2.8,21.7,0,28.9,2.7l2.2,5.9c-3-0.1-7.7,0.3-12.9,2.3c-4.8-1.1-10.3-1.7-15.3-0.3c-10.5,2.8-21.7,0-28.9-2.7l-2.2-6.1  C23.3,36.9,27.9,36.6,33,34.7z"/></svg>