<svg xmlns="http://www.w3.org/2000/svg" xmlns:xlink="http://www.w3.org/1999/xlink" version="1.1" id="Layer_1" x="0px" y="0px" width="100.0px" height="100px" viewBox="0 0 101 101" enable-background="new 0 0 101 101" xml:space="preserve">
<g>
	<path fill="none" d="M6.477,69.044H5.951c0,0-1.455,0.726-1.719,1.688c-0.267,0.957,0.528,0.756,1.719,0.129   C7.141,70.232,7.8,69.044,6.477,69.044z"/>
	<circle fill="none" cx="80.256" cy="77.652" r="3.887"/>
	<path fill="none" d="M52.609,66.268c0,0-2.248,0-2.909,0c-0.66,0-1.745,1.19,1.177,1.059   C53.798,67.191,53.665,66.268,52.609,66.268z"/>
	<circle fill="none" cx="21.305" cy="77.388" r="3.889"/>
	<path fill="none" d="M66.355,53.979c-1.19,0-7.537,0-7.537,0s-0.791,7.929-0.791,8.457c0,0.532,14.144,0,14.144,0   s0.396-4.623-0.793-6.343C70.186,54.374,67.546,53.979,66.355,53.979z"/>
	<path fill="none" d="M97.279,62.04c0,0-1.982,3.703-1.586,5.022c0.396,1.318,2.445,0.858,2.515,0   C98.273,66.203,98.273,62.04,97.279,62.04z"/>
	<path fill="none" d="M45.602,55.165c-2.905,0.795-7.535,4.632-7.535,4.632v3.434c0,0,15.996,0,15.863-0.528   c-0.134-0.524,1.451-8.724,1.451-8.724C53.93,53.979,48.508,54.37,45.602,55.165z"/>
	<path fill="#000000" d="M80.24,70.732c-3.865,0-6.999,3.127-6.999,6.994s3.13,7,6.999,7c3.867,0,6.994-3.133,6.994-7   S84.104,70.732,80.24,70.732z M80.256,81.539c-2.146,0-3.887-1.74-3.887-3.889c0-2.149,1.74-3.885,3.887-3.885   c2.15,0,3.889,1.735,3.889,3.885C84.145,79.799,82.398,81.539,80.256,81.539z"/>
	<path fill="#000000" d="M21.29,70.466c-3.863,0-7,3.128-7,6.995c0,3.871,3.132,7,7,7s6.998-3.129,6.998-7   C28.288,73.594,25.153,70.466,21.29,70.466z M21.305,81.275c-2.144,0-3.886-1.739-3.886-3.889c0-2.148,1.742-3.889,3.886-3.889   c2.148,0,3.889,1.74,3.889,3.889C25.194,79.536,23.452,81.275,21.305,81.275z"/>
	<path fill="#000000" d="M100.191,69.839c-0.463-0.465-1.059-1.058-1.059-1.719c0-0.658,0-6.609-1.055-7.528   c-1.059-0.929-8.461,0-11.104-0.666c-2.644-0.662-10.441-5.964-14.279-7.369c-8.254-3.02-26.033-0.43-29.735,0.361   c-3.702,0.79-16.67,9.221-18.638,9.518c-12.289,1.853-19.958,5.418-20.487,6.608c-0.528,1.194-0.926,1.853-1.985,2.247   c-1.06,0.396,0,2.904-0.129,3.699c-0.133,0.795,0.924,0,0.924,0.662c0,0.66,0,2.643,0,2.643h10.177c0,0,0.66-8.723,8.194-8.723   c8.328,0,8.589,8.589,8.589,8.589v1.586H71.9V77.77c0,0,0.927-7.803,8.66-7.871c7.732-0.061,7.863,7.871,8.262,7.871   c0.396,0,9.777-1.457,10.574-2.381C100.195,74.466,100.652,70.298,100.191,69.839z M5.951,70.861   c-1.19,0.623-1.985,0.824-1.719-0.135c0.264-0.961,1.719-1.684,1.719-1.684h0.526C7.8,69.044,7.141,70.232,5.951,70.861z    M50.878,67.325c-2.924,0.133-1.837-1.058-1.177-1.058c0.662,0,2.908,0,2.908,0C53.665,66.268,53.798,67.191,50.878,67.325z    M53.93,62.697c0.133,0.527-15.863,0.527-15.863,0.527v-3.434c0,0,4.63-3.832,7.535-4.632c2.907-0.795,8.328-1.187,9.779-1.187   C55.383,53.979,53.798,62.173,53.93,62.697z M72.169,62.436c0,0-14.144,0.528-14.144,0s0.791-8.461,0.791-8.461s6.347,0,7.537,0   c1.188,0,3.83,0.399,5.021,2.114C72.564,57.813,72.169,62.436,72.169,62.436z M98.208,67.063c-0.067,0.859-2.116,1.319-2.515,0   c-0.399-1.322,1.586-5.021,1.586-5.021C98.273,62.04,98.273,66.203,98.208,67.063z"/>
</g>
<g>
	<g>
		<line fill="#000000" x1="21.66" y1="34.96" x2="21.66" y2="22.875"/>
	</g>
	<g>
		<polygon points="20.16,34.96 21.66,22.875 23.16,34.96   "/>
	</g>
</g>
<g>
	<g>
		<line fill="#000000" x1="21.572" y1="34.507" x2="28.806" y2="39.454"/>
	</g>
	<g>
		<polygon points="22.136,33.682 28.806,39.454 21.007,35.332   "/>
	</g>
</g>
<g>
	<ellipse fill="#000000" cx="21.5" cy="34.733" rx="0.773" ry="0.227"/>
	<path d="M21.5,35.46c-0.809,0-1.273-0.265-1.273-0.727s0.464-0.727,1.273-0.727s1.273,0.265,1.273,0.727S22.309,35.46,21.5,35.46z"/>
</g>
<path d="M21.83,15.733c-10.079,0-18.25,8.171-18.25,18.25s8.171,18.25,18.25,18.25s18.25-8.171,18.25-18.25  S31.909,15.733,21.83,15.733z M21.83,48.073c-7.782,0-14.09-6.308-14.09-14.09s6.308-14.09,14.09-14.09s14.09,6.308,14.09,14.09  S29.612,48.073,21.83,48.073z"/>
</svg>
