<svg fill="#000000" xmlns="http://www.w3.org/2000/svg" xmlns:xlink="http://www.w3.org/1999/xlink" version="1.1" x="0px" y="0px" viewBox="0 0 512 512" enable-background="new 0 0 512 512" xml:space="preserve"><g><path d="M428.1,201.4c0-10.7-6.9-19.7-16.4-23.1V96.4l8.2-3.4c5.1-2.1,8.2-6.6,8.2-11.8c0-5.2-3.1-9.7-8.2-11.8l-158-66.2   c-3.7-1.5-8.1-1.5-11.8,0l-158,66.2c-5.1,2.1-8.2,6.6-8.2,11.8c0,5.2,3.1,9.7,8.2,11.8l57.7,24.2c-2.2,31.8,8.5,85.5,8.5,85.5   S200,215,256,215c54.5,0,97.8-12.3,97.8-12.3s10.5-53.7,8.3-85.5l33.1-13.9v75c-9.5,3.4-16.4,12.4-16.4,23.1s6.9,19.7,16.4,23.1v7   h-16.4v16.4h49.2v-16.4h-16.4v-7C421.2,221,428.1,212,428.1,201.4z M339.7,189.2c-55.5,12.6-111.8,12.6-167.3,0   c-2.1-11.9-7-42.1-6.5-65.3l84.2,35.3c5.9,1.3,5.9,1.3,11.8,0l84.2-35.3C346.6,147.1,341.8,177.3,339.7,189.2z M256,143.9   L106.4,81.2L256,18.5l149.6,62.7L256,143.9z M403.5,209.6c-4.5,0-8.2-3.7-8.2-8.2s3.7-8.2,8.2-8.2c4.5,0,8.2,3.7,8.2,8.2   S408,209.6,403.5,209.6z"/><path d="M256,337.9c51.4,0,90.1-74.6,90.1-122.9h-16.4c0,41.1-33.8,106.5-73.7,106.5c-40,0-73.7-65.4-73.7-106.5h-16.4   C165.9,263.4,204.6,337.9,256,337.9z"/><path d="M312.5,329.7c0,0-17.8,24.6-56.5,24.6c-37.1,0-56.5-24.6-56.5-24.6s-45.1-1.1-72.3,31.3c-16.9,20.1-24.7,46.2-20.8,72.2   l11.5,76.8h276.3l11.5-76.8c3.9-26-3.7-52.3-20.8-72.2C356.1,327.6,312.5,329.7,312.5,329.7z M389.5,430.8l-9.4,62.8h-33.9v-57.4   h-16.4v57.4H182.2v-57.4h-16.4v57.4h-33.9l-9.4-62.8c-3.2-21.3,3-42.8,17.1-59.1c13.6-15.7,33.1-25,53.8-25.6   c19,16.1,40.6,24.5,62.7,24.5c22,0,43.6-8.5,62.7-24.5c20.7,0.6,40.2,9.8,53.7,25.6C386.4,388,392.6,409.5,389.5,430.8z"/></g></svg>