<svg xmlns="http://www.w3.org/2000/svg" xmlns:xlink="http://www.w3.org/1999/xlink" version="1.1" id="Layer_1" x="0px" y="0px" width="100px" height="100px" viewBox="0 0 100 100" enable-background="new 0 0 100 100" xml:space="preserve">
<g>
	<g>
		<path d="M49.531,19.466c0.04-0.237,0.063-0.481,0.063-0.73c0-2.404-1.949-4.353-4.353-4.353c-2.404,0-4.353,1.949-4.353,4.353    c0,0.249,0.023,0.492,0.063,0.73h-4.729v8.274H54.26v-8.274H49.531z M47.319,19.466h-0.037c-0.301,0.849-1.109,1.459-2.061,1.459    c-1.208,0-2.188-0.98-2.188-2.188c0-0.604,0.245-1.151,0.641-1.547c0.4-0.405,0.954-0.656,1.568-0.656    c1.217,0,2.203,0.987,2.203,2.203C47.445,18.992,47.399,19.237,47.319,19.466z"/>
	</g>
	<g>
		<path d="M67.83,22.528c0-0.774-0.633-1.407-1.407-1.407H54.715v5.13h9.639v35.537h3.475V22.528z"/>
		<path d="M27.452,72.42v-46.17h8.274v-5.13h-11.5c-0.774,0-1.407,0.633-1.407,1.407v52.953c0,0.774,0.633,1.407,1.407,1.407h29.126    V72.42H27.452z"/>
		<polygon points="70.673,70.113 70.673,63.604 67.83,63.604 64.355,63.604 61.678,63.604 61.678,70.113 55.168,70.113     55.168,72.42 55.168,76.888 55.168,79.108 61.678,79.108 61.678,85.617 70.673,85.617 70.673,79.108 77.181,79.108 77.181,70.113       "/>
	</g>
	<g>
		<polygon points="36.223,33.55 35.559,32.887 33.592,34.854 31.624,32.887 30.961,33.55 32.929,35.518 30.961,37.485     31.624,38.148 33.592,36.181 35.559,38.148 36.223,37.485 34.255,35.518   "/>
	</g>
	<g>
		<polygon points="36.223,44.666 35.559,44.002 33.592,45.97 31.624,44.002 30.961,44.666 32.929,46.633 30.961,48.601     31.624,49.264 33.592,47.296 35.559,49.264 36.223,48.601 34.255,46.633   "/>
	</g>
	<g>
		<polygon points="36.223,55.781 35.559,55.118 33.592,57.085 31.624,55.118 30.961,55.781 32.929,57.749 30.961,59.716     31.624,60.379 33.592,58.412 35.559,60.379 36.223,59.716 34.255,57.749   "/>
	</g>
	<g>
		<g>
			<rect x="42.125" y="32.915" width="17.982" height="0.903"/>
		</g>
	</g>
	<g>
		<g>
			<rect x="42.125" y="38.872" width="17.982" height="0.903"/>
		</g>
	</g>
	<g>
		<g>
			<rect x="42.125" y="44.829" width="17.982" height="0.903"/>
		</g>
	</g>
	<g>
		<g>
			<rect x="42.125" y="50.787" width="17.982" height="0.903"/>
		</g>
	</g>
	<g>
		<g>
			<rect x="42.125" y="56.744" width="17.982" height="0.903"/>
		</g>
	</g>
	<g>
		<g>
			<rect x="42.125" y="62.701" width="17.982" height="0.903"/>
		</g>
	</g>
</g>
</svg>
