<svg fill="#000000" xmlns="http://www.w3.org/2000/svg" xmlns:xlink="http://www.w3.org/1999/xlink" version="1.1" x="0px" y="0px" viewBox="0 0 100 100" style="enable-background:new 0 0 100 100;" xml:space="preserve"><g><g><path d="M35.1,84.7c-4,0-8.7-2.9-10.9-8.7l-0.1-0.2v-0.2c0-0.3-0.1-0.7-0.3-1.2l0-0.2c-0.7-4.7-2.3-9-4-13.7    c-2.3-6.1-4.6-12.4-5.1-20.3c0-3,8.8-10,15.7-11.7c5.1-1.3,9,0.2,11,4.1c1.6,2.8,1.3,7.6-0.7,10.4c-7.3,11.1-2.1,21.8,0.5,25.8    c0.5,0.7,0.9,1.6,1.1,2.7c1.6,10-3.7,12.2-5.4,12.7C36.5,84.6,35.8,84.7,35.1,84.7z M26.4,75.4c2.1,5.4,6.9,7.8,10.1,6.9    c3.3-0.9,4.7-4.7,3.8-10.2c-0.1-0.7-0.4-1.4-0.7-1.8c-2.9-4.5-8.5-16.1-0.5-28.3c1.5-2.2,1.8-6,0.6-8.1l0,0    c-1.4-2.8-3.9-3.8-7.5-3.2c-7.1,1.2-14.9,8.1-15.2,9.7c0.5,7.5,2.8,13.6,5,19.6c1.7,4.7,3.4,9.1,4.1,14    C26.2,74.2,26.3,74.8,26.4,75.4z"/></g><g><path d="M41.6,29.8c-3.1,0-5.7-3.2-5.7-7.2c0-4,2.5-7.2,5.7-7.2c3.1,0,5.7,3.2,5.7,7.2C47.3,26.6,44.8,29.8,41.6,29.8z M41.6,17.5    c-1.9,0-3.5,2.3-3.5,5.1s1.6,5.1,3.5,5.1s3.5-2.3,3.5-5.1S43.5,17.5,41.6,17.5z"/></g><g><path d="M31.3,27.9c-1,0-2-0.5-2.9-1.3c-0.9-0.9-1.5-2.2-1.8-3.6c-0.2-1.4-0.1-2.9,0.5-4c0.6-1.3,1.6-2.1,2.8-2.3    c1.2-0.2,2.4,0.3,3.4,1.3c0.9,0.9,1.5,2.2,1.8,3.6c0.2,1.4,0.1,2.9-0.5,4c-0.6,1.3-1.6,2.1-2.8,2.3C31.7,27.9,31.5,27.9,31.3,27.9    z M30.6,18.7c-0.1,0-0.1,0-0.2,0l0,0c-0.7,0.1-1.1,0.7-1.2,1.1c-0.4,0.7-0.5,1.7-0.3,2.7c0.2,1,0.6,1.9,1.2,2.5    c0.3,0.3,0.9,0.8,1.5,0.6c0.7-0.1,1.1-0.7,1.2-1.1c0.4-0.7,0.5-1.7,0.3-2.7c-0.2-1-0.6-1.9-1.2-2.5C31.7,19.1,31.2,18.7,30.6,18.7    z"/></g><g><path d="M23.4,30.6c-0.5,0-0.9-0.1-1.4-0.3c-1.3-0.5-2.3-1.7-2.9-3.2c-1.1-2.7-0.3-5.4,1.7-6.3h0c0.8-0.4,1.8-0.3,2.7,0    c1.3,0.5,2.3,1.7,2.9,3.2c1.1,2.7,0.3,5.4-1.7,6.3C24.3,30.5,23.8,30.6,23.4,30.6z M22.1,22.7c-0.1,0-0.3,0-0.4,0.1h0    c-0.8,0.3-1.2,1.9-0.6,3.5c0.4,1,1,1.7,1.7,2c0.4,0.1,0.7,0.2,1,0c0.8-0.3,1.2-1.9,0.6-3.5c-0.4-1-1-1.7-1.7-2    C22.4,22.7,22.2,22.7,22.1,22.7z"/></g><g><path d="M16.7,35.1c-0.1,0-0.2,0-0.3,0c-1.2-0.1-2.4-0.8-3.3-2c-1.6-2-1.6-4.7-0.1-6.1c0.6-0.6,1.5-0.8,2.4-0.8    c1.2,0.1,2.4,0.8,3.3,2c1.6,2,1.6,4.7,0.1,6.1C18.2,34.8,17.5,35.1,16.7,35.1z M15,28.4c-0.2,0-0.4,0.1-0.6,0.2    c-0.6,0.5-0.5,1.9,0.4,3.1c0.5,0.7,1.2,1.1,1.8,1.2c0.3,0,0.5,0,0.7-0.2c0.6-0.5,0.5-1.9-0.4-3.1c-0.5-0.7-1.2-1.1-1.8-1.2    C15.1,28.4,15,28.4,15,28.4z"/></g><g><path d="M12.2,40.4c-1.4,0-2.9-1-3.6-2.4c-0.5-1-0.5-2.1-0.1-2.9c0.3-0.7,0.9-1.3,1.7-1.5c1.6-0.5,3.5,0.6,4.4,2.3    c0.5,1,0.5,2.1,0.1,2.9c-0.3,0.7-0.9,1.3-1.7,1.5C12.7,40.4,12.5,40.4,12.2,40.4z M11,35.6c-0.1,0-0.1,0-0.2,0    c-0.2,0-0.3,0.1-0.3,0.3c-0.1,0.3-0.1,0.7,0.1,1.1c0.4,0.9,1.3,1.3,1.8,1.2c0.2,0,0.3-0.1,0.3-0.3c0.1-0.3,0.1-0.7-0.1-1.1    C12.3,36,11.5,35.6,11,35.6z"/></g></g><g><g><path d="M63.9,84.7c-0.7,0-1.3-0.1-1.9-0.2c-1.7-0.4-7-2.7-5.4-12.7c0.2-1.1,0.6-2,1.1-2.8c2.5-4,7.8-14.6,0.4-25.8    c-1.9-2.8-2.2-7.6-0.7-10.4c2-3.9,5.9-5.4,11-4.1c7,1.7,15.8,8.6,15.8,11.6c-0.5,8-2.9,14.3-5.1,20.3c-1.7,4.6-3.3,9-4,13.7l0,0.2    c-0.2,0.5-0.3,0.9-0.3,1.2v0.2L74.7,76C72.5,81.7,67.8,84.7,63.9,84.7z M65,30.3c-2.6,0-4.5,1.1-5.7,3.4c-1.2,2.1-0.9,6,0.6,8.2    l0,0c8,12.2,2.4,23.8-0.5,28.2c-0.4,0.5-0.6,1.2-0.8,1.9c-0.9,5.5,0.5,9.4,3.8,10.2c3.3,0.9,8-1.5,10.1-6.9c0-0.6,0.2-1.2,0.3-1.6    c0.7-4.9,2.3-9.3,4.1-14c2.2-5.9,4.5-12.1,5-19.7c-0.3-1.5-8.1-8.5-15.2-9.6C66.2,30.4,65.6,30.3,65,30.3z"/></g><g><path d="M57.3,29.8c-3.1,0-5.7-3.2-5.7-7.2c0-4,2.5-7.2,5.7-7.2c3.1,0,5.7,3.2,5.7,7.2C63,26.6,60.5,29.8,57.3,29.8z M57.3,17.5    c-1.9,0-3.5,2.3-3.5,5.1s1.6,5.1,3.5,5.1c1.9,0,3.5-2.3,3.5-5.1S59.2,17.5,57.3,17.5z"/></g><g><path d="M67.6,27.9c-0.2,0-0.4,0-0.5,0c-2.4-0.4-3.9-3.2-3.3-6.3c0.2-1.4,0.9-2.7,1.8-3.6c1-1,2.2-1.5,3.4-1.3    c1.2,0.2,2.2,1,2.8,2.3c0.6,1.2,0.7,2.6,0.5,4l0,0c-0.2,1.4-0.9,2.7-1.8,3.6C69.7,27.4,68.7,27.9,67.6,27.9z M68.4,18.7    c-0.6,0-1.1,0.4-1.3,0.7c-0.6,0.6-1,1.5-1.2,2.5c-0.3,1.8,0.4,3.6,1.6,3.8c0.7,0.1,1.2-0.4,1.5-0.6c0.6-0.6,1-1.5,1.2-2.5l0,0    c0.2-1,0-2-0.3-2.7c-0.2-0.4-0.6-1-1.2-1.1C68.5,18.7,68.4,18.7,68.4,18.7z"/></g><g><path d="M75.6,30.6c-0.4,0-0.9-0.1-1.3-0.3c-2-0.9-2.8-3.7-1.7-6.3c0.6-1.5,1.7-2.7,2.9-3.2c0.9-0.4,1.8-0.4,2.7,0    c2,0.9,2.8,3.7,1.7,6.3v0c-0.6,1.5-1.7,2.7-2.9,3.2C76.5,30.5,76,30.6,75.6,30.6z M76.9,22.7c-0.2,0-0.4,0-0.6,0.1    c-0.7,0.3-1.4,1-1.7,2c-0.7,1.6-0.2,3.2,0.6,3.5c0.3,0.1,0.6,0.1,1,0c0.7-0.3,1.4-1,1.7-2c0.7-1.6,0.2-3.2-0.6-3.5    C77.2,22.7,77.1,22.7,76.9,22.7z"/></g><g><path d="M82.3,35.1c-0.8,0-1.5-0.3-2-0.8c-1.5-1.4-1.4-4,0.1-6.1c0.9-1.2,2.1-1.9,3.3-2c0.9-0.1,1.7,0.2,2.4,0.8    c1.5,1.4,1.4,4-0.1,6.1l0,0c0,0,0,0,0,0c-0.9,1.2-2.1,1.9-3.3,2C82.5,35.1,82.4,35.1,82.3,35.1z M84,28.4c0,0-0.1,0-0.1,0    c-0.6,0.1-1.3,0.5-1.8,1.2c-0.9,1.2-0.9,2.6-0.4,3.1c0.2,0.2,0.4,0.2,0.7,0.2c0.6-0.1,1.3-0.5,1.8-1.2v0c0.9-1.2,0.9-2.6,0.4-3.1    C84.4,28.5,84.2,28.4,84,28.4z"/></g><g><path d="M86.8,40.4c-0.3,0-0.6,0-0.8-0.1c-0.8-0.2-1.4-0.7-1.7-1.5c-0.4-0.9-0.4-1.9,0.1-2.9c0.8-1.8,2.8-2.8,4.4-2.3    c0.8,0.2,1.4,0.7,1.7,1.5c0.4,0.9,0.4,1.9-0.1,2.9v0C89.7,39.4,88.2,40.4,86.8,40.4z M88,35.6c-0.5,0-1.3,0.5-1.6,1.2    c-0.2,0.4-0.2,0.8-0.1,1.1c0.1,0.2,0.2,0.2,0.3,0.3c0.5,0.1,1.4-0.3,1.8-1.2l0,0c0.2-0.4,0.2-0.8,0.1-1.1    c-0.1-0.2-0.2-0.2-0.3-0.3C88.1,35.6,88,35.6,88,35.6z"/></g></g></svg>