<svg fill="#000000" xmlns="http://www.w3.org/2000/svg" viewBox="0 0 32.67 42" x="0px" y="0px"><title>Asset 17</title><g data-name="Layer 2"><g data-name="Layer 1"><path d="M30.12,13.15h0L25.81,9h.52a1,1,0,0,0,1-1V3a3,3,0,0,0-3-3h-16a3,3,0,0,0-3,3V8a1,1,0,0,0,1,1h.52L2.55,13.15h0A8,8,0,0,0,0,19V34a8,8,0,0,0,8,8H24.67a8,8,0,0,0,8-8V19A8,8,0,0,0,30.12,13.15ZM23.33,7h-1V2h2a1,1,0,0,1,1,1V7Zm-6,0V2h3V7Zm-5,0V2h3V7Zm-4-5h2V7h-3V3A1,1,0,0,1,8.33,2ZM17,19a1,1,0,0,1,1,1V32a1,1,0,0,1-1,1H2V19Zm7.67,21H8a6,6,0,0,1-5.91-5H17a3,3,0,0,0,3-3V20a3,3,0,0,0-3-3H2.35a6,6,0,0,1,1.57-2.4h0L9.74,9H22.93l5.8,5.59h0A6,6,0,0,1,30.67,19V34A6,6,0,0,1,24.67,40Z"/><path d="M5.08,23H15a1,1,0,0,0,0-2H5.08a1,1,0,0,0,0,2Z"/><path d="M5.08,27H15a1,1,0,0,0,0-2H5.08a1,1,0,0,0,0,2Z"/><path d="M5.08,31H15a1,1,0,0,0,0-2H5.08a1,1,0,1,0,0,2Z"/></g></g></svg>