<svg fill="#000000" xmlns="http://www.w3.org/2000/svg" xmlns:xlink="http://www.w3.org/1999/xlink" version="1.1" x="0px" y="0px" viewBox="0 0 512 512" enable-background="new 0 0 512 512" xml:space="preserve"><g><path d="M437.694,456.895c2.188-15.295,10.28-80.441,10.28-211.557c0-126.007-7.53-176.788-10.124-190.513l19.654-39.354   c1.656-3.304,1.5-7.233-0.469-10.373c-1.938-3.148-5.375-5.063-9.062-5.063H64.02c-3.687,0-7.124,1.914-9.061,5.063   c-1.953,3.14-2.125,7.069-0.469,10.373L74.3,55.099c-2.203,15.044-10.28,77.833-10.28,190.239c0,22.676,0.344,44.064,0.906,63.904   c0,0.031,0,0.063,0,0.094c0,0.094,0,0.188,0,0.297c2.25,79.146,7.937,133.623,9.468,147.09L54.49,496.529   c-1.656,3.313-1.484,7.234,0.469,10.373c1.937,3.156,5.374,5.063,9.061,5.063h383.955c3.687,0,7.124-1.906,9.062-5.063   c1.969-3.139,2.125-7.061,0.469-10.373L437.694,456.895z M94.891,447.975c-1.953-18.717-6.202-64.492-8.296-127.982h58.602   c22.169,38.229,63.522,63.99,110.797,63.99c47.283,0,88.652-25.762,110.805-63.99h58.867   c-1.938,69.709-6.218,111.078-8.311,127.982H94.891z M94.625,64.026H417.76c2.344,15.061,6.874,52.86,8.374,127.982h-59.336   c-22.152-38.221-63.521-63.991-110.805-63.991c-47.274,0-88.628,25.771-110.797,63.991h-59.18   C87.735,124.315,92.375,81.446,94.625,64.026z M85.36,245.338c0-11.155,0.078-21.817,0.234-31.996h49.743   c-4.733,13.35-7.327,27.707-7.327,42.658s2.594,29.309,7.327,42.666H85.985C85.595,281.871,85.36,264.055,85.36,245.338z    M149.352,256c0-58.804,47.838-106.649,106.642-106.649c58.813,0,106.649,47.846,106.649,106.649   c0,58.805-47.837,106.658-106.649,106.658C197.189,362.658,149.352,314.805,149.352,256z M376.672,213.342h49.806   c0.094,10.077,0.156,20.724,0.156,31.996c0,19.17-0.156,36.924-0.469,53.328h-49.493c4.718-13.357,7.312-27.715,7.312-42.666   S381.39,226.691,376.672,213.342z M430.728,21.368l-10.687,21.333h-25.403c0-5.89-4.78-10.67-10.654-10.67   c-5.905,0-10.654,4.78-10.654,10.67h-21.342c0-5.89-4.78-10.67-10.654-10.67c-5.905,0-10.686,4.78-10.686,10.67h-21.311   c0-5.89-4.78-10.67-10.686-10.67c-5.874,0-10.654,4.78-10.654,10.67h-21.334c0-5.89-4.78-10.67-10.67-10.67   s-10.654,4.78-10.654,10.67h-21.341c0-5.89-4.766-10.67-10.655-10.67s-10.67,4.78-10.67,10.67h-21.325   c0-5.89-4.781-10.67-10.671-10.67s-10.67,4.78-10.67,10.67h-21.325c0-5.89-4.781-10.67-10.671-10.67s-10.654,4.78-10.654,10.67   H91.953l-10.67-21.333H430.728z M81.283,490.641l10.67-21.326h25.403c0,5.875,4.765,10.654,10.654,10.654   s10.671-4.779,10.671-10.654h21.325c0,5.875,4.78,10.654,10.67,10.654s10.671-4.779,10.671-10.654h21.325   c0,5.875,4.78,10.654,10.67,10.654s10.655-4.779,10.655-10.654h21.341c0,5.875,4.765,10.654,10.654,10.654   s10.67-4.779,10.67-10.654h21.334c0,5.875,4.78,10.654,10.654,10.654c5.905,0,10.686-4.779,10.686-10.654h21.311   c0,5.875,4.78,10.654,10.686,10.654c5.874,0,10.654-4.779,10.654-10.654h21.342c0,5.875,4.749,10.654,10.654,10.654   c5.874,0,10.654-4.779,10.654-10.654h25.403l10.687,21.326H81.283z"/><path d="M213.343,287.996c0,23.527,19.139,42.666,42.65,42.666c23.535,0,42.658-19.139,42.658-42.666   c0-23.52-19.123-42.658-42.658-42.658C232.481,245.338,213.343,264.477,213.343,287.996z M255.993,266.67   c11.764,0,21.349,9.578,21.349,21.326c0,11.764-9.585,21.34-21.349,21.34c-11.748,0-21.325-9.576-21.325-21.34   C234.668,276.248,244.245,266.67,255.993,266.67z"/><path d="M206.984,265.639c7.124,0,13.811-2.771,18.856-7.811c7.187-7.187,9.39-17.498,6.641-26.613   c4.499,8.397,13.357,14.123,23.512,14.123c10.139,0,18.975-5.679,23.473-14.021c-0.718,2.452-1.124,5.03-1.124,7.663   c0,7.124,2.78,13.818,7.812,18.856c5.062,5.031,11.748,7.803,18.872,7.803s13.811-2.771,18.841-7.803   c5.031-5.038,7.813-11.732,7.813-18.856s-2.781-13.818-7.813-18.85c-5.03-5.038-11.717-7.812-18.841-7.812   s-13.811,2.773-18.872,7.804c-1.844,1.859-3.406,3.953-4.625,6.202c0.75-2.429,1.125-4.991,1.125-7.647   c0-14.708-11.943-26.668-26.66-26.668c-14.701,0-26.652,11.96-26.652,26.668c0,2.68,0.391,5.266,1.141,7.702   c-1.203-2.249-2.75-4.358-4.641-6.257c-5.046-5.03-11.732-7.804-18.856-7.804s-13.826,2.773-18.856,7.804   c-10.405,10.397-10.405,27.316,0,37.706C193.158,262.867,199.86,265.639,206.984,265.639z M301.245,235.206   c1.375-1.359,2.937-1.563,3.78-1.563c0.813,0,2.406,0.203,3.749,1.563c1.375,1.359,1.563,2.945,1.563,3.773   s-0.188,2.413-1.563,3.772c-1.343,1.359-2.937,1.563-3.749,1.563c-0.844,0-2.405-0.203-3.78-1.563   c-1.344-1.359-1.563-2.944-1.563-3.772S299.901,236.565,301.245,235.206z M255.993,213.342c2.953,0,5.343,2.391,5.343,5.335   c0,2.938-2.39,5.328-5.343,5.328c-2.937,0-5.327-2.391-5.327-5.328C250.666,215.732,253.057,213.342,255.993,213.342z    M203.204,235.206c1.358-1.359,2.952-1.563,3.78-1.563s2.406,0.203,3.766,1.563c2.077,2.078,2.077,5.46,0,7.546   c-1.359,1.359-2.938,1.563-3.766,1.563s-2.422-0.203-3.78-1.563C201.126,240.666,201.126,237.284,203.204,235.206z"/></g></svg>