<svg xmlns="http://www.w3.org/2000/svg" xmlns:xlink="http://www.w3.org/1999/xlink" version="1.1" x="0px" y="0px" viewBox="0 0 512 512" enable-background="new 0 0 512 512" xml:space="preserve"><g><path d="M254.4,436.6h40.9c7.8,0,14.1-6.3,14.1-14.1s-6.3-14.1-14.1-14.1h-40.9c-7.8,0-14.1,6.3-14.1,14.1S246.6,436.6,254.4,436.6   z"></path><path d="M497.4,147.5l-133-133c-16.8-16.8-44.1-16.8-60.9,0L82.3,235.9H45c-23.7,0-43,19.3-43,43v188c0,23.7,19.3,43,43,43h304.4   c23.7,0,43-19.3,43-43V313.3l104.9-104.9C514.2,191.6,514.2,164.3,497.4,147.5z M323.5,34.5c5.8-5.8,15.2-5.8,21,0l23,23   L189.2,235.9h-67.1L323.5,34.5z M364.3,467c0,8.2-6.6,14.8-14.8,14.8H45c-8.2,0-14.8-6.6-14.8-14.8V339.7h334.1V467z M364.3,311.5   H30.2v-32.6c0-8.2,6.6-14.8,14.8-14.8h304.4c8.2,0,14.8,6.6,14.8,14.8V311.5z M477.5,188.5l-85.3,85.3   c-2.6-21.3-20.7-37.9-42.7-37.9H229.2L387.5,77.5l90,90C483.2,173.3,483.2,182.7,477.5,188.5z"></path></g></svg>