<svg xmlns="http://www.w3.org/2000/svg" xmlns:xlink="http://www.w3.org/1999/xlink" version="1.1" x="0px" y="0px" width="99.123px" height="58.026px" viewBox="0 0 99.123 58.026" enable-background="new 0 0 99.123 58.026" xml:space="preserve">
<g id="Your_Icon">
</g>
<g id="_x31_col">
	<path d="M95.498,39.307c-1.788-0.595-3.79-0.71-5.374-0.716c-0.502,0-0.958,0.014-1.346,0.032   c-0.428-1.174-1.346-2.837-3.299-4.113c-0.586-0.38-1.17-0.64-1.742-0.836c-0.155-5.514-4.487-8.575-6.289-9.644   c-0.223-1.806-1.037-6.131-4.142-9.857c-2.932-3.408-7.354-4.748-9.32-5.216c-0.271-0.94-0.812-2.405-1.828-3.917   C60.525,2.565,57.365-0.01,52.382,0c-0.029,0.006-0.047,0.006-0.047,0c-5.847,0-9.451,3.989-11.384,7.614   c-1.296,2.405-1.997,4.75-2.328,6.108c-2.354,0.206-7.558,1.018-10.726,4.795c-2.157,2.668-2.606,5.53-2.606,7.41   c0,0.176,0.011,0.319,0.019,0.479c-1.802,0.001-3.718,0.267-5.566,1.022C11.396,30.82,9.308,37.174,8.827,40.33   c-0.44-0.056-0.903-0.088-1.379-0.088c-1.081,0.005-2.242,0.157-3.338,0.695c-1.704,0.821-4.062,2.268-4.109,5.2   c0,0.183,0.006,0.401,0.042,0.643c0.183,2.456,2.587,4.217,5.477,4.076c0.894,0,1.866-0.115,2.937-0.34   c0.58-0.12,1.071-0.178,1.5-0.178c2.236-0.047,3.652,1.479,6.955,4.155c2.215,1.766,4.593,3.532,8.032,3.532   c3.083-0.016,6.657-1.35,11.685-4.562c1.447-0.932,2.919-1.276,4.375-1.28c2.167-0.006,4.305,0.825,5.742,1.719   c1.834,1.108,6.01,2.633,10.756,2.66c3.919,0.016,8.317-1.166,11.344-4.991c2.857-3.554,4.609-4.123,6.312-4.154   c1.71-0.037,3.763,0.867,6.493,1.181c0.94,0.1,1.979,0.146,3.07,0.146c2.541,0,5.364-0.239,7.762-0.647   c2.444-0.485,4.259-0.794,5.586-2.042c0.668-0.722,1.062-1.642,1.055-2.566C99.075,41.403,97.457,39.965,95.498,39.307z    M30.264,20.423c1.336-1.692,3.722-2.71,5.838-3.211c2.099-0.512,3.785-0.522,3.785-0.532l1.265-0.021l0.213-1.248   c-0.005-0.004,0.545-3.196,2.262-6.35c1.756-3.183,4.379-6.003,8.682-6.021c0.021,0.001,0.025,0,0.027,0h0.037   c3.937,0.042,5.958,1.827,7.27,3.703c0.638,0.94,1.049,1.905,1.289,2.621c0.24,0.72,0.294,1.122,0.305,1.122l0.175,1.071   l1.071,0.182c0.006,0,1.384,0.229,3.188,0.919c1.811,0.684,3.946,1.833,5.309,3.468c1.614,1.916,2.512,4.167,2.987,5.937   c0.479,1.77,0.513,2.966,0.535,2.966l0.033,0.903l0.817,0.397c0.005-0.005,1.351,0.653,2.719,1.964   c1.307,1.241,2.447,2.941,2.581,5.045c-0.398,0.052-0.774,0.123-1.102,0.222c-0.725-1.966-2.404-4.906-6.225-6.173   c-1.886-0.602-3.575-0.801-4.971-0.801c-1.279,0-2.306,0.167-3.031,0.34c-1.638-2.078-6.195-6.63-14.559-6.643   c-0.455,0-0.93,0.01-1.422,0.047c-8.994,0.539-13.747,5.492-15.472,7.784c-1.192-0.466-3.17-1.12-5.51-1.468   c-0.017-0.206-0.028-0.441-0.028-0.721C28.336,24.502,28.66,22.408,30.264,20.423z M95.832,43.999c0,0-0.057,0.041-0.229,0.127   c-1.475,0.804-6.814,1.608-10.882,1.578c-1.007,0-1.952-0.042-2.747-0.126c-2.142-0.197-4.203-1.17-6.816-1.201   c-2.743-0.032-5.647,1.379-8.699,5.309c-2.289,2.885-5.567,3.826-8.956,3.841c-3.999,0.026-8.03-1.483-9.158-2.204   c-1.833-1.13-4.417-2.169-7.341-2.175c-1.95-0.005-4.05,0.485-6.015,1.756c-4.802,3.084-7.913,4.092-10.044,4.082   c-2.321-0.006-3.914-1.104-6.141-2.87c-2.994-2.346-5-4.766-8.847-4.812c-0.681,0-1.386,0.084-2.128,0.24   c-0.914,0.193-1.687,0.276-2.309,0.276c-2.127-0.141-2.258-0.538-2.461-1.426c-0.011-0.094-0.016-0.162-0.016-0.256   c-0.047-0.92,0.811-1.684,2.404-2.473c0.502-0.251,1.229-0.386,2.001-0.381c0.842-0.005,1.725,0.156,2.331,0.339l2.075,0.628   l-0.115-2.164l-0.005-0.048c0.052-0.867,0.162-8.114,9.156-11.794c1.406-0.574,2.926-0.799,4.441-0.799   c2.18-0.01,4.275,0.475,5.832,0.961c1.568,0.486,2.592,0.978,2.606,0.962l1.292,0.627l0.701-1.26c0,0,0.183-0.344,0.685-0.982   c1.52-1.923,5.471-5.931,13.092-6.391c0.418-0.026,0.823-0.037,1.227-0.037c4.595,0.006,7.725,1.578,9.769,3.136   c1.017,0.778,1.755,1.562,2.229,2.132c0.47,0.575,0.639,0.889,0.648,0.883l0.686,1.171l1.239-0.554c0,0,0.176-0.084,0.692-0.209   c0.525-0.127,1.314-0.257,2.326-0.257c1.108,0,2.472,0.157,4.056,0.658c1.991,0.633,3.115,1.98,3.815,3.277   c0.339,0.642,0.559,1.259,0.685,1.698c0.126,0.444,0.151,0.658,0.156,0.653l0.376,2.587l2.066-1.609c0,0,0.118-0.101,0.479-0.263   c0.366-0.162,0.889-0.323,1.505-0.323c0.647,0.005,1.409,0.161,2.34,0.758c1.047,0.674,1.611,1.525,1.936,2.221   c0.155,0.35,0.249,0.653,0.301,0.856c0.056,0.205,0.048,0.257,0.056,0.251l0.16,1.512l1.517-0.168c0,0,0.97-0.104,2.323-0.104   c1.4-0.005,3.189,0.136,4.401,0.555c1.26,0.423,1.609,1.132,1.562,1.301C96.082,43.592,96.066,43.728,95.832,43.999z"/>
</g>
</svg>
