<svg xmlns="http://www.w3.org/2000/svg" xmlns:xlink="http://www.w3.org/1999/xlink" version="1.1" x="0px" y="0px" viewBox="0 0 100 100" enable-background="new 0 0 100 100" xml:space="preserve"><g><path d="M50,7c23.7,0,43,19.3,43,43S73.7,93,50,93S7,73.7,7,50S26.3,7,50,7 M50,5C25.1,5,5,25.1,5,50s20.1,45,45,45s45-20.1,45-45   S74.9,5,50,5L50,5z"></path></g><g><path d="M62.4,27.5L62.4,27.5c-5.5,0-10,4.5-10,10V50v12.5c0,5.5,4.5,10,10,10h0c5.5,0,10-4.5,10-10v-25C72.4,32,68,27.5,62.4,27.5   z M53.4,50v-2.5v-10c0-5,4-9,9-9s9,4,9,9V50H53.4z"></path><path d="M37.6,72.5L37.6,72.5c5.5,0,10-4.5,10-10V50V37.5c0-5.5-4.5-10-10-10h0c-5.5,0-10,4.5-10,10v25C27.6,68,32,72.5,37.6,72.5z    M46.6,50v2.5v10c0,5-4,9-9,9s-9-4-9-9V50H46.6z"></path></g></svg>