<svg fill="#000000" xmlns="http://www.w3.org/2000/svg" xmlns:xlink="http://www.w3.org/1999/xlink" version="1.1" x="0px" y="0px" viewBox="0 0 100 100" enable-background="new 0 0 100 100" xml:space="preserve"><g><path d="M12.804,62.394c-0.98,0-1.775,0.795-1.775,1.776c0,0.98,0.795,1.774,1.775,1.774h21.25v21.251   c0,0.98,0.795,1.776,1.777,1.776c0.98,0,1.773-0.796,1.773-1.776V65.944h24.789v21.251c0,0.98,0.795,1.776,1.775,1.776   c0.982,0,1.777-0.796,1.777-1.776V65.944h21.248c0.982,0,1.777-0.794,1.777-1.774c0-0.981-0.795-1.776-1.777-1.776H65.946V37.605   h21.248c0.982,0,1.777-0.794,1.777-1.775c0-0.98-0.795-1.776-1.777-1.776H65.946V12.803c0-0.98-0.795-1.774-1.777-1.774   c-0.98,0-1.775,0.794-1.775,1.774v21.251H37.604V12.803c0-0.98-0.793-1.774-1.773-1.774c-0.982,0-1.777,0.794-1.777,1.774v21.251   h-21.25c-0.98,0-1.775,0.796-1.775,1.776c0,0.981,0.795,1.775,1.775,1.775h21.25v24.788H12.804z M37.604,37.605h24.789v24.788   H37.604V37.605z"/><path d="M57.415,14.245c-0.693-0.694-1.818-0.694-2.512,0l-4.902,4.903l-4.906-4.903c-0.691-0.694-1.816-0.694-2.51,0   c-0.695,0.691-0.695,1.816,0,2.51l4.902,4.905l-4.902,4.903c-0.695,0.694-0.695,1.819,0,2.513c0.346,0.346,0.801,0.521,1.256,0.521   s0.906-0.175,1.254-0.521l4.906-4.905l4.902,4.905c0.348,0.346,0.803,0.521,1.256,0.521c0.455,0,0.91-0.175,1.256-0.521   c0.695-0.693,0.695-1.818,0-2.513l-4.904-4.903l4.904-4.905C58.11,16.062,58.11,14.937,57.415,14.245z"/><path d="M29.077,70.903c-0.695-0.693-1.818-0.693-2.514,0l-4.902,4.903l-4.906-4.903c-0.693-0.693-1.816-0.693-2.51,0   c-0.693,0.694-0.693,1.819,0,2.511l4.902,4.905l-4.902,4.903c-0.693,0.694-0.693,1.819,0,2.513   c0.346,0.347,0.801,0.521,1.254,0.521c0.455,0,0.91-0.174,1.256-0.521l4.906-4.903l4.902,4.903   c0.348,0.347,0.803,0.521,1.256,0.521c0.455,0,0.91-0.174,1.258-0.521c0.693-0.693,0.693-1.818,0-2.513l-4.906-4.903l4.906-4.905   C29.771,72.723,29.771,71.598,29.077,70.903z"/><path d="M50.001,40.193c-5.408,0-9.809,4.398-9.809,9.807c0,5.406,4.4,9.805,9.809,9.805c5.404,0,9.805-4.398,9.805-9.805   C59.806,44.592,55.405,40.193,50.001,40.193z M50.001,56.253c-3.451,0-6.254-2.806-6.254-6.253c0-3.449,2.803-6.253,6.254-6.253   c3.447,0,6.252,2.804,6.252,6.253C56.253,53.447,53.448,56.253,50.001,56.253z"/></g></svg>