<svg xmlns="http://www.w3.org/2000/svg" xmlns:xlink="http://www.w3.org/1999/xlink" version="1.1" x="0px" y="0px" viewBox="0 0 137.185 169.326" style="enable-background:new 0 0 137.185 169.326;" xml:space="preserve"><g><path d="M30.34,82.133c9.313,4.192,18.271,5.873,26.35,5.873c0.027,0,0.054,0,0.081,0c11.061-0.003,20.361-3.032,27.292-6.371   c0.323,0.854,0.711,1.685,1.129,2.5c0.658-1.415,1.218-2.735,1.695-3.943c1.579-3.991,2.229-6.669,2.24-6.716   c1.021-4.539,5.119-7.822,9.749-7.822c0.637,0,1.273,0.073,1.902,0.194c0.101,0.02,0.203,0.028,0.303,0.051   c5.378,1.209,8.771,6.569,7.563,11.95l-0.005,0.015l-0.027,0.112c-0.678,2.809-3.443,12.861-10.543,24.325   c-0.486,0.787-1.004,1.592-1.546,2.407c9.196,5.724,19.588,12.677,21.391,15.91l-20.036-12.41l-2.636-1.633l-1.705-1.056   l-12.902-7.992c-0.249-0.154-0.502-0.296-0.758-0.431c-0.615-0.325-1.249-0.595-1.896-0.81c-3.836-1.276-8.108-0.632-11.443,1.878   c-4.04,3.041-5.829,8.157-4.599,13.039c0.027,0.11,0.049,0.221,0.079,0.33l0.474,1.686l4.44,15.813L67.484,131l8.199,29.201   c1.549,5.516,6.566,9.123,12.028,9.124c1.119,0,2.256-0.151,3.386-0.469c6.648-1.867,10.521-8.768,8.657-15.413l-4.986-17.754   l12.66,7.84c2.843,1.762,6.115,2.234,9.148,1.597c0.109-0.023,0.22-0.038,0.329-0.064c1.293-0.205,2.734-0.533,4.355-0.907   c8.93-2.064,16.652-5.125,15.868-21.508c-2.764-22.195-7.301-34.604-18.703-52.584C110.81,58.202,99.25,55.845,91.364,58.608   c-1.459,0.266-2.86,0.935-4.022,2.022l-0.001-0.001c0,0-0.004,0.005-0.028,0.026c-0.33,0.303-3.518,3.111-8.692,5.813   c-5.438,2.844-12.972,5.544-21.85,5.538c-5.923-0.009-12.498-1.165-19.776-4.429c0.006,2.919-0.713,5.879-2.2,8.776   C33.594,78.69,32.096,80.621,30.34,82.133z"></path><path d="M73.921,30.88c-3.979,1.249-9.805,2.672-14.597,3.58c0.036,1.127,0.158,2.256,0.368,3.381l16.423-5.606   C75.617,31.674,74.885,31.221,73.921,30.88z"></path><path d="M77.261,55.746c4.812,0.997,9.98,0.437,14.705-1.955c0.467-0.236,0.917-0.491,1.359-0.754   c-1.945-0.078-3.866-0.522-5.63-1.341L77.261,55.746z"></path><path d="M49.187,118.961c-4.248,1.215-6.707,5.643-5.493,9.891c1.005,3.514,4.209,5.805,7.69,5.805c0.727,0,1.466-0.1,2.2-0.31   c4.141-1.182,7.976-2.669,11.532-4.385l-4.415-15.721C57.247,116.132,53.429,117.746,49.187,118.961z"></path><path d="M94.824,103.656c0.134-0.201,0.256-0.398,0.387-0.599c0.396-0.605,0.79-1.21,1.159-1.808   c7.753-12.521,10.182-23.284,10.321-23.84c0.967-4.299-1.726-8.565-6.015-9.551c-0.013-0.003-0.023-0.007-0.035-0.01   c-4.311-0.97-8.591,1.739-9.561,6.05v-0.002l-0.002,0.008c-0.057,0.257-0.505,2.035-1.466,4.727c-0.757,2.118-1.83,4.8-3.296,7.785   c-1.14,2.32-2.51,4.814-4.148,7.355c-0.362,0.561-0.741,1.123-1.127,1.686c0.217,0.12,0.433,0.239,0.646,0.37   C81.688,95.828,87.69,99.26,94.824,103.656z"></path><path d="M79.177,38.189l-7.02,2.398c0.118,0.418,0.27,0.896,0.455,1.418l6.632-2.275c-0.046-0.463-0.067-0.926-0.067-1.391   C79.177,38.29,79.177,38.242,79.177,38.189z"></path><path d="M70.103,51.418c-0.291-0.414-0.569-0.832-0.839-1.26l-0.727,0.25l0.864,1.281L70.103,51.418z"></path><path d="M66.349,44.16c-0.182-0.508-0.334-0.986-0.468-1.432l-2.053,0.701l0.873,1.295L66.349,44.16z"></path><path d="M75.749,47.933c0.246,0.338,0.502,0.671,0.766,0.997l5.368-2.085c-0.192-0.271-0.375-0.547-0.548-0.832L75.749,47.933z"></path><path d="M59.353,32.421c4.832-0.935,10.721-2.39,14.568-3.641c1.993,0.57,3.633,1.58,4.457,3.263   c0.206,0.42,0.505,0.83,0.884,1.231l-19.114,6.524l-0.017,0.006c-1.199,0.41-1.956,1.527-1.955,2.731   c0,0.312,0.052,0.629,0.156,0.934l0.056,0.164l7.638,11.323c0.459,1.09,1.521,1.768,2.659,1.766c0.31,0,0.626-0.049,0.932-0.154   l0.022-0.008l4.433-1.721L87.8,49.51c1.813,0.992,3.893,1.557,6.104,1.557c0.871,0,1.718-0.097,2.539-0.263   c4.396-0.892,7.971-4.039,9.45-8.191c1.573,0.297,2.53,0.451,2.53,0.451c7.61-8.791,6.298-45.79-25.585-42.904   c-28.103,2.544-25.25,23.231-24.179,28.1c-4.722,1.608-7.852,3.522-7.547,4.826C51.26,33.712,54.847,33.293,59.353,32.421z    M68.685,54.098c-0.107-0.002-0.213-0.068-0.247-0.176l-0.057-0.168l-2.961-4.389l0.164-0.056l4.569-1.57   c0.82,1.478,1.857,3.032,3.165,4.577l-2.564,0.996l-1.996,0.775C68.731,54.094,68.709,54.098,68.685,54.098z M60.801,42.517   c0.008-0.102,0.072-0.197,0.176-0.229l0.032-0.011l6.28-2.146c0.228,1.127,0.71,3.008,1.688,5.236L63.9,47.113l-2.105-3.122   L60.801,42.517z M81.476,41.078l-10.008,3.435c-0.242-0.539-0.452-1.057-0.635-1.547c-0.475-1.277-0.758-2.357-0.921-3.107   c-0.049-0.226-0.086-0.418-0.115-0.582l11.757-4.012c-0.244,0.985-0.376,2.014-0.376,3.077   C81.178,39.281,81.282,40.195,81.476,41.078z M75.921,51.307c-1.349-1.48-2.41-2.993-3.243-4.435l9.624-3.305   c0.706,1.565,1.717,2.961,2.96,4.111L75.921,51.307z"></path><path d="M32.329,75.088c1.448-2.817,2.142-5.833,1.846-8.868c-0.552-5.675-4.567-11.417-13.615-16.063   C6.682,43.025-8.363,72.309,5.517,79.442c9.86,5.064,17.14,4.817,22.02,1.353C29.529,79.381,31.125,77.434,32.329,75.088z    M13.845,55.233c0.479-0.723,4.063,0.803,7.995,3.416c3.933,2.609,6.738,5.314,6.256,6.039c-0.484,0.725-4.066-0.803-7.996-3.41   C16.161,58.664,13.362,55.959,13.845,55.233z M8.146,63.428c0.355-0.793,4.142,0.121,8.451,2.051   c2.737,1.223,5.027,2.558,6.245,3.572c0.7,0.584,1.049,1.063,0.918,1.352c-0.129,0.288-0.71,0.35-1.598,0.223   c-1.567-0.224-4.1-1.039-6.851-2.268C11,66.428,7.791,64.221,8.146,63.428z M13.034,76.512c-4.635-0.92-8.255-2.355-8.083-3.211   c0.17-0.852,4.063-0.801,8.695,0.117c4.629,0.918,8.251,2.354,8.079,3.207C21.557,77.481,17.664,77.43,13.034,76.512z"></path></g></svg>