<svg fill="#000000" xmlns="http://www.w3.org/2000/svg" xmlns:xlink="http://www.w3.org/1999/xlink" version="1.1" x="0px" y="0px" viewBox="0 0 32 32" enable-background="new 0 0 32 32" xml:space="preserve"><g display="none"><rect x="-31.915" y="-163.339" display="inline" fill="#000000" width="435.561" height="207"/></g><g><g><rect x="8.54" y="14.965" width="1" height="1"/><rect x="16.54" y="14.965" width="1" height="1"/><rect x="4.54" y="14.965" width="1" height="1"/><rect x="6.54" y="14.965" width="1" height="1"/><rect x="14.54" y="14.965" width="1" height="1"/><rect x="10.54" y="14.965" width="1" height="1"/><rect x="12.54" y="14.965" width="1" height="1"/><rect x="18.54" y="9.889" width="1.001" height="1"/><rect x="16.54" y="9.889" width="1" height="1"/><rect x="10.54" y="9.889" width="1" height="1"/><rect x="8.54" y="9.889" width="1" height="1"/><rect x="14.54" y="9.889" width="1" height="1"/><rect x="12.54" y="9.889" width="1" height="1"/><rect x="4.54" y="9.889" width="1" height="1"/><rect x="6.54" y="9.889" width="1" height="1"/><rect x="26.541" y="9.889" width="0.842" height="1"/><rect x="24.541" y="9.889" width="1" height="1"/><rect x="20.541" y="9.889" width="1" height="1"/><rect x="22.541" y="9.889" width="1" height="1"/><path d="M0,23.956h7.428v6.139l7.527-6.139H32V1.905H0V23.956z M1,2.905h30v20.051H14.599l-6.17,5.033v-5.033H1V2.905z"/></g></g><g display="none"><g display="inline"><line fill="none" stroke="#000000" stroke-miterlimit="10" stroke-dasharray="1" x1="4.171" y1="15.457" x2="18.199" y2="15.457"/><line fill="none" stroke="#000000" stroke-miterlimit="10" stroke-dasharray="1" x1="4.171" y1="10.218" x2="27.75" y2="10.218"/><g><path fill="#000000" d="M30,3.976v17.729H14.738h-0.712l-0.552,0.45l-3.806,3.104v-1.554v-2h-2H2V3.976H30 M32,1.976H0v21.729     h7.668v5.766l7.07-5.766H32V1.976L32,1.976z"/></g></g></g><g display="none"><line display="inline" fill="none" stroke="#000000" stroke-width="0.5" stroke-miterlimit="10" stroke-dasharray="1" x1="4.54" y1="15.466" x2="18.13" y2="15.466"/><line display="inline" fill="none" stroke="#000000" stroke-width="0.5" stroke-miterlimit="10" stroke-dasharray="1" x1="4.54" y1="10.39" x2="27.383" y2="10.39"/><polygon display="inline" fill="#000000" stroke="#000000" stroke-width="0.5" stroke-miterlimit="10" points="31.5,2.405 0.5,2.405    0.5,23.456 7.928,23.456 7.928,29.042 14.777,23.456 31.5,23.456  "/></g></svg>