<svg xmlns="http://www.w3.org/2000/svg" xmlns:xlink="http://www.w3.org/1999/xlink" version="1.1" id="Your_Icon" x="0px" y="0px" width="100px" height="100px" viewBox="0 0 100 100" enable-background="new 0 0 100 100" xml:space="preserve">
<path fill="#000000" d="M83.771,29.944h-5.686v-9.874c0-2.417-1.637-3.283-3.635-1.923L54.775,30.831  c-1.998,1.361-1.998,3.586,0,4.946L74.451,48.46c1.998,1.36,3.635,0.494,3.635-1.922v-9.874h5.686c1.566,0,2.842,1.275,2.842,2.843  v33.427c0,1.566-1.275,2.842-2.842,2.842H16.229c-1.568,0-2.843-1.275-2.843-2.842V39.507c0-1.568,1.275-2.843,2.843-2.843h37.917  l-0.604-0.411c-1.287-0.985-1.641-1.933-1.641-2.949c0-0.847,0.412-1.852,1.375-2.672l0.869-0.688H16.229  c-5.273,0-9.563,4.29-9.563,9.563v33.427c0,5.273,4.29,9.563,9.563,9.563h67.542c5.273,0,9.563-4.289,9.563-9.563V39.507  C93.334,34.234,89.045,29.944,83.771,29.944z"/>
</svg>
