<svg fill="#000000" xmlns="http://www.w3.org/2000/svg" xmlns:xlink="http://www.w3.org/1999/xlink" version="1.1" x="0px" y="0px" viewBox="0 0 100 100" enable-background="new 0 0 100 100" xml:space="preserve"><path fill="#000000" d="M87.536,79.75H12.24c-2.82,0-5.115-2.322-5.115-5.176V38.399c0-2.765,2.199-4.849,5.115-4.849h2.944  c0.819,0,1.391-0.992,1.391-1.881v-6.31c0-2.77,2.445-5.109,5.34-5.109h17.718c2.449,0,5.312,1.723,6.518,3.922l3.921,7.206  c0.614,1.117,2.288,2.171,3.447,2.171h34.018c2.994,0,5.339,2.13,5.339,4.849v36.175C92.875,77.332,90.38,79.75,87.536,79.75z   M12.24,37.05c-0.804,0-1.615,0.417-1.615,1.349v36.175c0,0.893,0.755,1.676,1.615,1.676h75.296c0.928,0,1.839-0.83,1.839-1.676  V38.399c0-0.833-0.954-1.349-1.839-1.349H53.519c-2.428,0-5.291-1.753-6.518-3.992c-0.001-0.001-0.002-0.003-0.003-0.005  l-3.919-7.203c-0.591-1.077-2.267-2.1-3.446-2.1H21.915c-0.945,0-1.84,0.782-1.84,1.609v6.31c0,2.967-2.194,5.381-4.891,5.381H12.24  z M67.889,74.85H32.812c-0.724,0-1.373-0.446-1.633-1.122c-0.261-0.676-0.077-1.442,0.46-1.927l3.907-3.529  c-2.012-1.662-3.408-3.063-5.237-5.433c-0.538-0.697-0.475-1.685,0.147-2.307c1.551-1.551,3.191-2.865,4.96-3.971  c-3.007-0.933-5.255-2.348-5.255-4.497c0-2.45,2.841-4.233,8.449-5.307c0.565-2.528,1.356-6.016,1.356-6.016  c0.214-0.947,0.816-1.713,1.651-2.1c0.794-0.366,1.707-0.353,2.532,0.029c1.771,0.589,4.926,1.484,6.202,1.484  s4.433-0.896,6.204-1.484c0.825-0.382,1.738-0.396,2.527-0.03c0.834,0.386,1.436,1.152,1.65,2.103  c0.634,2.808,1.061,4.706,1.348,5.994c5.834,1.071,8.675,2.818,8.675,5.327c0,2.205-2.368,3.638-5.494,4.569  c1.833,1.121,3.479,2.418,4.981,3.921c0.583,0.583,0.68,1.492,0.234,2.185c-1.605,2.493-3.292,4.024-5.281,5.571l3.864,3.49  c0.537,0.485,0.721,1.251,0.46,1.927C69.262,74.404,68.612,74.85,67.889,74.85z M56.083,71.35h7.257l-2.057-1.858  c-0.389-0.351-0.6-0.856-0.575-1.378c0.023-0.522,0.28-1.007,0.698-1.321c2.263-1.696,3.852-2.888,5.297-4.764  c-1.131-0.997-2.354-1.879-3.693-2.663C61.752,64.585,59.193,68.913,56.083,71.35z M37.36,71.35h7.617  c-2.833-2.233-5.474-6.254-7.002-12.243c-1.384,0.799-2.678,1.736-3.907,2.828c1.544,1.844,2.892,3.027,5.256,4.881  c0.406,0.318,0.651,0.8,0.669,1.316c0.018,0.516-0.193,1.013-0.576,1.359L37.36,71.35z M41.255,57.763  c1.887,7.701,5.987,12.227,9.204,12.227c3.496,0,7.801-4.831,9.33-12.243c-4.288,0.577-8.406,0.612-9.33,0.612  C49.544,58.358,45.497,58.324,41.255,57.763z M33.825,52.065c1.326,1.109,7.349,2.793,16.634,2.793  c9.29,0,15.313-1.686,16.636-2.794c-0.481-0.388-1.771-1.05-4.473-1.646c-0.156,0.668-0.549,1.081-0.901,1.327  c-0.229,0.159-1.014,0.635-1.882,1.035c-0.172,0.079-4.246,1.923-9.491,1.923c-5.247,0-9.317-1.844-9.488-1.923  c-0.627-0.289-1.672-0.837-2.032-1.154c-0.358-0.318-0.613-0.734-0.735-1.181C35.547,51.034,34.297,51.69,33.825,52.065z   M41.641,49.261c0.198,0.105,0.431,0.224,0.682,0.339c0.031,0.015,3.575,1.603,8.025,1.603c4.488,0,7.994-1.587,8.029-1.603  c0.245-0.113,0.478-0.231,0.68-0.34c-0.323-1.466-1.064-4.763-1.612-7.195c-1.219,0.397-5.06,1.592-7.092,1.592  c-2.035,0-5.884-1.199-7.096-1.593c-0.298,1.312-1.058,4.672-1.484,6.598C41.729,48.854,41.683,49.065,41.641,49.261z"/></svg>