<svg fill="#000000" xmlns="http://www.w3.org/2000/svg" xmlns:xlink="http://www.w3.org/1999/xlink" version="1.1" x="0px" y="0px" viewBox="0 0 100 100" style="enable-background:new 0 0 100 100;" xml:space="preserve"><title>icons saved for noun</title><path d="M53.8,37.7l21.6-19L69.7,2.5H30.3l-0.6,1.8L25.2,17l-0.6,1.7l21.6,19c-16.4,2.1-28.1,17.1-26,33.5s17.1,28.1,33.5,26  s28.1-17.1,26-33.5C78,50.1,67.3,39.4,53.8,37.7z M49,31l-7.4-12.2H49V31z M60.7,18.8h6.5l-14,12.3L60.7,18.8z M51,31V18.8h7.4  L51,31z M51,16.9V7.8h5l2.8,9.1L51,16.9L51,16.9z M49,16.9h-7.8L44,7.8h5V16.9L49,16.9z M46.8,31.2l-14-12.3h6.5L46.8,31.2z   M69.1,16.9h-8.3l-2.8-9.1H66L69.1,16.9z M34,7.8h7.9l-2.8,9.1h-8.3v-0.1L34,7.8z M50,90.8c-12.9,0-23.4-10.5-23.4-23.4  c0-12.9,10.5-23.4,23.4-23.4s23.4,10.5,23.4,23.4l0,0C73.4,80.4,62.9,90.8,50,90.8z"/></svg>