<svg xmlns="http://www.w3.org/2000/svg" xmlns:xlink="http://www.w3.org/1999/xlink" version="1.1" id="Layer_1" x="0px" y="0px" width="100px" height="74.912px" viewBox="0 0 100 74.912" enable-background="new 0 0 100 74.912" xml:space="preserve">
<path d="M99.958,34.46c0,0-0.086-13.878-14.914-13.878c0,0-1.478,0.242-5.86-0.708c-1.656-1.778-3.571-3.308-5.686-4.534v-0.926  l3.259-1.98l-1.215-2.59C55.729,7.031,57.134,0,57.134,0H46.333c0,0,1.406,7.031-18.409,9.844l-1.214,2.59l3.261,1.98v0.002  C27.621,28.263,8.173,12.4,8.173,12.4C3.531,16.675,0.84,17.063,0,17.839c20.576,5.286,21.325,25.623,21.325,25.623  s0.005-0.01,0.011-0.026c-0.01,0.308-0.023,0.614-0.023,0.923c0,16.875,13.679,30.553,30.553,30.553  c11.62,0,21.726-6.489,26.892-16.041c1.003,0.592,4.45,2.479,4.669,0.658c0.256-2.129-0.512-4.092,2.301-5.284  C85.727,54.245,100.896,51.407,99.958,34.46z M83.855,50.581c0,0,3.814-11.091,1.535-18.297c-0.317-1.792-0.826-3.518-1.514-5.153  c0.808-1.671,2.269-1.5,2.269-1.5c9.882-0.446,9.952,9.259,9.952,9.259C96.723,46.197,83.855,50.581,83.855,50.581z"/>
</svg>
