<svg xmlns="http://www.w3.org/2000/svg" xmlns:xlink="http://www.w3.org/1999/xlink" version="1.0" x="0px" y="0px" viewBox="0 0 100 100" enable-background="new 0 0 100 100" xml:space="preserve"><ellipse fill="none" stroke="#000000" stroke-linecap="round" stroke-linejoin="round" stroke-miterlimit="10" cx="50" cy="13.335" rx="40" ry="3.33"></ellipse><path fill="none" stroke="#000000" stroke-linecap="round" stroke-linejoin="round" stroke-miterlimit="10" d="M10,13.335  c0,1.837,17.91,3.33,39.999,3.33C72.09,16.666,90,15.173,90,13.335v36.66c0,22.094-17.91,40.003-39.999,40.003  C27.91,89.999,10,72.09,10,49.996V13.335z"></path><path fill="none" stroke="#000000" stroke-linecap="round" stroke-linejoin="round" stroke-miterlimit="10" d="M70.005,66.665  c0,5.228,1.461,10.44,4.341,15.021C83.85,74.373,90,62.917,90,49.996v-0.06c-0.023-7.331-4.492-13.27-9.995-13.27  c-5.521,0-10,5.971-10,13.334V66.665z"></path><path fill="none" stroke="#000000" stroke-linecap="round" stroke-linejoin="round" stroke-miterlimit="10" d="M30.002,66.665  c0.002,5.525-1.608,10.666-4.348,15.021C16.15,74.373,10,62.917,10.002,50c0-7.363,4.477-13.334,10-13.334  c5.521,0,10,5.971,10,13.334V66.665z"></path><rect x="30" y="23.331" fill="none" stroke="#000000" stroke-linecap="round" stroke-linejoin="round" stroke-miterlimit="10" width="13.334" height="6.67"></rect><path fill="none" stroke="#000000" stroke-linecap="round" stroke-linejoin="round" stroke-miterlimit="10" d="M30,30v-6.67h6.173  c-1.249-4.079-4.926-7.083-9.371-7.285C16.644,15.439,10,14.452,10,13.335v36.66c0,0.018,0.004,0.037,0.004,0.055  c0-0.018-0.002-0.037-0.002-0.05c0-7.363,4.477-13.334,10-13.334h6.334c4.41,0,8.146-2.779,9.63-6.665H30z"></path><rect x="56.67" y="23.331" fill="none" stroke="#000000" stroke-linecap="round" stroke-linejoin="round" stroke-miterlimit="10" width="13.33" height="6.67"></rect><path fill="none" stroke="#000000" stroke-linecap="round" stroke-linejoin="round" stroke-miterlimit="10" d="M70,30v-6.67h-6.169  c1.249-4.079,4.924-7.083,9.37-7.285C83.357,15.439,90,14.452,90,13.335v36.66c0,0.018,0,0.037,0,0.055c0-0.018,0-0.037,0-0.05  c0-7.363-4.479-13.334-10-13.334h-6.334c-4.41,0-8.149-2.779-9.628-6.665H70z"></path><path fill="none" stroke="#000000" stroke-linecap="round" stroke-linejoin="round" stroke-miterlimit="10" d="M53.216,53.449  c-1.773-1.777-4.654-1.772-6.427,0c-1.778,1.773-1.778,4.653,0,6.432c1.773,1.772,4.654,1.772,6.427,0  C54.989,58.103,54.989,55.223,53.216,53.449z"></path><path fill="none" stroke="#000000" stroke-linecap="round" stroke-linejoin="round" stroke-miterlimit="10" d="M47.997,49.196  c-0.377-0.951-0.781-1.75-1.213-2.177c-1.773-1.778-4.653-1.778-6.428,0c-1.775,1.773-1.775,4.653,0,6.426  c0.429,0.432,1.224,0.841,2.172,1.217c0.995,0.147,2.095,0.399,3.146,0.68c0.209-0.693,0.567-1.346,1.114-1.893  c0.546-0.546,1.199-0.904,1.89-1.111C48.401,51.286,48.144,50.184,47.997,49.196z"></path><path fill="none" stroke="#000000" stroke-linecap="round" stroke-linejoin="round" stroke-miterlimit="10" d="M52.003,64.139  c-0.367-0.933-0.698-2.012-0.981-3.06c-1.427,0.331-2.97-0.036-4.114-1.098c-0.771,0.763-1.603,1.539-2.389,2.163  c-0.629,0.795-1.107,1.544-1.263,2.127c-0.652,2.426,0.788,4.92,3.216,5.572c2.423,0.647,4.916-0.795,5.568-3.22  C52.196,66.04,52.15,65.145,52.003,64.139z"></path><path fill="none" stroke="#000000" stroke-linecap="round" stroke-linejoin="round" stroke-miterlimit="10" d="M63.179,53.133  c-0.652-2.426-3.146-3.863-5.567-3.211c-0.588,0.156-1.332,0.629-2.127,1.259c-0.624,0.785-1.4,1.617-2.168,2.393  c1.062,1.14,1.429,2.683,1.103,4.111c1.048,0.285,2.122,0.611,3.055,0.983c1.006,0.146,1.901,0.188,2.49,0.032  C62.389,58.053,63.831,55.558,63.179,53.133z"></path><path fill="none" stroke="#000000" stroke-linecap="round" stroke-linejoin="round" stroke-miterlimit="10" d="M46.789,59.881  c-1.231-1.231-1.589-2.986-1.114-4.543c-2.125-0.561-4.472-1.024-5.634-0.712c-2.425,0.647-3.868,3.142-3.215,5.571  c0.648,2.421,3.142,3.863,5.567,3.211c1.162-0.313,2.963-1.884,4.52-3.427C46.871,59.94,46.825,59.917,46.789,59.881z"></path><path fill="none" stroke="#000000" stroke-linecap="round" stroke-linejoin="round" stroke-miterlimit="10" d="M59.651,59.881  c-0.854-0.854-3.11-1.622-5.232-2.2c-0.184,0.808-0.574,1.57-1.203,2.2c-0.625,0.624-1.392,1.02-2.197,1.203  c0.576,2.117,1.348,4.373,2.202,5.228c1.772,1.772,4.648,1.772,6.421,0C61.424,64.533,61.424,61.653,59.651,59.881z"></path><path fill="none" stroke="#000000" stroke-linecap="round" stroke-linejoin="round" stroke-miterlimit="10" d="M53.532,43.486  c-2.426-0.647-4.92,0.79-5.568,3.216c-0.313,1.167,0.149,3.514,0.712,5.636c1.553-0.473,3.313-0.119,4.54,1.111  c0.041,0.037,0.068,0.088,0.105,0.124c1.544-1.552,3.114-3.353,3.427-4.515C57.396,46.633,55.958,44.139,53.532,43.486z"></path><path fill="none" stroke="#000000" stroke-linecap="round" stroke-linejoin="round" stroke-miterlimit="10" d="M15.002,21.663v10  V21.663z"></path><path fill="none" stroke="#000000" stroke-linecap="round" stroke-linejoin="round" stroke-miterlimit="10" d="M20,22.499v8.333  V22.499z"></path><path fill="none" stroke="#000000" stroke-linecap="round" stroke-linejoin="round" stroke-miterlimit="10" d="M25.002,23.331v6.665  V23.331z"></path><path fill="none" stroke="#000000" stroke-linecap="round" stroke-linejoin="round" stroke-miterlimit="10" d="M85.002,31.663v-10  V31.663z"></path><path fill="none" stroke="#000000" stroke-linecap="round" stroke-linejoin="round" stroke-miterlimit="10" d="M80,30.832v-8.333  V30.832z"></path><path fill="none" stroke="#000000" stroke-linecap="round" stroke-linejoin="round" stroke-miterlimit="10" d="M75.002,29.996  v-6.665V29.996z"></path></svg>