<svg fill="#000000" xmlns="http://www.w3.org/2000/svg" xmlns:xlink="http://www.w3.org/1999/xlink" version="1.1" x="0px" y="0px" viewBox="0 0 100 98.2" enable-background="new 0 0 100 98.2" xml:space="preserve"><path d="M68.5,53.7c0.4-0.8,0.4-1.7,0.1-2.5L59.7,28c-0.4-1-1.3-1.8-2.4-2l-0.2,0l0,0.2c-0.4,1.7-4.2,2.9-7.3,2.9  c-3,0-6.8-1.2-7.2-2.8l-0.1-0.2l-0.2,0.1c-1,0.3-1.8,1-2.2,2l-8.9,23.1C31,52.1,31,53,31.3,53.8c0.4,0.8,1,1.4,1.8,1.7l1,0.4  c0.4,0.1,0.8,0.2,1.2,0.2c1.4,0,2.6-0.8,3.1-2.1l3.9-10.2v19.7c0,0.2,0,0.4,0,0.6c0,0.2,0,0.4,0,0.5v24.7c0,1.8,1.5,3.3,3.3,3.3h1.1  c1.6,0,2.9-1.1,3.2-2.6c0.4,1.4,1.7,2.4,3.2,2.4h1.1c1.8,0,3.3-1.5,3.3-3.3V64.7c0-0.2,0-0.3,0-0.5c0-0.2,0-0.4,0-0.6V43.7l3.9,10.2  c0.5,1.3,1.7,2.1,3.1,2.1c0.4,0,0.8-0.1,1.2-0.2l1-0.4C67.5,55.1,68.2,54.5,68.5,53.7z M65.5,55.4c-0.3,0.1-0.7,0.2-1,0.2  c-1.2,0-2.3-0.7-2.7-1.8l-4.7-12.3v22c0,0.2,0,0.4,0,0.6l0,0l0,0c0,0.2,0,0.3,0,0.5v24.5c0,1.6-1.3,2.9-2.9,2.9h-1.1  c-1.6,0-2.9-1.3-2.9-2.9V68.2h-0.6v21.2c0,1.6-1.3,2.9-2.9,2.9h-1.1c-1.6,0-2.9-1.3-2.9-2.9V64.7c0-0.2,0-0.3,0-0.5l0,0l0,0  c0-0.2,0-0.4,0-0.6V41.6L38,53.9c-0.4,1.1-1.5,1.8-2.7,1.8c-0.4,0-0.7-0.1-1-0.2l-1-0.4c-0.7-0.3-1.3-0.8-1.6-1.5  c-0.3-0.7-0.3-1.5-0.1-2.2l8.9-23.1c0.3-0.8,0.9-1.4,1.7-1.7c0.7,1.7,4.5,2.9,7.5,2.9c3.1,0,6.9-1.3,7.6-3.1  c0.9,0.3,1.6,0.9,1.9,1.7l8.9,23.1c0.3,0.7,0.3,1.5-0.1,2.2c-0.3,0.7-0.9,1.2-1.6,1.5L65.5,55.4z M49.8,27.8c3.6,0,6.6-3,6.6-6.6  s-2.9-6.6-6.6-6.6s-6.6,3-6.6,6.6S46.2,27.8,49.8,27.8z M49.8,14.9c3.4,0,6.1,2.8,6.1,6.2c0,3.4-2.8,6.2-6.1,6.2s-6.1-2.8-6.1-6.2  C43.7,17.7,46.4,14.9,49.8,14.9z M66.5,79.6c-0.1,0.1-0.2,0.2-0.3,0.2c-0.1,0-0.2,0-0.2-0.1c-0.2-0.1-0.2-0.4-0.1-0.6  c14.8-20.8,15-46.1,0.5-56.4c-0.2-0.1-0.2-0.4-0.1-0.6c0.1-0.2,0.4-0.2,0.6-0.1C81.7,32.7,81.5,58.5,66.5,79.6z M86.9,44.2  c-0.1,13.8-5.3,28.6-14.6,41.7c-0.1,0.2-0.3,0.3-0.5,0.3c-0.1,0-0.2,0-0.4-0.1c-0.3-0.2-0.3-0.6-0.1-0.9c9.1-12.8,14.2-27.4,14.3-41  c0.1-13.5-4.7-24.4-13.6-30.8c-0.3-0.2-0.3-0.6-0.1-0.9c0.2-0.3,0.6-0.3,0.9-0.1C81.9,19.1,87,30.3,86.9,44.2z M95,43  c-0.1,16.5-6.3,34.1-17.4,49.7C77.5,92.9,77.2,93,77,93c-0.2,0-0.3,0-0.5-0.2c-0.4-0.3-0.5-0.8-0.2-1.1C98.7,60.3,99,22,77.1,6.4  c-0.4-0.3-0.5-0.8-0.2-1.1c0.3-0.4,0.8-0.5,1.1-0.2C89.1,12.9,95.1,26.4,95,43z M34.2,79.5c0.1,0.2,0.1,0.4-0.1,0.6  c-0.1,0.1-0.2,0.1-0.2,0.1c-0.1,0-0.3-0.1-0.3-0.2c-7.3-10.2-11.3-21.8-11.4-32.7C22,36.4,26,27.5,33.2,22.4  c0.2-0.1,0.4-0.1,0.6,0.1c0.1,0.2,0.1,0.4-0.1,0.6c-7,5-10.8,13.6-10.7,24.2C23,57.9,27,69.4,34.2,79.5z M28.5,87.2  c0.2,0.3,0.1,0.7-0.1,0.9c-0.1,0.1-0.2,0.1-0.4,0.1c-0.2,0-0.4-0.1-0.5-0.3C18.2,74.8,13.1,60,13,46.2C12.8,32.3,17.9,21,27.1,14.4  c0.3-0.2,0.7-0.1,0.9,0.1c0.2,0.3,0.1,0.7-0.1,0.9C9.4,28.5,9.7,60.7,28.5,87.2z M23.7,92c0.3,0.4,0.2,0.9-0.2,1.1  c-0.1,0.1-0.3,0.2-0.5,0.2c-0.3,0-0.5-0.1-0.7-0.3C11.3,77.4,5.1,59.8,5,43.3C4.9,26.7,10.9,13.2,21.9,5.4c0.4-0.3,0.9-0.2,1.1,0.2  c0.3,0.4,0.2,0.9-0.2,1.1C12.3,14.2,6.5,27.2,6.6,43.3C6.8,59.4,12.8,76.7,23.7,92z"/><path fill="none" stroke="#000000" stroke-width="3" stroke-linecap="round" stroke-miterlimit="10" d="M30,76.3"/></svg>