<svg fill="#000000" xmlns="http://www.w3.org/2000/svg" viewBox="0 0 48 68" x="0px" y="0px"><g fill="#000000" fill-rule="evenodd"><path d="M24,12 C16.0131402,12 9.55341325,10.2511616 6.29720219,7.11083475 C4.81810654,5.68437814 4.28618264,4.00343028 4.28618264,4.00343028 L43.6013036,4 C41.7242081,8.65625585 33.4615968,12 24,12 Z M46,0.0036297515 L2,0.0036297515 C0.8954305,0.0036297515 0,0.899060252 0,2.00362975 C0,11.4056225 10.416443,16 24,16 C36.7201721,16 48,10.6930499 48,2.00362975 C48,0.899060252 47.1045695,0.0036297515 46,0.0036297515 Z"/><path d="M17.3301061,58.724061 C19.392756,59.5472848 21.6434652,60 24,60 C26.3565928,60 28.6072931,59.5472861 30.6699051,58.7240812 L35.2516854,66.9712859 C35.7881118,67.9368533 37.0057184,68.2847409 37.9712859,67.7483146 C38.9368533,67.2118882 39.2847409,65.9942816 38.7483146,65.0287141 L34.196743,56.8358853 C38.9103647,53.5902365 42,48.1562313 42,42 C42,34.5406042 37.4641149,28.1421785 31,25.4115218 L31,14 C31,12.8954305 30.1045695,12 29,12 C27.8954305,12 27,12.8954305 27,14 L27,24.2488117 C26.0243837,24.0851734 25.0221468,24 24,24 C22.9778423,24 21.9756065,24.0851708 21,24.2488028 L21,14 C21,12.8954305 20.1045695,12 19,12 C17.8954305,12 17,12.8954305 17,14 L17,25.4114963 C10.5356379,28.1422437 6,34.5410017 6,42 C6,48.1565248 9.0897689,53.5903345 13.8032658,56.8358696 L9.25168545,65.0287141 C8.71525908,65.9942816 9.06314667,67.2118882 10.0287141,67.7483146 C10.9942816,68.2847409 12.2118882,67.9368533 12.7483146,66.9712859 L17.3301061,58.724061 Z M24,28 C31.7326951,28 38,34.2667792 38,42 C38,49.7326951 31.7332208,56 24,56 C16.2673049,56 10,49.7332208 10,42 C10,34.2673049 16.2667792,28 24,28 Z"/><path d="M25.035852,38.1357209 C24.7054689,38.0472104 24.3582339,38 24,38 C21.7953562,38 20,39.790861 20,42 C20,44.2046438 21.790861,46 24,46 C26.2046438,46 28,44.209139 28,42 C28,41.6419732 27.9527702,41.2947404 27.8641892,40.964238 L31.4142136,37.4142136 C32.1952621,36.633165 32.1952621,35.366835 31.4142136,34.5857864 C30.633165,33.8047379 29.366835,33.8047379 28.5857864,34.5857864 L25.035852,38.1357209 L25.035852,38.1357209 Z"/></g></svg>