<svg fill="#000000" xmlns="http://www.w3.org/2000/svg" data-name="Layer 1" viewBox="0 0 128 128" x="0px" y="0px"><defs><style>.cls-1,.cls-2,.cls-3{fill:none;stroke:#000000;stroke-miterlimit:10;}.cls-1,.cls-3{stroke-width:4px;}.cls-2,.cls-3{stroke-linecap:round;}.cls-2{stroke-width:4px;}</style></defs><title>Artboard 20</title><path d="M96,18v6.18c0,5.76,2.15,11.13,4.24,16.31.84,2.1,1.64,4.09,2.26,6l2.48,7.7a62.91,62.91,0,0,1,3,19.15l-3,46.37V120a4,4,0,0,1-4,4H27a4,4,0,0,1-4-4v-.26L20,73.38a62.91,62.91,0,0,1,3-19.15l2.48-7.7c.62-1.94,1.42-3.92,2.26-6C29.85,35.31,32,29.95,32,24.18V18H96m4-4H28V24.18c0,7.17-4.12,14.29-6.31,21.11L19.21,53A67,67,0,0,0,16,73.5L19,120a8,8,0,0,0,8,8h74a8,8,0,0,0,8-8l3-46.5A67,67,0,0,0,108.79,53l-2.48-7.7C104.12,38.47,100,31.35,100,24.18V14Z"/><line class="cls-1" x1="30" y1="126" x2="30" y2="24"/><line class="cls-1" x1="98" y1="126" x2="98" y2="24"/><path d="M96.61,4l1.67,10H29.72L31.39,4H96.61M100,0H28L25,18h78L100,0Z"/><line class="cls-2" x1="64" y1="79" x2="73" y2="70"/><line class="cls-2" x1="64" y1="71" x2="73" y2="62"/><polyline class="cls-2" points="64 63 71 56 71 45"/><line class="cls-2" x1="64" y1="87" x2="73" y2="78"/><line class="cls-2" x1="64" y1="79" x2="55" y2="70"/><line class="cls-2" x1="64" y1="71" x2="55" y2="62"/><polyline class="cls-2" points="64 63 57 56 57 45"/><line class="cls-2" x1="64" y1="87" x2="55" y2="78"/><line class="cls-3" x1="64" y1="37" x2="64" y2="108"/></svg>