<svg xmlns="http://www.w3.org/2000/svg" xmlns:xlink="http://www.w3.org/1999/xlink" version="1.1" x="0px" y="0px" viewBox="0 0 100 100" enable-background="new 0 0 100 100" xml:space="preserve"><ellipse cx="56.921" cy="24.345" rx="2.106" ry="2.34"></ellipse><ellipse cx="43.269" cy="24.345" rx="2.105" ry="2.34"></ellipse><path d="M55.513,37.24c-2.745,0-4.976-2.149-5.154-4.85c0.732-0.28,1.954-0.877,1.954-1.763c0-1.079-1.093-1.924-2.488-1.924  s-2.489,0.845-2.489,1.924c0,0.885,1.222,1.483,1.955,1.763c-0.179,2.701-2.41,4.85-5.155,4.85c-0.276,0-0.5,0.224-0.5,0.5  s0.224,0.5,0.5,0.5c2.549,0,4.742-1.549,5.689-3.755c0.947,2.206,3.14,3.755,5.688,3.755c0.276,0,0.5-0.224,0.5-0.5  S55.789,37.24,55.513,37.24z M48.335,30.627c0-0.492,0.696-0.924,1.489-0.924s1.488,0.432,1.488,0.92  c-0.032,0.19-0.688,0.617-1.488,0.899C49.085,31.262,48.37,30.836,48.335,30.627z"></path><path d="M47.13,27.56c-2.728,1.591-6.816,4.136-6.857,4.162c-0.117,0.073-0.153,0.228-0.08,0.345  c0.047,0.076,0.129,0.118,0.212,0.118c0.045,0,0.091-0.012,0.132-0.038c0.041-0.026,4.124-2.567,6.846-4.155  c1.686-0.983,3.196-0.98,5.052,0.005c0.997,0.53,7.043,3.806,7.043,3.806l0.238-0.439c0,0-6.05-3.278-7.047-3.808  C50.641,26.478,48.983,26.479,47.13,27.56z"></path><path d="M33.731,8.131c-2.261,0-4.101,1.997-4.101,4.452c0,2.119,1.39,3.954,3.305,4.364c0.035,0.008,0.07,0.011,0.104,0.011  c0.215,0,0.411-0.139,0.478-0.352c0.241-0.777,0.709-1.527,1.353-2.17c0.765-0.766,1.672-1.285,2.553-1.461  c0.237-0.048,0.407-0.259,0.401-0.502C37.767,10.038,35.969,8.131,33.731,8.131z M34.163,13.729c-0.631,0.63-1.12,1.355-1.434,2.118  c-1.238-0.47-2.099-1.775-2.099-3.264c0-1.903,1.391-3.452,3.101-3.452c1.569,0,2.854,1.276,3.063,2.97  C35.866,12.379,34.945,12.946,34.163,13.729z"></path><path d="M67.049,7.655c-1.854,0-3.479,1.368-3.954,3.326c-0.061,0.252,0.081,0.51,0.328,0.592c0.753,0.252,1.477,0.711,2.094,1.33  c0.942,0.942,1.513,2.104,1.524,3.107c0.002,0.145,0.066,0.281,0.176,0.375c0.092,0.078,0.206,0.119,0.324,0.119  c0.024,0,0.05-0.002,0.074-0.005c2.015-0.305,3.534-2.192,3.534-4.392C71.149,9.652,69.31,7.655,67.049,7.655z M67.983,15.38  c-0.188-1.09-0.817-2.242-1.76-3.184c-0.603-0.604-1.297-1.081-2.029-1.398c0.473-1.281,1.597-2.144,2.854-2.144  c1.71,0,3.101,1.549,3.101,3.452C70.149,13.617,69.249,14.935,67.983,15.38z"></path><path d="M73.558,14.664c0.326-2.719-0.677-5.688-2.555-7.565c-1.497-1.499-3.434-2.283-5.51-2.204  c-1.921,0.073-3.817,0.91-5.205,2.297c-0.011,0.01-0.014,0.024-0.023,0.035c-2.174-1.415-5.598-2.192-9.934-2.192  c-4.315,0-7.739,1.015-9.893,2.367c-0.022-0.076-0.058-0.149-0.118-0.21c-1.388-1.387-3.284-2.224-5.205-2.297  c-2.071-0.084-4.013,0.706-5.511,2.204c-1.878,1.877-2.881,4.848-2.555,7.567c0.204,1.698,1.025,4.047,3.671,5.776  c-0.06,0.875-0.117,1.71-0.173,2.497c-0.584,8.341-0.826,11.919,1.955,15.887c-4.77,5.23-5.06,12.6-2.822,17.287  c0.718,1.504,1.66,2.635,2.713,3.344c-0.078,0.088-0.129,0.201-0.129,0.328v8.793c-4.257,5.152-5.958,13.183-3.847,19.285  c1.472,4.251,4.507,6.768,8.548,7.085c0.014,0.001,0.025,0.001,0.039,0.001l0,0l0,0c0.001,0,0.001,0,0.001,0l0,0  c2.203,0,4.206-1.072,5.718-2.813c0.009,0.014,0.012,0.03,0.022,0.042c1.171,1.425,5.315,1.638,7.682,1.638  c3.217,0,6.027-0.51,7.244-1.276c1.533,1.88,3.62,3.043,5.92,3.044c0.001,0,0.001,0,0.001,0s0,0,0.001,0l0,0l0,0  c0.014,0,0.025,0,0.039-0.001c4.04-0.318,7.075-2.834,8.546-7.085c2.138-6.177,0.369-14.33-4.003-19.473  c0.063-0.083,0.107-0.183,0.107-0.295v-9.322c0-0.018-0.008-0.032-0.01-0.049c0.995-0.715,1.886-1.811,2.572-3.248  c2.238-4.689,1.947-12.066-2.833-17.296c2.774-3.964,2.532-7.543,1.947-15.879c-0.054-0.765-0.11-1.579-0.168-2.428  C72.518,18.772,73.352,16.383,73.558,14.664z M69.197,19.705c-0.255,0.038-0.444,0.26-0.427,0.521  c0.065,0.982,0.131,1.907,0.191,2.778c0.579,8.246,0.817,11.691-1.924,15.461c-0.006,0.005-0.013,0.007-0.019,0.012  c-0.198,0.192-0.204,0.508-0.012,0.707c4.748,4.917,5.07,12.02,2.936,16.494c-1.15,2.411-2.889,3.756-4.635,3.605  c-0.008-0.001-0.015,0.003-0.022,0.002s-0.014-0.004-0.021-0.004c-4.42,0-7.507-3.363-7.507-8.179c0-4.917,1.33-5.43,3.979-6.452  c1.108-0.427,2.363-0.912,3.792-1.803c0.234-0.146,0.306-0.455,0.159-0.689S65.233,41.855,65,42  c-1.348,0.841-2.557,1.308-3.623,1.719c-2.781,1.073-4.619,1.782-4.619,7.385c0,5.389,3.478,9.154,8.462,9.177  c0.001,0,0.001,0,0.001,0c0.121,0.011,0.241,0.016,0.361,0.016c0.581,0,1.15-0.136,1.701-0.373v8.131  c-0.158-0.158-0.31-0.325-0.473-0.475c-0.201-0.187-0.52-0.174-0.706,0.029c-0.188,0.203-0.175,0.52,0.028,0.707  c5.682,5.237,7.056,14.208,5.102,19.855c-1.33,3.845-4.052,6.121-7.661,6.412c-4.13-0.015-7.487-4.376-7.487-9.738  c0-5.37,3.368-9.739,7.508-9.739c0.276,0,0.5-0.224,0.5-0.5s-0.224-0.5-0.5-0.5c-4.691,0-8.508,4.817-8.508,10.739  c0,2.623,0.751,5.027,1.993,6.894c-0.838,0.493-3.19,1.078-6.651,1.078c-4.323,0-6.403-0.658-6.908-1.273  c-0.059-0.071-0.135-0.114-0.216-0.144c1.366-1.906,2.207-4.424,2.207-7.191c0-5.922-3.815-10.739-8.506-10.739  c-0.276,0-0.5,0.224-0.5,0.5s0.224,0.5,0.5,0.5c4.139,0,7.506,4.369,7.506,9.739c0,5.362-3.356,9.724-7.485,9.738  c-3.61-0.291-6.331-2.566-7.662-6.412c-1.954-5.647-0.579-14.618,5.103-19.855c0.203-0.187,0.216-0.503,0.028-0.707  c-0.186-0.203-0.504-0.215-0.706-0.029c-0.181,0.167-0.35,0.35-0.523,0.526v-7.535c0.544,0.23,1.105,0.362,1.679,0.362  c0.12,0,0.24-0.005,0.361-0.016c0,0,0,0,0.001,0c4.984-0.023,8.463-3.789,8.463-9.177c0-5.603-1.838-6.312-4.62-7.385  c-1.066-0.412-2.275-0.878-3.623-1.719c-0.231-0.145-0.542-0.075-0.688,0.16s-0.075,0.542,0.159,0.689  c1.429,0.891,2.685,1.376,3.793,1.803c2.649,1.022,3.979,1.536,3.979,6.452c0,4.816-3.087,8.179-7.508,8.179  c-0.007,0-0.013,0.004-0.021,0.004c-0.008,0-0.016-0.003-0.023-0.002c-1.762,0.153-3.483-1.194-4.634-3.604  c-2.136-4.475-1.813-11.577,2.935-16.495c0.192-0.199,0.187-0.515-0.012-0.707c-0.015-0.014-0.033-0.019-0.049-0.031  c-2.726-3.763-2.488-7.209-1.911-15.44c0.062-0.873,0.126-1.797,0.191-2.781c0.002-0.024-0.008-0.046-0.01-0.07  c-0.002-0.035-0.003-0.069-0.014-0.103c-0.009-0.032-0.024-0.059-0.04-0.087c-0.015-0.028-0.027-0.057-0.047-0.082  c-0.022-0.028-0.05-0.049-0.077-0.071c-0.019-0.015-0.031-0.035-0.052-0.047c-2.521-1.533-3.271-3.685-3.455-5.22  c-0.291-2.426,0.599-5.072,2.269-6.741c1.298-1.3,2.966-1.98,4.766-1.912c1.672,0.063,3.325,0.794,4.536,2.005  c0.017,0.017,0.038,0.024,0.057,0.038c-0.719,0.565-1.234,1.169-1.513,1.772c-0.115,0.251-0.006,0.548,0.245,0.664  c0.248,0.116,0.548,0.007,0.663-0.245c0.915-1.984,5.175-4.093,11.266-4.093c5.934,0,10.145,1.527,11.263,4.084  c0.082,0.188,0.266,0.3,0.458,0.3c0.067,0,0.135-0.013,0.2-0.042c0.253-0.11,0.368-0.405,0.258-0.658  c-0.308-0.703-0.796-1.333-1.438-1.889c1.204-1.167,2.821-1.874,4.459-1.936c1.797-0.066,3.467,0.611,4.766,1.912  c1.67,1.668,2.561,4.313,2.27,6.739C72.383,16.061,71.644,18.176,69.197,19.705z"></path><path d="M35.8,29.322l-0.003-1.064c-0.004-0.823-0.678-1.492-1.51-1.492c-0.827,0.007-1.496,0.684-1.49,1.506l0.002,1.057  c0.006,3.269,0.009,5.07,1.571,6.9c0.285,0.335,0.701,0.527,1.142,0.527l0.109-0.004c0.32-0.023,0.619-0.146,0.863-0.354  c0.306-0.261,0.491-0.624,0.522-1.023s-0.095-0.788-0.354-1.092C35.874,33.369,35.805,32.64,35.8,29.322z M35.836,35.636  c-0.082,0.07-0.182,0.111-0.288,0.119l-0.036,0.501v-0.5c-0.146,0-0.285-0.063-0.381-0.175c-1.323-1.551-1.326-3.025-1.332-6.254  l-0.002-1.059c-0.002-0.27,0.227-0.5,0.5-0.502c0.274,0,0.499,0.223,0.5,0.496l0.003,1.063c0.005,3.293,0.056,4.393,1.092,5.606  c0.087,0.102,0.129,0.231,0.118,0.364C35.999,35.428,35.938,35.549,35.836,35.636z"></path><path d="M34.229,25.833c1.083,0,1.965-0.841,1.965-1.875s-0.882-1.875-1.965-1.875s-1.964,0.841-1.964,1.875  S33.146,25.833,34.229,25.833z M34.229,23.083c0.532,0,0.965,0.393,0.965,0.875s-0.433,0.875-0.965,0.875  c-0.531,0-0.964-0.393-0.964-0.875S33.697,23.083,34.229,23.083z"></path><path d="M37.827,81.5c-2.26,0-4.098,2.436-4.098,5.43s1.838,5.43,4.098,5.43s4.098-2.436,4.098-5.43S40.087,81.5,37.827,81.5z   M37.827,91.36c-1.708,0-3.098-1.987-3.098-4.43s1.39-4.43,3.098-4.43s3.098,1.987,3.098,4.43S39.535,91.36,37.827,91.36z"></path><path d="M35.063,79.75c0-1.103-0.79-2-1.762-2s-1.763,0.897-1.763,2s0.791,2,1.763,2S35.063,80.853,35.063,79.75z M33.301,80.75  c-0.413,0-0.763-0.458-0.763-1s0.35-1,0.763-1s0.762,0.458,0.762,1S33.714,80.75,33.301,80.75z"></path><path d="M35.243,77.88c0,1.103,0.791,2,1.763,2s1.762-0.897,1.762-2s-0.79-2-1.762-2S35.243,76.777,35.243,77.88z M37.006,76.88  c0.413,0,0.762,0.458,0.762,1s-0.349,1-0.762,1s-0.763-0.458-0.763-1S36.593,76.88,37.006,76.88z"></path><path d="M40.527,81.38c0.972,0,1.762-0.897,1.762-2s-0.79-2-1.762-2s-1.763,0.897-1.763,2S39.556,81.38,40.527,81.38z M40.527,78.38  c0.413,0,0.762,0.458,0.762,1s-0.349,1-0.762,1s-0.763-0.458-0.763-1S40.114,78.38,40.527,78.38z"></path><path d="M58.759,87.654c0,2.994,1.838,5.43,4.098,5.43s4.098-2.436,4.098-5.43s-1.838-5.43-4.098-5.43S58.759,84.66,58.759,87.654z   M65.954,87.654c0,2.443-1.39,4.43-3.098,4.43s-3.098-1.987-3.098-4.43s1.39-4.43,3.098-4.43S65.954,85.211,65.954,87.654z"></path><path d="M67.383,82.474c0.972,0,1.763-0.897,1.763-2s-0.791-2-1.763-2s-1.762,0.897-1.762,2S66.411,82.474,67.383,82.474z   M67.383,79.474c0.413,0,0.763,0.458,0.763,1s-0.35,1-0.763,1s-0.762-0.458-0.762-1S66.97,79.474,67.383,79.474z"></path><path d="M61.916,78.604c0,1.103,0.79,2,1.762,2s1.763-0.897,1.763-2s-0.791-2-1.763-2S61.916,77.501,61.916,78.604z M64.44,78.604  c0,0.542-0.35,1-0.763,1s-0.762-0.458-0.762-1s0.349-1,0.762-1S64.44,78.062,64.44,78.604z"></path><path d="M60.156,82.104c0.972,0,1.763-0.897,1.763-2s-0.791-2-1.763-2s-1.762,0.897-1.762,2S59.185,82.104,60.156,82.104z   M60.156,79.104c0.413,0,0.763,0.458,0.763,1s-0.35,1-0.763,1s-0.762-0.458-0.762-1S59.743,79.104,60.156,79.104z"></path></svg>