<?xml version="1.0" encoding="utf-8"?>
<!-- Generator: Adobe Illustrator 15.1.0, SVG Export Plug-In . SVG Version: 6.00 Build 0)  -->
<!DOCTYPE svg PUBLIC "-//W3C//DTD SVG 1.1//EN" "http://www.w3.org/Graphics/SVG/1.1/DTD/svg11.dtd">
<svg version="1.1" id="Layer_1" xmlns="http://www.w3.org/2000/svg" xmlns:xlink="http://www.w3.org/1999/xlink" x="0px" y="0px"
	 width="100px" height="75.693px" viewBox="-12.159 5.259 100 75.693" enable-background="new -12.159 5.259 100 75.693"
	 xml:space="preserve">
<path d="M70.53,5.259C76.187,17.578,82.072,30.01,87.841,42.44c-33.183,0-47.167,35.739-82.685,38.512
	c-5.773-12.43-11.542-24.748-17.315-37.181C21.028,43.773,37.343,5.371,70.53,5.259z M9.817,73.852
	c9.435-1.777,17.426-6.438,25.084-12.098c-4.331-1.666-7.546-5.218-9.435-9.214c-2.107-4.661-2.442-9.767-1.777-14.872
	c-7.657,5.55-15.649,10.32-25.191,11.986C2.271,57.758,6.044,65.75,9.817,73.852z M13.371,58.867
	c-0.112-0.333-0.224-0.444-0.224-0.777c-1.223,0.112-2.554,0.112-3.772,0.112c0.111,0.665,0.331,1.33,0.665,1.997
	C11.259,59.753,12.259,59.423,13.371,58.867z M13.701,55.871c-0.888-0.668-1.777-1.444-2.772-2.222c-0.558,0.557-0.777,1-1,1.777
	c1.107,0.444,2.331,0.889,3.331,1.331C13.478,56.536,13.59,56.204,13.701,55.871z M15.032,60.532
	c-0.331-0.111-0.666-0.333-0.773-0.444c-0.777,0.889-1.554,1.666-2.335,2.552c0.558,0.444,1.223,0.889,1.889,1
	C14.255,62.53,14.59,61.53,15.032,60.532z M15.255,51.207c-0.666,0.112-1.331,0.335-1.996,0.557c0.331,0.667,0.442,1,0.777,1.665
	c-0.335-0.665-0.446-0.998-0.777-1.665c0.554,1.109,0.996,2.221,1.554,3.33c0.331-0.223,0.554-0.223,0.889-0.332
	C15.59,53.54,15.366,52.431,15.255,51.207z M17.255,60.421c-0.223,0.111-0.558,0.221-0.889,0.221
	c0.112,1.222,0.331,2.333,0.554,3.554c0.666-0.111,1.331-0.223,1.889-0.556C18.251,62.53,17.809,61.53,17.255,60.421z
	 M19.916,52.319c-0.554-0.444-1.107-0.777-1.666-0.889c-0.442,1.109-0.888,2.219-1.219,3.44c0.219,0.111,0.554,0.332,0.777,0.444
	C18.474,54.317,19.251,53.317,19.916,52.319z M22.247,59.753c-1.219-0.332-2.331-0.665-3.438-1.109
	c-0.111,0.333-0.335,0.668-0.446,0.889c0.889,0.665,1.889,1.442,2.884,2.109C21.582,61.086,21.916,60.421,22.247,59.753z
	 M21.916,54.538c-0.111,0-0.111,0-0.111,0c-1,0.665-2,1.222-3.107,1.777c0,0.109,0,0.109,0,0.109
	c0.219,0.223,0.219,0.556,0.219,0.889c1.335-0.222,2.331-0.444,3.442-0.777C22.247,55.871,22.135,55.203,21.916,54.538z
	 M65.864,12.363c-9.43,1.775-17.533,6.437-25.19,12.209c4.438,1.554,7.546,5.215,9.435,9.102c2.107,4.661,2.549,9.767,1.772,14.873
	c7.661-5.662,15.761-10.323,25.307-11.988C73.302,28.455,69.641,20.355,65.864,12.363z M54.434,25.458
	c-0.665,0.335-1.111,0.556-1.665,1c1.33,2.775,2.441,5.55,3.772,8.325c0.67-0.444,1-0.667,1.777-1
	C57.099,30.897,55.764,28.233,54.434,25.458z M58.207,23.46c-0.665,0.333-1,0.556-1.665,0.889c1.335,2.663,2.665,5.438,3.885,8.213
	c0.665-0.221,1-0.444,1.776-0.777C60.873,28.899,59.542,26.235,58.207,23.46z M62.203,21.797c-0.665,0.221-1,0.442-1.776,0.777
	c1.335,2.663,2.665,5.438,3.884,8.102c0.777-0.221,1.112-0.333,1.777-0.666C64.869,27.345,63.427,24.57,62.203,21.797z"/>
</svg>
