<svg xmlns="http://www.w3.org/2000/svg" xmlns:xlink="http://www.w3.org/1999/xlink" version="1.1" x="0px" y="0px" viewBox="0 0 256 256" style="enable-background:new 0 0 256 256;" xml:space="preserve"><g><path d="M230.6,208.9l-6.3-21.1c-1.9-6.4-7.7-10.8-14-10.8h-42.6c-0.3,0-1.1-0.1-1.3-0.6l-2.9-9.2c-2-6.1-7.6-10.3-14-10.3h-42   c-6.2,0-11.9,4.2-13.9,10.2l-7,20.9c-0.2,0.6-0.8,0.8-1.3,0.8h-42c-6.2,0-12,4.2-13.9,10.3l-3,9.3c-0.9,2.9-0.4,6.1,1.4,8.5   c1.8,2.5,4.5,3.9,7.5,3.9h186.2c3,0,5.7-1.4,7.5-3.8C230.9,214.8,231.4,211.7,230.6,208.9z M222.7,212.5c-0.2,0.2-0.5,0.5-1,0.5   H35.4c-0.5,0-0.9-0.4-1-0.6c-0.1-0.2-0.4-0.7-0.2-1.4l3-9.3c0.9-2.8,3.5-4.8,6.3-4.8h42c4,0,7.6-2.5,8.8-6.3l7-20.9   c0.9-2.8,3.5-4.8,6.3-4.8h42c2.9,0,5.5,1.9,6.3,4.7l2.9,9.2c1.2,3.7,4.7,6.2,8.9,6.2h42.6c2.8,0,5.5,2.1,6.4,5.1l6.3,21.1   c0,0,0,0,0,0C223.1,211.8,222.8,212.3,222.7,212.5z"></path><path d="M101.9,100.7c4,4.4,8.7,8.3,13.9,11.4c3.1,1.9,4.7,5.5,4,9c-0.6,3.4-3.3,6.1-6.7,6.9l-14.3,3.1c-3.6,0.8-6.2,4.1-6.2,7.8   c0,4.4,3.6,8,7.9,8h56.1c4.4,0,7.9-3.6,7.9-8c0-3.7-2.6-7-6.2-7.8l-14.3-3.2c-3.4-0.8-6-3.5-6.7-6.9c-0.7-3.5,1-7.2,4-9l0.4-0.2   c5.1-3.1,9.7-6.9,13.7-11.2c20.2-0.6,36.4-17,36.4-37.3c0-8-6.5-14.4-14.5-14.4h-4.3l0.2-3.4c0.2-2.7-0.8-5.5-2.7-7.5   c-1.9-2-4.5-3.2-7.3-3.2H94.4c-2.7,0-5.3,1.1-7.2,3.1c-1.9,2-2.9,4.7-2.8,7.4l0.2,3.5h-4.2c-8,0-14.5,6.4-14.5,14.4   C65.9,83.5,81.9,99.9,101.9,100.7z M177.4,57c3.6,0,6.6,2.8,6.6,6.4c0,13.5-9.1,24.9-21.6,28.4c5.9-9.1,9.4-19.6,10-30.8l0.2-4   H177.4z M92.9,43.6c0.2-0.2,0.7-0.6,1.5-0.6h68.9c0.8,0,1.3,0.3,1.5,0.6c0.2,0.2,0.6,0.7,0.6,1.5l-0.9,15.3   c-1.1,18.4-10.8,35.2-26.5,44.8l0,0.2v0c-6,3.6-9.3,10.5-8,17.2c1.2,6.5,6,11.7,12.6,13.1l14.2,3.2l-0.1,0.1h-56.1l0-0.1l14.3-3.1   c6.5-1.4,11.5-6.6,12.7-13.1c1.3-6.7-1.8-13.6-7.7-17.2C103.9,95.6,93.8,78.7,93,60l-0.7-14.9C92.3,44.3,92.6,43.8,92.9,43.6z    M80.3,57h4.6l0.2,3.5c0.5,11.3,4,22,9.8,31.2c-12.2-3.6-21.2-14.8-21.2-28.2C73.7,59.8,76.7,57,80.3,57z"></path><path d="M117.7,76.2l-1.7,11c-0.1,0.7,0.2,1.5,0.8,1.9c0.6,0.4,1.4,0.5,2,0.2l10-5l10,5c0.3,0.1,0.6,0.2,0.9,0.2   c0.4,0,0.8-0.1,1.2-0.4c0.6-0.4,0.9-1.2,0.8-1.9l-1.7-11l7.8-7.9c0.5-0.5,0.7-1.3,0.5-2c-0.2-0.7-0.8-1.2-1.6-1.3l-11-1.8l-5.1-9.9   c-0.3-0.7-1-1.1-1.7-1.1s-1.4,0.4-1.7,1.1l-5.1,9.9l-11,1.8c-0.7,0.1-1.3,0.6-1.6,1.3c-0.2,0.7,0,1.5,0.5,2L117.7,76.2z    M123.6,66.8c0.6-0.1,1.1-0.5,1.4-1l3.8-7.4l3.8,7.4c0.3,0.6,0.8,0.9,1.4,1l8.2,1.4l-5.8,5.9c-0.4,0.4-0.6,1.1-0.5,1.7l1.2,8.2   l-7.4-3.7c-0.3-0.1-0.6-0.2-0.9-0.2s-0.6,0.1-0.9,0.2l-7.4,3.7l1.2-8.2c0.1-0.6-0.1-1.2-0.5-1.7l-5.8-5.9L123.6,66.8z"></path></g></svg>