<svg xmlns="http://www.w3.org/2000/svg" xmlns:xlink="http://www.w3.org/1999/xlink" version="1.1" x="0px" y="0px" viewBox="0 0 100 100" enable-background="new 0 0 100 100" xml:space="preserve"><g><g><g><path d="M60.94,50c0,6.04-4.9,10.94-10.94,10.94S39.06,56.04,39.06,50h1.56c0,5.18,4.2,9.38,9.38,9.38c5.18,0,9.38-4.2,9.38-9.38     H60.94z"></path><path d="M56.25,50c0-3.45-2.8-6.25-6.25-6.25s-6.25,2.8-6.25,6.25s2.8,6.25,6.25,6.25S56.25,53.45,56.25,50z M50,42.19     c4.31,0,7.81,3.5,7.81,7.81c0,4.31-3.5,7.81-7.81,7.81c-4.31,0-7.81-3.5-7.81-7.81C42.19,45.69,45.69,42.19,50,42.19z"></path><polygon points="35.42,26.56 35.42,73.44 35.42,75 6.25,75 6.25,25 64.58,25 64.58,26.56    "></polygon><polygon points="93.75,25 93.75,75 35.42,75 35.42,73.44 64.58,73.44 64.58,26.56 64.58,25    "></polygon></g></g></g></svg>