<svg xmlns="http://www.w3.org/2000/svg" xmlns:xlink="http://www.w3.org/1999/xlink" version="1.1" id="Layer_1" x="0px" y="0px" width="100px" height="100px" viewBox="0 0 100 100" enable-background="new 0 0 100 100" xml:space="preserve">
<path d="M9.951,53.267c-7.449-0.436-8.909-5.987-9.056-11.83c-0.292-7.595,4.821-13.145,11.247-12.708  c6.865,0.439,8.472,5.113,8.472,9.494C20.321,47.572,15.792,53.706,9.951,53.267z M19.006,76.199  c-2.629-17.673,3.944-28.482,20.74-33.739c12.269-3.799,24.537-4.382,36.806,0.291c9.058,3.506,14.461,10.08,15.63,19.865  C93.351,72.84,90.72,82.04,80.935,86.568c-10.226,4.966-21.324,8.179-32.133,12.123c-0.292-0.729-0.584-1.462-0.876-2.191  C30.836,96.647,21.051,89.636,19.006,76.199z M33.32,39.539c-7.158-0.146-13.438-8.909-13.291-18.404  c0-7.449,3.65-11.538,10.807-11.684c9.055-0.292,13.729,5.403,13.876,16.65C44.712,34.134,40.039,39.685,33.32,39.539z   M60.341,1.563c8.764,0,14.605,6.135,14.896,15.628c0.147,9.202-5.841,16.651-13.728,16.796  c-8.472,0.146-15.775-8.763-15.921-19.133C45.589,6.822,51.284,1.563,60.341,1.563z M87.801,42.898  c-6.574-0.147-12.124-6.865-12.124-14.459c0.147-7.449,5.11-12.562,12.561-12.562c7.157-0.146,10.954,4.381,10.954,12.562  C99.045,37.347,94.52,43.19,87.801,42.898z"/>
</svg>
