<svg fill="#000000" xmlns="http://www.w3.org/2000/svg" data-name="Layer 1" viewBox="0 0 100 100" x="0px" y="0px"><title>icons_animals_7</title><path d="M9.67,62.38a6.8,6.8,0,0,0,1.3-5.1c2.86-7.93,6.17-9.34,7.76-9.52a25.54,25.54,0,0,0-.59,7c.33,7.31-1.83,11.7-4,13.38a3.26,3.26,0,0,1-2.87.76l-.39-.11-.36.19C7.19,70.84,8.65,89.79,9.44,97.85l.09.9h9.75l-.37-1.28c-1-3.3-.24-9.47.45-15.44.26-2.24.53-4.54.72-6.72a21.92,21.92,0,0,0,5.22-.42C27.51,83.11,36.55,97.64,37,98.28l.29.47H47.6L45.89,97c-2.62-2.62-5.9-13.17-8-21.81,6.25-1.86,8.11-8.13,8.63-10.71a47.25,47.25,0,0,0,5.15.9,73.79,73.79,0,0,0,12.13.4c-1.71,5.43-7.63,24.84-6.88,32l.09.9h7.8l.14-.83c0-.15,2.45-14.29,9.07-24.16a211.9,211.9,0,0,1,4.7,24.12l.11.87h8.82l0-1C87.46,94.33,86.2,65.36,82,58.59c7-12.18,4.39-25.17,2.52-31.21,2.47,2.08,4.88,4.38,5.14,5.36a2.15,2.15,0,0,0,1.76,1.62c2.17.39,5.63-1.8,7.17-4S95.38,20.51,91,14.29c.75-2.44,1.91-5.8,2.46-6.48l.77-1L93.1,6.29a20.77,20.77,0,0,0-4.91-1c.11-.79.26-1.69.47-2.7L89,1.15l-1.41.2a6.54,6.54,0,0,0-5.19,3.8c-3.21.29-10.94,3.59-18.16,11.31-6.84,7.31-6.7,20.18-6.52,23.8-7.06.93-17.49-.58-21.95-1.49-5.51-1.29-9.86-.65-12.94,1.9a11.82,11.82,0,0,0-3.44,5.06,6.06,6.06,0,0,0-3.21.76c-2.71,1.43-5,4.65-6.86,9.59a6.33,6.33,0,0,0-4.62,1.45C2,59.73,1.08,63.74,1.08,65.91v1.15l1.14-.16A12.45,12.45,0,0,0,9.67,62.38ZM36.47,73.53l-1,.21.24,1c1,4.08,4.15,16.59,7.49,22H38.36c-1.59-2.59-9.21-15.24-11.13-22.37a18.39,18.39,0,0,0,7-4.07,17.11,17.11,0,0,0,5.16-8.76A16.51,16.51,0,0,0,44.58,64C44.18,66.18,42.53,72.27,36.47,73.53ZM63.12,96.75H58.84c-.19-7.83,5.91-27.37,7.09-31.09a22.34,22.34,0,0,0,4.86-.86,42.12,42.12,0,0,1,2.5,6.51C66.63,80.32,63.78,93.32,63.12,96.75Zm28.07-89a44.94,44.94,0,0,0-1.67,4.49l-1.41-1.91A10.75,10.75,0,0,1,88,7.23C89.07,7.37,90.31,7.56,91.19,7.76Zm-4.78-4c-.91,5.31-.22,7.25-.13,7.46l.13.22c5.53,7.37,11.07,16.31,10.52,17.83-1.29,1.8-4.09,3.34-5.18,3.15-.14,0-.16-.05-.18-.16-.66-2.51-7.3-7.65-8.62-8.65l-3.12-2.37,1.6,3.57a37.89,37.89,0,0,1,1.88,5.94L70.72,20.29c2.8-4.09,6.68-7.48,11.84-8.5l.89-.18-.09-.9C83.33,10.47,82.89,5.32,86.41,3.73ZM69.64,22,75,26.41,68.45,24.2Q69,23.09,69.64,22Zm-4-4.16c6.29-6.72,12.91-9.84,16-10.55a12.12,12.12,0,0,0-.3,2.73C66.92,13.58,62.51,33,62.9,38.68a10.26,10.26,0,0,1-3.23,1.24C59.52,36.24,59.56,24.35,65.65,17.83ZM64.31,42.67l-1.24-1.81.41-.22Zm1.24-10.33,4.09,3-4.37-1.66Q65.4,33,65.56,32.34ZM58.3,42.19l-.92,6.34-1.59-6.08C56.65,42.4,57.49,42.31,58.3,42.19Zm-8.58.31-1.11,5.19-.7-5.29Zm-12-1.34,2,.32-2,5Zm-7.67-1-1.28,5.54-.56-5.32A12.39,12.39,0,0,1,30,40.16Zm-5.94,2.06a8.4,8.4,0,0,1,2.15-1.29L28,57.79,32,40.21a22.74,22.74,0,0,1,3.25.53l.37.07V57l6-15.18c1.28.17,2.68.33,4.15.47l2.27,17.18,3.61-16.86c.67,0,1.33,0,2,0l4.2,16,2.43-16.79.77-.21L73.29,59.36,64.93,38.89a12.74,12.74,0,0,1,0-3.22L83,42.5,66.1,30.26A38.66,38.66,0,0,1,67.61,26L83.45,31.4c1.46,6.59,2.27,17.09-3.52,26.72l-.37.61.46.55c3.37,4,5.09,27.47,5.54,37.47h-5c-.64-4.6-3.73-25.47-8.48-33.76l-.62-1-.91.75c-1,.84-10.59,1.87-19.85.54-5.84-.84-9.83-2.43-11.23-4.47l-1.83-2.67v3.23c0,2.51-1.47,6.42-4.77,9.49-2.46,2.29-6.82,4.91-13.65,4.41l-1-.07-.07,1c-.18,2.41-.49,5.05-.79,7.61-.67,5.75-1.31,11.22-.68,15H11.34c-1-11.25-1.31-23.7,0-25.76a5.33,5.33,0,0,0,4.09-1.23c3.26-2.56,5-8.19,4.72-15C19.89,48.88,21.25,44.56,24.07,42.22ZM5.94,59.09a4.22,4.22,0,0,1,2.79-1H9a4.92,4.92,0,0,1-1,3.13A10.47,10.47,0,0,1,3.2,64.6,9.43,9.43,0,0,1,5.94,59.09Z"/></svg>