<svg xmlns="http://www.w3.org/2000/svg" xmlns:xlink="http://www.w3.org/1999/xlink" version="1.1" id="Layer_1" x="0px" y="0px" width="100px" height="100px" viewBox="0 0 100 100" enable-background="new 0 0 100 100" xml:space="preserve">
<g>
	<path fill="#000000" d="M45.609,47.192c1.09,0.518,1.867-1.117,0.775-1.634c-1.88-0.894-4.074-1.238-6.376-0.831   c-1.53,0.268-2.927,0.839-4.123,1.625c-1.007,0.663-0.011,2.178,0.998,1.514c0.987-0.654,2.152-1.128,3.439-1.356   C42.253,46.17,44.064,46.458,45.609,47.192z M45.902,58.657c-0.444,0.484,0.283,1.15,0.728,0.664   c0.247-0.18,0.467-0.125,0.722,0.062c0.051,0.039,0.103,0.076,0.17,0.121c0.582,0.443,1.051,0.9,1.861,0.898   c0.812,0.002,1.271-0.455,1.854-0.898c0.029-0.021,0.056-0.045,0.078-0.07l0.069-0.051c0.216-0.162,0.466-0.247,0.722-0.062   c0.443,0.486,1.172-0.18,0.728-0.664c-0.521-0.596-1.438-0.512-2.04-0.062c-0.255,0.192-0.547,0.328-1.436,0.328   c-0.883,0-1.16-0.136-1.416-0.328c-0.576-0.433-1.285-0.515-1.864-0.089C45.963,58.591,45.902,58.657,45.902,58.657z    M30.117,50.886c-0.638,0.158-0.401,1.113,0.235,0.956c0.442-0.109,1.258,0.407,1.894,1.575c-0.16,0.197-0.206,0.535-0.098,0.914   c0.169,0.59,0.65,1.078,1.072,1.043c0.926-0.069,0.336-1.442,0.279-1.576C32.816,52.065,31.482,50.549,30.117,50.886z    M57.133,49.108c-1.836,0-3.514,0.86-4.124,2.213c-0.284,0.629,0.659,1.051,0.943,0.426c0.313-0.691,1.157-1.306,2.296-1.521   c-0.393,0.259-0.648,0.706-0.648,1.21c0,0.805,0.649,1.455,1.452,1.455c0.804,0,1.453-0.652,1.453-1.455   c0-0.527-0.284-0.992-0.707-1.247c1.231,0.175,2.124,0.817,2.459,1.558c0.285,0.625,1.229,0.203,0.944-0.426   C60.593,49.976,58.979,49.108,57.133,49.108z M40.173,51.437c0,0.805,0.651,1.455,1.454,1.455c0.802,0,1.453-0.652,1.453-1.455   c0-0.504-0.26-0.951-0.65-1.21c1.138,0.215,1.982,0.828,2.297,1.521c0.283,0.625,1.228,0.203,0.941-0.426   c-0.609-1.353-2.287-2.213-4.123-2.213c-1.843,0-3.459,0.867-4.067,2.213c-0.283,0.629,0.66,1.051,0.943,0.426   c0.334-0.739,1.231-1.383,2.459-1.558C40.457,50.442,40.173,50.907,40.173,51.437z M56.378,61.05   c-0.498,0.138-0.29,0.886,0.208,0.746c0.578-0.161,1.207,0.574,1.266,1.107c0.055,0.514,0.827,0.43,0.771-0.087   C58.514,61.819,57.443,60.751,56.378,61.05z M62.791,46.353c-1.195-0.787-2.594-1.357-4.123-1.625   c-2.303-0.407-4.494-0.062-6.376,0.831c-1.09,0.517-0.313,2.153,0.776,1.634c1.547-0.733,3.356-1.021,5.285-0.683   c1.287,0.229,2.451,0.702,3.44,1.356C62.802,48.53,63.798,47.017,62.791,46.353z M68.706,50.886   c-1.363-0.339-2.697,1.18-3.384,2.912c-0.055,0.132-0.646,1.507,0.281,1.576c0.42,0.035,0.901-0.453,1.07-1.043   c0.107-0.379,0.062-0.719-0.096-0.914c0.635-1.168,1.449-1.686,1.892-1.575C69.109,51.999,69.344,51.044,68.706,50.886z    M42.287,61.05c-1.065-0.299-2.136,0.77-2.245,1.768c-0.055,0.516,0.716,0.598,0.771,0.086c0.058-0.531,0.688-1.269,1.265-1.106   C42.577,61.936,42.785,61.188,42.287,61.05z M56.209,62.7c-1.268,0.51-12.4,0.51-13.667,0c-0.608-0.242-0.977,0.67-0.366,0.916   c0.071,0.029,0.169,0.057,0.319,0.104c0.415,0.226,0.896,0.446,1.259,0.782c2.061,1.908,1.98,3.281,5.621,3.281   c1.773,0,2.73-0.351,3.501-1.013c1.388-1.194,1.38-1.928,3.265-2.989l0.041-0.022l0.038-0.021l0.036-0.02l0.032-0.021   c0.118-0.024,0.214-0.052,0.286-0.082C57.186,63.37,56.818,62.456,56.209,62.7z M53.431,64.643   c-1.122,1.104-1.468,1.383-4.055,1.383c-1.668,0-2.599,0.015-3.771-1.104c-0.41-0.393-0.733-0.707-1.058-0.984   c2.668,0.172,6.849,0.178,9.554,0.008C53.838,64.176,53.621,64.411,53.431,64.643z M49.912,70.823h-1.066   c-0.656,0-0.656,0.983,0,0.983h1.066C50.568,71.807,50.568,70.823,49.912,70.823z M70.74,45.241   c-1.26,0.171-2.982,1.972-4.441,3.868c0.169-2.191,1.686-3.602,1.686-6.269c0-2.315,0.024-4.473-0.188-6.546   c-0.019-0.254-0.067-0.886-0.196-1.47l-0.019-0.081c-0.041-0.175-0.091-0.346-0.147-0.498c-1.023-3.182-3.632-6.686-5.117-9.484   l-1.672-3.144c0.264-0.288,0.541-0.605,0.83-0.935c1.26-1.431,1.969-2.21,1.426-2.872l0.043-0.045   c1.278-1.456,1.99-2.24,1.395-2.908c1.331-2.492,2.094-4.306,1.201-4.8c-1.071-0.595-4.893,3.976-7.031,7.542L51.011,3.496   c-0.618-1.163-2.463-1.153-3.077,0L36.629,24.763c-1.742,3.279-4.593,7.056-5.367,10.682l-0.077,1.006l-0.004,0.037l-0.003,0.036   l-0.003,0.035l-0.002,0.035c-0.178,1.988-0.222,4.081-0.222,6.248c0,2.661,1.508,4.072,1.683,6.256   c-1.001-1.267-2.106-2.432-3.124-3.179C28.258,45,26.84,44.8,26.673,47.045c-0.251,3.321,3.25,13.168,7.391,12.538   c0.704,5.222,2.65,8.584,5.223,10.674l0.394,1.596c-1.474-0.07-2.229,1.652-2.55,2.871c-0.104,0.387-0.206,0.752-0.316,1.096   c-0.699,2.195-1.617,3.582-3.643,5.125c-2.191,1.666-1.962,3.416-1.659,5.637c0.601,4.369,2.938,12.138,9.14,8.623   c3.903-2.211,7.083-7.263,8.628-11.649c1.545,4.388,4.726,9.438,8.63,11.649c6.198,3.513,8.538-4.254,9.137-8.623   c0.306-2.221,0.533-3.971-1.655-5.637c-2.027-1.543-2.945-2.93-3.645-5.125v-0.002c-0.11-0.342-0.215-0.707-0.316-1.094   c-0.303-1.15-0.994-2.752-2.312-2.867l0.408-1.658c2.552-2.104,4.478-5.478,5.172-10.678c3.943,0.812,6.635-6.96,7.283-9.861   C72.205,48.64,72.845,44.955,70.74,45.241z M48.802,3.958c0.245-0.461,1.091-0.463,1.339,0l7.264,13.669   c-1.881-1.175-5.104-1.989-8.248-1.999c-3.105-0.008-5.701,0.581-7.531,1.832L48.802,3.958z M37.464,25.289   c3.073-2.045,7.192-3.354,11.923-3.354c4.863,0,9.085,1.386,12.186,3.527c1.226,2.246,3.018,4.766,4.156,7.016   c-6.545-4.232-25.806-4.867-32.078-0.451C34.858,29.426,36.122,27.799,37.464,25.289z M31.936,42.84c0-2.531,0.061-4.97,0.326-7.24   c1.432-7.875,32.465-6.544,34.355-0.593l0.021,0.062c0.399,2.448,0.357,4.993,0.357,7.771c0,1.964-0.952,3.181-1.447,4.922   c-0.104-0.519-0.257-1.011-0.436-1.503c-0.99-2.767-1.512-4.167-1.17-7.25c0.658-6.023-3.629-3.778-6.916-2.871   c-1.496,0.413-3.244,0.829-5.224,1.02c-1.72,0.165-3.021,0.527-4.022,1.025c0.221-0.234,0.463-0.468,0.729-0.695   c0.498-0.428-0.143-1.175-0.643-0.747c-0.578,0.497-1.081,1.033-1.484,1.593c-1.061,0.341-2.041,0.769-2.912,1.273   c0.356-0.482,0.76-0.954,1.208-1.409c0.448-0.454,0.083-1.024-0.517-0.809c-2.544,0.917-4.708,2.121-6.291,3.604   c0.733-1.571,1.879-3.211,3.298-4.632c0.444-0.445,0.111-1.001-0.491-0.821c-2.589,0.784-4.837,1.95-6.508,3.392   c0.45-0.823,1.03-1.647,1.729-2.454c0.431-0.496-0.312-1.142-0.744-0.644c-1.47,1.695-2.483,3.513-2.899,5.301   c-0.146,0.636,0.523,0.927,0.889,0.388c0.485-0.72,1.124-1.404,1.894-2.033c0.129,1.592-0.003,2.808-0.237,3.821   c-0.352,1.526-1.112,2.915-1.415,4.448C32.889,46.021,31.936,44.804,31.936,42.84z M60.477,74.977   c0.075,0.29,0.154,0.571,0.235,0.841h0.001c0.764,2.529,1.771,4.153,4.078,5.909c1.708,1.299,1.582,2.499,1.275,4.722   c-0.496,3.625-2.31,10.939-7.676,7.897c-4.043-2.291-7.393-8.021-8.64-12.567c-0.162-0.595-0.786-0.595-0.949,0   c-1.247,4.549-4.597,10.276-8.64,12.567c-5.367,3.042-7.179-4.271-7.677-7.897c-0.305-2.223-0.429-3.423,1.277-4.722   c2.308-1.758,3.316-3.38,4.078-5.909v-0.002c0.082-0.268,0.161-0.551,0.237-0.839c0.195-0.737,0.733-2.409,1.812-2.095l0.042,0.013   c0.196,0.797,0.411,1.654,0.655,2.595c0.007,0.021,0.042,0.14,0.122,0.33h0.001c0.461,1.084,2.4,4.432,8.706,4.432   c6.307,0,8.217-3.346,8.668-4.432c0.081-0.19,0.114-0.312,0.121-0.332c0.247-0.961,0.465-1.834,0.665-2.641   C59.812,72.786,60.294,74.286,60.477,74.977z M40.516,71.129c1.56,0.972,3.291,1.56,5.081,1.874   c0.242,0.041,0.402,0.104,0.554,0.184c1.182,0.598,1.789,0.727,3.227,0.727c1.421,0,2.126-0.18,2.645-0.416   c0.403-0.188,0.682-0.412,1.135-0.493c1.811-0.318,3.562-0.919,5.136-1.915c-0.302,1.221-0.63,2.564-1.038,4.148   c-0.061,0.201-0.139,0.396-0.225,0.58h-0.002c-1.254,2.596-5.129,3.45-7.608,3.45c-2.808,0-6.146-0.793-7.612-3.448   c-0.002-0.002-0.004-0.006-0.006-0.009c-0.193-0.351-0.261-0.583-0.261-0.583C41.136,73.663,40.813,72.337,40.516,71.129z    M64.602,58.475l-0.147-0.022c-0.286-0.004-0.634,0.078-0.675,0.436c-1.031,8.959-5.684,12.247-10.795,13.145   c-1.578,0.276-1.057,0.896-3.608,0.896s-2.03-0.618-3.608-0.896c-5.114-0.898-9.763-4.154-10.796-13.111   c-0.038-0.336-0.322-0.516-0.642-0.411c-3.326,1.081-5.889-6.681-6.415-9.031c-0.1-0.452-0.631-2.979,0.142-3.229   c0.043,0.006,0.106,0.022,0.194,0.059c1.637,0.671,4.039,3.822,5.402,5.985c0.052,0.111,0.103,0.213,0.152,0.312   c0.352,0.694,0.651,1.122,0.727,1.228c0.031,0.048,0.067,0.089,0.105,0.121c0.412,0.379,1.016-0.03,0.754-0.603   c-1.599-3.427-1.255-5.055-0.645-6.76c1.042-2.911,1.581-4.442,1.225-7.689c-0.004-0.033-0.008-0.065-0.013-0.099   c0.935-0.634,2.014-1.205,3.212-1.688c-1.598,1.976-2.728,4.195-3.068,6.133c-0.115,0.642,0.569,0.899,0.906,0.338   c1.081-1.795,3.026-3.321,5.636-4.516c-0.518,0.708-0.947,1.441-1.296,2.182c-0.275,0.591,0.319,1.017,0.789,0.563   c0.886-0.854,2.08-1.591,3.499-2.165c-0.073,0.182-0.137,0.362-0.188,0.542c-0.18,0.626,0.474,0.955,0.867,0.433   c0.857-1.136,2.338-2.175,5.586-2.485c2.045-0.197,3.848-0.625,5.392-1.052c1.506-0.416,2.759-0.833,3.739-1.023   c1.543-0.301,2.266-0.196,1.934,2.836c-0.215,1.942-0.074,3.411,0.209,4.634c0.955,4.128,2.646,4.749,0.52,9.497   c-0.058,0.104-0.104,0.196-0.146,0.279c-0.031,0.067-0.051,0.133-0.055,0.195c-0.107,0.525,0.525,0.842,0.894,0.349   c0.015-0.019,0.524-0.7,1.043-1.88c0.796-1.259,1.763-2.51,2.695-3.531c0.442-0.485,1.989-2.121,2.786-2.229   c0.131,0.042,0.32,0.223,0.369,0.872C71.486,49.866,68.189,59.644,64.602,58.475z"/>
</g>
</svg>
