<svg xmlns="http://www.w3.org/2000/svg" xmlns:xlink="http://www.w3.org/1999/xlink" version="1.1" x="0px" y="0px" viewBox="0 0 30 30" xml:space="preserve"><g transform="translate(-330 -80)"><g xmlns="http://www.w3.org/2000/svg" xmlns:xlink="http://www.w3.org/1999/xlink"><rect x="337" y="80" width="3" height="7"></rect><g><path d="M339,97v-9h-1v9h-3v11h7V97H339z M337,106h-1v-7h1V106z M339,106h-1v-7h1V106z M341,106h-1v-7h1V106z"></path></g><rect x="349" y="80" width="3" height="7"></rect><path d="M351,97.025V88h-1v9.025c-2.803,0.253-5,2.605-5,5.475c0,3.037,2.463,5.5,5.5,5.5c3.037,0,5.5-2.463,5.5-5.5    C356,99.631,353.803,97.278,351,97.025z"></path></g></g></svg>