<svg xmlns="http://www.w3.org/2000/svg" xmlns:xlink="http://www.w3.org/1999/xlink" version="1.1" x="0px" y="0px" viewBox="0 0 100 100" style="enable-background:new 0 0 100 100;" xml:space="preserve"><style type="text/css">
	.st0{clip-path:url(#b);}
</style><g><defs><rect id="a" width="100" height="100"></rect></defs><clipPath id="b"><use xlink:href="#a" style="" overflow="visible"></use></clipPath><g class="st0"><path d="M52,16.3C33.5,15.2,17.4,29.4,16.3,48C15.2,66.6,29.4,82.6,48,83.7c0.7,0,1.4,0.1,2,0.1c17.7,0,32.6-13.8,33.7-31.7    C84.8,33.4,70.6,17.4,52,16.3z M77.7,51.7c-0.9,15.3-14.1,26.9-29.4,26c-15.3-0.9-27-14.1-26-29.4C23.2,33.6,35.4,22.2,50,22.2    c0.6,0,1.1,0,1.7,0.1C66.9,23.2,78.6,36.4,77.7,51.7z"></path><polygon points="47,53 33.1,53 33.1,47 47,47 53,47 66.9,47 66.9,53 53,53   "></polygon></g></g></svg>