<svg fill="#000000" xmlns="http://www.w3.org/2000/svg" xmlns:xlink="http://www.w3.org/1999/xlink" version="1.1" x="0px" y="0px" viewBox="0 0 100 100" enable-background="new 0 0 100 100" xml:space="preserve"><g><path d="M51.875,47.321l10.02-25.135c0.236-0.58-0.057-1.242-0.632-1.469c-0.575-0.237-1.243,0.046-1.471,0.63l-9.147,22.911   L51.875,47.321z"/></g><g><path d="M48.826,48.84l-12.13,30.418c-0.237,0.586,0.046,1.244,0.63,1.48c0.585,0.237,1.234-0.051,1.481-0.635l11.239-28.197   L48.826,48.84z"/></g><path d="M73.783,46.176l1.222-3.055c-0.66,0.01-1.31,0.056-1.959,0.131c-0.729,0.064-1.462,0.099-2.195,0.089l-1.216,3.053  c-1.31-0.009-2.617-0.143-3.898-0.398l1.216-3.055c-1.238-0.25-2.459-0.598-3.639-1.062l-1.215,3.053  c-1.179-0.46-2.307-1.021-3.397-1.68l1.222-3.054c-1.105-0.682-2.155-1.471-3.119-2.34l1.22-3.053  c0.956,0.868,2.015,1.648,3.119,2.329l1.216-3.053c-1.105-0.683-2.163-1.462-3.119-2.339l1.217-3.054  c0.96,0.877,2.014,1.657,3.117,2.34l1.222-3.055c-1.105-0.682-2.158-1.462-3.119-2.338l1.221-3.055  c0.956,0.878,2.015,1.656,3.118,2.34l-1.22,3.053c1.081,0.66,2.218,1.23,3.392,1.688l1.222-3.058  c1.178,0.46,2.394,0.817,3.638,1.063l-1.221,3.054c1.285,0.25,2.585,0.389,3.898,0.403l1.221-3.054  c0.729,0.01,1.461-0.023,2.194-0.088c0.649-0.079,1.299-0.121,1.948-0.14l-1.21,3.062c1.312-0.022,2.631,0.088,3.922,0.334  l1.215-3.053c1.244,0.236,2.464,0.59,3.638,1.072l-1.215,3.053c1.169,0.479,2.292,1.072,3.354,1.764l1.216-3.054  c1.104,0.729,2.131,1.564,3.063,2.496l-1.222,3.055c-0.932-0.933-1.953-1.769-3.058-2.497l-1.22,3.055  c1.104,0.727,2.13,1.562,3.062,2.506l-1.217,3.053c-0.937-0.942-1.957-1.776-3.062-2.502l-1.22,3.055  c1.104,0.724,2.14,1.559,3.062,2.5l-1.221,3.055c-0.924-0.933-1.953-1.778-3.058-2.501l-1.221,3.053  c-1.062-0.696-2.181-1.29-3.351-1.759l1.216-3.054c-1.178-0.482-2.385-0.839-3.638-1.076l-1.217,3.053  C76.415,46.264,75.102,46.152,73.783,46.176z M64.535,38.825c-1.179-0.461-2.307-1.021-3.393-1.69l-1.22,3.063  c1.09,0.658,2.217,1.221,3.391,1.681L64.535,38.825z M66.972,32.718c-1.18-0.459-2.315-1.021-3.398-1.688l-1.215,3.053  c1.086,0.668,2.218,1.229,3.396,1.688L66.972,32.718z M71.825,30.723c-1.239-0.247-2.459-0.604-3.639-1.06l-1.215,3.055  c1.178,0.454,2.395,0.812,3.638,1.058L71.825,30.723z M79.877,30.907c-0.659,0.01-1.309,0.052-1.959,0.13  c-0.729,0.064-1.462,0.098-2.194,0.089l-1.216,3.054c0.732,0.009,1.461-0.023,2.19-0.088c0.649-0.08,1.3-0.121,1.957-0.13  L79.877,30.907z M87.437,32.313c-1.179-0.473-2.396-0.836-3.638-1.072l-1.217,3.055c1.248,0.237,2.459,0.598,3.639,1.071  L87.437,32.313z M89.571,37.132c-1.062-0.693-2.181-1.286-3.351-1.765L85,38.421c1.169,0.478,2.287,1.071,3.354,1.768L89.571,37.132  z M87.135,43.243c-1.062-0.696-2.186-1.291-3.355-1.769l-1.216,3.062c1.169,0.469,2.293,1.063,3.355,1.76L87.135,43.243z   M80.141,40.407c-1.289-0.251-2.604-0.362-3.921-0.339l-1.215,3.053c1.312-0.022,2.63,0.09,3.921,0.34L80.141,40.407z M85,38.421  c-1.179-0.474-2.39-0.831-3.638-1.072l-1.222,3.059c1.253,0.236,2.465,0.594,3.639,1.067L85,38.421z M82.582,34.296  c-1.295-0.246-2.608-0.358-3.927-0.334l-1.215,3.054c1.313-0.023,2.631,0.088,3.922,0.333L82.582,34.296z M77.44,37.016  c-0.659,0.009-1.309,0.051-1.959,0.129c-0.732,0.065-1.462,0.098-2.19,0.088l-1.22,3.054c0.729,0.009,1.462-0.022,2.194-0.088  c0.649-0.074,1.3-0.12,1.954-0.13L77.44,37.016z M72.071,40.286c-1.313-0.014-2.612-0.144-3.898-0.398l-1.221,3.053  c1.286,0.255,2.595,0.386,3.898,0.4L72.071,40.286z M74.508,34.18c-1.318-0.014-2.617-0.153-3.898-0.404l-1.216,3.055  c1.28,0.259,2.58,0.39,3.897,0.402L74.508,34.18z M69.394,36.83c-1.244-0.247-2.464-0.596-3.639-1.06l-1.22,3.055  c1.179,0.465,2.395,0.812,3.638,1.062L69.394,36.83z"/><g><path d="M38.808,22.187c-0.247-0.58,0.05-1.242,0.635-1.469c0.575-0.237,1.234,0.046,1.467,0.63l23.097,57.91   c0.236,0.586-0.056,1.244-0.641,1.48c-0.575,0.237-1.234-0.051-1.471-0.635L38.808,22.187z"/></g><path d="M22.987,46.514l-1.216-3.053c-1.244,0.237-2.454,0.594-3.634,1.076l1.221,3.054c-1.179,0.469-2.302,1.062-3.356,1.759  l-1.22-3.053c-1.104,0.723-2.135,1.568-3.067,2.501l-1.22-3.055c0.937-0.941,1.967-1.776,3.071-2.5l-1.215-3.055  c-1.105,0.726-2.141,1.56-3.073,2.502l-1.215-3.053c0.932-0.943,1.963-1.779,3.066-2.506l-1.22-3.055  c-1.104,0.729-2.135,1.564-3.068,2.497l-1.22-3.055c0.937-0.932,1.968-1.768,3.071-2.496l1.217,3.054  c1.058-0.691,2.181-1.284,3.354-1.764l-1.216-3.053c1.174-0.482,2.386-0.836,3.629-1.072l1.221,3.053  c1.3-0.246,2.613-0.356,3.927-0.334l-1.217-3.062c0.65,0.019,1.3,0.061,1.949,0.14c0.733,0.064,1.462,0.098,2.191,0.088l1.22,3.054  c1.312-0.015,2.612-0.153,3.898-0.403l-1.221-3.054c1.253-0.246,2.469-0.604,3.639-1.063l1.22,3.058  c1.184-0.458,2.315-1.028,3.393-1.688l-1.217-3.053c1.114-0.684,2.163-1.462,3.129-2.34l1.216,3.055  c-0.966,0.876-2.015,1.656-3.128,2.338l1.22,3.055c1.114-0.683,2.158-1.463,3.129-2.34l1.215,3.054  c-0.965,0.877-2.019,1.656-3.122,2.339l1.215,3.053c1.105-0.681,2.163-1.461,3.129-2.329l1.215,3.053  c-0.965,0.869-2.023,1.658-3.127,2.34l1.22,3.054c-1.081,0.659-2.208,1.22-3.392,1.68l-1.221-3.053  c-1.17,0.464-2.391,0.812-3.639,1.062l1.221,3.055c-1.285,0.256-2.585,0.39-3.898,0.398l-1.22-3.053  c-0.729,0.01-1.462-0.024-2.195-0.089c-0.649-0.075-1.3-0.121-1.948-0.131l1.22,3.055C25.604,46.152,24.286,46.264,22.987,46.514z   M37.378,41.879c1.183-0.46,2.315-1.022,3.393-1.681l-1.217-3.063c-1.081,0.669-2.208,1.229-3.396,1.69L37.378,41.879z   M34.941,35.771c1.188-0.459,2.315-1.021,3.397-1.688l-1.222-3.053c-1.081,0.668-2.208,1.229-3.392,1.688L34.941,35.771z   M30.087,33.775c1.249-0.246,2.469-0.604,3.639-1.058l-1.221-3.055c-1.169,0.456-2.39,0.812-3.638,1.06L30.087,33.775z   M22.045,33.962c0.649,0.009,1.3,0.05,1.949,0.13c0.729,0.064,1.462,0.097,2.194,0.088l-1.22-3.054  c-0.729,0.009-1.462-0.024-2.194-0.089c-0.65-0.078-1.3-0.12-1.949-0.13L22.045,33.962z M14.485,35.367  c1.179-0.474,2.386-0.834,3.629-1.071l-1.216-3.055c-1.244,0.236-2.454,0.6-3.634,1.072L14.485,35.367z M12.352,40.188  c1.053-0.696,2.171-1.29,3.35-1.768l-1.216-3.054c-1.178,0.479-2.302,1.071-3.355,1.765L12.352,40.188z M14.782,46.297  c1.058-0.696,2.182-1.291,3.355-1.76l-1.216-3.062c-1.179,0.478-2.297,1.072-3.355,1.769L14.782,46.297z M21.771,43.461  c1.299-0.25,2.612-0.362,3.927-0.34l-1.217-3.053c-1.317-0.023-2.632,0.088-3.931,0.339L21.771,43.461z M16.922,41.475  c1.174-0.474,2.386-0.831,3.629-1.067l-1.221-3.059c-1.239,0.241-2.449,0.599-3.629,1.072L16.922,41.475z M19.33,37.349  c1.3-0.245,2.617-0.356,3.936-0.333l-1.221-3.054c-1.312-0.024-2.631,0.088-3.931,0.334L19.33,37.349z M24.481,40.068  c0.649,0.01,1.3,0.056,1.949,0.13c0.732,0.065,1.462,0.097,2.19,0.088l-1.216-3.054c-0.733,0.01-1.462-0.022-2.19-0.088  c-0.65-0.078-1.3-0.12-1.949-0.129L24.481,40.068z M29.842,43.341c1.312-0.015,2.611-0.146,3.897-0.4l-1.22-3.053  c-1.281,0.255-2.581,0.385-3.898,0.398L29.842,43.341z M27.405,37.232c1.317-0.013,2.617-0.144,3.897-0.402l-1.216-3.055  c-1.284,0.251-2.584,0.391-3.898,0.404L27.405,37.232z M32.52,39.888c1.253-0.25,2.468-0.598,3.638-1.062l-1.216-3.055  c-1.169,0.464-2.386,0.812-3.639,1.06L32.52,39.888z"/></svg>