<svg fill="#000000" xmlns="http://www.w3.org/2000/svg" xmlns:xlink="http://www.w3.org/1999/xlink" version="1.1" x="0px" y="0px" viewBox="0 0 100 100" enable-background="new 0 0 100 100" xml:space="preserve"><path d="M31.1,64c1.7,0,3.1-1.4,3.1-3.1c0-1.7-1.4-3.1-3.1-3.1c-1.7,0-3.1,1.4-3.1,3.1C28,62.6,29.4,64,31.1,64z"/><path d="M21.6,47.6c1.7,0,3.1-1.4,3.1-3.1c0-1.7-1.4-3.1-3.1-3.1c-1.7,0-3.1,1.4-3.1,3.1C18.5,46.2,20,47.6,21.6,47.6z"/><path d="M40.5,80.4c1.7,0,3.1-1.4,3.1-3.1c0-1.7-1.4-3.1-3.1-3.1c-1.7,0-3.1,1.4-3.1,3.1C37.4,79,38.9,80.4,40.5,80.4z"/><path d="M21.6,69.5c1.7,0,3.1-1.4,3.1-3.1c0-1.7-1.4-3.1-3.1-3.1c-1.7,0-3.1,1.4-3.1,3.1C18.5,68.1,20,69.5,21.6,69.5z"/><path d="M40.5,58.6c1.7,0,3.1-1.4,3.1-3.1c0-1.7-1.4-3.1-3.1-3.1c-1.7,0-3.1,1.4-3.1,3.1C37.4,57.1,38.9,58.6,40.5,58.6z"/><path d="M68.9,64c1.7,0,3.1-1.4,3.1-3.1c0-1.7-1.4-3.1-3.1-3.1c-1.7,0-3.1,1.4-3.1,3.1C65.8,62.6,67.2,64,68.9,64z"/><path d="M78.4,47.6c1.7,0,3.1-1.4,3.1-3.1c0-1.7-1.4-3.1-3.1-3.1c-1.7,0-3.1,1.4-3.1,3.1C75.3,46.2,76.7,47.6,78.4,47.6z"/><path d="M59.5,80.4c1.7,0,3.1-1.4,3.1-3.1c0-1.7-1.4-3.1-3.1-3.1c-1.7,0-3.1,1.4-3.1,3.1C56.4,79,57.8,80.4,59.5,80.4z"/><path d="M14.7,76.3l30.2,17.5c1.5,0.8,3.3,1.3,5.1,1.3c1.8,0,3.6-0.4,5.1-1.3l30.2-17.5c2.9-1.7,5.1-5.5,5.1-8.8V32.5  c0-3.4-2.2-7.1-5.1-8.8L55.1,6.3c-2.9-1.7-7.3-1.7-10.2,0L14.7,23.7c-2.9,1.7-5.1,5.5-5.1,8.8v34.9C9.6,70.8,11.8,74.6,14.7,76.3z   M85.2,67.5c0,1.5-1.2,3.5-2.5,4.3L53.1,88.9V51.3l32.1-18.6V67.5z M47.5,10.8c0.6-0.4,1.6-0.5,2.5-0.5c0.9,0,1.8,0.2,2.5,0.5  l30.1,17.4L50,46.9c0,0,0,0,0,0s0,0,0,0L17.4,28.2L47.5,10.8z M14.8,32.7l32.1,18.6v37.6L17.3,71.7c-1.3-0.7-2.5-2.8-2.5-4.3V32.7z"/><path d="M56.1,23.3c0,0.6-0.1,0.8-2.7,1.7c-2.3,0.7-6,1.9-6,6.2v0.7c0,1.4,1.2,2.6,2.6,2.6s2.6-1.2,2.6-2.6v-0.7c0-0.1,0-0.2,0-0.2  c0.2-0.3,1.6-0.8,2.4-1c2.4-0.8,6.3-2,6.3-6.7c0-4.1-5-7.3-11.4-7.3c-6.5,0-11.4,3.2-11.4,7.3c0,1.4,1.2,2.6,2.6,2.6  c1.4,0,2.6-1.2,2.6-2.6c0.1-0.5,2.1-2.1,6.1-2.1C53.9,21.2,56,22.8,56.1,23.3z"/><path d="M53.1,40c0-1.7-1.4-3.1-3.1-3.1s-3.1,1.4-3.1,3.1c0,1.7,1.4,3.1,3.1,3.1S53.1,41.6,53.1,40z"/></svg>