<svg xmlns="http://www.w3.org/2000/svg" xmlns:xlink="http://www.w3.org/1999/xlink" version="1.1" x="0px" y="0px" viewBox="0 0 100 100" enable-background="new 0 0 100 100" xml:space="preserve"><g><path d="M52,92.4c-3.5,0-6.4-1-8.8-3c-8.8-7.5-15.4-4.8-15.4-4.7c-0.2,0.1-2.2,0.7-4.3,0.7l0,0c-3.7,0-4.6-2-4.8-3.2l0-0.2l0-0.2   c0-0.3,0.1-2.2-2.6-2.6c-0.1,0-9.6-1.7-10.1-5c-0.1-0.7,0.1-1.7,1.7-2.6l0.1-0.1l0.2,0c0.1,0,11.7-2.2,17.6-15.5   c2.7-4.8,1.4-17.4,1.4-17.5c-0.1-0.6-1.7-14.7,6.3-23.8c4.2-4.8,10.3-7.2,18.2-7.2c9.1,0,15.8,2.7,20.1,8   c7.6,9.3,4.8,23.2,4.6,23.8c0,0.1-1.8,12.5,1.5,19c0,0.1,6.4,11.1,17.4,13.8l0.2,0.1c0.1,0.1,1.3,0.7,1.2,2c0,1.4-1.4,2.6-4.4,3.9   c-0.2,0.1-3.3,1.1-6.4,1.5c-0.2,0-1.5,0.2-1.8,1.4c0,0.5-0.1,2.4-1.3,3.6c-0.9,0.9-2.1,1.2-3.6,0.9l-0.1,0   c-1.4-0.5-2.9-0.7-4.2-0.7c-4.2,0-6.4,2.2-6.5,2.3L68,87.2C67.7,87.4,59.8,92.4,52,92.4z M31,82.2c3.1,0,7.9,1,13.5,5.7   c2,1.7,4.5,2.5,7.5,2.5c6.9,0,14-4.4,14.8-4.9c0.5-0.5,3.2-2.8,7.8-2.8c1.5,0,3.2,0.3,4.8,0.8c0.8,0.2,1.3,0.1,1.7-0.4   c0.6-0.6,0.7-1.9,0.7-2.3l0-0.1l0-0.1c0.4-2.3,2.5-3,3.6-3.1c2.8-0.4,5.8-1.4,5.8-1.4c2.9-1.3,3.1-2,3.1-2.1c0,0-0.1,0-0.1-0.1   c-11.7-3-18.2-14.3-18.5-14.7c-3.6-7.2-1.8-19.8-1.7-20.3c0-0.2,2.7-13.6-4.2-22.2C66,12,59.7,9.6,51.3,9.6   c-7.2,0-12.8,2.2-16.7,6.5c-7.4,8.4-5.8,22.1-5.8,22.2c0.1,0.6,1.3,13.4-1.6,18.6C21.3,70.5,10,73.2,8.4,73.5   C7.9,73.8,7.8,74,7.8,74c0.2,0.8,4.4,2.7,8.5,3.3c3.7,0.6,4.4,3.2,4.3,4.7c0.1,0.5,0.5,1.4,2.8,1.4c1.7,0,3.4-0.5,3.6-0.6   C27.4,82.7,28.8,82.2,31,82.2z"></path></g><g><g><path d="M65.7,30.2c-0.2,0-0.5-0.1-0.7-0.2c-5.1-3.2-8.8-0.2-8.9-0.1c-0.5,0.4-1.3,0.4-1.7-0.1c-0.4-0.5-0.4-1.3,0.1-1.7    c1.7-1.5,6.5-3.5,11.8-0.1c0.6,0.4,0.7,1.1,0.4,1.7C66.5,30,66.1,30.2,65.7,30.2z"></path></g><g><path d="M48.3,30.2c-0.2,0-0.5-0.1-0.7-0.2c-5.1-3.2-8.8-0.2-8.9-0.1c-0.5,0.4-1.3,0.4-1.7-0.1c-0.4-0.5-0.4-1.3,0.1-1.7    c1.7-1.5,6.5-3.5,11.8-0.1c0.6,0.4,0.7,1.1,0.4,1.7C49.1,30,48.7,30.2,48.3,30.2z"></path></g></g><g><path d="M52.7,45.6c-4.3-0.1-7.9-1.4-10.9-4.3c-0.5-0.5-1.2-1.1-0.5-1.9c0.7-0.8,1.4-0.3,2,0.3c5.1,4.8,12.2,5,17.7,0.6   c0.4-0.3,1.2-0.6,1.7-0.4c0.8,0.2,0.7,1.1-0.1,1.9C60.5,43.6,56.3,45.9,52.7,45.6z"></path></g></svg>