<svg xmlns="http://www.w3.org/2000/svg" xmlns:xlink="http://www.w3.org/1999/xlink" version="1.1" x="0px" y="0px" width="100px" height="100px" viewBox="0 0 100 100" enable-background="new 0 0 100 100" xml:space="preserve">
<g id="Captions">
</g>
<g id="Your_Icon">
	<g>
		<path d="M49.904,38.866c-3.309,0-6.439-0.116-8.816-0.328c-2.698-0.239-7.213-0.642-7.213-4.806c0-4.165,4.515-4.568,7.212-4.809    c2.376-0.213,5.508-0.329,8.817-0.329s6.441,0.116,8.817,0.329c2.697,0.24,7.212,0.644,7.212,4.809    c0,4.164-4.515,4.566-7.213,4.806C56.344,38.75,53.213,38.866,49.904,38.866z"/>
	</g>
	<g>
		<path d="M50.037,94.058c-5.538,0-10.758-0.193-14.699-0.544c-4.537-0.403-8.823-0.785-8.823-4.398s4.286-3.995,8.823-4.399    c3.941-0.351,9.162-0.544,14.699-0.544s10.757,0.193,14.698,0.544c4.538,0.404,8.823,0.786,8.823,4.399s-4.286,3.995-8.823,4.398    C60.795,93.864,55.574,94.058,50.037,94.058z"/>
	</g>
	<g>
		<path d="M59.907,90.461c-0.88,0-8.632-0.383-9.894-13.635C50.005,76.731,50,76.637,50,76.542V47.928    c0-1.055,0.554-2.031,1.458-2.573c8.545-5.122,9.875-17.631,9.887-17.757c0.152-1.535,1.443-2.711,2.986-2.711    c5.108,0,10.287-6.771,11.674-12.887H23.962c1.28,6.19,6.14,12.887,11.093,12.887c0.798,0,1.562,0.317,2.125,0.883    c0.563,0.565,0.878,1.331,0.875,2.129c0,0.114,0.13,12.354,9.381,17.395C48.399,45.819,49,46.829,49,47.928v28.614    c0,0.07-0.003,0.141-0.008,0.211c-0.009,0.127-0.231,3.151-1.27,6.212c-2.212,6.522-6.187,7.496-8.359,7.496c-1.657,0-3-1.343-3-3    s1.343-3,3-3c2.021,0,3.407-5.095,3.637-8.03V49.624c-8.145-5.353-10.229-14.544-10.763-19.079    C23.938,28.524,17.636,17.927,17.636,9c0-1.657,1.343-3,3-3h58.729c1.657,0,3,1.343,3,3c0,4.595-1.91,9.915-5.109,14.23    c-2.926,3.945-6.577,6.527-10.31,7.362C66.1,34.965,63.489,44.171,56,49.543v26.845c0.306,2.804,1.769,8.073,3.907,8.073    c1.657,0,3,1.343,3,3S61.564,90.461,59.907,90.461z"/>
	</g>
</g>
</svg>
