<svg fill="#000000" xmlns="http://www.w3.org/2000/svg" xmlns:xlink="http://www.w3.org/1999/xlink" version="1.1" x="0px" y="0px" viewBox="0 0 100 100" style="enable-background:new 0 0 100 100;" xml:space="preserve"><style type="text/css">
	.st0{fill:#000000;}
	.st1{stroke:#000000;stroke-miterlimit:10;}
</style><rect x="20" y="16" width="8" height="16"/><rect x="72" y="16" width="8" height="16"/><path d="M81,24v8v1h-1h-8h-1v-1v-8H29v8v1h-1h-8h-1v-1v-8H8v16v44h76h8v-8V40V24H81z M91,83h-6v-6h6V83z M91,76h-7v7H9V40h82V76z"/><path d="M50.2,80C40,80,31.7,71.7,31.7,61.5S40,43,50.2,43V44c-4.7,0-8.5,3.8-8.5,8.5s3.8,8.5,8.5,8.5c5.3,0,9.5,4.3,9.5,9.5  C59.7,75.8,55.5,80,50.2,80z M44.1,45.1c-6.6,2.5-11.4,8.9-11.4,16.4c0,9.6,7.8,17.5,17.5,17.5c4.7,0,8.5-3.8,8.5-8.5  S54.9,62,50.2,62c-5.3,0-9.5-4.3-9.5-9.5C40.7,49.5,42,46.9,44.1,45.1z"/><path d="M50.2,74.6c-2.3,0-4.1-1.9-4.1-4.1s1.9-4.1,4.1-4.1s4.1,1.9,4.1,4.1S52.5,74.6,50.2,74.6z M50.2,67.4  c-1.7,0-3.1,1.4-3.1,3.1s1.4,3.1,3.1,3.1s3.1-1.4,3.1-3.1S51.9,67.4,50.2,67.4z"/><path d="M50.2,43.5c-5,0-9,4-9,9s4,9,9,9s9,4,9,9c0,5-4,9-9,9c9.9,0,18-8.1,18-18C68.2,51.6,60.1,43.5,50.2,43.5z M50.2,57  c-2.5,0-4.5-2-4.5-4.5c0-2.5,2-4.5,4.5-4.5s4.5,2,4.5,4.5C54.7,55,52.7,57,50.2,57z"/><path d="M50.2,80V79c4.7,0,8.5-3.8,8.5-8.5S54.9,62,50.2,62c-5.3,0-9.5-4.3-9.5-9.5s4.3-9.5,9.5-9.5c10.2,0,18.5,8.3,18.5,18.5  S60.4,80,50.2,80z M50.2,44c-4.7,0-8.5,3.8-8.5,8.5s3.8,8.5,8.5,8.5c5.3,0,9.5,4.3,9.5,9.5c0,3-1.4,5.6-3.5,7.4  c6.6-2.5,11.4-8.9,11.4-16.4C67.7,51.9,59.8,44,50.2,44z M50.2,57.5c-2.8,0-5-2.3-5-5c0-2.8,2.3-5,5-5s5,2.3,5,5  C55.2,55.3,53,57.5,50.2,57.5z M50.2,48.5c-2.2,0-4,1.8-4,4c0,2.2,1.8,4,4,4s4-1.8,4-4C54.2,50.3,52.4,48.5,50.2,48.5z"/></svg>