<svg fill="#000000" xmlns="http://www.w3.org/2000/svg" xmlns:xlink="http://www.w3.org/1999/xlink" version="1.1" x="0px" y="0px" viewBox="0 0 100 100" style="enable-background:new 0 0 100 100;" xml:space="preserve"><style type="text/css">
	.st0{fill:none;stroke:#000000;stroke-width:2;stroke-linecap:round;stroke-linejoin:round;stroke-miterlimit:10;}
	.st1{stroke:#000000;stroke-width:2;stroke-linecap:round;stroke-linejoin:round;stroke-miterlimit:10;}
	.st2{stroke:#000000;stroke-linecap:round;stroke-linejoin:round;stroke-miterlimit:10;}
</style><path d="M10.8,69.5c0,10.4,8.5,18.9,18.9,18.9s18.9-8.5,18.9-18.9c0-9.4-6.9-17.2-15.8-18.6c0.3-0.6,0.5-1.2,0.5-1.9  c0-1.1-0.5-2.1-1.3-2.8l14.6-8c0.3-0.2,0.5-0.5,0.5-0.9V12.3c0-0.6-0.4-1-1-1H13.2c-0.6,0-1,0.4-1,1v25.1c0,0.4,0.2,0.7,0.5,0.9  l14.6,8c-0.8,0.7-1.3,1.6-1.3,2.8c0,0.7,0.2,1.3,0.5,1.9C17.7,52.3,10.8,60.1,10.8,69.5z M22.5,13.3h14.6v27.8c0,0,0,0,0,0l-7.4,4.1  l-7.2-4c0-0.1,0-0.1,0-0.1V13.3z M45.2,36.7l-6,3.3V13.3h6V36.7z M14.2,13.3h6.2v26.9l-6.2-3.4V13.3z M28.1,48.9  c0-0.9,0.7-1.6,1.6-1.6c0.9,0,1.6,0.7,1.6,1.6s-0.7,1.6-1.6,1.6C28.8,50.6,28.1,49.8,28.1,48.9z M29.7,52.6  c9.3,0,16.9,7.6,16.9,16.9S39,86.4,29.7,86.4c-9.3,0-16.9-7.6-16.9-16.9S20.4,52.6,29.7,52.6z"/><path d="M64.4,72l-1.2,7c-0.1,0.4,0.1,0.8,0.4,1c0.3,0.2,0.7,0.3,1.1,0.1l6.3-3.3l6.2,3.3c0.1,0.1,0.3,0.1,0.5,0.1  c0.2,0,0.4-0.1,0.6-0.2c0.3-0.2,0.5-0.6,0.4-1l-1.2-7l5.1-4.9c0.3-0.3,0.4-0.7,0.3-1c-0.1-0.4-0.4-0.6-0.8-0.7l-7-1L71.8,58  c-0.2-0.3-0.5-0.6-0.9-0.6c0,0,0,0,0,0c-0.4,0-0.7,0.2-0.9,0.6l-3.1,6.3l-7,1c-0.4,0.1-0.7,0.3-0.8,0.7s0,0.8,0.3,1L64.4,72z   M67.7,66.2c0.3,0,0.6-0.3,0.8-0.5l2.5-5l2.5,5c0.1,0.3,0.4,0.5,0.8,0.5l5.5,0.8l-4,3.9c-0.2,0.2-0.3,0.6-0.3,0.9l0.9,5.5l-4.9-2.6  c-0.1-0.1-0.3-0.1-0.5-0.1c-0.2,0-0.3,0-0.5,0.1l-4.9,2.6l0.9-5.5c0.1-0.3-0.1-0.7-0.3-0.9l-4-3.9L67.7,66.2z"/><path d="M52,69.5c0,10.4,8.5,18.9,18.9,18.9s18.9-8.5,18.9-18.9c0-9.4-6.9-17.2-15.8-18.6c0.3-0.6,0.5-1.2,0.5-1.9  c0-1.1-0.5-2.1-1.3-2.8l14.6-8c0.3-0.2,0.5-0.5,0.5-0.9V12.3c0-0.6-0.4-1-1-1H54.5c-0.6,0-1,0.4-1,1v25.1c0,0.4,0.2,0.7,0.5,0.9  l14.6,8c-0.8,0.7-1.3,1.6-1.3,2.8c0,0.7,0.2,1.3,0.5,1.9C58.9,52.3,52,60.1,52,69.5z M63.7,13.3h14.6v27.8c0,0,0,0,0,0l-7.4,4.1  l-7.2-4c0-0.1,0-0.1,0-0.1V13.3z M86.4,36.7l-6,3.3V13.3h6V36.7z M55.5,13.3h6.2v26.9l-6.2-3.4V13.3z M69.3,48.9  c0-0.9,0.7-1.6,1.6-1.6c0.9,0,1.6,0.7,1.6,1.6s-0.7,1.6-1.6,1.6C70,50.6,69.3,49.8,69.3,48.9z M70.9,52.6c9.3,0,16.9,7.6,16.9,16.9  s-7.6,16.9-16.9,16.9c-9.3,0-16.9-7.6-16.9-16.9S61.6,52.6,70.9,52.6z"/><path d="M21.9,64.6h15.6c0.6,0,1-0.4,1-1s-0.4-1-1-1H21.9c-0.6,0-1,0.4-1,1S21.3,64.6,21.9,64.6z"/><path d="M21.9,70.5h15.6c0.6,0,1-0.4,1-1s-0.4-1-1-1H21.9c-0.6,0-1,0.4-1,1S21.3,70.5,21.9,70.5z"/><path d="M21.9,76.4h15.6c0.6,0,1-0.4,1-1s-0.4-1-1-1H21.9c-0.6,0-1,0.4-1,1S21.3,76.4,21.9,76.4z"/></svg>