<svg xmlns="http://www.w3.org/2000/svg" xmlns:xlink="http://www.w3.org/1999/xlink" version="1.1" x="0px" y="0px" viewBox="0 0 100 100" enable-background="new 0 0 100 100" xml:space="preserve"><g display="none"><rect x="-319.379" y="-83.883" display="inline" fill="#000000" width="1376.931" height="568.472"></rect></g><g><g><g><path fill="#000000" d="M60.493,24.805h-6.431c-0.829,0-1.5-0.671-1.5-1.5s0.671-1.5,1.5-1.5h6.431c0.829,0,1.5,0.671,1.5,1.5     S61.322,24.805,60.493,24.805z"></path></g></g><g><g><path fill="#000000" d="M43.774,14.516c-0.829,0-1.5-0.671-1.5-1.5V6.585c0-0.829,0.671-1.5,1.5-1.5s1.5,0.671,1.5,1.5v6.431     C45.274,13.845,44.602,14.516,43.774,14.516z"></path></g></g><g><g><path fill="#000000" d="M33.485,24.805h-6.431c-0.829,0-1.5-0.671-1.5-1.5s0.671-1.5,1.5-1.5h6.431c0.829,0,1.5,0.671,1.5,1.5     S34.313,24.805,33.485,24.805z"></path></g></g><g><g><path fill="#000000" d="M51.049,17.529c-0.384,0-0.768-0.146-1.061-0.439c-0.586-0.585-0.586-1.536,0-2.121l4.3-4.3     c0.586-0.586,1.535-0.586,2.121,0c0.586,0.585,0.586,1.536,0,2.121l-4.3,4.3C51.817,17.383,51.433,17.529,51.049,17.529z"></path></g></g><g><g><path fill="#000000" d="M36.498,17.529c-0.384,0-0.768-0.146-1.061-0.439l-4.3-4.3c-0.586-0.585-0.586-1.536,0-2.121     c0.586-0.586,1.535-0.586,2.121,0l4.3,4.3c0.586,0.585,0.586,1.536,0,2.121C37.266,17.383,36.882,17.529,36.498,17.529z"></path></g></g><path fill="#000000" d="M70.096,38.623c-1.032,0-2.042,0.244-2.95,0.698c-1.101-2.155-3.337-3.6-5.888-3.6   c-0.844,0-1.661,0.157-2.42,0.457c-0.696-2.898-3.31-5.059-6.418-5.059c-0.778,0-1.532,0.132-2.238,0.385v-8.268   c0-3.639-2.965-6.6-6.609-6.6c-3.639,0-6.6,2.961-6.6,6.6v30.217l-1.647-2.354c-1.011-1.446-2.525-2.412-4.263-2.719   c-1.735-0.307-3.49,0.08-4.933,1.088c-1.448,1.006-2.415,2.519-2.723,4.258c-0.308,1.736,0.079,3.491,1.09,4.943L36.972,76.53   v16.885c0,0.829,0.671,1.5,1.5,1.5h36.724c0.829,0,1.5-0.671,1.5-1.5V45.223C76.696,41.584,73.735,38.623,70.096,38.623z    M26.958,56.952c-0.553-0.794-0.765-1.754-0.597-2.704c0.167-0.947,0.693-1.77,1.484-2.32c0.79-0.552,1.749-0.764,2.694-0.595   c0.949,0.168,1.775,0.695,2.327,1.484l4.377,6.255c0.376,0.537,1.058,0.768,1.68,0.571c0.625-0.197,1.049-0.776,1.049-1.431V23.236   c0-1.985,1.615-3.6,3.6-3.6c1.99,0,3.609,1.615,3.609,3.6v11.017c0,0.617,0.378,1.171,0.953,1.396   c0.578,0.227,1.229,0.075,1.648-0.377c0.688-0.744,1.625-1.153,2.638-1.153c1.985,0,3.6,1.615,3.6,3.6v1.137   c0,0.616,0.376,1.169,0.95,1.396c0.573,0.225,1.226,0.078,1.646-0.372c0.698-0.747,1.636-1.158,2.642-1.158   c1.845,0,3.388,1.384,3.59,3.219c0.064,0.585,0.465,1.079,1.025,1.262c0.557,0.18,1.174,0.022,1.572-0.413   c0.689-0.752,1.631-1.167,2.651-1.167c1.985,0,3.6,1.615,3.6,3.6V76.35H39.972v-0.292c0-0.307-0.094-0.607-0.27-0.859   L26.958,56.952z M39.972,91.915V78.29h33.724v13.625H39.972z"></path></g></svg>