<svg xmlns="http://www.w3.org/2000/svg" xmlns:xlink="http://www.w3.org/1999/xlink" version="1.1" id="Layer_1" x="0px" y="0px" width="100px" height="100px" viewBox="0 0 100 100" enable-background="new 0 0 100 100" xml:space="preserve">
<g>
	<path d="M67.227,41.774v24.028h-3.79V36.841h-0.082c-2.129-1.059-4.386-1.894-6.736-2.499c1.77-2.186,3.64-5.421,3.012-8.855   c-0.68-3.722-4.007-6.601-9.887-8.556c-0.137-0.045-0.274-0.074-0.412-0.089c-0.594-0.23-1.237-0.361-1.911-0.361   c-0.946,0-1.833,0.251-2.603,0.685c-5.254,1.976-8.235,4.731-8.862,8.201c-0.657,3.636,1.539,6.985,3.329,9.026   c-2.283,0.601-4.479,1.418-6.552,2.449h-0.082v28.961h-3.626V41.774H12.754v55.774h10.473v1.575h7.718V87.52h34.5v11.604h7.718   v-1.576h10.334V41.774H67.227z M23.228,92.418h-8.683v-1.187h8.683V92.418z M23.228,86.858h-8.554v-1.187h8.554V86.858z    M23.228,81.297h-8.554V80.11h8.554V81.297z M23.228,75.737h-8.554V74.55h8.554V75.737z M26.82,70.177H14.674V68.99H26.82V70.177z    M26.82,64.616H14.674v-1.187H26.82V64.616z M26.82,59.056H14.674v-1.187H26.82V59.056z M26.82,53.496H14.674v-1.187H26.82V53.496z    M26.963,47.936H14.817v-1.187h12.147V47.936z M52.728,22.627c1.511,0.938,2.704,2.118,2.972,3.572   c0.423,2.289-1.43,4.902-2.972,6.549V22.627z M39.887,26.076c0.216-1.194,1.072-2.21,2.226-3.063v8.548   C40.842,30.059,39.547,27.957,39.887,26.076z M37.401,41.59h21.287v26.884H37.401V41.59z M40.729,82.771h-9.784V73.52h2.346   c2.347,1.108,4.839,1.955,7.437,2.516V82.771z M65.446,82.771H54.832v-6.662c2.729-0.559,5.345-1.429,7.801-2.589h2.814V82.771z    M81.164,92.418h-8v-1.187h8V92.418z M81.293,86.858h-8.129v-1.187h8.129V86.858z M81.293,81.297h-8.129V80.11h8.129V81.297z    M81.293,75.737h-8.129V74.55h8.129V75.737z M81.293,70.177H69.146V68.99h12.147V70.177z M81.293,64.616H69.146v-1.187h12.147   V64.616z M81.293,59.056H69.146v-1.187h12.147V59.056z M81.293,53.496H69.146v-1.187h12.147V53.496z M81.436,47.936H69.289v-1.187   h12.147V47.936z"/>
	<circle cx="47.092" cy="7.585" r="7.032"/>
</g>
</svg>
