<svg xmlns="http://www.w3.org/2000/svg" xmlns:xlink="http://www.w3.org/1999/xlink" version="1.1" x="0px" y="0px" viewBox="0 0 90 90" enable-background="new 0 0 90 90" xml:space="preserve"><path d="M44.171,37.829c-1.735,0-2.935-1.299-2.935-3.034c0-1.8,1.235-3.034,3.002-3.034c1.766,0,2.935,1.234,2.967,3.034  c0,1.735-1.167,3.034-2.967,3.034H44.171z M42.338,30.092l-0.736-15.107h5.271l-0.734,15.107H42.338z"></path><g><path d="M28.433,55.261c-0.014,2.865-0.098,5.129-0.21,6.915c-2.792-2.416-6.16-5.81-10.421-10.114   c-0.111,2.725-0.309,4.962-0.615,6.79c-1.061-1.062-2.081-2.082-3.004-3.018c-0.557-0.559-1.132-1.146-1.718-1.732   c0.14-2.04,0.224-4.638,0.224-7.962c0-1.44,1.173-2.614,2.611-2.614h0.295c0.683,0,1.354,0.281,1.844,0.771   c1.425,1.422,2.779,2.793,4.063,4.078C23.866,50.749,26.254,53.166,28.433,55.261z"></path></g><g><path d="M53.608,55.261c-0.015,2.849-0.098,5.129-0.21,6.915c-2.724-2.36-6.007-5.658-10.143-9.834   c-0.11,2.711-0.321,4.943-0.643,6.761c-1.133-1.131-2.248-2.25-3.241-3.256l-0.362-0.362c-0.365-0.362-0.728-0.738-1.104-1.104   c0.153-2.082,0.25-4.764,0.25-8.241c0-1.064,0.629-2.014,1.607-2.419c0.979-0.407,2.096-0.18,2.849,0.575   c1.425,1.422,2.78,2.793,4.066,4.078C49.039,50.749,51.43,53.166,53.608,55.261z"></path></g><g><path d="M89.067,64.229c-0.169,1.426-1.44,2.46-2.895,2.293c-4.093-0.462-8.968-5.338-17.743-14.181   c-0.125,2.711-0.334,4.931-0.654,6.747c-1.105-1.104-2.209-2.207-3.256-3.269l-1.229-1.244c-0.07-0.07-0.126-0.126-0.196-0.195   c0.139-2.082,0.238-4.764,0.238-8.241c0-1.064,0.626-2.014,1.604-2.419c0.979-0.407,2.097-0.18,2.852,0.575   c1.426,1.422,2.779,2.793,4.064,4.078c6.748,6.816,12.586,12.698,14.906,12.965C88.199,61.507,89.234,62.791,89.067,64.229z"></path></g><path d="M80.74,72.654c-0.042,0.335-0.143,0.642-0.281,0.923c-0.111,0.21-0.25,0.405-0.418,0.571  c-0.043,0.057-0.098,0.099-0.154,0.154c-0.112,0.098-0.236,0.196-0.362,0.278c-0.167,0.112-0.363,0.197-0.56,0.251  c-0.35,0.112-0.725,0.153-1.117,0.112c-3.297-0.376-7.098-3.604-13.035-9.471c-1.439-1.411-3.005-2.978-4.708-4.708  c-0.083,2.109-0.236,3.938-0.448,5.488c-0.684,5.018-2.052,7.392-4.4,8.355c-0.642,0.266-1.312,0.407-1.996,0.407  c-2.082,0-4.348-1.245-7.252-3.634c-1.843-1.509-3.924-3.494-6.369-5.909c-1.439-1.411-2.991-2.992-4.708-4.708  c-0.085,2.109-0.238,3.938-0.448,5.488c-0.685,5.018-2.052,7.392-4.401,8.355c-0.656,0.266-1.313,0.407-1.997,0.407  c-1.704,0-3.535-0.841-5.756-2.459c-0.502-0.379-1.034-0.797-1.592-1.246c-1.844-1.535-3.939-3.532-6.412-5.978  c-0.489-0.475-0.991-0.979-1.509-1.496c-0.266-0.265-0.53-0.528-0.796-0.797c-0.462-0.475-0.937-0.948-1.441-1.451  c-0.349-0.364-0.711-0.726-1.087-1.104c-0.363,8.871-1.678,12.616-4.625,14.013c-0.362,0.182-0.742,0.264-1.118,0.264  c-0.978,0-1.915-0.544-2.361-1.479c-0.615-1.301-0.07-2.849,1.2-3.478c0.545-0.436,1.776-2.781,1.776-15.242  c0-1.44,1.173-2.612,2.61-2.612h0.294c0.684,0,1.354,0.276,1.844,0.766c1.104,1.104,2.182,2.18,3.2,3.214  c0.293,0.296,0.586,0.587,0.865,0.867c1.229,1.244,2.458,2.485,3.675,3.702c5.031,5.001,9.583,9.276,11.232,9.276  c0.028,0,0.057,0,0.085-0.014c0.294-0.253,0.993-1.468,1.382-6.482c0.141-1.732,0.238-3.926,0.267-6.705  c0.012-0.645,0.012-1.314,0.012-2.012c0-1.064,0.644-2.013,1.608-2.418c0.322-0.126,0.655-0.194,0.993-0.194h0.013  c0.671,0,1.342,0.263,1.845,0.766c1.199,1.202,2.36,2.376,3.464,3.482c0.209,0.207,0.405,0.403,0.599,0.599  c1.313,1.328,2.628,2.654,3.914,3.94c4.931,4.89,9.375,9.038,10.996,9.038c0.027,0,0.056,0,0.083-0.014  c0.294-0.253,0.991-1.468,1.384-6.482c0.139-1.732,0.236-3.926,0.266-6.705c0.014-0.645,0.014-1.314,0.014-2.012  c0-1.064,0.643-2.013,1.605-2.418c0.322-0.126,0.672-0.194,1.006-0.194c0.672,0,1.342,0.263,1.845,0.766  c1.202,1.202,2.362,2.376,3.464,3.482c0.211,0.207,0.407,0.403,0.602,0.599c1.354,1.354,2.654,2.682,3.912,3.925  c5.042,5.016,9.15,8.83,11.008,9.04C79.873,69.931,80.908,71.214,80.74,72.654z"></path></svg>