<svg xmlns="http://www.w3.org/2000/svg" xmlns:xlink="http://www.w3.org/1999/xlink" version="1.1" id="Calque_1" x="0px" y="0px" width="47.146px" height="48.311px" viewBox="0 0 47.146 48.311" enable-background="new 0 0 47.146 48.311" xml:space="preserve">
<g>
	<g>
		<path d="M31.232,43.529H14.068c-0.207,0-0.375-0.168-0.375-0.375V27.595c0-0.072,0.021-0.142,0.059-0.202l3.789-5.912    c0.069-0.108,0.188-0.173,0.316-0.173l0,0l9.589,0.005c0.128,0,0.247,0.065,0.315,0.172l3.791,5.911    c0.05,0.078,0.068,0.168,0.056,0.257v15.5C31.607,43.361,31.439,43.529,31.232,43.529z M14.443,42.779h16.415V27.704l-3.617-5.64    l-9.179-0.005l-3.619,5.646V42.779z"/>
	</g>
	<rect x="17.224" y="32.311" width="10.856" height="8.183"/>
	<path d="M32.83,20.674c-1.816-0.701-3.449-1.567-4.865-2.576c2.541-4.136,5.209-9.676,3.787-12.961   c-0.713-1.651-2.305-2.584-4.73-2.773c-3.123-0.242-5.446,1.477-6.131,4.484c-0.562,2.47,0.125,5.4,1.883,8.038   c0.857,1.284,1.953,2.478,3.256,3.556c-0.817,1.264-1.6,2.376-2.233,3.246l0.551,0c0.595-0.825,1.301-1.838,2.034-2.97   c0.129,0.104,0.301,0.233,0.449,0.346c-0.634,0.979-1.248,1.867-1.79,2.625l0.548,0c0.493-0.698,1.037-1.488,1.604-2.362   c1.498,1.059,3.217,1.965,5.115,2.701c4.631,1.792,6.896,4.736,6.547,8.508c-0.357,3.881-3.35,7.354-4.461,7.561   c-0.395,0.074-0.652,0.452-0.58,0.847c0.064,0.343,0.363,0.59,0.711,0.59c0.045,0,0.09-0.004,0.135-0.012   c1.895-0.354,5.24-4.549,5.641-8.853C40.584,27.541,39.521,23.269,32.83,20.674z M39.852,30.626   c-0.379,4.12-3.51,8.125-5.271,8.458c-0.156,0.026-0.301-0.075-0.328-0.225c-0.029-0.148,0.072-0.297,0.223-0.326   c1.389-0.259,4.447-3.885,4.826-7.959c0.365-3.988-1.996-7.088-6.834-8.962c-1.943-0.752-3.695-1.69-5.205-2.784l-0.002-0.002   c-0.246-0.175-0.777-0.593-0.795-0.606v-0.001c-1.338-1.078-2.453-2.284-3.32-3.584c-1.69-2.533-2.354-5.336-1.819-7.687   c0.631-2.782,2.776-4.366,5.665-4.142c2.242,0.177,3.711,1.019,4.354,2.506c1.342,3.102-1.258,8.478-3.74,12.522   c-0.176-0.13-0.338-0.258-0.447-0.349c0.178-0.29,0.355-0.583,0.533-0.884c2.988-5.089,4.076-8.917,3.141-11.068   c-0.561-1.301-1.832-2.013-3.883-2.171c-2.598-0.202-4.51,1.215-5.077,3.707c-0.502,2.203,0.134,4.849,1.737,7.256   c0.816,1.222,1.863,2.359,3.115,3.383c0.016,0.013,0.41,0.342,0.816,0.629c1.482,1.082,3.211,2.008,5.127,2.753   C39.104,23.586,40.129,27.651,39.852,30.626z M26.809,17.201c-1.129-0.951-2.082-2.001-2.828-3.122   c-1.539-2.306-2.153-4.824-1.676-6.909c0.484-2.148,2.002-3.378,4.15-3.378c0.152,0,0.303,0.004,0.455,0.015   c1.871,0.15,3.021,0.772,3.512,1.905c0.875,2.018-0.203,5.705-3.117,10.666C27.141,16.654,26.975,16.929,26.809,17.201z"/>
</g>
</svg>
