<svg xmlns="http://www.w3.org/2000/svg" xmlns:xlink="http://www.w3.org/1999/xlink" version="1.1" id="Layer_1" x="0px" y="0px" width="100px" height="100px" viewBox="0 0 100 100" enable-background="new 0 0 100 100" xml:space="preserve">
<path d="M17.946,49.09c0.441-15.732,12.258-28.664,27.503-30.838l7.619-7.62l-7.104-7.104C22.435,5.555,3.853,25.111,3.367,49.042  l7.265-7.265L17.946,49.09z"/>
<path d="M49.092,82.055C33.358,81.613,20.427,69.796,18.251,54.55l-7.619-7.619l-7.104,7.104  c2.026,23.53,21.583,42.113,45.513,42.599l-7.264-7.264L49.092,82.055z"/>
<path d="M96.633,50.958l-7.265,7.265l-7.313-7.313c-0.441,15.731-12.258,28.663-27.503,30.839l-7.62,7.621l7.103,7.103  C77.564,94.445,96.147,74.89,96.633,50.958z"/>
<path d="M50.909,17.946c15.732,0.441,28.664,12.257,30.839,27.503l7.62,7.619l7.104-7.104C94.444,22.435,74.889,3.853,50.958,3.367  l7.265,7.265L50.909,17.946z"/>
</svg>
