<svg xmlns="http://www.w3.org/2000/svg" xmlns:xlink="http://www.w3.org/1999/xlink" version="1.1" id="Layer_1" x="0px" y="0px" width="100px" height="100px" viewBox="0 0 100 100" enable-background="new 0 0 100 100" xml:space="preserve">
<path d="M28.778,97.627c-1.473,0.535-3.098-0.223-3.633-1.691c-0.535-1.472,0.223-3.097,1.693-3.631  c1.469-0.535,3.096,0.223,3.631,1.691C31.004,95.467,30.246,97.093,28.778,97.627z M22.809,96.787  c-0.979-2.686,0.344-5.646,2.957-6.729c-0.022-0.209-0.043-0.42-0.059-0.632c-0.052-0.666,0.205-1.155,0.598-1.463  c-0.119-5.483,1.685-11.228,4.996-16.3c-3.41,1.134-7.428,2.457-7.428,2.457c-11.08,3.781-18.07,6.145-19.615,14.884  c-0.017,0.095-0.631,5.892-0.736,10.74v0.001h21.951C24.28,99.164,23.301,98.135,22.809,96.787z M61.409,99.743H49.223H30.137  c2.418-1.177,3.604-4.013,2.664-6.597c-0.621-1.705-2.021-2.898-3.654-3.324c-0.025-0.223-0.047-0.444-0.064-0.67  c-0.051-0.622-0.348-1.053-0.744-1.301c-0.111-5.785,2.109-11.99,6.24-17.287c0.471-0.16,0.848-0.289,1.096-0.375  c0-0.103,0.029-0.19,0.076-0.269l1.391-3.881l0,0l1.12-3.116l0.041-0.038c0.029-0.081,0.08-0.163,0.158-0.235l0.443-0.428  l-0.865-3.74c-0.012-0.049-0.018-0.096-0.018-0.14c-1.086-0.797-2.09-1.776-2.979-2.969c-1.787-2.397-3.082-5.615-3.666-9.869  c-1.629,0.363-2.93-0.441-4.223-2.222c-1.459-2.011-2.863-4.666-2.996-7.172c-0.133-2.571,1.238-4.722,3.889-4  c0.477,0.13,0.943,0.354,1.383,0.654c-0.354-2.305-1.914-3.937-1.914-6.863v-0.208c0.006-3.084,0.146-6.054,0.57-8.804  C29.462,7.896,33.897,1.111,46.37,0.226c0.9-0.063,1.826-0.097,2.793-0.099h0.004h0.086h0.09c0.32,0,0.641,0.005,0.951,0.012  C64.92,0.491,69.459,8.225,70.629,18.401c0.275,2.396,0.367,4.908,0.367,7.501c0,2.951-1.588,4.585-1.924,6.923  c1.037-0.732,2.209-1.058,3.344-0.691c3.523,1.152,1.512,6.819,0.76,8.251c-1.99,3.78-3.646,5.664-6.023,5.104  c-0.5,3.659-1.534,6.545-2.942,8.808c-1.078,1.727-2.362,3.066-3.787,4.1c-0.002,0.028-0.008,0.057-0.014,0.084l-0.865,3.74  l0.406,0.391c0.062,0.043,0.118,0.103,0.163,0.178c0.052,0.07,0.08,0.146,0.095,0.222l1.092,3.031l0,0l1.406,3.901  c0.045,0.072,0.071,0.156,0.073,0.248c0.214,0.076,0.519,0.18,0.896,0.31c0.303,1.174,0.469,2.44,0.598,3.785  c0.433,4.507,0.646,8.592,1.978,12.772c-0.289,0.396-0.397,0.936-0.172,1.551c0.121,0.326,0.248,0.654,0.385,0.98  C62.378,91.855,60.634,95.374,61.409,99.743z M45.002,59.999c1.869,0.33,1.244,1.052,4.256,1.052c3.023,0,2.376-0.722,4.217-1.045  c3.834-0.679,7.362-2.484,9.752-6.311c1.387-2.225,2.412-5.146,2.862-8.976l0.009-0.068l0.01-0.061  c0.035-0.18,0.135-0.303,0.262-0.375c0.123-0.078,0.277-0.107,0.453-0.055l0.059,0.024l0.062,0.025l0.25,0.098  c1.541,0.493,2.795-0.342,4.961-4.454c1.059-2.011,1.934-5.962-0.084-6.623c-0.986-0.317-2.244,0.176-3.387,1.502  c-0.441,1.487-1.021,2.625-1.422,3.309c0.071-0.221,0.133-0.451,0.186-0.689c0.166-0.746,0.207-3.24,0.883-3.738  c0.445-0.396,0.789-0.829,0.789-1.426v-2.203c0-0.442-0.244-0.841-0.588-1.064c-0.691-0.402-1.635-0.673-2.715-0.84  c-0.471-1.425-0.871-3.053-0.795-5.273c0.121-3.516,0.75-5.141-4.121-3.672c-3.812,1.15-7.578,2.921-11.643,2.921  c-4.088,0-7.863-1.79-11.699-2.938c-3.27-0.978-4.504-0.784-4.178,2.182c0.051,0.455,0.084,0.886,0.102,1.298  c0.074,1.619-0.076,2.926-0.332,4.052c-0.117,0.514-0.244,0.982-0.377,1.415c-1.123,0.166-2.102,0.44-2.814,0.854  c-0.344,0.223-0.586,0.622-0.586,1.064v2.203c0,0.597,0.342,1.031,0.789,1.426c0.551,0.407,0.541,1.354,0.617,1.976  c0.117,0.952,0.289,1.806,0.537,2.564c-0.059-0.097-0.121-0.204-0.188-0.322c-0.4-0.716-0.936-1.821-1.338-3.228  c-0.664-0.731-1.375-1.201-2.043-1.383c-1.898-0.519-2.525,1.141-2.439,2.824c0.115,2.27,1.455,4.735,2.77,6.551  c1.25,1.726,2.186,2.063,3.295,1.718c0.115-0.058,0.225-0.096,0.324-0.117c0.094-0.021,0.182-0.026,0.262-0.018  c0.246,0.023,0.406,0.173,0.445,0.366c0.014,0.042,0.023,0.087,0.029,0.137c0.52,4.442,1.797,7.669,3.525,9.993  C38.313,57.831,41.537,59.383,45.002,59.999z M36.363,86.837l3.15-0.612l-0.49-2.521l-3.15,0.612l-0.609-3.148l-2.521,0.489  l0.611,3.149l-3.15,0.612l0.49,2.521l3.15-0.612l0.611,3.151l2.521-0.492L36.363,86.837z M47.382,76.261l-2.336-3.724l-0.178,0.249  c-1.08,1.524-1.787,3.03-2.551,4.163c-0.799,1.187-1.76,2.146-3.334,2.188c-0.045,0.002-0.088-0.002-0.127-0.009  c-0.088-0.003-0.17-0.024-0.244-0.067l5.592,18.565L47.382,76.261z M47.434,68.577c-2.32-0.256-4.539-1.037-6.191-2.532l0.001-0.002  c-0.781-0.706-1.439-1.575-1.92-2.626l-0.949,2.626h-0.001l-1.512,4.188l2.461,7.718c0.811-0.142,1.402-0.693,2.037-1.642  c0.768-1.14,1.482-2.652,2.566-4.183C44.791,70.898,45.895,69.657,47.434,68.577z M49.224,67.523c2.122,0,4.221-0.442,5.93-1.481  h0.003c1.23-0.748,2.257-1.807,2.94-3.231c0.233-0.492,0.319-0.821,0.319-0.821l0.625-2.707c-1.67,0.94-3.485,1.528-5.342,1.856  c-0.562,0.098-0.878,0.355-1.354,0.577c-0.604,0.28-1.428,0.488-3.087,0.488c-1.691,0-2.389-0.155-3.779-0.849  c-0.182-0.092-0.381-0.17-0.672-0.221c-1.885-0.335-3.723-0.937-5.412-1.898l0.641,2.77c0,0,0.068,0.333,0.285,0.822  c0.627,1.431,1.628,2.477,2.841,3.214h0.002C44.911,67.104,47.093,67.523,49.224,67.523z M51.006,68.572  c0.998,0.701,1.816,1.47,2.506,2.262c1.67,1.92,2.354,3.771,3.725,5.691c0.58,0.812,1.142,1.293,1.89,1.424l2.47-7.698l-1.519-4.208  l0,0l-0.945-2.619c-0.526,1.039-1.215,1.908-2.022,2.62h-0.004C55.452,67.503,53.298,68.307,51.006,68.572z M59.835,79.066  c-0.104,0.062-0.229,0.084-0.353,0.07c-1.471-0.031-2.412-0.863-3.184-1.943c-1.074-1.504-1.836-3.151-2.904-4.646l-2.328,3.714  l3.175,21.365L59.835,79.066z M94.188,89.005c-1.543-8.739-8.533-11.103-19.613-14.884c0,0-5.066-1.668-8.648-2.863  c0.477,2.498,0.527,5.102,0.773,7.618c0.234,2.377,0.605,4.883,1.453,7.504c0.464,0.124,0.882,0.459,1.104,1.063  c0.101,0.275,0.209,0.553,0.322,0.826c5.552-1.697,9.89,0.613,12.401,6.531c0.742,1.751,1.164,3.405,1.318,4.944h11.626  C94.82,94.898,94.205,89.102,94.188,89.005z M70.047,89.33c0.811,1.986-2.166,3.343-3.119,1.318c-3.631,2.05-5.127,5.143-4.35,9.097  h19.57c-0.166-1.455-0.582-2.972-1.229-4.495C78.646,89.895,74.936,87.887,70.047,89.33z M57.438,47.176  c-0.582,0.164-0.336,1.036,0.244,0.873c0.674-0.189,1.41,0.674,1.478,1.294c0.065,0.601,0.966,0.502,0.901-0.098  C59.934,48.078,58.684,46.827,57.438,47.176z M58.354,33.213c-2.145,0-4.105,1.005-4.82,2.583c-0.332,0.735,0.77,1.233,1.104,0.498  c0.366-0.809,1.352-1.526,2.68-1.777c-0.457,0.305-0.758,0.824-0.758,1.415c0,0.938,0.76,1.698,1.697,1.698  c0.939,0,1.697-0.76,1.697-1.698c0-0.619-0.328-1.16-0.824-1.457c1.438,0.202,2.482,0.954,2.875,1.819  c0.33,0.735,1.432,0.237,1.1-0.498C62.395,34.226,60.508,33.213,58.354,33.213z M68.215,40.551c0.494,0.038,1.057-0.532,1.254-1.222  c0.127-0.443,0.073-0.838-0.115-1.067c0.744-1.364,1.697-1.967,2.211-1.84c0.746,0.184,1.021-0.934,0.277-1.117  c-1.594-0.394-3.154,1.376-3.953,3.4C67.824,38.861,67.135,40.467,68.215,40.551z M26.76,35.305c-0.746,0.183-0.468,1.3,0.277,1.117  c0.514-0.128,1.465,0.475,2.209,1.84c-0.185,0.229-0.24,0.624-0.113,1.067c0.197,0.69,0.76,1.261,1.252,1.222  c1.082-0.084,0.392-1.691,0.326-1.846C29.914,36.681,28.354,34.911,26.76,35.305z M49.885,58.594h-1.244c-0.769,0-0.769,1.15,0,1.15  h1.244C50.652,59.744,50.652,58.594,49.885,58.594z M49.251,54.302c-4.146-0.002-4.549-1.329-7.08-3.669  c-0.021-0.02-0.041-0.04-0.059-0.061c-0.412-0.114-0.826-0.254-1.266-0.432c-0.711-0.286-0.283-1.354,0.432-1.068  c1.521,0.612,2.691,0.759,5.014,0.833c0,0,1.201,0.053,2.963,0.063c1.765-0.011,2.972-0.063,2.972-0.063  c2.32-0.075,3.49-0.221,5.015-0.833c0.713-0.286,1.141,0.782,0.43,1.068c-0.44,0.178-0.858,0.32-1.274,0.435  c-0.018,0.02-0.037,0.038-0.057,0.058C53.809,52.975,53.396,54.3,49.251,54.302z M49.24,52.609c1.733-0.012,3.411-0.229,4.017-0.596  c0.375-0.305,0.729-0.666,1.136-1.082c-0.623,0.062-1.314,0.099-2.125,0.123c-0.099,0.006-1.297,0.055-3.01,0.065  c-1.791-0.011-3.014-0.065-3.014-0.065c-0.814-0.024-1.506-0.061-2.131-0.125c0.411,0.422,0.77,0.787,1.145,1.092  C45.875,52.381,47.524,52.598,49.24,52.609z M50.913,45.028c-0.297,0.223-0.64,0.38-1.675,0.38c-1.031,0-1.357-0.155-1.656-0.38  c-0.672-0.504-1.5-0.602-2.178-0.104c-0.135,0.097-0.205,0.176-0.205,0.176c-0.517,0.566,0.332,1.343,0.85,0.778  c0.289-0.213,0.547-0.152,0.844,0.071c0.058,0.045,0.119,0.087,0.199,0.142c0.68,0.517,1.227,1.049,2.174,1.048  c0.951,0.002,1.487-0.531,2.167-1.048c0.032-0.026,0.064-0.055,0.09-0.083l0.078-0.06c0.254-0.19,0.545-0.29,0.844-0.071  c0.521,0.566,1.369-0.212,0.851-0.778C52.686,44.403,51.613,44.503,50.913,45.028z M40.977,47.175  c-1.244-0.348-2.496,0.902-2.623,2.069c-0.065,0.6,0.838,0.7,0.902,0.098c0.067-0.62,0.803-1.482,1.477-1.293  C41.315,48.212,41.557,47.34,40.977,47.175z M37.901,41.952c-6.043-0.591-6.223-4.609-6.447-6.446  c-0.143-1.167-0.152-1.893-0.865-2.419c-0.393-0.348-0.537-0.594-0.537-0.899v-2.203c0-0.204,0.105-0.384,0.266-0.488  c0.76-0.442,3.387-1.079,7.383-0.93c4.655,0.173,7.671,1.53,8.739,1.904c1.025,0.361,2.678,0.357,2.807,0.356  c0.127,0.001,1.778,0.005,2.806-0.356c1.066-0.375,4.082-1.731,8.74-1.904c3.996-0.148,6.623,0.488,7.383,0.93  c0.16,0.104,0.266,0.284,0.266,0.488v2.203c0,0.305-0.143,0.552-0.537,0.899c-0.711,0.526-0.723,1.252-0.866,2.419  c-0.226,1.836-0.399,5.855-6.445,6.446c-5.688,0.557-8.106-2.524-8.985-4.818c-0.867-2.261-0.849-3.372-2.359-3.376  c-1.512,0.004-1.494,1.115-2.361,3.376C46.008,39.427,43.59,42.509,37.901,41.952z M52.428,35.434  c0.266,3.031,2.814,5.812,7.127,5.812c3.463,0.001,6.26-1.961,6.289-5.957c0.035-5.105-3.018-5.428-6.471-5.178  C51.361,30.691,52.156,32.335,52.428,35.434z M38.936,41.247c4.312,0,6.861-2.781,7.127-5.812c0.271-3.1,1.07-4.744-6.945-5.323  c-3.451-0.251-6.506,0.072-6.469,5.177C32.676,39.285,35.475,41.247,38.936,41.247z M44.891,32.7  c0.205,0.097,0.402,0.129,0.581,0.113c-0.056-0.211-0.15-0.385-0.283-0.537c-0.557-0.63-2.057-1.195-6.121-1.489  c-2.852-0.206-4.99-0.025-5.582,2.676c0.316,0.244,0.764,0.317,1.209,0.022c1.157-0.761,2.518-1.318,4.02-1.582  C40.967,31.505,43.084,31.842,44.891,32.7z M38.541,35.932c0,0.938,0.758,1.698,1.697,1.698c0.937,0,1.697-0.76,1.697-1.698  c0-0.591-0.303-1.11-0.758-1.415c1.328,0.251,2.312,0.968,2.68,1.777c0.334,0.735,1.436,0.237,1.104-0.498  c-0.715-1.578-2.675-2.583-4.82-2.583c-2.154,0-4.041,1.012-4.752,2.583c-0.33,0.735,0.772,1.233,1.101,0.498  c0.391-0.865,1.439-1.617,2.873-1.819C38.871,34.772,38.541,35.314,38.541,35.932z M59.779,31.902  c1.503,0.264,2.865,0.821,4.021,1.582c0.445,0.293,0.89,0.223,1.205-0.02c-0.59-2.703-2.729-2.885-5.582-2.678  c-4.063,0.294-5.563,0.86-6.12,1.489c-0.128,0.145-0.216,0.329-0.271,0.538c0.176,0.015,0.368-0.017,0.571-0.113  C55.41,31.842,57.525,31.504,59.779,31.902z"/>
</svg>
