<svg xmlns="http://www.w3.org/2000/svg" xmlns:xlink="http://www.w3.org/1999/xlink" version="1.1" x="0px" y="0px" viewBox="0 0 144.083 144" enable-background="new 0 0 144.083 144" xml:space="preserve"><path d="M132.122,87.293l-10-40.91c-0.328-1.344-1.531-2.288-2.914-2.288H75.172v-3.517l11.924-5.527  c1-0.463,1.666-1.438,1.732-2.538c0.068-1.1-0.473-2.148-1.408-2.731l-13.662-8.5c-0.926-0.575-2.089-0.604-3.042-0.075  c-0.952,0.529-1.543,1.533-1.543,2.623v20.266H24.875c-1.382,0-2.586,0.944-2.914,2.287L11.96,87.292  c-0.219,0.896-0.015,1.841,0.554,2.565s1.439,1.147,2.36,1.147h1.734v29.166c0,1.657,1.343,3,3,3h29.39H62.63h18.824h13.631h29.391  c1.658,0,3-1.343,3-3V91.005h1.732c0.922,0,1.791-0.423,2.359-1.147C132.137,89.133,132.34,88.188,132.122,87.293z M75.172,29.229  l4.363,2.714l-4.363,2.022V29.229z M18.696,85.005l0.816-3.338h26.487v3.338H18.696z M51.999,117.171v-45.14l20.263-19.598  l19.823,19.579v45.158h-7.631V96.485c0-6.844-5.568-12.412-12.412-12.412c-6.844,0-12.412,5.568-12.412,12.412v20.686H51.999z   M65.63,96.485c0-3.536,2.876-6.412,6.412-6.412c3.537,0,6.412,2.876,6.412,6.412v20.686H65.63V96.485z M98.084,81.667h26.486  l0.816,3.338H98.084V81.667z M123.104,75.667h-25.02v-4.908c0-0.802-0.32-1.57-0.891-2.135L78.433,50.095h38.419L123.104,75.667z   M27.23,50.095h38.82L46.913,68.603c-0.584,0.565-0.914,1.343-0.914,2.156v4.908h-25.02L27.23,50.095z M22.609,91.005h23.39v26.166  h-23.39V91.005z M121.475,117.171H98.084V91.005h23.391V117.171z"></path><path d="M72.042,81.667c5.775,0,10.472-4.698,10.472-10.473s-4.697-10.473-10.472-10.473c-5.774,0-10.473,4.698-10.473,10.473  S66.268,81.667,72.042,81.667z M72.042,66.722c2.466,0,4.472,2.007,4.472,4.473s-2.006,4.473-4.472,4.473  c-2.466,0-4.473-2.007-4.473-4.473S69.576,66.722,72.042,66.722z"></path><rect x="26.875" y="98.663" width="6" height="9.333"></rect><rect x="35.708" y="98.663" width="6" height="9.333"></rect><rect x="102.375" y="98.663" width="6" height="9.333"></rect><rect x="111.208" y="98.663" width="6" height="9.333"></rect></svg>