<svg xmlns="http://www.w3.org/2000/svg" xmlns:xlink="http://www.w3.org/1999/xlink" version="1.1" x="0px" y="0px" viewBox="0 0 512 512" enable-background="new 0 0 512 512" xml:space="preserve"><g><path d="M336.2,3.3c-18,8.1-38.4,10.1-59.9,12.3C164.4,21.1,96.5,101.9,93.4,188.1H72.1c-7.8,0-14.1,6.3-14.1,14.1v70H34.4   c-7.8,0-14.1,6.3-14.1,14.1v158c0,36.2,29.5,65.7,65.7,65.7H426c36.2,0,65.7-29.5,65.7-65.7v-158c0-7.8-6.3-14.1-14.1-14.1H454v-70   c0-7.8-6.3-14.1-14.1-14.1h-24.4c-2.9-32.4-17.5-63.4-41-86.4c-45.1-38.6-41.9-51.1-23.9-74.4C364.2,14.8,349.4-2.9,336.2,3.3z    M279.1,43.7c10.8-1.1,21.7-2.2,32.5-4.1c-7.4,26.6,5.8,50.6,32.8,72.9c27.2,23.2,40.2,48.6,42.8,75.6H121.6   C128.7,100.9,190.5,50.1,279.1,43.7z M86.2,216.3h339.6v55.9H86.2V216.3z M463.5,444.3c0,20.7-16.8,37.5-37.5,37.5H86   c-20.7,0-37.5-16.8-37.5-37.5V300.4h414.9V444.3z"></path></g></svg>