<svg xmlns="http://www.w3.org/2000/svg" xmlns:xlink="http://www.w3.org/1999/xlink" version="1.1" id="Layer_1" x="0px" y="0px" width="100px" height="100px" viewBox="0 0 100 100" enable-background="new 0 0 100 100" xml:space="preserve">
<path d="M86.418,45.903c-0.47-4.149-1.619-8.094-3.339-11.719c-0.772-1.629-1.659-3.192-2.65-4.682  c-4.696-7.059-11.722-12.44-19.975-15.027c-1.769-0.554-3.593-0.981-5.464-1.269c-1.855-0.285-3.757-0.433-5.692-0.433  c-2.256,0-4.464,0.213-6.612,0.598c-1.775,0.319-3.506,0.762-5.186,1.322c-7.973,2.661-14.759,7.936-19.331,14.809  c-0.991,1.49-1.878,3.053-2.65,4.682c-1.72,3.625-2.869,7.57-3.339,11.719c-0.159,1.391-0.248,2.803-0.248,4.236  c0,0.447,0.018,0.888,0.034,1.331c0.284,8.065,3.134,15.485,7.76,21.472c1.094,1.414,2.285,2.748,3.566,3.991  c2.904,2.82,6.26,5.177,9.954,6.942c1.67,0.797,3.412,1.473,5.208,2.02c3.435,1.043,7.073,1.609,10.844,1.609  c2.87,0,5.662-0.336,8.348-0.951c1.756-0.402,3.463-0.927,5.114-1.567c3.831-1.485,7.36-3.579,10.462-6.171  c1.434-1.197,2.773-2.502,4.014-3.898c5.585-6.291,9.079-14.469,9.395-23.446c0.016-0.442,0.033-0.884,0.033-1.331  C86.664,48.706,86.576,47.294,86.418,45.903z M60.58,19.452c6.092,2.247,11.332,6.26,15.106,11.413L71.6,41.827l-7.451,2.113  L51.66,34.4l0.171-8.185L60.58,19.452z M60.947,47.373l-4.496,14.55H42.147l-4.496-14.55L49.3,38.474L60.947,47.373z M49.298,17.444  c1.913,0,3.784,0.174,5.607,0.491l-5.452,4.215l-5.945-4.182C45.39,17.63,47.322,17.444,49.298,17.444z M37.686,19.583l9.472,6.662  l-0.169,8.118L34.451,43.94l-7.452-2.113l-4.086-10.963C26.618,25.806,31.737,21.851,37.686,19.583z M19.833,35.975l2.601,6.978  l-5.703,4.395C17.075,43.305,18.148,39.467,19.833,35.975z M26.295,73.347l7.592-0.157l2.287,6.885  C32.473,78.445,29.129,76.156,26.295,73.347z M34.367,68.507l-11.924,0.247c-3.124-4.49-5.15-9.794-5.689-15.527l8.963-6.908  l7.364,2.088l4.763,15.412L34.367,68.507z M54.973,82.331c-1.846,0.324-3.738,0.503-5.674,0.503c-2.611,0-5.148-0.316-7.585-0.898  L38.16,71.233l3.44-4.64h15.245l2.877,4.848L54.973,82.331z M60.754,80.758l3.04-6.967l7.171,0.804  C67.992,77.231,64.54,79.336,60.754,80.758z M74.975,70.344l-11.217-1.257l-3.046-5.129l4.806-15.551l7.363-2.088l8.963,6.908  C81.24,59.652,78.766,65.538,74.975,70.344z M76.165,42.953l2.601-6.976c1.686,3.491,2.758,7.329,3.102,11.371L76.165,42.953z"/>
</svg>
