<svg fill="#000000" xmlns="http://www.w3.org/2000/svg" xmlns:xlink="http://www.w3.org/1999/xlink" version="1.1" x="0px" y="0px" viewBox="0 0 100 100" enable-background="new 0 0 100 100" xml:space="preserve"><g><circle cx="50.002" cy="38.121" r="11.429"/><path d="M85.383,54.083c-0.114-0.385-0.262-0.763-0.486-1.119L74.848,36.984c-1.32-2.102-4.096-2.733-6.197-1.413   c-2.102,1.322-2.732,4.097-1.412,6.198l5.941,9.449H62.326c-0.082,0-0.159,0.02-0.24,0.024c-0.081-0.005-0.158-0.024-0.24-0.024   H38.154c-0.083,0-0.16,0.021-0.241,0.024c-0.082-0.005-0.159-0.024-0.241-0.024H26.818l4.192-6.667l0.386,1.736   c0.339,1.526,1.852,2.49,3.38,2.15c1.527-0.339,2.491-1.852,2.151-3.379l-2.89-13.018c-0.339-1.527-1.853-2.49-3.38-2.151   s-2.491,1.853-2.151,3.38l0.359,1.617c-1.46,0.03-2.878,0.768-3.715,2.097L15.102,52.964c-0.231,0.367-0.381,0.759-0.496,1.156   c-0.189,0.497-0.305,1.031-0.305,1.595c0,2.481,2.012,4.493,4.494,4.493h14.736v25.685c0,2.552,2.07,4.622,4.623,4.622h23.691   c2.553,0,4.625-2.07,4.625-4.622V60.208h14.732c2.484,0,4.496-2.012,4.496-4.493C85.699,55.138,85.581,54.59,85.383,54.083z"/><polygon points="42.001,19.969 45.414,23.379 48.996,19.794 52.604,23.397 55.896,20.106 52.289,16.499 55.875,12.915    52.467,9.504 48.882,13.089 45.275,9.485 41.983,12.776 45.588,16.384  "/></g></svg>