<svg fill="#000000" xmlns:dc="http://purl.org/dc/elements/1.1/" xmlns:cc="http://creativecommons.org/ns#" xmlns:rdf="http://www.w3.org/1999/02/22-rdf-syntax-ns#" xmlns:svg="http://www.w3.org/2000/svg" xmlns="http://www.w3.org/2000/svg" xmlns:sodipodi="http://sodipodi.sourceforge.net/DTD/sodipodi-0.dtd" xmlns:inkscape="http://www.inkscape.org/namespaces/inkscape" viewBox="0 0 100 100" version="1.1" x="0px" y="0px"><g transform="translate(0,-952.36216)"><path style="" d="m 5.3478,957.51511 0,47.43499 c 0.7367,-1.1494 1.6191,-2.2075 2.6163,-3.1436 l 0,-41.67689 84.4195,0 0,64.18599 -22.8387,0 c -0.8066,0.8742 -1.6177,1.7437 -2.4258,2.6164 l 27.8808,0 0,-69.4169 -89.6522,0 z m 63.8493,6.60011 c -0.9596,0 -1.1569,0.036 -1.7468,0.3257 -1.7417,0.8553 -3.3561,3.0795 -4.4648,6.1505 -0.2051,0.5682 -0.4152,1.0272 -0.4663,1.0177 -0.051,-0.01 -0.6306,-0.1092 -1.2878,-0.2239 -1.4767,-0.2572 -4.3078,-0.2896 -5.2346,-0.059 -0.8624,0.2144 -1.9023,0.7192 -2.4553,1.1934 -0.2548,0.2183 -0.6364,0.7217 -0.8476,1.1176 -0.3255,0.6108 -0.3912,0.8643 -0.4329,1.6727 -0.027,0.5298 0.01,1.2244 0.087,1.5654 0.3336,1.4908 1.2463,3.1725 2.6997,4.9774 l 0.927,1.1527 -0.3775,0.39779 c -1.383,1.45641 -2.9389,4.0736 -3.3122,5.57141 -0.2682,1.0766 -0.1778,2.404 0.2203,3.21769 0.5726,1.1704 1.7049,1.98781 3.3769,2.4388 0.9876,0.2626 3.7172,0.2646 5.2475,0 0.6017,-0.1041 1.1728,-0.2175 1.2657,-0.2535 0.129,-0.049 0.2556,0.1852 0.5365,0.9918 1.2049,3.4577 3.0862,5.89549 5.0421,6.53339 l 0,0 c 0.799,0.2606 2.1979,0.1536 2.9809,-0.2295 1.729,-0.8459 3.3267,-3.05468 4.4538,-6.15419 0.2048,-0.5632 0.4151,-1.016 0.4662,-1.00649 1.9729,0.3622 2.5649,0.42159 4.1319,0.4311 1.9185,0.01 2.5596,-0.1 3.6987,-0.6199 0.9308,-0.4247 1.5366,-0.9835 1.9928,-1.8392 0.3256,-0.6108 0.3931,-0.8644 0.4348,-1.6727 0.027,-0.5239 -0.014,-1.2409 -0.089,-1.5931 -0.3004,-1.4072 -1.8216,-4.0316 -3.2085,-5.5362 l -0.4551,-0.4959 0.8808,-1.0583 c 2.1438,-2.5748 3.0841,-4.6713 2.9808,-6.6428 -0.061,-1.1617 -0.4233,-1.9597 -1.2342,-2.7181 -1.1427,-1.0688 -2.4979,-1.4716 -4.9439,-1.471 -1.5149,5e-4 -3.4626,0.2128 -4.0652,0.4441 -0.1292,0.049 -0.2554,-0.1818 -0.5311,-0.9715 -1.0972,-3.1422 -2.7549,-5.4603 -4.5258,-6.3299 -0.5898,-0.2892 -0.7852,-0.3257 -1.7449,-0.3257 z m -0.1388,2.0724 c 0.9369,-0.076 1.8695,0.5968 2.8217,2.028 0.6109,0.9182 1.5525,2.9981 1.7061,3.7654 l 0.072,0.3534 -1.1158,0.3719 c -0.6138,0.2045 -1.6006,0.5696 -2.1925,0.8105 l 0,0 c -0.592,0.2409 -1.1057,0.4293 -1.1417,0.4293 -0.037,0 -0.3998,-0.1562 -0.8067,-0.3368 -0.4068,-0.1808 -1.3964,-0.5699 -2.1982,-0.8659 -1.6901,-0.6239 -1.6025,-0.4028 -0.8716,-2.2335 0.5977,-1.4972 1.2485,-2.5763 2.0318,-3.3768 0.5717,-0.5844 1.1345,-0.9 1.6967,-0.94551 z m -36.0889,6.5632 c -6.4437,0 -11.6848,5.2409 -11.6848,11.6847 0,6.4839 5.2428,11.69779 11.6848,11.69779 6.4839,0 11.7256,-5.21389 11.7256,-11.69779 0,-6.4438 -5.2417,-11.6847 -11.7256,-11.6847 z m 25.3607,0.5199 c 1.0691,0 3.3015,0.2806 3.5748,0.4496 0.1056,0.065 0.085,0.3618 -0.089,1.2693 -0.1247,0.6509 -0.2896,1.6945 -0.3645,2.3204 l -0.1351,1.1379 -1.0953,0.8234 c -0.6023,0.4526 -1.4597,1.1285 -1.9041,1.5024 l -0.8067,0.681 -0.6162,-0.7402 c -2.0908,-2.5142 -2.989,-4.8377 -2.3407,-6.0524 0.4828,-0.9046 1.805,-1.3914 3.7766,-1.3914 z m 21.6766,0.172 c 1.919,0 2.7301,0.2094 3.5064,0.9122 0.502,0.4544 0.5225,0.4981 0.568,1.2194 0.082,1.296 -0.5607,2.7535 -2.0668,4.6776 -1.1699,1.4948 -1.0607,1.4549 -1.9114,0.6921 -0.3977,-0.3567 -1.2392,-1.0486 -1.8707,-1.5376 l -1.1472,-0.8901 -0.1406,-1.1712 c -0.077,-0.6445 -0.2392,-1.6827 -0.359,-2.3055 -0.1582,-0.8256 -0.1807,-1.1542 -0.087,-1.212 0.3058,-0.1891 2.0893,-0.3842 3.5082,-0.3849 z m -15.8611,0.9456 c 0.048,-0.079 1.7905,0.4856 2.2463,0.7272 0.1771,0.094 -0.01,0.235 -1.1712,0.8973 -0.7598,0.4326 -1.4056,0.7864 -1.434,0.7864 -0.028,0 -0.052,-0.096 -0.052,-0.2146 0,-0.2644 0.3397,-2.0813 0.4107,-2.1963 z m 10.0862,0.02 c 0.031,0 0.087,0.1926 0.1258,0.4273 0.039,0.2347 0.1423,0.7971 0.2295,1.2508 0.087,0.4537 0.1267,0.8216 0.087,0.8216 -0.04,0 -0.1747,-0.082 -0.2997,-0.1776 -0.1253,-0.096 -0.7294,-0.4598 -1.3434,-0.8086 -0.614,-0.3489 -1.0753,-0.6742 -1.0251,-0.7216 0.083,-0.078 2.09,-0.7919 2.226,-0.7919 z m -5.0514,1.9243 0.9474,0.4719 c 0.9891,0.4924 4.1539,2.346 4.6462,2.7217 l 0.283,0.2184 0.035,3.0068 c 0.019,1.6546 -0.01,3.1825 -0.062,3.3934 -0.085,0.3313 -0.2759,0.4928 -1.4007,1.1916 -0.716,0.4449 -1.9974,1.174 -2.8478,1.621 -0.8503,0.447 -1.5666,0.813 -1.593,0.8123 -0.026,0 -0.7328,-0.3615 -1.5691,-0.8012 -2.1779,-1.1449 -4.1826,-2.4393 -4.2669,-2.7533 -0.138,-0.5181 -0.076,-6.1605 0.072,-6.4447 0.1646,-0.3165 2.016,-1.4708 4.2077,-2.6238 l 1.5487,-0.8141 z m 0.089,4.1059 c -0.5137,-0.013 -1.0387,0.1155 -1.5044,0.4034 -1.1929,0.7375 -1.5502,2.4053 -0.7826,3.6469 0.2486,0.4022 0.508,0.6376 0.9641,0.8771 0.5431,0.2867 0.7228,0.3228 1.3783,0.2868 0.5923,-0.032 0.87,-0.1137 1.3026,-0.3811 1.193,-0.7376 1.5504,-2.4036 0.7827,-3.6452 -0.4609,-0.7456 -1.2847,-1.1656 -2.1408,-1.1879 z m -8.295,0.9807 c 0.1109,-0.064 0.1425,0.2809 0.1425,1.5746 0,0.9113 -0.038,1.6542 -0.085,1.6542 -0.068,0 -1.5072,-1.2107 -1.8799,-1.5784 -0.075,-0.073 1.3855,-1.3955 1.8226,-1.6504 z m 16.3773,0.044 c 0.061,0 0.9086,0.7106 1.8336,1.5358 0.1146,0.1022 -0.043,0.2889 -0.7383,0.8715 l 0,0 c -0.4869,0.4075 -0.9483,0.778 -1.0269,0.8234 -0.111,0.064 -0.1425,-0.279 -0.1425,-1.5728 0,-0.9112 0.034,-1.6579 0.076,-1.6579 z m -19.8189,3.0679 1.1379,0.9807 c 0.6259,0.5387 1.4748,1.2297 1.8873,1.5358 l 0.7512,0.555 0.1389,1.1695 c 0.077,0.6428 0.2375,1.678 0.357,2.2999 0.1194,0.6218 0.1941,1.1548 0.1647,1.1842 -0.029,0.029 -0.4001,0.1211 -0.8234,0.2054 -0.9796,0.1955 -3.8003,0.293 -4.4556,0.1536 -2.4415,-0.5196 -3.0458,-2.0388 -1.7948,-4.5074 0.4873,-0.9618 1.3506,-2.1971 2.0852,-2.9846 l 0.5515,-0.5921 z m 23.3197,0.1295 0.3164,0.3645 c 2.0404,2.3487 3.1583,4.7453 2.8124,6.03209 -0.1688,0.62751 -0.8072,1.2267 -1.5931,1.49511 -0.8949,0.3055 -3.3273,0.34819 -4.7923,0.085 -0.6064,-0.1089 -1.1343,-0.2295 -1.1731,-0.2684 -0.039,-0.039 0.031,-0.6006 0.1554,-1.2489 0.1241,-0.6484 0.2877,-1.6996 0.3645,-2.337 l 0.1388,-1.1601 0.6014,-0.41271 c 0.3306,-0.22769 1.1792,-0.8947 1.8854,-1.48199 l 1.2842,-1.06771 z m -17.1692,4.5629 c 0.014,-0.019 0.301,0.13899 0.6365,0.3516 0.3353,0.2126 0.9588,0.58079 1.3859,0.8178 0.427,0.237 0.7339,0.4698 0.6827,0.5181 -0.051,0.048 -0.5598,0.2463 -1.1305,0.4404 -0.5708,0.19409 -1.0633,0.35339 -1.0917,0.35339 -0.056,0 -0.5275,-2.42159 -0.4829,-2.48129 z m 10.9521,0.14439 c 0.033,0.033 -0.029,0.5607 -0.1369,1.1712 -0.1083,0.6105 -0.2313,1.1417 -0.2739,1.1824 -0.082,0.078 -2.4168,-0.705 -2.4073,-0.8087 0.01,-0.1036 2.7527,-1.6094 2.8181,-1.5449 z m -5.5177,2.7939 1.8318,0.7272 c 1.0074,0.3997 2.0286,0.7883 2.2685,0.8641 0.5235,0.166 0.5233,0.1615 -0.2017,1.9577 -0.7977,1.9761 -2.089,3.7038 -3.0271,4.0504 -0.563,0.2075 -0.8584,0.2284 -1.3193,0.087 -0.9586,-0.2942 -1.9384,-1.3457 -2.7718,-2.9753 -0.452,-0.8838 -1.1398,-2.6616 -1.1398,-2.9457 0,-0.095 0.4268,-0.296 1.1046,-0.5218 0.6075,-0.2024 1.5884,-0.5662 2.1797,-0.8068 l 1.0751,-0.4367 z m -50.7805,7.4643 c -7.4354,0.1893 -13.3371,6.30779 -13.3371,13.87729 l 0,14.3771 c 0,0 0.034,2.5962 0.8604,3.7617 0.8752,1.2342 2.5682,1.891 2.5682,1.891 l 16.2533,6.4873 c 5.9118,2.3594 9.0351,-5.4692 3.1234,-7.8287 l -14.3789,-5.7379 0,-12.0512 3.684,0 0,11.4832 c 2.5965,1.0351 6.589,2.4205 9.185,3.4564 2.7942,0.756 5.7351,2.4256 6.5613,5.3844 1.3508,3.9671 -2.5535,8.344 -6.6168,7.8492 -2.6141,-0.81 -6.5776,-2.4473 -9.1295,-3.4398 l 0,8.073 31.7941,0 0.015,-32.8064 3.5989,0 0,14.1106 c 10e-5,4.8806 4.8048,6.0526 7.1348,3.536 l 16.9712,-18.6698 c 4.2813,-4.7102 -1.9581,-10.3797 -6.2392,-5.6695 l -9.4904,10.4415 0,-4.4519 c -1e-4,-7.1017 -5.5313,-14.04209 -13.8442,-14.04209 l -6.1041,0 -15.9222,-0.022 -6.3336,0 -0.3535,0 0,-0.01 z" fill="#000000" fill-opacity="1"/></g></svg>