<svg fill="#000000" xmlns="http://www.w3.org/2000/svg" xmlns:xlink="http://www.w3.org/1999/xlink" version="1.1" x="0px" y="0px" viewBox="0 0 314.626 262.762" style="enable-background:new 0 0 314.626 262.762;" xml:space="preserve"><g><path d="M163.75,50.706c5.898-3.031,11.473-4.89,16.949-5.675c-1.178-2.802-1.852-5.854-1.906-9.032   c-12.191-0.249-32.967,2.012-39.254,19.34c-1.711,4.713-2.533,10.342-2.406,16.3C145.727,62.452,154.678,55.404,163.75,50.706z"/><path d="M150.131,107.083c1.736,2.006,3.652,3.866,5.756,5.542c3.977-5.113,6.693-13.522,8.416-20.685   C160.467,97.639,155.803,102.915,150.131,107.083z"/><path d="M164.922,81.073c-0.766,0.63-1.529,1.275-2.289,1.95c-5.834,5.159-11.514,11.645-16.488,18.737   c0.301,0.465,0.609,0.925,0.926,1.38C154.707,97.59,160.561,89.486,164.922,81.073z"/><path d="M293.563,77.649c-0.594,3.099-2.16,8.152-4.605,10.819c0.748,0.335,1.506,0.662,2.24,1.005   c1.234,0.579,2.535,0.853,3.814,0.853c3.383,0,6.625-1.917,8.154-5.183c2.109-4.5,0.17-9.859-4.33-11.968   c-1.611-0.755-3.24-1.484-4.881-2.19C294.174,72.855,294.051,75.096,293.563,77.649z"/><path d="M236.52,72.325c0.045,0.695,0.068,1.405,0.078,2.126c12.266,2.567,29.32,6.811,44.897,13.021   c1.332,0.529,2.707,0.779,4.059,0.779c4.375,0,9.709-18.982,4.064-21.225c-23.156-9.167-47.682-14.16-59.627-16.253   c1.449,4.53,3.691,12.286,5.424,21.655L236.52,72.325z"/><path d="M119.375,124.556c1.184,0.523,2.42,0.771,3.637,0.771c3.453,0,6.748-2,8.236-5.361c0.41-0.929,0.842-1.851,1.277-2.771   c-5.004-0.521-12.783-4.009-16.234-7.774c-0.514,1.081-1.021,2.167-1.506,3.264C112.773,117.23,114.828,122.545,119.375,124.556z"/><path d="M174.965,70.594c-2.248,6.08-5.209,12.672-9.084,18.908c-1.773,11.413-4.389,23.772-7.693,26.823c-6.5,6,55,26,55,26   s14.035-28.274,19.383-53.36c-1.197-15.671-5.172-29.885-7.328-36.625c-0.322-1.007-0.598-1.839-0.82-2.49   c-0.477-0.073-0.854-0.13-1.148-0.175c-3.988,5.614-10.264,9.482-17.355,10.252c-3.027,12.391-5.396,25.147-5.396,25.147   l-0.777-25.266c-7.986-1.163-14.607-6.135-18.154-12.892c-0.104,0.013-0.207,0.029-0.309,0.042   C181.004,48.732,179.336,58.721,174.965,70.594z"/><path d="M136.172,114.331c6.707-12.967,15.871-24.611,25.133-32.803c1.881-1.671,3.766-3.189,5.621-4.559   c0.512-1.113,1.006-2.224,1.469-3.329c4.637-11.045,6.85-21.367,7.631-25.615c-3.871,1.026-7.654,2.553-11.355,4.456   c-9.279,4.807-18.178,12.012-26.389,20.846c-8.191,8.844-15.654,19.342-21.641,30.875   C113.844,109.595,134.215,118.107,136.172,114.331z"/><path d="M158.398,123.35l-24.459,24.342c-2.758,2.745-4.35,6.48-4.416,10.373l-0.975,56.191l30.09-4.951l0.773-44.639   l23.551-23.438l-2.393,27.81c-0.234,2.69,0.297,5.499,1.49,7.921l12.998,26.354l30.939-5.091l-15.18-30.778l1.959-22.778   C204.908,141.858,173.898,130.671,158.398,123.35z"/><path d="M299.625,190.818l-215.26,35.418c-9.305,1.467-17.727,10.789-18.807,20.82c-0.037,0.342-0.043,0.67-0.062,1.005   c-0.543,9.484,5.963,15.922,14.951,14.507l215.26-35.42c9.305-1.467,17.727-10.791,18.809-20.822   c0.219-2.03,0.106-3.924-0.268-5.657C312.777,193.837,307.049,189.646,299.625,190.818z"/><path d="M201.459,57.999c12.385,1.012,23.246-8.209,24.258-20.594c0.266-3.268-0.186-6.428-1.213-9.331   c-17.85-2.274-38.205,5.748-43.705,8.11C181.094,47.526,189.896,57.054,201.459,57.999z M212.617,31.023   c3.143-1.139,6.373-0.172,7.217,2.158c0.846,2.33-1.018,5.141-4.158,6.279c-3.141,1.139-6.373,0.174-7.217-2.156   C207.615,34.974,209.477,32.161,212.617,31.023z M196.521,33.325c3.867,0,7,2.033,7,4.541c0,2.51-3.133,4.543-7,4.543   c-3.865,0-7-2.033-7-4.543C189.521,35.358,192.656,33.325,196.521,33.325z"/><path d="M225.188,25.491c0.279-0.873,0.441-1.771,0.529-2.681c0.768-7.771-5.305-16.565-17.195-21.151   c-9.855-3.803-21.725-1.268-28.756,9.666c-2.523,3.924-1.5,15.5-2.744,23c0,0,0.658-0.288,1.85-0.76   C185.332,31,207.457,22.959,225.188,25.491z"/><polygon points="30.67,222.969 14.486,242.824 47.525,242.824 47.525,235.826 29.221,235.824 42.383,219.679 22.047,212.505    39.48,206.983 27.131,182.593 49.799,196.233 58.207,179.671 65.443,201.1 81.68,193.793 78.205,204.218 84.848,206.433    84.848,206.431 93.371,180.854 69.607,191.549 59.508,161.644 46.965,186.358 9.902,164.063 29.514,202.795 0,212.144  "/></g></svg>