<svg fill="#000000" xmlns="http://www.w3.org/2000/svg" xmlns:xlink="http://www.w3.org/1999/xlink" version="1.1" x="0px" y="0px" viewBox="0 0 100 100" enable-background="new 0 0 100 100" xml:space="preserve"><g><path fill="none" d="M80.182,38.846c0.059-0.268-0.006-0.67-0.178-0.87c-0.537-0.627-0.741-1.343-0.716-2.112   c0.063-1.921,0.109-3.846,0.279-5.756c0.163-1.831,0.257-3.645-0.156-5.464c-0.076-0.335-0.185-0.663-0.29-1.036   c-0.401,0.682-0.677,1.311-1.092,1.826c-0.834,1.034-2.002,0.993-2.836-0.093c-0.461-0.601-0.903-1.251-1.19-1.943   c-0.536-1.291-0.816-2.697-1.449-3.932c-1.061-2.07-2.31-4.048-3.494-6.057c-0.37-0.628-0.784-1.23-1.245-1.948   c-0.294,0.479-0.496,0.804-0.695,1.131c-1.067,1.744-2.79,2.413-4.686,2.312c-1.318-0.07-2.677-0.576-3.917-1.128   c-1.913-0.85-3.197-2.5-4.453-4.117c-0.754-0.971-1.391-2.033-2.149-3.001c-0.535-0.683-0.704-0.632-1.355-0.056   c-0.594,0.525-1.197,1.046-1.839,1.511c-1.452,1.053-3.041,1.664-4.828,0.827c-0.97-0.454-1.861-1.093-2.762-1.688   c-1-0.659-2.049-1.027-3.168-0.514c-0.75,0.344-1.458,0.8-2.128,1.284c-0.651,0.471-1.129,1.248-2.082,1.133   c-0.994-0.121-1.862,0.04-2.635,0.716c-0.439,0.385-1.044,0.416-1.433-0.098c-0.551-0.727-1.205-1.025-2.084-0.944   c-0.28,0.026-0.581-0.064-0.863-0.142c-0.705-0.194-1.275-0.097-1.867,0.403c-1.296,1.093-2.429,1.184-3.737,0.337   c-0.477-0.309-0.877-0.789-1.218-1.258c-0.585-0.804-1.356-1.146-2.284-1.059c-1.085,0.102-2.157,0.304-3.239,0.439   c-0.731,0.091-1.467,0.142-2.339,0.224c0.894,0.832,1.7,1.549,2.468,2.305c1.069,1.051,1.65,2.259,1.17,3.775   c-0.109,0.344-0.153,0.711-0.214,1.07c-0.14,0.825,0.053,1.408,0.915,1.838c1.344,0.671,1.669,1.913,0.964,3.225   c-0.226,0.42-0.53,0.804-0.838,1.171c-0.619,0.738-0.607,1.132,0.014,1.91c0.49,0.615,0.979,1.243,1.37,1.921   c0.969,1.684,0.646,3.633-0.758,4.911c-0.369,0.336-0.751,0.656-1.177,1.026c0.227,0.415,0.415,0.876,0.702,1.266   c1.28,1.744,2.567,3.484,3.893,5.193c1.009,1.3,1.171,2.249,0.173,3.502c-0.847,1.063-1.909,1.951-2.882,2.91   c-0.229,0.226-0.484,0.425-0.838,0.733c0.838,0.547,1.55,1.067,2.312,1.498c1.603,0.907,3.018,2.013,4.078,3.55   c0.663,0.962,1.615,1.396,2.717,1.744c1.24,0.391,2.427,1.021,3.566,1.675c0.789,0.453,1.061,1.283,0.864,2.18   c-0.167,0.757-0.383,1.502-0.591,2.248c-0.202,0.725-0.126,1.417,0.35,2.019c0.729,0.922,1.593,1.726,2.726,2.065   c1.498,0.448,3.017,0.85,4.549,1.139c1.802,0.34,3.253,1.152,4.296,2.698c0.595,0.883,0.583,1.76-0.097,2.54   c-0.394,0.451-0.824,0.869-1.295,1.36c1.039,0.585,2.094,0.989,3.22,0.989c1.7,0,3.399-0.09,5.096-0.182   c1.838-0.099,3.405-0.964,5.04-1.679c1.774-0.776,3.527-0.565,5.117,0.755c0.254,0.211,0.723,0.305,1.052,0.247   c0.759-0.132,1.514-0.338,2.232-0.611c1.121-0.427,2.377-0.726,3.281-1.447c2.461-1.963,4.907-3.972,6.886-6.461   c0.266-0.334,0.45-0.735,0.722-1.186c-0.677,0.061-1.188,0.075-1.687,0.156c-4.52,0.736-9.038,0.598-13.575-0.23   c-4.781-0.872-9.579-1.64-14.363-2.494c-1.468-0.262-2.916-0.66-4.373-0.996c0.012-0.065,0.025-0.131,0.037-0.196   c0.3,0.045,0.6,0.093,0.901,0.136c4.566,0.644,9.136,1.249,13.696,1.941c5.386,0.818,10.76,1.728,16.193,0.861   c0.825-0.132,1.657-0.227,2.574-0.351c-0.155-0.213-0.23-0.367-0.349-0.47c-1.364-1.191-2.734-2.374-4.103-3.559   c-0.112-0.097-0.237-0.18-0.339-0.285c-2.085-2.13-4.163-4.269-6.26-6.387c-0.214-0.216-0.545-0.445-0.82-0.449   c-2.43-0.033-4.864,0.109-7.288-0.039c-5.073-0.309-10.045-1.391-14.988-2.625c-4.11-1.026-7.858-3.012-11.724-4.686   c-0.404-0.175-0.745-0.501-1.116-0.757c0.045-0.103,0.089-0.207,0.134-0.31c10.909,5.166,22.302,7.62,34.428,7.272   c-0.326-0.375-0.475-0.571-0.648-0.742c-2.243-2.216-4.409-4.519-6.761-6.61c-1.684-1.498-3.625-2.703-5.436-4.06   c-0.536-0.402-1.036-0.621-1.758-0.659c-4.444-0.232-8.829-0.977-13.063-2.458c-3.372-1.18-6.686-2.541-10.018-3.842   c-0.425-0.166-0.805-0.455-1.206-0.687c0.031-0.072,0.063-0.144,0.094-0.217c0.294,0.074,0.597,0.122,0.881,0.227   c2.686,0.998,5.376,1.986,8.051,3.017c3.852,1.485,7.827,2.336,11.906,2.67c0.802,0.066,1.607,0.082,2.595,0.13   c-1.333-1.036-2.534-1.895-3.652-2.852c-4.114-3.52-8.195-7.079-12.298-10.612c-2.422-2.086-4.848-4.169-7.643-5.752   c-0.375-0.212-0.724-0.47-1.085-0.707c0.631,0.151,1.197,0.416,1.765,0.68c3.175,1.479,5.782,3.792,8.464,5.981   c4.156,3.392,8.253,6.857,12.392,10.271c0.973,0.802,2.012,1.522,3.173,2.395c-0.072-0.456-0.082-0.701-0.151-0.93   c-0.56-1.877-1.122-3.753-1.705-5.624c-0.174-0.56-0.387-1.113-0.633-1.647c-1.89-4.099-3.794-8.192-5.689-12.289   c-0.35-0.758-0.677-1.526-1.014-2.289c0.062-0.033,0.123-0.066,0.185-0.099c0.393,0.584,0.831,1.144,1.168,1.759   c0.53,0.968,0.933,2.005,1.492,2.954c2.303,3.912,4.142,8.033,5.627,12.295c0.746,2.142,1.765,4.231,1.914,6.548   c0.01,0.162,0.246,0.345,0.413,0.466c1.535,1.11,3.173,2.096,4.597,3.334c2.414,2.097,4.694,4.351,7.031,6.538   c0.125,0.117,0.26,0.225,0.548,0.472c-0.422-1.732-0.865-3.242-1.15-4.778c-0.749-4.034-1.814-7.98-3.37-11.795   c-2.014-4.937-3.927-9.932-7.701-13.922c-0.161-0.171-0.26-0.4-0.389-0.603c2.401,1.709,4.174,3.915,5.548,6.452   c4.381,8.085,6.658,16.818,8.43,25.709c0.095,0.477,0.324,0.978,0.625,1.363c2.849,3.655,6.269,6.719,9.909,9.55   c0.459,0.357,0.91,0.724,1.489,1.186c0.001-0.483,0.028-0.838-0.002-1.19c-0.148-1.73-0.269-3.462-0.476-5.186   c-0.996-8.325-2.985-16.411-6.341-24.169c-1.073-2.481-2.031-5.026-3.935-7.037c-1.159-1.224-2.402-2.368-3.569-3.51   c-0.047,0.005,0.026-0.025,0.084-0.006c0.162,0.053,0.329,0.106,0.474,0.193c1.817,1.087,3.457,2.444,4.568,4.225   c1.202,1.927,2.191,4.003,3.11,6.083c1.949,4.411,3.574,8.945,4.735,13.612c1.209,4.859,2.09,9.778,2.42,14.769   c0.03,0.455,0.091,0.909,0.139,1.381c0.086-0.043,0.147-0.052,0.161-0.083c1.289-2.938,2.772-5.807,3.802-8.84   C79.135,44.556,79.566,41.665,80.182,38.846z"/><path d="M88.864,91.911c-0.317-0.609-0.703-1.183-1.078-1.761c-0.508-0.783-1.195-1.497-1.521-2.345   c-1.686-4.377-3.457-8.728-4.522-13.311c-0.549-2.362-1.229-4.7-1.935-7.024c-0.915-3.011-2.702-5.557-4.589-8.037   c-0.763-1.003-0.763-1.002-0.156-2.035c0.085-0.145,0.166-0.295,0.233-0.449c1.241-2.829,2.708-5.579,3.657-8.509   c1.039-3.21,1.616-6.583,2.341-9.898c0.073-0.332-0.218-0.758-0.356-1.135c-0.181-0.494-0.522-0.98-0.541-1.473   c-0.059-1.484-0.026-2.972,0.031-4.455c0.047-1.216,0.31-2.432,0.242-3.64c-0.084-1.499-0.359-3-0.667-4.478   c-0.074-0.353-0.567-0.774-0.937-0.873c-0.239-0.064-0.676,0.35-0.9,0.646c-0.329,0.436-0.497,0.995-0.823,1.435   c-0.468,0.631-0.973,0.629-1.399-0.038c-0.513-0.803-0.981-1.648-1.356-2.521c-0.572-1.329-0.88-2.794-1.601-4.029   c-1.212-2.074-2.63-4.035-4.02-6.002c-1.15-1.629-1.423-1.62-2.424,0.037c-0.951,1.575-2.413,1.973-4.105,1.812   c-3.42-0.325-5.745-2.401-7.667-5.075c-0.703-0.979-1.329-2.021-2.106-2.936c-0.913-1.076-1.697-1.043-2.76-0.175   c-0.909,0.743-1.862,1.437-2.831,2.102c-0.64,0.439-1.422,0.635-2.152,0.3c-1.126-0.516-2.209-1.139-3.281-1.769   c-1.191-0.699-2.382-1.09-3.756-0.653c-1.083,0.345-2.06,0.814-2.814,1.675c-0.552,0.631-1.19,0.906-2.089,0.888   c-0.674-0.013-1.375,0.331-2.006,0.634c-0.401,0.193-0.643,0.333-0.966-0.113c-0.469-0.647-1.139-0.891-1.923-0.89   c-0.408,0.001-0.826-0.055-1.226-0.152c-0.987-0.239-1.813-0.131-2.61,0.596c-1.233,1.126-2.517,0.9-3.446-0.526   c-0.742-1.139-1.792-1.589-3.061-1.531c-0.796,0.036-1.581,0.221-2.375,0.309c-1.155,0.128-2.319,0.196-3.467,0.363   c-0.316,0.046-0.712,0.294-0.839,0.563c-0.09,0.189,0.142,0.646,0.354,0.856c0.751,0.743,1.54,1.45,2.343,2.137   c1.071,0.915,1.743,1.942,1.243,3.398c-0.093,0.272-0.122,0.569-0.169,0.857c-0.188,1.142,0.105,2.041,1.209,2.651   c0.766,0.423,1.001,1.254,0.628,2.025c-0.217,0.449-0.523,0.867-0.853,1.242c-0.832,0.944-0.868,2.013-0.052,3.029   c0.278,0.346,0.578,0.676,0.835,1.037c1.359,1.913,1.103,3.681-0.7,4.922c-1.287,0.885-1.311,0.984-0.586,2.441   c0.087,0.176,0.177,0.354,0.293,0.511c1.388,1.88,2.77,3.764,4.177,5.629c0.623,0.825,0.758,1.26,0.123,2.028   c-0.884,1.069-1.842,2.095-2.888,3.003c-1.111,0.965-1.152,1.448,0.097,2.253c0.165,0.106,0.325,0.227,0.501,0.31   c2.488,1.175,4.561,2.858,6.266,5.038c0.326,0.417,0.897,0.663,1.387,0.929c1.162,0.631,2.346,1.22,3.516,1.836   c0.716,0.377,0.943,0.962,0.722,1.723c-0.162,0.558-0.307,1.122-0.479,1.676c-0.418,1.349-0.148,2.574,0.829,3.605   c0.553,0.584,1.165,1.161,1.851,1.56c1.839,1.07,3.914,1.362,5.953,1.741c1.289,0.24,2.416,0.785,3.304,1.779   c0.683,0.765,0.656,1.479-0.034,2.187c-0.285,0.292-0.531,0.624-0.837,0.89c-0.523,0.455-0.31,0.83,0.159,1.096   c1.12,0.634,2.292,1.143,3.598,1.151c3.59,0.023,7.104-0.194,10.392-1.861c1.451-0.735,3.047-0.508,4.407,0.732   c0.323,0.295,0.958,0.452,1.393,0.378c1.428-0.244,2.857-0.544,4.233-0.98c0.855-0.271,1.732-0.693,2.397-1.277   c2.68-2.352,5.648-4.431,7.588-7.83c1.18,2.002,2.444,3.812,3.35,5.781c0.814,1.771,1.255,3.71,1.825,5.585   c1.162,3.825,2.297,7.657,3.45,11.485c0.267,0.886,0.627,1.752,0.829,2.65c0.37,1.64,0.674,3.294,0.967,4.948   c0.229,1.294,0.387,2.599,0.606,3.895c0.072,0.425,0.319,0.607,0.798,0.466c0.967-0.284,1.666-0.955,2.41-1.56   c0.195-0.158,0.357-0.419,0.417-0.664C88.977,92.473,88.981,92.138,88.864,91.911z M74.251,56.191   c-0.048-0.472-0.109-0.926-0.139-1.381c-0.331-4.99-1.211-9.91-2.42-14.769c-1.161-4.666-2.786-9.201-4.735-13.612   c-0.919-2.08-1.908-4.155-3.11-6.083c-1.111-1.781-2.751-3.137-4.568-4.225c-0.145-0.087-0.312-0.141-0.474-0.193   c-0.058-0.019-0.131,0.011-0.084,0.006c1.167,1.142,2.41,2.286,3.569,3.51c1.905,2.012,2.862,4.557,3.935,7.037   c3.356,7.758,5.345,15.844,6.341,24.169c0.206,1.724,0.328,3.457,0.476,5.186c0.03,0.352,0.003,0.707,0.002,1.19   c-0.579-0.462-1.03-0.829-1.489-1.186c-3.64-2.831-7.06-5.895-9.909-9.55c-0.301-0.386-0.53-0.886-0.625-1.363   c-1.772-8.891-4.049-17.624-8.43-25.709c-1.375-2.537-3.148-4.742-5.548-6.452c0.128,0.202,0.227,0.432,0.389,0.603   c3.774,3.99,5.688,8.984,7.701,13.922c1.556,3.815,2.621,7.761,3.37,11.795c0.285,1.536,0.728,3.046,1.15,4.778   c-0.288-0.247-0.422-0.354-0.548-0.472c-2.337-2.187-4.617-4.44-7.031-6.538c-1.424-1.237-3.062-2.224-4.597-3.334   c-0.168-0.121-0.403-0.304-0.413-0.466c-0.149-2.317-1.168-4.406-1.914-6.548c-1.484-4.262-3.323-8.383-5.627-12.295   c-0.559-0.949-0.962-1.987-1.492-2.954c-0.337-0.614-0.775-1.174-1.168-1.759c-0.062,0.033-0.123,0.066-0.185,0.099   c0.337,0.763,0.664,1.531,1.014,2.289c1.895,4.097,3.799,8.19,5.689,12.289c0.246,0.534,0.459,1.087,0.633,1.647   c0.583,1.87,1.145,3.747,1.705,5.624c0.068,0.229,0.079,0.475,0.151,0.93c-1.162-0.873-2.201-1.593-3.173-2.395   c-4.139-3.414-8.236-6.878-12.392-10.271c-2.681-2.189-5.288-4.501-8.464-5.981c-0.567-0.264-1.134-0.53-1.765-0.68   c0.361,0.237,0.711,0.495,1.085,0.707c2.795,1.583,5.221,3.666,7.643,5.752c4.103,3.533,8.184,7.092,12.298,10.612   c1.118,0.957,2.32,1.816,3.652,2.852c-0.989-0.048-1.793-0.065-2.595-0.13c-4.079-0.334-8.054-1.184-11.906-2.67   c-2.674-1.031-5.365-2.018-8.051-3.017c-0.283-0.105-0.587-0.153-0.881-0.227c-0.031,0.072-0.063,0.144-0.094,0.217   c0.401,0.232,0.781,0.521,1.206,0.687c3.332,1.301,6.646,2.661,10.018,3.842c4.234,1.482,8.619,2.226,13.063,2.458   c0.723,0.038,1.222,0.257,1.758,0.659c1.811,1.357,3.751,2.562,5.436,4.06c2.352,2.092,4.518,4.395,6.761,6.61   c0.173,0.171,0.322,0.367,0.648,0.742c-12.127,0.348-23.519-2.106-34.428-7.272c-0.045,0.103-0.089,0.207-0.134,0.31   c0.37,0.256,0.712,0.582,1.116,0.757c3.865,1.674,7.613,3.66,11.724,4.686c4.943,1.234,9.915,2.316,14.988,2.625   c2.424,0.148,4.858,0.006,7.288,0.039c0.275,0.004,0.606,0.233,0.82,0.449c2.097,2.118,4.175,4.257,6.26,6.387   c0.103,0.105,0.228,0.188,0.339,0.285c1.369,1.185,2.739,2.368,4.103,3.559c0.118,0.103,0.193,0.257,0.349,0.47   c-0.917,0.124-1.749,0.219-2.574,0.351c-5.432,0.867-10.807-0.043-16.193-0.861c-4.559-0.692-9.13-1.297-13.696-1.941   c-0.301-0.042-0.6-0.09-0.901-0.136c-0.012,0.065-0.025,0.131-0.037,0.196c1.457,0.336,2.905,0.734,4.373,0.996   c4.784,0.854,9.582,1.622,14.363,2.494c4.537,0.828,9.055,0.966,13.575,0.23c0.498-0.081,1.009-0.096,1.687-0.156   c-0.272,0.452-0.456,0.852-0.722,1.186c-1.978,2.489-4.424,4.499-6.886,6.461c-0.904,0.721-2.16,1.021-3.281,1.447   c-0.718,0.273-1.473,0.479-2.232,0.611c-0.329,0.057-0.798-0.036-1.052-0.247c-1.59-1.32-3.343-1.531-5.117-0.755   c-1.636,0.716-3.202,1.58-5.04,1.679c-1.697,0.091-3.396,0.182-5.096,0.182c-1.126,0-2.182-0.404-3.22-0.989   c0.471-0.492,0.901-0.91,1.295-1.36c0.681-0.78,0.693-1.657,0.097-2.54c-1.043-1.546-2.493-2.358-4.296-2.698   c-1.532-0.289-3.051-0.69-4.549-1.139c-1.133-0.339-1.998-1.143-2.726-2.065c-0.476-0.602-0.552-1.294-0.35-2.019   c0.208-0.746,0.424-1.491,0.591-2.248c0.198-0.897-0.075-1.727-0.864-2.18c-1.139-0.654-2.327-1.284-3.566-1.675   c-1.102-0.348-2.054-0.782-2.717-1.744c-1.06-1.537-2.475-2.643-4.078-3.55c-0.761-0.431-1.473-0.951-2.312-1.498   c0.354-0.308,0.609-0.507,0.838-0.733c0.973-0.959,2.035-1.848,2.882-2.91c0.998-1.253,0.836-2.202-0.173-3.502   c-1.326-1.709-2.613-3.449-3.893-5.193c-0.286-0.39-0.475-0.851-0.702-1.266c0.426-0.37,0.809-0.69,1.177-1.026   c1.404-1.278,1.727-3.228,0.758-4.911c-0.39-0.678-0.88-1.306-1.37-1.921c-0.621-0.778-0.633-1.172-0.014-1.91   c0.308-0.367,0.611-0.751,0.838-1.171c0.706-1.312,0.38-2.553-0.964-3.225c-0.861-0.43-1.055-1.013-0.915-1.838   c0.061-0.359,0.105-0.726,0.214-1.07c0.481-1.517-0.1-2.724-1.17-3.775c-0.769-0.756-1.575-1.473-2.468-2.305   c0.871-0.082,1.608-0.133,2.339-0.224c1.081-0.135,2.154-0.338,3.239-0.439c0.928-0.087,1.699,0.255,2.284,1.059   c0.342,0.469,0.741,0.949,1.218,1.258c1.308,0.847,2.441,0.757,3.737-0.337c0.592-0.499,1.161-0.597,1.867-0.403   c0.281,0.077,0.583,0.168,0.863,0.142c0.879-0.081,1.534,0.216,2.084,0.944c0.389,0.514,0.995,0.482,1.433,0.098   c0.772-0.677,1.641-0.837,2.635-0.716c0.953,0.116,1.431-0.662,2.082-1.133c0.669-0.485,1.378-0.94,2.128-1.284   c1.118-0.513,2.167-0.145,3.168,0.514c0.902,0.594,1.793,1.233,2.762,1.688c1.787,0.837,3.377,0.226,4.828-0.827   c0.641-0.465,1.245-0.986,1.839-1.511c0.651-0.576,0.82-0.627,1.355,0.056c0.758,0.968,1.394,2.03,2.149,3.001   c1.256,1.617,2.541,3.267,4.453,4.117c1.24,0.551,2.598,1.057,3.917,1.128c1.896,0.101,3.619-0.568,4.686-2.312   c0.2-0.326,0.401-0.652,0.695-1.131c0.461,0.718,0.875,1.32,1.245,1.948c1.184,2.009,2.432,3.986,3.494,6.057   c0.633,1.235,0.913,2.641,1.449,3.932c0.287,0.693,0.729,1.343,1.19,1.943c0.834,1.086,2.001,1.127,2.836,0.093   c0.415-0.515,0.692-1.143,1.092-1.826c0.105,0.373,0.214,0.701,0.29,1.036c0.413,1.819,0.319,3.634,0.156,5.464   c-0.17,1.91-0.216,3.836-0.279,5.756c-0.025,0.769,0.179,1.485,0.716,2.112c0.171,0.2,0.236,0.602,0.178,0.87   c-0.616,2.819-1.047,5.71-1.968,8.422c-1.03,3.033-2.513,5.901-3.802,8.84C74.398,56.139,74.337,56.148,74.251,56.191z"/></g></svg>