<svg fill="#000000" xmlns="http://www.w3.org/2000/svg" xmlns:xlink="http://www.w3.org/1999/xlink" viewBox="0 0 60 60" version="1.1" x="0px" y="0px"><title>21 -Flower Soil- (Solid)</title><desc>Created with Sketch.</desc><g stroke="none" stroke-width="1" fill="none" fill-rule="evenodd"><g transform="translate(-120.000000, -570.000000)" fill="#000000"><g transform="translate(120.000000, 570.000000)"><path d="M15,51.0005 L17,51.0005 C17.552,51.0005 18,51.4485 18,52.0005 C18,52.5525 17.552,53.0005 17,53.0005 L15,53.0005 C14.448,53.0005 14,52.5525 14,52.0005 C14,51.4485 14.448,51.0005 15,51.0005 M27,54.0005 L29,54.0005 C29.552,54.0005 30,54.4485 30,55.0005 C30,55.5525 29.552,56.0005 29,56.0005 L27,56.0005 C26.448,56.0005 26,55.5525 26,55.0005 C26,54.4485 26.448,54.0005 27,54.0005 M27,45.0005 L28,45.0005 C28.552,45.0005 29,45.4485 29,46.0005 C29,46.5525 28.552,47.0005 28,47.0005 L27,47.0005 C26.448,47.0005 26,46.5525 26,46.0005 C26,45.4485 26.448,45.0005 27,45.0005 M26,11.0005 C26,8.7945 27.794,7.0005 30,7.0005 C32.206,7.0005 34,8.7945 34,11.0005 C34,13.2065 32.206,15.0005 30,15.0005 C27.794,15.0005 26,13.2065 26,11.0005 M34,50.0005 C34,50.5525 33.552,51.0005 33,51.0005 L30,51.0005 C29.448,51.0005 29,50.5525 29,50.0005 C29,49.4485 29.448,49.0005 30,49.0005 L33,49.0005 C33.552,49.0005 34,49.4485 34,50.0005 M41,55.0005 L42,55.0005 C42.552,55.0005 43,55.4485 43,56.0005 C43,56.5525 42.552,57.0005 42,57.0005 L41,57.0005 C40.448,57.0005 40,56.5525 40,56.0005 C40,55.4485 40.448,55.0005 41,55.0005 M45,51.0005 L47,51.0005 C47.552,51.0005 48,51.4485 48,52.0005 C48,52.5525 47.552,53.0005 47,53.0005 L45,53.0005 C44.448,53.0005 44,52.5525 44,52.0005 C44,51.4485 44.448,51.0005 45,51.0005 M59,58.0005 L53.785,58.0005 C53.922,57.3385 54,56.6705 54,56.0005 C54,50.4865 49.514,46.0005 44,46.0005 C42.526,46.0005 41.09,46.3205 39.775,46.9345 C38.911,42.8035 35.513,39.6495 31.314,39.0965 C32.003,36.1995 32.108,32.7235 31.972,29.5495 C33.105,28.7455 34.059,27.5975 34.524,26.9815 C37.623,26.7915 41,24.8905 41,20.0005 C41,19.4485 40.552,19.0005 40,19.0005 C35.545,19.0005 33.153,21.3075 33.025,25.6475 C32.768,26.0005 32.333,26.5415 31.817,27.0615 C31.638,24.8905 31.38,23.0275 31.172,21.8175 C32.364,21.4415 33.279,20.5085 33.605,19.3115 C34.897,19.7475 36.278,19.4385 37.342,18.3745 C38.407,17.3095 38.716,15.9285 38.279,14.6375 C39.847,14.2105 40.969,12.7785 40.969,11.0315 C40.969,9.2865 39.849,7.8565 38.284,7.4275 C38.735,6.1155 38.425,4.7095 37.342,3.6265 C36.247,2.5315 34.892,2.2305 33.594,2.7145 C33.148,1.1495 31.706,0.0005 30,0.0005 C28.289,0.0005 26.842,1.1575 26.402,2.7295 C25.19,2.2795 23.8,2.4215 22.595,3.6265 C21.39,4.8325 21.248,6.2215 21.698,7.4335 C20.125,7.8745 18.969,9.3205 18.969,11.0315 C18.969,12.7415 20.124,14.1875 21.695,14.6285 C21.223,15.9275 21.519,17.2975 22.595,18.3745 C23.753,19.5315 25.163,19.7085 26.39,19.2945 C26.741,20.6075 27.802,21.6015 29.159,21.8995 C29.463,23.5475 29.828,26.3385 29.967,29.3905 C29.573,29.0045 29.216,28.6925 28.964,28.4875 C28.78,24.2545 26.397,22.0005 22,22.0005 C21.448,22.0005 21,22.4485 21,23.0005 C21,27.9765 24.496,29.8545 27.639,29.9875 C28.102,30.3615 29.179,31.2925 29.917,32.4215 C29.946,32.4645 29.981,32.4995 30.015,32.5365 C29.98,34.8485 29.765,37.1275 29.26,39.0335 C24.799,39.3605 21.128,42.6155 20.225,46.9345 C18.91,46.3205 17.474,46.0005 16,46.0005 C11.171,46.0005 7.131,49.4415 6.202,54.0005 L12,54.0005 C12.552,54.0005 13,54.4485 13,55.0005 C13,55.5525 12.552,56.0005 12,56.0005 L6,56.0005 C6,56.6705 6.078,57.3385 6.215,58.0005 L1,58.0005 C0.448,58.0005 0,58.4485 0,59.0005 C0,59.5525 0.448,60.0005 1,60.0005 L7.523,60.0005 L52.477,60.0005 L59,60.0005 C59.552,60.0005 60,59.5525 60,59.0005 C60,58.4485 59.552,58.0005 59,58.0005"/><path d="M32,11.0005 C32,9.8975 31.103,9.0005 30,9.0005 C28.897,9.0005 28,9.8975 28,11.0005 C28,12.1035 28.897,13.0005 30,13.0005 C31.103,13.0005 32,12.1035 32,11.0005"/></g></g></g></svg>